<?xml version="1.0" encoding="UTF-8"?>
<svg width="1282px" height="1282px" viewBox="0 0 1282 1282" version="1.1" xmlns="http://www.w3.org/2000/svg" xmlns:xlink="http://www.w3.org/1999/xlink">
    <!-- Generator: Sketch 46.2 (44496) - http://www.bohemiancoding.com/sketch -->
    <title>grid-silver</title>
    <desc>Created with Sketch.</desc>
    <defs></defs>
    <g id="Page-1" stroke="none" stroke-width="1" fill="none" fill-rule="evenodd">
        <g id="grid-silver" transform="translate(1.000000, 1.000000)" stroke="#F7F7FB" stroke-width="1.25">
            <path d="M17.4,0 L21.8,115.1" id="Shape"></path>
            <path d="M62.6,0 L102,54.6" id="Shape"></path>
            <path d="M112.5,0 L102,54.6" id="Shape"></path>
            <path d="M0,79.5 L21.8,115.1" id="Shape"></path>
            <path d="M0,107.3 L21.8,115.1" id="Shape"></path>
            <path d="M0,129.2 L21.8,115.1" id="Shape"></path>
            <path d="M0,167.1 L21.8,115.1" id="Shape"></path>
            <path d="M102,54.6 L21.8,115.1" id="Shape"></path>
            <path d="M102,54.6 L91.6,253.4" id="Shape"></path>
            <path d="M21.8,115.1 L91.6,253.4" id="Shape"></path>
            <path d="M0,208.8 L91.6,253.4" id="Shape"></path>
            <path d="M0,227.2 L38.3,293.5" id="Shape"></path>
            <path d="M0,292.5 L38.3,293.5" id="Shape"></path>
            <path d="M91.6,253.4 L38.3,293.5" id="Shape"></path>
            <path d="M0,395.7 L38.3,293.5" id="Shape"></path>
            <path d="M77.4,306.2 L38.3,293.5" id="Shape"></path>
            <path d="M43.1,401.1 L38.3,293.5" id="Shape"></path>
            <path d="M77.4,306.2 L43.1,401.1" id="Shape"></path>
            <path d="M91.6,253.4 L77.4,306.2" id="Shape"></path>
            <path d="M91.6,253.4 L180.4,407" id="Shape"></path>
            <path d="M77.4,306.2 L180.4,407" id="Shape"></path>
            <path d="M227.8,255.1 L77.4,306.2" id="Shape"></path>
            <path d="M91.6,253.4 L227.8,255.1" id="Shape"></path>
            <path d="M102,54.6 L227.8,255.1" id="Shape"></path>
            <path d="M268,94.7 L102,54.6" id="Shape"></path>
            <path d="M258.2,0 L102,54.6" id="Shape"></path>
            <path d="M274.3,0 L268,94.7" id="Shape"></path>
            <path d="M227.8,255.1 L268,94.7" id="Shape"></path>
            <path d="M227.8,255.1 L180.4,407" id="Shape"></path>
            <path d="M0,395.7 L43.1,401.1" id="Shape"></path>
            <path d="M0,462.8 L43.1,401.1" id="Shape"></path>
            <path d="M180.4,407 L43.1,401.1" id="Shape"></path>
            <path d="M81.4,527 L43.1,401.1" id="Shape"></path>
            <path d="M0,499.3 L81.4,527" id="Shape"></path>
            <path d="M65.1,569.8 L81.4,527" id="Shape"></path>
            <path d="M65.1,569.8 L0,511.5" id="Shape"></path>
            <path d="M0,615.4 L65.1,569.8" id="Shape"></path>
            <path d="M65.1,569.8 L73.4,679.4" id="Shape"></path>
            <path d="M65.1,569.8 L100.5,658.6" id="Shape"></path>
            <path d="M100.5,658.6 L73.4,679.4" id="Shape"></path>
            <path d="M73.4,679.4 L0,656.8" id="Shape"></path>
            <path d="M73.4,679.4 L85.9,756.4" id="Shape"></path>
            <path d="M85.9,756.4 L0,680.2" id="Shape"></path>
            <path d="M85.9,756.4 L0,851.6" id="Shape"></path>
            <path d="M85.9,756.4 L112.6,886.1" id="Shape"></path>
            <path d="M112.6,886.1 L0,869.8" id="Shape"></path>
            <path d="M112.6,886.1 L64.9,941.1" id="Shape"></path>
            <path d="M64.9,941.1 L0,880.5" id="Shape"></path>
            <path d="M64.9,941.1 L11.7,1017.1" id="Shape"></path>
            <path d="M11.7,1017.1 L0,947.4" id="Shape"></path>
            <path d="M113.8,1035.7 L0,1013.7" id="Shape"></path>
            <path d="M11.7,1017.1 L0,1089.5" id="Shape"></path>
            <path d="M11.7,1017.1 L63.1,1110.9" id="Shape"></path>
            <path d="M63.1,1110.9 L0,1127.7" id="Shape"></path>
            <path d="M63.1,1110.9 L0,1210.5" id="Shape"></path>
            <path d="M63.1,1110.9 L70.1,1280" id="Shape"></path>
            <path d="M0,1257.3 L29,1280" id="Shape"></path>
            <path d="M92.2,1280 L204.9,1129.1" id="Shape"></path>
            <path d="M204.9,1129.1 L63.1,1110.9" id="Shape"></path>
            <path d="M63.1,1110.9 L92,1080.9" id="Shape"></path>
            <path d="M92,1080.9 L11.7,1017.1" id="Shape"></path>
            <path d="M92,1080.9 L204.9,1129.1" id="Shape"></path>
            <path d="M92,1080.9 L113.8,1035.7" id="Shape"></path>
            <path d="M92,1080.9 L182.4,1037.4" id="Shape"></path>
            <path d="M113.8,1035.7 L64.9,941.1" id="Shape"></path>
            <path d="M64.9,941.1 L194.3,918.4" id="Shape"></path>
            <path d="M64.9,941.1 L204.2,953.6" id="Shape"></path>
            <path d="M194.3,918.4 L204.2,953.6" id="Shape"></path>
            <path d="M204.2,953.6 L113.8,1035.7" id="Shape"></path>
            <path d="M204.2,953.6 L181.8,1023.7" id="Shape"></path>
            <path d="M181.8,1023.7 L113.8,1035.7" id="Shape"></path>
            <path d="M113.8,1035.7 L182.4,1037.4" id="Shape"></path>
            <path d="M181.8,1023.7 L182.4,1037.4" id="Shape"></path>
            <path d="M204.9,1129.1 L182.4,1037.4" id="Shape"></path>
            <path d="M204.9,1129.1 L170.4,1280" id="Shape"></path>
            <path d="M204.9,1129.1 L257.4,1188.1" id="Shape"></path>
            <path d="M257.4,1188.1 L193.6,1280" id="Shape"></path>
            <path d="M257.4,1188.1 L288.3,1280" id="Shape"></path>
            <path d="M112.6,886.1 L194.3,918.4" id="Shape"></path>
            <path d="M194.3,918.4 L263,965.2" id="Shape"></path>
            <path d="M263,965.2 L204.2,953.6" id="Shape"></path>
            <path d="M263,965.2 L181.8,1023.7" id="Shape"></path>
            <path d="M181.8,1023.7 L282,1054.1" id="Shape"></path>
            <path d="M182.4,1037.4 L282,1054.1" id="Shape"></path>
            <path d="M182.4,1037.4 L233.7,1095.3" id="Shape"></path>
            <path d="M233.7,1095.3 L204.9,1129.1" id="Shape"></path>
            <path d="M233.7,1095.3 L235.2,1123.3" id="Shape"></path>
            <path d="M235.2,1123.3 L204.9,1129.1" id="Shape"></path>
            <path d="M235.2,1123.3 L257.4,1188.1" id="Shape"></path>
            <path d="M257.5,1115.2 L257.4,1188.1" id="Shape"></path>
            <path d="M257.5,1115.2 L233.7,1095.3" id="Shape"></path>
            <path d="M235.2,1123.3 L257.5,1115.2" id="Shape"></path>
            <path d="M282,1054.1 L233.7,1095.3" id="Shape"></path>
            <path d="M282,1054.1 L257.5,1115.2" id="Shape"></path>
            <path d="M257.5,1115.2 L366.4,1105.5" id="Shape"></path>
            <path d="M282,1054.1 L366.4,1105.5" id="Shape"></path>
            <path d="M366.4,1105.5 L257.4,1188.1" id="Shape"></path>
            <path d="M282,1054.1 L263,965.2" id="Shape"></path>
            <path d="M257.4,1188.1 L423.7,1187.2" id="Shape"></path>
            <path d="M257.4,1188.1 L432,1253.4" id="Shape"></path>
            <path d="M432,1253.4 L418.9,1280" id="Shape"></path>
            <path d="M432,1253.4 L460.2,1280" id="Shape"></path>
            <path d="M432,1253.4 L435.9,1280" id="Shape"></path>
            <path d="M432,1253.4 L444.7,1280" id="Shape"></path>
            <path d="M423.7,1187.2 L432,1253.4" id="Shape"></path>
            <path d="M366.4,1105.5 L423.7,1187.2" id="Shape"></path>
            <path d="M366.4,1105.5 L448.1,1191.4" id="Shape"></path>
            <path d="M448.1,1191.4 L432,1253.4" id="Shape"></path>
            <path d="M448.1,1191.4 L423.7,1187.2" id="Shape"></path>
            <path d="M85.9,756.4 L100.5,658.6" id="Shape"></path>
            <path d="M100.5,658.6 L140.4,600.5" id="Shape"></path>
            <path d="M140.4,600.5 L65.1,569.8" id="Shape"></path>
            <path d="M81.4,527 L140.4,600.5" id="Shape"></path>
            <path d="M43.1,401.1 L181.9,455.2" id="Shape"></path>
            <path d="M180.4,407 L181.9,455.2" id="Shape"></path>
            <path d="M181.9,455.2 L81.4,527" id="Shape"></path>
            <path d="M181.9,455.2 L140.4,600.5" id="Shape"></path>
            <path d="M100.5,658.6 L161,622.3" id="Shape"></path>
            <path d="M140.4,600.5 L161,622.3" id="Shape"></path>
            <path d="M161,622.3 L85.9,756.4" id="Shape"></path>
            <path d="M85.9,756.4 L304.8,748.8" id="Shape"></path>
            <path d="M85.9,756.4 L295.1,816.5" id="Shape"></path>
            <path d="M304.8,748.8 L295.1,816.5" id="Shape"></path>
            <path d="M295.1,816.5 L112.6,886.1" id="Shape"></path>
            <path d="M295.1,816.5 L194.3,918.4" id="Shape"></path>
            <path d="M295.1,816.5 L263,965.2" id="Shape"></path>
            <path d="M289.9,0 L392.9,34.1" id="Shape"></path>
            <path d="M378,0 L392.9,34.1" id="Shape"></path>
            <path d="M392.9,34.1 L420.7,0" id="Shape"></path>
            <path d="M392.9,34.1 L268,94.7" id="Shape"></path>
            <path d="M268,94.7 L370.8,228.8" id="Shape"></path>
            <path d="M268,94.7 L337.3,232.1" id="Shape"></path>
            <path d="M370.8,228.8 L337.3,232.1" id="Shape"></path>
            <path d="M337.3,232.1 L227.8,255.1" id="Shape"></path>
            <path d="M227.8,255.1 L227,432.7" id="Shape"></path>
            <path d="M337.3,232.1 L227,432.7" id="Shape"></path>
            <path d="M409.4,291.9 L227,432.7" id="Shape"></path>
            <path d="M337.3,232.1 L409.4,291.9" id="Shape"></path>
            <path d="M370.8,228.8 L409.4,291.9" id="Shape"></path>
            <path d="M180.4,407 L227,432.7" id="Shape"></path>
            <path d="M254.5,457.1 L227,432.7" id="Shape"></path>
            <path d="M181.9,455.2 L227,432.7" id="Shape"></path>
            <path d="M227,432.7 L415.7,392.8" id="Shape"></path>
            <path d="M181.9,455.2 L254.5,457.1" id="Shape"></path>
            <path d="M254.5,457.1 L415.7,392.8" id="Shape"></path>
            <path d="M254.5,457.1 L140.4,600.5" id="Shape"></path>
            <path d="M254.5,457.1 L161,622.3" id="Shape"></path>
            <path d="M161,622.3 L380.5,474.6" id="Shape"></path>
            <path d="M254.5,457.1 L380.5,474.6" id="Shape"></path>
            <path d="M415.7,392.8 L380.5,474.6" id="Shape"></path>
            <path d="M409.4,291.9 L415.7,392.8" id="Shape"></path>
            <path d="M161,622.3 L304.8,748.8" id="Shape"></path>
            <path d="M304.8,748.8 L380.5,474.6" id="Shape"></path>
            <path d="M380.5,474.6 L441.5,720.4" id="Shape"></path>
            <path d="M380.5,474.6 L430.6,463" id="Shape"></path>
            <path d="M441.5,720.4 L304.8,748.8" id="Shape"></path>
            <path d="M441.5,720.4 L348,795.5" id="Shape"></path>
            <path d="M348,795.5 L304.8,748.8" id="Shape"></path>
            <path d="M348,795.5 L295.1,816.5" id="Shape"></path>
            <path d="M348,795.5 L402.3,839.2" id="Shape"></path>
            <path d="M295.1,816.5 L402.3,839.2" id="Shape"></path>
            <path d="M441.5,720.4 L402.3,839.2" id="Shape"></path>
            <path d="M263,965.2 L402.3,839.2" id="Shape"></path>
            <path d="M402.3,839.2 L351.8,995" id="Shape"></path>
            <path d="M263,965.2 L351.8,995" id="Shape"></path>
            <path d="M282,1054.1 L351.8,995" id="Shape"></path>
            <path d="M351.8,995 L366.4,1105.5" id="Shape"></path>
            <path d="M366.4,1105.5 L540.4,1024.6" id="Shape"></path>
            <path d="M540.4,1024.6 L351.8,995" id="Shape"></path>
            <path d="M540.4,1024.6 L448.1,1191.4" id="Shape"></path>
            <path d="M448.1,1191.4 L609,1209.6" id="Shape"></path>
            <path d="M432,1253.4 L609,1209.6" id="Shape"></path>
            <path d="M609,1209.6 L593.5,1280" id="Shape"></path>
            <path d="M540.4,1024.6 L609,1209.6" id="Shape"></path>
            <path d="M540.4,1024.6 L625.2,1200.5" id="Shape"></path>
            <path d="M625.2,1200.5 L609,1209.6" id="Shape"></path>
            <path d="M625.2,1200.5 L635.5,1230.9" id="Shape"></path>
            <path d="M635.5,1230.9 L609,1209.6" id="Shape"></path>
            <path d="M635.5,1230.9 L613.6,1280" id="Shape"></path>
            <path d="M635.5,1230.9 L628.7,1280" id="Shape"></path>
            <path d="M635.5,1230.9 L670.4,1236.6" id="Shape"></path>
            <path d="M670.4,1236.6 L652.9,1280" id="Shape"></path>
            <path d="M670.4,1236.6 L702,1280" id="Shape"></path>
            <path d="M625.2,1200.5 L670.4,1236.6" id="Shape"></path>
            <path d="M444,937 L351.8,995" id="Shape"></path>
            <path d="M402.3,839.2 L444,937" id="Shape"></path>
            <path d="M444,937 L540.4,1024.6" id="Shape"></path>
            <path d="M430.6,463 L441.5,720.4" id="Shape"></path>
            <path d="M415.7,392.8 L430.6,463" id="Shape"></path>
            <path d="M392.9,34.1 L370.8,228.8" id="Shape"></path>
            <path d="M392.9,34.1 L487.2,79" id="Shape"></path>
            <path d="M487.2,79 L370.8,228.8" id="Shape"></path>
            <path d="M487.2,79 L473,0" id="Shape"></path>
            <path d="M487.2,79 L552.8,0" id="Shape"></path>
            <path d="M487.2,79 L517.9,377.1" id="Shape"></path>
            <path d="M496.8,184.6 L370.8,228.8" id="Shape"></path>
            <path d="M496.8,184.6 L409.4,291.9" id="Shape"></path>
            <path d="M409.4,291.9 L517.9,377.1" id="Shape"></path>
            <path d="M409.4,291.9 L450.8,402.7" id="Shape"></path>
            <path d="M450.8,402.7 L415.7,392.8" id="Shape"></path>
            <path d="M450.8,402.7 L517.9,377.1" id="Shape"></path>
            <path d="M430.6,463 L450.8,402.7" id="Shape"></path>
            <path d="M487.2,79 L577.8,45.5" id="Shape"></path>
            <path d="M577.8,45.5 L568.7,0" id="Shape"></path>
            <path d="M577.8,45.5 L668.9,0" id="Shape"></path>
            <path d="M487.2,79 L635.6,136.5" id="Shape"></path>
            <path d="M635.6,136.5 L496.8,184.6" id="Shape"></path>
            <path d="M496.8,184.6 L610.6,325.1" id="Shape"></path>
            <path d="M610.6,325.1 L635.6,136.5" id="Shape"></path>
            <path d="M635.6,136.5 L577.8,45.5" id="Shape"></path>
            <path d="M577.8,45.5 L673.2,126.2" id="Shape"></path>
            <path d="M673.2,126.2 L723.7,0" id="Shape"></path>
            <path d="M635.6,136.5 L673.2,126.2" id="Shape"></path>
            <path d="M673.2,126.2 L809.3,68.2" id="Shape"></path>
            <path d="M809.3,68.2 L761,0" id="Shape"></path>
            <path d="M812.1,0 L809.3,68.2" id="Shape"></path>
            <path d="M809.3,68.2 L884.6,76.8" id="Shape"></path>
            <path d="M884.6,76.8 L835.9,0" id="Shape"></path>
            <path d="M884.6,76.8 L964.5,18.5" id="Shape"></path>
            <path d="M964.5,18.5 L912.7,0" id="Shape"></path>
            <path d="M964.5,18.5 L956,0" id="Shape"></path>
            <path d="M964.5,18.5 L985.1,0" id="Shape"></path>
            <path d="M964.5,18.5 L969.3,0" id="Shape"></path>
            <path d="M964.5,18.5 L1042.1,115.1" id="Shape"></path>
            <path d="M1042.1,115.1 L1025.6,0" id="Shape"></path>
            <path d="M1035.2,0 L1094.5,130.4" id="Shape"></path>
            <path d="M1094.5,130.4 L1206.3,31.1" id="Shape"></path>
            <path d="M1206.3,31.1 L1117.6,0" id="Shape"></path>
            <path d="M1206.3,31.1 L1203.1,0" id="Shape"></path>
            <path d="M1206.3,31.1 L1280,41.8" id="Shape"></path>
            <path d="M1280,16 L1258.4,0" id="Shape"></path>
            <path d="M1206.3,31.1 L1280,80.3" id="Shape"></path>
            <path d="M1206.3,31.1 L1183.4,103.8" id="Shape"></path>
            <path d="M1206.3,31.1 L1208.9,66.6" id="Shape"></path>
            <path d="M1208.9,66.6 L1280,80.3" id="Shape"></path>
            <path d="M1208.9,66.6 L1183.4,103.8" id="Shape"></path>
            <path d="M1208.9,66.6 L1202.3,95.1" id="Shape"></path>
            <path d="M1202.3,95.1 L1280,80.3" id="Shape"></path>
            <path d="M1202.3,95.1 L1280,112.4" id="Shape"></path>
            <path d="M1202.3,95.1 L1226.3,163.1" id="Shape"></path>
            <path d="M1226.3,163.1 L1280,124.8" id="Shape"></path>
            <path d="M1183.4,103.8 L1226.3,163.1" id="Shape"></path>
            <path d="M1183.4,103.8 L1202.3,95.1" id="Shape"></path>
            <path d="M1183.4,103.8 L1094.5,130.4" id="Shape"></path>
            <path d="M1094.5,130.4 L1042.1,115.1" id="Shape"></path>
            <path d="M1183.4,103.8 L1145.6,154.3" id="Shape"></path>
            <path d="M1145.6,154.3 L1226.3,163.1" id="Shape"></path>
            <path d="M1226.3,163.1 L1261.3,203.2" id="Shape"></path>
            <path d="M1261.3,203.2 L1280,151.2" id="Shape"></path>
            <path d="M1261.3,203.2 L1280,202.1" id="Shape"></path>
            <path d="M1261.3,203.2 L1237.5,425.2" id="Shape"></path>
            <path d="M1242.1,368.7 L1280,269.3" id="Shape"></path>
            <path d="M1242.1,368.7 L1280,352.1" id="Shape"></path>
            <path d="M1242.1,368.7 L1280,415.6" id="Shape"></path>
            <path d="M1242.1,368.7 L1161.2,260.8" id="Shape"></path>
            <path d="M1161.2,260.8 L1159.4,180.5" id="Shape"></path>
            <path d="M1159.4,180.5 L1229.3,163.4" id="Shape"></path>
            <path d="M1159.4,180.5 L1261.3,203.2" id="Shape"></path>
            <path d="M1161.2,260.8 L1261.3,203.2" id="Shape"></path>
            <path d="M1237.5,425.2 L1280,442.4" id="Shape"></path>
            <path d="M1237.5,425.2 L1158.5,472.4" id="Shape"></path>
            <path d="M1158.5,472.4 L1280,458.8" id="Shape"></path>
            <path d="M1158.5,472.4 L1280,587.7" id="Shape"></path>
            <path d="M1158.5,472.4 L1175.6,622" id="Shape"></path>
            <path d="M1175.6,622 L1280,614.9" id="Shape"></path>
            <path d="M1175.6,622 L1280,651.3" id="Shape"></path>
            <path d="M1175.6,622 L1155.3,808.4" id="Shape"></path>
            <path d="M1155.3,808.4 L1280,651.3" id="Shape"></path>
            <path d="M1155.3,808.4 L1280,749.6" id="Shape"></path>
            <path d="M1155.3,808.4 L1248.1,944.1" id="Shape"></path>
            <path d="M1248.1,944.1 L1265.7,807.8" id="Shape"></path>
            <path d="M1155.3,808.4 L1265.7,807.8" id="Shape"></path>
            <path d="M1265.7,807.8 L1280,785.3" id="Shape"></path>
            <path d="M1265.7,807.8 L1280,833" id="Shape"></path>
            <path d="M1248.1,944.1 L1280,918.7" id="Shape"></path>
            <path d="M1248.1,944.1 L1280,953" id="Shape"></path>
            <path d="M1248.1,944.1 L1280,986" id="Shape"></path>
            <path d="M1248.1,944.1 L1280,1099.6" id="Shape"></path>
            <path d="M1280,1099.6 L1214.4,1179" id="Shape"></path>
            <path d="M1214.4,1179 L1280,1233.7" id="Shape"></path>
            <path d="M1214.4,1179 L1190.3,1257.2" id="Shape"></path>
            <path d="M1190.3,1257.2 L1280,1264.8" id="Shape"></path>
            <path d="M1190.3,1257.2 L1178.5,1280" id="Shape"></path>
            <path d="M1190.3,1257.2 L1136.7,1261" id="Shape"></path>
            <path d="M1136.7,1261 L1135.3,1280" id="Shape"></path>
            <path d="M1136.7,1261 L1044.5,1244.7" id="Shape"></path>
            <path d="M1044.5,1244.7 L1067.3,1280" id="Shape"></path>
            <path d="M1044.5,1244.7 L1019.6,1264.3" id="Shape"></path>
            <path d="M1019.6,1264.3 L929.3,1250.6" id="Shape"></path>
            <path d="M1019.6,1264.3 L1036.3,1280" id="Shape"></path>
            <path d="M1019.6,1264.3 L1010.9,1280" id="Shape"></path>
            <path d="M929.3,1250.6 L955.5,1280" id="Shape"></path>
            <path d="M929.3,1250.6 L880.6,1280" id="Shape"></path>
            <path d="M929.3,1250.6 L929.8,1280" id="Shape"></path>
            <path d="M929.3,1250.6 L782,1222.2" id="Shape"></path>
            <path d="M782,1222.2 L810.5,1280" id="Shape"></path>
            <path d="M782,1222.2 L742.1,1280" id="Shape"></path>
            <path d="M782,1222.2 L670.4,1236.6" id="Shape"></path>
            <path d="M670.4,1236.6 L770.5,1068.5" id="Shape"></path>
            <path d="M770.5,1068.5 L782,1222.2" id="Shape"></path>
            <path d="M770.5,1068.5 L625.2,1200.5" id="Shape"></path>
            <path d="M625.2,1200.5 L749.9,1031.2" id="Shape"></path>
            <path d="M625.2,1200.5 L662.5,988" id="Shape"></path>
            <path d="M662.5,988 L540.4,1024.6" id="Shape"></path>
            <path d="M540.4,1024.6 L528,894.2" id="Shape"></path>
            <path d="M528,894.2 L444,937" id="Shape"></path>
            <path d="M444,937 L491.2,818.6" id="Shape"></path>
            <path d="M491.2,818.6 L402.3,839.2" id="Shape"></path>
            <path d="M491.2,818.6 L441.5,720.4" id="Shape"></path>
            <path d="M441.5,720.4 L626.3,622.3" id="Shape"></path>
            <path d="M626.3,622.3 L479,730.4" id="Shape"></path>
            <path d="M479,730.4 L491.2,818.6" id="Shape"></path>
            <path d="M479,730.4 L441.5,720.4" id="Shape"></path>
            <path d="M491.2,818.6 L528,894.2" id="Shape"></path>
            <path d="M528,894.2 L662.5,988" id="Shape"></path>
            <path d="M662.5,988 L749.9,1031.2" id="Shape"></path>
            <path d="M749.9,1031.2 L770.5,1068.5" id="Shape"></path>
            <path d="M770.5,1068.5 L941.7,1137.4" id="Shape"></path>
            <path d="M941.7,1137.4 L782,1222.2" id="Shape"></path>
            <path d="M941.7,1137.4 L929.3,1250.6" id="Shape"></path>
            <path d="M941.7,1137.4 L1019.6,1264.3" id="Shape"></path>
            <path d="M941.7,1137.4 L1044.5,1244.7" id="Shape"></path>
            <path d="M1044.5,1244.7 L1063.1,1186.6" id="Shape"></path>
            <path d="M1063.1,1186.6 L1136.7,1261" id="Shape"></path>
            <path d="M1136.7,1261 L1139.8,1170.5" id="Shape"></path>
            <path d="M1139.8,1170.5 L1190.3,1257.2" id="Shape"></path>
            <path d="M1136.7,1261 L1124.8,1168.2" id="Shape"></path>
            <path d="M1124.8,1168.2 L1063.1,1186.6" id="Shape"></path>
            <path d="M1139.8,1170.5 L1214.4,1179" id="Shape"></path>
            <path d="M1139.8,1170.5 L1280,1099.6" id="Shape"></path>
            <path d="M1139.8,1170.5 L1124.8,1168.2" id="Shape"></path>
            <path d="M1063.1,1186.6 L941.7,1137.4" id="Shape"></path>
            <path d="M1280,1099.6 L1050.2,1029.4" id="Shape"></path>
            <path d="M1050.2,1029.4 L1139.8,1170.5" id="Shape"></path>
            <path d="M1050.2,1029.4 L1124.8,1168.2" id="Shape"></path>
            <path d="M1124.8,1168.2 L1058.8,1141.4" id="Shape"></path>
            <path d="M1058.8,1141.4 L1063.1,1186.6" id="Shape"></path>
            <path d="M1058.8,1141.4 L1050.2,1029.4" id="Shape"></path>
            <path d="M1058.8,1141.4 L941.7,1137.4" id="Shape"></path>
            <path d="M941.7,1137.4 L944.6,1057.8" id="Shape"></path>
            <path d="M941.7,1137.4 L989.4,1066.6" id="Shape"></path>
            <path d="M989.4,1066.6 L1058.8,1141.4" id="Shape"></path>
            <path d="M770.5,1068.5 L944.6,1057.8" id="Shape"></path>
            <path d="M944.6,1057.8 L989.4,1066.6" id="Shape"></path>
            <path d="M989.4,1066.6 L1050.2,1029.4" id="Shape"></path>
            <path d="M1050.2,1029.4 L1248.1,944.1" id="Shape"></path>
            <path d="M749.9,1031.2 L944.6,1057.8" id="Shape"></path>
            <path d="M749.9,1031.2 L727,990.2" id="Shape"></path>
            <path d="M727,990.2 L662.5,988" id="Shape"></path>
            <path d="M749.9,1031.2 L732.8,947.9" id="Shape"></path>
            <path d="M732.8,947.9 L727,990.2" id="Shape"></path>
            <path d="M732.8,947.9 L662.5,988" id="Shape"></path>
            <path d="M662.5,988 L698.7,901.7" id="Shape"></path>
            <path d="M698.7,901.7 L528,894.2" id="Shape"></path>
            <path d="M528,894.2 L617.9,790" id="Shape"></path>
            <path d="M617.9,790 L491.2,818.6" id="Shape"></path>
            <path d="M491.2,818.6 L585,739.6" id="Shape"></path>
            <path d="M585,739.6 L479,730.4" id="Shape"></path>
            <path d="M585,739.6 L626.3,622.3" id="Shape"></path>
            <path d="M585,739.6 L617.9,790" id="Shape"></path>
            <path d="M617.9,790 L698.7,901.7" id="Shape"></path>
            <path d="M698.7,901.7 L732.8,947.9" id="Shape"></path>
            <path d="M732.8,947.9 L944.6,1057.8" id="Shape"></path>
            <path d="M989.4,1066.6 L1038.7,971.3" id="Shape"></path>
            <path d="M1038.7,971.3 L1050.2,1029.4" id="Shape"></path>
            <path d="M1038.7,971.3 L944.6,1057.8" id="Shape"></path>
            <path d="M1038.7,971.3 L1248.1,944.1" id="Shape"></path>
            <path d="M1038.7,971.3 L1155.3,808.4" id="Shape"></path>
            <path d="M944.6,1057.8 L973.5,842.5" id="Shape"></path>
            <path d="M973.5,842.5 L1038.7,971.3" id="Shape"></path>
            <path d="M973.5,842.5 L732.8,947.9" id="Shape"></path>
            <path d="M973.5,842.5 L1155.3,808.4" id="Shape"></path>
            <path d="M585,739.6 L699,811.5" id="Shape"></path>
            <path d="M617.9,790 L699,811.5" id="Shape"></path>
            <path d="M699,811.5 L698.7,901.7" id="Shape"></path>
            <path d="M732.8,947.9 L832.9,773.6" id="Shape"></path>
            <path d="M832.9,773.6 L698.7,901.7" id="Shape"></path>
            <path d="M832.9,773.6 L973.5,842.5" id="Shape"></path>
            <path d="M973.5,842.5 L1046.3,708.2" id="Shape"></path>
            <path d="M1046.3,708.2 L1155.3,808.4" id="Shape"></path>
            <path d="M1046.3,708.2 L1175.6,622" id="Shape"></path>
            <path d="M699,811.5 L832.9,773.6" id="Shape"></path>
            <path d="M626.3,622.3 L699,811.5" id="Shape"></path>
            <path d="M626.3,622.3 L832.9,773.6" id="Shape"></path>
            <path d="M832.9,773.6 L1046.3,708.2" id="Shape"></path>
            <path d="M832.9,773.6 L905,607.7" id="Shape"></path>
            <path d="M905,607.7 L1046.3,708.2" id="Shape"></path>
            <path d="M832.9,773.6 L863.1,578.8" id="Shape"></path>
            <path d="M863.1,578.8 L905,607.7" id="Shape"></path>
            <path d="M430.6,463 L626.3,622.3" id="Shape"></path>
            <path d="M626.3,622.3 L517.9,377.1" id="Shape"></path>
            <path d="M517.9,377.1 L430.6,463" id="Shape"></path>
            <path d="M517.9,377.1 L610.6,325.1" id="Shape"></path>
            <path d="M517.9,377.1 L702.3,474.2" id="Shape"></path>
            <path d="M610.6,325.1 L702.3,474.2" id="Shape"></path>
            <path d="M610.6,325.1 L724.8,283.4" id="Shape"></path>
            <path d="M724.8,283.4 L848.6,154.3" id="Shape"></path>
            <path d="M635.6,136.5 L663.9,304.6" id="Shape"></path>
            <path d="M635.6,136.5 L724.8,283.4" id="Shape"></path>
            <path d="M724.8,283.4 L673.2,126.2" id="Shape"></path>
            <path d="M673.2,126.2 L848.6,154.3" id="Shape"></path>
            <path d="M848.6,154.3 L809.3,68.2" id="Shape"></path>
            <path d="M848.6,154.3 L884.6,76.8" id="Shape"></path>
            <path d="M884.6,76.8 L975.3,140.9" id="Shape"></path>
            <path d="M975.3,140.9 L964.5,18.5" id="Shape"></path>
            <path d="M975.3,140.9 L1042.1,115.1" id="Shape"></path>
            <path d="M1042.1,115.1 L1103.3,146.8" id="Shape"></path>
            <path d="M1103.3,146.8 L1094.5,130.4" id="Shape"></path>
            <path d="M1094.5,130.4 L1145.6,154.3" id="Shape"></path>
            <path d="M1145.6,154.3 L1159.4,180.5" id="Shape"></path>
            <path d="M1103.3,146.8 L1145.6,154.3" id="Shape"></path>
            <path d="M1103.3,146.8 L1159.4,180.5" id="Shape"></path>
            <path d="M848.6,154.3 L975.3,140.9" id="Shape"></path>
            <path d="M975.3,140.9 L1103.3,146.8" id="Shape"></path>
            <path d="M1103.3,146.8 L1170.2,434" id="Shape"></path>
            <path d="M1170.2,434 L1158.5,472.4" id="Shape"></path>
            <path d="M1159.4,180.5 L1131.6,272.4" id="Shape"></path>
            <path d="M1161.2,260.8 L1131.6,272.4" id="Shape"></path>
            <path d="M1131.6,272.4 L1242.1,368.7" id="Shape"></path>
            <path d="M1242.1,368.7 L1170.2,434" id="Shape"></path>
            <path d="M1237.5,425.2 L1170.2,434" id="Shape"></path>
            <path d="M626.3,622.3 L702.3,474.2" id="Shape"></path>
            <path d="M702.3,474.2 L863.1,578.8" id="Shape"></path>
            <path d="M863.1,578.8 L626.3,622.3" id="Shape"></path>
            <path d="M863.1,578.8 L878.2,468.6" id="Shape"></path>
            <path d="M878.2,468.6 L702.3,474.2" id="Shape"></path>
            <path d="M878.2,468.6 L862.1,226" id="Shape"></path>
            <path d="M862.1,226 L848.6,154.3" id="Shape"></path>
            <path d="M878.2,468.6 L1000.1,381.8" id="Shape"></path>
            <path d="M1000.1,381.8 L1052.5,322.6" id="Shape"></path>
            <path d="M1052.5,322.6 L1069,316.7" id="Shape"></path>
            <path d="M1064.9,316.8 L1131.6,272.4" id="Shape"></path>
            <path d="M1170.2,434 L1069,316.7" id="Shape"></path>
            <path d="M1069,316.7 L975.3,140.9" id="Shape"></path>
            <path d="M1069,316.7 L1103.3,146.8" id="Shape"></path>
            <path d="M975.3,140.9 L862.1,226" id="Shape"></path>
            <path d="M862.1,226 L724.8,283.4" id="Shape"></path>
            <path d="M610.6,325.1 L675.6,324.2" id="Shape"></path>
            <path d="M675.6,324.2 L702.3,474.2" id="Shape"></path>
            <path d="M702.3,474.2 L690,315.8" id="Shape"></path>
            <path d="M690,315.8 L724.8,283.4" id="Shape"></path>
            <path d="M675.6,324.2 L690,315.8" id="Shape"></path>
            <path d="M663.9,304.6 L675.6,324.2" id="Shape"></path>
            <path d="M663.9,304.6 L690,315.8" id="Shape"></path>
            <path d="M690,315.8 L878.2,468.6" id="Shape"></path>
            <path d="M724.8,283.4 L878.2,468.6" id="Shape"></path>
            <path d="M878.2,468.6 L956.5,591.2" id="Shape"></path>
            <path d="M956.5,591.2 L1046.3,708.2" id="Shape"></path>
            <path d="M905,607.7 L956.5,591.2" id="Shape"></path>
            <path d="M905,607.7 L890.8,575.8" id="Shape"></path>
            <path d="M890.8,575.8 L863.1,578.8" id="Shape"></path>
            <path d="M890.8,575.8 L878.2,468.6" id="Shape"></path>
            <path d="M890.8,575.8 L956.5,591.2" id="Shape"></path>
            <path d="M1046.3,708.2 L1107.9,543.9" id="Shape"></path>
            <path d="M1175.6,622 L1107.9,543.9" id="Shape"></path>
            <path d="M1107.9,543.9 L1158.5,472.4" id="Shape"></path>
            <path d="M1107.9,543.9 L1003.2,558.4" id="Shape"></path>
            <path d="M1003.2,558.4 L956.5,591.2" id="Shape"></path>
            <path d="M1003.2,558.4 L1090.2,445.9" id="Shape"></path>
            <path d="M1003.2,558.4 L1046.3,708.2" id="Shape"></path>
            <path d="M1003.2,558.4 L878.2,468.6" id="Shape"></path>
            <path d="M1003.2,558.4 L1000.1,381.8" id="Shape"></path>
            <path d="M1000.1,381.8 L1090.2,445.9" id="Shape"></path>
            <path d="M1090.2,445.9 L1107.9,543.9" id="Shape"></path>
            <path d="M1090.2,445.9 L1158.5,472.4" id="Shape"></path>
            <path d="M1090.2,445.9 L1170.2,434" id="Shape"></path>
            <path d="M1090.2,445.9 L1069,316.7" id="Shape"></path>
            <path d="M1090.2,445.9 L1052.5,322.6" id="Shape"></path>
            <path d="M975.3,140.9 L958.8,297.7" id="Shape"></path>
            <path d="M958.8,297.7 L878.2,468.6" id="Shape"></path>
            <path d="M958.8,297.7 L862.1,226" id="Shape"></path>
            <path d="M958.8,297.7 L1069,316.7" id="Shape"></path>
            <path d="M958.8,297.7 L1000.1,381.8" id="Shape"></path>
            <path d="M1052.5,322.6 L958.8,297.7" id="Shape"></path>
        </g>
    </g>
</svg>
