<?xml version="1.0" encoding="utf-8"?>
<!-- Generator: Adobe Illustrator 21.1.0, SVG Export Plug-In . SVG Version: 6.00 Build 0)  -->
<svg version="1.1" id="Layer_1" xmlns="http://www.w3.org/2000/svg" xmlns:xlink="http://www.w3.org/1999/xlink" x="0px" y="0px"
	 viewBox="0 0 1280 1280" style="enable-background:new 0 0 1280 1280;" xml:space="preserve">
<style type="text/css">
	.st0{fill:none;stroke:#FFFFFF;stroke-width:1.25;stroke-miterlimit:10;}

  .container {
        animation: 500s linear pulse infinite alternate;
        transform-origin: center;
  }

  @keyframes pulse {
        0% {
              transform: rotate(0) scale(1.3);
        }

        100% {
              transform: rotate(360deg) scale(1.3);
        }
  }
</style>
<g class="container">
	<path class="st0" d="M258.2,0"/>
	<line class="st0" x1="17.4" y1="0" x2="21.8" y2="115.1"/>
	<line class="st0" x1="62.6" y1="0" x2="102" y2="54.6"/>
	<line class="st0" x1="112.5" y1="0" x2="102" y2="54.6"/>
	<line class="st0" x1="0" y1="79.5" x2="21.8" y2="115.1"/>
	<line class="st0" x1="0" y1="107.3" x2="21.8" y2="115.1"/>
	<line class="st0" x1="0" y1="129.2" x2="21.8" y2="115.1"/>
	<line class="st0" x1="0" y1="167.1" x2="21.8" y2="115.1"/>
	<line class="st0" x1="102" y1="54.6" x2="21.8" y2="115.1"/>
	<line class="st0" x1="102" y1="54.6" x2="91.6" y2="253.4"/>
	<line class="st0" x1="21.8" y1="115.1" x2="91.6" y2="253.4"/>
	<line class="st0" x1="0" y1="208.8" x2="91.6" y2="253.4"/>
	<line class="st0" x1="0" y1="227.2" x2="38.3" y2="293.5"/>
	<line class="st0" x1="0" y1="292.5" x2="38.3" y2="293.5"/>
	<line class="st0" x1="91.6" y1="253.4" x2="38.3" y2="293.5"/>
	<line class="st0" x1="0" y1="395.7" x2="38.3" y2="293.5"/>
	<line class="st0" x1="77.4" y1="306.2" x2="38.3" y2="293.5"/>
	<line class="st0" x1="43.1" y1="401.1" x2="38.3" y2="293.5"/>
	<line class="st0" x1="77.4" y1="306.2" x2="43.1" y2="401.1"/>
	<line class="st0" x1="91.6" y1="253.4" x2="77.4" y2="306.2"/>
	<line class="st0" x1="91.6" y1="253.4" x2="180.4" y2="407"/>
	<line class="st0" x1="77.4" y1="306.2" x2="180.4" y2="407"/>
	<line class="st0" x1="227.8" y1="255.1" x2="77.4" y2="306.2"/>
	<line class="st0" x1="91.6" y1="253.4" x2="227.8" y2="255.1"/>
	<line class="st0" x1="102" y1="54.6" x2="227.8" y2="255.1"/>
	<line class="st0" x1="268" y1="94.7" x2="102" y2="54.6"/>
	<line class="st0" x1="258.2" y1="0" x2="102" y2="54.6"/>
	<line class="st0" x1="274.3" y1="0" x2="268" y2="94.7"/>
	<line class="st0" x1="227.8" y1="255.1" x2="268" y2="94.7"/>
	<line class="st0" x1="227.8" y1="255.1" x2="180.4" y2="407"/>
	<line class="st0" x1="0" y1="395.7" x2="43.1" y2="401.1"/>
	<line class="st0" x1="0" y1="462.8" x2="43.1" y2="401.1"/>
	<line class="st0" x1="180.4" y1="407" x2="43.1" y2="401.1"/>
	<line class="st0" x1="81.4" y1="527" x2="43.1" y2="401.1"/>
	<line class="st0" x1="0" y1="499.3" x2="81.4" y2="527"/>
	<line class="st0" x1="65.1" y1="569.8" x2="81.4" y2="527"/>
	<line class="st0" x1="65.1" y1="569.8" x2="0" y2="511.5"/>
	<line class="st0" x1="0" y1="615.4" x2="65.1" y2="569.8"/>
	<line class="st0" x1="65.1" y1="569.8" x2="73.4" y2="679.4"/>
	<line class="st0" x1="65.1" y1="569.8" x2="100.5" y2="658.6"/>
	<line class="st0" x1="100.5" y1="658.6" x2="73.4" y2="679.4"/>
	<line class="st0" x1="73.4" y1="679.4" x2="0" y2="656.8"/>
	<line class="st0" x1="73.4" y1="679.4" x2="85.9" y2="756.4"/>
	<line class="st0" x1="85.9" y1="756.4" x2="0" y2="680.2"/>
	<line class="st0" x1="85.9" y1="756.4" x2="0" y2="851.6"/>
	<line class="st0" x1="85.9" y1="756.4" x2="112.6" y2="886.1"/>
	<line class="st0" x1="112.6" y1="886.1" x2="0" y2="869.8"/>
	<line class="st0" x1="112.6" y1="886.1" x2="64.9" y2="941.1"/>
	<line class="st0" x1="64.9" y1="941.1" x2="0" y2="880.5"/>
	<line class="st0" x1="64.9" y1="941.1" x2="11.7" y2="1017.1"/>
	<line class="st0" x1="11.7" y1="1017.1" x2="0" y2="947.4"/>
	<line class="st0" x1="113.8" y1="1035.7" x2="0" y2="1013.7"/>
	<line class="st0" x1="11.7" y1="1017.1" x2="0" y2="1089.5"/>
	<line class="st0" x1="11.7" y1="1017.1" x2="63.1" y2="1110.9"/>
	<line class="st0" x1="63.1" y1="1110.9" x2="0" y2="1127.7"/>
	<line class="st0" x1="63.1" y1="1110.9" x2="0" y2="1210.5"/>
	<line class="st0" x1="63.1" y1="1110.9" x2="70.1" y2="1280"/>
	<line class="st0" x1="0" y1="1257.3" x2="29" y2="1280"/>
	<line class="st0" x1="92.2" y1="1280" x2="204.9" y2="1129.1"/>
	<line class="st0" x1="204.9" y1="1129.1" x2="63.1" y2="1110.9"/>
	<line class="st0" x1="63.1" y1="1110.9" x2="92" y2="1080.9"/>
	<line class="st0" x1="92" y1="1080.9" x2="11.7" y2="1017.1"/>
	<line class="st0" x1="92" y1="1080.9" x2="204.9" y2="1129.1"/>
	<line class="st0" x1="92" y1="1080.9" x2="113.8" y2="1035.7"/>
	<line class="st0" x1="92" y1="1080.9" x2="182.4" y2="1037.4"/>
	<line class="st0" x1="113.8" y1="1035.7" x2="64.9" y2="941.1"/>
	<line class="st0" x1="64.9" y1="941.1" x2="194.3" y2="918.4"/>
	<line class="st0" x1="64.9" y1="941.1" x2="204.2" y2="953.6"/>
	<line class="st0" x1="194.3" y1="918.4" x2="204.2" y2="953.6"/>
	<line class="st0" x1="204.2" y1="953.6" x2="113.8" y2="1035.7"/>
	<line class="st0" x1="204.2" y1="953.6" x2="181.8" y2="1023.7"/>
	<line class="st0" x1="181.8" y1="1023.7" x2="113.8" y2="1035.7"/>
	<line class="st0" x1="113.8" y1="1035.7" x2="182.4" y2="1037.4"/>
	<line class="st0" x1="181.8" y1="1023.7" x2="182.4" y2="1037.4"/>
	<line class="st0" x1="204.9" y1="1129.1" x2="182.4" y2="1037.4"/>
	<line class="st0" x1="204.9" y1="1129.1" x2="170.4" y2="1280"/>
	<line class="st0" x1="204.9" y1="1129.1" x2="257.4" y2="1188.1"/>
	<line class="st0" x1="257.4" y1="1188.1" x2="193.6" y2="1280"/>
	<line class="st0" x1="257.4" y1="1188.1" x2="288.3" y2="1280"/>
	<line class="st0" x1="112.6" y1="886.1" x2="194.3" y2="918.4"/>
	<line class="st0" x1="194.3" y1="918.4" x2="263" y2="965.2"/>
	<line class="st0" x1="263" y1="965.2" x2="204.2" y2="953.6"/>
	<line class="st0" x1="263" y1="965.2" x2="181.8" y2="1023.7"/>
	<line class="st0" x1="181.8" y1="1023.7" x2="282" y2="1054.1"/>
	<line class="st0" x1="182.4" y1="1037.4" x2="282" y2="1054.1"/>
	<line class="st0" x1="182.4" y1="1037.4" x2="233.7" y2="1095.3"/>
	<line class="st0" x1="233.7" y1="1095.3" x2="204.9" y2="1129.1"/>
	<line class="st0" x1="233.7" y1="1095.3" x2="235.2" y2="1123.3"/>
	<line class="st0" x1="235.2" y1="1123.3" x2="204.9" y2="1129.1"/>
	<line class="st0" x1="235.2" y1="1123.3" x2="257.4" y2="1188.1"/>
	<line class="st0" x1="257.5" y1="1115.2" x2="257.4" y2="1188.1"/>
	<line class="st0" x1="257.5" y1="1115.2" x2="233.7" y2="1095.3"/>
	<line class="st0" x1="235.2" y1="1123.3" x2="257.5" y2="1115.2"/>
	<line class="st0" x1="282" y1="1054.1" x2="233.7" y2="1095.3"/>
	<line class="st0" x1="282" y1="1054.1" x2="257.5" y2="1115.2"/>
	<line class="st0" x1="257.5" y1="1115.2" x2="366.4" y2="1105.5"/>
	<line class="st0" x1="282" y1="1054.1" x2="366.4" y2="1105.5"/>
	<line class="st0" x1="366.4" y1="1105.5" x2="257.4" y2="1188.1"/>
	<line class="st0" x1="282" y1="1054.1" x2="263" y2="965.2"/>
	<line class="st0" x1="257.4" y1="1188.1" x2="423.7" y2="1187.2"/>
	<line class="st0" x1="257.4" y1="1188.1" x2="432" y2="1253.4"/>
	<line class="st0" x1="432" y1="1253.4" x2="418.9" y2="1280"/>
	<line class="st0" x1="432" y1="1253.4" x2="460.2" y2="1280"/>
	<line class="st0" x1="432" y1="1253.4" x2="435.9" y2="1280"/>
	<line class="st0" x1="432" y1="1253.4" x2="444.7" y2="1280"/>
	<line class="st0" x1="423.7" y1="1187.2" x2="432" y2="1253.4"/>
	<line class="st0" x1="366.4" y1="1105.5" x2="423.7" y2="1187.2"/>
	<line class="st0" x1="366.4" y1="1105.5" x2="448.1" y2="1191.4"/>
	<line class="st0" x1="448.1" y1="1191.4" x2="432" y2="1253.4"/>
	<line class="st0" x1="448.1" y1="1191.4" x2="423.7" y2="1187.2"/>
	<line class="st0" x1="85.9" y1="756.4" x2="100.5" y2="658.6"/>
	<line class="st0" x1="100.5" y1="658.6" x2="140.4" y2="600.5"/>
	<line class="st0" x1="140.4" y1="600.5" x2="65.1" y2="569.8"/>
	<line class="st0" x1="81.4" y1="527" x2="140.4" y2="600.5"/>
	<line class="st0" x1="43.1" y1="401.1" x2="181.9" y2="455.2"/>
	<line class="st0" x1="180.4" y1="407" x2="181.9" y2="455.2"/>
	<line class="st0" x1="181.9" y1="455.2" x2="81.4" y2="527"/>
	<line class="st0" x1="181.9" y1="455.2" x2="140.4" y2="600.5"/>
	<line class="st0" x1="100.5" y1="658.6" x2="161" y2="622.3"/>
	<line class="st0" x1="140.4" y1="600.5" x2="161" y2="622.3"/>
	<line class="st0" x1="161" y1="622.3" x2="85.9" y2="756.4"/>
	<line class="st0" x1="85.9" y1="756.4" x2="304.8" y2="748.8"/>
	<line class="st0" x1="85.9" y1="756.4" x2="295.1" y2="816.5"/>
	<line class="st0" x1="304.8" y1="748.8" x2="295.1" y2="816.5"/>
	<line class="st0" x1="295.1" y1="816.5" x2="112.6" y2="886.1"/>
	<line class="st0" x1="295.1" y1="816.5" x2="194.3" y2="918.4"/>
	<line class="st0" x1="295.1" y1="816.5" x2="263" y2="965.2"/>
	<line class="st0" x1="289.9" y1="0" x2="392.9" y2="34.1"/>
	<line class="st0" x1="378" y1="0" x2="392.9" y2="34.1"/>
	<line class="st0" x1="392.9" y1="34.1" x2="420.7" y2="0"/>
	<line class="st0" x1="392.9" y1="34.1" x2="268" y2="94.7"/>
	<line class="st0" x1="268" y1="94.7" x2="370.8" y2="228.8"/>
	<line class="st0" x1="268" y1="94.7" x2="337.3" y2="232.1"/>
	<line class="st0" x1="370.8" y1="228.8" x2="337.3" y2="232.1"/>
	<line class="st0" x1="337.3" y1="232.1" x2="227.8" y2="255.1"/>
	<line class="st0" x1="227.8" y1="255.1" x2="227" y2="432.7"/>
	<line class="st0" x1="337.3" y1="232.1" x2="227" y2="432.7"/>
	<line class="st0" x1="409.4" y1="291.9" x2="227" y2="432.7"/>
	<line class="st0" x1="337.3" y1="232.1" x2="409.4" y2="291.9"/>
	<line class="st0" x1="370.8" y1="228.8" x2="409.4" y2="291.9"/>
	<line class="st0" x1="180.4" y1="407" x2="227" y2="432.7"/>
	<line class="st0" x1="254.5" y1="457.1" x2="227" y2="432.7"/>
	<line class="st0" x1="181.9" y1="455.2" x2="227" y2="432.7"/>
	<line class="st0" x1="227" y1="432.7" x2="415.7" y2="392.8"/>
	<line class="st0" x1="181.9" y1="455.2" x2="254.5" y2="457.1"/>
	<line class="st0" x1="254.5" y1="457.1" x2="415.7" y2="392.8"/>
	<line class="st0" x1="254.5" y1="457.1" x2="140.4" y2="600.5"/>
	<line class="st0" x1="254.5" y1="457.1" x2="161" y2="622.3"/>
	<line class="st0" x1="161" y1="622.3" x2="380.5" y2="474.6"/>
	<line class="st0" x1="254.5" y1="457.1" x2="380.5" y2="474.6"/>
	<line class="st0" x1="415.7" y1="392.8" x2="380.5" y2="474.6"/>
	<line class="st0" x1="409.4" y1="291.9" x2="415.7" y2="392.8"/>
	<line class="st0" x1="161" y1="622.3" x2="304.8" y2="748.8"/>
	<line class="st0" x1="304.8" y1="748.8" x2="380.5" y2="474.6"/>
	<line class="st0" x1="380.5" y1="474.6" x2="441.5" y2="720.4"/>
	<line class="st0" x1="380.5" y1="474.6" x2="430.6" y2="463"/>
	<line class="st0" x1="441.5" y1="720.4" x2="304.8" y2="748.8"/>
	<line class="st0" x1="441.5" y1="720.4" x2="348" y2="795.5"/>
	<line class="st0" x1="348" y1="795.5" x2="304.8" y2="748.8"/>
	<line class="st0" x1="348" y1="795.5" x2="295.1" y2="816.5"/>
	<line class="st0" x1="348" y1="795.5" x2="402.3" y2="839.2"/>
	<line class="st0" x1="295.1" y1="816.5" x2="402.3" y2="839.2"/>
	<line class="st0" x1="441.5" y1="720.4" x2="402.3" y2="839.2"/>
	<line class="st0" x1="263" y1="965.2" x2="402.3" y2="839.2"/>
	<line class="st0" x1="402.3" y1="839.2" x2="351.8" y2="995"/>
	<line class="st0" x1="263" y1="965.2" x2="351.8" y2="995"/>
	<line class="st0" x1="282" y1="1054.1" x2="351.8" y2="995"/>
	<line class="st0" x1="351.8" y1="995" x2="366.4" y2="1105.5"/>
	<line class="st0" x1="366.4" y1="1105.5" x2="540.4" y2="1024.6"/>
	<line class="st0" x1="540.4" y1="1024.6" x2="351.8" y2="995"/>
	<line class="st0" x1="540.4" y1="1024.6" x2="448.1" y2="1191.4"/>
	<line class="st0" x1="448.1" y1="1191.4" x2="609" y2="1209.6"/>
	<line class="st0" x1="432" y1="1253.4" x2="609" y2="1209.6"/>
	<line class="st0" x1="609" y1="1209.6" x2="593.5" y2="1280"/>
	<line class="st0" x1="540.4" y1="1024.6" x2="609" y2="1209.6"/>
	<line class="st0" x1="540.4" y1="1024.6" x2="625.2" y2="1200.5"/>
	<line class="st0" x1="625.2" y1="1200.5" x2="609" y2="1209.6"/>
	<line class="st0" x1="625.2" y1="1200.5" x2="635.5" y2="1230.9"/>
	<line class="st0" x1="635.5" y1="1230.9" x2="609" y2="1209.6"/>
	<line class="st0" x1="635.5" y1="1230.9" x2="613.6" y2="1280"/>
	<line class="st0" x1="635.5" y1="1230.9" x2="628.7" y2="1280"/>
	<line class="st0" x1="635.5" y1="1230.9" x2="670.4" y2="1236.6"/>
	<line class="st0" x1="670.4" y1="1236.6" x2="652.9" y2="1280"/>
	<line class="st0" x1="670.4" y1="1236.6" x2="702" y2="1280"/>
	<line class="st0" x1="625.2" y1="1200.5" x2="670.4" y2="1236.6"/>
	<line class="st0" x1="444" y1="937" x2="351.8" y2="995"/>
	<line class="st0" x1="402.3" y1="839.2" x2="444" y2="937"/>
	<line class="st0" x1="444" y1="937" x2="540.4" y2="1024.6"/>
	<line class="st0" x1="430.6" y1="463" x2="441.5" y2="720.4"/>
	<line class="st0" x1="415.7" y1="392.8" x2="430.6" y2="463"/>
	<line class="st0" x1="392.9" y1="34.1" x2="370.8" y2="228.8"/>
	<line class="st0" x1="392.9" y1="34.1" x2="487.2" y2="79"/>
	<line class="st0" x1="487.2" y1="79" x2="370.8" y2="228.8"/>
	<line class="st0" x1="487.2" y1="79" x2="473" y2="0"/>
	<line class="st0" x1="487.2" y1="79" x2="552.8" y2="0"/>
	<line class="st0" x1="487.2" y1="79" x2="517.9" y2="377.1"/>
	<line class="st0" x1="496.8" y1="184.6" x2="370.8" y2="228.8"/>
	<line class="st0" x1="496.8" y1="184.6" x2="409.4" y2="291.9"/>
	<line class="st0" x1="409.4" y1="291.9" x2="517.9" y2="377.1"/>
	<line class="st0" x1="409.4" y1="291.9" x2="450.8" y2="402.7"/>
	<line class="st0" x1="450.8" y1="402.7" x2="415.7" y2="392.8"/>
	<line class="st0" x1="450.8" y1="402.7" x2="517.9" y2="377.1"/>
	<line class="st0" x1="430.6" y1="463" x2="450.8" y2="402.7"/>
	<line class="st0" x1="487.2" y1="79" x2="577.8" y2="45.5"/>
	<line class="st0" x1="577.8" y1="45.5" x2="568.7" y2="0"/>
	<line class="st0" x1="577.8" y1="45.5" x2="668.9" y2="0"/>
	<line class="st0" x1="487.2" y1="79" x2="635.6" y2="136.5"/>
	<line class="st0" x1="635.6" y1="136.5" x2="496.8" y2="184.6"/>
	<line class="st0" x1="496.8" y1="184.6" x2="610.6" y2="325.1"/>
	<line class="st0" x1="610.6" y1="325.1" x2="635.6" y2="136.5"/>
	<line class="st0" x1="635.6" y1="136.5" x2="577.8" y2="45.5"/>
	<line class="st0" x1="577.8" y1="45.5" x2="673.2" y2="126.2"/>
	<line class="st0" x1="673.2" y1="126.2" x2="723.7" y2="0"/>
	<line class="st0" x1="635.6" y1="136.5" x2="673.2" y2="126.2"/>
	<line class="st0" x1="673.2" y1="126.2" x2="809.3" y2="68.2"/>
	<line class="st0" x1="809.3" y1="68.2" x2="761" y2="0"/>
	<line class="st0" x1="812.1" y1="0" x2="809.3" y2="68.2"/>
	<line class="st0" x1="809.3" y1="68.2" x2="884.6" y2="76.8"/>
	<line class="st0" x1="884.6" y1="76.8" x2="835.9" y2="0"/>
	<line class="st0" x1="884.6" y1="76.8" x2="964.5" y2="18.5"/>
	<line class="st0" x1="964.5" y1="18.5" x2="912.7" y2="0"/>
	<line class="st0" x1="964.5" y1="18.5" x2="956" y2="0"/>
	<line class="st0" x1="964.5" y1="18.5" x2="985.1" y2="0"/>
	<line class="st0" x1="964.5" y1="18.5" x2="969.3" y2="0"/>
	<line class="st0" x1="964.5" y1="18.5" x2="1042.1" y2="115.1"/>
	<line class="st0" x1="1042.1" y1="115.1" x2="1025.6" y2="0"/>
	<line class="st0" x1="1035.2" y1="0" x2="1094.5" y2="130.4"/>
	<line class="st0" x1="1094.5" y1="130.4" x2="1206.3" y2="31.1"/>
	<line class="st0" x1="1206.3" y1="31.1" x2="1117.6" y2="0"/>
	<line class="st0" x1="1206.3" y1="31.1" x2="1203.1" y2="0"/>
	<line class="st0" x1="1206.3" y1="31.1" x2="1280" y2="41.8"/>
	<line class="st0" x1="1280" y1="16" x2="1258.4" y2="0"/>
	<line class="st0" x1="1206.3" y1="31.1" x2="1280" y2="80.3"/>
	<line class="st0" x1="1206.3" y1="31.1" x2="1183.4" y2="103.8"/>
	<line class="st0" x1="1206.3" y1="31.1" x2="1208.9" y2="66.6"/>
	<line class="st0" x1="1208.9" y1="66.6" x2="1280" y2="80.3"/>
	<line class="st0" x1="1208.9" y1="66.6" x2="1183.4" y2="103.8"/>
	<line class="st0" x1="1208.9" y1="66.6" x2="1202.3" y2="95.1"/>
	<line class="st0" x1="1202.3" y1="95.1" x2="1280" y2="80.3"/>
	<line class="st0" x1="1202.3" y1="95.1" x2="1280" y2="112.4"/>
	<line class="st0" x1="1202.3" y1="95.1" x2="1226.3" y2="163.1"/>
	<line class="st0" x1="1226.3" y1="163.1" x2="1280" y2="124.8"/>
	<line class="st0" x1="1183.4" y1="103.8" x2="1226.3" y2="163.1"/>
	<line class="st0" x1="1183.4" y1="103.8" x2="1202.3" y2="95.1"/>
	<line class="st0" x1="1183.4" y1="103.8" x2="1094.5" y2="130.4"/>
	<line class="st0" x1="1094.5" y1="130.4" x2="1042.1" y2="115.1"/>
	<line class="st0" x1="1183.4" y1="103.8" x2="1145.6" y2="154.3"/>
	<line class="st0" x1="1145.6" y1="154.3" x2="1226.3" y2="163.1"/>
	<line class="st0" x1="1226.3" y1="163.1" x2="1261.3" y2="203.2"/>
	<line class="st0" x1="1261.3" y1="203.2" x2="1280" y2="151.2"/>
	<line class="st0" x1="1261.3" y1="203.2" x2="1280" y2="202.1"/>
	<line class="st0" x1="1261.3" y1="203.2" x2="1237.5" y2="425.2"/>
	<line class="st0" x1="1242.1" y1="368.7" x2="1280" y2="269.3"/>
	<line class="st0" x1="1242.1" y1="368.7" x2="1280" y2="352.1"/>
	<line class="st0" x1="1242.1" y1="368.7" x2="1280" y2="415.6"/>
	<line class="st0" x1="1242.1" y1="368.7" x2="1161.2" y2="260.8"/>
	<line class="st0" x1="1161.2" y1="260.8" x2="1159.4" y2="180.5"/>
	<line class="st0" x1="1159.4" y1="180.5" x2="1229.3" y2="163.4"/>
	<line class="st0" x1="1159.4" y1="180.5" x2="1261.3" y2="203.2"/>
	<line class="st0" x1="1161.2" y1="260.8" x2="1261.3" y2="203.2"/>
	<line class="st0" x1="1237.5" y1="425.2" x2="1280" y2="442.4"/>
	<line class="st0" x1="1237.5" y1="425.2" x2="1158.5" y2="472.4"/>
	<line class="st0" x1="1158.5" y1="472.4" x2="1280" y2="458.8"/>
	<line class="st0" x1="1158.5" y1="472.4" x2="1280" y2="587.7"/>
	<line class="st0" x1="1158.5" y1="472.4" x2="1175.6" y2="622"/>
	<line class="st0" x1="1175.6" y1="622" x2="1280" y2="614.9"/>
	<line class="st0" x1="1175.6" y1="622" x2="1280" y2="651.3"/>
	<line class="st0" x1="1175.6" y1="622" x2="1155.3" y2="808.4"/>
	<line class="st0" x1="1155.3" y1="808.4" x2="1280" y2="651.3"/>
	<line class="st0" x1="1155.3" y1="808.4" x2="1280" y2="749.6"/>
	<line class="st0" x1="1155.3" y1="808.4" x2="1248.1" y2="944.1"/>
	<line class="st0" x1="1248.1" y1="944.1" x2="1265.7" y2="807.8"/>
	<line class="st0" x1="1155.3" y1="808.4" x2="1265.7" y2="807.8"/>
	<line class="st0" x1="1265.7" y1="807.8" x2="1280" y2="785.3"/>
	<line class="st0" x1="1265.7" y1="807.8" x2="1280" y2="833"/>
	<line class="st0" x1="1248.1" y1="944.1" x2="1280" y2="918.7"/>
	<line class="st0" x1="1248.1" y1="944.1" x2="1280" y2="953"/>
	<line class="st0" x1="1248.1" y1="944.1" x2="1280" y2="986"/>
	<line class="st0" x1="1248.1" y1="944.1" x2="1280" y2="1099.6"/>
	<line class="st0" x1="1280" y1="1099.6" x2="1214.4" y2="1179"/>
	<line class="st0" x1="1214.4" y1="1179" x2="1280" y2="1233.7"/>
	<line class="st0" x1="1214.4" y1="1179" x2="1190.3" y2="1257.2"/>
	<line class="st0" x1="1190.3" y1="1257.2" x2="1280" y2="1264.8"/>
	<line class="st0" x1="1190.3" y1="1257.2" x2="1178.5" y2="1280"/>
	<line class="st0" x1="1190.3" y1="1257.2" x2="1136.7" y2="1261"/>
	<line class="st0" x1="1136.7" y1="1261" x2="1135.3" y2="1280"/>
	<line class="st0" x1="1136.7" y1="1261" x2="1044.5" y2="1244.7"/>
	<line class="st0" x1="1044.5" y1="1244.7" x2="1067.3" y2="1280"/>
	<line class="st0" x1="1044.5" y1="1244.7" x2="1019.6" y2="1264.3"/>
	<line class="st0" x1="1019.6" y1="1264.3" x2="929.3" y2="1250.6"/>
	<line class="st0" x1="1019.6" y1="1264.3" x2="1036.3" y2="1280"/>
	<line class="st0" x1="1019.6" y1="1264.3" x2="1010.9" y2="1280"/>
	<line class="st0" x1="929.3" y1="1250.6" x2="955.5" y2="1280"/>
	<line class="st0" x1="929.3" y1="1250.6" x2="880.6" y2="1280"/>
	<line class="st0" x1="929.3" y1="1250.6" x2="929.8" y2="1280"/>
	<line class="st0" x1="929.3" y1="1250.6" x2="782" y2="1222.2"/>
	<line class="st0" x1="782" y1="1222.2" x2="810.5" y2="1280"/>
	<line class="st0" x1="782" y1="1222.2" x2="742.1" y2="1280"/>
	<line class="st0" x1="782" y1="1222.2" x2="670.4" y2="1236.6"/>
	<line class="st0" x1="670.4" y1="1236.6" x2="770.5" y2="1068.5"/>
	<line class="st0" x1="770.5" y1="1068.5" x2="782" y2="1222.2"/>
	<line class="st0" x1="770.5" y1="1068.5" x2="625.2" y2="1200.5"/>
	<line class="st0" x1="625.2" y1="1200.5" x2="749.9" y2="1031.2"/>
	<line class="st0" x1="625.2" y1="1200.5" x2="662.5" y2="988"/>
	<line class="st0" x1="662.5" y1="988" x2="540.4" y2="1024.6"/>
	<line class="st0" x1="540.4" y1="1024.6" x2="528" y2="894.2"/>
	<line class="st0" x1="528" y1="894.2" x2="444" y2="937"/>
	<line class="st0" x1="444" y1="937" x2="491.2" y2="818.6"/>
	<line class="st0" x1="491.2" y1="818.6" x2="402.3" y2="839.2"/>
	<line class="st0" x1="491.2" y1="818.6" x2="441.5" y2="720.4"/>
	<line class="st0" x1="441.5" y1="720.4" x2="626.3" y2="622.3"/>
	<line class="st0" x1="626.3" y1="622.3" x2="479" y2="730.4"/>
	<line class="st0" x1="479" y1="730.4" x2="491.2" y2="818.6"/>
	<line class="st0" x1="479" y1="730.4" x2="441.5" y2="720.4"/>
	<line class="st0" x1="491.2" y1="818.6" x2="528" y2="894.2"/>
	<line class="st0" x1="528" y1="894.2" x2="662.5" y2="988"/>
	<line class="st0" x1="662.5" y1="988" x2="749.9" y2="1031.2"/>
	<line class="st0" x1="749.9" y1="1031.2" x2="770.5" y2="1068.5"/>
	<line class="st0" x1="770.5" y1="1068.5" x2="941.7" y2="1137.4"/>
	<line class="st0" x1="941.7" y1="1137.4" x2="782" y2="1222.2"/>
	<line class="st0" x1="941.7" y1="1137.4" x2="929.3" y2="1250.6"/>
	<line class="st0" x1="941.7" y1="1137.4" x2="1019.6" y2="1264.3"/>
	<line class="st0" x1="941.7" y1="1137.4" x2="1044.5" y2="1244.7"/>
	<line class="st0" x1="1044.5" y1="1244.7" x2="1063.1" y2="1186.6"/>
	<line class="st0" x1="1063.1" y1="1186.6" x2="1136.7" y2="1261"/>
	<line class="st0" x1="1136.7" y1="1261" x2="1139.8" y2="1170.5"/>
	<line class="st0" x1="1139.8" y1="1170.5" x2="1190.3" y2="1257.2"/>
	<line class="st0" x1="1136.7" y1="1261" x2="1124.8" y2="1168.2"/>
	<line class="st0" x1="1124.8" y1="1168.2" x2="1063.1" y2="1186.6"/>
	<line class="st0" x1="1139.8" y1="1170.5" x2="1214.4" y2="1179"/>
	<line class="st0" x1="1139.8" y1="1170.5" x2="1280" y2="1099.6"/>
	<line class="st0" x1="1139.8" y1="1170.5" x2="1124.8" y2="1168.2"/>
	<line class="st0" x1="1063.1" y1="1186.6" x2="941.7" y2="1137.4"/>
	<line class="st0" x1="1280" y1="1099.6" x2="1050.2" y2="1029.4"/>
	<line class="st0" x1="1050.2" y1="1029.4" x2="1139.8" y2="1170.5"/>
	<line class="st0" x1="1050.2" y1="1029.4" x2="1124.8" y2="1168.2"/>
	<line class="st0" x1="1124.8" y1="1168.2" x2="1058.8" y2="1141.4"/>
	<line class="st0" x1="1058.8" y1="1141.4" x2="1063.1" y2="1186.6"/>
	<line class="st0" x1="1058.8" y1="1141.4" x2="1050.2" y2="1029.4"/>
	<line class="st0" x1="1058.8" y1="1141.4" x2="941.7" y2="1137.4"/>
	<line class="st0" x1="941.7" y1="1137.4" x2="944.6" y2="1057.8"/>
	<line class="st0" x1="941.7" y1="1137.4" x2="989.4" y2="1066.6"/>
	<line class="st0" x1="989.4" y1="1066.6" x2="1058.8" y2="1141.4"/>
	<line class="st0" x1="770.5" y1="1068.5" x2="944.6" y2="1057.8"/>
	<line class="st0" x1="944.6" y1="1057.8" x2="989.4" y2="1066.6"/>
	<line class="st0" x1="989.4" y1="1066.6" x2="1050.2" y2="1029.4"/>
	<line class="st0" x1="1050.2" y1="1029.4" x2="1248.1" y2="944.1"/>
	<line class="st0" x1="749.9" y1="1031.2" x2="944.6" y2="1057.8"/>
	<line class="st0" x1="749.9" y1="1031.2" x2="727" y2="990.2"/>
	<line class="st0" x1="727" y1="990.2" x2="662.5" y2="988"/>
	<line class="st0" x1="749.9" y1="1031.2" x2="732.8" y2="947.9"/>
	<line class="st0" x1="732.8" y1="947.9" x2="727" y2="990.2"/>
	<line class="st0" x1="732.8" y1="947.9" x2="662.5" y2="988"/>
	<line class="st0" x1="662.5" y1="988" x2="698.7" y2="901.7"/>
	<line class="st0" x1="698.7" y1="901.7" x2="528" y2="894.2"/>
	<line class="st0" x1="528" y1="894.2" x2="617.9" y2="790"/>
	<line class="st0" x1="617.9" y1="790" x2="491.2" y2="818.6"/>
	<line class="st0" x1="491.2" y1="818.6" x2="585" y2="739.6"/>
	<line class="st0" x1="585" y1="739.6" x2="479" y2="730.4"/>
	<line class="st0" x1="585" y1="739.6" x2="626.3" y2="622.3"/>
	<line class="st0" x1="585" y1="739.6" x2="617.9" y2="790"/>
	<line class="st0" x1="617.9" y1="790" x2="698.7" y2="901.7"/>
	<line class="st0" x1="698.7" y1="901.7" x2="732.8" y2="947.9"/>
	<line class="st0" x1="732.8" y1="947.9" x2="944.6" y2="1057.8"/>
	<line class="st0" x1="989.4" y1="1066.6" x2="1038.7" y2="971.3"/>
	<line class="st0" x1="1038.7" y1="971.3" x2="1050.2" y2="1029.4"/>
	<line class="st0" x1="1038.7" y1="971.3" x2="944.6" y2="1057.8"/>
	<line class="st0" x1="1038.7" y1="971.3" x2="1248.1" y2="944.1"/>
	<line class="st0" x1="1038.7" y1="971.3" x2="1155.3" y2="808.4"/>
	<line class="st0" x1="944.6" y1="1057.8" x2="973.5" y2="842.5"/>
	<line class="st0" x1="973.5" y1="842.5" x2="1038.7" y2="971.3"/>
	<line class="st0" x1="973.5" y1="842.5" x2="732.8" y2="947.9"/>
	<line class="st0" x1="973.5" y1="842.5" x2="1155.3" y2="808.4"/>
	<line class="st0" x1="585" y1="739.6" x2="699" y2="811.5"/>
	<line class="st0" x1="617.9" y1="790" x2="699" y2="811.5"/>
	<line class="st0" x1="699" y1="811.5" x2="698.7" y2="901.7"/>
	<line class="st0" x1="732.8" y1="947.9" x2="832.9" y2="773.6"/>
	<line class="st0" x1="832.9" y1="773.6" x2="698.7" y2="901.7"/>
	<line class="st0" x1="832.9" y1="773.6" x2="973.5" y2="842.5"/>
	<line class="st0" x1="973.5" y1="842.5" x2="1046.3" y2="708.2"/>
	<line class="st0" x1="1046.3" y1="708.2" x2="1155.3" y2="808.4"/>
	<line class="st0" x1="1046.3" y1="708.2" x2="1175.6" y2="622"/>
	<line class="st0" x1="699" y1="811.5" x2="832.9" y2="773.6"/>
	<line class="st0" x1="626.3" y1="622.3" x2="699" y2="811.5"/>
	<line class="st0" x1="626.3" y1="622.3" x2="832.9" y2="773.6"/>
	<line class="st0" x1="832.9" y1="773.6" x2="1046.3" y2="708.2"/>
	<line class="st0" x1="832.9" y1="773.6" x2="905" y2="607.7"/>
	<line class="st0" x1="905" y1="607.7" x2="1046.3" y2="708.2"/>
	<line class="st0" x1="832.9" y1="773.6" x2="863.1" y2="578.8"/>
	<line class="st0" x1="863.1" y1="578.8" x2="905" y2="607.7"/>
	<line class="st0" x1="430.6" y1="463" x2="626.3" y2="622.3"/>
	<line class="st0" x1="626.3" y1="622.3" x2="517.9" y2="377.1"/>
	<line class="st0" x1="517.9" y1="377.1" x2="430.6" y2="463"/>
	<line class="st0" x1="517.9" y1="377.1" x2="610.6" y2="325.1"/>
	<line class="st0" x1="517.9" y1="377.1" x2="702.3" y2="474.2"/>
	<line class="st0" x1="610.6" y1="325.1" x2="702.3" y2="474.2"/>
	<line class="st0" x1="610.6" y1="325.1" x2="724.8" y2="283.4"/>
	<line class="st0" x1="724.8" y1="283.4" x2="848.6" y2="154.3"/>
	<line class="st0" x1="635.6" y1="136.5" x2="663.9" y2="304.6"/>
	<line class="st0" x1="635.6" y1="136.5" x2="724.8" y2="283.4"/>
	<line class="st0" x1="724.8" y1="283.4" x2="673.2" y2="126.2"/>
	<line class="st0" x1="673.2" y1="126.2" x2="848.6" y2="154.3"/>
	<line class="st0" x1="848.6" y1="154.3" x2="809.3" y2="68.2"/>
	<line class="st0" x1="848.6" y1="154.3" x2="884.6" y2="76.8"/>
	<line class="st0" x1="884.6" y1="76.8" x2="975.3" y2="140.9"/>
	<line class="st0" x1="975.3" y1="140.9" x2="964.5" y2="18.5"/>
	<line class="st0" x1="975.3" y1="140.9" x2="1042.1" y2="115.1"/>
	<line class="st0" x1="1042.1" y1="115.1" x2="1103.3" y2="146.8"/>
	<line class="st0" x1="1103.3" y1="146.8" x2="1094.5" y2="130.4"/>
	<line class="st0" x1="1094.5" y1="130.4" x2="1145.6" y2="154.3"/>
	<line class="st0" x1="1145.6" y1="154.3" x2="1159.4" y2="180.5"/>
	<line class="st0" x1="1103.3" y1="146.8" x2="1145.6" y2="154.3"/>
	<line class="st0" x1="1103.3" y1="146.8" x2="1159.4" y2="180.5"/>
	<line class="st0" x1="848.6" y1="154.3" x2="975.3" y2="140.9"/>
	<line class="st0" x1="975.3" y1="140.9" x2="1103.3" y2="146.8"/>
	<line class="st0" x1="1103.3" y1="146.8" x2="1170.2" y2="434"/>
	<line class="st0" x1="1170.2" y1="434" x2="1158.5" y2="472.4"/>
	<line class="st0" x1="1159.4" y1="180.5" x2="1131.6" y2="272.4"/>
	<line class="st0" x1="1161.2" y1="260.8" x2="1131.6" y2="272.4"/>
	<line class="st0" x1="1131.6" y1="272.4" x2="1242.1" y2="368.7"/>
	<line class="st0" x1="1242.1" y1="368.7" x2="1170.2" y2="434"/>
	<line class="st0" x1="1237.5" y1="425.2" x2="1170.2" y2="434"/>
	<line class="st0" x1="626.3" y1="622.3" x2="702.3" y2="474.2"/>
	<line class="st0" x1="702.3" y1="474.2" x2="863.1" y2="578.8"/>
	<line class="st0" x1="863.1" y1="578.8" x2="626.3" y2="622.3"/>
	<line class="st0" x1="863.1" y1="578.8" x2="878.2" y2="468.6"/>
	<line class="st0" x1="878.2" y1="468.6" x2="702.3" y2="474.2"/>
	<line class="st0" x1="878.2" y1="468.6" x2="862.1" y2="226"/>
	<line class="st0" x1="862.1" y1="226" x2="848.6" y2="154.3"/>
	<line class="st0" x1="878.2" y1="468.6" x2="1000.1" y2="381.8"/>
	<line class="st0" x1="1000.1" y1="381.8" x2="1052.5" y2="322.6"/>
	<line class="st0" x1="1052.5" y1="322.6" x2="1069" y2="316.7"/>
	<line class="st0" x1="1064.9" y1="316.8" x2="1131.6" y2="272.4"/>
	<line class="st0" x1="1170.2" y1="434" x2="1069" y2="316.7"/>
	<line class="st0" x1="1069" y1="316.7" x2="975.3" y2="140.9"/>
	<line class="st0" x1="1069" y1="316.7" x2="1103.3" y2="146.8"/>
	<line class="st0" x1="975.3" y1="140.9" x2="862.1" y2="226"/>
	<line class="st0" x1="862.1" y1="226" x2="724.8" y2="283.4"/>
	<line class="st0" x1="610.6" y1="325.1" x2="675.6" y2="324.2"/>
	<line class="st0" x1="675.6" y1="324.2" x2="702.3" y2="474.2"/>
	<line class="st0" x1="702.3" y1="474.2" x2="690" y2="315.8"/>
	<line class="st0" x1="690" y1="315.8" x2="724.8" y2="283.4"/>
	<line class="st0" x1="675.6" y1="324.2" x2="690" y2="315.8"/>
	<line class="st0" x1="663.9" y1="304.6" x2="675.6" y2="324.2"/>
	<line class="st0" x1="663.9" y1="304.6" x2="690" y2="315.8"/>
	<line class="st0" x1="690" y1="315.8" x2="878.2" y2="468.6"/>
	<line class="st0" x1="724.8" y1="283.4" x2="878.2" y2="468.6"/>
	<line class="st0" x1="878.2" y1="468.6" x2="956.5" y2="591.2"/>
	<line class="st0" x1="956.5" y1="591.2" x2="1046.3" y2="708.2"/>
	<line class="st0" x1="905" y1="607.7" x2="956.5" y2="591.2"/>
	<line class="st0" x1="905" y1="607.7" x2="890.8" y2="575.8"/>
	<line class="st0" x1="890.8" y1="575.8" x2="863.1" y2="578.8"/>
	<line class="st0" x1="890.8" y1="575.8" x2="878.2" y2="468.6"/>
	<line class="st0" x1="890.8" y1="575.8" x2="956.5" y2="591.2"/>
	<line class="st0" x1="1046.3" y1="708.2" x2="1107.9" y2="543.9"/>
	<line class="st0" x1="1175.6" y1="622" x2="1107.9" y2="543.9"/>
	<line class="st0" x1="1107.9" y1="543.9" x2="1158.5" y2="472.4"/>
	<line class="st0" x1="1107.9" y1="543.9" x2="1003.2" y2="558.4"/>
	<line class="st0" x1="1003.2" y1="558.4" x2="956.5" y2="591.2"/>
	<line class="st0" x1="1003.2" y1="558.4" x2="1090.2" y2="445.9"/>
	<line class="st0" x1="1003.2" y1="558.4" x2="1046.3" y2="708.2"/>
	<line class="st0" x1="1003.2" y1="558.4" x2="878.2" y2="468.6"/>
	<line class="st0" x1="1003.2" y1="558.4" x2="1000.1" y2="381.8"/>
	<line class="st0" x1="1000.1" y1="381.8" x2="1090.2" y2="445.9"/>
	<line class="st0" x1="1090.2" y1="445.9" x2="1107.9" y2="543.9"/>
	<line class="st0" x1="1090.2" y1="445.9" x2="1158.5" y2="472.4"/>
	<line class="st0" x1="1090.2" y1="445.9" x2="1170.2" y2="434"/>
	<line class="st0" x1="1090.2" y1="445.9" x2="1069" y2="316.7"/>
	<line class="st0" x1="1090.2" y1="445.9" x2="1052.5" y2="322.6"/>
	<line class="st0" x1="975.3" y1="140.9" x2="958.8" y2="297.7"/>
	<line class="st0" x1="958.8" y1="297.7" x2="878.2" y2="468.6"/>
	<line class="st0" x1="958.8" y1="297.7" x2="862.1" y2="226"/>
	<line class="st0" x1="958.8" y1="297.7" x2="1069" y2="316.7"/>
	<line class="st0" x1="958.8" y1="297.7" x2="1000.1" y2="381.8"/>
	<line class="st0" x1="1052.5" y1="322.6" x2="958.8" y2="297.7"/>
</g>
</svg>
