<?xml version="1.0" encoding="utf-8"?>
<!-- Generator: Adobe Illustrator 21.1.0, SVG Export Plug-In . SVG Version: 6.00 Build 0)  -->
<svg version="1.1" id="Layer_1" xmlns="http://www.w3.org/2000/svg" xmlns:xlink="http://www.w3.org/1999/xlink" x="0px" y="0px"
	 viewBox="0 0 300 51.7" style="enable-background:new 0 0 300 51.7;" xml:space="preserve">
<style type="text/css">
	.st0{fill:#25258E;}
	.st1{fill:#EE3D49;}
</style>
<g>
	<path class="st0" d="M89,25.2v9.3c0,2.3,1.9,2.5,5.4,2.3v7.1c-10.2,1-13.2-2-13.2-9.4v-9.3H77v-7.6h4.2v-5l7.9-2.4v7.3h5.4v7.6
		C94.4,25.2,89,25.2,89,25.2z"/>
	<path class="st0" d="M97,30.7c0-7.8,6.2-13.8,13.9-13.8s13.9,6,13.9,13.8s-6.2,13.8-13.9,13.8C103.1,44.5,97,38.5,97,30.7z
		 M116.9,30.7c0-3.7-2.6-6.2-6-6.2s-6,2.5-6,6.2s2.6,6.2,6,6.2S116.9,34.5,116.9,30.7z"/>
	<path class="st0" d="M144.7,43.8l-8.4-11.6v11.6h-7.9V7.2h7.9v21.9l7.9-11.5h9.2l-9.5,13.1l9.8,13.1H144.7z"/>
	<path class="st0" d="M167.7,37.6c2.1,0,4-0.8,5-2l6.3,3.6c-2.6,3.6-6.4,5.4-11.4,5.4c-9,0-14.5-6-14.5-13.8S158.7,17,167,17
		c7.7,0,13.3,5.9,13.3,13.8c0,1.1-0.1,2.1-0.3,3.2h-18.6C162.4,36.6,164.8,37.6,167.7,37.6z M172.6,28c-0.8-3.1-3.2-4.1-5.5-4.1
		c-3,0-5,1.4-5.7,4.1H172.6z"/>
	<path class="st0" d="M209.3,27.7v16.1h-7.9V28.9c0-3.3-2-4.8-4.6-4.8c-2.9,0-4.9,1.7-4.9,5.4v14.3h-7.8V17.6h7.9v2.5
		c1.4-1.9,4-3.2,7.5-3.2C204.8,16.9,209.3,20.7,209.3,27.7z"/>
	<path class="st0" d="M242.4,30.7c0,7.8-5.6,13.8-12.5,13.8c-3.5,0-6.1-1.2-7.8-3.2v2.5h-7.9V7.2h7.9v12.9c1.7-2,4.3-3.2,7.8-3.2
		C236.8,16.9,242.4,22.9,242.4,30.7z M234.5,30.7c0-3.9-2.6-6.4-6.2-6.4s-6.2,2.5-6.2,6.4s2.6,6.4,6.2,6.4S234.5,34.7,234.5,30.7z"
		/>
	<path class="st0" d="M244.8,30.7c0-7.8,6.2-13.8,13.9-13.8s13.9,6,13.9,13.8s-6.2,13.8-13.9,13.8S244.8,38.5,244.8,30.7z
		 M264.7,30.7c0-3.7-2.6-6.2-6-6.2s-6,2.5-6,6.2s2.6,6.2,6,6.2C262,36.9,264.7,34.5,264.7,30.7z"/>
	<path class="st0" d="M291,43.8l-4.9-6.9l-4.9,6.9h-9l9.4-13.3l-9.1-12.9h9l4.6,6.5l4.6-6.5h9l-9.1,12.9l9.4,13.3H291z"/>
</g>
<path class="st1" d="M44.8,0H15L0,25.9l15,25.9h29.9l15-25.9L44.8,0z M41.4,42.1L29.9,25.9L18.4,42.1L9,25.9L19.4,7.4h20.9
	l10.5,18.5L41.4,42.1z"/>
</svg>
