<?xml version="1.0" encoding="utf-8"?>
<!-- Generator: Adobe Illustrator 21.1.0, SVG Export Plug-In . SVG Version: 6.00 Build 0)  -->
<svg version="1.1" id="Layer_1" xmlns="http://www.w3.org/2000/svg" xmlns:xlink="http://www.w3.org/1999/xlink" x="0px" y="0px"
	 viewBox="0 0 512 512" style="enable-background:new 0 0 512 512;" xml:space="preserve">
<style type="text/css">
	.st0{fill:#EE3D49;}
</style>
<path class="st0" d="M256,0C114.8,0,0,114.8,0,256s114.8,256,256,256s256-114.8,256-256S397.2,0,256,0z M256,490.7
	C126.6,490.7,21.3,385.4,21.3,256S126.6,21.3,256,21.3S490.7,126.6,490.7,256S385.4,490.7,256,490.7z M256.1,85.3
	C162,85.3,85.4,161.9,85.4,256c0,5.9-4.8,10.7-10.7,10.7c-5.9,0-10.7-4.8-10.7-10.7c0-105.9,86.1-192,192-192
	c5.4,0,10.8,0.2,16.2,0.7c5.8,0.5,10.2,5.6,9.7,11.5c-0.5,5.8-5.6,10.2-11.5,9.7C265.6,85.5,260.8,85.3,256.1,85.3z M447.9,256
	c0,105.9-86.1,192-192,192c-5.4,0-10.9-0.2-16.2-0.7c-5.8-0.5-10.2-5.6-9.7-11.5c0.5-5.8,5.6-10.2,11.5-9.7
	c4.7,0.4,9.6,0.6,14.4,0.6c94.1,0,170.7-76.6,170.7-170.7c0-5.9,4.8-10.7,10.7-10.7C443.2,245.3,448,250.1,447.9,256z M291.8,78.1
	c1.5-5.7,7.3-9.2,13-7.7c0.3,0,0.6,0.1,0.9,0.2c5.7,1.6,9,7.4,7.5,13.1c-1.3,4.8-5.6,7.9-10.3,7.9c-0.9,0-1.9-0.1-2.8-0.4l-0.6-0.2
	C293.8,89.5,290.4,83.7,291.8,78.1z M220.2,434.3c-1.3,4.7-5.6,7.9-10.3,7.9c-1,0-1.9-0.2-2.8-0.4l-0.7-0.2c-5.7-1.5-9.2-7.3-7.7-13
	s7.3-9.2,13-7.7l0.9,0.2C218.3,422.6,221.7,428.4,220.2,434.3z M233.7,344.5l50.5-29.1c0.3-0.2,0.6-0.4,0.9-0.6l49.2-28.4
	c5.5-3.1,10-7.6,13.2-13c9.6-16.6,3.8-37.9-12.8-47.5l-48.9-28.2c-0.5-0.3-1-0.6-1.5-0.9l-48.8-28.2c-5.7-3.8-12.3-5.7-19.2-5.7
	c-19.2,0-34.9,15.7-34.9,34.9v116.6c0,0.4,0,0.8,0.1,1.3c0.2,5.7,1.8,11.2,4.7,16.2c6.2,10.7,17.8,17.4,30.2,17.4
	C222.4,349.2,228.4,347.5,233.7,344.5z M204.5,321.1c-1.2-2.1-1.8-4.4-1.8-6.8c0-0.4,0-0.7-0.1-1.1V197.7c0-7.5,6.1-13.6,13.6-13.6
	c2.7,0,5.3,0.8,7.6,2.3c0.2,0.1,0.4,0.3,0.6,0.4l49.1,28.4c0.2,0.1,0.4,0.3,0.7,0.4c0.2,0.1,0.4,0.2,0.5,0.3l49.2,28.4
	c6.4,3.7,8.7,11.9,5,18.4c-1.2,2.1-3,3.9-5.1,5c-0.1,0-0.1,0.1-0.2,0.1l-50.1,28.9c-0.3,0.2-0.6,0.4-0.9,0.6L223,326
	c-2.1,1.2-4.4,1.8-6.7,1.8C211.4,327.8,207,325.2,204.5,321.1z"/>
</svg>
