<?xml version="1.0" encoding="utf-8"?>
<!-- Generator: Adobe Illustrator 21.1.0, SVG Export Plug-In . SVG Version: 6.00 Build 0)  -->
<svg version="1.1" id="Layer_1" xmlns="http://www.w3.org/2000/svg" xmlns:xlink="http://www.w3.org/1999/xlink" x="0px" y="0px"
	 viewBox="0 0 150 150" style="enable-background:new 0 0 150 150;" xml:space="preserve">
<style type="text/css">
	.st0{fill:#0099FD;}
	.st1{fill:#FFFFFF;}
</style>
<polygon class="st0" points="0,0 0,100.1 49.9,150 150,150 150,0 "/>
<path id="symbol" class="st1" d="M114.8,65.4c1.6-10.6-6.5-16.3-17.5-20l3.6-14.3l-8.7-2.2l-3.5,13.9c-2.3-0.6-4.6-1.1-7-1.6l3.5-14
	L76.5,25l-3.6,14.3c-1.9-0.4-3.8-0.9-5.6-1.3l0,0l-12-3L53,44.3c0,0,6.5,1.5,6.3,1.6c3.5,0.9,4.2,3.2,4.1,5.1l-4.1,16.3
	c0.2,0.1,0.6,0.2,0.9,0.3c-0.3-0.1-0.6-0.2-0.9-0.2l-5.7,22.9c-0.4,1.1-1.5,2.7-4,2.1c0.1,0.1-6.3-1.6-6.3-1.6l-4.3,10l11.3,2.8
	c2.1,0.5,4.2,1.1,6.2,1.6l-3.6,14.5l8.7,2.2l3.6-14.3c2.4,0.6,4.7,1.2,6.9,1.8l-3.6,14.3l8.7,2.2l3.6-14.5
	c14.9,2.8,26,1.7,30.7-11.8c3.8-10.8-0.2-17.1-8-21.1C109.4,76.9,113.7,73.2,114.8,65.4L114.8,65.4z M94.9,93.4
	c-2.7,10.8-20.9,5-26.8,3.5l4.8-19.2C78.8,79.2,97.7,82.1,94.9,93.4z M97.6,65.3C95.1,75.1,80,70.1,75,68.9l4.3-17.4
	C84.3,52.7,100.1,55,97.6,65.3z"/>
</svg>
