<?xml version="1.0" encoding="utf-8"?>
<!-- Generator: Adobe Illustrator 21.1.0, SVG Export Plug-In . SVG Version: 6.00 Build 0)  -->
<svg version="1.1" id="Layer_1" xmlns="http://www.w3.org/2000/svg" xmlns:xlink="http://www.w3.org/1999/xlink" x="0px" y="0px"
	 viewBox="0 0 1266.2 349.9" style="enable-background:new 0 0 1266.2 349.9;" xml:space="preserve">
<style type="text/css">
	.st0{fill:#FFCC33;}
</style>
<path class="st0" d="M117.7,130.1c0.8,0.8,1.2,1.9,1.2,3.3c0,1.6-1.2,3.6-3.5,6c-2.4,2.4-5.5,4.8-9.4,7.2c-3.9,2.3-8.4,4.3-13.5,6
	c-2,0.6-4,1-6,1.4V62.1c1.1,0.2,2.3,0.3,3.3,0.6c5.5,1.3,10.3,2.9,14.4,4.7c4.1,1.8,7.3,3.7,9.6,5.6c2.4,2,3.5,3.6,3.5,4.8
	c0,1.3-0.4,2.3-1.2,3.1l3.1,1.4l14.6-25.2l-2.8-1.9c-0.5,0.6-0.9,1.1-1.2,1.5c-0.3,0.4-1.1,0.6-2.4,0.6c-1.1,0-3.1-0.7-6-2
	c-2.9-1.3-6.6-2.8-11.2-4.4c-4.6-1.6-9.9-3-16-4.4c-2.4-0.5-5.1-0.9-7.8-1.2V25.2H74.2v19.6c-0.3,0-0.6,0-1,0
	c-3.2,0-6.2,0.2-9.2,0.4v-20H51.8V47c-3.1,0.7-6.2,1.5-9.1,2.6c-9,3.3-16.7,7.7-23.1,13.3c-6.4,5.6-11.2,12-14.6,19.2
	C1.7,89.3,0,96.9,0,105c0,9.6,1.8,18.4,5.4,26.5c3.6,8.1,8.7,15.1,15.2,20.9c6.5,5.9,14.3,10.4,23.4,13.5c2.5,0.9,5.1,1.6,7.8,2.2
	v25.1H64v-23.1c3.3,0.3,6.7,0.5,10.2,0.5c0,0,0,0,0,0v22.6h12.1V170c4.8-0.5,9.1-1.2,13-2.3c6.9-1.9,12.6-4.1,17.1-6.6
	c4.5-2.5,7.9-4.7,10.4-6.8c2.4-2.1,4-3.1,4.8-3.1c1.4,0,2.6,0.6,3.5,1.6l3.1-2.1l-17.4-22.6L117.7,130.1z M51.8,150.1
	c-5.4-2.2-10.5-4.9-14.9-8.4c-5.3-4.2-9.6-9.3-12.8-15.1c-3.2-5.9-4.8-12.3-4.8-19.4c0-8.1,1.6-15.1,4.7-21
	c3.1-5.9,7.2-10.7,12.1-14.4c4.6-3.5,9.9-6.1,15.7-7.9V150.1z M74.2,155c-3.4-0.1-6.9-0.5-10.2-1.1V61.3c2.7-0.3,5.4-0.6,8-0.6
	c0.7,0,1.4,0.1,2.2,0.1V155z M238.8,65c-5.2-4.8-11.4-8.6-18.7-11.4c-7.3-2.8-15.5-4.2-24.6-4.2c-9.1,0-17.3,1.4-24.6,4.2
	c-7.3,2.8-13.5,6.6-18.7,11.4c-5.2,4.8-9.1,10.4-11.9,16.8c-2.7,6.4-4.1,13.3-4.1,20.7c0,7.4,1.4,14.3,4.1,20.7
	c2.7,6.4,6.7,12,11.9,16.8c5.2,4.8,11.4,8.5,18.7,11.1c7.3,2.6,15.5,3.9,24.6,3.9c9.1,0,17.3-1.3,24.6-3.9
	c7.3-2.6,13.5-6.3,18.7-11.1c5.2-4.8,9.1-10.4,11.9-16.8c2.7-6.4,4.1-13.3,4.1-20.7c0-7.4-1.4-14.3-4.1-20.7
	C247.9,75.4,244,69.8,238.8,65z M236.2,118c-2,4.9-4.9,9.1-8.7,12.7c-3.8,3.6-8.4,6.5-13.8,8.6c-5.4,2.1-11.5,3.2-18.2,3.2
	c-6.7,0-12.8-1.1-18.2-3.2c-5.4-2.1-10-5-13.8-8.6c-3.8-3.6-6.7-7.8-8.7-12.7c-2-4.9-3.1-10.1-3.1-15.8c0-5.5,1-10.7,3.1-15.5
	c2-4.9,4.9-9.1,8.7-12.7c3.8-3.6,8.4-6.4,13.8-8.5c5.4-2,11.5-3.1,18.2-3.1c6.8,0,12.8,1,18.2,3.1c5.4,2,10,4.9,13.8,8.5
	c3.8,3.6,6.7,7.8,8.7,12.7c2,4.9,3.1,10,3.1,15.5C239.2,107.9,238.2,113.2,236.2,118z M272.3,50.7h26.4v2.8c-2.5,0-4.1,0.4-4.8,1.3
	c-0.7,0.9-1.1,2.6-1.1,5.3v84.7c0,2.7,0.4,4.4,1.1,5.3c0.7,0.9,2.3,1.3,4.8,1.3v2.8h-26.4v-2.8c2.5,0,4.1-0.4,4.8-1.3
	c0.7-0.9,1.1-2.6,1.1-5.3V60.2c0-2.7-0.4-4.4-1.1-5.3c-0.7-0.9-2.3-1.3-4.8-1.3V50.7z M403.2,50.7h25.9v2.8c-2.5,0-4.2,0.4-5.1,1.3
	c-0.9,0.9-1.3,2.6-1.3,5.3v84.7c0,2.7,0.4,4.4,1.3,5.3c0.9,0.9,2.6,1.3,5.1,1.3v2.8h-31.5v-2.8c3.1,0,5-0.2,5.6-0.5
	c0.6-0.3,0.9-0.9,0.9-1.6c0-0.8-0.3-1.4-0.8-2c-0.6-0.5-1.2-1.3-2-2.2l-66.6-76v75.8c0,2.7,0.4,4.4,1.3,5.3c0.9,0.9,2.5,1.3,5.1,1.3
	v2.8h-25.9v-2.8c2.5,0,4.2-0.4,5.1-1.3c0.9-0.9,1.3-2.6,1.3-5.3V60.2c0-2.7-0.4-4.4-1.3-5.3c-0.9-0.9-2.6-1.3-5.1-1.3v-2.8h34.4v2.8
	c-2.5,0-4.2,0.2-5.1,0.6c-0.9,0.4-1.3,0.9-1.3,1.5c0,0.5,0.9,1.8,2.6,4l63.8,73.2V60.2c0-2.7-0.4-4.4-1.3-5.3
	c-0.9-0.9-2.6-1.3-5.1-1.3h0V50.7z M507.1,34.2h24.6V37c-2.2,0-3.7,0.5-4.5,1.5c-0.8,1-1.2,2.4-1.2,4.1v106.8c0,1.7,0.4,3.1,1.2,4.1
	c0.8,1,2.3,1.5,4.5,1.5v2.8h-24.6v-2.8c2.2,0,3.7-0.5,4.5-1.5c0.8-1,1.2-2.4,1.2-4.1V42.7c0-1.7-0.4-3.1-1.2-4.1
	c-0.8-1-2.3-1.5-4.5-1.5V34.2z M650.1,64.2c-4.3-4.6-9.8-8.3-16.6-10.9c-6.7-2.7-14.7-4-24-4h-56.9V52c2.5,0,4.1,0.4,4.8,1.3
	c0.7,0.9,1.1,2.6,1.1,5.3v84.7c0,2.7-0.4,4.4-1.1,5.3c-0.7,0.9-2.3,1.3-4.8,1.3v2.8h56.9c9.3,0,17.2-1.3,24-4
	c6.7-2.7,12.3-6.3,16.6-10.9c4.3-4.6,7.5-10.1,9.5-16.5c2-6.3,3.1-13.1,3.1-20.3c0-7.4-1-14.2-3.1-20.5
	C657.6,74.2,654.4,68.8,650.1,64.2z M644.9,115.9c-1.5,4.6-3.8,8.7-7.1,12.2c-3.2,3.5-7.4,6.3-12.5,8.4c-5.1,2-11.3,3.1-18.7,3.1
	H573V62.4h33.6c7.4,0,13.6,1,18.7,3.1c5.1,2,9.3,4.8,12.5,8.4c3.2,3.5,5.6,7.6,7.1,12.2c1.5,4.6,2.2,9.6,2.2,14.9
	C647.2,106.3,646.4,111.3,644.9,115.9z M776.7,63.4c-5.2-4.8-11.4-8.6-18.7-11.4c-7.3-2.8-15.5-4.2-24.6-4.2
	c-9.1,0-17.3,1.4-24.6,4.2c-7.3,2.8-13.5,6.6-18.7,11.4c-5.2,4.8-9.1,10.4-11.9,16.8c-2.8,6.4-4.1,13.3-4.1,20.7
	c0,7.4,1.4,14.3,4.1,20.7c2.7,6.4,6.7,12,11.9,16.8c5.2,4.8,11.4,8.5,18.7,11.1c7.3,2.6,15.5,3.9,24.6,3.9c9.1,0,17.3-1.3,24.6-3.9
	c7.3-2.6,13.5-6.3,18.7-11.1c5.2-4.8,9.1-10.4,11.9-16.8c2.7-6.4,4.1-13.3,4.1-20.7c0-7.4-1.4-14.3-4.1-20.7
	C785.8,73.8,781.9,68.2,776.7,63.4z M774.1,116.5c-2,4.9-4.9,9.1-8.7,12.7c-3.8,3.6-8.4,6.5-13.8,8.6c-5.4,2.1-11.5,3.2-18.2,3.2
	c-6.7,0-12.8-1.1-18.2-3.2c-5.4-2.1-10-5-13.8-8.6c-3.8-3.6-6.7-7.8-8.7-12.7c-2-4.9-3.1-10.1-3.1-15.8c0-5.5,1-10.7,3.1-15.5
	c2-4.9,4.9-9.1,8.7-12.7c3.8-3.6,8.4-6.4,13.8-8.5c5.4-2,11.5-3.1,18.2-3.1c6.7,0,12.8,1,18.2,3.1c5.4,2,10,4.9,13.8,8.5
	c3.8,3.6,6.7,7.8,8.7,12.7c2,4.9,3.1,10,3.1,15.5C777.1,106.4,776.1,111.6,774.1,116.5z M907.9,132.5h2.8v24.7h-2.8
	c0-1.7-0.4-2.9-1.2-3.5c-0.8-0.6-2.4-0.9-4.7-0.9h-94.4v-2.8c2.5,0,4.1-0.4,4.8-1.3c0.7-0.9,1.1-2.6,1.1-5.3V58.6
	c0-2.7-0.4-4.4-1.1-5.3c-0.7-0.9-2.3-1.3-4.8-1.3v-2.8H834V52c-2.5,0-4.1,0.4-4.8,1.3c-0.7,0.9-1.1,2.6-1.1,5.3v80.9H902
	c2.4,0,3.9-0.5,4.7-1.5C907.5,137,907.9,135.2,907.9,132.5L907.9,132.5z M1033.6,97.5c0-0.5,0.1-0.8,0.1-1c0-2.6-3-5.6-9.1-8.9
	c-5.8-3.2-11.6-4.7-17.5-4.7c-8.2,0-15,2.6-20.3,7.7c-6.1,5.8-9.1,13.2-9.1,22.3c0,9.1,3,16.6,9.1,22.3c5.4,5.1,12.1,7.6,20.3,7.6
	c6.4,0,12.8-1.9,19.1-5.7c5-3,7.4-5.6,7.4-7.9c0-0.1-0.1-0.9-0.2-2.3l1.5-1.4l11.4,19.9l-1.6,1.4c-1.1-0.9-1.9-1.4-2.6-1.4
	c-0.8,0-2.5,1-5.3,3c-6.2,4.3-11.6,7.3-16.4,8.9c-4.7,1.7-10.2,2.5-16.4,2.5c-12.4,0-22.4-3.5-30.2-10.6c-4.4-4-7.9-9.1-10.6-15.1
	c-2.8-6.6-4.2-13.7-4.2-21.3c0-10.6,2.6-19.9,7.7-28c8.1-12.7,20.5-19,37.1-19c6.2,0,11.7,0.8,16.5,2.5c4.8,1.7,10.3,4.6,16.4,8.9
	c2.8,2,4.6,3,5.3,3c0.6,0,1.5-0.5,2.6-1.4l1.6,1.5l-11.4,19.7l-1.5-1.3C1033.5,98.1,1033.5,97.7,1033.6,97.5z M1135.1,76.8
	c-8.7-7.3-19.6-11-32.6-11c-12.9,0.2-23.7,3.8-32.3,11c-10.5,8.6-15.7,20.7-15.7,36.1c0,15.3,5.2,27.3,15.7,36.1
	c8.6,7.3,19.4,11,32.5,11s23.9-3.7,32.5-11c10.4-8.8,15.6-20.6,15.6-35.4C1150.7,97.8,1145.5,85.6,1135.1,76.8z M1123.3,133.8
	c-5.3,6-12.2,9-20.7,9c-8.5,0-15.4-3-20.7-9c-4.9-5.6-7.4-12.6-7.4-20.9c0-8.4,2.5-15.4,7.4-21c5.3-6,12.2-8.9,20.7-8.9
	c8.5,0.1,15.4,3.1,20.7,8.9c4.9,5.4,7.4,12.6,7.4,21.4C1130.7,121.4,1128.2,128.3,1123.3,133.8z M1261.5,75.9v73.7
	c0,1.7,0.3,3,1,3.9c0.7,0.9,1.9,1.6,3.7,2.2v2.3h-29v-2.3c1.7-0.5,2.9-1.2,3.6-2.1c0.7-0.9,1.1-2.2,1.1-3.9V98.6l-31.7,59.4
	l-29.9-59.4v51.1c0,1.7,0.3,2.9,1,3.8c0.7,0.9,1.9,1.6,3.7,2.2v2.3h-27.2v-2.3c1.7-0.5,2.9-1.2,3.6-2.1c0.7-0.9,1.1-2.2,1.1-3.9
	V75.9c0-1.7-0.3-2.9-1-3.8c-0.7-0.9-1.9-1.6-3.7-2.1v-2.3h34.6V70c-2.3,0.8-3.4,2.3-3.4,4.6c0,2.2,0.8,4.9,2.5,8.1l20.4,40.8
	l20.6-40.3c2.3-4.2,3.5-7.2,3.5-9c0-2.2-1.2-3.6-3.6-4.2v-2.3h33.8V70c-1.8,0.5-3,1.2-3.7,2.1C1261.8,73,1261.5,74.3,1261.5,75.9z"
	/>
<path d="M519.4,24.6c2.1,0,20.8-0.3,20.8-12.3c0-12-18.7-12.3-20.8-12.3c-2.1,0-20.8,0.3-20.8,12.3
	C498.6,24.3,517.3,24.6,519.4,24.6z M519.4,7.6c8.4,0,13.9,2.8,15.2,4.7c-1.3,1.9-6.8,4.7-15.2,4.7c-8.4,0-13.9-2.8-15.2-4.7
	C505.5,10.4,511,7.6,519.4,7.6z M927.9,153.9c-2.5-2.4-3.7-5.2-3.7-8.5c0-3.3,1.2-6.1,3.6-8.4c2.4-2.3,5.4-3.5,8.9-3.5
	c3.5,0,6.5,1.2,8.9,3.5c2.4,2.3,3.6,5.2,3.6,8.6c0,3.3-1.2,6.1-3.7,8.4c-2.5,2.3-5.4,3.5-8.9,3.5
	C933.3,157.5,930.3,156.3,927.9,153.9z M292.7,231.3c5.7-3.7,8.6-8.9,8.6-15.7c0-7.3-2.8-12.9-8.2-16.8c-2.4-1.7-5.1-3-8.1-3.7
	c-3-0.7-6.8-1.1-11.3-1.1h-46.3v4.4l1.2,0.3c1.4,0.3,1.8,0.7,1.9,0.9c0.1,0.1,0.4,0.7,0.4,2.4V264c0,1.7-0.3,2.2-0.4,2.3
	c-0.1,0.1-0.5,0.6-2,0.9l-1.1,0.3v4.4h45.2c7.4,0,13.2-0.7,17.3-2.1c4.2-1.5,7.6-4,10.1-7.6c2.5-3.6,3.8-7.8,3.8-12.6
	C303.8,241,300.1,234.8,292.7,231.3z M288.6,221.2c-1,1.6-2.4,2.7-4.2,3.5c-1.6,0.6-3.4,1.1-5.3,1.3c-2,0.2-5,0.4-9,0.4h-27.4v-22.2
	h26.9c5.4,0,9.5,0.3,12,1c2.4,0.6,4.4,1.7,5.8,3.3c1.8,2,2.7,4.4,2.7,7.2C290.1,217.8,289.6,219.6,288.6,221.2z M242.6,236.5h28.1
	c5.6,0,9.8,0.4,12.5,1.1c2.5,0.7,4.5,1.9,6.1,3.8c1.9,2.3,2.9,5,2.9,8.2c0,2.4-0.5,4.6-1.6,6.4c-1.1,1.8-2.5,3.1-4.5,4
	c-1.7,0.7-3.5,1.2-5.4,1.5c-2,0.3-5.2,0.4-9.4,0.4h-28.6V236.5z M376.7,272h-61.6v-4.4l1.1-0.3c1.5-0.4,1.9-0.8,2-0.9
	c0.1-0.1,0.4-0.7,0.4-2.4V202c0-1.7-0.3-2.2-0.4-2.3c-0.1-0.1-0.5-0.6-2-0.9l-1.1-0.3V194h18.7v4.4l-1.1,0.3c-1.5,0.4-1.9,0.8-2,0.9
	c-0.1,0.1-0.4,0.7-0.4,2.3v59.9h46.4c1.7,0,2.2-0.3,2.4-0.4c0.1-0.1,0.6-0.5,0.9-1.9l0.3-1.2h4.4v17.2h-4.4l-0.3-1.2
	c-0.3-1.4-0.8-1.9-0.9-1.9C378.9,272.4,378.4,272,376.7,272z M399.8,262.6c8.3,7.1,19.3,10.8,32.8,10.8c7.7,0,14.6-1.2,20.7-3.5
	c8.2-3.1,14.7-8.4,19.4-15.5c4.2-6.5,6.3-13.5,6.3-20.9c0-5.5-1-10.6-2.9-15.4c-2.4-5.8-5.9-10.7-10.6-14.7
	c-8.3-7.1-19.4-10.8-33-10.8h0c-7.8,0.1-14.7,1.3-20.5,3.5c-8.3,3.2-14.9,8.4-19.4,15.4c-4.2,6.5-6.3,13.7-6.3,21.4
	c0,5.2,1,10.2,2.9,14.9C391.6,253.6,395.1,258.6,399.8,262.6z M398.3,233c0-8.3,2.9-15.3,8.6-20.7c6.2-6,14.9-9,25.7-9
	c5.6,0,10.7,0.8,15,2.3c3.9,1.3,7.6,3.6,11,6.8c5.6,5.3,8.5,12.5,8.5,21.2c0,8-2.9,14.9-8.5,20.4c-6.2,6-15,9-25.9,9
	c-10.9,0-19.6-3-25.8-9C401.1,248.3,398.3,241.3,398.3,233z M488.8,233.1c0-9.3,2.7-17.5,8.1-24.4c8.4-10.7,21.1-16.1,37.7-16.1
	c10.9,0,21.7,2.9,31.9,8.7c0.2,0.1,0.4,0.2,0.6,0.3c0.2-0.2,0.7-0.6,1.6-1.5l0.8-0.9l3.9,2.2l-9.7,16.2l-3.8-2.2l0.3-1.1
	c0.4-1.2,0.4-1.8,0.4-2.2c0,0-0.2-1.4-6.2-4.3c-6.2-3-13.1-4.6-20.5-4.6c-9.8,0-17.9,2.7-24,8.1c-6.2,5.5-9.2,12.5-9.2,21.3
	c0,8.8,3.1,15.9,9.6,21.7c6.2,5.6,14,8.5,23.1,8.5c9,0,17-2.6,23.8-7.9c3.8-2.9,4.2-4,4.3-4.1c0,0,0,0,0,0c0,0-0.1-0.5-0.8-1.8
	l-0.6-1.1l3.5-2.7l11.7,14.2l-3.6,2.8l-0.9-0.8c-0.8-0.7-1.3-0.9-1.5-1c-0.1,0.1-0.5,0.3-1.2,0.8c-3.4,2.6-6.3,4.5-8.6,5.8
	c-2.3,1.3-4.8,2.4-7.6,3.3c-5.6,1.9-11.8,2.9-18.5,2.9c-13,0-23.7-3.7-31.8-10.9C493.2,254.8,488.8,244.9,488.8,233.1z M599.2,242.5
	V264c0,1.6,0.3,2.2,0.4,2.3c0.1,0.2,0.6,0.6,2,1l1.1,0.3v4.4h-18.7v-4.4l1.1-0.3c1.5-0.4,1.9-0.8,2-0.9c0.1-0.1,0.4-0.7,0.4-2.3V202
	c0-1.7-0.3-2.2-0.4-2.4c-0.1-0.2-0.5-0.6-1.9-0.9l-1.2-0.3V194h18.7v4.4l-1.1,0.3c-1.5,0.4-1.9,0.8-2,0.9c-0.1,0.1-0.4,0.7-0.4,2.3
	v28.1l38.1-29.8c0.9-0.7,1.3-1.2,1.5-1.4c-0.1-0.1-0.4-0.1-0.7-0.2l-1.3-0.2V194h22.8v4.7l-1.4,0.1c-1.9,0.1-3.8,0.9-5.7,2.4
	l-29.3,22.7l32.6,41.3c0.8,1.1,1.4,1.5,1.7,1.6c0.3,0.1,1,0.4,2.6,0.5l1.4,0.1v4.7h-21.3v-4.5l1.2-0.3c0.5-0.1,0.8-0.2,1-0.3
	c-0.3-0.4-0.8-1.2-1.9-2.7l-26.2-33.6L599.2,242.5z M660.9,233.1c0-9.3,2.7-17.5,8.1-24.4c8.4-10.7,21.1-16.1,37.7-16.1
	c11,0,21.7,2.9,31.9,8.7c0.2,0.1,0.4,0.2,0.6,0.3c0.2-0.2,0.7-0.6,1.5-1.5l0.8-0.9l3.9,2.2l-9.7,16.2l-3.8-2.2l0.3-1.1
	c0.4-1.2,0.4-1.8,0.4-2.2c0,0-0.2-1.4-6.2-4.3c-6.2-3-13.1-4.6-20.5-4.6c-9.8,0-17.9,2.7-24,8.1c-6.2,5.5-9.2,12.5-9.2,21.3
	c0,8.8,3.1,15.9,9.6,21.7c6.2,5.6,14,8.5,23.1,8.5c9,0,17-2.6,23.8-7.9c3.8-2.9,4.2-4,4.3-4.1c0,0-0.1-0.5-0.8-1.8l-0.6-1.1l3.5-2.7
	l11.7,14.2l-3.6,2.8l-0.9-0.8c-0.8-0.7-1.3-0.9-1.5-1c-0.1,0.1-0.5,0.3-1.2,0.8c-3.4,2.6-6.3,4.5-8.6,5.8c-2.3,1.3-4.8,2.4-7.6,3.3
	c-5.6,1.9-11.8,2.9-18.5,2.9c-13,0-23.7-3.7-31.8-10.9C665.3,254.8,660.9,244.9,660.9,233.1z M774.8,272h-18.7v-4.4l1.1-0.3
	c1.5-0.4,1.9-0.8,2-0.9c0.1-0.1,0.4-0.7,0.4-2.4V202c0-1.7-0.3-2.2-0.4-2.4c-0.1-0.2-0.5-0.6-1.9-0.9l-1.2-0.3V194h18.7v4.4
	l-1.1,0.3c-1.5,0.4-1.9,0.8-2,0.9c-0.1,0.1-0.4,0.7-0.4,2.3v24.9h48.4V202c0-1.7-0.3-2.2-0.4-2.4c-0.1-0.2-0.5-0.6-1.9-0.9l-1.2-0.3
	V194h18.7v4.4l-1.1,0.3c-1.5,0.4-1.9,0.8-2,0.9c-0.1,0.1-0.4,0.7-0.4,2.3V264c0,1.6,0.3,2.2,0.4,2.3c0.1,0.2,0.6,0.6,2,1l1.1,0.3
	v4.4h-18.7v-4.4l1.1-0.3c1.5-0.4,1.9-0.8,2-0.9c0.1-0.1,0.4-0.7,0.4-2.3v-27h-48.4v27c0,1.7,0.3,2.2,0.4,2.4c0.1,0.1,0.5,0.5,2,0.9
	l1.1,0.3V272z M860.2,267.5l-1.3-0.2c-1.7-0.3-2-0.7-2-0.7c0-0.1,0-0.6,0.8-2.2l6.2-13.4h38.2l5.8,12.6c1,2.1,1.1,2.7,1.1,2.8
	c0,0.6-1.2,0.8-1.9,0.9l-1.3,0.2v4.6h20.8v-4.4l-1.1-0.3c-2.5-0.6-3.1-1.2-3.3-1.4c-0.2-0.3-1.1-1.5-3.6-7.1l-26.3-57.2
	c-0.8-1.6-0.8-2.1-0.9-2.1c0,0,0.2-0.4,1.7-0.9l1-0.3V194h-21.3v4.4l1.1,0.3c1.3,0.3,1.6,0.7,1.6,0.7h0c0,0.1-0.1,0.6-0.9,2.3
	L847.1,261c-1.5,3.3-2.4,4.6-2.8,5.1c-0.6,0.6-1.4,1-2.6,1.2l-1.2,0.2v4.5h19.7V267.5z M897.6,240.8h-29.1l14.6-32L897.6,240.8z
	 M946.5,202V264c0,1.7,0.3,2.2,0.4,2.4c0.1,0.1,0.5,0.5,2,0.9l1.1,0.3v4.4h-18.7v-4.4l1.1-0.3c1.5-0.4,1.9-0.8,2-0.9
	c0.1-0.1,0.4-0.7,0.4-2.4V202c0-1.7-0.3-2.2-0.4-2.4c-0.1-0.2-0.5-0.6-1.9-0.9l-1.2-0.3V194h18.7v4.4l-1.1,0.3
	c-1.5,0.4-1.9,0.8-2,0.9C946.9,199.8,946.5,200.3,946.5,202z M1026.9,194h17.9v4.4l-1.2,0.3c-1.4,0.3-1.8,0.7-1.9,0.9
	c-0.1,0.1-0.4,0.7-0.4,2.4V264c0,1.7,0.3,2.2,0.4,2.3c0.1,0.1,0.5,0.6,2,0.9l1.1,0.3v4.4h-20.3v-4.4l1.1-0.3
	c0.6-0.2,1.4-0.5,1.4-0.8c0,0-0.1-0.8-2-3L978,209v55c0,1.6,0.3,2.2,0.4,2.3c0.1,0.2,0.6,0.6,2,1l1.1,0.3v4.4h-17.9v-4.4l1.1-0.3
	c1.5-0.4,1.9-0.8,2-0.9c0.1-0.1,0.4-0.7,0.4-2.4V202c0-1.7-0.3-2.2-0.4-2.4c-0.1-0.2-0.5-0.6-1.9-0.9l-1.2-0.3V194h24.6v4.3l-1,0.3
	c-1,0.3-1.6,0.7-1.6,1.1c0,0,0.2,0.8,2.2,3.1l42.6,49.8V202c0-1.7-0.3-2.2-0.4-2.4c-0.1-0.2-0.5-0.6-1.9-0.9l-1.2-0.3V194z
	 M397.9,294h13.8v4.7l-1.5,0.4c-0.4,0.1-0.6,0.2-0.7,0.2c0,0.1-0.1,0.4-0.1,0.9v41c0,0.5,0.1,0.8,0.1,0.9c0.1,0.1,0.3,0.2,0.7,0.3
	l1.5,0.4v4.7h-15.4v-4.7l1.3-0.3c-0.2-0.2-0.4-0.5-0.7-0.9l-29.3-33.9v33.6c0,0.5,0.1,0.8,0.1,0.9c0.1,0.1,0.3,0.2,0.7,0.3l1.5,0.4
	v4.7h-13.8v-4.7l1.5-0.4c0.4-0.1,0.6-0.2,0.8-0.3c0-0.1,0.1-0.4,0.1-0.9v-41c0-0.5-0.1-0.8-0.1-0.9c-0.1-0.1-0.3-0.1-0.7-0.2
	l-1.5-0.4V294h18.2v4.6L373,299c0,0,0,0,0,0c0.2,0.3,0.5,0.6,0.9,1.2l26.3,30.8v-30.7c0-0.5-0.1-0.8-0.1-0.9
	c-0.1-0.1-0.3-0.1-0.7-0.2l-1.5-0.4V294z M462,336.5h4.7v13.4H462l-0.4-1.5c-0.1-0.4-0.2-0.6-0.3-0.7c-0.1,0-0.4-0.1-0.9-0.1h-41.8
	v-4.7l1.5-0.4c0.4-0.1,0.6-0.2,0.8-0.3c0-0.1,0.1-0.4,0.1-0.9v-41c0-0.5-0.1-0.8-0.1-0.9c-0.1-0.1-0.3-0.2-0.7-0.3l-1.5-0.4V294
	h41.3c0.5,0,0.8,0,0.9-0.1c0.1-0.1,0.2-0.3,0.3-0.7l0.4-1.5h4.7V305h-4.7l-0.4-1.5c-0.1-0.4-0.2-0.6-0.2-0.7c-0.1,0-0.4-0.1-0.9-0.1
	h-29.3v13h18.5c0.5,0,0.8-0.1,0.9-0.1c0.1-0.1,0.1-0.3,0.2-0.7l0.4-1.5h4.7v13.4h-4.7l-0.4-1.5c-0.1-0.4-0.2-0.6-0.2-0.7
	c-0.1,0-0.4-0.1-0.9-0.1h-18.5v14.4h29.8c0.5,0,0.8-0.1,0.9-0.1c0.1-0.1,0.1-0.3,0.2-0.7L462,336.5z M532.3,340.3
	c-0.4,1.1-0.5,1.7-0.6,2c0.1,0,0.3,0.1,0.5,0.2l1.5,0.4v4.7h-15.8v-4.8l1.6-0.4c0.2-0.1,0.4-0.1,0.5-0.1c-0.1-0.3-0.2-0.8-0.6-1.7
	l-11.1-31.2l-10.7,30.8c-0.4,1-0.5,1.6-0.6,2c0.1,0.1,0.3,0.1,0.6,0.2l1.5,0.4v4.7h-16v-4.8l1.6-0.3c0.2,0,0.3-0.1,0.4-0.1
	c-0.1-0.3-0.2-0.9-0.6-2l-13.3-36.5c-1.2-3.2-1.7-4-1.8-4.2c-0.2-0.2-0.6-0.4-1.3-0.5l-1.6-0.3V294h15.6v4.9l-1.8,0.2
	c-0.1,0-0.3,0-0.4,0.1c0.1,0.4,0.3,1.1,0.8,2.5l10.4,29.6l10.4-29.6c0.5-1.3,0.7-2.1,0.8-2.5c-0.1,0-0.2,0-0.3-0.1l-1.7-0.3V294
	h16.7v4.7l-1.5,0.4c-0.2,0.1-0.4,0.1-0.5,0.2c0.1,0.4,0.3,1.1,0.8,2.5l10.1,29.5l10-29.5c0.5-1.4,0.7-2.2,0.7-2.5
	c-0.1,0-0.2-0.1-0.4-0.1l-1.6-0.3V294h15v4.8l-1.6,0.3c-0.5,0.1-1.1,0.3-1.4,0.7c-0.1,0.2-0.7,1-1.7,4L532.3,340.3z M589.9,307.2
	c0.2-0.5,0.3-0.8,0.4-1.1c-0.2-0.2-0.7-0.5-1.4-0.8c-4.6-2.1-9.5-3.2-14.6-3.2c-4.1,0-7.8,0.8-10.8,2.3c-1.3,0.7-2.3,1.5-3.1,2.6
	c-0.7,1-1,1.9-1,3c0,0.8,0.2,1.6,0.7,2.3c0.5,0.8,1.2,1.3,2,1.7c1.1,0.5,2.5,0.9,4.1,1.1c1.7,0.2,4.6,0.4,8.5,0.5
	c5.6,0.2,9.7,0.4,12.2,0.8c2.6,0.4,4.9,1.1,6.6,2.1c4.8,2.7,7.2,6.8,7.2,12.2c0,5.1-2.1,9.3-6.4,12.6c-4.5,3.5-10.6,5.2-18.3,5.2
	c-4.3,0-8.2-0.5-11.5-1.3c-3.2-0.9-7.1-2.5-11.5-4.8c-0.5-0.2-0.8-0.4-1-0.5c-0.1,0.1-0.3,0.3-0.4,0.5l-1.1,1.3l-4.1-2.6l7.5-12.5
	l4.3,2.5l-0.8,1.7c-0.2,0.4-0.3,0.6-0.4,0.8c0.4,0.3,1.3,1,3.4,2.1c2.6,1.4,5.2,2.4,7.6,3c2.4,0.6,5.1,0.9,7.9,0.9
	c5.6,0,9.9-1.2,12.6-3.6c1.6-1.4,2.5-3,2.5-4.9c0-1.6-0.5-3.6-4.1-4.8c-1-0.4-2.1-0.6-3.1-0.7c-1.2-0.1-4.8-0.3-10.5-0.5
	c-4.2-0.2-7.6-0.5-10.1-1c-2.6-0.5-4.9-1.3-6.9-2.5c-2-1.1-3.7-2.8-4.8-4.8c-1.2-2-1.8-4.3-1.8-6.7c0-4.1,1.5-7.6,4.5-10.5
	c2.2-2.1,5.1-3.7,8.8-4.8c3.6-1.1,7.6-1.7,11.8-1.7c3.4,0,6.7,0.3,9.7,1c3,0.7,6.3,1.9,10,3.5c0.2,0.1,0.3,0.1,0.4,0.2
	c0.1-0.1,0.3-0.3,0.4-0.5l1-1.3l4.3,2.2l-7.2,12.9l-4.3-2.3L589.9,307.2z M676.4,300.5c-5.7-4.9-13.2-7.3-22.4-7.3h0
	c-5.3,0.1-10,0.9-13.9,2.4c-5.7,2.2-10.2,5.8-13.3,10.6c-2.9,4.4-4.3,9.4-4.3,14.7c0,3.6,0.7,7,2,10.2c1.6,3.9,4.1,7.3,7.3,10.1
	c5.7,4.9,13.2,7.3,22.3,7.3c5.2,0,9.9-0.8,14-2.4c5.6-2.2,10.1-5.7,13.3-10.6c2.9-4.4,4.4-9.3,4.4-14.3c0-3.7-0.7-7.3-2-10.5
	C682.1,306.6,679.6,303.2,676.4,300.5z M675.7,321c0,5.1-1.7,9.3-5.3,12.7c-3.9,3.8-9.4,5.7-16.4,5.7c-6.9,0-12.4-1.9-16.3-5.7
	c-3.6-3.5-5.3-7.7-5.3-13c0-5.3,1.7-9.5,5.3-13c3.9-3.8,9.4-5.7,16.2-5.7c3.6,0,6.8,0.5,9.6,1.5c2.4,0.8,4.7,2.2,6.9,4.2
	C674,311.1,675.7,315.5,675.7,321z M730.3,294h13.8v4.7l-1.5,0.4c-0.4,0.1-0.6,0.2-0.7,0.2c0,0.1-0.1,0.4-0.1,0.9v28.5
	c0,3.8-0.4,6.6-1.1,8.7c-1.5,3.8-4.2,6.6-8.2,8.4c-3.8,1.7-8.8,2.5-15.2,2.5c-9.9,0-16.5-1.9-20.3-6c-1.6-1.6-2.7-3.6-3.4-5.7
	c-0.6-2-0.9-4.6-0.9-8v-28.5c0-0.5-0.1-0.8-0.1-0.9c-0.1-0.1-0.3-0.1-0.7-0.2l-1.5-0.4V294h14.3v4.7l-1.5,0.4
	c-0.4,0.1-0.6,0.2-0.7,0.3c0,0.1-0.1,0.4-0.1,0.9v27.4c0,3.8,0.2,5.6,0.4,6.3c0.2,0.9,0.7,1.7,1.5,2.4c1.5,1.3,5,3,13.1,3
	c8.8,0,12.3-1.9,13.6-3.4c0.6-0.7,0.9-1.4,1.1-2.4c0.2-0.8,0.4-2.4,0.4-6v-27.4c0-0.5-0.1-0.8-0.1-0.9c-0.1-0.1-0.3-0.2-0.7-0.3
	l-1.5-0.4V294z M792.4,291.7h4.7V305h-4.7l-0.4-1.5c-0.1-0.4-0.2-0.6-0.2-0.7c-0.1,0-0.4-0.1-0.9-0.1h-14.8v38.5
	c0,0.5,0.1,0.8,0.1,0.9c0.1,0.1,0.3,0.2,0.7,0.3l1.5,0.4v4.7H764v-4.7l1.5-0.4c0.4-0.1,0.6-0.2,0.8-0.3c0-0.1,0.1-0.4,0.1-0.9v-38.5
	h-14.8c-0.5,0-0.8,0.1-0.9,0.1c-0.1,0.1-0.1,0.3-0.2,0.7l-0.4,1.5h-4.7v-13.4h4.7l0.4,1.5c0.1,0.4,0.2,0.6,0.2,0.7
	c0.1,0,0.4,0.1,0.9,0.1h39.2c0.5,0,0.8-0.1,0.9-0.1c0.1-0.1,0.1-0.3,0.2-0.7L792.4,291.7z M842.5,336.5h4.7v13.4h-4.7l-0.4-1.5
	c-0.1-0.4-0.2-0.6-0.2-0.7c-0.1,0-0.4-0.1-0.9-0.1h-41.7v-4.7l1.5-0.4c0.4-0.1,0.6-0.2,0.8-0.3c0-0.1,0.1-0.4,0.1-0.9v-41
	c0-0.5,0-0.8-0.1-0.9c-0.1-0.1-0.3-0.2-0.8-0.3l-1.5-0.4V294h14.3v4.7l-1.5,0.4c-0.4,0.1-0.6,0.2-0.8,0.3c0,0.1-0.1,0.4-0.1,0.9
	v38.5H841c0.5,0,0.8-0.1,0.9-0.1c0.1-0.1,0.1-0.3,0.2-0.7L842.5,336.5z M893.1,336.5h4.7v13.4h-4.7l-0.4-1.5
	c-0.1-0.4-0.2-0.6-0.3-0.7c-0.1,0-0.4-0.1-0.9-0.1h-41.8v-4.7l1.5-0.4c0.4-0.1,0.6-0.2,0.8-0.3c0-0.1,0.1-0.4,0.1-0.9v-41
	c0-0.5,0-0.8-0.1-0.9c-0.1-0.1-0.3-0.2-0.7-0.3l-1.5-0.4V294h41.3c0.5,0,0.8,0,0.9-0.1c0.1-0.1,0.2-0.3,0.3-0.7l0.4-1.5h4.7V305
	h-4.7l-0.4-1.5c-0.1-0.4-0.2-0.6-0.2-0.7c-0.1,0-0.4-0.1-0.9-0.1h-29.3v13h18.5c0.5,0,0.8-0.1,0.9-0.1c0.1-0.1,0.1-0.3,0.2-0.7
	l0.4-1.5h4.7v13.4h-4.7l-0.4-1.5c-0.1-0.4-0.2-0.6-0.2-0.7c-0.1,0-0.4-0.1-0.9-0.1h-18.5v14.4h29.8c0.5,0,0.8-0.1,0.9-0.1
	c0.1-0.1,0.1-0.3,0.2-0.7L893.1,336.5z M945.6,291.7h4.7V305h-4.7l-0.4-1.5c-0.1-0.4-0.2-0.6-0.2-0.7c-0.1,0-0.4-0.1-0.9-0.1h-14.8
	v38.5c0,0.5,0.1,0.8,0.1,0.9c0.1,0.1,0.3,0.2,0.7,0.3l1.5,0.4v4.7h-14.3v-4.7l1.5-0.4c0.4-0.1,0.6-0.2,0.8-0.3
	c0-0.1,0.1-0.4,0.1-0.9v-38.5h-14.8c-0.5,0-0.8,0.1-0.9,0.1c-0.1,0.1-0.1,0.3-0.2,0.7l-0.4,1.5h-4.8v-13.4h4.7l0.4,1.5
	c0.1,0.4,0.2,0.6,0.2,0.7c0.1,0,0.4,0.1,0.9,0.1h39.2c0.5,0,0.8-0.1,0.9-0.1c0.1-0.1,0.1-0.3,0.2-0.7L945.6,291.7z M82.4,233.7
	h122.4v8.7H82.4V233.7z M1186.6,233.7v8.7h-122.4v-8.7H1186.6z"/>
</svg>
