<?xml version="1.0" encoding="utf-8"?>
<!-- Generator: Adobe Illustrator 21.1.0, SVG Export Plug-In . SVG Version: 6.00 Build 0)  -->
<svg version="1.1" id="Layer_1" xmlns="http://www.w3.org/2000/svg" xmlns:xlink="http://www.w3.org/1999/xlink" x="0px" y="0px"
	 viewBox="0 0 344.9 86.6" style="enable-background:new 0 0 344.9 86.6;" xml:space="preserve">
<title>Forbes.ru</title>
<path d="M210.1,24.7c-5,0.1-10,1.3-14.4,3.7c0-12.9,0.2-24.1,0.5-28.4l-26.5,5.1v2.4l2.6,0.3c3.7,0.5,5.1,2.7,5.6,7.6
	c0.8,9.5,0.7,60.2,0,68.3c7.4,1.8,15,2.7,22.6,2.8c21,0,33.7-13,33.7-33.6C234.1,36.5,223.8,24.7,210.1,24.7z M200.9,82.4
	c-1.5,0-3-0.2-4.5-0.4c-0.4-5.7-0.7-29.2-0.6-49.7c2-0.7,4.1-1,6.2-1c8.7,0,13.6,10.1,13.6,22.7C215.5,70.2,209.5,82.4,200.9,82.4
	L200.9,82.4z M70.1,25.3L66,26.4c-3.7-12-9.4-18.8-20.1-18.8H32.1c-0.6,7.7-0.9,20.5-0.8,33.8l9.3-0.3c6.2-0.2,8.7-4.8,10.2-11.5
	h3.5v28.2h-3.5c-1.5-6.8-4.1-11.4-10.3-11.6l-9.2-0.3c0.1,10.1,0.4,18.7,0.8,23.8c0.6,7.5,2.7,10.8,8,11.6l4.7,0.5v3.4H0v-3.4
	l3.7-0.5c5.3-0.8,7.4-4.1,8-11.6c1-12.4,1.2-38.1,0-52.5C11.1,9.8,9,6.5,3.7,5.7L0,5.2V1.9h69.7L70.1,25.3z M92.4,24
	c19.8,0,29.6,13.4,29.6,31.2s-11.1,31.4-30.9,31.4S61.4,73.2,61.4,55.5S72.5,24,92.4,24z M91.4,27.8c-8.8,0-11.2,11.8-11.2,27.5
	s3.9,27.5,12,27.5s11.2-11.8,11.2-27.5s-4-27.4-12.1-27.4L91.4,27.8z M239,55.9c0-16.4,10.3-31.8,30.8-31.8
	c16.6,0,24.5,12.3,24.6,28.4h-37.1c-0.4,14.6,7,25.4,21.2,25.4c6.2,0,9.6-1.5,13.4-4.4l1.7,2.1c-4.1,5.7-12.7,11.1-24.1,11.1
	C251.6,86.6,239,74,239,55.9z M257.5,48.4l18.6-0.4c0.1-8.2-1.2-20-7.9-20s-10.6,11.1-10.8,20.3L257.5,48.4z M342,42.5l-3,0.8
	c-3.2-10.5-8.1-14.9-15.3-14.9c-4.8,0-8.2,3.6-8.2,8.8s3.9,7.9,15.1,12.2S345,58,345,66.4c0,12.5-9.6,20.2-25.4,20.2
	c-7.1,0-14.2-1.3-20.9-3.7l-0.5-17.3l3-0.8c4.3,12.1,10,16.5,17.5,16.5s9.9-4.5,9.9-9.3s-2.7-7.5-12.8-11.1s-16.2-7.5-16.2-18
	s9-18.9,23.9-18.9c6.9,0,13.5,1.2,17.9,3.2L342,42.5z M167.2,42c-8-5.4-16.7-3-18.4-0.1c-0.6,10.7-0.5,21.3,0.2,32
	c0.4,4.9,1.9,7.1,5.6,7.6l4.8,0.3v3.4h-36.9v-3.4l2.6-0.3c3.7-0.5,5.1-2.7,5.6-7.6c0.8-11.5,0.8-23,0-34.5c-0.4-4.9-1.9-7.1-5.6-7.6
	l-2.6-0.3v-2.4L149,24l-0.3,13.8c6.2-14.2,18.4-16.1,25-12.1L167.2,42z"/>
</svg>
