<?xml version="1.0" encoding="utf-8"?>
<!-- Generator: Adobe Illustrator 21.1.0, SVG Export Plug-In . SVG Version: 6.00 Build 0)  -->
<svg version="1.1" id="Layer_1" xmlns="http://www.w3.org/2000/svg" xmlns:xlink="http://www.w3.org/1999/xlink" x="0px" y="0px"
	 viewBox="0 0 720 90" style="enable-background:new 0 0 720 90;" xml:space="preserve">
<style type="text/css">
	.st0{fill:#0DBE98;}
</style>
<path class="st0" d="M0,4.7h43.5L29.3,85.4L0,85.4V4.7z M690.7,4.7l-14.1,80.7h43.5V4.7H690.7z"/>
<path d="M107.2,4.7h26.3l-14.1,80.7H93.1l5.3-30.2H75.6l-5.3,30.2H44L58.1,4.7h26.3l-5.2,28.9H102L107.2,4.7z M189.3,46.7
	c-2.4,13.2-4.1,20.1-13.9,20.1c-6.4,0-9.5-3.4-9.5-10.4c0-2.7,0.4-6,1.2-10.1l7.6-41.8h-26.3v0.1l-8,44.9c-0.7,3.5-1,6.9-1,10.1
	c0,23.8,20.8,27.4,33.3,27.4c26.2,0,37.5-8.7,41.6-32.2l8.8-50.3h-26.3L189.3,46.7z M440.1,29.6c0,22.6-12.7,35-35.6,35h-12.4
	l-3.7,20.8h-26.3l14.1-80.8h33.6C429.1,4.6,440.1,13.7,440.1,29.6z M415,33.9c0-5.3-3.1-8.2-8.9-8.2H399l-3.5,19h7.6
	C410.5,44.7,415,40.6,415,33.9z M527.6,37.5c0,31.1-17.1,49.6-45.7,49.6c-22.8,0-36.4-13-36.4-34.6c0-31.1,17.1-49.6,45.7-49.6
	C514.1,2.9,527.7,15.8,527.6,37.5z M500.5,37c0-8.2-4-13.1-10.8-13.1c-10.7,0-14.1,9.7-16.1,20.3c-0.6,3.1-0.9,5.8-0.9,8.9
	c0,8.2,4,13.1,10.8,13.1c10.7,0,14.1-9.8,16.1-20.3C500.2,42.8,500.5,40.1,500.5,37z M612.1,4.7l-3.8,21.6h21l-10.2,59.1h26.3
	l10.4-59.1h19.8l3.8-21.6H612.1z M570.5,21.2c3.7,0,6.8,2.1,8,5.2l23.2-6.3C599,8.7,589.2,2.9,572.3,2.9
	c-31.8,0-34.3,21.3-34.3,27.8c0,13.2,7,21.3,22.2,25.5c4,1.1,8.6,2.3,8.6,6.7c0,3.5-2.6,5.7-7.1,5.7c-4.1,0-8.5-2.4-10-6.6
	l-22.9,6.2c2.5,12,13.8,18.8,31.5,18.8c13.5,0,36.1-3.6,36.1-28c0.1-12.2-6.8-20.2-20.9-24.5c-8.3-2.6-11.7-3.7-11.7-7.6
	C563.8,24.3,565.5,21.2,570.5,21.2z M291.5,26.3l3.8-21.7h-57.2L224,85.4h26.3l4.2-23.8h22.1l3.6-20.3h-22.1l2.5-15H291.5z
	 M360.5,26.3l3.8-21.7h-57.2L293,85.4h26.3l4.1-23.8h22.2l3.6-20.3h-22.1l2.5-15H360.5z"/>
</svg>
