<?xml version="1.0" encoding="utf-8"?>
<!-- Generator: Adobe Illustrator 21.1.0, SVG Export Plug-In . SVG Version: 6.00 Build 0)  -->
<svg version="1.1" id="Layer_1" xmlns="http://www.w3.org/2000/svg" xmlns:xlink="http://www.w3.org/1999/xlink" x="0px" y="0px"
	 viewBox="0 0 371.4 53.1" style="enable-background:new 0 0 371.4 53.1;" xml:space="preserve">
<style type="text/css">
	.st0{fill:#343131;}
	.st1{fill:#00B742;}
</style>
<g>
	<g>
		<path class="st0" d="M89.9,22.3l-0.6,3.1h-0.1c-0.8-1.8-3.1-4.2-8-4.2c-8,0-16.1,6.2-17.9,15.9c-1.6,8.5,2.6,16,12,16
			c3.5,0,7.5-1.4,9.5-4.3h0.1L84.3,52h8.8l5.5-29.8L89.9,22.3L89.9,22.3z M87.1,37.1c-0.6,2.9-3.3,7.7-8.9,7.7c-5.4,0-6.5-4.8-6-7.5
			c0.6-3.4,3.7-7.7,8.8-7.7C86,29.6,87.7,33.6,87.1,37.1z"/>
		<path class="st0" d="M103.7,22.3h8.3l-0.6,3.1h0.1c1.1-1.4,3.1-4.2,8.3-4.2l-1.6,9c-4.2,0.1-7.3,0.9-8,5.5l-3.1,16.4h-9
			L103.7,22.3z"/>
		<polygon class="st0" points="125.8,10.6 134.8,10.6 130.6,33.1 130.8,33.1 141.1,22.3 151.6,22.3 137.9,35.4 145.8,52.1 
			135.7,52.1 129.9,37.7 129.8,37.7 127.1,52.1 118.2,52.1 		"/>
		<path class="st0" d="M165.9,21.2c-9,0-17.1,7.8-18.6,16.1c-1.6,8.8,4.3,15.8,12.9,15.8c3.1,0,6.2-0.9,9-2.7
			c2.8-1.7,5.4-4.3,7.5-7.6h-9.1c-1.5,1.6-3.2,2.8-6,2.8c-3.5,0-6-2.1-5.9-5.6H178c0.3-0.7,0.4-1.2,0.6-2.3
			C180.3,28.5,175,21.2,165.9,21.2z M156.9,33.9c0.7-1.8,3.1-5.1,7.8-5.1c4.6,0,5.8,3.3,5.8,5.1H156.9z"/>
		<polygon class="st0" points="51.4,10.6 35.6,34.2 35.5,34.2 35.5,10.6 27.9,10.6 0,52.1 10.8,52.1 26.5,28.5 26.6,28.5 26.6,52.1 
			34.3,52.1 49.9,28.5 50.1,28.5 50.1,52.1 59,52.1 59,10.6 		"/>
		<path class="st0" d="M201.3,22.3h-5.6l1.6-8.8h-7.8l-0.6,3.4c-0.7,3.9-3.1,5.1-6.4,5.4h-0.1L181,29h4.4l-4.3,23h8.9l4.3-23h5.7
			L201.3,22.3z"/>
	</g>
	<g>
		<g>
			<path class="st1" d="M339.3,40.8c-2.9,6.8-9.9,12.3-17.9,12.3c-9,0-14.7-7.1-13-16c1.6-8.8,9.7-15.9,18.7-15.9
				c7.9,0,13.3,5.3,13.4,12.6h-9c-0.6-2.1-1.9-4.2-5.7-4.2c-4.2-0.2-7.7,3.3-8.5,7.5c-0.8,4.3,1.4,7.6,5.7,7.6c3.7,0,5.9-2.1,7.2-4
				h9.1V40.8z M265.3,0L248,10.6h4.9l-15.7,23.6H237V10.6h-7.7l-15.7,23.6h-0.1V10.6h-9v41.5h7.8L228,28.5h0.1v23.6h7.7l27.8-41.5
				h4.4L265.3,0z M282.3,52.1h-8.8l0.6-3.2H274c-2.1,2.9-6,4.3-9.5,4.3c-9.5,0-13.6-7.5-12-16c1.8-9.7,10-15.9,17.9-15.9
				c4.9,0,7.2,2.4,8,4.2h0.1l0.6-3.1h8.8L282.3,52.1z M267.3,44.8c5.5,0,8.3-4.8,8.9-7.7c0.6-3.6-1.1-7.5-6.1-7.5
				c-5.1,0-8.2,4.3-8.8,7.7C260.7,40.1,261.9,44.8,267.3,44.8L267.3,44.8z M310.2,22.3h-5.6l1.6-8.8h-7.8l-0.6,3.4
				c-0.7,3.9-3.1,5.1-6.4,5.4h-0.1L290,29h4.4l-4.3,23h8.9l4.3-23h5.7L310.2,22.3z M347.7,10.6h8.9l-2.7,14.8h0.1
				c1.9-2.8,4.5-4.2,8.4-4.2c2.8,0,6,1.1,7.5,3.3c1.9,2.9,1.7,5.5,0.7,10.9L367.5,52h-8.9l3-16.2c0.3-1.4,1.1-6.3-3.6-6.3
				c-5,0-5.8,4.5-6.1,6L348.8,52H340L347.7,10.6z"/>
		</g>
	</g>
</g>
</svg>
