<?xml version="1.0" encoding="utf-8"?>
<!-- Generator: Adobe Illustrator 21.1.0, SVG Export Plug-In . SVG Version: 6.00 Build 0)  -->
<svg version="1.1" id="Layer_1" xmlns="http://www.w3.org/2000/svg" xmlns:xlink="http://www.w3.org/1999/xlink" x="0px" y="0px"
	 viewBox="0 0 60 16" style="enable-background:new 0 0 60 16;" xml:space="preserve">
<style type="text/css">
	.st0{fill:#92CFAE;}
	.st1{fill:#2A8288;}
</style>
<title>Slice 1</title>
<desc>Created with Sketch.</desc>
<g id="Page-1">
	<g id="Group-3">
		<g id="Group" transform="translate(0.000000, 1.000000)">
			<polygon id="Shape" class="st0" points="13.8,0 0,0 0,13.8 			"/>
			<polygon id="Shape_1_" class="st1" points="1.2,15 15,15 15,1.2 			"/>
		</g>
		<path id="РБК" d="M20,16h3.4v-5.5h1.9c3.4,0,5.6-1.5,5.6-4.7l0,0c0-3.2-2.1-4.8-5.7-4.8H20V16z M23.4,8.2V3.6h1.7
			c1.6,0,2.5,0.6,2.5,2.2v0.1c0,1.5-0.9,2.3-2.5,2.3H23.4z M44.3,11.4L44.3,11.4c0-3.1-2.1-4.6-5.5-4.6h-2.2V3.6H43V1h-9.8v15h5.5
			C42.4,16,44.3,14.3,44.3,11.4z M36.5,13.4V9.2h1.9c1.7,0,2.6,0.7,2.6,2.1v0.1c0,1.4-0.8,2.1-2.5,2.1h-2V13.4z M46.6,16H50V9.3
			l5.2,6.7h4L53,8.1L58.8,1h-3.6L50,7.5V1h-3.4V16z"/>
	</g>
</g>
</svg>
