<?xml version="1.0" encoding="utf-8"?>
<!-- Generator: Adobe Illustrator 21.1.0, SVG Export Plug-In . SVG Version: 6.00 Build 0)  -->
<svg version="1.1" id="Layer_1" xmlns="http://www.w3.org/2000/svg" xmlns:xlink="http://www.w3.org/1999/xlink" x="0px" y="0px"
	 viewBox="0 0 901.1 901.1" style="enable-background:new 0 0 901.1 901.1;" xml:space="preserve">
<style type="text/css">
	.st0{fill:#76BD1D;}
</style>
<g>
	<rect id="rect3007" class="st0" width="901.1" height="901.1"/>
	<g id="g2990" transform="translate(1.00001,67.515998)">
		<g id="rect2400_1_">
			<polygon id="polygon5" points="899.2,249.6 899.2,282.7 778,282.7 778,516.4 625.1,516.4 625.1,282.6 504,282.6 504,249.6 			"/>
		</g>
		<path id="path7" d="M463.6,401L463.6,401c31.5-9.8,54.4-39.2,54.4-73.9c0-42.7-34.6-77.4-77.4-77.4l0.3,0H116.1l0,266.8h152.9
			V402.7h44.5l79.7,113.8l159.6,0L463.6,401L463.6,401z M318.8,372.3L318.8,372.3l-49.7,0V280h49.7v0c25.5,0,46.1,20.7,46.1,46.1
			C364.9,351.6,344.3,372.3,318.8,372.3z"/>
	</g>
</g>
</svg>
