<?xml version="1.0" encoding="utf-8"?>
<!-- Generator: Adobe Illustrator 21.1.0, SVG Export Plug-In . SVG Version: 6.00 Build 0)  -->
<svg version="1.1" id="Layer_1" xmlns="http://www.w3.org/2000/svg" xmlns:xlink="http://www.w3.org/1999/xlink" x="0px" y="0px"
	 viewBox="0 0 365 83.4" style="enable-background:new 0 0 365 83.4;" xml:space="preserve">
<style type="text/css">
	.st0{fill:url(#XMLID_3_);}
	.st1{fill:url(#XMLID_4_);}
	.st2{fill:#FFFFFF;}
</style>
<g id="XMLID_1_">
	
		<linearGradient id="XMLID_3_" gradientUnits="userSpaceOnUse" x1="-67.939" y1="-206.7672" x2="-66.073" y2="-206.7672" gradientTransform="matrix(0 42.7103 42.7103 0 9153.6914 2903.6816)">
		<stop  offset="0" style="stop-color:#E41E26"/>
		<stop  offset="1" style="stop-color:#BC2025"/>
	</linearGradient>
	<rect id="XMLID_11_" x="280.2" class="st0" width="84.8" height="83.4"/>
	
		<linearGradient id="XMLID_4_" gradientUnits="userSpaceOnUse" x1="-67.9312" y1="-208.5187" x2="-66.0653" y2="-208.5187" gradientTransform="matrix(0 94.0488 94.0488 0 19747.6992 6343.9609)">
		<stop  offset="0" style="stop-color:#5481C1"/>
		<stop  offset="0.1863" style="stop-color:#4C75B8"/>
		<stop  offset="0.5473" style="stop-color:#375CA5"/>
		<stop  offset="1" style="stop-color:#1E398D"/>
	</linearGradient>
	<rect id="XMLID_12_" class="st1" width="273.5" height="83.3"/>
	<path id="XMLID_15_" class="st2" d="M49.2,24.5c-3.3-2.1-7.2-2.2-10.7-2.2H24.2V61h9V46.2h6.5c3.4,0,8.3,0.1,12.1-4.7
		c1.9-2.4,2.5-4.9,2.5-7.5C54.4,28.7,51.5,25.9,49.2,24.5 M43.7,38c-1.5,1.4-3.4,1.4-4.8,1.4h-5.7V29.1h5.9c1.5,0,3.4,0.2,4.7,1.4
		c1,0.9,1.5,2.3,1.5,3.7C45.3,35.6,44.7,37.1,43.7,38"/>
	<path id="XMLID_18_" class="st2" d="M76.8,21.7c-3.2,0-7.5,0.6-11.2,4c-3.4,3.1-6.2,8.5-6.2,16c0,6.5,2.1,12.1,5.8,15.6
		c2.2,2.1,6,4.3,11.6,4.3c5.6,0,9.4-2.3,11.6-4.3c3.7-3.4,5.8-9,5.8-15.6c0-7.5-2.8-12.9-6.2-16C84.3,22.3,80,21.7,76.8,21.7
		 M82.5,51.4c-1.1,1.8-2.9,3.4-5.7,3.4c-2.8,0-4.6-1.7-5.7-3.4c-0.8-1.3-2-4.1-2-9.8c0-5.8,1.3-8.5,2-9.7c1.6-2.6,3.6-3.4,5.7-3.4
		c2.1,0,4.1,0.8,5.7,3.4c0.7,1.2,2,3.9,2,9.7C84.5,47.3,83.3,50.1,82.5,51.4"/>
	<path id="XMLID_19_" class="st2" d="M117.5,28.5c2.6,0,4.3,1,5.6,3.4c0.8,1.4,1.2,3.1,1.3,4.6l8.5-0.7c-0.4-5.9-3.7-9.3-4.4-10
		c-3.5-3.5-8-4.1-11-4.1c-2.9,0-7.7,0.4-11.9,4.5c-3.3,3.3-5.6,8.7-5.6,15.4c0,3.9,0.9,8.5,2.8,11.9c1.9,3.3,6.3,8.1,14.6,8.1
		c5.3,0,8.7-2.1,10.9-4.2c2.1-2,4.1-5.4,4.6-9.7l-8.3-0.8c-0.2,1.5-0.7,3.7-1.8,5.2c-1.5,2.1-3.5,2.8-5.4,2.8
		c-1.9,0-4.6-0.8-6.3-4.5c-1-2.1-1.4-4.9-1.4-8.8c0-3.7,0.3-6.3,1.4-8.5C112.5,29.9,114.5,28.5,117.5,28.5"/>
	<path id="XMLID_20_" class="st2" d="M155.8,28.5c2.7,0,4.3,1,5.6,3.4c0.8,1.4,1.2,3.1,1.3,4.6l8.5-0.7c-0.4-5.9-3.7-9.3-4.4-10
		c-3.5-3.5-8-4.1-11-4.1c-2.9,0-7.7,0.4-11.9,4.5c-3.3,3.3-5.6,8.7-5.6,15.4c0,3.9,0.9,8.5,2.8,11.9c1.9,3.3,6.3,8.1,14.6,8.1
		c5.3,0,8.7-2.1,10.9-4.2c2.1-2,4.1-5.4,4.6-9.7l-8.3-0.8c-0.2,1.5-0.7,3.7-1.8,5.2c-1.5,2.1-3.5,2.8-5.4,2.8
		c-1.9,0-4.6-0.8-6.3-4.5c-1-2.1-1.3-4.9-1.3-8.8c0-3.7,0.3-6.3,1.3-8.5C150.9,29.9,152.9,28.5,155.8,28.5"/>
	<path id="XMLID_21_" class="st2" d="M200.6,25.1l-11.7,18.6c-0.3,0.6-1.1,2-1.5,3.5c0.1-0.5,0.3-2.1,0.3-4.8V22.3h-9V61h9v-3.1
		l11.7-18.6c0.5-0.7,1.2-2.4,1.5-3.5c-0.1,0.7-0.3,2.3-0.3,5V61h9V22.3h-9V25.1L200.6,25.1z"/>
	<path id="XMLID_24_" class="st2" d="M232.6,22.3c-3.2,0-6.8,0.3-9.7,2.5c-2.1,1.6-4.4,4.4-4.4,9.3c0,4,1.4,6.4,2.8,7.7
		c1.5,1.4,3.7,2.4,5.5,2.8L217.4,61h9.8l8-15.5h5.3V61h9V22.3H232.6z M240.5,38.8h-7c-1.2,0-3.1-0.1-4.5-1.2
		c-1.4-1.1-1.5-2.7-1.5-3.6c0-2.1,0.8-3.2,1.7-3.8c1.1-0.7,3-1,4.4-1h6.8V38.8L240.5,38.8z"/>
	<polygon id="XMLID_25_" class="st2" points="320,51.2 310,51.2 298.8,60.9 320,60.9 	"/>
	<path id="XMLID_26_" class="st2" d="M292.1,26c-1.5,2.1-2.5,4.8-2.9,7.6h10.5c0.2-0.7,0.4-1.4,0.7-2c0.9-1.7,2.1-2.4,3.2-2.6v-9.1
		C297.4,20.3,294,23.3,292.1,26"/>
	<path id="XMLID_27_" class="st2" d="M315.8,22.9c-1.9-1.5-5.2-3.2-10.4-3.2l-0.4,0v9.2c1.3,0.1,2.1,0.7,2.5,1.3
		c0.6,0.8,0.9,1.9,0.9,3l0,0.4l0,0c0,0,0.3,3-3.8,6.8c-4.1,3.7-15.5,12.5-15.5,12.5v8.1h7.6L312.7,47c0,0,6.9-5.7,7.5-12.7l0-0.1
		c0-0.4,0.1-0.9,0.1-1.3C320.3,29.5,319.1,25.6,315.8,22.9"/>
	<rect id="XMLID_28_" x="322.5" y="42.9" class="st2" width="19.4" height="9.2"/>
	<polygon id="XMLID_29_" class="st2" points="353.8,22 343.4,33.7 343.4,61.5 353.8,61.5 	"/>
	<polygon id="XMLID_30_" class="st2" points="334.6,41.5 354,19.6 341.9,19.6 322.5,41.5 	"/>
</g>
</svg>
