<?xml version="1.0" encoding="utf-8"?>
<!-- Generator: Adobe Illustrator 21.1.0, SVG Export Plug-In . SVG Version: 6.00 Build 0)  -->
<svg version="1.1" id="Layer_1" xmlns="http://www.w3.org/2000/svg" xmlns:xlink="http://www.w3.org/1999/xlink" x="0px" y="0px"
	 viewBox="0 0 66 16" style="enable-background:new 0 0 66 16;" xml:space="preserve">
<style type="text/css">
	.st0{fill:#FF5622;}
</style>
<path class="st0" d="M34,16h-6v-5.2c0-0.7-0.3-1.3-0.7-1.8L25,6.7C24.5,6.3,23.9,6,23.2,6H22v10h-6V0h8.7c1.3,0,2.6,0.5,3.5,1.5
	l4.3,4.3C33.5,6.7,34,8,34,9.3V16z M60,0v5.2c0,0.7-0.3,1.3-0.7,1.8L57,9.3c-0.5,0.5-1.1,0.7-1.8,0.7h-2.5C53.5,9.1,54,7.9,54,6.7V0
	h-6v5.2c0,0.7-0.3,1.3-0.7,1.8L45,9.3c-0.5,0.5-1.1,0.7-1.8,0.7H42V0h-6v16h8.7c1.3,0,2.6-0.5,3.5-1.5l2.8-2.8V16h5.7
	c1.3,0,2.6-0.5,3.5-1.5l4.3-4.3C65.5,9.3,66,8,66,6.7V0H60z M14,0H0v6h4v10h6V6h4"/>
</svg>
