<?xml version="1.0" encoding="utf-8"?>
<!-- Generator: Adobe Illustrator 21.1.0, SVG Export Plug-In . SVG Version: 6.00 Build 0)  -->
<svg version="1.1" id="Layer_1" xmlns="http://www.w3.org/2000/svg" xmlns:xlink="http://www.w3.org/1999/xlink" x="0px" y="0px"
	 viewBox="0 0 496 496" style="enable-background:new 0 0 496 496;" xml:space="preserve">
<style type="text/css">
	.st0{fill:#474C53;}
</style>
<g>
	<path class="st0" d="M464,280h-64v-8c0-17.6-14.4-32-32-32v-72.8c18.2-3.7,32-19.9,32-39.2L383,0H17L0.1,126.9L0,128
		c0,19.3,13.8,35.5,32,39.2V448h164.4c5.6,9.5,15.8,16,27.6,16h64v32h208V312C496,294.4,481.6,280,464,280z M336,16h33l15,112.5
		c-0.3,13-10.9,23.5-24,23.5c-13.2,0-24-10.8-24-24V16z M272,16h48v112c0,13.2-10.8,24-24,24s-24-10.8-24-24V16z M208,16h48v112
		c0,13.2-10.8,24-24,24s-24-10.8-24-24V16z M144,16h48v112c0,13.2-10.8,24-24,24s-24-10.8-24-24V16z M80,16h48v112
		c0,13.2-10.8,24-24,24s-24-10.8-24-24V16z M16,128.5L31,16h33v112c0,13.2-10.8,24-24,24C26.9,152,16.3,141.5,16,128.5z M192,432H48
		V167.1c9.7-2,18.2-7.5,24-15.2c7.3,9.7,18.9,16,32,16s24.7-6.3,32-16c7.3,9.7,18.9,16,32,16s24.7-6.3,32-16c7.3,9.7,18.9,16,32,16
		s24.7-6.3,32-16c7.3,9.7,18.9,16,32,16s24.7-6.3,32-16c5.8,7.7,14.3,13.2,24,15.2V240h-48v-48H96v192c0,17.6,14.4,32,32,32h64V432z
		 M192,400h-36.4c2.8-4.7,4.4-10.1,4.4-16V272c0-8.8,7.2-16,16-16s16,7.2,16,16V400z M176,240c-17.6,0-32,14.4-32,32v112
		c0,8.8-7.2,16-16,16s-16-7.2-16-16V208h176v32H176z M240,312v120c0,8.8-7.2,16-16,16s-16-7.2-16-16V272c0-5.9-1.7-11.3-4.4-16H368
		c8.8,0,16,7.2,16,16v8H272C254.4,280,240,294.4,240,312z M288,448h-36.4c2.8-4.7,4.4-10.1,4.4-16V312c0-8.8,7.2-16,16-16
		s16,7.2,16,16V448z M480,480H304V312c0-5.8-1.6-11.3-4.3-16H464c8.8,0,16,7.2,16,16V480z"/>
	<path class="st0" d="M320,400h144v-88H320V400z M336,328h112v56H336V328z"/>
	<path class="st0" d="M320,416h144v16H320V416z"/>
	<path class="st0" d="M320,448h80v16h-80V448z"/>
	<g transform="translate(448, 448)">
		<path id="path-1" class="st0" d="M448,448h16v16h-16V448z"/>
	</g>
	<g transform="translate(416, 448)">
		<path id="path-1_1_" class="st0" d="M416,448h16v16h-16V448z"/>
	</g>
</g>
</svg>
