<?xml version="1.0" encoding="utf-8"?>
<!-- Generator: Adobe Illustrator 21.1.0, SVG Export Plug-In . SVG Version: 6.00 Build 0)  -->
<svg version="1.1" id="Layer_1" xmlns="http://www.w3.org/2000/svg" xmlns:xlink="http://www.w3.org/1999/xlink" x="0px" y="0px"
	 viewBox="0 0 443.7 110.9" style="enable-background:new 0 0 443.7 110.9;" xml:space="preserve">
<style type="text/css">
	.st0{fill:#3434BB;}
</style>
<path class="st0" d="M443.7,51.2c0,5.1-3.4,8.5-8.5,8.5s-8.5-3.4-8.5-8.5s3.4-8.5,8.5-8.5S443.7,46.1,443.7,51.2z M170.7,93.9
	c-5.1,0-8.5,3.4-8.5,8.5c0,5.1,3.4,8.5,8.5,8.5s8.5-3.4,8.5-8.5C179.2,97.3,175.8,93.9,170.7,93.9z M102.4,51.2
	c0,5.1-3.4,8.5-8.5,8.5H80.2L59.7,80.2v13.7c0,5.1-3.4,8.5-8.5,8.5c-5.1,0-8.5-3.4-8.5-8.5V80.2L22.2,59.7H8.5
	c-5.1,0-8.5-3.4-8.5-8.5s3.4-8.5,8.5-8.5h13.7l20.5-20.5V8.5c0-5.1,3.4-8.5,8.5-8.5s8.5,3.4,8.5,8.5v13.7l20.5,20.5h13.7
	C99,42.7,102.4,46.1,102.4,51.2z M64.9,51.2L51.2,37.5L37.5,51.2l13.7,13.7L64.9,51.2z"/>
</svg>
