<?xml version="1.0" encoding="utf-8"?>
<!-- Generator: Adobe Illustrator 21.1.0, SVG Export Plug-In . SVG Version: 6.00 Build 0)  -->
<svg version="1.1" id="Capa_1" xmlns="http://www.w3.org/2000/svg" xmlns:xlink="http://www.w3.org/1999/xlink" x="0px" y="0px"
	 viewBox="0 0 60 60" style="enable-background:new 0 0 60 60;" xml:space="preserve">
<style type="text/css">
	.st0{fill:#3434BB;}
</style>
<path class="st0" d="M57,1H3C1.4,1,0,2.4,0,4v14c0,0.6,0.4,1,1,1h2v34v5c0,0.6,0.4,1,1,1h52c0.6,0,1-0.4,1-1v-5V19h2
	c0.6,0,1-0.4,1-1V4C60,2.4,58.6,1,57,1z M55,57H5v-3h50V57z M55,52H5V19h50V52z M58,17h-2H4H2V4c0-0.6,0.5-1,1-1H57c0.6,0,1,0.5,1,1
	V17z M16,41h28c0.6,0,1-0.4,1-1V26c0-0.6-0.4-1-1-1H16c-0.6,0-1,0.4-1,1v14C15,40.6,15.4,41,16,41z M17,27h26v12H17V27z M19,31
	c0-0.6,0.4-1,1-1h6c0.6,0,1,0.4,1,1s-0.4,1-1,1h-6C19.4,32,19,31.6,19,31z M29.3,31.7C29.1,31.5,29,31.3,29,31
	c0-0.3,0.1-0.5,0.3-0.7c0.4-0.4,1-0.4,1.4,0c0.2,0.2,0.3,0.4,0.3,0.7c0,0.3-0.1,0.5-0.3,0.7C30.5,31.9,30.3,32,30,32
	C29.7,32,29.5,31.9,29.3,31.7z M41,35c0,0.6-0.4,1-1,1H24c-0.6,0-1-0.4-1-1s0.4-1,1-1h16C40.6,34,41,34.4,41,35z M20.7,34.3
	c0.2,0.2,0.3,0.4,0.3,0.7c0,0.3-0.1,0.5-0.3,0.7C20.5,35.9,20.3,36,20,36c-0.3,0-0.5-0.1-0.7-0.3C19.1,35.5,19,35.3,19,35
	c0-0.3,0.1-0.5,0.3-0.7C19.7,33.9,20.3,33.9,20.7,34.3z M39,5H21c-2.8,0-5,2.2-5,5s2.2,5,5,5h18c2.8,0,5-2.2,5-5S41.8,5,39,5z
	 M39,13H21c-1.7,0-3-1.3-3-3s1.3-3,3-3h18c1.7,0,3,1.3,3,3S40.7,13,39,13z"/>
</svg>
