<?xml version="1.0" encoding="utf-8"?>
<!-- Generator: Adobe Illustrator 21.1.0, SVG Export Plug-In . SVG Version: 6.00 Build 0)  -->
<svg version="1.1" id="Layer_1" xmlns="http://www.w3.org/2000/svg" xmlns:xlink="http://www.w3.org/1999/xlink" x="0px" y="0px"
	 viewBox="0 0 496 496" style="enable-background:new 0 0 496 496;" xml:space="preserve">
<style type="text/css">
	.st0{fill:#474C53;}
</style>
<path class="st0" d="M184,464h-80v-16h80V464z M496,360c0,22.1-17.9,40-40,40H288v56c0,22.1-17.9,40-40,40H40c-22.1,0-40-17.9-40-40
	V40C0,17.9,17.9,0,40,0h208c22.1,0,40,17.9,40,40v32h-16v-8H16v352h256v-16H72c-22.1,0-40-17.9-40-40c0-22.1,17.9-40,40-40h32v-65.5
	c-2.5,0.9-5.2,1.5-8,1.5c-13.2,0-24-10.8-24-24v-48c0-22.1,17.9-40,40-40h32h32c22.1,0,40,17.9,40,40v48c0,13.2-10.8,24-24,24
	c-2.8,0-5.5-0.6-8-1.5V320h80v-65.5c-2.5,0.9-5.2,1.5-8,1.5c-13.2,0-24-10.8-24-24v-48c0-22.1,17.9-40,40-40h32h32
	c22.1,0,40,17.9,40,40v48c0,13.2-10.8,24-24,24c-2.8,0-5.5-0.6-8-1.5V320h112C478.1,320,496,337.9,496,360z M16,48h256v-8
	c0-13.2-10.8-24-24-24H40c-13.2,0-24,10.8-24,24V48z M272,432H16v24c0,13.2,10.8,24,24,24h208c13.2,0,24-10.8,24-24V432z M264,232
	v-48h16v32h48v-32h16v48c0,4.4,3.6,8,8,8c4.4,0,8-3.6,8-8v-48c0-13.2-10.8-24-24-24h-64c-13.2,0-24,10.8-24,24v48c0,4.4,3.6,8,8,8
	S264,236.4,264,232z M312,248v72h16v-88h-48v88h16v-72H312z M104,232v-48h16v32h48v-32h16v48c0,4.4,3.6,8,8,8s8-3.6,8-8v-48
	c0-13.2-10.8-24-24-24h-64c-13.2,0-24,10.8-24,24v48c0,4.4,3.6,8,8,8S104,236.4,104,232z M152,248v72h16v-88h-48v88h16v-72H152z
	 M96,360c0-13.2-10.8-24-24-24s-24,10.8-24,24s10.8,24,24,24S96,373.2,96,360z M416,360c0-9,3.1-17.3,8.2-24H344h-80h-80h-80h-0.2
	c5.1,6.7,8.2,15,8.2,24c0,9-3.1,17.3-8.2,24h320.4h0C419.1,377.3,416,369,416,360z M480,360c0-13.2-10.8-24-24-24s-24,10.8-24,24
	s10.8,24,24,24S480,373.2,480,360z M128,368h16v-16h-16V368z M160,368h16v-16h-16V368z M192,368h16v-16h-16V368z M224,368h16v-16
	h-16V368z M256,368h16v-16h-16V368z M288,368h16v-16h-16V368z M320,368h16v-16h-16V368z M352,368h16v-16h-16V368z M384,368h16v-16
	h-16V368z M144,144c-17.6,0-32-14.4-32-32s14.4-32,32-32s32,14.4,32,32S161.6,144,144,144z M160,112c0-8.8-7.2-16-16-16
	s-16,7.2-16,16s7.2,16,16,16S160,120.8,160,112z M304,144c-17.6,0-32-14.4-32-32s14.4-32,32-32s32,14.4,32,32S321.6,144,304,144z
	 M320,112c0-8.8-7.2-16-16-16s-16,7.2-16,16s7.2,16,16,16S320,120.8,320,112z M464,88H352v16h112V88z M480,88v16h16V88H480z
	 M368,136h16v-16h-16V136z M400,120v16h48v-16H400z M480,120h-16v16h16V120z M400,168h64v-16h-64V168z M480,168h16v-16h-16V168z
	 M464,256h-88v16h88V256z M480,272h16v-16h-16V272z M448,304v-16h-56v16H448z M480,288h-16v16h16V288z"/>
</svg>
