<?xml version="1.0" encoding="utf-8"?>
<!-- Generator: Adobe Illustrator 22.0.1, SVG Export Plug-In . SVG Version: 6.00 Build 0)  -->
<svg version="1.1" id="Layer_1" xmlns="http://www.w3.org/2000/svg" xmlns:xlink="http://www.w3.org/1999/xlink" x="0px" y="0px"
	 viewBox="0 0 496 496" style="enable-background:new 0 0 496 496;" xml:space="preserve">
<style type="text/css">
	.st0{fill:#474C53;}
</style>
<path class="st0" d="M456,232c0-22.1-17.9-40-40-40H295.1l108.2-37.9c9.9,8.6,22.7,13.9,36.8,13.9c30.9,0,56-25.1,56-56
	c0-30.9-25.1-56-56-56c-30.9,0-56,25.1-56,56c0,10.6,3,20.6,8.2,29L268,184.5l48.5-72.8C345.2,109.5,368,85.4,368,56
	c0-30.9-25.1-56-56-56c-30.9,0-56,25.1-56,56c0,26.1,18,48.1,42.2,54.2L248,185.6l-50.2-75.4C222,104.1,240,82.1,240,56
	c0-30.9-25.1-56-56-56c-30.9,0-56,25.1-56,56c0,29.4,22.8,53.5,51.6,55.8l48.5,72.8L103.8,141c5.2-8.5,8.2-18.4,8.2-29
	c0-30.9-25.1-56-56-56S0,81.1,0,112c0,30.9,25.1,56,56,56c14.1,0,26.9-5.3,36.8-13.9L200.9,192H80c-22.1,0-40,17.9-40,40v200H0v24
	c0,22.1,17.9,40,40,40h416c22.1,0,40-17.9,40-40v-24h-40V232z M440,72c22.1,0,40,17.9,40,40c0,22.1-17.9,40-40,40
	c-22.1,0-40-17.9-40-40C400,89.9,417.9,72,440,72z M272.1,56c0-22.1,17.9-40,40-40c22.1,0,40,17.9,40,40c0,22.1-17.9,40-40,40
	C290,96,272.1,78.1,272.1,56z M144,56c0-22.1,17.9-40,40-40c22.1,0,40,17.9,40,40c0,22.1-17.9,40-40,40C161.9,96,144,78.1,144,56z
	 M56,152c-22.1,0-40-17.9-40-40c0-22.1,17.9-40,40-40c22.1,0,40,17.9,40,40C96,134.1,78.1,152,56,152z M56,232c0-13.2,10.8-24,24-24
	h336c13.2,0,24,10.8,24,24v200h-16V224H72v208H56V232z M88,432V240h320v192H88z M280,448v8h-64v-8H280z M480,448v8
	c0,13.2-10.8,24-24,24H40c-13.2,0-24-10.8-24-24v-8h184v24h96v-24H480z M195.1,335.6l26.5-45.4h53l26.5,45.4l-23.8,41.3l-29.2-41.3
	l-29.2,41.3L195.1,335.6z M210.2,269.9l-37.9,65.7l37.9,65.7h75.8l37.9-65.7l-37.9-65.7H210.2z M78.8,120.5c0.1-3.7-1.3-6.3-3.2-7.8
	c-1.9-1.5-4.7-2.1-4.7-2.1s2.3-1.3,3.3-2.7c1-1.3,1.5-3.4,1.5-4.5s0.3-5.6-3.2-8.3c-2.7-2-5.8-2.9-10.1-3.2l0.1-9.2l-5.6,0l-0.1,9
	l-4.3,0l0.1-9l-5.6,0l-0.1,9l-11.1-0.1l0,5.9l3.3,0c0.9,0,2.5,0.1,3.1,0.9c0.7,0.8,0.8,1.2,0.8,2.6l-0.2,23.4c0,0.6-0.1,1.2-0.6,1.7
	c-0.5,0.4-1,0.5-2.1,0.5l-3.4,0l-1.2,6.8l11.1,0.1l-0.1,9l5.6,0l0.1-9l4.3,0l-0.1,9l5.6,0l0.1-9.2c1.5-0.1,2.8-0.2,3.6-0.3l0.1,0
	c1.7-0.2,5.2-0.6,8.6-2.9C77.9,127.9,78.7,124.2,78.8,120.5L78.8,120.5z M52.5,109.1l0.1-10.9c0,0,1.8-0.1,3.6-0.1
	c1.8,0,3.3,0.1,5.6,0.8c2.3,0.7,3.7,2.5,3.7,4.5c0,2.1-0.9,3.4-2.5,4.3c-1.6,0.9-3.8,1.3-5.8,1.4C55.1,109.2,52.5,109.1,52.5,109.1z
	 M65,125.3c-1.3,0.7-3.9,1.3-6.4,1.5c-2.5,0.2-6.3,0.1-6.3,0.1l0.1-12.1c0,0,3.6-0.2,6.4,0.1c2.8,0.2,5.1,0.9,6.2,1.5
	c1.1,0.5,2.9,1.7,2.9,4.5C67.8,123.5,66.3,124.6,65,125.3z M184.4,89.4l-19.8-27l19.6,11.3L184.4,89.4z M184.4,89.4L203.6,62
	l-19.4,11.7L184.4,89.4z M183.6,22.6l0.3,23.6L183.6,22.6l-19.1,32.6l19.4-9L183.6,22.6z M183.9,46.1l19.6,8.6l-19.8-32.2
	L183.9,46.1l-0.3-23.6L183.9,46.1z M184.1,66.4l19.4-11.7l-19.6-8.6L184.1,66.4z M183.9,46.1l-19.4,9l19.6,11.3L183.9,46.1z
	 M306.3,52h-22.5l-2.6,8.5h22.5L306.3,52z M342.1,41.1c-1.2-2.4-3.8-3.3-5.7-3.3h-42.1l-2.8,9.2h37.7l-5.7,18.5h-38l-2.8,9.2h40.4
	c3.9,0,5-0.7,7.8-2.3s5-4.5,6.2-8c1.2-3.4,4.1-13.1,5-16.4C343,44.8,343.3,43.5,342.1,41.1L342.1,41.1z M457.2,117.8
	c-1.8-1-3.8-1.5-5.7-1.4l0,0c-2.7,0-4.9-2-4.9-4.6c0-2.6,2-4.7,4.7-4.7v0l0,0c2,0,4-0.5,5.8-1.6c5.5-3.1,7.3-10,4-15.3
	c-3.2-5.3-10.3-7-15.8-3.9c-5.5,3.1-7.3,10-4,15.3c1.4,2.2,0.6,5.1-1.7,6.4c-2.2,1.3-5.1,0.6-6.5-1.5l0,0v0c-1-1.7-2.4-3.1-4.3-4.1
	c-5.5-3-12.5-1.1-15.7,4.2c-3.1,5.4-1.2,12.2,4.4,15.2c5.5,3,12.5,1.1,15.7-4.2c0,0,0-0.1,0.1-0.1v0l0,0c1.3-2.2,4.2-2.9,6.5-1.7
	c2.3,1.3,3.1,4.1,1.8,6.3c-3.1,5.4-1.2,12.2,4.4,15.2c5.5,3,12.5,1.1,15.7-4.2C464.6,127.7,462.7,120.8,457.2,117.8L457.2,117.8z"/>
</svg>
