<?xml version="1.0" encoding="utf-8"?>
<!-- Generator: Adobe Illustrator 21.1.0, SVG Export Plug-In . SVG Version: 6.00 Build 0)  -->
<svg version="1.1" id="Layer_1" xmlns="http://www.w3.org/2000/svg" xmlns:xlink="http://www.w3.org/1999/xlink" x="0px" y="0px"
	 viewBox="0 0 44 56" style="enable-background:new 0 0 44 56;" xml:space="preserve">
<style type="text/css">
	.st0{fill:#474C53;}
</style>
<path class="st0" d="M39,0H13c-2.4,0-4.5,1.8-4.9,4.1c-2,0.4-3.6,2-4,4C1.8,8.5,0,10.6,0,13v38c0,2.8,2.2,5,5,5h26
	c2.4,0,4.5-1.8,4.9-4.1c2-0.4,3.6-2,4-4c2.3-0.4,4.1-2.5,4.1-4.9V5C44,2.2,41.8,0,39,0z M34,51c0,1.7-1.3,3-3,3H5c-1.7,0-3-1.3-3-3
	V13c0-1.7,1.3-3,3-3h26c1.7,0,3,1.3,3,3V51z M38,47c0,1.3-0.8,2.4-2,2.8V13c0-2.8-2.2-5-5-5H6.2C6.6,6.8,7.7,6,9,6h26
	c1.7,0,3,1.3,3,3V47z M42,43c0,1.3-0.8,2.4-2,2.8V9c0-2.8-2.2-5-5-5H10.2c0.4-1.2,1.5-2,2.8-2h26c1.7,0,3,1.3,3,3V43z M29,13
	c-1.7,0-3,1.3-3,3c0,0.5,0.1,0.9,0.3,1.3l-3.4,3.4C22.4,20.3,21.7,20,21,20c-0.8,0-1.5,0.3-2,0.8l-3.1-1.9c0.1-0.3,0.2-0.6,0.2-0.9
	c0-1.7-1.3-3-3-3s-3,1.3-3,3c0,0.5,0.1,1,0.4,1.4l-3,3.6c-0.2,0-0.3,0-0.5,0c-1.7,0-3,1.3-3,3s1.3,3,3,3s3-1.3,3-3
	c0-0.8-0.3-1.4-0.7-2l2.6-3.3c0.4,0.1,0.7,0.2,1.1,0.2c0.6,0,1.1-0.2,1.6-0.5l3.4,2.1c0,0.1,0,0.3,0,0.4c0,1.7,1.3,3,3,3s3-1.3,3-3
	c0-0.2,0-0.4-0.1-0.5l3.8-3.8c0.4,0.2,0.8,0.3,1.3,0.3c1.7,0,3-1.3,3-3S30.7,13,29,13z M7,27c-0.6,0-1-0.4-1-1s0.4-1,1-1s1,0.4,1,1
	S7.6,27,7,27z M13,19c-0.6,0-1-0.4-1-1s0.4-1,1-1s1,0.4,1,1S13.6,19,13,19z M21,24c-0.6,0-1-0.4-1-1s0.4-1,1-1s1,0.4,1,1
	S21.6,24,21,24z M29,17c-0.6,0-1-0.4-1-1s0.4-1,1-1s1,0.4,1,1S29.6,17,29,17z M6,31h24v2H6V31z M6,35h24v2H6V35z M11,39
	c-3.3,0-6,2.7-6,6s2.7,6,6,6s6-2.7,6-6S14.3,39,11,39z M10,41.1V44H7.1C7.5,42.6,8.6,41.5,10,41.1z M11,49c-1.9,0-3.4-1.3-3.9-3h3.5
	l2.8,2.1C12.8,48.7,11.9,49,11,49z M14.7,46.5l-2.7-2v-3.4c1.7,0.4,3,2,3,3.9C15,45.5,14.9,46.1,14.7,46.5z M19,40h11v2H19V40z
	 M19,44h11v2H19V44z M19,48h11v2H19V48z"/>
</svg>
