<?xml version="1.0" encoding="utf-8"?>
<!-- Generator: Adobe Illustrator 21.1.0, SVG Export Plug-In . SVG Version: 6.00 Build 0)  -->
<svg version="1.1" id="Layer_1" xmlns="http://www.w3.org/2000/svg" xmlns:xlink="http://www.w3.org/1999/xlink" x="0px" y="0px"
	 viewBox="0 0 496 496" style="enable-background:new 0 0 496 496;" xml:space="preserve">
<style type="text/css">
	.st0{fill:#474C53;}
</style>
<path class="st0" d="M432,352.5L432,352.5l0-208.9c35.9-4,64-34.5,64-71.5c0-39.7-32.3-72-72-72c-39.7,0-72,32.3-72,72
	c0,37,28.1,67.5,64,71.5v208.9c-13.9,1.5-26.5,7-36.9,15.3L351.3,340l36-36l-66.6-66.6c7-15.3,11.6-31.4,13.8-47.8l28.3-29.5h-27.1
	C331.4,71.1,257.9,0,168,0C75.4,0,0,75.4,0,168c0,89.9,71.1,163.4,160,167.6v36.3l37-38.7c14-2.4,27.5-6.7,40.4-12.5l66.6,66.6
	l36-36l27.8,27.8c-8.3,10.4-13.8,23-15.3,36.9H143.5c-4-35.9-34.5-64-71.5-64c-39.7,0-72,32.3-72,72c0,39.7,32.3,72,72,72
	c37,0,67.5-28.1,71.5-64h208.9c4,35.9,34.5,64,71.5,64c39.7,0,72-32.3,72-72C496,387,467.9,356.5,432,352.5z M160,319.6
	C79.9,315.4,16,249.1,16,168C16,84.2,84.2,16,168,16c81.1,0,147.4,63.9,151.6,144h-32C283.4,97.6,231.5,48,168,48
	c-66.2,0-120,53.8-120,120c0,63.5,49.6,115.4,112,119.6V319.6z M160,271.6c-53.6-4.1-96-49-96-103.6c0-57.3,46.7-104,104-104
	c54.6,0,99.5,42.4,103.6,96h-32.1c-4-35.9-34.5-64-71.5-64c-39.7,0-72,32.3-72,72c0,37,28.1,67.5,64,71.5V271.6z M160,160v63.4
	c-27.1-3.9-48-27.2-48-55.4c0-30.9,25.1-56,56-56c28.2,0,51.5,20.9,55.4,48H160z M218,311.3L218,311.3l4.9-5.1l2.4,2.4
	C222.9,309.6,220.5,310.4,218,311.3z M304,364.7l-81.4-81.4L176,332.1V176h149.3L282,221.3l82.7,82.7L304,364.7z M313.6,211.4
	c-1.4,4.7-3.1,9.3-5,13.9l-4.2-4.2L313.6,211.4z M72,480c-30.9,0-56-25.1-56-56s25.1-56,56-56s56,25.1,56,56S102.9,480,72,480z
	 M368,72c0-30.9,25.1-56,56-56s56,25.1,56,56s-25.1,56-56,56S368,102.9,368,72z M424,480c-30.9,0-56-25.1-56-56s25.1-56,56-56
	s56,25.1,56,56S454.9,480,424,480z M416,120v-16h-4c-11,0-20-9-20-20v-4h16v4c0,2.2,1.8,4,4,4h24c2.2,0,4-1.8,4-4s-1.8-4-4-4h-24
	c-11,0-20-9-20-20s9-20,20-20h4V24h16v16h4c11,0,20,9,20,20v4h-16v-4c0-2.2-1.8-4-4-4h-24c-2.2,0-4,1.8-4,4s1.8,4,4,4h24
	c11,0,20,9,20,20s-9,20-20,20h-4v16H416z M108.8,398.4L85.3,416H104v16H80v8h24v16H80v8H64v-8H40v-16h24v-8H40v-16h18.7l-23.5-17.6
	l9.6-12.8L72,406l27.2-20.4L108.8,398.4z M448,384v16c-10.4,0-19.2,6.7-22.5,16H440v16h-16c0,5.8-1.6,11.3-4.3,16H448v16h-56v-16
	c8.8,0,16-7.2,16-16h-16v-16h16.8C412.5,397.8,428.7,384,448,384z M325.6,314.3l-11.3,11.3l-16-16l11.3-11.3L325.6,314.3z
	 M277.7,266.3l16,16l-11.3,11.3l-16-16L277.7,266.3z M245.7,234.3l16,16l-11.3,11.3l-16-16L245.7,234.3z"/>
</svg>
