<?xml version="1.0" encoding="utf-8"?>
<!-- Generator: Adobe Illustrator 21.1.0, SVG Export Plug-In . SVG Version: 6.00 Build 0)  -->
<svg version="1.1" id="Layer_1" xmlns="http://www.w3.org/2000/svg" xmlns:xlink="http://www.w3.org/1999/xlink" x="0px" y="0px"
	 viewBox="0 0 488 488" style="enable-background:new 0 0 488 488;" xml:space="preserve">
<style type="text/css">
	.st0{fill:#474C53;}
</style>
<path class="st0" d="M464.8,427.8c-12.3-24.6-36.9-39.8-64.4-39.8H360c-28.4,0-51.9-21.3-55.5-48.8C333,320.6,352,288.5,352,252v-96
	c0-30.9-25.1-56-56-56H112c-4.4,0-8,3.6-8,8c0,14.6,6.5,27.7,16.8,36.5c-0.5,1.1-0.8,2.3-0.8,3.5c0,17.2,9.3,33,24,41.5V252
	c0,36.5,19,68.6,47.5,87.2c-3.5,27.5-27,48.8-55.5,48.8H95.6c-27.4,0-52.1,15.2-64.4,39.8L8.8,472.4C8.3,473.5,8,474.8,8,476v8h16
	v-6.1L45.5,435c9.5-19.1,28.7-31,50.1-31H136c34.5,0,63.3-24.4,70.3-56.8c12.8,5.6,26.8,8.8,41.7,8.8s28.9-3.2,41.7-8.8
	c7,32.4,35.9,56.8,70.3,56.8h40.4c21.3,0,40.5,11.9,50.1,31l21.5,42.9v6.1h16v-8c0-1.2-0.3-2.5-0.8-3.6L464.8,427.8z M248,340
	c-48.5,0-88-39.5-88-88v-67.4c0-3.2-1.9-6.1-4.8-7.3c-9.2-4-15.8-11.9-18.2-21.3h15c4.4,0,8-3.6,8-8s-3.6-8-8-8
	c-14.9,0-27.4-10.2-31-24h175c22.1,0,40,17.9,40,40v96C336,300.5,296.5,340,248,340z M264.6,427.2l13.8-18.4
	c1.8-2.4,2.1-5.7,0.8-8.4c-1.4-2.7-4.1-4.4-7.2-4.4h-48c-3,0-5.8,1.7-7.2,4.4c-1.4,2.7-1.1,6,0.8,8.4l13.8,18.4l-22.6,45.2
	c-0.6,1.1-0.8,2.3-0.8,3.6v8h16v-6.1l18.3-36.5c1.5,1.6,3.5,2.6,5.7,2.6s4.2-1,5.7-2.6l18.3,36.5v6.1h16v-8c0-1.2-0.3-2.5-0.8-3.6
	L264.6,427.2z M248,422.7l-8-10.7h16L248,422.7z M242.3,81.7l-32-32l11.3-11.3L240,56.7V4h16v52.7l18.3-18.3l11.3,11.3l-32,32
	c-1.6,1.6-3.6,2.3-5.7,2.3C246,84,243.9,83.2,242.3,81.7z M413.7,177.7L395.3,196H448v16h-52.7l18.3,18.3l-11.3,11.3l-32-32
	c-3.1-3.1-3.1-8.2,0-11.3l32-32L413.7,177.7z M82.3,230.3l18.3-18.3H48v-16h52.7l-18.3-18.3l11.3-11.3l32,32c3.1,3.1,3.1,8.2,0,11.3
	l-32,32L82.3,230.3z M480,212h-16v-16h16V212z M16,212v-16h16v16H16z M208,188c-17.6,0-32,14.4-32,32s14.4,32,32,32s32-14.4,32-32
	S225.6,188,208,188z M208,236c-8.8,0-16-7.2-16-16c0-8.8,7.2-16,16-16s16,7.2,16,16C224,228.8,216.8,236,208,236z M288,252
	c17.6,0,32-14.4,32-32s-14.4-32-32-32s-32,14.4-32,32S270.4,252,288,252z M288,204c8.8,0,16,7.2,16,16c0,8.8-7.2,16-16,16
	s-16-7.2-16-16C272,211.2,279.2,204,288,204z M464,4h-96c-13.2,0-24,10.8-24,24v48c0,13.2,10.8,24,24,24v16c0,2.9,1.6,5.5,4.1,7
	c1.2,0.7,2.6,1,3.9,1c1.4,0,2.8-0.4,4.1-1.1l38.1-22.9H464c13.2,0,24-10.8,24-24V28C488,14.8,477.2,4,464,4z M472,76
	c0,4.4-3.6,8-8,8h-48c-1.4,0-2.9,0.4-4.1,1.1L384,101.9V92c0-4.4-3.6-8-8-8h-8c-4.4,0-8-3.6-8-8V28c0-4.4,3.6-8,8-8h96
	c4.4,0,8,3.6,8,8V76z M376,44h16v16h-16V44z M408,44h16v16h-16V44z M440,44h16v16h-16V44z M120,372c13.2,0,24-10.8,24-24v-32
	c0-12.6-9.8-23-22.3-23.9l6.1-30.5c0.7-3.3-0.8-6.7-3.8-8.4c-2.9-1.7-6.6-1.4-9.2,0.7L69.1,292H24c-13.2,0-24,10.8-24,24v32
	c0,13.2,10.8,24,24,24H120z M16,348v-32c0-4.4,3.6-8,8-8h48c1.9,0,3.7-0.7,5.1-1.8l30.6-25.5l-3.6,17.8c-0.5,2.4,0.1,4.8,1.7,6.6
	c1.5,1.8,3.8,2.9,6.2,2.9h8c4.4,0,8,3.6,8,8v32c0,4.4-3.6,8-8,8H24C19.6,356,16,352.4,16,348z M112,340H96v-16h16V340z M80,340H64
	v-16h16V340z M48,340H32v-16h16V340z M288,276h16c0,22.1-17.9,40-40,40v-16C277.2,300,288,289.2,288,276z M32,84h13.8l38.1,22.9
	c1.3,0.8,2.7,1.1,4.1,1.1c1.4,0,2.7-0.3,3.9-1c2.5-1.4,4.1-4.1,4.1-7V84c13.2,0,24-10.8,24-24V28c0-13.2-10.8-24-24-24H32
	C18.8,4,8,14.8,8,28v32C8,73.2,18.8,84,32,84z M24,28c0-4.4,3.6-8,8-8h64c4.4,0,8,3.6,8,8v32c0,4.4-3.6,8-8,8h-8c-4.4,0-8,3.6-8,8
	v9.9L52.1,69.1C50.9,68.4,49.4,68,48,68H32c-4.4,0-8-3.6-8-8V28z M88,52H72V36h16V52z M56,52H40V36h16V52z M352,316v32
	c0,13.2,10.8,24,24,24h64c13.2,0,24-10.8,24-24v-32c0-13.2-10.8-24-24-24h-13.8l-38.1-22.9c-2.5-1.5-5.6-1.5-8.1-0.1
	c-2.5,1.4-4.1,4.1-4.1,7v16C362.8,292,352,302.8,352,316z M368,316c0-4.4,3.6-8,8-8h8c4.4,0,8-3.6,8-8v-9.9l27.9,16.7
	c1.2,0.7,2.7,1.1,4.1,1.1h16c4.4,0,8,3.6,8,8v32c0,4.4-3.6,8-8,8h-64c-4.4,0-8-3.6-8-8V316z M400,340h-16v-16h16V340z M432,340h-16
	v-16h16V340z"/>
</svg>
