<?xml version="1.0" encoding="utf-8"?>
<!-- Generator: Adobe Illustrator 21.1.0, SVG Export Plug-In . SVG Version: 6.00 Build 0)  -->
<svg version="1.1" id="Layer_1" xmlns="http://www.w3.org/2000/svg" xmlns:xlink="http://www.w3.org/1999/xlink" x="0px" y="0px"
	 viewBox="0 0 496 496" style="enable-background:new 0 0 496 496;" xml:space="preserve">
<style type="text/css">
	.st0{fill:#474C53;}
</style>
<path class="st0" d="M424,352c-37,0-67.5,28.1-71.5,64H143.6c-1.5-13.9-7-26.5-15.3-36.9l27.8-27.8l36,36l66.6-66.6
	c12.8,5.8,26.4,10,40.4,12.5l37,38.7v-36.3c88.9-4.2,160-77.7,160-167.6C496,75.4,420.6,0,328,0c-89.9,0-163.4,71.1-167.6,160h-27.1
	l28.3,29.5c2.1,16.5,6.8,32.5,13.8,47.8L108.7,304l36,36l-27.8,27.8c-10.4-8.3-23-13.8-36.9-15.3v-209c35.9-4,64-34.5,64-71.5
	c0-39.7-32.3-72-72-72S0,32.3,0,72c0,37,28.1,67.5,64,71.5v208.9l0,0C28.1,356.5,0,387,0,424c0,39.7,32.3,72,72,72
	c37,0,67.5-28.1,71.5-64h208.9c4,35.9,34.5,64,71.5,64c39.7,0,72-32.3,72-72C496,384.3,463.7,352,424,352z M278,311.3
	c-2.4-0.8-4.9-1.7-7.3-2.6l2.4-2.4L278,311.3L278,311.3z M272.6,160c3.9-27.1,27.2-48,55.4-48c30.9,0,56,25.1,56,56
	c0,28.2-20.9,51.5-48,55.4V160H272.6z M336,239.5c35.9-4,64-34.5,64-71.5c0-39.7-32.3-72-72-72c-37,0-67.5,28.1-71.5,64h-32.1
	c4.1-53.6,49-96,103.6-96c57.3,0,104,46.7,104,104c0,54.6-42.4,99.5-96,103.6l0,0V239.5z M328,16c83.8,0,152,68.2,152,152
	c0,81.1-63.9,147.4-144,151.6v-32c62.4-4.1,112-56.1,112-119.6c0-66.2-53.8-120-120-120c-63.5,0-115.4,49.6-119.6,112h-32
	C180.6,79.9,246.9,16,328,16z M131.3,304l82.7-82.7L170.7,176H320v156.1l-46.6-48.7L192,364.7L131.3,304z M182.4,211.4l9.2,9.6
	l-4.2,4.2C185.5,220.7,183.8,216.1,182.4,211.4z M16,72c0-30.9,25.1-56,56-56s56,25.1,56,56s-25.1,56-56,56S16,102.9,16,72z M72,480
	c-30.9,0-56-25.1-56-56s25.1-56,56-56s56,25.1,56,56S102.9,480,72,480z M424,480c-30.9,0-56-25.1-56-56s25.1-56,56-56s56,25.1,56,56
	S454.9,480,424,480z M64,120v-16h-4c-11,0-20-9-20-20v-4h16v4c0,2.2,1.8,4,4,4h24c2.2,0,4-1.8,4-4s-1.8-4-4-4H60c-11,0-20-9-20-20
	s9-20,20-20h4V24h16v16h4c11,0,20,9,20,20v4H88v-4c0-2.2-1.8-4-4-4H60c-2.2,0-4,1.8-4,4s1.8,4,4,4h24c11,0,20,9,20,20s-9,20-20,20
	h-4v16H64z M460.8,398.4L437.3,416H456v16h-24v8h24v16h-24v8h-16v-8h-24v-16h24v-8h-24v-16h18.7l-23.5-17.6l9.6-12.8L424,406
	l27.2-20.4L460.8,398.4z M104,384v16c-10.4,0-19.2,6.7-22.5,16H96v16H80c0,5.8-1.6,11.3-4.3,16H104v16H48v-16c8.8,0,16-7.2,16-16H48
	v-16h16.8C68.5,397.8,84.7,384,104,384z M197.7,309.7l-16,16l-11.3-11.3l16-16L197.7,309.7z M213.7,293.7l-11.3-11.3l16-16
	l11.3,11.3L213.7,293.7z M245.7,261.7l-11.3-11.3l16-16l11.3,11.3L245.7,261.7z"/>
</svg>
