<?xml version="1.0" encoding="utf-8"?>
<!-- Generator: Adobe Illustrator 21.1.0, SVG Export Plug-In . SVG Version: 6.00 Build 0)  -->
<svg version="1.1" id="Layer_1" xmlns="http://www.w3.org/2000/svg" xmlns:xlink="http://www.w3.org/1999/xlink" x="0px" y="0px"
	 viewBox="0 0 480 480" style="enable-background:new 0 0 480 480;" xml:space="preserve">
<style type="text/css">
	.st0{fill:#474C53;}
</style>
<path class="st0" d="M392,304h-70.2c-4.4-4.9-10.7-8-17.8-8c-6.2,0-11.7,2.4-16,6.2c-4.3-3.8-9.8-6.2-16-6.2s-11.7,2.4-16,6.2
	c-4.3-3.8-9.8-6.2-16-6.2s-11.7,2.4-16,6.2c-4.3-3.8-9.8-6.2-16-6.2c-7.1,0-13.4,3.1-17.8,8H56c-4.4,0-8,3.6-8,8v56
	c0,22.1,17.9,40,40,40h64v40c0,2.1,0.8,4.2,2.3,5.7l13.7,13.7V480h16v-16c0-2.1-0.8-4.2-2.3-5.7L168,444.7V353
	c13.8,3.6,24,16.1,24,31v40h16v-16h104v72h16v-72h96c4.4,0,8-3.6,8-8v-56C432,321.9,414.1,304,392,304z M184,342.5
	c-7.1-4.1-15.3-6.5-24-6.5c-4.4,0-8,3.6-8,8v48H88c-13.2,0-24-10.8-24-24v-48h120C184,320,184,342.5,184,342.5z M296,320
	c0-4.4,3.6-8,8-8c4.4,0,8,3.6,8,8v32c0,4.4-3.6,8-8,8c-4.4,0-8-3.6-8-8V320z M264,320c0-4.4,3.6-8,8-8s8,3.6,8,8v32c0,4.4-3.6,8-8,8
	s-8-3.6-8-8V320z M232,320c0-4.4,3.6-8,8-8s8,3.6,8,8v32c0,4.4-3.6,8-8,8s-8-3.6-8-8V320z M200,352v-32c0-4.4,3.6-8,8-8s8,3.6,8,8
	v32c0,4.4-3.6,8-8,8S200,356.4,200,352z M416,392H208v-8c0-2.8-0.3-5.4-0.7-8.1c0.2,0,0.5,0.1,0.7,0.1c6.2,0,11.7-2.4,16-6.2
	c4.3,3.8,9.8,6.2,16,6.2s11.7-2.4,16-6.2c4.3,3.8,9.8,6.2,16,6.2s11.7-2.4,16-6.2c4.3,3.8,9.8,6.2,16,6.2c13.2,0,24-10.8,24-24v-32
	h64c13.2,0,24,10.8,24,24V392z M479.2,228.4L464,198.1V78.3l10-2.6c3.5-0.9,6-4.1,6-7.8s-2.5-6.8-6-7.7l-232-60
	c-1.3-0.3-2.7-0.3-4,0L6,60.3c-3.5,0.9-6,4.1-6,7.7s2.5,6.8,6,7.7l106,27.4V216c0,3.7,2.5,6.9,6.1,7.8l50.8,12.7
	c-1,2-1.1,4.4-0.2,6.6c1.2,3,4.2,4.9,7.4,4.9h16v16c0,3.2,2,6.2,4.9,7.4c1,0.4,2,0.6,3.1,0.6c2.1,0,4.1-0.8,5.7-2.3l34.3-34.3
	l34.3,34.3c1.5,1.5,3.6,2.3,5.7,2.3c1,0,2.1-0.2,3.1-0.6c3-1.2,4.9-4.2,4.9-7.4v-16h16c3.2,0,6.2-2,7.4-4.9c0.9-2.2,0.8-4.6-0.2-6.6
	l50.8-12.7c3.6-0.9,6.1-4.1,6.1-7.8V103.2l80-20.7v115.6l-15.2,30.3c-1.1,2.3-1.1,4.9,0,7.2l16,32c1.4,2.7,4.1,4.4,7.2,4.4
	c3,0,5.8-1.7,7.2-4.4l16-32C480.3,233.3,480.3,230.7,479.2,228.4z M208,244.7V240c0-4.4-3.6-8-8-8h-4.7l14.3-14.3
	c3.9,4.6,8.8,8.5,14.4,10.9L208,244.7z M216,192c0-13.2,10.8-24,24-24c13.2,0,24,10.8,24,24s-10.8,24-24,24
	C226.8,216,216,205.2,216,192z M280,232c-4.4,0-8,3.6-8,8v4.7l-16-16c5.6-2.5,10.5-6.3,14.4-10.9l14.3,14.3H280z M352,209.8
	l-53.5,13.4L278.3,203c1-3.5,1.7-7.1,1.7-11c0-22.1-17.9-40-40-40s-40,17.9-40,40c0,3.8,0.7,7.5,1.7,11l-20.2,20.2L128,209.8V107.3
	l110,28.4c0.7,0.2,1.3,0.3,2,0.3s1.3-0.1,2-0.3l110-28.4V209.8z M240,119.7L40,68l200-51.7L440,68L240,119.7z M456,246.1l-7.1-14.1
	l7.1-14.1l7.1,14.1L456,246.1z M64,288H48v-16h16V288z M96,272v16H80v-16H96z M128,272v16h-16v-16H128z"/>
</svg>
