<?xml version="1.0" encoding="utf-8"?>
<!-- Generator: Adobe Illustrator 21.1.0, SVG Export Plug-In . SVG Version: 6.00 Build 0)  -->
<svg version="1.1" id="Layer_1" xmlns="http://www.w3.org/2000/svg" xmlns:xlink="http://www.w3.org/1999/xlink" x="0px" y="0px"
	 viewBox="0 0 496 496" style="enable-background:new 0 0 496 496;" xml:space="preserve">
<style type="text/css">
	.st0{fill:#474C53;}
</style>
<path class="st0" d="M464,480h32v16H0v-16h32V304h16v176h16V304h16v176h16V336h16v144h16V336h16v144h16V184h16v296h16V184h16v296h16
	V296h16v184h16V296h16v184h16V280h16v200h16V280h16v200h16V320h16v160h16V320h16v160h16V136h16v344h16V136h16V480z M0,224
	c0-30.9,25.1-56,56-56s56,25.1,56,56s-25.1,56-56,56S0,254.9,0,224z M72,256c0-8.8-7.2-16-16-16s-16,7.2-16,16v4.6
	c4.9,2.2,10.3,3.4,16,3.4s11.1-1.2,16-3.4V256z M56,224c4.4,0,8-3.6,8-8s-3.6-8-8-8s-8,3.6-8,8S51.6,224,56,224z M16,224
	c0,9.4,3.4,18,8.9,24.8c1.7-7.5,6.1-13.9,12.1-18.4c-3.1-4-5-9-5-14.4c0-13.2,10.8-24,24-24s24,10.8,24,24c0,5.4-1.9,10.4-5,14.4
	c6,4.5,10.3,10.9,12.1,18.4C92.6,242,96,233.4,96,224c0-22.1-17.9-40-40-40C33.9,184,16,201.9,16,224z M128,104
	c0-30.9,25.1-56,56-56s56,25.1,56,56s-25.1,56-56,56S128,134.9,128,104z M200,136c0-8.8-7.2-16-16-16s-16,7.2-16,16v4.6
	c4.9,2.2,10.3,3.4,16,3.4s11.1-1.2,16-3.4V136z M184,104c4.4,0,8-3.6,8-8s-3.6-8-8-8s-8,3.6-8,8S179.6,104,184,104z M144,104
	c0,9.4,3.4,18,8.9,24.8c1.7-7.5,6.1-13.9,12.1-18.4c-3.1-4-5-9-5-14.4c0-13.2,10.8-24,24-24s24,10.8,24,24c0,5.4-1.9,10.4-5,14.4
	c6,4.5,10.3,10.9,12.1,18.4c5.5-6.8,8.9-15.4,8.9-24.8c0-22.1-17.9-40-40-40C161.9,64,144,81.9,144,104z M256,200
	c0-30.9,25.1-56,56-56s56,25.1,56,56s-25.1,56-56,56S256,230.9,256,200z M328,232c0-8.8-7.2-16-16-16s-16,7.2-16,16v4.6
	c4.9,2.2,10.3,3.4,16,3.4s11.1-1.2,16-3.4V232z M312,200c4.4,0,8-3.6,8-8s-3.6-8-8-8s-8,3.6-8,8S307.6,200,312,200z M272,200
	c0,9.4,3.4,18,8.9,24.8c1.7-7.5,6.1-13.9,12.1-18.4c-3.1-4-5-9-5-14.4c0-13.2,10.8-24,24-24s24,10.8,24,24c0,5.4-1.9,10.4-5,14.4
	c6,4.5,10.3,10.9,12.1,18.4c5.5-6.8,8.9-15.4,8.9-24.8c0-22.1-17.9-40-40-40C289.9,160,272,177.9,272,200z M384,56
	c0-30.9,25.1-56,56-56s56,25.1,56,56s-25.1,56-56,56S384,86.9,384,56z M456,88c0-8.8-7.2-16-16-16s-16,7.2-16,16v4.6
	c4.9,2.2,10.3,3.4,16,3.4s11.1-1.2,16-3.4V88z M440,56c4.4,0,8-3.6,8-8s-3.6-8-8-8s-8,3.6-8,8S435.6,56,440,56z M400,56
	c0,9.4,3.4,18,8.9,24.8c1.7-7.5,6.1-13.9,12.1-18.4c-3.1-4-5-9-5-14.4c0-13.2,10.8-24,24-24s24,10.8,24,24c0,5.4-1.9,10.4-5,14.4
	c6,4.5,10.3,10.9,12.1,18.4C476.6,74,480,65.4,480,56c0-22.1-17.9-40-40-40C417.9,16,400,33.9,400,56z"/>
</svg>
