<?xml version="1.0" encoding="utf-8"?>
<!-- Generator: Adobe Illustrator 21.1.0, SVG Export Plug-In . SVG Version: 6.00 Build 0)  -->
<svg version="1.1" id="Layer_1" xmlns="http://www.w3.org/2000/svg" xmlns:xlink="http://www.w3.org/1999/xlink" x="0px" y="0px"
	 viewBox="0 0 512 358.1" style="enable-background:new 0 0 512 358.1;" xml:space="preserve">
<style type="text/css">
	.st0{fill:#474C53;}
</style>
<path class="st0" d="M495.8,68.9V37.4c0-11.7-9.5-21.2-21.2-21.2H37.4c-11.7,0-21.2,9.5-21.2,21.2v283.3c0,11.7,9.5,21.2,21.2,21.2
	h437.2c11.7,0,21.2-9.5,21.2-21.2V95.1c0-4.5,3.6-8.1,8.1-8.1c4.5,0,8.1,3.6,8.1,8.1v225.6c0,20.6-16.8,37.4-37.4,37.4H37.4
	C16.8,358.1,0,341.3,0,320.7V37.4C0,16.8,16.8,0,37.4,0h437.2C495.2,0,512,16.8,512,37.4v31.5c0,4.5-3.6,8.1-8.1,8.1
	S495.8,73.3,495.8,68.9z M387.8,94.6c35.1,0,63.7,28.6,63.7,63.7c0,35.1-28.6,63.7-63.7,63.7c-12.5,0-24.7-3.7-35-10.5
	c-10.3,6.8-22.6,10.5-35,10.5c-35.1,0-63.7-28.6-63.7-63.7c0-35.1,28.6-63.7,63.7-63.7c12.5,0,24.7,3.7,35,10.5
	C363.2,98.3,375.4,94.6,387.8,94.6z M340,200.4C340,200.4,340,200.4,340,200.4C340,200.4,340,200.4,340,200.4
	c-0.7-0.8-1.4-1.7-2.1-2.5c-0.2-0.3-0.4-0.5-0.6-0.8c-0.5-0.6-0.9-1.2-1.3-1.8c-0.2-0.3-0.4-0.6-0.7-1c-0.4-0.6-0.8-1.2-1.2-1.8
	c-0.2-0.3-0.4-0.6-0.6-0.9c-0.5-0.7-0.9-1.5-1.3-2.3c-0.1-0.2-0.2-0.4-0.3-0.5c-0.5-0.9-1-1.9-1.5-2.9c-0.1-0.3-0.2-0.5-0.4-0.8
	c-0.3-0.7-0.6-1.4-0.9-2.1c-0.1-0.4-0.3-0.7-0.4-1.1c-0.3-0.7-0.5-1.3-0.8-2c-0.1-0.4-0.3-0.7-0.4-1.1c-0.3-0.7-0.5-1.5-0.7-2.2
	c-0.1-0.3-0.2-0.6-0.3-0.8c-0.3-1-0.6-2.1-0.8-3.1c0-0.2-0.1-0.4-0.1-0.6c-0.2-0.9-0.4-1.7-0.5-2.6c-0.1-0.4-0.1-0.7-0.2-1.1
	c-0.1-0.7-0.2-1.5-0.3-2.2c0-0.4-0.1-0.8-0.1-1.2c-0.1-0.8-0.1-1.5-0.2-2.3c0-0.3-0.1-0.7-0.1-1c-0.1-1.1-0.1-2.2-0.1-3.3
	s0-2.2,0.1-3.3c0-0.3,0-0.7,0.1-1c0.1-0.8,0.1-1.5,0.2-2.3c0-0.4,0.1-0.8,0.1-1.2c0.1-0.7,0.2-1.5,0.3-2.2c0.1-0.4,0.1-0.7,0.2-1.1
	c0.2-0.9,0.3-1.7,0.5-2.6c0-0.2,0.1-0.4,0.1-0.6c0.2-1.1,0.5-2.1,0.8-3.1c0.1-0.3,0.2-0.6,0.3-0.8c0.2-0.8,0.5-1.5,0.7-2.3
	c0.1-0.4,0.2-0.7,0.4-1.1c0.2-0.7,0.5-1.4,0.8-2c0.1-0.4,0.3-0.7,0.4-1c0.3-0.7,0.6-1.4,1-2.2c0.1-0.3,0.2-0.5,0.4-0.8
	c0.5-1,1-1.9,1.5-2.9c0.1-0.2,0.2-0.3,0.3-0.5c0.4-0.8,0.9-1.5,1.3-2.3c0.2-0.3,0.4-0.6,0.6-0.9c0.4-0.6,0.8-1.2,1.2-1.8
	c0.2-0.3,0.4-0.6,0.7-1c0.4-0.6,0.9-1.2,1.3-1.8c0.2-0.3,0.4-0.6,0.6-0.8c0.7-0.8,1.3-1.6,2-2.4c0,0,0-0.1,0.1-0.1l0,0
	c-6.8-3.6-14.3-5.5-22.2-5.5c-26.2,0-47.6,21.3-47.6,47.6c0,26.2,21.3,47.6,47.6,47.6l0,0C325.7,205.9,333.2,204,340,200.4z
	 M365.4,158.3c0-0.8,0-1.7-0.1-2.5c0-0.3,0-0.5-0.1-0.8c0-0.6-0.1-1.1-0.1-1.7c0-0.3-0.1-0.6-0.1-0.9c-0.1-0.5-0.1-1-0.2-1.6
	c0-0.3-0.1-0.6-0.1-0.9c-0.1-0.5-0.2-1.1-0.3-1.6c-0.1-0.3-0.1-0.5-0.2-0.8c-0.2-0.7-0.3-1.4-0.5-2.1c0-0.1,0-0.2-0.1-0.3
	c-0.2-0.8-0.5-1.5-0.7-2.3c-0.1-0.2-0.2-0.5-0.3-0.7c-0.2-0.5-0.4-1.1-0.6-1.6c-0.1-0.3-0.2-0.6-0.3-0.8c-0.2-0.5-0.4-1-0.6-1.4
	c-0.1-0.3-0.3-0.6-0.4-0.8c-0.2-0.5-0.5-1-0.7-1.4c-0.1-0.2-0.3-0.5-0.4-0.7c-0.3-0.6-0.7-1.1-1-1.7c-0.1-0.1-0.1-0.3-0.2-0.4
	c-0.4-0.7-0.9-1.4-1.3-2c-0.1-0.2-0.3-0.4-0.4-0.6c-0.3-0.5-0.7-0.9-1-1.4c-0.2-0.2-0.4-0.5-0.6-0.7c-0.3-0.4-0.7-0.8-1-1.2
	c-0.2-0.2-0.4-0.5-0.6-0.7c-0.1-0.1-0.3-0.3-0.4-0.4c-0.1,0.1-0.3,0.3-0.4,0.4c-0.2,0.2-0.4,0.5-0.6,0.7c-0.3,0.4-0.7,0.8-1,1.2
	c-0.2,0.2-0.4,0.5-0.6,0.7c-0.4,0.5-0.7,0.9-1,1.4c-0.1,0.2-0.3,0.4-0.4,0.6c-0.5,0.7-0.9,1.3-1.3,2c-0.1,0.1-0.1,0.2-0.2,0.4
	c-0.3,0.6-0.7,1.1-1,1.7c-0.1,0.2-0.3,0.5-0.4,0.7c-0.3,0.5-0.5,1-0.7,1.4c-0.1,0.3-0.3,0.5-0.4,0.8c-0.2,0.5-0.4,0.9-0.6,1.4
	c-0.1,0.3-0.2,0.5-0.3,0.8c-0.2,0.5-0.4,1.1-0.6,1.6c-0.1,0.2-0.2,0.5-0.3,0.7c-0.3,0.8-0.5,1.5-0.7,2.3c0,0.1,0,0.2-0.1,0.2
	c-0.2,0.7-0.4,1.4-0.5,2.1c-0.1,0.3-0.1,0.5-0.2,0.8c-0.1,0.5-0.2,1.1-0.3,1.6c-0.1,0.3-0.1,0.6-0.2,0.9c-0.1,0.5-0.2,1-0.2,1.6
	c0,0.3-0.1,0.6-0.1,0.9c-0.1,0.6-0.1,1.1-0.1,1.7c0,0.3,0,0.5-0.1,0.8c0,0.8-0.1,1.7-0.1,2.5c0,0.8,0,1.7,0.1,2.5
	c0,0.3,0,0.5,0.1,0.8c0,0.6,0.1,1.1,0.1,1.7c0,0.3,0.1,0.6,0.1,0.9c0.1,0.5,0.1,1,0.2,1.6c0,0.3,0.1,0.6,0.2,0.9
	c0.1,0.5,0.2,1.1,0.3,1.6c0.1,0.3,0.1,0.5,0.2,0.8c0.2,0.7,0.3,1.4,0.5,2.1c0,0.1,0,0.2,0.1,0.2c0.2,0.8,0.5,1.6,0.7,2.3
	c0.1,0.2,0.2,0.5,0.3,0.7c0.2,0.5,0.4,1.1,0.6,1.6c0.1,0.3,0.2,0.6,0.3,0.8c0.2,0.5,0.4,1,0.6,1.4c0.1,0.3,0.3,0.6,0.4,0.8
	c0.2,0.5,0.5,1,0.7,1.4c0.1,0.2,0.3,0.5,0.4,0.7c0.3,0.6,0.7,1.2,1,1.7c0.1,0.1,0.1,0.2,0.2,0.4c0.4,0.7,0.9,1.4,1.3,2
	c0.1,0.2,0.3,0.4,0.4,0.6c0.3,0.5,0.7,0.9,1,1.4c0.2,0.2,0.4,0.5,0.6,0.7c0.3,0.4,0.7,0.8,1,1.2c0.2,0.2,0.4,0.5,0.6,0.7
	c0.1,0.1,0.3,0.3,0.4,0.4c0.1-0.1,0.3-0.3,0.4-0.4c0.2-0.2,0.4-0.5,0.6-0.7c0.3-0.4,0.7-0.8,1-1.2c0.2-0.2,0.4-0.5,0.6-0.7
	c0.4-0.5,0.7-0.9,1-1.4c0.1-0.2,0.3-0.4,0.4-0.6c0.5-0.7,0.9-1.3,1.3-2c0.1-0.1,0.1-0.2,0.2-0.3c0.4-0.6,0.7-1.2,1-1.8
	c0.1-0.2,0.3-0.5,0.4-0.7c0.3-0.5,0.5-1,0.7-1.5c0.1-0.3,0.3-0.5,0.4-0.8c0.2-0.5,0.4-1,0.6-1.5c0.1-0.3,0.2-0.5,0.3-0.8
	c0.2-0.5,0.4-1.1,0.6-1.6c0.1-0.2,0.2-0.4,0.2-0.7c0.3-0.8,0.5-1.5,0.7-2.3c0-0.1,0-0.1,0.1-0.2c0.2-0.7,0.4-1.4,0.6-2.2
	c0.1-0.3,0.1-0.5,0.2-0.8c0.1-0.5,0.2-1.1,0.3-1.6c0.1-0.3,0.1-0.6,0.1-0.9c0.1-0.5,0.2-1.1,0.2-1.6c0-0.3,0.1-0.6,0.1-0.9
	c0.1-0.6,0.1-1.1,0.1-1.7c0-0.3,0-0.5,0.1-0.8C365.3,160,365.4,159.1,365.4,158.3z M387.8,110.8c-7.9,0-15.4,1.9-22.2,5.5
	c0.7,0.8,1.4,1.7,2.1,2.5c0.2,0.3,0.4,0.5,0.6,0.8c0.5,0.6,0.9,1.2,1.4,1.8c0.2,0.3,0.4,0.6,0.6,0.9c0.4,0.6,0.8,1.2,1.2,1.9
	c0.2,0.3,0.4,0.6,0.6,0.9c0.5,0.8,0.9,1.5,1.3,2.3c0.1,0.2,0.2,0.3,0.3,0.5c0.5,0.9,1,1.9,1.5,2.9c0.1,0.3,0.2,0.5,0.4,0.8
	c0.3,0.7,0.7,1.4,1,2.2c0.1,0.3,0.3,0.7,0.4,1c0.3,0.7,0.5,1.3,0.8,2c0.1,0.4,0.3,0.7,0.4,1.1c0.3,0.8,0.5,1.5,0.7,2.3
	c0.1,0.3,0.2,0.6,0.3,0.8c0.3,1,0.6,2.1,0.8,3.1c0,0.2,0.1,0.4,0.1,0.6c0.2,0.9,0.4,1.7,0.5,2.6c0.1,0.4,0.1,0.7,0.2,1.1
	c0.1,0.7,0.2,1.5,0.3,2.2c0,0.4,0.1,0.8,0.1,1.2c0.1,0.8,0.1,1.5,0.2,2.3c0,0.3,0.1,0.7,0.1,1c0.1,1.1,0.1,2.2,0.1,3.3
	c0,1.1,0,2.2-0.1,3.3c0,0.3,0,0.7-0.1,1c-0.1,0.8-0.1,1.5-0.2,2.3c0,0.4-0.1,0.8-0.1,1.2c-0.1,0.7-0.2,1.5-0.3,2.2
	c-0.1,0.4-0.1,0.7-0.2,1.1c-0.1,0.9-0.3,1.7-0.5,2.5c0,0.2-0.1,0.4-0.1,0.7c-0.2,1-0.5,2.1-0.8,3.1c-0.1,0.3-0.2,0.6-0.3,0.9
	c-0.2,0.7-0.5,1.5-0.7,2.2c-0.1,0.4-0.3,0.7-0.4,1.1c-0.2,0.7-0.5,1.3-0.8,2c-0.1,0.4-0.3,0.7-0.4,1.1c-0.3,0.7-0.6,1.4-0.9,2.1
	c-0.1,0.3-0.3,0.6-0.4,0.9c-0.5,1-0.9,1.9-1.5,2.8c-0.1,0.2-0.2,0.4-0.3,0.6c-0.4,0.7-0.8,1.5-1.3,2.2c-0.2,0.3-0.4,0.6-0.6,1
	c-0.4,0.6-0.8,1.2-1.2,1.8c-0.2,0.3-0.4,0.6-0.7,1c-0.4,0.6-0.9,1.2-1.3,1.8c-0.2,0.3-0.4,0.6-0.6,0.8c-0.7,0.8-1.3,1.7-2.1,2.5
	c0,0,0,0,0,0c0,0,0,0,0,0c6.8,3.6,14.3,5.5,22.2,5.5c26.2,0,47.6-21.3,47.6-47.6C435.4,132.1,414.1,110.8,387.8,110.8z M169.7,235.6
	H66.7c-4.5,0-8.1,3.6-8.1,8.1c0,4.5,3.6,8.1,8.1,8.1h102.9c4.5,0,8.1-3.6,8.1-8.1C177.7,239.2,174.1,235.6,169.7,235.6z M66.7,269.3
	c-4.5,0-8.1,3.6-8.1,8.1c0,4.5,3.6,8.1,8.1,8.1h102.9c4.5,0,8.1-3.6,8.1-8.1c0-4.5-3.6-8.1-8.1-8.1H66.7z M58.6,184.1v-68.4
	c0-8.4,6.8-15.2,15.2-15.2h87.8c8.4,0,15.2,6.8,15.2,15.2v68.4c0,8.4-6.8,15.2-15.2,15.2H73.8C65.4,199.3,58.6,192.5,58.6,184.1z
	 M145.2,128h15.4v-11.4h-15.4V128z M145.2,155.6h15.4v-11.4h-15.4V155.6z M110.3,183.1h50.3v-11.4h-23.5c-4.5,0-8.1-3.6-8.1-8.1v-47
	h-18.7h0V183.1z M74.8,128h19.4v-11.4H74.8V128z M74.8,155.6h19.4v-11.4H74.8V155.6z M74.8,183.1h19.4v-11.4H74.8V183.1z"/>
</svg>
