<?xml version="1.0" encoding="utf-8"?>
<!-- Generator: Adobe Illustrator 21.1.0, SVG Export Plug-In . SVG Version: 6.00 Build 0)  -->
<svg version="1.1" id="Layer_1" xmlns="http://www.w3.org/2000/svg" xmlns:xlink="http://www.w3.org/1999/xlink" x="0px" y="0px"
	 viewBox="0 0 480 480" style="enable-background:new 0 0 480 480;" xml:space="preserve">
<style type="text/css">
	.st0{fill:#474C53;}
</style>
<path class="st0" d="M56,416c-30.9,0-56,25.1-56,56c0,4.4,3.6,8,8,8h96c4.4,0,8-3.6,8-8C112,441.1,86.9,416,56,416z M16.8,464
	c3.2-15.6,15.6-27.9,31.2-31.1V448h16v-15.1c15.6,3.2,28,15.5,31.2,31.1H16.8z M472,344L472,344l-14,0c-0.4-1.1-0.9-2.2-1.4-3.3
	l9.9-9.9c3.1-3.1,3.1-8.2,0-11.3l-33.9-33.9c-1.7-1.7-3.8-2.4-6-2.3c12.7-6.7,21.4-19.9,21.4-35.2V40c0-22.1-17.9-40-40-40H40
	C17.9,0,0,17.9,0,40v208c0,22.1,17.9,40,40,40h104.4l-30.2,56H112h-12c-15.4,0-28,12.6-28,28s12.6,28,28,28h172c0,4.4,3.6,8,8,8h14
	c0.4,1.1,0.9,2.2,1.4,3.3l-9.9,9.9c-3.1,3.1-3.1,8.2,0,11.3l33.9,33.9c3.1,3.1,8.2,3.1,11.3,0l9.9-9.9c1.1,0.5,2.2,1,3.3,1.4v14
	c0,4.4,3.6,8,8,8h48c4.4,0,8-3.6,8-8v-14c1.1-0.4,2.2-0.9,3.3-1.4l9.9,9.9c3.1,3.1,8.2,3.1,11.3,0l33.9-33.9c3.1-3.1,3.1-8.2,0-11.3
	l-9.9-9.9c0.5-1.1,1-2.2,1.4-3.3h14c4.4,0,8-3.6,8-8v-48C480,347.6,476.4,344,472,344z M16,40c0-13.2,10.8-24,24-24h368
	c13.2,0,24,10.8,24,24v168H16V40z M40,272c-13.2,0-24-10.8-24-24v-24h416v24c0,13.2-10.8,24-24,24h-8h-48h-61.8H157.8H40z
	 M421.2,285.6l-9.8,9.8c-1.1-0.5-2.2-1-3.3-1.4v-6C412.6,288,417,287.1,421.2,285.6z M344,288v6c-1.1,0.4-2.2,0.9-3.3,1.4l-7.4-7.4
	H344z M316.9,288l-6.9,6.9l-4.7-6.9H316.9z M272,384H100c-6.6,0-12-5.4-12-12c0-6.6,5.4-12,12-12h12h6.9H272V384z M132.4,344
	l30.2-56H286l12.5,18.4l-13,13c-3.1,3.1-3.1,8.2,0,11.3l9.9,9.9c-0.5,1.1-1,2.2-1.4,3.3h-14H132.4z M464,392h-11.7
	c-3.5,0-6.6,2.3-7.6,5.6c-1.2,3.9-2.9,7.8-4.9,11.7c-1.6,3.1-1,6.9,1.4,9.4l8.3,8.3l-22.6,22.6l-8.3-8.3c-2.5-2.5-6.3-3-9.4-1.4
	c-3.9,2-7.8,3.7-11.7,4.9c-3.3,1.1-5.6,4.1-5.6,7.6V464h-32v-11.7c0-3.5-2.3-6.6-5.6-7.6c-3.9-1.2-7.8-2.9-11.7-4.9
	c-3.1-1.6-6.9-1-9.4,1.4l-8.3,8.3l-22.6-22.6l8.3-8.3c2.5-2.5,3.1-6.3,1.4-9.4c-2-3.9-3.7-7.8-4.9-11.7c-1.1-3.3-4.1-5.6-7.6-5.6
	H288v-32h11.7c3.5,0,6.6-2.3,7.6-5.6c1.2-3.9,2.9-7.8,4.9-11.7c1.6-3.1,1-6.9-1.4-9.4l-8.3-8.3l22.6-22.6l8.3,8.3
	c2.5,2.5,6.3,3.1,9.4,1.4c3.9-2,7.8-3.7,11.7-4.9c3.3-1.1,5.6-4.1,5.6-7.6V288h32v11.7c0,3.5,2.3,6.6,5.6,7.6
	c3.9,1.2,7.8,2.9,11.7,4.9c3.1,1.6,6.9,1,9.4-1.4l8.3-8.3l22.6,22.6l-8.3,8.3c-2.5,2.5-3.1,6.3-1.4,9.4c2,3.9,3.7,7.8,4.9,11.7
	c1.1,3.3,4.1,5.6,7.6,5.6H464V392z M376,328c-26.5,0-48,21.5-48,48s21.5,48,48,48s48-21.5,48-48S402.5,328,376,328z M376,408
	c-17.6,0-32-14.4-32-32s14.4-32,32-32s32,14.4,32,32S393.6,408,376,408z M157.7,61.7L107.3,112l50.3,50.3l-11.3,11.3l-56-56
	c-3.1-3.1-3.1-8.2,0-11.3l56-56L157.7,61.7z M333.7,106.3c3.1,3.1,3.1,8.2,0,11.3l-56,56l-11.3-11.3l50.3-50.3l-50.3-50.3l11.3-11.3
	L333.7,106.3z M240.8,28.5l14.3,7.2l-72,144l-14.3-7.2L240.8,28.5z M312,160h16v16h-16V160z M344,160h16v16h-16V160z M376,160h16v16
	h-16V160z"/>
</svg>
