<?xml version="1.0" encoding="utf-8"?>
<!-- Generator: Adobe Illustrator 21.1.0, SVG Export Plug-In . SVG Version: 6.00 Build 0)  -->
<svg version="1.1" id="Layer_1" xmlns="http://www.w3.org/2000/svg" xmlns:xlink="http://www.w3.org/1999/xlink" x="0px" y="0px"
	 viewBox="0 0 512 512" style="enable-background:new 0 0 512 512;" xml:space="preserve">
<style type="text/css">
	.st0{fill:#3434BB;}
</style>
<path class="st0" d="M230.4,443.7c0,5.1-3.4,8.5-8.5,8.5s-8.5-3.4-8.5-8.5c0-5.1,3.4-8.5,8.5-8.5S230.4,438.6,230.4,443.7z
	 M426.7,477.9c-5.1,0-8.5,3.4-8.5,8.5c0,5.1,3.4,8.5,8.5,8.5s8.5-3.4,8.5-8.5C435.2,481.3,431.8,477.9,426.7,477.9z M93.9,34.1
	c5.1,0,8.5-3.4,8.5-8.5s-3.4-8.5-8.5-8.5s-8.5,3.4-8.5,8.5S88.7,34.1,93.9,34.1z M307.2,85.3c5.1,0,8.5-3.4,8.5-8.5
	s-3.4-8.5-8.5-8.5s-8.5,3.4-8.5,8.5S302.1,85.3,307.2,85.3z M426.7,42.7c0-5.1,3.4-8.5,8.5-8.5c14.5,0,25.6-11.1,25.6-25.6
	c0-5.1,3.4-8.5,8.5-8.5c5.1,0,8.5,3.4,8.5,8.5c0,14.5,11.1,25.6,25.6,25.6c5.1,0,8.5,3.4,8.5,8.5s-3.4,8.5-8.5,8.5
	c-14.5,0-25.6,11.1-25.6,25.6c0,5.1-3.4,8.5-8.5,8.5s-8.5-3.4-8.5-8.5c0-14.5-11.1-25.6-25.6-25.6C430.1,51.2,426.7,47.8,426.7,42.7
	z M460.8,42.7c3.4,2.6,6,5.1,8.5,8.5c2.6-3.4,5.1-6,8.5-8.5c-3.4-2.6-6-5.1-8.5-8.5C466.8,37.5,464.2,40.1,460.8,42.7z M102.4,460.8
	c0,5.1-3.4,8.5-8.5,8.5H80.2l-20.5,20.5v13.7c0,5.1-3.4,8.5-8.5,8.5s-8.5-3.4-8.5-8.5v-13.7l-20.5-20.5H8.5c-5.1,0-8.5-3.4-8.5-8.5
	s3.4-8.5,8.5-8.5h13.7l20.5-20.5v-13.7c0-5.1,3.4-8.5,8.5-8.5s8.5,3.4,8.5,8.5v13.7l20.5,20.5h13.7
	C99,452.3,102.4,455.7,102.4,460.8z M64.9,460.8l-13.7-13.7l-13.7,13.7l13.7,13.7L64.9,460.8z M512,253.4c0,1.7,0,3.4,0,5.1
	c0,0.1-0.1,0.2-0.2,0.5c-1.1,2.6-5.7,14.4-19.8,29.2c-0.1,0.1-0.2,0.2-0.2,0.2c-0.2,0.2-0.3,0.3-0.5,0.5
	c-11.9,12.5-30.4,27.2-58.7,40.4c-29,13.7-62.3,22.2-98.1,25.6c-19.6,1.7-40.1,2.6-60.6,2.6c-3.4,0-14.6,0-29.3-0.8
	c-6.1,8.5-35.9,44.3-99.5,44.3h-34.1c-6.8,0-11.9-3.4-15.4-9.4c-1.7-2.6-2.6-5.1-2.6-7.7c0-3.4,0.9-6.8,3.4-10.2l35.8-51.4
	c-4.5-5.6-10-14.1-14.2-26.1c-17.1,13.8-42,15-61.7,2.4l-52.9-35C1.7,261.1,0,258.6,0,256s1.7-5.1,3.4-6.8l52.9-35.8
	c18.6-12.4,42.8-11.4,60.5,1.6c4.2-12.5,9.9-21.3,14.5-27l-34-48.9c-2.6-4.3-4.3-7.7-4.3-11.1c0-2.6,0.9-5.1,1.7-7.7
	c3.4-6,8.5-9.4,15.4-9.4h34.1c60.7,0,90.7,32.6,98.5,43.5c15.4-0.8,27.1-0.8,30.3-0.8c20.5,0,41,0.9,60.6,2.6
	c35.8,3.4,69.1,11.9,98.1,25.6C498.3,213.3,511.1,251.7,512,253.4z M144.5,175.9c17.9-11.8,50.1-17.3,77.9-20
	c-12-11.9-36.7-27.9-77.4-27.9h-34.1L144.5,175.9z M106.7,284.2c-18.3-7.2-28.4-15.8-29.7-25.9c0-0.1,0-0.1,0-0.2
	c0-0.3-0.1-0.5-0.1-0.8c0-0.1,0-0.2,0-0.2c0-0.3,0-0.7,0-1.1s0-0.7,0-1.1c0-0.1,0-0.2,0-0.2c0-0.3,0-0.5,0.1-0.8c0-0.1,0-0.1,0-0.2
	c1.1-8.6,8.6-16,22-21.4c2.4-1,5-1.9,7.7-2.8c-11.1-9.3-28.1-10.1-40.9-0.8l-41.8,28.2L65.7,285h0
	C78.5,293.5,95.6,292.7,106.7,284.2z M162.1,272.2c43,0,66.7-12,68.2-16.6c-1.5-4.6-25.2-16.6-68.2-16.6c-24.8,0-43.2,4-54.6,8.3
	c-10.6,4.1-13.6,8.2-13.6,8.8c0,0.5,2.2,3.5,9,6.9c4.5,2.1,10.7,4.2,18.6,6c0.5-0.1,1-0.1,1.4-0.1
	C134.8,271.4,148.5,272.2,162.1,272.2z M221.9,355.8c-36.7-3.4-62.3-10.2-77.7-20.5L110.1,384h34.1
	C185.2,384,209.9,367.8,221.9,355.8z M418.1,256c0-19.5,4.9-38.3,14.2-54c-2.6-1.3-5.3-2.7-8.2-4c-27.3-12.8-58.9-21.3-92.2-24.7v0
	c-18.8-1.7-39.3-2.6-58.9-2.6c-7.8,0-19.5,0.3-32.8,1.1c-0.8,0.6-1.6,0.6-3.1,0.6c-43.5,3.4-75.1,11.1-86.2,22.2l-0.9,0.9l-0.9,0.9
	c-0.9,0.9-2,1.5-3.3,2c-3.7,4.3-9.2,12.4-13,25.3c2.5-0.2,5.1-0.5,7.9-0.7c7-0.7,14.1-1,21.1-1c41,0,85.3,11.1,85.3,34.1
	c0,23-44.4,34.1-85.3,34.1c-6.3,0-12.6-0.3-18.8-0.8c-3.8-0.3-7.5-0.6-11-0.9c4.5,15.3,11.8,24,15.2,27.3c0.4,0.2,0.7,0.5,1,0.8
	l0.9,0.9l0.9,0.9c20.5,19.6,95.6,23,122.9,23c20.5,0,40.1-0.9,58.9-2.6c34.1-3.4,64.9-11.1,92.2-24.7c2.8-1.3,5.6-2.7,8.2-4
	C423,294.3,418.1,275.5,418.1,256z M493.3,254.5c-2-3.7-5.7-9.6-12.1-16.7c-7.3-8.2-18.3-17.9-34.2-27.6
	c-7.6,13.6-11.8,28.9-11.8,45.8s4.2,32.2,11.8,45.8c16-9.8,26.9-19.5,34.2-27.6c6.4-7.1,10.1-13.1,12.1-16.7c0,0,0-0.1,0.1-0.1
	c0.1-0.2,0.2-0.4,0.3-0.6c0.1-0.3,0.3-0.5,0.4-0.7c-0.1-0.2-0.2-0.5-0.4-0.7c-0.1-0.2-0.2-0.4-0.3-0.6
	C493.4,254.6,493.3,254.6,493.3,254.5z M401.1,256c0,37.5-30.7,68.3-68.3,68.3s-68.3-30.7-68.3-68.3s30.7-68.3,68.3-68.3
	S401.1,218.5,401.1,256z M384,256c0-28.2-23-51.2-51.2-51.2c-28.2,0-51.2,23-51.2,51.2c0,28.2,23,51.2,51.2,51.2
	C361,307.2,384,284.2,384,256z M366.9,256c0,18.8-15.4,34.1-34.1,34.1s-34.1-15.4-34.1-34.1s15.4-34.1,34.1-34.1
	S366.9,237.2,366.9,256z M349.9,256c0-9.4-7.7-17.1-17.1-17.1c-9.4,0-17.1,7.7-17.1,17.1c0,9.4,7.7,17.1,17.1,17.1
	C342.2,273.1,349.9,265.4,349.9,256z"/>
</svg>
