<?xml version="1.0" encoding="utf-8"?>
<!-- Generator: Adobe Illustrator 21.1.0, SVG Export Plug-In . SVG Version: 6.00 Build 0)  -->
<svg version="1.1" id="Layer_1" xmlns="http://www.w3.org/2000/svg" xmlns:xlink="http://www.w3.org/1999/xlink" x="0px" y="0px"
	 viewBox="0 0 496 496" style="enable-background:new 0 0 496 496;" xml:space="preserve">
<style type="text/css">
	.st0{fill:#474C53;}
</style>
<path class="st0" d="M456,232L456,232c0-22.1-17.9-40-40-40H295.1l108.2-37.9c9.9,8.6,22.7,13.9,36.8,13.9c30.9,0,56-25.1,56-56
	s-25.1-56-56-56s-56,25.1-56,56c0,10.6,3,20.6,8.2,29l-124.3,43.5l48.5-72.8C345.2,109.5,368,85.4,368,56c0-30.9-25.1-56-56-56
	s-56,25.1-56,56c0,26.1,18,48.1,42.2,54.2L248,185.6l-50.2-75.4C222,104.1,240,82.1,240,56c0-30.9-25.1-56-56-56
	c-30.9,0-56,25.1-56,56c0,29.4,22.8,53.5,51.6,55.8l48.5,72.8L103.8,141c5.2-8.5,8.2-18.4,8.2-29c0-30.9-25.1-56-56-56
	C25.1,56,0,81.1,0,112s25.1,56,56,56c14.1,0,26.9-5.3,36.8-13.9L200.9,192H80c-22.1,0-40,17.9-40,40v200H0v24c0,22.1,17.9,40,40,40
	h416c22.1,0,40-17.9,40-40v-24h-40V232z M440,72c22.1,0,40,17.9,40,40c0,22.1-17.9,40-40,40c-22.1,0-40-17.9-40-40
	C400,89.9,417.9,72,440,72z M272,56c0-22.1,17.9-40,40-40c22.1,0,40,17.9,40,40c0,13-6.3,24.5-16,31.8V72h-16V56h16V40h-16V24h-16
	v16h-16v16h16v32h31.8c-6.7,5-14.8,8-23.8,8C289.9,96,272,78.1,272,56z M144,56c0-22.1,17.9-40,40-40c22.1,0,40,17.9,40,40
	c0,22.1-17.9,40-40,40C161.9,96,144,78.1,144,56z M56,152c-22.1,0-40-17.9-40-40c0-22.1,17.9-40,40-40c8.9,0,17.1,3,23.8,8H48v32H32
	v16h16v16h16v-16h16v-16H64V96h16V80.2C89.7,87.5,96,99,96,112C96,134.1,78.1,152,56,152z M56,232c0-13.2,10.8-24,24-24h336
	c13.2,0,24,10.8,24,24v200h-16V224H72v208H56V232z M88,432V240h320v192H88z M280,448v8h-64v-8H280z M480,448v8c0,13.2-10.8,24-24,24
	H40c-13.2,0-24-10.8-24-24v-8h184v24h96v-24H480z M301.7,289.4l-17.4-34.8L248,264l-36.3-9.4l-17.4,34.8l-28.3,9.3l9.7,37.2
	l-9.7,37.2l28.3,9.3l17.4,34.8L248,408l36.3,9.4l17.4-34.8l28.3-9.3l-9.7-37.2l9.7-37.2L301.7,289.4z M310.7,362.8l-20.3,6.7
	l-14.6,29.2l-27.7-7.2l-27.7,7.2l-14.6-29.2l-20.3-6.7l6.9-26.8l-6.9-26.8l20.3-6.7l14.6-29.2l27.7,7.2l27.7-7.2l14.6,29.2l20.3,6.7
	l-6.9,26.8L310.7,362.8z M275.2,305.6l9.6,12.8l-64,48l-9.6-12.8L275.2,305.6z M218.3,317.7c-3.1-3.1-3.1-8.2,0-11.3
	c3.1-3.1,8.2-3.1,11.3,0c3.1,3.1,3.1,8.2,0,11.3C226.5,320.8,221.5,320.8,218.3,317.7z M277.7,354.3c3.1,3.1,3.1,8.2,0,11.3
	c-3.1,3.1-8.2,3.1-11.3,0c-3.1-3.1-3.1-8.2,0-11.3C269.5,351.2,274.5,351.2,277.7,354.3z M208,44v4h-16v-4c0-2.2-1.8-4-4-4h-8
	c-2.2,0-4,1.8-4,4s1.8,4,4,4h8c11,0,20,9,20,20s-9,20-20,20h-8c-11,0-20-9-20-20v-4h16v4c0,2.2,1.8,4,4,4h8c2.2,0,4-1.8,4-4
	s-1.8-4-4-4h-8c-11,0-20-9-20-20s9-20,20-20h8C199,24,208,33,208,44z M440,128h8c13.2,0,24-10.8,24-24s-10.8-24-24-24h-24v64h16V128
	z M440,96h8c4.4,0,8,3.6,8,8s-3.6,8-8,8h-8V96z"/>
</svg>
