<?xml version="1.0" encoding="utf-8"?>
<!-- Generator: Adobe Illustrator 21.1.0, SVG Export Plug-In . SVG Version: 6.00 Build 0)  -->
<svg version="1.1" id="Layer_1" xmlns="http://www.w3.org/2000/svg" xmlns:xlink="http://www.w3.org/1999/xlink" x="0px" y="0px"
	 viewBox="0 0 496 496" style="enable-background:new 0 0 496 496;" xml:space="preserve">
<style type="text/css">
	.st0{fill:#474C53;}
</style>
<path class="st0" d="M64,0C28.7,0,0,28.7,0,64c0,35.3,28.7,64,64,64s64-28.7,64-64S99.3,0,64,0z M64,112c-26.5,0-48-21.5-48-48
	s21.5-48,48-48s48,21.5,48,48S90.5,112,64,112z M88,52v4H72v-4c0-2.2-1.8-4-4-4h-8c-2.2,0-4,1.8-4,4s1.8,4,4,4h8c11,0,20,9,20,20
	c0,9.7-6.9,17.7-16,19.6v8.4H56v-8.4c-9.1-1.9-16-9.9-16-19.6v-4h16v4c0,2.2,1.8,4,4,4h8c2.2,0,4-1.8,4-4s-1.8-4-4-4h-8
	c-11,0-20-9-20-20c0-9.7,6.9-17.7,16-19.6V24h16v8.4C81.1,34.3,88,42.3,88,52z M408,160c-11.7,0-22.9,3.3-32.8,9.2
	c-3.6-3.7-8.2-6.4-13.3-7.9l13.1-13.1c5.8-5.8,9-13.5,9-21.7c0-14.6-10.3-26.8-24-29.9V56c0-13.2-10.8-24-24-24H192
	c-13.2,0-24,10.8-24,24v166.4c-5.2-3.7-11.4-6-18.1-6.4c-9.9-0.5-19.5,3-26.7,9.8c-7.1,6.8-11.2,16.3-11.2,26.1v76.6
	c0,27.5,12.3,53.1,33.8,70.2l6.2,5V496h16v-99.8l-12.2-9.8c-17.6-14.1-27.8-35.2-27.8-57.7V252c0-5.5,2.2-10.7,6.2-14.5
	c4-3.8,9.3-5.8,14.8-5.5c10.4,0.5,18.9,10.2,18.9,21.6V296v32c0,13.2,10.8,24,24,24h115.9c5.2,9.5,15.2,16,26.7,16
	c0.5,0,0.9-0.1,1.4-0.1v14.2c0,19.8-7.7,38.3-21.7,52.3l-2.3,2.3V496h16v-52.8c15.5-16.7,24-38.3,24-61.2v-19.5c1.5-1,3-2.2,4.3-3.5
	l18.8-18.8c5.8-5.8,9-13.5,9-21.6c0-13.9-9.4-25.5-22.1-29.3l11.6-11.6c10.2,6.6,22.2,10.2,34.5,10.2c35.3,0,64-28.7,64-64
	C472,188.7,443.3,160,408,160z M368,190.6c0,3.8-1.6,7.6-4.3,10.3L345,219.7c-2.7,2.7-6.5,4.3-10.3,4.3c-8.1,0-14.6-6.6-14.6-14.6
	c0-3.8,1.6-7.6,4.3-10.3l18.8-18.8c2.7-2.7,6.5-4.3,10.3-4.3C361.4,176,368,182.6,368,190.6z M353.4,112c8.1,0,14.6,6.6,14.6,14.6
	c0,3.8-1.6,7.6-4.3,10.3L345,155.7c-2.7,2.7-6.5,4.3-10.3,4.3c-8.1,0-14.6-6.6-14.6-14.6c0-3.8,1.6-7.6,4.3-10.3l18.8-18.8
	C345.8,113.6,349.5,112,353.4,112z M184,56c0-4.4,3.6-8,8-8h144c4.4,0,8,3.6,8,8v8H184V56z M184,253.6V80h160v17.6
	c-4.6,1.5-8.8,3.9-12.3,7.4L313,123.7c-5.4,5.4-8.5,12.6-8.8,20.3H296v-32h-16v32h-32v-32h-16v32h-32v64c0,17.6,14.4,32,32,32h64
	c7.2,0,14.1-2.5,19.6-6.8c3.1,2.5,6.6,4.3,10.5,5.4L313,251.7c-5.8,5.8-9,13.5-9,21.7c0,9,4,17,10.2,22.6H184V253.6z M306.1,220.3
	c-2.8,2.3-6.4,3.7-10.1,3.7h-64c-8.8,0-16-7.2-16-16v-48h16v16h16v-16h32v16h16v-16h11.9c1.2,2.1,2.5,4.1,4.1,5.8v23.1
	c-5.1,5.6-8,12.8-8,20.5C304,213.2,304.8,216.9,306.1,220.3z M313,315.7c-5.4,5.4-8.5,12.6-8.8,20.3H192c-4.4,0-8-3.6-8-8v-16h132.7
	L313,315.7z M368,318.6c0,3.8-1.6,7.6-4.3,10.3L345,347.7c-2.7,2.7-6.5,4.3-10.3,4.3c-8.1,0-14.6-6.6-14.6-14.6
	c0-3.8,1.6-7.6,4.3-10.3l18.8-18.8c2.7-2.7,6.5-4.3,10.3-4.3C361.4,304,368,310.6,368,318.6z M363.7,265L345,283.7
	c-2.7,2.7-6.5,4.3-10.3,4.3c-8.1,0-14.6-6.6-14.6-14.6c0-3.8,1.6-7.6,4.3-10.3l18.8-18.8c2.7-2.7,6.5-4.3,10.3-4.3
	c8.1,0,14.6,6.6,14.6,14.6C368,258.5,366.4,262.2,363.7,265z M408,272c-9.2,0-18-2.8-25.7-7.6c1-3.1,1.7-6.4,1.7-9.7
	c0-13.9-9.4-25.5-22.1-29.3l13.1-13.1c5.8-5.8,9-13.5,9-21.7c0-2.6-0.4-5-1-7.4c7.5-4.7,16-7.2,25-7.2c26.5,0,48,21.5,48,48
	S434.5,272,408,272z M432,212v4h-16v-4c0-2.2-1.8-4-4-4h-8c-2.2,0-4,1.8-4,4s1.8,4,4,4h8c11,0,20,9,20,20c0,9.7-6.9,17.7-16,19.6
	v8.4h-16v-8.4c-9.1-1.9-16-9.9-16-19.6v-4h16v4c0,2.2,1.8,4,4,4h8c2.2,0,4-1.8,4-4s-1.8-4-4-4h-8c-11,0-20-9-20-20
	c0-9.7,6.9-17.7,16-19.6V184h16v8.4C425.1,194.3,432,202.3,432,212z M56,192h16v16H56V192z M41.4,220.7L30,209.4l11.3-11.3
	l11.3,11.3L41.4,220.7z M24,224h16v16H24V224z M41.4,243.3l11.3,11.3l-11.3,11.3l-11.3-11.3L41.4,243.3z M56,256h16v16H56V256z
	 M86.6,243.3l11.3,11.3l-11.3,11.3l-11.3-11.3L86.6,243.3z M88,224h16v16H88V224z M86.6,220.7l-11.3-11.3L86.6,198l11.3,11.3
	L86.6,220.7z M464,16h-16V0h16V16z M433.4,28.7L422,17.4l11.3-11.3l11.3,11.3L433.4,28.7z M432,48h-16V32h16V48z M433.4,51.3
	l11.3,11.3L433.4,74L422,62.6L433.4,51.3z M464,80h-16V64h16V80z M478.6,51.3l11.3,11.3l-11.3,11.3l-11.3-11.3L478.6,51.3z M496,32
	v16h-16V32H496z M478.6,28.7l-11.3-11.3l11.3-11.3l11.3,11.3L478.6,28.7z"/>
</svg>
