<?xml version="1.0" encoding="utf-8"?>
<!-- Generator: Adobe Illustrator 21.1.0, SVG Export Plug-In . SVG Version: 6.00 Build 0)  -->
<svg version="1.1" id="Layer_4" xmlns="http://www.w3.org/2000/svg" xmlns:xlink="http://www.w3.org/1999/xlink" x="0px" y="0px"
	 viewBox="0 0 517 207.1" style="enable-background:new 0 0 517 207.1;" xml:space="preserve">
<style type="text/css">
	.st0{fill:#ABB4BB;}
	.st1{fill:#474C53;}
	.st2{fill:#FFFFFF;}
	.st3{fill:#464F56;}
	.st4{enable-background:new    ;}
	.st5{fill:#25258D;}
	.st6{fill:none;stroke:#464F56;stroke-width:1.9967;stroke-miterlimit:10;}
</style>
<path class="st0" d="M480.5,142c-0.6,0-1-0.4-1-1v-13.9c0-0.6,0.4-1,1-1s1,0.4,1,1V141C481.5,141.5,481.1,142,480.5,142z"/>
<path class="st1" d="M475,131.8c0-0.7-0.3-1.4-0.9-1.9l1-0.5l1,0.5c1.6,0.8,3.5,1.8,5.7,2.9l0.5,0.3l1.4-1.8l-6.2-3.3l6.2-3.3
	l-1.4-1.8l-0.5,0.3c-2.2,1.1-4.1,2.1-5.7,2.9l-1,0.5l-1-0.5c0.6-0.5,0.9-1.1,0.9-1.9c0-1.5-1.5-2.6-3.3-2.6s-3.3,1.2-3.3,2.6
	s0.8,2,3.9,3.7c-3.1,1.6-3.9,2.3-3.9,3.7c0,1.5,1.5,2.6,3.3,2.6C473.5,134.4,475,133.3,475,131.8 M470.4,124.4
	c0-0.6,0.6-1.1,1.3-1.1c0.7,0,1.3,0.5,1.3,1.1s-0.6,1.1-1.3,1.1S470.4,125,470.4,124.4 M470.4,131.8c0-0.6,0.6-1.1,1.3-1.1
	c0.7,0,1.3,0.5,1.3,1.1s-0.6,1.1-1.3,1.1C471,132.9,470.4,132.4,470.4,131.8"/>
<path class="st0" d="M480.5,129.1c-0.6,0-1-0.4-1-1v-14.8c0-0.6,0.4-1,1-1s1,0.4,1,1v14.8C481.5,128.7,481.1,129.1,480.5,129.1z"/>
<path class="st0" d="M48.5,142c-0.6,0-1-0.4-1-1v-12.9c0-0.6,0.4-1,1-1s1,0.4,1,1V141C49.5,141.5,49.1,142,48.5,142z"/>
<path class="st1" d="M57.3,134.4c1.8,0,3.3-1.2,3.3-2.6c0-1.4-0.8-2-3.9-3.7c3.1-1.6,3.9-2.3,3.9-3.7c0-1.5-1.5-2.6-3.3-2.6
	S54,123,54,124.4c0,0.7,0.3,1.4,0.9,1.9l-1,0.5l-1-0.5c-1.6-0.8-3.5-1.8-5.7-2.9l-0.5-0.3l-1.4,1.8l6.2,3.3l-6.2,3.3l1.4,1.8
	l0.5-0.3c2.2-1.1,4.1-2.1,5.7-2.9l1-0.5l1,0.5c-0.6,0.5-0.9,1.1-0.9,1.9C54.1,133.3,55.5,134.4,57.3,134.4 M57.3,125.5
	c-0.7,0-1.3-0.5-1.3-1.1s0.6-1.1,1.3-1.1s1.3,0.5,1.3,1.1S58,125.5,57.3,125.5 M57.3,132.9c-0.7,0-1.3-0.5-1.3-1.1s0.6-1.1,1.3-1.1
	s1.3,0.5,1.3,1.1S58,132.9,57.3,132.9"/>
<path class="st0" d="M48.5,129.1c-0.6,0-1-0.4-1-1v-14.8c0-0.6,0.4-1,1-1s1,0.4,1,1v14.8C49.5,128.7,49.1,129.1,48.5,129.1z"/>
<path class="st0" d="M132.2,173.6v-2.5H83.8c-0.6,0-1-0.4-1-1s0.4-1,1-1h48.3v-2.5l6,3.5L132.2,173.6z"/>
<path class="st2" d="M129.5,114.6H4.2c-1,0-1.9-0.8-1.9-1.9V16.4c0-1,0.8-1.9,1.9-1.9h125.3c1,0,1.9,0.8,1.9,1.9v96.3
	C131.3,113.7,130.5,114.6,129.5,114.6"/>
<path class="st0" d="M129.5,115.6h-2.7c-0.6,0-1-0.4-1-1s0.4-1,1-1h2.7c0.6,0,1,0.4,1,1S130,115.6,129.5,115.6z M120.1,115.6h-2.7
	c-0.6,0-1-0.4-1-1s0.4-1,1-1h2.7c0.6,0,1,0.4,1,1S120.7,115.6,120.1,115.6z M110.8,115.6h-2.7c-0.6,0-1-0.4-1-1s0.4-1,1-1h2.7
	c0.6,0,1,0.4,1,1S111.4,115.6,110.8,115.6z M101.5,115.6h-2.7c-0.6,0-1-0.4-1-1s0.4-1,1-1h2.7c0.6,0,1,0.4,1,1
	S102.1,115.6,101.5,115.6z M92.2,115.6h-2.7c-0.6,0-1-0.4-1-1s0.4-1,1-1h2.7c0.6,0,1,0.4,1,1S92.7,115.6,92.2,115.6z M82.9,115.6
	h-2.7c-0.6,0-1-0.4-1-1s0.4-1,1-1h2.7c0.6,0,1,0.4,1,1S83.4,115.6,82.9,115.6z M73.5,115.6h-2.7c-0.6,0-1-0.4-1-1s0.4-1,1-1h2.7
	c0.6,0,1,0.4,1,1S74.1,115.6,73.5,115.6z M64.2,115.6h-2.7c-0.6,0-1-0.4-1-1s0.4-1,1-1h2.7c0.6,0,1,0.4,1,1S64.8,115.6,64.2,115.6z
	 M54.9,115.6h-2.7c-0.6,0-1-0.4-1-1s0.4-1,1-1h2.7c0.6,0,1,0.4,1,1S55.5,115.6,54.9,115.6z M45.6,115.6h-2.7c-0.6,0-1-0.4-1-1
	s0.4-1,1-1h2.7c0.6,0,1,0.4,1,1S46.1,115.6,45.6,115.6z M36.3,115.6h-2.7c-0.6,0-1-0.4-1-1s0.4-1,1-1h2.7c0.6,0,1,0.4,1,1
	S36.8,115.6,36.3,115.6z M27,115.6h-2.7c-0.6,0-1-0.4-1-1s0.4-1,1-1H27c0.6,0,1,0.4,1,1S27.5,115.6,27,115.6z M17.6,115.6H15
	c-0.6,0-1-0.4-1-1s0.4-1,1-1h2.7c0.6,0,1,0.4,1,1S18.2,115.6,17.6,115.6z M8.3,115.6H5.6c-0.6,0-1-0.4-1-1s0.4-1,1-1h2.7
	c0.6,0,1,0.4,1,1S8.9,115.6,8.3,115.6z M131.3,111.7c-0.6,0-1-0.4-1-1V108c0-0.6,0.4-1,1-1s1,0.4,1,1v2.7
	C132.3,111.2,131.9,111.7,131.3,111.7z M2.3,111.5c-0.6,0-1-0.4-1-1v-2.7c0-0.6,0.4-1,1-1s1,0.4,1,1v2.7
	C3.3,111,2.9,111.5,2.3,111.5z M131.3,102.4c-0.6,0-1-0.4-1-1v-2.7c0-0.6,0.4-1,1-1s1,0.4,1,1v2.7
	C132.3,101.9,131.9,102.4,131.3,102.4z M2.3,102.1c-0.6,0-1-0.4-1-1v-2.7c0-0.6,0.4-1,1-1s1,0.4,1,1v2.7
	C3.3,101.7,2.9,102.1,2.3,102.1z M131.3,93c-0.6,0-1-0.4-1-1v-2.7c0-0.6,0.4-1,1-1s1,0.4,1,1V92C132.3,92.6,131.9,93,131.3,93z
	 M2.3,92.8c-0.6,0-1-0.4-1-1v-2.7c0-0.6,0.4-1,1-1s1,0.4,1,1v2.7C3.3,92.4,2.9,92.8,2.3,92.8z M131.3,83.7c-0.6,0-1-0.4-1-1V80
	c0-0.6,0.4-1,1-1s1,0.4,1,1v2.7C132.3,83.3,131.9,83.7,131.3,83.7z M2.3,83.5c-0.6,0-1-0.4-1-1v-2.7c0-0.6,0.4-1,1-1s1,0.4,1,1v2.7
	C3.3,83.1,2.9,83.5,2.3,83.5z M131.3,74.4c-0.6,0-1-0.4-1-1v-2.7c0-0.6,0.4-1,1-1s1,0.4,1,1v2.7C132.3,74,131.9,74.4,131.3,74.4z
	 M2.3,74.2c-0.6,0-1-0.4-1-1v-2.7c0-0.6,0.4-1,1-1s1,0.4,1,1v2.7C3.3,73.7,2.9,74.2,2.3,74.2z M131.3,65.1c-0.6,0-1-0.4-1-1v-2.7
	c0-0.6,0.4-1,1-1s1,0.4,1,1v2.7C132.3,64.6,131.9,65.1,131.3,65.1z M2.3,64.9c-0.6,0-1-0.4-1-1v-2.7c0-0.6,0.4-1,1-1s1,0.4,1,1v2.7
	C3.3,64.4,2.9,64.9,2.3,64.9z M131.3,55.8c-0.6,0-1-0.4-1-1v-2.7c0-0.6,0.4-1,1-1s1,0.4,1,1v2.7C132.3,55.3,131.9,55.8,131.3,55.8z
	 M2.3,55.5c-0.6,0-1-0.4-1-1v-2.7c0-0.6,0.4-1,1-1s1,0.4,1,1v2.7C3.3,55.1,2.9,55.5,2.3,55.5z M131.3,46.5c-0.6,0-1-0.4-1-1v-2.7
	c0-0.6,0.4-1,1-1s1,0.4,1,1v2.7C132.3,46,131.9,46.5,131.3,46.5z M2.3,46.2c-0.6,0-1-0.4-1-1v-2.7c0-0.6,0.4-1,1-1s1,0.4,1,1v2.7
	C3.3,45.8,2.9,46.2,2.3,46.2z M131.3,37.1c-0.6,0-1-0.4-1-1v-2.7c0-0.6,0.4-1,1-1s1,0.4,1,1v2.7C132.3,36.7,131.9,37.1,131.3,37.1z
	 M2.3,36.9c-0.6,0-1-0.4-1-1v-2.7c0-0.6,0.4-1,1-1s1,0.4,1,1v2.7C3.3,36.5,2.9,36.9,2.3,36.9z M131.3,27.8c-0.6,0-1-0.4-1-1v-2.7
	c0-0.6,0.4-1,1-1s1,0.4,1,1v2.7C132.3,27.4,131.9,27.8,131.3,27.8z M2.3,27.6c-0.6,0-1-0.4-1-1v-2.7c0-0.6,0.4-1,1-1s1,0.4,1,1v2.7
	C3.3,27.1,2.9,27.6,2.3,27.6z M131.3,18.5c-0.6,0-1-0.4-1-1v-1.1c0-0.2-0.1-0.5-0.3-0.7c-0.4-0.4-0.4-1-0.1-1.4
	c0.4-0.4,1-0.4,1.4-0.1c0.6,0.5,1,1.3,1,2.2v1.1C132.3,18.1,131.9,18.5,131.3,18.5z M2.3,18.3c-0.6,0-1-0.4-1-1v-0.9
	c0-0.9,0.5-1.8,1.2-2.4c0.5-0.3,1.1-0.2,1.4,0.2c0.3,0.5,0.2,1.1-0.2,1.4c-0.2,0.2-0.4,0.4-0.4,0.7v0.9C3.3,17.8,2.9,18.3,2.3,18.3z
	 M124.2,15.5h-2.7c-0.6,0-1-0.4-1-1s0.4-1,1-1h2.7c0.6,0,1,0.4,1,1S124.7,15.5,124.2,15.5z M114.9,15.5h-2.7c-0.6,0-1-0.4-1-1
	s0.4-1,1-1h2.7c0.6,0,1,0.4,1,1S115.4,15.5,114.9,15.5z M105.5,15.5h-2.7c-0.6,0-1-0.4-1-1s0.4-1,1-1h2.7c0.6,0,1,0.4,1,1
	S106.1,15.5,105.5,15.5z M96.2,15.5h-2.7c-0.6,0-1-0.4-1-1s0.4-1,1-1h2.7c0.6,0,1,0.4,1,1S96.8,15.5,96.2,15.5z M86.9,15.5h-2.7
	c-0.6,0-1-0.4-1-1s0.4-1,1-1h2.7c0.6,0,1,0.4,1,1S87.5,15.5,86.9,15.5z M77.6,15.5h-2.7c-0.6,0-1-0.4-1-1s0.4-1,1-1h2.7
	c0.6,0,1,0.4,1,1S78.1,15.5,77.6,15.5z M68.3,15.5h-2.7c-0.6,0-1-0.4-1-1s0.4-1,1-1h2.7c0.6,0,1,0.4,1,1S68.8,15.5,68.3,15.5z
	 M59,15.5h-2.7c-0.6,0-1-0.4-1-1s0.4-1,1-1H59c0.6,0,1,0.4,1,1S59.5,15.5,59,15.5z M49.6,15.5H47c-0.6,0-1-0.4-1-1s0.4-1,1-1h2.7
	c0.6,0,1,0.4,1,1S50.2,15.5,49.6,15.5z M40.3,15.5h-2.7c-0.6,0-1-0.4-1-1s0.4-1,1-1h2.7c0.6,0,1,0.4,1,1S40.9,15.5,40.3,15.5z
	 M31,15.5h-2.7c-0.6,0-1-0.4-1-1s0.4-1,1-1H31c0.6,0,1,0.4,1,1S31.5,15.5,31,15.5z M21.7,15.5H19c-0.6,0-1-0.4-1-1s0.4-1,1-1h2.7
	c0.6,0,1,0.4,1,1S22.2,15.5,21.7,15.5z M12.4,15.5H9.7c-0.6,0-1-0.4-1-1s0.4-1,1-1h2.7c0.6,0,1,0.4,1,1S12.9,15.5,12.4,15.5z"/>
<path class="st2" d="M85.2,198.3H13.1c-1.6,0-2.8-1.3-2.8-2.8v-42.4c0-1.6,1.3-2.8,2.8-2.8h72.1c1.6,0,2.8,1.3,2.8,2.8v42.4
	C88.1,197.1,86.8,198.3,85.2,198.3"/>
<path class="st3" d="M85.2,199.3H13.1c-2.1,0-3.8-1.7-3.8-3.8v-42.4c0-2.1,1.7-3.8,3.8-3.8h72.1c2.1,0,3.8,1.7,3.8,3.8v42.4
	C89.1,197.6,87.3,199.3,85.2,199.3z M13.1,151.2c-1,0-1.8,0.8-1.8,1.8v42.4c0,1,0.8,1.8,1.8,1.8h72.1c1,0,1.8-0.8,1.8-1.8V153
	c0-1-0.8-1.8-1.8-1.8H13.1z"/>
<path class="st2" d="M80.6,193.7H8.5c-1.6,0-2.8-1.3-2.8-2.8v-42.4c0-1.6,1.3-2.8,2.8-2.8h72.1c1.6,0,2.8,1.3,2.8,2.8v42.4
	C83.5,192.4,82.2,193.7,80.6,193.7"/>
<path class="st3" d="M80.6,194.7H8.5c-2.1,0-3.8-1.7-3.8-3.8v-42.4c0-2.1,1.7-3.8,3.8-3.8h72.1c2.1,0,3.8,1.7,3.8,3.8v42.4
	C84.5,193,82.8,194.7,80.6,194.7z M8.5,146.6c-1,0-1.8,0.8-1.8,1.8v42.4c0,1,0.8,1.8,1.8,1.8h72.1c1,0,1.8-0.8,1.8-1.8v-42.4
	c0-1-0.8-1.8-1.8-1.8L8.5,146.6L8.5,146.6z"/>
<path class="st2" d="M75.9,189H3.8c-1.6,0-2.8-1.3-2.8-2.8v-42.4c0-1.6,1.3-2.8,2.8-2.8h72.1c1.6,0,2.8,1.3,2.8,2.8v42.4
	C78.8,187.8,77.5,189,75.9,189"/>
<path class="st3" d="M75.9,190H3.8c-2.1,0-3.8-1.7-3.8-3.8v-42.4c0-2.1,1.7-3.8,3.8-3.8h72.1c2.1,0,3.8,1.7,3.8,3.8v42.4
	C79.8,188.3,78,190,75.9,190z M3.8,141.9c-1,0-1.8,0.8-1.8,1.8v42.4c0,1,0.8,1.8,1.8,1.8h72.1c1,0,1.8-0.8,1.8-1.8v-42.4
	c0-1-0.8-1.8-1.8-1.8L3.8,141.9L3.8,141.9z"/>
<path class="st0" d="M432.7,170.1c0,0.6-0.4,1-1,1h-59v2.5l-6-3.5l6-3.5v2.5h59C432.2,169.1,432.7,169.6,432.7,170.1z"/>
<path class="st2" d="M395.2,170.1c0,4.2-3.4,7.7-7.7,7.7s-7.7-3.4-7.7-7.7c0-4.2,3.4-7.7,7.7-7.7S395.2,165.9,395.2,170.1"/>
<path class="st0" d="M387.5,178.8c-4.8,0-8.7-3.9-8.7-8.7s3.9-8.7,8.7-8.7s8.7,3.9,8.7,8.7S392.3,178.8,387.5,178.8z M387.5,163.5
	c-3.7,0-6.7,3-6.7,6.7s3,6.7,6.7,6.7s6.7-3,6.7-6.7S391.2,163.5,387.5,163.5z"/>
<g class="st4">
	<path class="st0" d="M388,173.8v0.8h-0.6v-0.8c-1-0.1-1.8-0.6-2.1-1.5l1.3-0.7c0.2,0.4,0.5,0.7,0.9,0.8v-1.3c0,0-0.1,0-0.1,0
		c-0.8-0.3-1.7-0.8-1.7-2c0-1.2,0.9-1.8,1.9-1.9v-0.8h0.6v0.8c0.8,0.1,1.4,0.5,1.8,1.3l-1.2,0.7c-0.1-0.3-0.3-0.5-0.6-0.6v1.2
		c0.8,0.3,1.9,0.6,1.9,2C389.8,173,389,173.7,388,173.8z M387.3,169.6v-1c-0.3,0.1-0.4,0.2-0.4,0.5
		C386.9,169.3,387,169.5,387.3,169.6z M388.4,171.9c0-0.2-0.1-0.4-0.4-0.5v1C388.3,172.3,388.4,172.1,388.4,171.9z"/>
</g>
<path class="st2" d="M407.9,170.1c0,4.2-3.4,7.7-7.7,7.7c-4.2,0-7.7-3.4-7.7-7.7c0-4.2,3.4-7.7,7.7-7.7
	C404.5,162.5,407.9,165.9,407.9,170.1"/>
<path class="st0" d="M400.2,178.8c-4.8,0-8.7-3.9-8.7-8.7s3.9-8.7,8.7-8.7s8.7,3.9,8.7,8.7S405,178.8,400.2,178.8z M400.2,163.5
	c-3.7,0-6.7,3-6.7,6.7s3,6.7,6.7,6.7s6.7-3,6.7-6.7S403.9,163.5,400.2,163.5z"/>
<path class="st0" d="M397.7,169.8L397.7,169.8l2.6-4.3l2.6,4.3l-2.6,1.9L397.7,169.8z M400.2,174.8l2.6-4l-2.6,1.7l-2.6-1.7
	L400.2,174.8z"/>
<path class="st2" d="M421.2,170.1c0,4.2-3.4,7.7-7.7,7.7s-7.7-3.4-7.7-7.7c0-4.2,3.4-7.7,7.7-7.7S421.2,165.9,421.2,170.1"/>
<path class="st0" d="M413.6,178.8c-4.8,0-8.7-3.9-8.7-8.7s3.9-8.7,8.7-8.7s8.7,3.9,8.7,8.7S418.3,178.8,413.6,178.8z M413.6,163.5
	c-3.7,0-6.7,3-6.7,6.7s3,6.7,6.7,6.7s6.7-3,6.7-6.7S417.2,163.5,413.6,163.5z"/>
<path class="st0" d="M415.3,169.8c0.4-0.2,0.7-0.6,0.6-1.2c-0.1-0.9-0.8-1.1-1.8-1.2v-1.2h-0.7v1.2c-0.2,0-0.4,0-0.6,0v-1.2h-0.7
	v1.2c-0.2,0-0.3,0-0.5,0l0,0h-1v0.8h0.5c0.3,0,0.4,0.2,0.4,0.3v1.4c0,0,0,0,0.1,0h-0.1v1.9c0,0.1-0.1,0.2-0.3,0.2h-0.5l-0.1,0.9h0.9
	c0.2,0,0.3,0,0.5,0v1.2h0.7v-1.2c0.2,0,0.4,0,0.6,0v1.2h0.7v-1.2c1.2-0.1,2.1-0.4,2.2-1.5C416.5,170.4,416,170,415.3,169.8
	 M412.9,168.2c0.4,0,1.7-0.1,1.7,0.7s-1.3,0.7-1.7,0.7V168.2z M412.9,172v-1.6c0.5,0,2-0.1,2,0.8C415,172.1,413.4,172,412.9,172"/>
<path class="st2" d="M357.8,206.1H157.4c-1.6,0-2.8-1.3-2.8-2.8v-99.5c0-1.6,1.3-2.8,2.8-2.8h200.4c1.6,0,2.8,1.3,2.8,2.8v99.5
	C360.6,204.9,359.3,206.1,357.8,206.1"/>
<path class="st5" d="M357.8,207.1H157.4c-2.1,0-3.8-1.7-3.8-3.8v-99.5c0-2.1,1.7-3.8,3.8-3.8h200.4c2.1,0,3.8,1.7,3.8,3.8v99.5
	C361.6,205.4,359.9,207.1,357.8,207.1z M157.4,102c-1,0-1.8,0.8-1.8,1.8v99.5c0,1,0.8,1.8,1.8,1.8h200.4c1,0,1.8-0.8,1.8-1.8v-99.5
	c0-1-0.8-1.8-1.8-1.8H157.4z"/>
<path class="st2" d="M353.2,201.5H152.8c-1.6,0-2.8-1.3-2.8-2.8V99.1c0-1.6,1.3-2.8,2.8-2.8h200.4c1.6,0,2.8,1.3,2.8,2.8v99.5
	C356,200.2,354.7,201.5,353.2,201.5"/>
<path class="st5" d="M353.2,202.5H152.8c-2.1,0-3.8-1.7-3.8-3.8V99.1c0-2.1,1.7-3.8,3.8-3.8h200.4c2.1,0,3.8,1.7,3.8,3.8v99.5
	C357,200.8,355.3,202.5,353.2,202.5z M152.8,97.3c-1,0-1.8,0.8-1.8,1.8v99.5c0,1,0.8,1.8,1.8,1.8h200.4c1,0,1.8-0.8,1.8-1.8V99.1
	c0-1-0.8-1.8-1.8-1.8C353.2,97.3,152.8,97.3,152.8,97.3z"/>
<path class="st2" d="M513.2,198.3h-72.1c-1.6,0-2.8-1.3-2.8-2.8v-42.4c0-1.6,1.3-2.8,2.8-2.8h72.1c1.6,0,2.8,1.3,2.8,2.8v42.4
	C516,197.1,514.8,198.3,513.2,198.3"/>
<path class="st3" d="M513.2,199.3h-72.1c-2.1,0-3.8-1.7-3.8-3.8v-42.4c0-2.1,1.7-3.8,3.8-3.8h72.1c2.1,0,3.8,1.7,3.8,3.8v42.4
	C517,197.6,515.3,199.3,513.2,199.3z M441.1,151.2c-1,0-1.8,0.8-1.8,1.8v42.4c0,1,0.8,1.8,1.8,1.8h72.1c1,0,1.8-0.8,1.8-1.8V153
	c0-1-0.8-1.8-1.8-1.8H441.1z"/>
<path class="st2" d="M508.6,193.7h-72.1c-1.6,0-2.8-1.3-2.8-2.8v-42.4c0-1.6,1.3-2.8,2.8-2.8h72.1c1.6,0,2.8,1.3,2.8,2.8v42.4
	C511.4,192.4,510.2,193.7,508.6,193.7"/>
<path class="st3" d="M508.6,194.7h-72.1c-2.1,0-3.8-1.7-3.8-3.8v-42.4c0-2.1,1.7-3.8,3.8-3.8h72.1c2.1,0,3.8,1.7,3.8,3.8v42.4
	C512.4,193,510.7,194.7,508.6,194.7z M436.5,146.6c-1,0-1.8,0.8-1.8,1.8v42.4c0,1,0.8,1.8,1.8,1.8h72.1c1,0,1.8-0.8,1.8-1.8v-42.4
	c0-1-0.8-1.8-1.8-1.8L436.5,146.6L436.5,146.6z"/>
<path class="st2" d="M503.9,189h-72.1c-1.6,0-2.8-1.3-2.8-2.8v-42.4c0-1.6,1.3-2.8,2.8-2.8h72.1c1.6,0,2.8,1.3,2.8,2.8v42.4
	C506.7,187.8,505.4,189,503.9,189"/>
<path class="st3" d="M503.9,190h-72.1c-2.1,0-3.8-1.7-3.8-3.8v-42.4c0-2.1,1.7-3.8,3.8-3.8h72.1c2.1,0,3.8,1.7,3.8,3.8v42.4
	C507.7,188.3,506,190,503.9,190z M431.8,141.9c-1,0-1.8,0.8-1.8,1.8v42.4c0,1,0.8,1.8,1.8,1.8h72.1c1,0,1.8-0.8,1.8-1.8v-42.4
	c0-1-0.8-1.8-1.8-1.8L431.8,141.9L431.8,141.9z"/>
<path class="st5" d="M348.5,196.8H148.1c-1.6,0-2.8-1.3-2.8-2.8V94.5c0-1.6,1.3-2.8,2.8-2.8h200.4c1.6,0,2.8,1.3,2.8,2.8V194
	C351.3,195.5,350,196.8,348.5,196.8"/>
<path class="st5" d="M348.5,197.8H148.1c-2.1,0-3.8-1.7-3.8-3.8V94.5c0-2.1,1.7-3.8,3.8-3.8h200.4c2.1,0,3.8,1.7,3.8,3.8V194
	C352.3,196.1,350.6,197.8,348.5,197.8z M148.1,92.6c-1,0-1.8,0.8-1.8,1.8V194c0,1,0.8,1.8,1.8,1.8h200.4c1,0,1.8-0.8,1.8-1.8V94.5
	c0-1-0.8-1.8-1.8-1.8L148.1,92.6L148.1,92.6z"/>
<path class="st2" d="M514.1,114.6H376.9c-1,0-1.9-0.8-1.9-1.9V16.4c0-1,0.8-1.9,1.9-1.9h137.3c1,0,1.9,0.8,1.9,1.9v96.3
	C516,113.7,515.2,114.6,514.1,114.6"/>
<path class="st0" d="M514.1,115.6h-2.7c-0.6,0-1-0.4-1-1s0.4-1,1-1h2.7c0.1,0,0.2,0,0.3,0c0.1-0.1,0.1-0.1,0.2-0.2
	c0.3-0.2,0.4-0.5,0.4-0.8V112c0-0.6,0.4-1,1-1s1,0.4,1,1v0.7c0,1-0.5,1.9-1.4,2.5c-0.2,0.1-0.5,0.2-0.8,0.1
	C514.7,115.5,514.4,115.6,514.1,115.6z M504.8,115.6h-2.7c-0.6,0-1-0.4-1-1s0.4-1,1-1h2.7c0.6,0,1,0.4,1,1S505.4,115.6,504.8,115.6z
	 M495.5,115.6h-2.7c-0.6,0-1-0.4-1-1s0.4-1,1-1h2.7c0.6,0,1,0.4,1,1S496.1,115.6,495.5,115.6z M486.2,115.6h-2.7c-0.6,0-1-0.4-1-1
	s0.4-1,1-1h2.7c0.6,0,1,0.4,1,1S486.7,115.6,486.2,115.6z M476.9,115.6h-2.7c-0.6,0-1-0.4-1-1s0.4-1,1-1h2.7c0.6,0,1,0.4,1,1
	S477.4,115.6,476.9,115.6z M467.6,115.6h-2.7c-0.6,0-1-0.4-1-1s0.4-1,1-1h2.7c0.6,0,1,0.4,1,1S468.1,115.6,467.6,115.6z
	 M458.2,115.6h-2.7c-0.6,0-1-0.4-1-1s0.4-1,1-1h2.7c0.6,0,1,0.4,1,1S458.8,115.6,458.2,115.6z M448.9,115.6h-2.7c-0.6,0-1-0.4-1-1
	s0.4-1,1-1h2.7c0.6,0,1,0.4,1,1S449.5,115.6,448.9,115.6z M439.6,115.6h-2.7c-0.6,0-1-0.4-1-1s0.4-1,1-1h2.7c0.6,0,1,0.4,1,1
	S440.2,115.6,439.6,115.6z M430.3,115.6h-2.7c-0.6,0-1-0.4-1-1s0.4-1,1-1h2.7c0.6,0,1,0.4,1,1S430.8,115.6,430.3,115.6z M421,115.6
	h-2.7c-0.6,0-1-0.4-1-1s0.4-1,1-1h2.7c0.6,0,1,0.4,1,1S421.5,115.6,421,115.6z M411.6,115.6H409c-0.6,0-1-0.4-1-1s0.4-1,1-1h2.7
	c0.6,0,1,0.4,1,1S412.2,115.6,411.6,115.6z M402.3,115.6h-2.7c-0.6,0-1-0.4-1-1s0.4-1,1-1h2.7c0.6,0,1,0.4,1,1
	S402.9,115.6,402.3,115.6z M393,115.6h-2.7c-0.6,0-1-0.4-1-1s0.4-1,1-1h2.7c0.6,0,1,0.4,1,1S393.6,115.6,393,115.6z M383.7,115.6
	H381c-0.6,0-1-0.4-1-1s0.4-1,1-1h2.7c0.6,0,1,0.4,1,1S384.2,115.6,383.7,115.6z M375,114.1c-0.4,0-0.9-0.3-1-0.8
	c-0.1-0.2-0.1-0.5-0.1-0.7v-2.2c0-0.6,0.4-1,1-1s1,0.4,1,1v2.2c0,0.1,0,0.1,0,0.2c0.1,0.5-0.2,1.1-0.7,1.2
	C375.2,114.1,375.1,114.1,375,114.1z M516,106.3c-0.6,0-1-0.4-1-1v-2.7c0-0.6,0.4-1,1-1s1,0.4,1,1v2.7
	C517,105.9,516.6,106.3,516,106.3z M375,104.8c-0.6,0-1-0.4-1-1v-2.7c0-0.6,0.4-1,1-1s1,0.4,1,1v2.7
	C376,104.4,375.5,104.8,375,104.8z M516,97c-0.6,0-1-0.4-1-1v-2.7c0-0.6,0.4-1,1-1s1,0.4,1,1V96C517,96.5,516.6,97,516,97z
	 M375,95.5c-0.6,0-1-0.4-1-1v-2.7c0-0.6,0.4-1,1-1s1,0.4,1,1v2.7C376,95.1,375.5,95.5,375,95.5z M516,87.7c-0.6,0-1-0.4-1-1V84
	c0-0.6,0.4-1,1-1s1,0.4,1,1v2.7C517,87.2,516.6,87.7,516,87.7z M375,86.2c-0.6,0-1-0.4-1-1v-2.7c0-0.6,0.4-1,1-1s1,0.4,1,1v2.7
	C376,85.7,375.5,86.2,375,86.2z M516,78.3c-0.6,0-1-0.4-1-1v-2.7c0-0.6,0.4-1,1-1s1,0.4,1,1v2.7C517,77.9,516.6,78.3,516,78.3z
	 M375,76.9c-0.6,0-1-0.4-1-1v-2.7c0-0.6,0.4-1,1-1s1,0.4,1,1v2.7C376,76.4,375.5,76.9,375,76.9z M516,69c-0.6,0-1-0.4-1-1v-2.7
	c0-0.6,0.4-1,1-1s1,0.4,1,1V68C517,68.6,516.6,69,516,69z M375,67.6c-0.6,0-1-0.4-1-1v-2.7c0-0.6,0.4-1,1-1s1,0.4,1,1v2.7
	C376,67.1,375.5,67.6,375,67.6z M516,59.7c-0.6,0-1-0.4-1-1V56c0-0.6,0.4-1,1-1s1,0.4,1,1v2.7C517,59.3,516.6,59.7,516,59.7z
	 M375,58.2c-0.6,0-1-0.4-1-1v-2.7c0-0.6,0.4-1,1-1s1,0.4,1,1v2.7C376,57.8,375.5,58.2,375,58.2z M516,50.4c-0.6,0-1-0.4-1-1v-2.7
	c0-0.6,0.4-1,1-1s1,0.4,1,1v2.7C517,49.9,516.6,50.4,516,50.4z M375,48.9c-0.6,0-1-0.4-1-1v-2.7c0-0.6,0.4-1,1-1s1,0.4,1,1v2.7
	C376,48.5,375.5,48.9,375,48.9z M516,41.1c-0.6,0-1-0.4-1-1v-2.7c0-0.6,0.4-1,1-1s1,0.4,1,1v2.7C517,40.6,516.6,41.1,516,41.1z
	 M375,39.6c-0.6,0-1-0.4-1-1v-2.7c0-0.6,0.4-1,1-1s1,0.4,1,1v2.7C376,39.2,375.5,39.6,375,39.6z M516,31.8c-0.6,0-1-0.4-1-1v-2.7
	c0-0.6,0.4-1,1-1s1,0.4,1,1v2.7C517,31.3,516.6,31.8,516,31.8z M375,30.3c-0.6,0-1-0.4-1-1v-2.7c0-0.6,0.4-1,1-1s1,0.4,1,1v2.7
	C376,29.8,375.5,30.3,375,30.3z M516,22.4c-0.6,0-1-0.4-1-1v-2.7c0-0.6,0.4-1,1-1s1,0.4,1,1v2.7C517,22,516.6,22.4,516,22.4z
	 M375,21c-0.6,0-1-0.4-1-1v-2.7c0-0.6,0.4-1,1-1s1,0.4,1,1V20C376,20.5,375.5,21,375,21z M512.8,15.5h-2.7c-0.6,0-1-0.4-1-1
	s0.4-1,1-1h2.7c0.6,0,1,0.4,1,1S513.4,15.5,512.8,15.5z M503.5,15.5h-2.7c-0.6,0-1-0.4-1-1s0.4-1,1-1h2.7c0.6,0,1,0.4,1,1
	S504,15.5,503.5,15.5z M494.2,15.5h-2.7c-0.6,0-1-0.4-1-1s0.4-1,1-1h2.7c0.6,0,1,0.4,1,1S494.7,15.5,494.2,15.5z M484.8,15.5h-2.7
	c-0.6,0-1-0.4-1-1s0.4-1,1-1h2.7c0.6,0,1,0.4,1,1S485.4,15.5,484.8,15.5z M475.5,15.5h-2.7c-0.6,0-1-0.4-1-1s0.4-1,1-1h2.7
	c0.6,0,1,0.4,1,1S476.1,15.5,475.5,15.5z M466.2,15.5h-2.7c-0.6,0-1-0.4-1-1s0.4-1,1-1h2.7c0.6,0,1,0.4,1,1S466.8,15.5,466.2,15.5z
	 M456.9,15.5h-2.7c-0.6,0-1-0.4-1-1s0.4-1,1-1h2.7c0.6,0,1,0.4,1,1S457.4,15.5,456.9,15.5z M447.6,15.5h-2.7c-0.6,0-1-0.4-1-1
	s0.4-1,1-1h2.7c0.6,0,1,0.4,1,1S448.1,15.5,447.6,15.5z M438.3,15.5h-2.7c-0.6,0-1-0.4-1-1s0.4-1,1-1h2.7c0.6,0,1,0.4,1,1
	S438.8,15.5,438.3,15.5z M428.9,15.5h-2.7c-0.6,0-1-0.4-1-1s0.4-1,1-1h2.7c0.6,0,1,0.4,1,1S429.5,15.5,428.9,15.5z M419.6,15.5H417
	c-0.6,0-1-0.4-1-1s0.4-1,1-1h2.7c0.6,0,1,0.4,1,1S420.2,15.5,419.6,15.5z M410.3,15.5h-2.7c-0.6,0-1-0.4-1-1s0.4-1,1-1h2.7
	c0.6,0,1,0.4,1,1S410.9,15.5,410.3,15.5z M401,15.5h-2.7c-0.6,0-1-0.4-1-1s0.4-1,1-1h2.7c0.6,0,1,0.4,1,1S401.5,15.5,401,15.5z
	 M391.7,15.5H389c-0.6,0-1-0.4-1-1s0.4-1,1-1h2.7c0.6,0,1,0.4,1,1S392.2,15.5,391.7,15.5z M382.4,15.5h-2.7c-0.6,0-1-0.4-1-1
	s0.4-1,1-1h2.7c0.6,0,1,0.4,1,1S382.9,15.5,382.4,15.5z"/>
<path class="st5" d="M263.3,73.4l-3.5,6l-3.5-6h2.5V5.9h-2V0h5.9v5.9h-2v67.4L263.3,73.4L263.3,73.4z"/>
<path class="st6" d="M257.7,187.6"/>
<path class="st3" d="M29.3,162.2h-1.4v-6.3h3.8v1.4h-2.4v1.2h2.3v1.4h-2.3V162.2z M34.7,162.3c-1.3,0-2.4-1-2.4-2.4
	c0-1.3,1.1-2.4,2.4-2.4s2.4,1,2.4,2.4C37.1,161.3,36,162.3,34.7,162.3z M35.7,160c0-0.6-0.4-1.1-1-1.1c-0.6,0-1,0.4-1,1.1
	c0,0.6,0.5,1.1,1,1.1C35.3,161,35.7,160.6,35.7,160z M39.2,159.8c0-0.6,0.3-0.9,0.8-0.9c0.4,0,0.8,0.3,0.8,0.8v2.6h1.4v-2.8
	c0-1.2-0.8-1.9-1.7-1.9c-0.6,0-1,0.2-1.3,0.5v-0.4h-1.4v4.5h1.4V159.8z M42.9,160c0-1.3,1-2.4,2.2-2.4c0.6,0,1,0.2,1.3,0.5v-2.2h1.4
	v6.3h-1.4v-0.4c-0.3,0.3-0.7,0.5-1.3,0.5C43.8,162.3,42.9,161.3,42.9,160z M44.2,160c0,0.7,0.5,1.1,1.1,1.1s1.1-0.4,1.1-1.1
	c0-0.7-0.5-1.1-1.1-1.1S44.2,159.3,44.2,160z M52.1,160.9c0-1.7-2.2-1.3-2.2-1.8c0-0.2,0.1-0.3,0.4-0.3c0.3,0,0.5,0.2,0.6,0.4
	l1.2-0.6c-0.4-0.6-1-1-1.8-1c-0.9,0-1.8,0.5-1.8,1.5c0,1.6,2.2,1.3,2.2,1.8c0,0.2-0.2,0.3-0.5,0.3c-0.4,0-0.6-0.2-0.8-0.5l-1.2,0.7
	c0.4,0.7,1,1.1,1.9,1.1C51.2,162.3,52.1,161.9,52.1,160.9z M20.4,171c0,0.6-0.3,0.9-0.8,0.9c-0.4,0-0.8-0.3-0.8-0.8v-2.6h-1.4v2.8
	c0,1.2,0.8,1.9,1.7,1.9c0.6,0,1-0.2,1.3-0.5v0.4h1.4v-4.5h-1.4V171z M25.4,168.4c-0.6,0-1,0.2-1.3,0.5v-0.4h-1.4v4.5h1.4v-2.5
	c0-0.6,0.3-0.9,0.8-0.9c0.4,0,0.8,0.3,0.8,0.8v2.6h1.4v-2.8C27.1,169,26.3,168.4,25.4,168.4z M31.3,166.7h1.4v6.3h-1.4v-0.4
	c-0.3,0.3-0.7,0.5-1.3,0.5c-1.2,0-2.2-1-2.2-2.4c0-1.3,1-2.4,2.2-2.4c0.6,0,1,0.2,1.3,0.5V166.7z M31.3,170.8c0-0.7-0.5-1.1-1.1-1.1
	s-1.1,0.4-1.1,1.1c0,0.7,0.5,1.1,1.1,1.1S31.3,171.4,31.3,170.8z M35.5,168.1h1.6v4.9h1.4v-4.9h1.6v-1.4h-4.7V168.1z M41.6,169.3
	v-0.8h-1.4v4.5h1.4v-2c0-0.9,0.8-1.1,1.4-1v-1.5C42.3,168.4,41.7,168.7,41.6,169.3z M46.7,168.5H48v4.5h-1.4v-0.4
	c-0.3,0.3-0.7,0.5-1.3,0.5c-1.2,0-2.2-1-2.2-2.4c0-1.3,1-2.4,2.2-2.4c0.6,0,1,0.2,1.3,0.5V168.5z M46.7,170.8c0-0.7-0.5-1.1-1.1-1.1
	s-1.1,0.4-1.1,1.1c0,0.7,0.5,1.1,1.1,1.1S46.7,171.4,46.7,170.8z M52.3,166.7h1.4v6.3h-1.4v-0.4c-0.3,0.3-0.7,0.5-1.3,0.5
	c-1.2,0-2.2-1-2.2-2.4c0-1.3,1-2.4,2.2-2.4c0.6,0,1,0.2,1.3,0.5V166.7z M52.3,170.8c0-0.7-0.5-1.1-1.1-1.1s-1.1,0.4-1.1,1.1
	c0,0.7,0.5,1.1,1.1,1.1S52.3,171.4,52.3,170.8z M59.1,170.8c0,0.2,0,0.4-0.1,0.5h-3.2c0.2,0.5,0.6,0.6,1.1,0.6
	c0.4,0,0.7-0.1,0.9-0.3l1.1,0.6c-0.4,0.6-1.1,0.9-2,0.9c-1.5,0-2.5-1-2.5-2.4c0-1.3,1-2.4,2.4-2.4C58.1,168.4,59.1,169.4,59.1,170.8
	z M57.7,170.3c-0.1-0.5-0.5-0.7-1-0.7c-0.5,0-0.9,0.3-1,0.7H57.7z M61.2,169.3v-0.8h-1.4v4.5h1.4v-2c0-0.9,0.8-1.1,1.4-1v-1.5
	C62,168.4,61.4,168.7,61.2,169.3z M446.5,167.6h1.4v-6.3h-1.4V167.6z M451.6,163c-0.6,0-1,0.2-1.3,0.5v-0.4H449v4.5h1.4v-2.5
	c0-0.6,0.3-0.9,0.8-0.9c0.4,0,0.8,0.3,0.8,0.8v2.6h1.4v-2.8C453.3,163.6,452.6,163,451.6,163z M456.1,166l-0.9-2.9h-1.5l1.7,4.5h1.5
	l1.7-4.5H457L456.1,166z M463.3,165.4c0,0.2,0,0.4-0.1,0.5h-3.2c0.2,0.5,0.6,0.6,1.1,0.6c0.4,0,0.7-0.1,0.9-0.3l1.1,0.6
	c-0.4,0.6-1.1,0.9-2,0.9c-1.5,0-2.5-1-2.5-2.4c0-1.3,1-2.4,2.4-2.4C462.3,163,463.3,164,463.3,165.4z M462,164.9
	c-0.1-0.5-0.5-0.7-1-0.7c-0.5,0-0.9,0.3-1,0.7H462z M465.2,164.4c0-0.2,0.1-0.3,0.4-0.3c0.3,0,0.5,0.2,0.6,0.4l1.2-0.6
	c-0.4-0.6-1-1-1.8-1c-0.9,0-1.8,0.5-1.8,1.5c0,1.6,2.2,1.3,2.2,1.8c0,0.2-0.2,0.3-0.5,0.3c-0.4,0-0.6-0.2-0.8-0.5l-1.2,0.7
	c0.4,0.7,1,1.1,1.9,1.1c1,0,1.9-0.4,1.9-1.5C467.4,164.6,465.2,164.9,465.2,164.4z M469.6,161.8l-1.4,0.4v0.9h-0.7v1.3h0.7v1.6
	c0,1.3,0.5,1.8,2.3,1.6v-1.2c-0.6,0-0.9,0-0.9-0.4v-1.6h0.9v-1.3h-0.9V161.8z M475.8,165.4c0,1.3-1.1,2.4-2.4,2.4
	c-1.3,0-2.4-1-2.4-2.4c0-1.3,1.1-2.4,2.4-2.4C474.7,163,475.8,164,475.8,165.4z M474.4,165.4c0-0.6-0.5-1.1-1-1.1
	c-0.6,0-1,0.4-1,1.1c0,0.6,0.5,1.1,1,1.1C474,166.4,474.4,166,474.4,165.4z M477.9,163.9v-0.8h-1.4v4.5h1.4v-2c0-0.9,0.8-1.1,1.4-1
	V163C478.7,163,478.1,163.3,477.9,163.9z M484.2,165.4c0,0.2,0,0.4-0.1,0.5h-3.2c0.2,0.5,0.6,0.6,1.1,0.6c0.4,0,0.7-0.1,0.9-0.3
	l1.1,0.6c-0.4,0.6-1.1,0.9-2,0.9c-1.5,0-2.5-1-2.5-2.4c0-1.3,1-2.4,2.4-2.4C483.2,163,484.2,164,484.2,165.4z M482.8,164.9
	c-0.1-0.5-0.5-0.7-1-0.7c-0.5,0-0.9,0.3-1,0.7H482.8z M487.6,163c-0.6,0-1,0.2-1.3,0.5v-0.4H485v4.5h1.4v-2.5c0-0.6,0.3-0.9,0.8-0.9
	c0.4,0,0.8,0.3,0.8,0.8v2.6h1.4v-2.8C489.3,163.6,488.5,163,487.6,163z"/>
<path class="st2" d="M164.2,111.1h-4v-6.8h1.6v5.3h2.4V111.1z M164.5,108.6c0-1.5,1.1-2.6,2.6-2.6c1.4,0,2.5,1.1,2.5,2.6
	c0,0.2,0,0.4-0.1,0.6h-3.5c0.2,0.5,0.6,0.7,1.2,0.7c0.4,0,0.7-0.2,0.9-0.4l1.2,0.7c-0.5,0.7-1.2,1-2.1,1
	C165.5,111.2,164.5,110.1,164.5,108.6z M166,108.1h2.1c-0.2-0.6-0.6-0.8-1-0.8C166.5,107.3,166.2,107.6,166,108.1z M170.1,108.5
	c0-1.3,1-2.5,2.4-2.5c0.6,0,1.1,0.2,1.4,0.6v-0.5h1.4v4.6c0,1.6-1.3,2.3-2.6,2.3c-1,0-1.9-0.4-2.3-1.2l1.2-0.7
	c0.2,0.3,0.5,0.6,1.1,0.6c0.7,0,1.1-0.4,1.1-1v-0.4c-0.3,0.4-0.8,0.6-1.4,0.6C171.1,111,170.1,109.9,170.1,108.5z M171.6,108.5
	c0,0.7,0.5,1.1,1.2,1.1c0.7,0,1.2-0.5,1.2-1.1s-0.5-1.1-1.2-1.1C172.1,107.4,171.6,107.8,171.6,108.5z M176.2,108.6
	c0-1.5,1.1-2.6,2.3-2.6c0.7,0,1.1,0.2,1.5,0.6v-0.5h1.5v4.9H180v-0.5c-0.3,0.4-0.8,0.6-1.5,0.6C177.2,111.2,176.2,110.1,176.2,108.6
	z M177.7,108.6c0,0.7,0.5,1.2,1.2,1.2s1.2-0.5,1.2-1.2s-0.5-1.2-1.2-1.2S177.7,107.9,177.7,108.6z M184,103.9h-1.5v7.1h1.5V103.9z
	 M161.7,125.1h-1.6v-6.8h2.7c1.3,0,2.3,1,2.3,2.3c0,0.8-0.5,1.6-1.3,2l1.5,2.5h-1.7l-1.3-2.2h-0.7V125.1z M161.7,121.4h1.2
	c0.4,0,0.8-0.4,0.8-0.9c0-0.5-0.4-0.9-0.8-0.9h-1.2V121.4z M169.4,125.1v-0.5c-0.3,0.4-0.8,0.6-1.5,0.6c-1.3,0-2.3-1.1-2.3-2.6
	s1.1-2.6,2.3-2.6c0.7,0,1.1,0.2,1.5,0.6v-0.5h1.5v4.9H169.4z M169.4,122.6c0-0.7-0.5-1.2-1.2-1.2c-0.7,0-1.2,0.5-1.2,1.2
	s0.5,1.2,1.2,1.2C168.9,123.8,169.4,123.3,169.4,122.6z M172.3,119.3v0.9h-0.8v1.4h0.8v1.7c0,1.4,0.6,1.9,2.5,1.7v-1.3
	c-0.6,0-1,0-1-0.4v-1.7h1v-1.4h-1v-1.4L172.3,119.3z M177.1,120.2h-1.5v4.9h1.5V120.2z M176.4,119.8c0.5,0,0.9-0.4,0.9-0.9
	s-0.4-0.9-0.9-0.9c-0.5,0-0.9,0.4-0.9,0.9S175.9,119.8,176.4,119.8z M179.6,120.6v-0.5h-1.5v4.9h1.5v-2.7c0-0.7,0.4-1,0.9-1
	c0.5,0,0.8,0.3,0.8,0.9v2.8h1.5v-3c0-1.3-0.8-2-1.8-2C180.4,120,179.9,120.3,179.6,120.6z M183.6,122.5c0-1.3,1-2.5,2.4-2.5
	c0.6,0,1.1,0.2,1.4,0.6v-0.5h1.4v4.6c0,1.6-1.3,2.3-2.6,2.3c-1,0-1.9-0.4-2.3-1.2l1.2-0.7c0.2,0.3,0.5,0.6,1.1,0.6
	c0.7,0,1.1-0.4,1.1-1v-0.4c-0.3,0.4-0.8,0.6-1.4,0.6C184.6,125,183.6,123.9,183.6,122.5z M185.1,122.5c0,0.7,0.5,1.1,1.2,1.1
	c0.7,0,1.2-0.5,1.2-1.1s-0.5-1.1-1.2-1.1C185.6,121.4,185.1,121.8,185.1,122.5z M191.6,123.9c-0.4,0-0.7-0.2-0.8-0.6l-1.3,0.7
	c0.4,0.8,1.1,1.2,2.1,1.2c1.1,0,2-0.5,2-1.6c0-1.8-2.4-1.4-2.4-2c0-0.2,0.2-0.3,0.4-0.3c0.3,0,0.5,0.2,0.7,0.4l1.2-0.7
	c-0.4-0.7-1.1-1-1.9-1c-1,0-1.9,0.5-1.9,1.6c0,1.7,2.4,1.4,2.4,1.9C192.2,123.8,192,123.9,191.6,123.9z M162.6,137.7
	c-0.8,0-1.2-0.4-1.4-0.9l-1.3,0.8c0.4,1,1.3,1.7,2.7,1.7c1.5,0,2.5-0.8,2.5-2.1c0-1.4-1.2-1.8-2.2-2.1c-1.1-0.3-1.2-0.5-1.2-0.8
	c0-0.3,0.2-0.5,0.7-0.5c0.6,0,0.9,0.3,1.2,0.8l1.3-0.8c-0.5-1-1.4-1.5-2.5-1.5c-1.2,0-2.3,0.8-2.3,2.1c0,1.3,1,1.8,2,2.1
	c1,0.3,1.4,0.4,1.4,0.9C163.5,137.4,163.3,137.7,162.6,137.7z M168.3,139.2c-1.4,0-2.6-1.1-2.6-2.6s1.2-2.6,2.6-2.6
	c1.4,0,2.6,1.1,2.6,2.6S169.7,139.2,168.3,139.2z M169.4,136.6c0-0.7-0.5-1.2-1.1-1.2s-1.1,0.5-1.1,1.2s0.5,1.2,1.1,1.2
	S169.4,137.3,169.4,136.6z M171.2,135.6h0.7v3.5h1.5v-3.5h0.9v-1.4h-0.9c0-0.6,0.4-0.7,0.9-0.7v-1.4c-1.6-0.1-2.4,0.7-2.4,2.1h-0.7
	V135.6z M175.3,137.3c0,1.4,0.6,1.9,2.5,1.7v-1.3c-0.6,0-1,0-1-0.4v-1.7h1v-1.4h-1v-1.4l-1.5,0.4v0.9h-0.8v1.4h0.8V137.3z
	 M181.9,136.5l0.8,2.6h1.4l1.6-4.9h-1.6l-0.7,2.6l-0.8-2.6h-1.4l-0.8,2.6l-0.7-2.6h-1.6l1.6,4.9h1.4L181.9,136.5z M189.6,138.6
	c-0.3,0.4-0.8,0.6-1.5,0.6c-1.3,0-2.3-1.1-2.3-2.6s1.1-2.6,2.3-2.6c0.7,0,1.1,0.2,1.5,0.6v-0.5h1.5v4.9h-1.5V138.6z M189.6,136.6
	c0-0.7-0.5-1.2-1.2-1.2s-1.2,0.5-1.2,1.2s0.5,1.2,1.2,1.2S189.6,137.3,189.6,136.6z M193.6,134.2h-1.5v4.9h1.5v-2.2
	c0-1,0.9-1.2,1.5-1.1v-1.7c-0.6,0-1.3,0.3-1.5,1V134.2z M195.3,136.6c0-1.5,1.1-2.6,2.6-2.6c1.4,0,2.5,1.1,2.5,2.6
	c0,0.2,0,0.4-0.1,0.6h-3.5c0.2,0.5,0.6,0.7,1.2,0.7c0.4,0,0.7-0.2,0.9-0.4l1.2,0.7c-0.5,0.7-1.2,1-2.1,1
	C196.4,139.2,195.3,138.1,195.3,136.6z M196.9,136.1h2.1c-0.2-0.6-0.6-0.8-1-0.8C197.4,135.3,197,135.6,196.9,136.1z M161.4,153.1
	h1.6v-5.3h1.8v-1.5h-5.1v1.5h1.8V153.1z M166.8,148c1.4,0,2.6,1.1,2.6,2.6s-1.2,2.6-2.6,2.6c-1.4,0-2.6-1.1-2.6-2.6
	S165.4,148,166.8,148z M166.8,149.5c-0.6,0-1.1,0.5-1.1,1.2s0.5,1.2,1.1,1.2s1.1-0.5,1.1-1.2S167.5,149.5,166.8,149.5z M171.7,150.9
	l1.6,2.2h1.7l-1.8-2.4l1.8-2.4h-1.7l-1.5,2.1v-4.1h-1.5v6.8h1.5V150.9z M180,151.2h-3.5c0.2,0.5,0.6,0.7,1.2,0.7
	c0.4,0,0.7-0.2,0.9-0.4l1.2,0.7c-0.5,0.7-1.2,1-2.1,1c-1.7,0-2.7-1.1-2.7-2.6s1.1-2.6,2.6-2.6c1.4,0,2.5,1.1,2.5,2.6
	C180,150.8,180,151,180,151.2z M178.6,150.1c-0.2-0.6-0.6-0.8-1-0.8c-0.6,0-0.9,0.3-1.1,0.8H178.6z M182.3,150.4c0-0.7,0.4-1,0.9-1
	c0.5,0,0.8,0.3,0.8,0.9v2.8h1.5v-3c0-1.3-0.8-2-1.8-2c-0.6,0-1.1,0.2-1.4,0.6v-0.5h-1.5v4.9h1.5V150.4z M187.3,146
	c-0.5,0-0.9,0.4-0.9,0.9s0.4,0.9,0.9,0.9c0.5,0,0.9-0.4,0.9-0.9S187.7,146,187.3,146z M188,148.2h-1.5v4.9h1.5V148.2z M190.8,151.9
	c-0.4,0-0.7-0.2-0.8-0.6l-1.3,0.7c0.4,0.8,1.1,1.2,2.1,1.2c1.1,0,2-0.5,2-1.6c0-1.8-2.4-1.4-2.4-2c0-0.2,0.2-0.3,0.4-0.3
	c0.3,0,0.5,0.2,0.7,0.4l1.2-0.7c-0.4-0.7-1.1-1-1.9-1c-1,0-1.9,0.5-1.9,1.6c0,1.7,2.4,1.4,2.4,1.9
	C191.3,151.8,191.1,151.9,190.8,151.9z M193.5,153.1h1.5v-4.9h-1.5V153.1z M194.3,146c-0.5,0-0.9,0.4-0.9,0.9s0.4,0.9,0.9,0.9
	c0.5,0,0.9-0.4,0.9-0.9S194.7,146,194.3,146z M200.9,150.6c0,0.2,0,0.4-0.1,0.6h-3.5c0.2,0.5,0.6,0.7,1.2,0.7c0.4,0,0.7-0.2,0.9-0.4
	l1.2,0.7c-0.5,0.7-1.2,1-2.1,1c-1.7,0-2.7-1.1-2.7-2.6s1.1-2.6,2.6-2.6C199.8,148,200.9,149.1,200.9,150.6z M199.4,150.1
	c-0.2-0.6-0.6-0.8-1-0.8c-0.6,0-0.9,0.3-1.1,0.8H199.4z M203.2,150.9c0-1,0.9-1.2,1.5-1.1v-1.7c-0.6,0-1.3,0.3-1.5,1v-0.9h-1.5v4.9
	h1.5V150.9z M207.1,153.2c0.6,0,1.1-0.2,1.4-0.6v0.5h1.5v-4.9h-1.5v2.7c0,0.7-0.4,1-0.9,1c-0.5,0-0.8-0.3-0.8-0.9v-2.8h-1.5v3
	C205.3,152.5,206.1,153.2,207.1,153.2z M212.5,150.4c0-0.7,0.4-1,0.9-1c0.5,0,0.8,0.3,0.8,0.9v2.8h1.5v-3c0-1.3-0.8-2-1.8-2
	c-0.6,0-1.1,0.2-1.4,0.6v-0.5H211v4.9h1.5V150.4z M216.5,150.5c0-1.3,1-2.5,2.4-2.5c0.6,0,1.1,0.2,1.4,0.6v-0.5h1.4v4.6
	c0,1.6-1.3,2.3-2.6,2.3c-1,0-1.9-0.4-2.3-1.2l1.2-0.7c0.2,0.3,0.5,0.6,1.1,0.6c0.7,0,1.1-0.4,1.1-1v-0.4c-0.3,0.4-0.8,0.6-1.4,0.6
	C217.5,153,216.5,151.9,216.5,150.5z M217.9,150.5c0,0.7,0.5,1.1,1.2,1.1c0.7,0,1.2-0.5,1.2-1.1s-0.5-1.1-1.2-1.1
	C218.4,149.4,217.9,149.8,217.9,150.5z M162.6,165.7c-0.8,0-1.2-0.4-1.4-0.9l-1.3,0.8c0.4,1,1.3,1.7,2.7,1.7c1.5,0,2.5-0.8,2.5-2.1
	c0-1.4-1.2-1.8-2.2-2.1c-1.1-0.3-1.2-0.5-1.2-0.8c0-0.3,0.2-0.5,0.7-0.5c0.6,0,0.9,0.3,1.2,0.8l1.3-0.8c-0.5-1-1.4-1.5-2.5-1.5
	c-1.2,0-2.3,0.8-2.3,2.1c0,1.3,1,1.8,2,2.1c1,0.3,1.4,0.4,1.4,0.9C163.5,165.4,163.3,165.7,162.6,165.7z M171.7,164.2v2.9h1.5v-3
	c0-1.2-0.7-2-1.9-2c-0.7,0-1.1,0.3-1.4,0.6c-0.3-0.4-0.7-0.6-1.3-0.6c-0.7,0-1.1,0.3-1.3,0.6v-0.4h-1.5v4.9h1.5v-2.7
	c0-0.6,0.3-0.9,0.8-0.9c0.5,0,0.7,0.3,0.7,0.8v2.9h1.5v-2.7c0-0.6,0.3-0.9,0.8-0.9C171.4,163.4,171.7,163.7,171.7,164.2z
	 M177.7,166.6c-0.3,0.4-0.8,0.6-1.5,0.6c-1.3,0-2.3-1.1-2.3-2.6s1.1-2.6,2.3-2.6c0.7,0,1.1,0.2,1.5,0.6v-0.5h1.5v4.9h-1.5V166.6z
	 M177.7,164.6c0-0.7-0.5-1.2-1.2-1.2c-0.7,0-1.2,0.5-1.2,1.2s0.5,1.2,1.2,1.2C177.2,165.8,177.7,165.3,177.7,164.6z M183.1,163.7
	v-1.7c-0.6,0-1.3,0.3-1.5,1v-0.9h-1.5v4.9h1.5v-2.2C181.7,163.9,182.5,163.6,183.1,163.7z M186.8,163.6v-1.4h-1v-1.4l-1.5,0.4v0.9
	h-0.8v1.4h0.8v1.7c0,1.4,0.6,1.9,2.5,1.7v-1.3c-0.6,0-1,0-1-0.4v-1.7H186.8z M190,167.2c-1.7,0-2.7-1.1-2.7-2.6s1.1-2.6,2.6-2.6
	c1.4,0,2.5,1.1,2.5,2.6c0,0.2,0,0.4-0.1,0.6h-3.5c0.2,0.5,0.6,0.7,1.2,0.7c0.4,0,0.7-0.2,0.9-0.4l1.2,0.7
	C191.7,166.9,190.9,167.2,190,167.2z M188.8,164.1h2.1c-0.2-0.6-0.6-0.8-1-0.8C189.3,163.3,189,163.6,188.8,164.1z M198.3,165.3
	l-1.5-5h-1.7l2.2,6.8h2l2.2-6.8h-1.7L198.3,165.3z M204,167.2c-1.7,0-2.7-1.1-2.7-2.6s1.1-2.6,2.6-2.6c1.4,0,2.5,1.1,2.5,2.6
	c0,0.2,0,0.4-0.1,0.6h-3.5c0.2,0.5,0.6,0.7,1.2,0.7c0.4,0,0.7-0.2,0.9-0.4l1.2,0.7C205.6,166.9,204.9,167.2,204,167.2z M202.8,164.1
	h2.1c-0.2-0.6-0.6-0.8-1-0.8C203.3,163.3,202.9,163.6,202.8,164.1z M208.6,163v-0.9h-1.5v4.9h1.5v-2.2c0-1,0.9-1.2,1.5-1.1v-1.7
	C209.5,162.1,208.8,162.4,208.6,163z M211.3,165.3c0,1.4,0.6,1.9,2.5,1.7v-1.3c-0.6,0-1,0-1-0.4v-1.7h1v-1.4h-1v-1.4l-1.5,0.4v0.9
	h-0.8v1.4h0.8V165.3z M217.6,163.7v-1.7c-0.6,0-1.3,0.3-1.5,1v-0.9h-1.5v4.9h1.5v-2.2C216.2,163.9,217,163.6,217.6,163.7z
	 M219,161.1c0,0.4,0.3,0.7,0.7,0.7c0.4,0,0.7-0.3,0.7-0.7c0-0.4-0.3-0.7-0.7-0.7C219.3,160.3,219,160.7,219,161.1z M220.9,161.1
	c0,0.4,0.3,0.7,0.7,0.7c0.4,0,0.7-0.3,0.7-0.7c0-0.4-0.3-0.7-0.7-0.7C221.2,160.3,220.9,160.7,220.9,161.1z M221.7,162.2h1.5v4.9
	h-1.5v-0.5c-0.3,0.4-0.8,0.6-1.5,0.6c-1.3,0-2.3-1.1-2.3-2.6s1.1-2.6,2.3-2.6c0.7,0,1.1,0.2,1.5,0.6V162.2z M221.7,164.6
	c0-0.7-0.5-1.2-1.2-1.2c-0.7,0-1.2,0.5-1.2,1.2s0.5,1.2,1.2,1.2C221.2,165.8,221.7,165.3,221.7,164.6z M227.8,166.8v-0.4
	c-0.3,0.4-0.8,0.6-1.4,0.6c-1.4,0-2.4-1.1-2.4-2.5s1-2.5,2.4-2.5c0.6,0,1.1,0.2,1.4,0.6v-0.5h1.4v4.6c0,1.6-1.3,2.3-2.6,2.3
	c-1,0-1.9-0.4-2.3-1.2l1.2-0.7c0.2,0.3,0.5,0.6,1.1,0.6C227.4,167.9,227.8,167.5,227.8,166.8z M227.8,164.5c0-0.7-0.5-1.1-1.2-1.1
	c-0.7,0-1.2,0.5-1.2,1.1s0.5,1.1,1.2,1.1C227.3,165.7,227.8,165.2,227.8,164.5z M230.1,164.6c0-1.5,1.1-2.6,2.6-2.6
	c1.4,0,2.5,1.1,2.5,2.6c0,0.2,0,0.4-0.1,0.6h-3.5c0.2,0.5,0.6,0.7,1.2,0.7c0.4,0,0.7-0.2,0.9-0.4l1.2,0.7c-0.5,0.7-1.2,1-2.1,1
	C231.1,167.2,230.1,166.1,230.1,164.6z M231.6,164.1h2.1c-0.2-0.6-0.6-0.8-1-0.8C232.1,163.3,231.7,163.6,231.6,164.1z M165.6,174.2
	h-1.8l-2.1,3v-3h-1.6v6.8h1.6v-3.2l2.2,3.2h1.8l-2.4-3.5L165.6,174.2z M170.6,178.6c0,0.2,0,0.4-0.1,0.6h-3.5
	c0.2,0.5,0.6,0.7,1.2,0.7c0.4,0,0.7-0.2,0.9-0.4l1.2,0.7c-0.5,0.7-1.2,1-2.1,1c-1.7,0-2.7-1.1-2.7-2.6s1.1-2.6,2.6-2.6
	C169.6,176,170.6,177.1,170.6,178.6z M169.2,178.1c-0.2-0.6-0.6-0.8-1-0.8c-0.6,0-0.9,0.3-1.1,0.8H169.2z M174.3,176
	c-0.6,0-1.1,0.2-1.4,0.6v-0.5h-1.5v4.9h1.5v-2.7c0-0.7,0.4-1,0.9-1c0.5,0,0.8,0.3,0.8,0.9v2.8h1.5v-3
	C176.1,176.7,175.3,176,174.3,176z M180,176c-0.6,0-1.1,0.2-1.4,0.6v-0.5h-1.5v4.9h1.5v-2.7c0-0.7,0.4-1,0.9-1
	c0.5,0,0.8,0.3,0.8,0.9v2.8h1.5v-3C181.8,176.7,181,176,180,176z M187.6,178.6c0,0.2,0,0.4-0.1,0.6h-3.5c0.2,0.5,0.6,0.7,1.2,0.7
	c0.4,0,0.7-0.2,0.9-0.4l1.2,0.7c-0.5,0.7-1.2,1-2.1,1c-1.7,0-2.7-1.1-2.7-2.6s1.1-2.6,2.6-2.6C186.6,176,187.6,177.1,187.6,178.6z
	 M186.2,178.1c-0.2-0.6-0.6-0.8-1-0.8c-0.6,0-0.9,0.3-1.1,0.8H186.2z M194.4,174.2h1.5v6.8h-1.5v-0.5c-0.3,0.4-0.8,0.6-1.5,0.6
	c-1.3,0-2.3-1.1-2.3-2.6s1.1-2.6,2.3-2.6c0.7,0,1.1,0.2,1.5,0.6V174.2z M194.4,178.6c0-0.7-0.5-1.2-1.2-1.2c-0.7,0-1.2,0.5-1.2,1.2
	s0.5,1.2,1.2,1.2C194,179.8,194.4,179.3,194.4,178.6z M201.8,178.6c0,0.2,0,0.4-0.1,0.6h-3.5c0.2,0.5,0.6,0.7,1.2,0.7
	c0.4,0,0.7-0.2,0.9-0.4l1.2,0.7c-0.5,0.7-1.2,1-2.1,1c-1.7,0-2.7-1.1-2.7-2.6s1.1-2.6,2.6-2.6C200.8,176,201.8,177.1,201.8,178.6z
	 M200.4,178.1c-0.2-0.6-0.6-0.8-1-0.8c-0.6,0-0.9,0.3-1.1,0.8H200.4z M203.4,174c-0.5,0-0.9,0.4-0.9,0.9s0.4,0.9,0.9,0.9
	c0.5,0,0.9-0.4,0.9-0.9S203.9,174,203.4,174z M202.6,181.1h1.5v-4.9h-1.5V181.1z M208,176c-0.6,0-1.1,0.2-1.4,0.6v-0.5h-1.5v4.9h1.5
	v-2.7c0-0.7,0.4-1,0.9-1c0.5,0,0.8,0.3,0.8,0.9v2.8h1.5v-3C209.9,176.7,209,176,208,176z M215.7,178.6c0,0.2,0,0.4-0.1,0.6h-3.5
	c0.2,0.5,0.6,0.7,1.2,0.7c0.4,0,0.7-0.2,0.9-0.4l1.2,0.7c-0.5,0.7-1.2,1-2.1,1c-1.7,0-2.7-1.1-2.7-2.6s1.1-2.6,2.6-2.6
	C214.6,176,215.7,177.1,215.7,178.6z M214.2,178.1c-0.2-0.6-0.6-0.8-1-0.8c-0.6,0-0.9,0.3-1.1,0.8H214.2z M219.4,176
	c-0.6,0-1.1,0.2-1.4,0.6v-0.5h-1.5v4.9h1.5v-2.7c0-0.7,0.4-1,0.9-1c0.5,0,0.8,0.3,0.8,0.9v2.8h1.5v-3
	C221.2,176.7,220.4,176,219.4,176z M230.1,174.2h-1.8l-2.1,3v-3h-1.6v6.8h1.6v-3.2l2.2,3.2h1.8l-2.4-3.5L230.1,174.2z M233.7,178.8
	c0,0.7-0.4,1-0.9,1c-0.5,0-0.8-0.3-0.8-0.9v-2.8h-1.5v3c0,1.3,0.8,2,1.8,2c0.6,0,1.1-0.2,1.4-0.6v0.5h1.5v-4.9h-1.5V178.8z
	 M239.1,176c-0.6,0-1.1,0.2-1.4,0.6v-0.5h-1.5v4.9h1.5v-2.7c0-0.7,0.4-1,0.9-1c0.5,0,0.8,0.3,0.8,0.9v2.8h1.5v-3
	C240.9,176.7,240.1,176,239.1,176z M245.5,174.2h1.5v6.8h-1.5v-0.5c-0.3,0.4-0.8,0.6-1.5,0.6c-1.3,0-2.3-1.1-2.3-2.6
	s1.1-2.6,2.3-2.6c0.7,0,1.1,0.2,1.5,0.6V174.2z M245.5,178.6c0-0.7-0.5-1.2-1.2-1.2s-1.2,0.5-1.2,1.2s0.5,1.2,1.2,1.2
	S245.5,179.3,245.5,178.6z M252.8,178.6c0,0.2,0,0.4-0.1,0.6h-3.5c0.2,0.5,0.6,0.7,1.2,0.7c0.4,0,0.7-0.2,0.9-0.4l1.2,0.7
	c-0.5,0.7-1.2,1-2.1,1c-1.7,0-2.7-1.1-2.7-2.6s1.1-2.6,2.6-2.6C251.8,176,252.8,177.1,252.8,178.6z M251.4,178.1
	c-0.2-0.6-0.6-0.8-1-0.8c-0.6,0-0.9,0.3-1.1,0.8H251.4z M256.5,176c-0.6,0-1.1,0.2-1.4,0.6v-0.5h-1.5v4.9h1.5v-2.7
	c0-0.7,0.4-1,0.9-1c0.5,0,0.8,0.3,0.8,0.9v2.8h1.5v-3C258.4,176.7,257.5,176,256.5,176z M266.9,108.5h2.5V107h-2.5v-1.3h2.6v-1.5
	h-4.1v6.8h1.6V108.5z M270.4,111.1h1.5v-4.9h-1.5V111.1z M271.1,105.8c0.5,0,0.9-0.4,0.9-0.9c0-0.5-0.4-0.9-0.9-0.9
	s-0.9,0.4-0.9,0.9C270.2,105.4,270.6,105.8,271.1,105.8z M272.7,108.6c0-1.5,1.1-2.6,2.3-2.6c0.7,0,1.1,0.2,1.5,0.6v-0.5h1.5v4.9
	h-1.5v-0.5c-0.3,0.4-0.8,0.6-1.5,0.6C273.7,111.2,272.7,110.1,272.7,108.6z M274.1,108.6c0,0.7,0.5,1.2,1.2,1.2s1.2-0.5,1.2-1.2
	s-0.5-1.2-1.2-1.2S274.1,107.9,274.1,108.6z M279.4,109.3c0,1.4,0.6,1.9,2.5,1.7v-1.3c-0.6,0-1,0-1-0.4v-1.7h1v-1.4h-1v-1.4
	l-1.5,0.4v0.9h-0.8v1.4h0.8V109.3z M286.4,107.4h-3.7v1.4h3.7V107.4z M289.9,111.1l0.8-2.6l0.8,2.6h1.4l1.6-4.9h-1.6l-0.7,2.6
	l-0.8-2.6H290l-0.8,2.6l-0.7-2.6H287l1.6,4.9H289.9z M296.3,105.8c0.4,0,0.7-0.3,0.7-0.7c0-0.4-0.3-0.7-0.7-0.7s-0.7,0.3-0.7,0.7
	C295.6,105.5,295.9,105.8,296.3,105.8z M298.2,105.8c0.4,0,0.7-0.3,0.7-0.7c0-0.4-0.3-0.7-0.7-0.7s-0.7,0.3-0.7,0.7
	C297.5,105.5,297.8,105.8,298.2,105.8z M294.5,108.6c0-1.5,1.1-2.6,2.3-2.6c0.7,0,1.1,0.2,1.5,0.6v-0.5h1.5v4.9h-1.5v-0.5
	c-0.3,0.4-0.8,0.6-1.5,0.6C295.6,111.2,294.5,110.1,294.5,108.6z M296,108.6c0,0.7,0.5,1.2,1.2,1.2c0.7,0,1.2-0.5,1.2-1.2
	s-0.5-1.2-1.2-1.2C296.5,107.4,296,107.9,296,108.6z M302.3,108.4c0-0.7,0.4-1,0.9-1c0.5,0,0.8,0.3,0.8,0.9v2.8h1.5v-3
	c0-1.3-0.8-2-1.8-2c-0.6,0-1.1,0.2-1.4,0.6v-2.4h-1.5v6.8h1.5V108.4z M308,108.9c0-1,0.9-1.2,1.5-1.1v-1.7c-0.6,0-1.3,0.3-1.5,1
	v-0.9h-1.5v4.9h1.5V108.9z M311.9,111.2c0.6,0,1.1-0.2,1.4-0.6v0.5h1.5v-4.9h-1.5v2.7c0,0.7-0.4,1-0.9,1c-0.5,0-0.8-0.3-0.8-0.9
	v-2.8h-1.5v3C310.1,110.5,310.9,111.2,311.9,111.2z M317.3,108.4c0-0.7,0.4-1,0.9-1c0.5,0,0.8,0.3,0.8,0.9v2.8h1.5v-3
	c0-1.3-0.8-2-1.8-2c-0.6,0-1.1,0.2-1.4,0.6v-0.5h-1.5v4.9h1.5V108.4z M321.3,108.5c0-1.3,1-2.5,2.4-2.5c0.6,0,1.1,0.2,1.4,0.6v-0.5
	h1.4v4.6c0,1.6-1.3,2.3-2.6,2.3c-1,0-1.9-0.4-2.3-1.2l1.2-0.7c0.2,0.3,0.5,0.6,1.1,0.6c0.7,0,1.1-0.4,1.1-1v-0.4
	c-0.3,0.4-0.8,0.6-1.4,0.6C322.3,111,321.3,109.9,321.3,108.5z M322.7,108.5c0,0.7,0.5,1.1,1.2,1.1s1.2-0.5,1.2-1.1
	s-0.5-1.1-1.2-1.1S322.7,107.8,322.7,108.5z M327.4,108.6c0-1.5,1.1-2.6,2.6-2.6c1.4,0,2.5,1.1,2.5,2.6c0,0.2,0,0.4-0.1,0.6h-3.5
	c0.2,0.5,0.6,0.7,1.2,0.7c0.4,0,0.7-0.2,0.9-0.4l1.2,0.7c-0.5,0.7-1.2,1-2.1,1C328.4,111.2,327.4,110.1,327.4,108.6z M328.9,108.1
	h2.1c-0.2-0.6-0.6-0.8-1-0.8C329.4,107.3,329,107.6,328.9,108.1z M334.7,108.4c0-0.7,0.4-1,0.9-1c0.5,0,0.8,0.3,0.8,0.9v2.8h1.5v-3
	c0-1.3-0.8-2-1.8-2c-0.6,0-1.1,0.2-1.4,0.6v-0.5h-1.5v4.9h1.5V108.4z M269,122.6h1.8c-0.2,0.7-0.8,1.1-1.7,1.1c-1.3,0-2.1-0.8-2.1-2
	c0-1.2,0.9-2,2-2c0.8,0,1.4,0.4,1.7,0.8l1.3-0.8c-0.6-0.9-1.7-1.6-3-1.6c-2,0-3.6,1.6-3.6,3.6c0,2,1.5,3.5,3.7,3.5
	c1.9,0,3.4-1.3,3.4-3.4v-0.6H269V122.6z M278.1,122.6c0,0.2,0,0.4-0.1,0.6h-3.5c0.2,0.5,0.6,0.7,1.2,0.7c0.4,0,0.7-0.2,0.9-0.4
	l1.2,0.7c-0.5,0.7-1.2,1-2.1,1c-1.7,0-2.7-1.1-2.7-2.6s1.1-2.6,2.6-2.6C277.1,120,278.1,121.1,278.1,122.6z M276.7,122.1
	c-0.2-0.6-0.6-0.8-1-0.8c-0.6,0-0.9,0.3-1.1,0.8H276.7z M281.9,125.2c-0.7,0-1.1-0.2-1.5-0.6v2.4h-1.5v-6.8h1.5v0.5
	c0.3-0.4,0.8-0.6,1.5-0.6c1.3,0,2.3,1.1,2.3,2.6S283.1,125.2,281.9,125.2z M282.7,122.6c0-0.7-0.5-1.2-1.2-1.2s-1.2,0.5-1.2,1.2
	s0.5,1.2,1.2,1.2S282.7,123.3,282.7,122.6z M285,120.2v4.9h1.5v-2.2c0-1,0.9-1.2,1.5-1.1v-1.7c-0.6,0-1.3,0.3-1.5,1v-0.9H285z
	 M293.2,125.1v-4.9h-1.5v2.7c0,0.7-0.4,1-0.9,1c-0.5,0-0.8-0.3-0.8-0.9v-2.8h-1.5v3c0,1.3,0.8,2,1.8,2c0.6,0,1.1-0.2,1.4-0.6v0.5
	H293.2z M290.7,119.1c0-0.4-0.3-0.7-0.7-0.7c-0.4,0-0.7,0.3-0.7,0.7c0,0.4,0.3,0.7,0.7,0.7C290.4,119.8,290.7,119.5,290.7,119.1z
	 M292.6,119.1c0-0.4-0.3-0.7-0.7-0.7c-0.4,0-0.7,0.3-0.7,0.7c0,0.4,0.3,0.7,0.7,0.7C292.2,119.8,292.6,119.5,292.6,119.1z
	 M297,119.5v-1.4c-1.6-0.1-2.4,0.7-2.4,2.1H294v1.4h0.7v3.5h1.5v-3.5h0.9v-1.4h-0.9C296.1,119.6,296.5,119.4,297,119.5z
	 M299.5,118.8l-1.5,0.4v0.9h-0.8v1.4h0.8v1.7c0,1.4,0.6,1.9,2.5,1.7v-1.3c-0.6,0-1,0-1-0.4v-1.7h1v-1.4h-1V118.8z M306.1,122.6
	c0,0.2,0,0.4-0.1,0.6h-3.5c0.2,0.5,0.6,0.7,1.2,0.7c0.4,0,0.7-0.2,0.9-0.4l1.2,0.7c-0.5,0.7-1.2,1-2.1,1c-1.7,0-2.7-1.1-2.7-2.6
	s1.1-2.6,2.6-2.6C305.1,120,306.1,121.1,306.1,122.6z M304.7,122.1c-0.2-0.6-0.6-0.8-1-0.8c-0.6,0-0.9,0.3-1.1,0.8H304.7z
	 M314,118.2h-5.1v1.5h1.8v5.3h1.6v-5.3h1.8V118.2z M314.1,120.2v4.9h1.5v-2.2c0-1,0.9-1.2,1.5-1.1v-1.7c-0.6,0-1.3,0.3-1.5,1v-0.9
	H314.1z M319.6,120c0.7,0,1.1,0.2,1.5,0.6v-0.5h1.5v4.9h-1.5v-0.5c-0.3,0.4-0.8,0.6-1.5,0.6c-1.3,0-2.3-1.1-2.3-2.6
	S318.3,120,319.6,120z M319.9,121.4c-0.7,0-1.2,0.5-1.2,1.2s0.5,1.2,1.2,1.2s1.2-0.5,1.2-1.2S320.6,121.4,319.9,121.4z M325.7,120
	c0.7,0,1.1,0.2,1.5,0.6v-2.4h1.5v6.8h-1.5v-0.5c-0.3,0.4-0.8,0.6-1.5,0.6c-1.3,0-2.3-1.1-2.3-2.6S324.4,120,325.7,120z M326,121.4
	c-0.7,0-1.2,0.5-1.2,1.2s0.5,1.2,1.2,1.2s1.2-0.5,1.2-1.2S326.7,121.4,326,121.4z M332.1,125.2c-1.7,0-2.7-1.1-2.7-2.6
	s1.1-2.6,2.6-2.6c1.4,0,2.5,1.1,2.5,2.6c0,0.2,0,0.4-0.1,0.6H331c0.2,0.5,0.6,0.7,1.2,0.7c0.4,0,0.7-0.2,0.9-0.4l1.2,0.7
	C333.8,124.9,333.1,125.2,332.1,125.2z M331,122.1h2.1c-0.2-0.6-0.6-0.8-1-0.8C331.5,121.3,331.1,121.6,331,122.1z M336.8,121v-0.9
	h-1.5v4.9h1.5v-2.2c0-1,0.9-1.2,1.5-1.1v-1.7C337.6,120.1,337,120.4,336.8,121z M282.5,133.7h1.8v5.3h1.6v-5.3h1.8v-1.5h-5.1V133.7z
	 M289.1,135v-0.9h-1.5v4.9h1.5v-2.2c0-1,0.9-1.2,1.5-1.1v-1.7C289.9,134.1,289.3,134.4,289.1,135z M290.8,136.6
	c0-1.5,1.1-2.6,2.3-2.6c0.7,0,1.1,0.2,1.5,0.6v-0.5h1.5v4.9h-1.5v-0.5c-0.3,0.4-0.8,0.6-1.5,0.6
	C291.9,139.2,290.8,138.1,290.8,136.6z M292.3,136.6c0,0.7,0.5,1.2,1.2,1.2s1.2-0.5,1.2-1.2s-0.5-1.2-1.2-1.2
	S292.3,135.9,292.3,136.6z M297.1,134.2v4.9h1.5v-2.7c0-0.7,0.4-1,0.9-1c0.5,0,0.8,0.3,0.8,0.9v2.8h1.5v-3c0-1.3-0.8-2-1.8-2
	c-0.6,0-1.1,0.2-1.4,0.6v-0.5H297.1z M302.7,135.6c0,1.7,2.4,1.4,2.4,1.9c0,0.2-0.2,0.3-0.5,0.3c-0.4,0-0.7-0.2-0.8-0.6l-1.3,0.7
	c0.4,0.8,1.1,1.2,2.1,1.2c1.1,0,2-0.5,2-1.6c0-1.8-2.4-1.4-2.4-2c0-0.2,0.2-0.3,0.4-0.3c0.3,0,0.5,0.2,0.7,0.4l1.2-0.7
	c-0.4-0.7-1.1-1-1.9-1C303.6,134,302.7,134.6,302.7,135.6z M312.6,136.6c0,1.5-1.1,2.6-2.3,2.6c-0.7,0-1.1-0.2-1.5-0.6v2.4h-1.5
	v-6.8h1.5v0.5c0.3-0.4,0.8-0.6,1.5-0.6C311.6,134,312.6,135.2,312.6,136.6z M311.2,136.6c0-0.7-0.5-1.2-1.2-1.2s-1.2,0.5-1.2,1.2
	s0.5,1.2,1.2,1.2S311.2,137.3,311.2,136.6z M313.2,136.6c0-1.5,1.1-2.6,2.3-2.6c0.7,0,1.1,0.2,1.5,0.6v-0.5h1.5v4.9H317v-0.5
	c-0.3,0.4-0.8,0.6-1.5,0.6C314.3,139.2,313.2,138.1,313.2,136.6z M314.7,136.6c0,0.7,0.5,1.2,1.2,1.2s1.2-0.5,1.2-1.2
	s-0.5-1.2-1.2-1.2S314.7,135.9,314.7,136.6z M319.6,134.2v4.9h1.5v-2.2c0-1,0.9-1.2,1.5-1.1v-1.7c-0.6,0-1.3,0.3-1.5,1v-0.9H319.6z
	 M327.8,137.2h-3.5c0.2,0.5,0.6,0.7,1.2,0.7c0.4,0,0.7-0.2,0.9-0.4l1.2,0.7c-0.5,0.7-1.2,1-2.1,1c-1.7,0-2.7-1.1-2.7-2.6
	s1.1-2.6,2.6-2.6c1.4,0,2.5,1.1,2.5,2.6C327.8,136.8,327.8,137,327.8,137.2z M326.4,136.1c-0.2-0.6-0.6-0.8-1-0.8
	c-0.6,0-0.9,0.3-1.1,0.8H326.4z M333.4,136.1c0-1.3-0.8-2-1.8-2c-0.6,0-1.1,0.2-1.4,0.6v-0.5h-1.5v4.9h1.5v-2.7c0-0.7,0.4-1,0.9-1
	c0.5,0,0.8,0.3,0.8,0.9v2.8h1.5V136.1z M338,134.2h-3.7v1.4h1.7l-1.8,2.5v1h3.9v-1.4h-1.9l1.8-2.5V134.2z M294.5,149.3l-1.9-3h-1.6
	v6.8h1.6v-4l1.8,2.9h0.2l1.8-2.9v4h1.6v-6.8h-1.6L294.5,149.3z M300.8,153.2c0.6,0,1.1-0.2,1.4-0.6v0.5h1.5v-4.9h-1.5v2.7
	c0,0.7-0.4,1-0.9,1c-0.5,0-0.8-0.3-0.8-0.9v-2.8H299v3C299,152.5,299.8,153.2,300.8,153.2z M306.2,145.9h-1.5v7.1h1.5V145.9z
	 M307.7,147.3v0.9h-0.8v1.4h0.8v1.7c0,1.4,0.6,1.9,2.5,1.7v-1.3c-0.6,0-1,0-1-0.4v-1.7h1v-1.4h-1v-1.4L307.7,147.3z M312.4,148.2
	H311v4.9h1.5V148.2z M311.7,146c-0.5,0-0.9,0.4-0.9,0.9s0.4,0.9,0.9,0.9s0.9-0.4,0.9-0.9S312.2,146,311.7,146z M315,153.1h-1.5v-6.8
	h1.5v2.4c0.3-0.4,0.8-0.6,1.5-0.6c1.3,0,2.3,1.1,2.3,2.6s-1.1,2.6-2.3,2.6c-0.7,0-1.1-0.2-1.5-0.6V153.1z M315,150.6
	c0,0.7,0.5,1.2,1.2,1.2s1.2-0.5,1.2-1.2s-0.5-1.2-1.2-1.2S315,149.9,315,150.6z M321.9,153.2c-1.4,0-2.6-1.1-2.6-2.6
	s1.2-2.6,2.6-2.6c1.4,0,2.6,1.1,2.6,2.6S323.4,153.2,321.9,153.2z M321.9,151.8c0.6,0,1.1-0.5,1.1-1.2s-0.5-1.2-1.1-1.2
	s-1.1,0.5-1.1,1.2S321.3,151.8,321.9,151.8z M322.1,147c0,0.4,0.3,0.7,0.7,0.7s0.7-0.3,0.7-0.7s-0.3-0.7-0.7-0.7
	S322.1,146.6,322.1,147z M320.3,147c0,0.4,0.3,0.7,0.7,0.7s0.7-0.3,0.7-0.7s-0.3-0.7-0.7-0.7S320.3,146.6,320.3,147z M326.8,150.9
	c0-1,0.9-1.2,1.5-1.1v-1.7c-0.6,0-1.3,0.3-1.5,1v-0.9h-1.5v4.9h1.5V150.9z M332.6,151.6c0-1.8-2.4-1.4-2.4-2c0-0.2,0.2-0.3,0.4-0.3
	c0.3,0,0.5,0.2,0.7,0.4l1.2-0.7c-0.4-0.7-1.1-1-1.9-1c-1,0-1.9,0.5-1.9,1.6c0,1.7,2.4,1.4,2.4,1.9c0,0.2-0.2,0.3-0.5,0.3
	c-0.4,0-0.7-0.2-0.8-0.6l-1.3,0.7c0.4,0.8,1.1,1.2,2.1,1.2C331.6,153.2,332.6,152.7,332.6,151.6z M338.1,150.6c0,0.2,0,0.4-0.1,0.6
	h-3.5c0.2,0.5,0.6,0.7,1.2,0.7c0.4,0,0.7-0.2,0.9-0.4l1.2,0.7c-0.5,0.7-1.2,1-2.1,1c-1.7,0-2.7-1.1-2.7-2.6s1.1-2.6,2.6-2.6
	C337.1,148,338.1,149.1,338.1,150.6z M336.7,150.1c-0.2-0.6-0.6-0.8-1-0.8c-0.6,0-0.9,0.3-1.1,0.8H336.7z M295.7,163
	c-1.1-0.3-1.2-0.5-1.2-0.8c0-0.3,0.2-0.5,0.7-0.5c0.6,0,0.9,0.3,1.2,0.8l1.3-0.8c-0.5-1-1.4-1.5-2.5-1.5c-1.2,0-2.3,0.8-2.3,2.1
	c0,1.3,1,1.8,2,2.1c1,0.3,1.4,0.4,1.4,0.9c0,0.3-0.2,0.6-0.9,0.6c-0.8,0-1.2-0.4-1.4-0.9l-1.3,0.8c0.4,1,1.3,1.7,2.7,1.7
	c1.5,0,2.5-0.8,2.5-2.1C297.9,163.7,296.8,163.3,295.7,163z M299.4,161.8c0.5,0,0.9-0.4,0.9-0.9s-0.4-0.9-0.9-0.9s-0.9,0.4-0.9,0.9
	S298.9,161.8,299.4,161.8z M298.7,167.1h1.5v-4.9h-1.5V167.1z M303.5,163.5c0.4,0,0.8,0.2,0.9,0.5l1.3-0.7c-0.4-0.8-1.3-1.2-2.2-1.2
	c-1.5,0-2.6,1.1-2.6,2.6s1.1,2.6,2.6,2.6c1,0,1.8-0.5,2.2-1.3l-1.3-0.7c-0.2,0.3-0.5,0.5-0.9,0.5c-0.6,0-1.1-0.5-1.1-1.1
	S302.9,163.5,303.5,163.5z M311,167.1v-3c0-1.3-0.8-2-1.8-2c-0.6,0-1.1,0.2-1.4,0.6v-2.4h-1.5v6.8h1.5v-2.7c0-0.7,0.4-1,0.9-1
	c0.5,0,0.8,0.3,0.8,0.9v2.8H311z M316.8,164.6c0,0.2,0,0.4-0.1,0.6h-3.5c0.2,0.5,0.6,0.7,1.2,0.7c0.4,0,0.7-0.2,0.9-0.4l1.2,0.7
	c-0.5,0.7-1.2,1-2.1,1c-1.7,0-2.7-1.1-2.7-2.6s1.1-2.6,2.6-2.6C315.8,162,316.8,163.1,316.8,164.6z M315.4,164.1
	c-0.2-0.6-0.6-0.8-1-0.8c-0.6,0-0.9,0.3-1.1,0.8H315.4z M319.1,164.9c0-1,0.9-1.2,1.5-1.1v-1.7c-0.6,0-1.3,0.3-1.5,1v-0.9h-1.5v4.9
	h1.5V164.9z M326,167.1v-3c0-1.3-0.8-2-1.8-2c-0.6,0-1.1,0.2-1.4,0.6v-2.4h-1.5v6.8h1.5v-2.7c0-0.7,0.4-1,0.9-1
	c0.5,0,0.8,0.3,0.8,0.9v2.8H326z M331.7,165.2h-3.5c0.2,0.5,0.6,0.7,1.2,0.7c0.4,0,0.7-0.2,0.9-0.4l1.2,0.7c-0.5,0.7-1.2,1-2.1,1
	c-1.7,0-2.7-1.1-2.7-2.6s1.1-2.6,2.6-2.6c1.4,0,2.5,1.1,2.5,2.6C331.8,164.8,331.8,165,331.7,165.2z M330.3,164.1
	c-0.2-0.6-0.6-0.8-1-0.8c-0.6,0-0.9,0.3-1.1,0.8H330.3z M333.4,160c-0.5,0-0.9,0.4-0.9,0.9s0.4,0.9,0.9,0.9s0.9-0.4,0.9-0.9
	S333.8,160,333.4,160z M332.6,167.1h1.5v-4.9h-1.5V167.1z M337,160.8l-1.5,0.4v0.9h-0.8v1.4h0.8v1.7c0,1.4,0.6,1.9,2.5,1.7v-1.3
	c-0.6,0-1,0-1-0.4v-1.7h1v-1.4h-1V160.8z M304.5,174.2l2.3,6.8h-1.7l-0.3-1.1h-2.5l-0.3,1.1h-1.7l2.3-6.8H304.5z M304.3,178.5
	l-0.8-2.5l-0.8,2.5H304.3z M310.5,178.8c0,0.7-0.4,1-0.9,1c-0.5,0-0.8-0.3-0.8-0.9v-2.8h-1.5v3c0,1.3,0.8,2,1.8,2
	c0.6,0,1.1-0.2,1.4-0.6v0.5h1.5v-4.9h-1.5V178.8z M314.3,177.6c0-0.2,0.2-0.3,0.4-0.3c0.3,0,0.5,0.2,0.7,0.4l1.2-0.7
	c-0.4-0.7-1.1-1-1.9-1c-1,0-1.9,0.5-1.9,1.6c0,1.7,2.4,1.4,2.4,1.9c0,0.2-0.2,0.3-0.5,0.3c-0.4,0-0.7-0.2-0.8-0.6l-1.3,0.7
	c0.4,0.8,1.1,1.2,2.1,1.2c1.1,0,2-0.5,2-1.6C316.7,177.8,314.3,178.2,314.3,177.6z M322,178.8l-0.8-2.6h-1.4l-0.8,2.6l-0.7-2.6h-1.6
	l1.6,4.9h1.4l0.8-2.6l0.8,2.6h1.4l1.6-4.9h-1.6L322,178.8z M328.2,176.2h1.5v4.9h-1.5v-0.5c-0.3,0.4-0.8,0.6-1.5,0.6
	c-1.3,0-2.3-1.1-2.3-2.6s1.1-2.6,2.3-2.6c0.7,0,1.1,0.2,1.5,0.6V176.2z M328.2,178.6c0-0.7-0.5-1.2-1.2-1.2s-1.2,0.5-1.2,1.2
	s0.5,1.2,1.2,1.2S328.2,179.3,328.2,178.6z M333.6,176c-0.6,0-1.1,0.2-1.4,0.6v-2.4h-1.5v6.8h1.5v-2.7c0-0.7,0.4-1,0.9-1
	c0.5,0,0.8,0.3,0.8,0.9v2.8h1.5v-3C335.4,176.7,334.6,176,333.6,176z M336.4,181.1h1.5v-7.1h-1.5V181.1z"/>
<path class="st0" d="M16.1,35.3h-0.9v-5.5h3.2v0.9h-2.3v1.5h2.2V33h-2.2V35.3z M20.1,33.3c0-0.4,0.1-0.7,0.4-0.9
	c0.2-0.2,0.5-0.3,0.8-0.2v-0.9c-0.6,0-1,0.2-1.2,0.7v-0.7h-0.8v3.9h0.8V33.3z M22.1,34.8c-0.4-0.4-0.6-0.9-0.6-1.5
	c0-0.6,0.2-1.1,0.6-1.5c0.4-0.4,0.8-0.6,1.4-0.6c0.6,0,1,0.2,1.4,0.7v-0.6h0.8v3.9h-0.8v-0.6c-0.3,0.4-0.8,0.7-1.4,0.7
	C22.9,35.4,22.4,35.2,22.1,34.8z M22.3,33.3c0,0.4,0.1,0.7,0.4,0.9c0.2,0.2,0.5,0.4,0.9,0.4c0.4,0,0.6-0.1,0.9-0.4
	c0.2-0.2,0.4-0.5,0.4-0.9c0-0.4-0.1-0.7-0.4-0.9c-0.2-0.2-0.5-0.4-0.9-0.4c-0.4,0-0.6,0.1-0.9,0.4C22.5,32.6,22.3,32.9,22.3,33.3z
	 M27,34.7c-0.4-0.4-0.6-0.9-0.6-1.4s0.2-1,0.6-1.4c0.4-0.4,0.8-0.6,1.4-0.6c0.6,0,1,0.2,1.4,0.7v-0.6h0.8v3.7c0,0.6-0.2,1-0.6,1.4
	c-0.4,0.3-0.9,0.5-1.4,0.5c-0.9,0-1.5-0.3-1.9-0.9l0.7-0.4c0.2,0.4,0.6,0.6,1.1,0.6c0.7,0,1.2-0.4,1.2-1.1v-0.5
	c-0.3,0.5-0.8,0.7-1.4,0.7C27.8,35.3,27.4,35.1,27,34.7z M27.3,33.3c0,0.4,0.1,0.6,0.4,0.9c0.2,0.2,0.5,0.4,0.9,0.4
	c0.4,0,0.6-0.1,0.9-0.4c0.2-0.2,0.4-0.5,0.4-0.9s-0.1-0.6-0.4-0.9c-0.2-0.2-0.5-0.4-0.9-0.4c-0.4,0-0.6,0.1-0.9,0.4
	C27.4,32.6,27.3,32.9,27.3,33.3z M31.9,34.8c-0.4-0.4-0.6-0.9-0.6-1.5c0-0.6,0.2-1.1,0.6-1.5c0.4-0.4,0.9-0.6,1.5-0.6
	c0.6,0,1,0.2,1.4,0.6c0.4,0.4,0.6,0.9,0.6,1.5c0,0.1,0,0.2,0,0.4h-3.1c0.1,0.6,0.6,0.9,1.3,0.9c0.4,0,0.8-0.2,1-0.5l0.7,0.4
	c-0.4,0.6-1,0.9-1.7,0.9C32.8,35.4,32.3,35.2,31.9,34.8z M32.2,33h2.3c-0.1-0.6-0.6-1-1.1-1C32.8,32,32.3,32.4,32.2,33z M37,33.2
	c0-0.8,0.4-1.1,1-1.1c0.5,0,0.9,0.3,0.9,0.9v2.3h0.8v-2.4c0-1-0.6-1.6-1.5-1.6c-0.6,0-1,0.2-1.2,0.6v-0.5h-0.8v3.9H37V33.2z
	 M42.9,34.8c-0.4-0.4-0.6-0.9-0.6-1.5c0-0.6,0.2-1.1,0.6-1.5c0.4-0.4,0.8-0.6,1.4-0.6c0.6,0,1,0.2,1.4,0.7v-2.1h0.8v5.5h-0.8v-0.6
	c-0.3,0.4-0.8,0.7-1.4,0.7C43.7,35.4,43.3,35.2,42.9,34.8z M43.2,33.3c0,0.4,0.1,0.7,0.4,0.9c0.2,0.2,0.5,0.4,0.9,0.4
	c0.4,0,0.6-0.1,0.9-0.4c0.2-0.2,0.4-0.5,0.4-0.9c0-0.4-0.1-0.7-0.4-0.9c-0.2-0.2-0.5-0.4-0.9-0.4c-0.4,0-0.6,0.1-0.9,0.4
	C43.3,32.6,43.2,32.9,43.2,33.3z M47.8,34.8c-0.4-0.4-0.6-0.9-0.6-1.5c0-0.6,0.2-1.1,0.6-1.5c0.4-0.4,0.9-0.6,1.5-0.6
	c0.6,0,1,0.2,1.4,0.6c0.4,0.4,0.6,0.9,0.6,1.5c0,0.1,0,0.2,0,0.4h-3.1c0.1,0.6,0.6,0.9,1.3,0.9c0.4,0,0.8-0.2,1-0.5l0.7,0.4
	c-0.4,0.6-1,0.9-1.7,0.9C48.8,35.4,48.2,35.2,47.8,34.8z M48.1,33h2.3c-0.1-0.6-0.6-1-1.1-1C48.7,32,48.3,32.4,48.1,33z M52.9,33.3
	c0-0.4,0.1-0.7,0.4-0.9c0.2-0.2,0.5-0.3,0.8-0.2v-0.9c-0.6,0-1,0.2-1.2,0.7v-0.7H52v3.9h0.8V33.3z M57.6,35.3h-0.9v-5.5h2.2
	c0.5,0,0.9,0.2,1.2,0.5c0.3,0.3,0.5,0.8,0.5,1.2c0,0.7-0.4,1.3-1.1,1.6l1.2,2.1h-1l-1.2-2h-1.1V35.3z M57.6,32.5h1.3
	c0.5,0,0.9-0.4,0.9-0.9s-0.4-0.9-0.9-0.9h-1.3V32.5z M61.6,34.8c-0.4-0.4-0.6-0.9-0.6-1.5c0-0.6,0.2-1.1,0.6-1.5
	c0.4-0.4,0.9-0.6,1.5-0.6c0.6,0,1,0.2,1.4,0.6c0.4,0.4,0.6,0.9,0.6,1.5c0,0.1,0,0.2,0,0.4h-3.1c0.1,0.6,0.6,0.9,1.3,0.9
	c0.4,0,0.8-0.2,1-0.5l0.7,0.4c-0.4,0.6-1,0.9-1.7,0.9C62.5,35.4,62,35.2,61.6,34.8z M61.9,33h2.3c-0.1-0.6-0.6-1-1.1-1
	C62.5,32,62,32.4,61.9,33z M66.1,34.7c-0.4-0.4-0.6-0.9-0.6-1.4s0.2-1,0.6-1.4c0.4-0.4,0.8-0.6,1.4-0.6c0.6,0,1,0.2,1.4,0.7v-0.6
	h0.8v3.7c0,0.6-0.2,1-0.6,1.4c-0.4,0.3-0.9,0.5-1.4,0.5c-0.9,0-1.5-0.3-1.9-0.9l0.7-0.4c0.2,0.4,0.6,0.6,1.1,0.6
	c0.7,0,1.2-0.4,1.2-1.1v-0.5c-0.3,0.5-0.8,0.7-1.4,0.7C67,35.3,66.5,35.1,66.1,34.7z M66.4,33.3c0,0.4,0.1,0.6,0.4,0.9
	c0.2,0.2,0.5,0.4,0.9,0.4c0.4,0,0.6-0.1,0.9-0.4c0.2-0.2,0.4-0.5,0.4-0.9s-0.1-0.6-0.4-0.9C68.3,32.2,68,32,67.7,32
	c-0.4,0-0.6,0.1-0.9,0.4C66.5,32.6,66.4,32.9,66.4,33.3z M71.1,34.8c-0.4-0.4-0.6-0.9-0.6-1.5c0-0.6,0.2-1.1,0.6-1.5
	c0.4-0.4,0.9-0.6,1.5-0.6c0.6,0,1,0.2,1.4,0.6c0.4,0.4,0.6,0.9,0.6,1.5c0,0.1,0,0.2,0,0.4h-3.1c0.1,0.6,0.6,0.9,1.3,0.9
	c0.4,0,0.8-0.2,1-0.5l0.7,0.4c-0.4,0.6-1,0.9-1.7,0.9C72,35.4,71.5,35.2,71.1,34.8z M71.4,33h2.3c-0.1-0.6-0.6-1-1.1-1
	C71.9,32,71.5,32.4,71.4,33z M76.1,29.5h-0.8v5.7h0.8V29.5z M78.5,35.4c0.6,0,1-0.2,1.2-0.6v0.5h0.8v-3.9h-0.8v2.1
	c0,0.8-0.4,1.1-1,1.1c-0.5,0-0.9-0.3-0.9-0.9v-2.3H77v2.4C77,34.8,77.6,35.4,78.5,35.4z M82.4,33.2c0-0.8,0.4-1.1,1-1.1
	c0.5,0,0.9,0.3,0.9,0.9v2.3h0.8v-2.4c0-1-0.6-1.6-1.5-1.6c-0.6,0-1,0.2-1.2,0.6v-0.5h-0.8v3.9h0.8V33.2z M86.4,34.7
	c-0.4-0.4-0.6-0.9-0.6-1.4s0.2-1,0.6-1.4c0.4-0.4,0.8-0.6,1.4-0.6c0.6,0,1,0.2,1.4,0.7v-0.6H90v3.7c0,0.6-0.2,1-0.6,1.4
	c-0.4,0.3-0.9,0.5-1.4,0.5c-0.9,0-1.5-0.3-1.9-0.9l0.7-0.4c0.2,0.4,0.6,0.6,1.1,0.6c0.7,0,1.2-0.4,1.2-1.1v-0.5
	c-0.3,0.5-0.8,0.7-1.4,0.7C87.2,35.3,86.8,35.1,86.4,34.7z M86.6,33.3c0,0.4,0.1,0.6,0.4,0.9c0.2,0.2,0.5,0.4,0.9,0.4
	c0.4,0,0.6-0.1,0.9-0.4c0.2-0.2,0.4-0.5,0.4-0.9s-0.1-0.6-0.4-0.9c-0.2-0.2-0.5-0.4-0.9-0.4c-0.4,0-0.6,0.1-0.9,0.4
	C86.8,32.6,86.6,32.9,86.6,33.3z M16.1,45.3l2.2,2.6h1.1l-2.3-2.8l2.2-2.7h-1.1l-2.1,2.5v-2.5h-0.9v5.5h0.9V45.3z M22.8,44.5
	c0.4,0.4,0.6,0.9,0.6,1.5c0,0.1,0,0.2,0,0.4h-3.1c0.1,0.6,0.6,0.9,1.3,0.9c0.4,0,0.8-0.2,1-0.5l0.7,0.4c-0.4,0.6-1,0.9-1.7,0.9
	c-0.6,0-1.2-0.2-1.5-0.6c-0.4-0.4-0.6-0.9-0.6-1.5c0-0.6,0.2-1.1,0.6-1.5c0.4-0.4,0.9-0.6,1.5-0.6C21.9,43.9,22.4,44.1,22.8,44.5z
	 M22.5,45.6c-0.1-0.6-0.6-1-1.1-1c-0.6,0-1.1,0.4-1.2,1H22.5z M24.9,42.5c-0.2-0.2-0.6-0.2-0.8,0c-0.2,0.2-0.2,0.5,0,0.8
	c0.2,0.2,0.5,0.2,0.8,0C25.1,43,25.1,42.7,24.9,42.5z M24.9,44h-0.8v3.9h0.8V44z M26.7,45.8c0-0.8,0.4-1.1,1-1.1
	c0.5,0,0.9,0.3,0.9,0.9v2.3h0.8v-2.4c0-1-0.6-1.6-1.5-1.6c-0.6,0-1,0.2-1.2,0.6V44h-0.8v3.9h0.8V45.8z M30.1,46
	c0-0.6,0.2-1.1,0.6-1.5c0.4-0.4,0.9-0.6,1.5-0.6c0.6,0,1,0.2,1.4,0.6c0.4,0.4,0.6,0.9,0.6,1.5c0,0.1,0,0.2,0,0.4H31
	c0.1,0.6,0.6,0.9,1.3,0.9c0.4,0,0.8-0.2,1-0.5l0.7,0.4c-0.4,0.6-1,0.9-1.7,0.9c-0.6,0-1.2-0.2-1.5-0.6C30.3,47,30.1,46.5,30.1,46z
	 M31,45.6h2.3c-0.1-0.6-0.6-1-1.1-1C31.6,44.7,31.1,45,31,45.6z M37.4,42.8c-0.3,0.3-0.5,0.7-0.5,1.2c0,0.5,0.2,0.9,0.5,1.1
	c0.4,0.2,0.6,0.3,1.2,0.5c0.5,0.1,0.8,0.3,1,0.4c0.2,0.1,0.3,0.3,0.3,0.5c0,0.4-0.3,0.7-1,0.7c-0.7,0-1.1-0.3-1.4-0.9l-0.8,0.5
	c0.3,0.8,1.1,1.3,2.1,1.3c0.6,0,1-0.1,1.4-0.4c0.4-0.3,0.5-0.7,0.5-1.2c0-0.5-0.3-0.9-0.6-1.1c-0.1-0.1-0.2-0.1-0.4-0.2
	c-0.2-0.1-0.3-0.1-0.4-0.2c-0.1,0-0.2-0.1-0.5-0.2c-0.8-0.3-1.1-0.4-1.1-0.9c0-0.4,0.3-0.7,0.9-0.7c0.5,0,0.9,0.3,1.2,0.8l0.8-0.4
	c-0.4-0.8-1-1.2-1.9-1.2C38.1,42.3,37.7,42.5,37.4,42.8z M42.3,45.7c0-0.7,0.4-1,0.9-1c0.5,0,0.7,0.3,0.7,0.9v2.4h0.8v-2.2
	c0-0.7,0.3-1,0.9-1c0.5,0,0.8,0.3,0.8,0.9v2.4h0.8v-2.4c0-1-0.6-1.6-1.5-1.6c-0.5,0-0.9,0.2-1.2,0.6c-0.2-0.4-0.6-0.6-1.1-0.6
	c-0.5,0-0.9,0.2-1.1,0.6V44h-0.8v3.9h0.8V45.7z M51.2,44H52v3.9h-0.8v-0.6c-0.3,0.4-0.8,0.7-1.4,0.7c-0.5,0-1-0.2-1.4-0.6
	C48,47,47.9,46.5,47.9,46c0-0.6,0.2-1.1,0.6-1.5c0.4-0.4,0.8-0.6,1.4-0.6c0.6,0,1,0.2,1.4,0.7V44z M51.2,46c0-0.4-0.1-0.7-0.4-0.9
	c-0.2-0.2-0.5-0.4-0.9-0.4c-0.4,0-0.6,0.1-0.9,0.4c-0.2,0.2-0.4,0.5-0.4,0.9c0,0.4,0.1,0.7,0.4,0.9c0.2,0.2,0.5,0.4,0.9,0.4
	c0.4,0,0.6-0.1,0.9-0.4C51.1,46.6,51.2,46.3,51.2,46z M53.9,44.7V44H53v3.9h0.8v-2c0-0.4,0.1-0.7,0.4-0.9c0.2-0.2,0.5-0.3,0.8-0.2
	v-0.9C54.5,43.9,54.1,44.2,53.9,44.7z M56.2,46.7c0,1,0.5,1.4,1.8,1.2v-0.8c-0.6,0-1,0-1-0.5v-1.9h1V44h-1v-1.1l-0.8,0.3V44h-0.7
	v0.8h0.7V46.7z M62.4,46.3h-3.1c0.1,0.6,0.6,0.9,1.3,0.9c0.4,0,0.8-0.2,1-0.5l0.7,0.4c-0.4,0.6-1,0.9-1.7,0.9
	c-0.6,0-1.2-0.2-1.5-0.6c-0.4-0.4-0.6-0.9-0.6-1.5c0-0.6,0.2-1.1,0.6-1.5c0.4-0.4,0.9-0.6,1.5-0.6c0.6,0,1,0.2,1.4,0.6
	c0.4,0.4,0.6,0.9,0.6,1.5C62.4,46,62.4,46.2,62.4,46.3z M61.5,45.6c-0.1-0.6-0.6-1-1.1-1c-0.6,0-1.1,0.4-1.2,1H61.5z M64,44.5V44
	h-0.8v3.9H64v-2.1c0-0.8,0.4-1.1,1-1.1c0.5,0,0.9,0.3,0.9,0.9v2.3h0.8v-2.4c0-1-0.6-1.6-1.5-1.6C64.6,43.9,64.2,44.1,64,44.5z
	 M71,47.9h1.1l1.9-5.5h-1l-1.5,4.4l-1.5-4.4h-1L71,47.9z M77.8,46.3h-3.1c0.1,0.6,0.6,0.9,1.3,0.9c0.4,0,0.8-0.2,1-0.5l0.7,0.4
	c-0.4,0.6-1,0.9-1.7,0.9c-0.6,0-1.2-0.2-1.5-0.6C74,47,73.8,46.5,73.8,46c0-0.6,0.2-1.1,0.6-1.5c0.4-0.4,0.9-0.6,1.5-0.6
	c0.6,0,1,0.2,1.4,0.6c0.4,0.4,0.6,0.9,0.6,1.5C77.9,46,77.8,46.2,77.8,46.3z M77,45.6c-0.1-0.6-0.6-1-1.1-1c-0.6,0-1.1,0.4-1.2,1H77
	z M79.4,44.7V44h-0.8v3.9h0.8v-2c0-0.4,0.1-0.7,0.4-0.9c0.2-0.2,0.5-0.3,0.8-0.2v-0.9C80.1,43.9,79.7,44.2,79.4,44.7z M81.7,46.7
	c0,1,0.5,1.4,1.8,1.2v-0.8c-0.6,0-1,0-1-0.5v-1.9h1V44h-1v-1.1l-0.8,0.3V44H81v0.8h0.7V46.7z M84.4,44v3.9h0.8v-2
	c0-0.4,0.1-0.7,0.4-0.9c0.2-0.2,0.5-0.3,0.8-0.2v-0.9c-0.6,0-1,0.2-1.2,0.7V44H84.4z M90,47.9v-0.6c-0.3,0.4-0.8,0.7-1.4,0.7
	c-0.5,0-1-0.2-1.4-0.6c-0.4-0.4-0.6-0.9-0.6-1.5c0-0.6,0.2-1.1,0.6-1.5c0.4-0.4,0.8-0.6,1.4-0.6c0.6,0,1,0.2,1.4,0.7V44h0.8v3.9H90z
	 M90,46c0-0.4-0.1-0.7-0.4-0.9c-0.2-0.2-0.5-0.4-0.9-0.4c-0.4,0-0.6,0.1-0.9,0.4c-0.2,0.2-0.4,0.5-0.4,0.9c0,0.4,0.1,0.7,0.4,0.9
	c0.2,0.2,0.5,0.4,0.9,0.4c0.4,0,0.6-0.1,0.9-0.4C89.8,46.6,90,46.3,90,46z M89.2,42.7c-0.2,0.2-0.2,0.5,0,0.7c0.2,0.2,0.5,0.2,0.7,0
	c0.2-0.2,0.2-0.5,0-0.7C89.7,42.6,89.4,42.6,89.2,42.7z M88.4,43.4c0.2-0.2,0.2-0.5,0-0.7c-0.2-0.2-0.5-0.2-0.7,0
	c-0.2,0.2-0.2,0.5,0,0.7C87.9,43.6,88.2,43.6,88.4,43.4z M92.1,47.3c-0.4-0.4-0.6-0.9-0.6-1.4s0.2-1,0.6-1.4
	c0.4-0.4,0.8-0.6,1.4-0.6c0.6,0,1,0.2,1.4,0.7V44h0.8v3.7c0,0.6-0.2,1-0.6,1.4c-0.4,0.3-0.9,0.5-1.4,0.5c-0.9,0-1.5-0.3-1.9-0.9
	l0.7-0.4c0.2,0.4,0.6,0.6,1.1,0.6c0.7,0,1.2-0.4,1.2-1.1v-0.5c-0.3,0.5-0.8,0.7-1.4,0.7C93,47.9,92.5,47.7,92.1,47.3z M92.4,45.9
	c0,0.4,0.1,0.6,0.4,0.9c0.2,0.2,0.5,0.4,0.9,0.4c0.4,0,0.6-0.1,0.9-0.4c0.2-0.2,0.4-0.5,0.4-0.9s-0.1-0.6-0.4-0.9
	c-0.2-0.2-0.5-0.4-0.9-0.4c-0.4,0-0.6,0.1-0.9,0.4C92.5,45.3,92.4,45.6,92.4,45.9z M97.1,47.4c-0.4-0.4-0.6-0.9-0.6-1.5
	c0-0.6,0.2-1.1,0.6-1.5c0.4-0.4,0.9-0.6,1.5-0.6c0.6,0,1,0.2,1.4,0.6c0.4,0.4,0.6,0.9,0.6,1.5c0,0.1,0,0.2,0,0.4h-3.1
	c0.1,0.6,0.6,0.9,1.3,0.9c0.4,0,0.8-0.2,1-0.5l0.7,0.4c-0.4,0.6-1,0.9-1.7,0.9C98,48,97.5,47.8,97.1,47.4z M97.4,45.6h2.3
	c-0.1-0.6-0.6-1-1.1-1C97.9,44.7,97.5,45,97.4,45.6z M16.1,57.9l2.2,2.6h1.1l-2.3-2.8l2.2-2.7h-1.1l-2.1,2.5v-2.5h-0.9v5.5h0.9V57.9
	z M22.8,57.1c0.4,0.4,0.6,0.9,0.6,1.5c0,0.1,0,0.2,0,0.4h-3.1c0.1,0.6,0.6,0.9,1.3,0.9c0.4,0,0.8-0.2,1-0.5l0.7,0.4
	c-0.4,0.6-1,0.9-1.7,0.9c-0.6,0-1.2-0.2-1.5-0.6c-0.4-0.4-0.6-0.9-0.6-1.5c0-0.6,0.2-1.1,0.6-1.5c0.4-0.4,0.9-0.6,1.5-0.6
	C21.9,56.5,22.4,56.7,22.8,57.1z M22.5,58.3c-0.1-0.6-0.6-1-1.1-1c-0.6,0-1.1,0.4-1.2,1H22.5z M24.9,56.6h-0.8v3.9h0.8V56.6z
	 M24.9,55.1c-0.2-0.2-0.6-0.2-0.8,0c-0.2,0.2-0.2,0.5,0,0.8c0.2,0.2,0.5,0.2,0.8,0C25.1,55.7,25.1,55.3,24.9,55.1z M26.7,58.5
	c0-0.8,0.4-1.1,1-1.1c0.5,0,0.9,0.3,0.9,0.9v2.3h0.8v-2.4c0-1-0.6-1.6-1.5-1.6c-0.6,0-1,0.2-1.2,0.6v-0.5h-0.8v3.9h0.8V58.5z
	 M32.3,60.7c-0.6,0-1.2-0.2-1.5-0.6c-0.4-0.4-0.6-0.9-0.6-1.5c0-0.6,0.2-1.1,0.6-1.5c0.4-0.4,0.9-0.6,1.5-0.6c0.6,0,1,0.2,1.4,0.6
	c0.4,0.4,0.6,0.9,0.6,1.5c0,0.1,0,0.2,0,0.4H31c0.1,0.6,0.6,0.9,1.3,0.9c0.4,0,0.8-0.2,1-0.5l0.7,0.4C33.6,60.4,33,60.7,32.3,60.7z
	 M31,58.3h2.3c-0.1-0.6-0.6-1-1.1-1C31.6,57.3,31.1,57.7,31,58.3z M38.8,59.8c-0.7,0-1.1-0.3-1.4-0.9l-0.8,0.5
	c0.3,0.8,1.1,1.3,2.1,1.3c0.6,0,1-0.1,1.4-0.4c0.4-0.3,0.5-0.7,0.5-1.2c0-0.5-0.3-0.9-0.6-1.1c-0.1-0.1-0.2-0.1-0.4-0.2
	c-0.2-0.1-0.3-0.1-0.4-0.2c-0.1,0-0.2-0.1-0.5-0.2c-0.8-0.3-1.1-0.4-1.1-0.9c0-0.4,0.3-0.7,0.9-0.7c0.5,0,0.9,0.3,1.2,0.8l0.8-0.4
	c-0.4-0.8-1-1.2-1.9-1.2c-0.5,0-0.9,0.1-1.2,0.4c-0.3,0.3-0.5,0.7-0.5,1.2c0,0.5,0.2,0.9,0.5,1.1c0.4,0.2,0.6,0.3,1.2,0.5
	c0.5,0.1,0.8,0.3,1,0.4c0.2,0.1,0.3,0.3,0.3,0.5C39.8,59.5,39.5,59.8,38.8,59.8z M41.9,60.1c-0.4-0.4-0.6-0.9-0.6-1.5
	s0.2-1.1,0.6-1.5c0.4-0.4,0.9-0.6,1.5-0.6c0.6,0,1.1,0.2,1.5,0.6c0.4,0.4,0.6,0.9,0.6,1.5s-0.2,1.1-0.6,1.5
	c-0.4,0.4-0.9,0.6-1.5,0.6C42.8,60.7,42.3,60.5,41.9,60.1z M42.1,58.6c0,0.4,0.1,0.6,0.4,0.9c0.2,0.2,0.5,0.4,0.9,0.4
	c0.3,0,0.6-0.1,0.9-0.4c0.2-0.2,0.4-0.5,0.4-0.9s-0.1-0.6-0.4-0.9c-0.2-0.2-0.5-0.4-0.9-0.4c-0.3,0-0.6,0.1-0.9,0.4
	C42.3,57.9,42.1,58.2,42.1,58.6z M47.2,57.5h0.9v-0.8h-0.9v-0.1c0-0.6,0.3-0.8,0.9-0.8V55c-1.2-0.1-1.8,0.5-1.8,1.6v0.1h-0.6v0.8
	h0.6v3.1h0.8V57.5z M49.1,55.8v0.8h-0.7v0.8h0.7v1.9c0,1,0.5,1.4,1.8,1.2v-0.8c-0.6,0-1,0-1-0.5v-1.9h1v-0.8h-1v-1.1L49.1,55.8z
	 M53.4,60.6l0.8-2.6l0.8,2.6h0.8l1.2-3.9h-0.9l-0.8,2.7l-0.8-2.7h-0.8L53,59.3l-0.8-2.7h-0.9l1.2,3.9H53.4z M58,57.1
	c0.4-0.4,0.8-0.6,1.4-0.6c0.6,0,1,0.2,1.4,0.7v-0.6h0.8v3.9h-0.8V60c-0.3,0.4-0.8,0.7-1.4,0.7c-0.5,0-1-0.2-1.4-0.6
	c-0.4-0.4-0.6-0.9-0.6-1.5C57.4,58,57.6,57.5,58,57.1z M58.2,58.6c0,0.4,0.1,0.7,0.4,0.9c0.2,0.2,0.5,0.4,0.9,0.4
	c0.4,0,0.6-0.1,0.9-0.4c0.2-0.2,0.4-0.5,0.4-0.9s-0.1-0.7-0.4-0.9c-0.2-0.2-0.5-0.4-0.9-0.4c-0.4,0-0.6,0.1-0.9,0.4
	C58.3,57.9,58.2,58.2,58.2,58.6z M63.4,58.6c0-0.4,0.1-0.7,0.4-0.9c0.2-0.2,0.5-0.3,0.8-0.2v-0.9c-0.6,0-1,0.2-1.2,0.7v-0.7h-0.8
	v3.9h0.8V58.6z M68.8,59h-3.1c0.1,0.6,0.6,0.9,1.3,0.9c0.4,0,0.8-0.2,1-0.5l0.7,0.4c-0.4,0.6-1,0.9-1.7,0.9c-0.6,0-1.2-0.2-1.5-0.6
	c-0.4-0.4-0.6-0.9-0.6-1.5c0-0.6,0.2-1.1,0.6-1.5c0.4-0.4,0.9-0.6,1.5-0.6c0.6,0,1,0.2,1.4,0.6c0.4,0.4,0.6,0.9,0.6,1.5
	C68.8,58.7,68.8,58.8,68.8,59z M68,58.3c-0.1-0.6-0.6-1-1.1-1c-0.6,0-1.1,0.4-1.2,1H68z M72,56.6h-0.9l1.5,3.9h1l1.5-3.9h-0.9
	l-1.1,3L72,56.6z M78.8,60.1c-0.4,0.4-0.9,0.6-1.5,0.6c-0.6,0-1.1-0.2-1.5-0.6c-0.4-0.4-0.6-0.9-0.6-1.5s0.2-1.1,0.6-1.5
	c0.4-0.4,0.9-0.6,1.5-0.6c0.6,0,1.1,0.2,1.5,0.6c0.4,0.4,0.6,0.9,0.6,1.5S79.2,59.7,78.8,60.1z M78.6,58.6c0-0.4-0.1-0.6-0.4-0.9
	c-0.2-0.2-0.5-0.4-0.9-0.4c-0.3,0-0.6,0.1-0.9,0.4c-0.2,0.2-0.4,0.5-0.4,0.9s0.1,0.6,0.4,0.9c0.2,0.2,0.5,0.4,0.9,0.4
	c0.3,0,0.6-0.1,0.9-0.4C78.4,59.2,78.6,59,78.6,58.6z M80.2,56.6v3.9H81v-2c0-0.4,0.1-0.7,0.4-0.9c0.2-0.2,0.5-0.3,0.8-0.2v-0.9
	c-0.6,0-1,0.2-1.2,0.7v-0.7H80.2z M86.4,60.6v-2.4c0-1-0.6-1.6-1.5-1.6c-0.6,0-1,0.2-1.2,0.6v-2.1h-0.8v5.5h0.8v-2.1
	c0-0.8,0.4-1.1,1-1.1c0.5,0,0.9,0.3,0.9,0.9v2.3H86.4z M89,60.7c-0.5,0-1-0.2-1.4-0.6c-0.4-0.4-0.6-0.9-0.6-1.5
	c0-0.6,0.2-1.1,0.6-1.5c0.4-0.4,0.8-0.6,1.4-0.6c0.6,0,1,0.2,1.4,0.7v-0.6h0.8v3.9h-0.8V60C90.1,60.4,89.6,60.7,89,60.7z M90.1,59.5
	c0.2-0.2,0.4-0.5,0.4-0.9s-0.1-0.7-0.4-0.9c-0.2-0.2-0.5-0.4-0.9-0.4c-0.4,0-0.6,0.1-0.9,0.4c-0.2,0.2-0.4,0.5-0.4,0.9
	s0.1,0.7,0.4,0.9c0.2,0.2,0.5,0.4,0.9,0.4C89.5,59.9,89.8,59.7,90.1,59.5z M95.8,60.6v-2.4c0-1-0.6-1.6-1.5-1.6
	c-0.6,0-1,0.2-1.2,0.6v-0.5h-0.8v3.9h0.8v-2.1c0-0.8,0.4-1.1,1-1.1c0.5,0,0.9,0.3,0.9,0.9v2.3H95.8z M97.1,60.1
	c-0.4-0.4-0.6-0.9-0.6-1.5c0-0.6,0.2-1.1,0.6-1.5c0.4-0.4,0.8-0.6,1.4-0.6c0.6,0,1,0.2,1.4,0.7v-2.1h0.8v5.5h-0.8V60
	c-0.3,0.4-0.8,0.7-1.4,0.7C97.9,60.7,97.4,60.5,97.1,60.1z M97.3,58.6c0,0.4,0.1,0.7,0.4,0.9c0.2,0.2,0.5,0.4,0.9,0.4
	c0.4,0,0.6-0.1,0.9-0.4c0.2-0.2,0.4-0.5,0.4-0.9s-0.1-0.7-0.4-0.9c-0.2-0.2-0.5-0.4-0.9-0.4c-0.4,0-0.6,0.1-0.9,0.4
	C97.4,57.9,97.3,58.2,97.3,58.6z M102,60.1c-0.4-0.4-0.6-0.9-0.6-1.5c0-0.6,0.2-1.1,0.6-1.5c0.4-0.4,0.9-0.6,1.5-0.6
	c0.6,0,1,0.2,1.4,0.6c0.4,0.4,0.6,0.9,0.6,1.5c0,0.1,0,0.2,0,0.4h-3.1c0.1,0.6,0.6,0.9,1.3,0.9c0.4,0,0.8-0.2,1-0.5l0.7,0.4
	c-0.4,0.6-1,0.9-1.7,0.9C102.9,60.7,102.4,60.5,102,60.1z M102.3,58.3h2.3c-0.1-0.6-0.6-1-1.1-1C102.8,57.3,102.4,57.7,102.3,58.3z
	 M108.9,58.2v2.3h0.8v-2.4c0-1-0.6-1.6-1.5-1.6c-0.6,0-1,0.2-1.2,0.6v-0.5h-0.8v3.9h0.8v-2.1c0-0.8,0.4-1.1,1-1.1
	C108.6,57.3,108.9,57.7,108.9,58.2z M16.1,70.6l2.2,2.6h1.1l-2.3-2.8l2.2-2.7h-1.1l-2.1,2.5v-2.5h-0.9v5.5h0.9V70.6z M22.8,69.8
	c0.4,0.4,0.6,0.9,0.6,1.5c0,0.1,0,0.2,0,0.4h-3.1c0.1,0.6,0.6,0.9,1.3,0.9c0.4,0,0.8-0.2,1-0.5l0.7,0.4c-0.4,0.6-1,0.9-1.7,0.9
	c-0.6,0-1.2-0.2-1.5-0.6c-0.4-0.4-0.6-0.9-0.6-1.5c0-0.6,0.2-1.1,0.6-1.5c0.4-0.4,0.9-0.6,1.5-0.6C21.9,69.2,22.4,69.4,22.8,69.8z
	 M22.5,70.9c-0.1-0.6-0.6-1-1.1-1c-0.6,0-1.1,0.4-1.2,1H22.5z M24.9,67.8c-0.2-0.2-0.6-0.2-0.8,0c-0.2,0.2-0.2,0.5,0,0.8
	c0.2,0.2,0.5,0.2,0.8,0C25.1,68.3,25.1,68,24.9,67.8z M24.1,73.2h0.8v-3.9h-0.8V73.2z M26.7,71.1c0-0.8,0.4-1.1,1-1.1
	c0.5,0,0.9,0.3,0.9,0.9v2.3h0.8v-2.4c0-1-0.6-1.6-1.5-1.6c-0.6,0-1,0.2-1.2,0.6v-0.5h-0.8v3.9h0.8V71.1z M34.1,69.4l0.1-1.7h-0.8
	l0.1,1.7H34.1z M32.3,69.4h0.6l0.1-1.7h-0.8L32.3,69.4z M35.1,67.7v5.5h0.8v-1.8l1.6,1.8h1l-1.8-2l1.7-1.9h-1L35.9,71v-3.3H35.1z
	 M42.6,71.6h-3.1c0.1,0.6,0.6,0.9,1.3,0.9c0.4,0,0.8-0.2,1-0.5l0.7,0.4c-0.4,0.6-1,0.9-1.7,0.9c-0.6,0-1.2-0.2-1.5-0.6
	c-0.4-0.4-0.6-0.9-0.6-1.5c0-0.6,0.2-1.1,0.6-1.5c0.4-0.4,0.9-0.6,1.5-0.6c0.6,0,1,0.2,1.4,0.6s0.6,0.9,0.6,1.5
	C42.6,71.3,42.6,71.5,42.6,71.6z M41.8,70.9c-0.1-0.6-0.6-1-1.1-1c-0.6,0-1.1,0.4-1.2,1H41.8z M43.4,69.3v3.9h0.8v-2.1
	c0-0.8,0.4-1.1,1-1.1c0.5,0,0.9,0.3,0.9,0.9v2.3h0.8v-2.4c0-1-0.6-1.6-1.5-1.6c-0.6,0-1,0.2-1.2,0.6v-0.5H43.4z M51.4,73.2v-2.4
	c0-1-0.6-1.6-1.5-1.6c-0.6,0-1,0.2-1.2,0.6v-0.5h-0.8v3.9h0.8v-2.1c0-0.8,0.4-1.1,1-1.1c0.5,0,0.9,0.3,0.9,0.9v2.3H51.4z M54.2,73.3
	c-0.6,0-1.2-0.2-1.5-0.6c-0.4-0.4-0.6-0.9-0.6-1.5c0-0.6,0.2-1.1,0.6-1.5c0.4-0.4,0.9-0.6,1.5-0.6c0.6,0,1,0.2,1.4,0.6
	c0.4,0.4,0.6,0.9,0.6,1.5c0,0.1,0,0.2,0,0.4H53c0.1,0.6,0.6,0.9,1.3,0.9c0.4,0,0.8-0.2,1-0.5l0.7,0.4C55.5,73,55,73.3,54.2,73.3z
	 M53,70.9h2.3c-0.1-0.6-0.6-1-1.1-1C53.5,70,53.1,70.3,53,70.9z M57.7,71.1c0-0.8,0.4-1.1,1-1.1c0.5,0,0.9,0.3,0.9,0.9v2.3h0.8v-2.4
	c0-1-0.6-1.6-1.5-1.6c-0.6,0-1,0.2-1.2,0.6v-0.5h-0.8v3.9h0.8V71.1z M65,73.3c-0.5,0-1-0.2-1.4-0.6c-0.4-0.4-0.6-0.9-0.6-1.5
	c0-0.6,0.2-1.1,0.6-1.5c0.4-0.4,0.8-0.6,1.4-0.6c0.6,0,1,0.2,1.4,0.7v-2.1h0.8v5.5h-0.8v-0.6C66.1,73.1,65.6,73.3,65,73.3z M66,72.1
	c0.2-0.2,0.4-0.5,0.4-0.9s-0.1-0.7-0.4-0.9c-0.2-0.2-0.5-0.4-0.9-0.4c-0.4,0-0.6,0.1-0.9,0.4c-0.2,0.2-0.4,0.5-0.4,0.9
	s0.1,0.7,0.4,0.9c0.2,0.2,0.5,0.4,0.9,0.4C65.5,72.5,65.8,72.4,66,72.1z M68.6,72.7c-0.4-0.4-0.6-0.9-0.6-1.5c0-0.6,0.2-1.1,0.6-1.5
	c0.4-0.4,0.9-0.6,1.5-0.6c0.6,0,1,0.2,1.4,0.6s0.6,0.9,0.6,1.5c0,0.1,0,0.2,0,0.4h-3.1c0.1,0.6,0.6,0.9,1.3,0.9c0.4,0,0.8-0.2,1-0.5
	l0.7,0.4c-0.4,0.6-1,0.9-1.7,0.9C69.5,73.3,69,73.1,68.6,72.7z M68.9,70.9h2.3c-0.1-0.6-0.6-1-1.1-1C69.4,70,69,70.3,68.9,70.9z
	 M72.8,73.2h0.8v-3.9h-0.8V73.2z M73.6,67.8c-0.2-0.2-0.6-0.2-0.8,0c-0.2,0.2-0.2,0.5,0,0.8c0.2,0.2,0.5,0.2,0.8,0
	C73.8,68.3,73.8,68,73.6,67.8z M78.1,70.8c0-1-0.6-1.6-1.5-1.6c-0.6,0-1,0.2-1.2,0.6v-0.5h-0.8v3.9h0.8v-2.1c0-0.8,0.4-1.1,1-1.1
	c0.5,0,0.9,0.3,0.9,0.9v2.3h0.8V70.8z M81,73.3c-0.6,0-1.2-0.2-1.5-0.6c-0.4-0.4-0.6-0.9-0.6-1.5c0-0.6,0.2-1.1,0.6-1.5
	c0.4-0.4,0.9-0.6,1.5-0.6c0.6,0,1,0.2,1.4,0.6s0.6,0.9,0.6,1.5c0,0.1,0,0.2,0,0.4h-3.1c0.1,0.6,0.6,0.9,1.3,0.9c0.4,0,0.8-0.2,1-0.5
	l0.7,0.4C82.3,73,81.7,73.3,81,73.3z M79.7,70.9H82c-0.1-0.6-0.6-1-1.1-1C80.3,70,79.8,70.3,79.7,70.9z M86.3,70.9v2.3h0.8v-2.4
	c0-1-0.6-1.6-1.5-1.6c-0.6,0-1,0.2-1.2,0.6v-0.5h-0.8v3.9h0.8v-2.1c0-0.8,0.4-1.1,1-1.1C86,70,86.3,70.3,86.3,70.9z M91.9,70.4
	l2.2-2.7h-1.1L91,70.2v-2.5h-0.9v5.5H91v-2.6l2.2,2.6h1.1L91.9,70.4z M98.1,73.2v-3.9h-0.8v2.1c0,0.8-0.4,1.1-1,1.1
	c-0.5,0-0.9-0.3-0.9-0.9v-2.3h-0.8v2.4c0,1,0.6,1.6,1.5,1.6c0.6,0,1-0.2,1.2-0.6v0.5H98.1z M99.9,71.1c0-0.8,0.4-1.1,1-1.1
	c0.5,0,0.9,0.3,0.9,0.9v2.3h0.8v-2.4c0-1-0.6-1.6-1.5-1.6c-0.6,0-1,0.2-1.2,0.6v-0.5h-0.8v3.9h0.8V71.1z M106.6,73.2v-0.6
	c-0.3,0.4-0.8,0.7-1.4,0.7c-0.5,0-1-0.2-1.4-0.6c-0.4-0.4-0.6-0.9-0.6-1.5c0-0.6,0.2-1.1,0.6-1.5c0.4-0.4,0.8-0.6,1.4-0.6
	c0.6,0,1,0.2,1.4,0.7v-2.1h0.8v5.5H106.6z M106.6,71.2c0-0.4-0.1-0.7-0.4-0.9c-0.2-0.2-0.5-0.4-0.9-0.4c-0.4,0-0.6,0.1-0.9,0.4
	c-0.2,0.2-0.4,0.5-0.4,0.9s0.1,0.7,0.4,0.9c0.2,0.2,0.5,0.4,0.9,0.4c0.4,0,0.6-0.1,0.9-0.4C106.5,71.9,106.6,71.6,106.6,71.2z
	 M108.8,69.8c0.4-0.4,0.9-0.6,1.5-0.6c0.6,0,1,0.2,1.4,0.6c0.4,0.4,0.6,0.9,0.6,1.5c0,0.1,0,0.2,0,0.4h-3.1c0.1,0.6,0.6,0.9,1.3,0.9
	c0.4,0,0.8-0.2,1-0.5l0.7,0.4c-0.4,0.6-1,0.9-1.7,0.9c-0.6,0-1.2-0.2-1.5-0.6c-0.4-0.4-0.6-0.9-0.6-1.5
	C108.2,70.7,108.4,70.2,108.8,69.8z M109.1,70.9h2.3c-0.1-0.6-0.6-1-1.1-1C109.7,70,109.2,70.3,109.1,70.9z M113.9,71.1
	c0-0.8,0.4-1.1,1-1.1c0.5,0,0.9,0.3,0.9,0.9v2.3h0.8v-2.4c0-1-0.6-1.6-1.5-1.6c-0.6,0-1,0.2-1.2,0.6v-0.5H113v3.9h0.8V71.1z
	 M117.1,69.4h0.6l0.1-1.7H117L117.1,69.4z M118.4,69.4h0.6l0.1-1.7h-0.8L118.4,69.4z M16.3,85.8h0.9v-4.6h1.5v-0.9h-4v0.9h1.6V85.8z
	 M19.1,85.4c-0.4-0.4-0.6-0.9-0.6-1.5s0.2-1.1,0.6-1.5c0.4-0.4,0.9-0.6,1.5-0.6c0.6,0,1.1,0.2,1.5,0.6c0.4,0.4,0.6,0.9,0.6,1.5
	S22.4,85,22,85.4c-0.4,0.4-0.9,0.6-1.5,0.6C20,85.9,19.5,85.8,19.1,85.4z M19.3,83.9c0,0.4,0.1,0.6,0.4,0.9c0.2,0.2,0.5,0.4,0.9,0.4
	c0.3,0,0.6-0.1,0.9-0.4c0.2-0.2,0.4-0.5,0.4-0.9s-0.1-0.6-0.4-0.9c-0.2-0.2-0.5-0.4-0.9-0.4c-0.3,0-0.6,0.1-0.9,0.4
	C19.4,83.2,19.3,83.5,19.3,83.9z M24.2,84l1.6,1.8h1l-1.8-2l1.7-1.9h-1l-1.5,1.7v-3.3h-0.8v5.5h0.8V84z M29,85.9
	c-0.6,0-1.2-0.2-1.5-0.6c-0.4-0.4-0.6-0.9-0.6-1.5c0-0.6,0.2-1.1,0.6-1.5c0.4-0.4,0.9-0.6,1.5-0.6c0.6,0,1,0.2,1.4,0.6
	s0.6,0.9,0.6,1.5c0,0.1,0,0.2,0,0.4h-3.1c0.1,0.6,0.6,0.9,1.3,0.9c0.4,0,0.8-0.2,1-0.5l0.7,0.4C30.3,85.7,29.8,85.9,29,85.9z
	 M27.7,83.6H30c-0.1-0.6-0.6-1-1.1-1C28.3,82.6,27.9,83,27.7,83.6z M35.2,85.8v-2.4c0-1-0.6-1.6-1.5-1.6c-0.6,0-1,0.2-1.2,0.6v-0.5
	h-0.8v3.9h0.8v-2.1c0-0.8,0.4-1.1,1-1.1c0.5,0,0.9,0.3,0.9,0.9v2.3H35.2z M36.9,80.4c-0.2-0.2-0.6-0.2-0.8,0c-0.2,0.2-0.2,0.5,0,0.8
	c0.2,0.2,0.5,0.2,0.8,0C37.1,81,37.1,80.6,36.9,80.4z M36.1,85.8h0.8v-3.9h-0.8V85.8z M39.4,83.5c-0.4-0.1-0.7-0.2-0.7-0.5
	c0-0.3,0.3-0.4,0.6-0.4c0.4,0,0.6,0.1,0.7,0.4l0.7-0.4c-0.3-0.5-0.8-0.8-1.4-0.8c-0.4,0-0.8,0.1-1,0.3c-0.3,0.2-0.4,0.5-0.4,0.9
	c0,0.8,0.8,1.1,1.4,1.2c0.4,0.1,0.7,0.2,0.7,0.5c0,0.3-0.2,0.4-0.7,0.4c-0.4,0-0.7-0.2-0.9-0.6L37.6,85c0.3,0.6,0.8,0.9,1.6,0.9
	c0.4,0,0.8-0.1,1.1-0.3c0.3-0.2,0.4-0.5,0.4-0.9C40.8,83.9,40,83.7,39.4,83.5z M41.5,85.8h0.8v-3.9h-0.8V85.8z M42.3,80.4
	c-0.2-0.2-0.6-0.2-0.8,0c-0.2,0.2-0.2,0.5,0,0.8c0.2,0.2,0.5,0.2,0.8,0C42.5,81,42.5,80.6,42.3,80.4z M47.1,84.2h-3.1
	c0.1,0.6,0.6,0.9,1.3,0.9c0.4,0,0.8-0.2,1-0.5l0.7,0.4c-0.4,0.6-1,0.9-1.7,0.9c-0.6,0-1.2-0.2-1.5-0.6c-0.4-0.4-0.6-0.9-0.6-1.5
	c0-0.6,0.2-1.1,0.6-1.5c0.4-0.4,0.9-0.6,1.5-0.6c0.6,0,1,0.2,1.4,0.6s0.6,0.9,0.6,1.5C47.1,84,47.1,84.1,47.1,84.2z M46.2,83.6
	c-0.1-0.6-0.6-1-1.1-1c-0.6,0-1.1,0.4-1.2,1H46.2z M49.9,81.9c-0.6,0-1,0.2-1.2,0.7v-0.7h-0.8v3.9h0.8v-2c0-0.4,0.1-0.7,0.4-0.9
	c0.2-0.2,0.5-0.3,0.8-0.2V81.9z M53.1,84c0,0.8-0.4,1.1-1,1.1c-0.5,0-0.9-0.3-0.9-0.9v-2.3h-0.8v2.4c0,1,0.6,1.6,1.5,1.6
	c0.6,0,1-0.2,1.2-0.6v0.5H54v-3.9h-0.8V84z M57.7,83.5v2.3h0.8v-2.4c0-1-0.6-1.6-1.5-1.6c-0.6,0-1,0.2-1.2,0.6v-0.5H55v3.9h0.8v-2.1
	c0-0.8,0.4-1.1,1-1.1C57.4,82.6,57.7,82.9,57.7,83.5z M62.6,85.7v-0.5c-0.3,0.5-0.8,0.7-1.4,0.7c-0.6,0-1-0.2-1.4-0.6
	c-0.4-0.4-0.6-0.9-0.6-1.4s0.2-1,0.6-1.4c0.4-0.4,0.8-0.6,1.4-0.6c0.6,0,1,0.2,1.4,0.7v-0.6h0.8v3.7c0,0.6-0.2,1-0.6,1.4
	c-0.4,0.3-0.9,0.5-1.4,0.5c-0.9,0-1.5-0.3-1.9-0.9l0.7-0.4c0.2,0.4,0.6,0.6,1.1,0.6C62.1,86.7,62.6,86.3,62.6,85.7z M62.6,83.8
	c0-0.4-0.1-0.6-0.4-0.9c-0.2-0.2-0.5-0.4-0.9-0.4c-0.4,0-0.6,0.1-0.9,0.4c-0.2,0.2-0.4,0.5-0.4,0.9s0.1,0.6,0.4,0.9
	c0.2,0.2,0.5,0.4,0.9,0.4c0.4,0,0.6-0.1,0.9-0.4C62.4,84.5,62.6,84.2,62.6,83.8z M69.4,81.9h0.8v3.9h-0.8v-0.6
	c-0.3,0.4-0.8,0.7-1.4,0.7c-0.5,0-1-0.2-1.4-0.6c-0.4-0.4-0.6-0.9-0.6-1.5c0-0.6,0.2-1.1,0.6-1.5c0.4-0.4,0.8-0.6,1.4-0.6
	c0.6,0,1,0.2,1.4,0.7V81.9z M69.4,83.9c0-0.4-0.1-0.7-0.4-0.9c-0.2-0.2-0.5-0.4-0.9-0.4c-0.4,0-0.6,0.1-0.9,0.4
	c-0.2,0.2-0.4,0.5-0.4,0.9s0.1,0.7,0.4,0.9c0.2,0.2,0.5,0.4,0.9,0.4c0.4,0,0.6-0.1,0.9-0.4C69.3,84.5,69.4,84.2,69.4,83.9z
	 M74.7,85.8v-3.9h-0.8V84c0,0.8-0.4,1.1-1,1.1c-0.5,0-0.9-0.3-0.9-0.9v-2.3h-0.8v2.4c0,1,0.6,1.6,1.5,1.6c0.6,0,1-0.2,1.2-0.6v0.5
	H74.7z M77.8,81.1v-0.8c-1.2-0.1-1.8,0.5-1.8,1.6v0.1h-0.6v0.8H76v3.1h0.8v-3.1h0.9v-0.8h-0.9v-0.1C76.9,81.3,77.2,81,77.8,81.1z
	 M83.6,84.1L81,80.4h-0.7v5.5h0.9v-3.7l2.6,3.7h0.7v-5.5h-0.9V84.1z M88.1,84c0,0.8-0.4,1.1-1,1.1c-0.5,0-0.9-0.3-0.9-0.9v-2.3h-0.8
	v2.4c0,1,0.6,1.6,1.5,1.6c0.6,0,1-0.2,1.2-0.6v0.5H89v-3.9h-0.8V84z M90,85.8h0.8v-5.7H90V85.8z M91.8,85.8h0.8v-5.7h-0.8V85.8z
	 M95.7,81.8c-0.6,0-1,0.2-1.2,0.6v-0.5h-0.8v3.9h0.8v-2.1c0-0.8,0.4-1.1,1-1.1c0.5,0,0.9,0.3,0.9,0.9v2.3h0.8v-2.4
	C97.2,82.4,96.6,81.8,95.7,81.8z M98.1,85.8h0.8v-3.9h-0.8V85.8z M98.1,80.4c-0.2,0.2-0.2,0.5,0,0.8c0.2,0.2,0.5,0.2,0.8,0
	c0.2-0.2,0.2-0.5,0-0.8C98.7,80.2,98.3,80.2,98.1,80.4z M101.5,84.9l-1.1-3h-0.9l1.5,3.9h1l1.5-3.9h-0.9L101.5,84.9z M107.1,82.4
	c0.4,0.4,0.6,0.9,0.6,1.5c0,0.1,0,0.2,0,0.4h-3.1c0.1,0.6,0.6,0.9,1.3,0.9c0.4,0,0.8-0.2,1-0.5l0.7,0.4c-0.4,0.6-1,0.9-1.7,0.9
	c-0.6,0-1.2-0.2-1.5-0.6c-0.4-0.4-0.6-0.9-0.6-1.5c0-0.6,0.2-1.1,0.6-1.5c0.4-0.4,0.9-0.6,1.5-0.6C106.3,81.8,106.7,82,107.1,82.4z
	 M106.8,83.6c-0.1-0.6-0.6-1-1.1-1c-0.6,0-1.1,0.4-1.2,1H106.8z M111.5,81.9h0.8v3.9h-0.8v-0.6c-0.3,0.4-0.8,0.7-1.4,0.7
	c-0.5,0-1-0.2-1.4-0.6c-0.4-0.4-0.6-0.9-0.6-1.5c0-0.6,0.2-1.1,0.6-1.5c0.4-0.4,0.8-0.6,1.4-0.6c0.6,0,1,0.2,1.4,0.7V81.9z
	 M111.5,83.9c0-0.4-0.1-0.7-0.4-0.9c-0.2-0.2-0.5-0.4-0.9-0.4c-0.4,0-0.6,0.1-0.9,0.4c-0.2,0.2-0.4,0.5-0.4,0.9s0.1,0.7,0.4,0.9
	c0.2,0.2,0.5,0.4,0.9,0.4c0.4,0,0.6-0.1,0.9-0.4C111.4,84.5,111.5,84.2,111.5,83.9z M116,84c0,0.8-0.4,1.1-1,1.1
	c-0.5,0-0.9-0.3-0.9-0.9v-2.3h-0.8v2.4c0,1,0.6,1.6,1.5,1.6c0.6,0,1-0.2,1.2-0.6v0.5h0.8v-3.9H116V84z M15.2,98.5h0.9v-2.2h2.2v-0.9
	h-2.2v-1.5h2.3V93h-3.2V98.5z M22.5,95.1c0.4,0.4,0.6,0.9,0.6,1.5c0,0.1,0,0.2,0,0.4h-3.1c0.1,0.6,0.6,0.9,1.3,0.9
	c0.4,0,0.8-0.2,1-0.5l0.7,0.4c-0.4,0.6-1,0.9-1.7,0.9c-0.6,0-1.2-0.2-1.5-0.6c-0.4-0.4-0.6-0.9-0.6-1.5c0-0.6,0.2-1.1,0.6-1.5
	c0.4-0.4,0.9-0.6,1.5-0.6C21.6,94.5,22.1,94.7,22.5,95.1z M22.2,96.2c-0.1-0.6-0.6-1-1.1-1c-0.6,0-1.1,0.4-1.2,1H22.2z M25.8,94.5
	c-0.6,0-1,0.2-1.2,0.6V93h-0.8v5.5h0.8v-2.1c0-0.8,0.4-1.1,1-1.1c0.5,0,0.9,0.3,0.9,0.9v2.3h0.8v-2.4C27.3,95.1,26.7,94.5,25.8,94.5
	z M28.2,98.5h0.8v-5.7h-0.8V98.5z M33.3,95.1c0.4,0.4,0.6,0.9,0.6,1.5c0,0.1,0,0.2,0,0.4h-3.1c0.1,0.6,0.6,0.9,1.3,0.9
	c0.4,0,0.8-0.2,1-0.5l0.7,0.4c-0.4,0.6-1,0.9-1.7,0.9c-0.6,0-1.2-0.2-1.5-0.6c-0.4-0.4-0.6-0.9-0.6-1.5c0-0.6,0.2-1.1,0.6-1.5
	c0.4-0.4,0.9-0.6,1.5-0.6C32.5,94.5,32.9,94.7,33.3,95.1z M33,96.2c-0.1-0.6-0.6-1-1.1-1c-0.6,0-1.1,0.4-1.2,1H33z M36.7,94.5
	c-0.6,0-1,0.2-1.2,0.6v-0.5h-0.8v3.9h0.8v-2.1c0-0.8,0.4-1.1,1-1.1c0.5,0,0.9,0.3,0.9,0.9v2.3h0.8v-2.4
	C38.2,95.1,37.6,94.5,36.7,94.5z M42.6,97.6l-1.1-3h-0.9l1.5,3.9h1l1.5-3.9h-0.9L42.6,97.6z M48.3,95.1c0.4,0.4,0.6,0.9,0.6,1.5
	s-0.2,1.1-0.6,1.5c-0.4,0.4-0.9,0.6-1.5,0.6c-0.6,0-1.1-0.2-1.5-0.6c-0.4-0.4-0.6-0.9-0.6-1.5s0.2-1.1,0.6-1.5
	c0.4-0.4,0.9-0.6,1.5-0.6C47.4,94.5,47.9,94.7,48.3,95.1z M48.1,96.5c0-0.4-0.1-0.6-0.4-0.9c-0.2-0.2-0.5-0.4-0.9-0.4
	c-0.3,0-0.6,0.1-0.9,0.4c-0.2,0.2-0.4,0.5-0.4,0.9s0.1,0.6,0.4,0.9c0.2,0.2,0.5,0.4,0.9,0.4c0.3,0,0.6-0.1,0.9-0.4
	C47.9,97.2,48.1,96.9,48.1,96.5z M51.7,94.5c-0.6,0-1,0.2-1.2,0.6v-0.5h-0.8v3.9h0.8v-2.1c0-0.8,0.4-1.1,1-1.1
	c0.5,0,0.9,0.3,0.9,0.9v2.3h0.8v-2.4C53.2,95.1,52.6,94.5,51.7,94.5z M59,96.4l1.2,2.1h-1l-1.2-2H57v2h-0.9V93h2.2
	c0.5,0,0.9,0.2,1.2,0.5c0.3,0.3,0.5,0.8,0.5,1.2C60.1,95.5,59.7,96.1,59,96.4z M59.2,94.8c0-0.5-0.4-0.9-0.9-0.9H57v1.8h1.3
	C58.8,95.7,59.2,95.3,59.2,94.8z M63.8,94.6h0.8v3.9h-0.8v-0.6c-0.3,0.4-0.8,0.7-1.4,0.7c-0.5,0-1-0.2-1.4-0.6
	c-0.4-0.4-0.6-0.9-0.6-1.5c0-0.6,0.2-1.1,0.6-1.5c0.4-0.4,0.8-0.6,1.4-0.6c0.6,0,1,0.2,1.4,0.7V94.6z M63.8,96.5
	c0-0.4-0.1-0.7-0.4-0.9c-0.2-0.2-0.5-0.4-0.9-0.4c-0.4,0-0.6,0.1-0.9,0.4c-0.2,0.2-0.4,0.5-0.4,0.9s0.1,0.7,0.4,0.9
	c0.2,0.2,0.5,0.4,0.9,0.4c0.4,0,0.6-0.1,0.9-0.4C63.7,97.2,63.8,96.9,63.8,96.5z M66.8,93.5L66,93.7v0.8h-0.7v0.8H66v1.9
	c0,1,0.5,1.4,1.8,1.2v-0.8c-0.6,0-1,0-1-0.5v-1.9h1v-0.8h-1V93.5z M68.6,98.5h0.8v-3.9h-0.8V98.5z M68.6,93.1
	c-0.2,0.2-0.2,0.5,0,0.8c0.2,0.2,0.5,0.2,0.8,0c0.2-0.2,0.2-0.5,0-0.8C69.2,92.9,68.8,92.9,68.6,93.1z M72.4,94.5
	c-0.6,0-1,0.2-1.2,0.6v-0.5h-0.8v3.9h0.8v-2.1c0-0.8,0.4-1.1,1-1.1c0.5,0,0.9,0.3,0.9,0.9v2.3h0.8v-2.4
	C73.9,95.1,73.3,94.5,72.4,94.5z M78,94.6h0.8v3.7c0,0.6-0.2,1-0.6,1.4c-0.4,0.3-0.9,0.5-1.4,0.5c-0.9,0-1.5-0.3-1.9-0.9l0.7-0.4
	c0.2,0.4,0.6,0.6,1.1,0.6c0.7,0,1.2-0.4,1.2-1.1v-0.5c-0.3,0.5-0.8,0.7-1.4,0.7c-0.6,0-1-0.2-1.4-0.6c-0.4-0.4-0.6-0.9-0.6-1.4
	s0.2-1,0.6-1.4c0.4-0.4,0.8-0.6,1.4-0.6c0.6,0,1,0.2,1.4,0.7V94.6z M78,96.5c0-0.4-0.1-0.6-0.4-0.9c-0.2-0.2-0.5-0.4-0.9-0.4
	c-0.4,0-0.6,0.1-0.9,0.4c-0.2,0.2-0.4,0.5-0.4,0.9s0.1,0.6,0.4,0.9c0.2,0.2,0.5,0.4,0.9,0.4c0.4,0,0.6-0.1,0.9-0.4
	C77.8,97.1,78,96.8,78,96.5z M81.3,96.2c-0.4-0.1-0.7-0.2-0.7-0.5c0-0.3,0.3-0.4,0.6-0.4c0.4,0,0.6,0.1,0.7,0.4l0.7-0.4
	c-0.3-0.5-0.8-0.8-1.4-0.8c-0.4,0-0.8,0.1-1,0.3c-0.3,0.2-0.4,0.5-0.4,0.9c0,0.8,0.8,1.1,1.4,1.2c0.4,0.1,0.7,0.2,0.7,0.5
	c0,0.3-0.2,0.4-0.7,0.4c-0.4,0-0.7-0.2-0.9-0.6l-0.7,0.4c0.3,0.6,0.8,0.9,1.6,0.9c0.4,0,0.8-0.1,1.1-0.3c0.3-0.2,0.4-0.5,0.4-0.9
	C82.6,96.5,81.9,96.3,81.3,96.2z M387.9,32.7l2.2,2.6h1.1l-2.3-2.8l2.2-2.7H390l-2.1,2.5v-2.5H387v5.5h0.9V32.7z M391.7,34.8
	c-0.4-0.4-0.6-0.9-0.6-1.5c0-0.6,0.2-1.1,0.6-1.5c0.4-0.4,0.9-0.6,1.5-0.6c0.6,0,1,0.2,1.4,0.6c0.4,0.4,0.6,0.9,0.6,1.5
	c0,0.1,0,0.2,0,0.4H392c0.1,0.6,0.6,0.9,1.3,0.9c0.4,0,0.8-0.2,1-0.5l0.7,0.4c-0.4,0.6-1,0.9-1.7,0.9
	C392.6,35.4,392.1,35.2,391.7,34.8z M392,33h2.3c-0.1-0.6-0.6-1-1.1-1C392.5,32,392.1,32.4,392,33z M396.7,30.6
	c0.2-0.2,0.2-0.5,0-0.8c-0.2-0.2-0.6-0.2-0.8,0c-0.2,0.2-0.2,0.5,0,0.8C396.1,30.8,396.4,30.8,396.7,30.6z M396.7,31.3h-0.8v3.9h0.8
	V31.3z M398.5,33.2c0-0.8,0.4-1.1,1-1.1c0.5,0,0.9,0.3,0.9,0.9v2.3h0.8v-2.4c0-1-0.6-1.6-1.5-1.6c-0.6,0-1,0.2-1.2,0.6v-0.5h-0.8
	v3.9h0.8V33.2z M407.5,34.4H405l2.5-3.9v-0.7H404v0.9h2.4l-2.5,3.9v0.7h3.6V34.4z M409.6,35.4c0.6,0,1-0.2,1.2-0.6v0.5h0.8v-3.9
	h-0.8v2.1c0,0.8-0.4,1.1-1,1.1c-0.5,0-0.9-0.3-0.9-0.9v-2.3h-0.8v2.4C408.1,34.8,408.7,35.4,409.6,35.4z M413,34
	c0,1,0.5,1.4,1.8,1.2v-0.8c-0.6,0-1,0-1-0.5v-1.9h1v-0.8h-1v-1.1l-0.8,0.3v0.8h-0.7v0.8h0.7V34z M416.5,33.3c0-0.4,0.1-0.7,0.4-0.9
	c0.2-0.2,0.5-0.3,0.8-0.2v-0.9c-0.6,0-1,0.2-1.2,0.7v-0.7h-0.8v3.9h0.8V33.3z M419.1,30.6c0.2-0.2,0.2-0.5,0-0.8
	c-0.2-0.2-0.6-0.2-0.8,0c-0.2,0.2-0.2,0.5,0,0.8C418.6,30.8,418.9,30.8,419.1,30.6z M418.3,35.3h0.8v-3.9h-0.8V35.3z M420.5,34
	c0,1,0.5,1.4,1.8,1.2v-0.8c-0.6,0-1,0-1-0.5v-1.9h1v-0.8h-1v-1.1l-0.8,0.3v0.8h-0.7v0.8h0.7V34z M423.3,34c0,1,0.5,1.4,1.8,1.2v-0.8
	c-0.6,0-1,0-1-0.5v-1.9h1v-0.8h-1v-1.1l-0.8,0.3v0.8h-0.7v0.8h0.7V34z M430.8,34.5h-1.9l1.8-2.6v-0.6h-2.9v0.8h1.8l-1.8,2.6v0.6h3.1
	V34.5z M433,35.4c0.6,0,1-0.2,1.2-0.6v0.5h0.8v-3.9h-0.8v2.1c0,0.8-0.4,1.1-1,1.1c-0.5,0-0.9-0.3-0.9-0.9v-2.3h-0.8v2.4
	C431.5,34.8,432.1,35.4,433,35.4z M438.9,33h2.2v-0.9h-2.2v-1.5h2.3v-0.9H438v5.5h0.9V33z M442,35.3h0.8v-3.9H442V35.3z M442.8,30.6
	c0.2-0.2,0.2-0.5,0-0.8c-0.2-0.2-0.6-0.2-0.8,0c-0.2,0.2-0.2,0.5,0,0.8C442.3,30.8,442.6,30.8,442.8,30.6z M444.2,34.8
	c-0.4-0.4-0.6-0.9-0.6-1.5c0-0.6,0.2-1.1,0.6-1.5c0.4-0.4,0.8-0.6,1.4-0.6c0.6,0,1,0.2,1.4,0.7v-0.6h0.8v3.9h-0.8v-0.6
	c-0.3,0.4-0.8,0.7-1.4,0.7C445,35.4,444.6,35.2,444.2,34.8z M444.5,33.3c0,0.4,0.1,0.7,0.4,0.9c0.2,0.2,0.5,0.4,0.9,0.4
	c0.4,0,0.6-0.1,0.9-0.4c0.2-0.2,0.4-0.5,0.4-0.9c0-0.4-0.1-0.7-0.4-0.9c-0.2-0.2-0.5-0.4-0.9-0.4c-0.4,0-0.7,0.1-0.9,0.4
	C444.6,32.6,444.5,32.9,444.5,33.3z M449.1,34c0,1,0.5,1.4,1.8,1.2v-0.8c-0.6,0-1,0-1-0.5v-1.9h1v-0.8h-1v-1.1l-0.8,0.3v0.8h-0.7
	v0.8h0.7V34z M453.5,35.3l0.8-2.6l0.8,2.6h0.8l1.2-3.9h-0.9l-0.8,2.7l-0.8-2.7h-0.8l-0.8,2.7l-0.8-2.7h-0.9l1.2,3.9H453.5z
	 M460.6,30.8c0.2-0.2,0.2-0.5,0-0.7c-0.2-0.2-0.5-0.2-0.7,0c-0.2,0.2-0.2,0.5,0,0.7C460.1,30.9,460.4,30.9,460.6,30.8z M458,34.8
	c-0.4-0.4-0.6-0.9-0.6-1.5c0-0.6,0.2-1.1,0.6-1.5c0.4-0.4,0.8-0.6,1.4-0.6c0.6,0,1,0.2,1.4,0.7v-0.6h0.8v3.9h-0.8v-0.6
	c-0.3,0.4-0.8,0.7-1.4,0.7C458.8,35.4,458.4,35.2,458,34.8z M458.3,33.3c0,0.4,0.1,0.7,0.4,0.9c0.2,0.2,0.5,0.4,0.9,0.4
	c0.4,0,0.6-0.1,0.9-0.4c0.2-0.2,0.4-0.5,0.4-0.9c0-0.4-0.1-0.7-0.4-0.9c-0.2-0.2-0.5-0.4-0.9-0.4c-0.4,0-0.7,0.1-0.9,0.4
	C458.4,32.6,458.3,32.9,458.3,33.3z M459.1,30.8c0.2-0.2,0.2-0.5,0-0.7c-0.2-0.2-0.5-0.2-0.7,0c-0.2,0.2-0.2,0.5,0,0.7
	C458.7,30.9,458.9,30.9,459.1,30.8z M463.4,33.2c0-0.8,0.4-1.1,1-1.1c0.5,0,0.9,0.3,0.9,0.9v2.3h0.8v-2.4c0-1-0.6-1.6-1.5-1.6
	c-0.6,0-1,0.2-1.2,0.6v-2.1h-0.8v5.5h0.8V33.2z M467.9,33.3c0-0.4,0.1-0.7,0.4-0.9c0.2-0.2,0.5-0.3,0.8-0.2v-0.9
	c-0.6,0-1,0.2-1.2,0.7v-0.7H467v3.9h0.8V33.3z M472.3,34.8v0.5h0.8v-3.9h-0.8v2.1c0,0.8-0.4,1.1-1,1.1c-0.5,0-0.9-0.3-0.9-0.9v-2.3
	h-0.8v2.4c0,1,0.6,1.6,1.5,1.6C471.7,35.4,472.1,35.2,472.3,34.8z M476.9,32.9v2.3h0.8v-2.4c0-1-0.6-1.6-1.5-1.6
	c-0.6,0-1,0.2-1.2,0.6v-0.5h-0.8v3.9h0.8v-2.1c0-0.8,0.4-1.1,1-1.1C476.5,32,476.9,32.4,476.9,32.9z M479,34.7
	c-0.4-0.4-0.6-0.9-0.6-1.4s0.2-1,0.6-1.4c0.4-0.4,0.8-0.6,1.4-0.6c0.6,0,1,0.2,1.4,0.7v-0.6h0.8v3.7c0,0.6-0.2,1-0.6,1.4
	c-0.4,0.3-0.9,0.5-1.4,0.5c-0.9,0-1.5-0.3-1.9-0.9l0.7-0.4c0.2,0.4,0.6,0.6,1.1,0.6c0.7,0,1.2-0.4,1.2-1.1v-0.5
	c-0.3,0.5-0.8,0.7-1.4,0.7C479.8,35.3,479.4,35.1,479,34.7z M479.3,33.3c0,0.4,0.1,0.6,0.4,0.9c0.2,0.2,0.5,0.4,0.9,0.4
	c0.4,0,0.6-0.1,0.9-0.4c0.2-0.2,0.4-0.5,0.4-0.9s-0.1-0.6-0.4-0.9c-0.2-0.2-0.5-0.4-0.9-0.4c-0.4,0-0.7,0.1-0.9,0.4
	C479.4,32.6,479.3,32.9,479.3,33.3z M486.8,31.9c0.4,0.4,0.6,0.9,0.6,1.5c0,0.1,0,0.2,0,0.4h-3.1c0.1,0.6,0.6,0.9,1.3,0.9
	c0.4,0,0.8-0.2,1-0.5l0.7,0.4c-0.4,0.6-1,0.9-1.7,0.9c-0.6,0-1.2-0.2-1.5-0.6c-0.4-0.4-0.6-0.9-0.6-1.5c0-0.6,0.2-1.1,0.6-1.5
	c0.4-0.4,0.9-0.6,1.5-0.6C486,31.2,486.4,31.5,486.8,31.9z M486.5,33c-0.1-0.6-0.6-1-1.1-1c-0.6,0-1.1,0.4-1.2,1H486.5z M490.2,31.2
	c-0.6,0-1,0.2-1.2,0.6v-0.5h-0.8v3.9h0.8v-2.1c0-0.8,0.4-1.1,1-1.1c0.5,0,0.9,0.3,0.9,0.9v2.3h0.8v-2.4
	C491.7,31.9,491.1,31.2,490.2,31.2z M388.9,47.1c-0.7,0-1.1-0.3-1.4-0.9l-0.8,0.5c0.3,0.8,1.1,1.3,2.1,1.3c0.6,0,1-0.1,1.4-0.4
	c0.4-0.3,0.5-0.7,0.5-1.2c0-0.5-0.3-0.9-0.6-1.1c-0.1-0.1-0.2-0.1-0.4-0.2c-0.2-0.1-0.3-0.1-0.4-0.2c-0.1,0-0.2-0.1-0.5-0.2
	c-0.8-0.3-1.1-0.4-1.1-0.9c0-0.4,0.3-0.7,0.9-0.7c0.5,0,0.9,0.3,1.2,0.8l0.8-0.4c-0.4-0.8-1-1.2-1.9-1.2c-0.5,0-0.9,0.1-1.2,0.4
	c-0.3,0.3-0.5,0.7-0.5,1.2c0,0.5,0.2,0.9,0.5,1.1c0.4,0.2,0.6,0.3,1.2,0.5c0.5,0.1,0.8,0.3,1,0.4c0.2,0.1,0.3,0.3,0.3,0.5
	C389.9,46.8,389.5,47.1,388.9,47.1z M393.4,44.7c0.5,0,0.8,0.2,1,0.6l0.7-0.4c-0.3-0.6-1-1-1.7-1c-0.6,0-1.1,0.2-1.5,0.6
	c-0.4,0.4-0.6,0.9-0.6,1.5c0,0.6,0.2,1.1,0.6,1.5c0.4,0.4,0.9,0.6,1.5,0.6c0.8,0,1.4-0.4,1.8-1l-0.7-0.4c-0.2,0.4-0.6,0.6-1,0.6
	c-0.3,0-0.6-0.1-0.9-0.4c-0.2-0.2-0.3-0.5-0.3-0.9c0-0.4,0.1-0.6,0.3-0.9C392.8,44.8,393.1,44.7,393.4,44.7z M396.7,42.4h-0.8v5.5
	h0.8v-2.1c0-0.8,0.4-1.1,1-1.1c0.5,0,0.9,0.3,0.9,0.9v2.3h0.8v-2.4c0-1-0.6-1.6-1.5-1.6c-0.6,0-1,0.2-1.2,0.6V42.4z M400.6,44.5
	c0.4-0.4,0.8-0.6,1.4-0.6c0.6,0,1,0.2,1.4,0.7V44h0.8v3.9h-0.8v-0.6c-0.3,0.4-0.8,0.7-1.4,0.7c-0.5,0-1-0.2-1.4-0.6
	c-0.4-0.4-0.6-0.9-0.6-1.5C400.1,45.4,400.2,44.9,400.6,44.5z M400.9,46c0,0.4,0.1,0.7,0.4,0.9c0.2,0.2,0.5,0.4,0.9,0.4
	c0.4,0,0.6-0.1,0.9-0.4c0.2-0.2,0.4-0.5,0.4-0.9c0-0.4-0.1-0.7-0.4-0.9c-0.2-0.2-0.5-0.4-0.9-0.4c-0.4,0-0.7,0.1-0.9,0.4
	C401,45.3,400.9,45.6,400.9,46z M405.6,43.1V44h-0.7v0.8h0.7v1.9c0,1,0.5,1.4,1.8,1.2v-0.8c-0.6,0-1,0-1-0.5v-1.9h1V44h-1v-1.1
	L405.6,43.1z M408.3,46.7c0,1,0.5,1.4,1.8,1.2v-0.8c-0.6,0-1,0-1-0.5v-1.9h1V44h-1v-1.1l-0.8,0.3V44h-0.7v0.8h0.7V46.7z M412.7,48
	c-0.6,0-1.2-0.2-1.5-0.6c-0.4-0.4-0.6-0.9-0.6-1.5c0-0.6,0.2-1.1,0.6-1.5c0.4-0.4,0.9-0.6,1.5-0.6c0.6,0,1,0.2,1.4,0.6
	c0.4,0.4,0.6,0.9,0.6,1.5c0,0.1,0,0.2,0,0.4h-3.1c0.1,0.6,0.6,0.9,1.3,0.9c0.4,0,0.8-0.2,1-0.5l0.7,0.4C414,47.7,413.4,48,412.7,48z
	 M411.4,45.6h2.3c-0.1-0.6-0.6-1-1.1-1C412,44.7,411.5,45,411.4,45.6z M416.2,45.8c0-0.8,0.4-1.1,1-1.1c0.5,0,0.9,0.3,0.9,0.9v2.3
	h0.8v-2.4c0-1-0.6-1.6-1.5-1.6c-0.6,0-1,0.2-1.2,0.6V44h-0.8v3.9h0.8V45.8z M420.1,47.9h0.8v-3.1h0.9V44h-0.9v-0.1
	c0-0.6,0.3-0.8,0.9-0.8v-0.8c-1.2-0.1-1.8,0.5-1.8,1.6V44h-0.6v0.8h0.6V47.9z M421.9,46c0-0.6,0.2-1.1,0.6-1.5
	c0.4-0.4,0.9-0.6,1.5-0.6c0.6,0,1.1,0.2,1.5,0.6c0.4,0.4,0.6,0.9,0.6,1.5c0,0.6-0.2,1.1-0.6,1.5c-0.4,0.4-0.9,0.6-1.5,0.6
	c-0.6,0-1.1-0.2-1.5-0.6S421.9,46.5,421.9,46z M422.8,46c0,0.4,0.1,0.6,0.4,0.9c0.2,0.2,0.5,0.4,0.9,0.4c0.3,0,0.6-0.1,0.9-0.4
	c0.2-0.2,0.4-0.5,0.4-0.9c0-0.4-0.1-0.6-0.4-0.9c-0.2-0.2-0.5-0.4-0.9-0.4c-0.3,0-0.6,0.1-0.9,0.4C422.9,45.3,422.8,45.6,422.8,46z
	 M427.7,45.8c0-0.8,0.4-1.1,1-1.1c0.5,0,0.9,0.3,0.9,0.9v2.3h0.8v-2.4c0-1-0.6-1.6-1.5-1.6c-0.6,0-1,0.2-1.2,0.6V44h-0.8v3.9h0.8
	V45.8z M431.7,47.4c-0.4-0.4-0.6-0.9-0.6-1.5c0-0.6,0.2-1.1,0.6-1.5c0.4-0.4,0.8-0.6,1.4-0.6c0.6,0,1,0.2,1.4,0.7v-2.1h0.8v5.5h-0.8
	v-0.6c-0.3,0.4-0.8,0.7-1.4,0.7C432.5,48,432,47.8,431.7,47.4z M431.9,46c0,0.4,0.1,0.7,0.4,0.9c0.2,0.2,0.5,0.4,0.9,0.4
	c0.4,0,0.6-0.1,0.9-0.4c0.2-0.2,0.4-0.5,0.4-0.9c0-0.4-0.1-0.7-0.4-0.9c-0.2-0.2-0.5-0.4-0.9-0.4c-0.4,0-0.7,0.1-0.9,0.4
	C432,45.3,431.9,45.6,431.9,46z M437.5,47.2c-0.4,0-0.7-0.2-0.9-0.6l-0.7,0.4c0.3,0.6,0.8,0.9,1.6,0.9c0.4,0,0.8-0.1,1.1-0.3
	c0.3-0.2,0.4-0.5,0.4-0.9c0-0.8-0.8-1.1-1.4-1.2c-0.4-0.1-0.7-0.3-0.7-0.5c0-0.3,0.2-0.4,0.6-0.4c0.4,0,0.6,0.1,0.7,0.4l0.7-0.4
	c-0.3-0.5-0.8-0.8-1.4-0.8c-0.4,0-0.8,0.1-1,0.3c-0.3,0.2-0.4,0.5-0.4,0.9c0,0.8,0.8,1.1,1.4,1.2c0.4,0.1,0.7,0.3,0.7,0.5
	C438.2,47.1,438,47.2,437.5,47.2z M443.2,48c0.6,0,1-0.2,1.2-0.6v0.5h0.8V44h-0.8v2.1c0,0.8-0.4,1.1-1,1.1c-0.5,0-0.9-0.3-0.9-0.9
	V44h-0.8v2.4C441.7,47.4,442.3,48,443.2,48z M447.1,44.5V44h-0.8v3.9h0.8v-2.1c0-0.8,0.4-1.1,1-1.1c0.5,0,0.9,0.3,0.9,0.9v2.3h0.8
	v-2.4c0-1-0.6-1.6-1.5-1.6C447.7,43.9,447.3,44.1,447.1,44.5z M450.5,46c0-0.6,0.2-1.1,0.6-1.5c0.4-0.4,0.8-0.6,1.4-0.6
	c0.6,0,1,0.2,1.4,0.7v-2.1h0.8v5.5h-0.8v-0.6c-0.3,0.4-0.8,0.7-1.4,0.7c-0.5,0-1-0.2-1.4-0.6C450.7,47,450.5,46.5,450.5,46z
	 M451.3,46c0,0.4,0.1,0.7,0.4,0.9c0.2,0.2,0.5,0.4,0.9,0.4c0.4,0,0.6-0.1,0.9-0.4c0.2-0.2,0.4-0.5,0.4-0.9c0-0.4-0.1-0.7-0.4-0.9
	c-0.2-0.2-0.5-0.4-0.9-0.4c-0.4,0-0.7,0.1-0.9,0.4C451.4,45.3,451.3,45.6,451.3,46z M460.5,45.1h-2.9v0.8h2.9V45.1z M463.7,47.1
	c-0.6,0-1,0-1-0.5v-1.9h1V44h-1v-1.1l-0.8,0.3V44h-0.7v0.8h0.7v1.9c0,1,0.5,1.4,1.8,1.2V47.1z M464.5,44v3.9h0.8v-2
	c0-0.4,0.1-0.7,0.4-0.9c0.2-0.2,0.5-0.3,0.8-0.2v-0.9c-0.6,0-1,0.2-1.2,0.7V44H464.5z M470.1,44h0.8v3.9h-0.8v-0.6
	c-0.3,0.4-0.8,0.7-1.4,0.7c-0.5,0-1-0.2-1.4-0.6c-0.4-0.4-0.6-0.9-0.6-1.5c0-0.6,0.2-1.1,0.6-1.5c0.4-0.4,0.8-0.6,1.4-0.6
	c0.6,0,1,0.2,1.4,0.7V44z M470.1,46c0-0.4-0.1-0.7-0.4-0.9c-0.2-0.2-0.5-0.4-0.9-0.4c-0.4,0-0.7,0.1-0.9,0.4
	c-0.2,0.2-0.4,0.5-0.4,0.9c0,0.4,0.1,0.7,0.4,0.9c0.2,0.2,0.5,0.4,0.9,0.4c0.4,0,0.6-0.1,0.9-0.4C470,46.6,470.1,46.3,470.1,46z
	 M475,42.4h0.8v5.5H475v-0.6c-0.3,0.4-0.8,0.7-1.4,0.7c-0.5,0-1-0.2-1.4-0.6c-0.4-0.4-0.6-0.9-0.6-1.5c0-0.6,0.2-1.1,0.6-1.5
	c0.4-0.4,0.8-0.6,1.4-0.6c0.6,0,1,0.2,1.4,0.7V42.4z M475,46c0-0.4-0.1-0.7-0.4-0.9c-0.2-0.2-0.5-0.4-0.9-0.4
	c-0.4,0-0.7,0.1-0.9,0.4c-0.2,0.2-0.4,0.5-0.4,0.9c0,0.4,0.1,0.7,0.4,0.9c0.2,0.2,0.5,0.4,0.9,0.4c0.4,0,0.6-0.1,0.9-0.4
	C474.9,46.6,475,46.3,475,46z M480.1,44.5c0.4,0.4,0.6,0.9,0.6,1.5c0,0.1,0,0.2,0,0.4h-3.1c0.1,0.6,0.6,0.9,1.3,0.9
	c0.4,0,0.8-0.2,1-0.5l0.7,0.4c-0.4,0.6-1,0.9-1.7,0.9c-0.6,0-1.2-0.2-1.5-0.6c-0.4-0.4-0.6-0.9-0.6-1.5c0-0.6,0.2-1.1,0.6-1.5
	c0.4-0.4,0.9-0.6,1.5-0.6C479.3,43.9,479.7,44.1,480.1,44.5z M479.8,45.6c-0.1-0.6-0.6-1-1.1-1c-0.6,0-1.1,0.4-1.2,1H479.8z
	 M482.2,44.7V44h-0.8v3.9h0.8v-2c0-0.4,0.1-0.7,0.4-0.9c0.2-0.2,0.5-0.3,0.8-0.2v-0.9C482.9,43.9,482.5,44.2,482.2,44.7z
	 M390.3,56.6h-1l-1.5,1.7v-3.3h-0.8v5.5h0.8v-1.8l1.6,1.8h1l-1.8-2L390.3,56.6z M392.6,60.7c-0.6,0-1.2-0.2-1.5-0.6
	c-0.4-0.4-0.6-0.9-0.6-1.5c0-0.6,0.2-1.1,0.6-1.5c0.4-0.4,0.9-0.6,1.5-0.6c0.6,0,1,0.2,1.4,0.6c0.4,0.4,0.6,0.9,0.6,1.5
	c0,0.1,0,0.2,0,0.4h-3.1c0.1,0.6,0.6,0.9,1.3,0.9c0.4,0,0.8-0.2,1-0.5l0.7,0.4C393.9,60.4,393.3,60.7,392.6,60.7z M391.3,58.3h2.3
	c-0.1-0.6-0.6-1-1.1-1C391.9,57.3,391.4,57.7,391.3,58.3z M395.3,55.9c0.2,0.2,0.5,0.2,0.8,0c0.2-0.2,0.2-0.5,0-0.8
	c-0.2-0.2-0.6-0.2-0.8,0C395,55.3,395,55.7,395.3,55.9z M395.2,60.6h0.8v-3.9h-0.8V60.6z M397,56.6v3.9h0.8v-2.1
	c0-0.8,0.4-1.1,1-1.1c0.5,0,0.9,0.3,0.9,0.9v2.3h0.8v-2.4c0-1-0.6-1.6-1.5-1.6c-0.6,0-1,0.2-1.2,0.6v-0.5H397z M401.9,60.1
	c-0.4-0.4-0.6-0.9-0.6-1.5c0-0.6,0.2-1.1,0.6-1.5c0.4-0.4,0.9-0.6,1.5-0.6c0.6,0,1,0.2,1.4,0.6c0.4,0.4,0.6,0.9,0.6,1.5
	c0,0.1,0,0.2,0,0.4h-3.1c0.1,0.6,0.6,0.9,1.3,0.9c0.4,0,0.8-0.2,1-0.5l0.7,0.4c-0.4,0.6-1,0.9-1.7,0.9
	C402.8,60.7,402.3,60.5,401.9,60.1z M402.2,58.3h2.3c-0.1-0.6-0.6-1-1.1-1C402.7,57.3,402.3,57.7,402.2,58.3z M413.3,55.1h-1
	l-1.7,2.7l-1.7-2.7h-1v5.5h0.9v-3.9l1.7,2.8h0.1l1.7-2.8v3.9h0.9V55.1z M414.3,56.6V59c0,1,0.6,1.6,1.5,1.6c0.6,0,1-0.2,1.2-0.6v0.5
	h0.8v-3.9H417v2.1c0,0.8-0.4,1.1-1,1.1c-0.5,0-0.9-0.3-0.9-0.9v-2.3H414.3z M418.8,60.6h0.8v-5.7h-0.8V60.6z M422.8,57.5v-0.8h-1
	v-1.1l-0.8,0.3v0.8h-0.7v0.8h0.7v1.9c0,1,0.5,1.4,1.8,1.2v-0.8c-0.6,0-1,0-1-0.5v-1.9H422.8z M424.4,55.1c-0.2-0.2-0.6-0.2-0.8,0
	c-0.2,0.2-0.2,0.5,0,0.8c0.2,0.2,0.5,0.2,0.8,0C424.6,55.7,424.6,55.3,424.4,55.1z M423.6,60.6h0.8v-3.9h-0.8V60.6z M426.3,55.1v2.1
	c0.3-0.4,0.8-0.7,1.4-0.7c0.5,0,1,0.2,1.4,0.6s0.6,0.9,0.6,1.5c0,0.6-0.2,1.1-0.6,1.5s-0.8,0.6-1.4,0.6c-0.6,0-1-0.2-1.4-0.7v0.6
	h-0.8v-5.5H426.3z M426.3,58.6c0,0.4,0.1,0.7,0.4,0.9c0.2,0.2,0.5,0.4,0.9,0.4s0.6-0.1,0.9-0.4c0.2-0.2,0.4-0.5,0.4-0.9
	s-0.1-0.7-0.4-0.9c-0.2-0.2-0.5-0.4-0.9-0.4s-0.6,0.1-0.9,0.4C426.4,57.9,426.3,58.2,426.3,58.6z M432.2,56.5c0.6,0,1.1,0.2,1.5,0.6
	c0.4,0.4,0.6,0.9,0.6,1.5s-0.2,1.1-0.6,1.5c-0.4,0.4-0.9,0.6-1.5,0.6c-0.6,0-1.1-0.2-1.5-0.6s-0.6-0.9-0.6-1.5s0.2-1.1,0.6-1.5
	S431.6,56.5,432.2,56.5z M433.1,57.7c-0.2-0.2-0.5-0.4-0.9-0.4c-0.3,0-0.6,0.1-0.9,0.4c-0.2,0.2-0.4,0.5-0.4,0.9s0.1,0.6,0.4,0.9
	c0.2,0.2,0.5,0.4,0.9,0.4c0.3,0,0.6-0.1,0.9-0.4c0.2-0.2,0.4-0.5,0.4-0.9S433.3,57.9,433.1,57.7z M431.8,56c0.2-0.2,0.2-0.5,0-0.7
	c-0.2-0.2-0.5-0.2-0.7,0c-0.2,0.2-0.2,0.5,0,0.7C431.3,56.2,431.6,56.2,431.8,56z M433.3,56c0.2-0.2,0.2-0.5,0-0.7
	c-0.2-0.2-0.5-0.2-0.7,0c-0.2,0.2-0.2,0.5,0,0.7C432.8,56.2,433.1,56.2,433.3,56z M435,56.6v3.9h0.8v-2c0-0.4,0.1-0.7,0.4-0.9
	c0.2-0.2,0.5-0.3,0.8-0.2v-0.9c-0.6,0-1,0.2-1.2,0.7v-0.7H435z M438.9,59.9c-0.4,0-0.7-0.2-0.9-0.6l-0.7,0.4
	c0.3,0.6,0.8,0.9,1.6,0.9c0.4,0,0.8-0.1,1.1-0.3c0.3-0.2,0.4-0.5,0.4-0.9c0-0.8-0.8-1.1-1.4-1.2c-0.4-0.1-0.7-0.2-0.7-0.5
	c0-0.3,0.2-0.4,0.6-0.4c0.4,0,0.6,0.1,0.7,0.4l0.7-0.4c-0.3-0.5-0.8-0.8-1.4-0.8c-0.4,0-0.8,0.1-1,0.3c-0.3,0.2-0.4,0.5-0.4,0.9
	c0,0.8,0.8,1.1,1.4,1.2c0.4,0.1,0.7,0.2,0.7,0.5C439.6,59.7,439.3,59.9,438.9,59.9z M440.8,58.6c0-0.6,0.2-1.1,0.6-1.5
	c0.4-0.4,0.9-0.6,1.5-0.6c0.6,0,1,0.2,1.4,0.6c0.4,0.4,0.6,0.9,0.6,1.5c0,0.1,0,0.2,0,0.4h-3.1c0.1,0.6,0.6,0.9,1.3,0.9
	c0.4,0,0.8-0.2,1-0.5l0.7,0.4c-0.4,0.6-1,0.9-1.7,0.9c-0.6,0-1.2-0.2-1.5-0.6C441,59.7,440.8,59.2,440.8,58.6z M441.7,58.3h2.3
	c-0.1-0.6-0.6-1-1.1-1C442.3,57.3,441.8,57.7,441.7,58.3z M392.2,73.2v-5.5h-1l-1.7,2.7l-1.7-2.7h-1v5.5h0.9v-3.9l1.7,2.8h0.1
	l1.7-2.8v3.9H392.2z M396.4,69.3h0.8v3.9h-0.8v-0.6c-0.3,0.4-0.8,0.7-1.4,0.7c-0.5,0-1-0.2-1.4-0.6c-0.4-0.4-0.6-0.9-0.6-1.5
	c0-0.6,0.2-1.1,0.6-1.5c0.4-0.4,0.8-0.6,1.4-0.6c0.6,0,1,0.2,1.4,0.7V69.3z M396.4,71.2c0-0.4-0.1-0.7-0.4-0.9
	c-0.2-0.2-0.5-0.4-0.9-0.4c-0.4,0-0.7,0.1-0.9,0.4c-0.2,0.2-0.4,0.5-0.4,0.9s0.1,0.7,0.4,0.9c0.2,0.2,0.5,0.4,0.9,0.4
	c0.4,0,0.6-0.1,0.9-0.4C396.3,71.9,396.4,71.6,396.4,71.2z M401.8,70.8c0-1-0.6-1.6-1.5-1.6c-0.6,0-1,0.2-1.2,0.6v-0.5h-0.8v3.9h0.8
	v-2.1c0-0.8,0.4-1.1,1-1.1c0.5,0,0.9,0.3,0.9,0.9v2.3h0.8V70.8z M406,74.4c-0.4,0.3-0.9,0.5-1.4,0.5c-0.9,0-1.5-0.3-1.9-0.9l0.7-0.4
	c0.2,0.4,0.6,0.6,1.1,0.6c0.7,0,1.2-0.4,1.2-1.1v-0.5c-0.3,0.5-0.8,0.7-1.4,0.7c-0.6,0-1-0.2-1.4-0.6c-0.4-0.4-0.6-0.9-0.6-1.4
	s0.2-1,0.6-1.4c0.4-0.4,0.8-0.6,1.4-0.6c0.6,0,1,0.2,1.4,0.7v-0.6h0.8V73C406.6,73.6,406.4,74.1,406,74.4z M405.8,71.2
	c0-0.4-0.1-0.6-0.4-0.9c-0.2-0.2-0.5-0.4-0.9-0.4c-0.4,0-0.7,0.1-0.9,0.4c-0.2,0.2-0.4,0.5-0.4,0.9s0.1,0.6,0.4,0.9
	c0.2,0.2,0.5,0.4,0.9,0.4c0.4,0,0.6-0.1,0.9-0.4C405.7,71.8,405.8,71.6,405.8,71.2z M411.4,71.6h-3.1c0.1,0.6,0.6,0.9,1.3,0.9
	c0.4,0,0.8-0.2,1-0.5l0.7,0.4c-0.4,0.6-1,0.9-1.7,0.9c-0.6,0-1.2-0.2-1.5-0.6c-0.4-0.4-0.6-0.9-0.6-1.5c0-0.6,0.2-1.1,0.6-1.5
	c0.4-0.4,0.9-0.6,1.5-0.6c0.6,0,1,0.2,1.4,0.6c0.4,0.4,0.6,0.9,0.6,1.5C411.4,71.3,411.4,71.5,411.4,71.6z M410.6,70.9
	c-0.1-0.6-0.6-1-1.1-1c-0.6,0-1.1,0.4-1.2,1H410.6z M412.2,73.2h0.8v-5.7h-0.8V73.2z M417.5,73.2v-2.4c0-1-0.6-1.6-1.5-1.6
	c-0.6,0-1,0.2-1.2,0.6v-0.5H414v3.9h0.8v-2.1c0-0.8,0.4-1.1,1-1.1c0.5,0,0.9,0.3,0.9,0.9v2.3H417.5z M421.6,67.7h0.8v5.5h-0.8v-0.6
	c-0.3,0.4-0.8,0.7-1.4,0.7c-0.5,0-1-0.2-1.4-0.6c-0.4-0.4-0.6-0.9-0.6-1.5c0-0.6,0.2-1.1,0.6-1.5c0.4-0.4,0.8-0.6,1.4-0.6
	c0.6,0,1,0.2,1.4,0.7V67.7z M421.6,71.2c0-0.4-0.1-0.7-0.4-0.9c-0.2-0.2-0.5-0.4-0.9-0.4c-0.4,0-0.7,0.1-0.9,0.4
	c-0.2,0.2-0.4,0.5-0.4,0.9s0.1,0.7,0.4,0.9c0.2,0.2,0.5,0.4,0.9,0.4c0.4,0,0.6-0.1,0.9-0.4C421.4,71.9,421.6,71.6,421.6,71.2z
	 M427.2,71.6H424c0.1,0.6,0.6,0.9,1.3,0.9c0.4,0,0.8-0.2,1-0.5l0.7,0.4c-0.4,0.6-1,0.9-1.7,0.9c-0.6,0-1.2-0.2-1.5-0.6
	c-0.4-0.4-0.6-0.9-0.6-1.5c0-0.6,0.2-1.1,0.6-1.5c0.4-0.4,0.9-0.6,1.5-0.6c0.6,0,1,0.2,1.4,0.6c0.4,0.4,0.6,0.9,0.6,1.5
	C427.2,71.3,427.2,71.5,427.2,71.6z M426.3,70.9c-0.1-0.6-0.6-1-1.1-1c-0.6,0-1.1,0.4-1.2,1H426.3z M429.4,73.2l2-5.5h1.1l2,5.5h-1
	l-0.4-1.1h-2.3l-0.4,1.1H429.4z M431.1,71.3h1.7l-0.9-2.5L431.1,71.3z M437.6,71.4c0,0.8-0.4,1.1-1,1.1c-0.5,0-0.9-0.3-0.9-0.9v-2.3
	h-0.8v2.4c0,1,0.6,1.6,1.5,1.6c0.6,0,1-0.2,1.2-0.6v0.5h0.8v-3.9h-0.8V71.4z M440.7,70c0.4,0,0.6,0.1,0.7,0.4l0.7-0.4
	c-0.3-0.5-0.8-0.8-1.4-0.8c-0.4,0-0.8,0.1-1,0.3c-0.3,0.2-0.4,0.5-0.4,0.9c0,0.8,0.8,1.1,1.4,1.2c0.4,0.1,0.7,0.2,0.7,0.5
	c0,0.3-0.2,0.4-0.7,0.4s-0.7-0.2-0.9-0.6l-0.7,0.4c0.3,0.6,0.8,0.9,1.6,0.9c0.4,0,0.8-0.1,1.1-0.3c0.3-0.2,0.4-0.5,0.4-0.9
	c0-0.8-0.8-1.1-1.4-1.2c-0.4-0.1-0.7-0.2-0.7-0.5C440.2,70.1,440.4,70,440.7,70z M445.4,70.6l0.8,2.6h0.8l1.2-3.9h-0.9l-0.8,2.7
	l-0.8-2.7H445l-0.8,2.7l-0.8-2.7h-0.9l1.2,3.9h0.8L445.4,70.6z M451.8,73.2v-0.6c-0.3,0.4-0.8,0.7-1.4,0.7c-0.5,0-1-0.2-1.4-0.6
	c-0.4-0.4-0.6-0.9-0.6-1.5c0-0.6,0.2-1.1,0.6-1.5c0.4-0.4,0.8-0.6,1.4-0.6c0.6,0,1,0.2,1.4,0.7v-0.6h0.8v3.9H451.8z M451.8,71.2
	c0-0.4-0.1-0.7-0.4-0.9c-0.2-0.2-0.5-0.4-0.9-0.4c-0.4,0-0.7,0.1-0.9,0.4c-0.2,0.2-0.4,0.5-0.4,0.9s0.1,0.7,0.4,0.9
	c0.2,0.2,0.5,0.4,0.9,0.4c0.4,0,0.6-0.1,0.9-0.4C451.7,71.9,451.8,71.6,451.8,71.2z M457.2,73.2v-2.4c0-1-0.6-1.6-1.5-1.6
	c-0.6,0-1,0.2-1.2,0.6v-2.1h-0.8v5.5h0.8v-2.1c0-0.8,0.4-1.1,1-1.1c0.5,0,0.9,0.3,0.9,0.9v2.3H457.2z M459,73.2v-5.7h-0.8v5.7H459z
	 M388.8,85.9c0.6,0,1-0.1,1.4-0.4c0.4-0.3,0.5-0.7,0.5-1.2c0-0.5-0.3-0.9-0.6-1.1c-0.1-0.1-0.2-0.1-0.4-0.2
	c-0.2-0.1-0.3-0.1-0.4-0.2c-0.1,0-0.2-0.1-0.5-0.2c-0.8-0.3-1.1-0.4-1.1-0.9c0-0.4,0.3-0.7,0.9-0.7c0.5,0,0.9,0.3,1.2,0.8l0.8-0.4
	c-0.4-0.8-1-1.2-1.9-1.2c-0.5,0-0.9,0.1-1.2,0.4c-0.3,0.3-0.5,0.7-0.5,1.2c0,0.5,0.2,0.9,0.5,1.1c0.4,0.2,0.6,0.3,1.2,0.5
	c0.5,0.1,0.8,0.3,1,0.4c0.2,0.1,0.3,0.3,0.3,0.5c0,0.4-0.3,0.7-1,0.7c-0.7,0-1.1-0.3-1.4-0.9l-0.8,0.5
	C387,85.4,387.8,85.9,388.8,85.9z M391.5,85.8h0.8v-3.9h-0.8V85.8z M391.5,80.4c-0.2,0.2-0.2,0.5,0,0.8c0.2,0.2,0.5,0.2,0.8,0
	c0.2-0.2,0.2-0.5,0-0.8C392.1,80.2,391.7,80.2,391.5,80.4z M395.2,85.1c-0.3,0-0.6-0.1-0.9-0.4c-0.2-0.2-0.3-0.5-0.3-0.9
	s0.1-0.6,0.3-0.9c0.2-0.2,0.5-0.4,0.9-0.4c0.5,0,0.8,0.2,1,0.6l0.7-0.4c-0.3-0.6-1-1-1.7-1c-0.6,0-1.1,0.2-1.5,0.6
	c-0.4,0.4-0.6,0.9-0.6,1.5c0,0.6,0.2,1.1,0.6,1.5c0.4,0.4,0.9,0.6,1.5,0.6c0.8,0,1.4-0.4,1.8-1l-0.7-0.4
	C396,84.9,395.6,85.1,395.2,85.1z M401.1,85.8v-2.4c0-1-0.6-1.6-1.5-1.6c-0.6,0-1,0.2-1.2,0.6v-2.1h-0.8v5.5h0.8v-2.1
	c0-0.8,0.4-1.1,1-1.1c0.5,0,0.9,0.3,0.9,0.9v2.3H401.1z M405.8,84.2h-3.1c0.1,0.6,0.6,0.9,1.3,0.9c0.4,0,0.8-0.2,1-0.5l0.7,0.4
	c-0.4,0.6-1,0.9-1.7,0.9c-0.6,0-1.2-0.2-1.5-0.6c-0.4-0.4-0.6-0.9-0.6-1.5c0-0.6,0.2-1.1,0.6-1.5c0.4-0.4,0.9-0.6,1.5-0.6
	c0.6,0,1,0.2,1.4,0.6c0.4,0.4,0.6,0.9,0.6,1.5C405.8,84,405.8,84.1,405.8,84.2z M405,83.6c-0.1-0.6-0.6-1-1.1-1
	c-0.6,0-1.1,0.4-1.2,1H405z M407.4,83.9c0-0.4,0.1-0.7,0.4-0.9c0.2-0.2,0.5-0.3,0.8-0.2v-0.9c-0.6,0-1,0.2-1.2,0.7v-0.7h-0.8v3.9
	h0.8V83.9z M411.9,83.5v2.3h0.8v-2.4c0-1-0.6-1.6-1.5-1.6c-0.6,0-1,0.2-1.2,0.6v-2.1h-0.8v5.5h0.8v-2.1c0-0.8,0.4-1.1,1-1.1
	C411.6,82.6,411.9,82.9,411.9,83.5z M415.6,85.9c-0.6,0-1.2-0.2-1.5-0.6c-0.4-0.4-0.6-0.9-0.6-1.5c0-0.6,0.2-1.1,0.6-1.5
	c0.4-0.4,0.9-0.6,1.5-0.6c0.6,0,1,0.2,1.4,0.6c0.4,0.4,0.6,0.9,0.6,1.5c0,0.1,0,0.2,0,0.4h-3.1c0.1,0.6,0.6,0.9,1.3,0.9
	c0.4,0,0.8-0.2,1-0.5l0.7,0.4C416.9,85.7,416.4,85.9,415.6,85.9z M414.4,83.6h2.3c-0.1-0.6-0.6-1-1.1-1
	C414.9,82.6,414.5,83,414.4,83.6z M418.2,85.8h0.8v-3.9h-0.8V85.8z M418.3,80.4c-0.2,0.2-0.2,0.5,0,0.8c0.2,0.2,0.5,0.2,0.8,0
	c0.2-0.2,0.2-0.5,0-0.8C418.8,80.2,418.5,80.2,418.3,80.4z M420.4,81.1v0.8h-0.7v0.8h0.7v1.9c0,1,0.5,1.4,1.8,1.2v-0.8
	c-0.6,0-1,0-1-0.5v-1.9h1v-0.8h-1v-1.1L420.4,81.1z M424.2,85.2c-0.4,0-0.7-0.2-0.9-0.6l-0.7,0.4c0.3,0.6,0.8,0.9,1.6,0.9
	c0.4,0,0.8-0.1,1.1-0.3c0.3-0.2,0.4-0.5,0.4-0.9c0-0.8-0.8-1.1-1.4-1.2c-0.4-0.1-0.7-0.2-0.7-0.5c0-0.3,0.3-0.4,0.6-0.4
	c0.4,0,0.6,0.1,0.7,0.4l0.7-0.4c-0.3-0.5-0.8-0.8-1.4-0.8c-0.4,0-0.8,0.1-1,0.3c-0.3,0.2-0.4,0.5-0.4,0.9c0,0.8,0.8,1.1,1.4,1.2
	c0.4,0.1,0.7,0.2,0.7,0.5C424.9,85,424.7,85.2,424.2,85.2z M427.3,85.3v2.1h-0.8v-5.5h0.8v0.6c0.3-0.4,0.8-0.7,1.4-0.7
	c0.5,0,1,0.2,1.4,0.6s0.6,0.9,0.6,1.5c0,0.6-0.2,1.1-0.6,1.5s-0.8,0.6-1.4,0.6C428.1,85.9,427.7,85.7,427.3,85.3z M427.3,83.9
	c0,0.4,0.1,0.7,0.4,0.9c0.2,0.2,0.5,0.4,0.9,0.4s0.6-0.1,0.9-0.4c0.2-0.2,0.4-0.5,0.4-0.9s-0.1-0.7-0.4-0.9
	c-0.2-0.2-0.5-0.4-0.9-0.4s-0.6,0.1-0.9,0.4C427.5,83.2,427.3,83.5,427.3,83.9z M432.3,83.9c0-0.4,0.1-0.7,0.4-0.9
	c0.2-0.2,0.5-0.3,0.8-0.2v-0.9c-0.6,0-1,0.2-1.2,0.7v-0.7h-0.8v3.9h0.8V83.9z M437.2,82.4c0.4,0.4,0.6,0.9,0.6,1.5s-0.2,1.1-0.6,1.5
	c-0.4,0.4-0.9,0.6-1.5,0.6c-0.6,0-1.1-0.2-1.5-0.6s-0.6-0.9-0.6-1.5s0.2-1.1,0.6-1.5s0.9-0.6,1.5-0.6
	C436.3,81.8,436.8,82,437.2,82.4z M437,83.9c0-0.4-0.1-0.6-0.4-0.9c-0.2-0.2-0.5-0.4-0.9-0.4c-0.3,0-0.6,0.1-0.9,0.4
	c-0.2,0.2-0.4,0.5-0.4,0.9s0.1,0.6,0.4,0.9c0.2,0.2,0.5,0.4,0.9,0.4c0.3,0,0.6-0.1,0.9-0.4C436.9,84.5,437,84.2,437,83.9z
	 M439.4,85.8h-0.8v-5.5h0.8v2.1c0.3-0.4,0.8-0.7,1.4-0.7c0.5,0,1,0.2,1.4,0.6s0.6,0.9,0.6,1.5c0,0.6-0.2,1.1-0.6,1.5
	s-0.8,0.6-1.4,0.6c-0.6,0-1-0.2-1.4-0.7V85.8z M439.4,83.9c0,0.4,0.1,0.7,0.4,0.9c0.2,0.2,0.5,0.4,0.9,0.4s0.6-0.1,0.9-0.4
	c0.2-0.2,0.4-0.5,0.4-0.9s-0.1-0.7-0.4-0.9c-0.2-0.2-0.5-0.4-0.9-0.4s-0.6,0.1-0.9,0.4C439.6,83.2,439.4,83.5,439.4,83.9z
	 M443.5,85.8h0.8v-5.7h-0.8V85.8z M447.3,85.9c-0.6,0-1.2-0.2-1.5-0.6c-0.4-0.4-0.6-0.9-0.6-1.5c0-0.6,0.2-1.1,0.6-1.5
	c0.4-0.4,0.9-0.6,1.5-0.6c0.6,0,1,0.2,1.4,0.6c0.4,0.4,0.6,0.9,0.6,1.5c0,0.1,0,0.2,0,0.4H446c0.1,0.6,0.6,0.9,1.3,0.9
	c0.4,0,0.8-0.2,1-0.5l0.7,0.4C448.6,85.7,448,85.9,447.3,85.9z M446,83.6h2.3c-0.1-0.6-0.6-1-1.1-1C446.6,82.6,446.1,83,446,83.6z
	 M450.7,83.7c0-0.7,0.4-1,0.9-1c0.5,0,0.7,0.3,0.7,0.9v2.4h0.8v-2.2c0-0.7,0.3-1,0.9-1c0.5,0,0.8,0.3,0.8,0.9v2.4h0.8v-2.4
	c0-1-0.6-1.6-1.5-1.6c-0.5,0-0.9,0.2-1.2,0.6c-0.2-0.4-0.6-0.6-1.1-0.6c-0.5,0-0.9,0.2-1.1,0.6v-0.5h-0.8v3.9h0.8V83.7z M460.2,85.1
	c-0.4,0.6-1,0.9-1.7,0.9c-0.6,0-1.2-0.2-1.5-0.6c-0.4-0.4-0.6-0.9-0.6-1.5c0-0.6,0.2-1.1,0.6-1.5c0.4-0.4,0.9-0.6,1.5-0.6
	c0.6,0,1,0.2,1.4,0.6c0.4,0.4,0.6,0.9,0.6,1.5c0,0.1,0,0.2,0,0.4h-3.1c0.1,0.6,0.6,0.9,1.3,0.9c0.4,0,0.8-0.2,1-0.5L460.2,85.1z
	 M457.2,83.6h2.3c-0.1-0.6-0.6-1-1.1-1C457.8,82.6,457.3,83,457.2,83.6z M389.6,96.5h1.8c-0.2,0.8-0.8,1.3-1.8,1.3
	c-0.6,0-1.1-0.2-1.5-0.6c-0.4-0.4-0.6-0.8-0.6-1.4c0-0.6,0.2-1,0.6-1.4c0.4-0.4,0.8-0.6,1.4-0.6c0.7,0,1.3,0.3,1.6,0.9l0.8-0.4
	c-0.5-0.8-1.4-1.3-2.4-1.3c-0.8,0-1.5,0.3-2.1,0.8c-0.5,0.5-0.8,1.2-0.8,2c0,0.8,0.3,1.5,0.8,2c0.6,0.5,1.3,0.8,2.1,0.8
	c0.8,0,1.4-0.2,1.9-0.7s0.7-1.1,0.7-1.8v-0.4h-2.7V96.5z M396.4,95.1c0.4,0.4,0.6,0.9,0.6,1.5c0,0.1,0,0.2,0,0.4h-3.1
	c0.1,0.6,0.6,0.9,1.3,0.9c0.4,0,0.8-0.2,1-0.5l0.7,0.4c-0.4,0.6-1,0.9-1.7,0.9c-0.6,0-1.2-0.2-1.5-0.6c-0.4-0.4-0.6-0.9-0.6-1.5
	c0-0.6,0.2-1.1,0.6-1.5c0.4-0.4,0.9-0.6,1.5-0.6C395.5,94.5,396,94.7,396.4,95.1z M396.1,96.2c-0.1-0.6-0.6-1-1.1-1
	c-0.6,0-1.1,0.4-1.2,1H396.1z M399,96.2c-0.4-0.1-0.7-0.2-0.7-0.5c0-0.3,0.2-0.4,0.6-0.4c0.4,0,0.6,0.1,0.7,0.4l0.7-0.4
	c-0.3-0.5-0.8-0.8-1.4-0.8c-0.4,0-0.8,0.1-1,0.3c-0.3,0.2-0.4,0.5-0.4,0.9c0,0.8,0.8,1.1,1.4,1.2c0.4,0.1,0.7,0.2,0.7,0.5
	c0,0.3-0.2,0.4-0.7,0.4s-0.7-0.2-0.9-0.6l-0.7,0.4c0.3,0.6,0.8,0.9,1.6,0.9c0.4,0,0.8-0.1,1.1-0.3c0.3-0.2,0.4-0.5,0.4-0.9
	C400.4,96.5,399.6,96.3,399,96.2z M402.8,97.8c-0.3,0-0.6-0.1-0.9-0.4c-0.2-0.2-0.3-0.5-0.3-0.9s0.1-0.6,0.3-0.9
	c0.2-0.2,0.5-0.4,0.9-0.4c0.5,0,0.8,0.2,1,0.6l0.7-0.4c-0.3-0.6-1-1-1.7-1c-0.6,0-1.1,0.2-1.5,0.6c-0.4,0.4-0.6,0.9-0.6,1.5
	c0,0.6,0.2,1.1,0.6,1.5c0.4,0.4,0.9,0.6,1.5,0.6c0.8,0,1.4-0.4,1.8-1l-0.7-0.4C403.7,97.5,403.3,97.8,402.8,97.8z M407.3,94.5
	c-0.6,0-1,0.2-1.2,0.6V93h-0.8v5.5h0.8v-2.1c0-0.8,0.4-1.1,1-1.1c0.5,0,0.9,0.3,0.9,0.9v2.3h0.8v-2.4
	C408.8,95.1,408.2,94.5,407.3,94.5z M409.7,98.5h0.8v-5.7h-0.8V98.5z M414.8,95.1c0.4,0.4,0.6,0.9,0.6,1.5s-0.2,1.1-0.6,1.5
	c-0.4,0.4-0.9,0.6-1.5,0.6c-0.6,0-1.1-0.2-1.5-0.6s-0.6-0.9-0.6-1.5s0.2-1.1,0.6-1.5s0.9-0.6,1.5-0.6
	C413.9,94.5,414.4,94.7,414.8,95.1z M414.6,96.5c0-0.4-0.1-0.6-0.4-0.9c-0.2-0.2-0.5-0.4-0.9-0.4c-0.3,0-0.6,0.1-0.9,0.4
	c-0.2,0.2-0.4,0.5-0.4,0.9s0.1,0.6,0.4,0.9c0.2,0.2,0.5,0.4,0.9,0.4c0.3,0,0.6-0.1,0.9-0.4C414.5,97.2,414.6,96.9,414.6,96.5z
	 M417.6,96.2c-0.4-0.1-0.7-0.2-0.7-0.5c0-0.3,0.3-0.4,0.6-0.4c0.4,0,0.6,0.1,0.7,0.4l0.7-0.4c-0.3-0.5-0.8-0.8-1.4-0.8
	c-0.4,0-0.8,0.1-1,0.3c-0.3,0.2-0.4,0.5-0.4,0.9c0,0.8,0.8,1.1,1.4,1.2c0.4,0.1,0.7,0.2,0.7,0.5c0,0.3-0.2,0.4-0.7,0.4
	s-0.7-0.2-0.9-0.6l-0.7,0.4c0.3,0.6,0.8,0.9,1.6,0.9c0.4,0,0.8-0.1,1.1-0.3c0.3-0.2,0.4-0.5,0.4-0.9C419,96.5,418.2,96.3,417.6,96.2
	z M421,96.2c-0.4-0.1-0.7-0.2-0.7-0.5c0-0.3,0.2-0.4,0.6-0.4c0.4,0,0.6,0.1,0.7,0.4l0.7-0.4c-0.3-0.5-0.8-0.8-1.4-0.8
	c-0.4,0-0.8,0.1-1,0.3c-0.3,0.2-0.4,0.5-0.4,0.9c0,0.8,0.8,1.1,1.4,1.2c0.4,0.1,0.7,0.2,0.7,0.5c0,0.3-0.2,0.4-0.7,0.4
	s-0.7-0.2-0.9-0.6l-0.7,0.4c0.3,0.6,0.8,0.9,1.6,0.9c0.4,0,0.8-0.1,1.1-0.3c0.3-0.2,0.4-0.5,0.4-0.9C422.4,96.5,421.6,96.3,421,96.2
	z M426.2,95.1c0.4,0.4,0.6,0.9,0.6,1.5c0,0.1,0,0.2,0,0.4h-3.1c0.1,0.6,0.6,0.9,1.3,0.9c0.4,0,0.8-0.2,1-0.5l0.7,0.4
	c-0.4,0.6-1,0.9-1.7,0.9c-0.6,0-1.2-0.2-1.5-0.6c-0.4-0.4-0.6-0.9-0.6-1.5c0-0.6,0.2-1.1,0.6-1.5c0.4-0.4,0.9-0.6,1.5-0.6
	C425.4,94.5,425.9,94.7,426.2,95.1z M425.9,96.2c-0.1-0.6-0.6-1-1.1-1c-0.6,0-1.1,0.4-1.2,1H425.9z M429.6,94.5
	c-0.6,0-1,0.2-1.2,0.6v-0.5h-0.8v3.9h0.8v-2.1c0-0.8,0.4-1.1,1-1.1c0.5,0,0.9,0.3,0.9,0.9v2.3h0.8v-2.4
	C431.1,95.1,430.5,94.5,429.6,94.5z M435.3,95.1c0.4,0.4,0.6,0.9,0.6,1.5c0,0.1,0,0.2,0,0.4h-3.1c0.1,0.6,0.6,0.9,1.3,0.9
	c0.4,0,0.8-0.2,1-0.5l0.7,0.4c-0.4,0.6-1,0.9-1.7,0.9c-0.6,0-1.2-0.2-1.5-0.6c-0.4-0.4-0.6-0.9-0.6-1.5c0-0.6,0.2-1.1,0.6-1.5
	c0.4-0.4,0.9-0.6,1.5-0.6C434.4,94.5,434.9,94.7,435.3,95.1z M435,96.2c-0.1-0.6-0.6-1-1.1-1c-0.6,0-1.1,0.4-1.2,1H435z M441.9,93.5
	c0.4,0.3,0.5,0.8,0.5,1.3s-0.2,0.9-0.5,1.3c-0.3,0.3-0.8,0.5-1.3,0.5h-1.1v1.9h-0.9V93h2C441.1,93,441.5,93.2,441.9,93.5z
	 M441.5,94.8c0-0.6-0.4-1-0.9-1h-1.1v1.9h1.1C441.1,95.8,441.5,95.4,441.5,94.8z M446.2,95.1c0.4,0.4,0.6,0.9,0.6,1.5
	s-0.2,1.1-0.6,1.5c-0.4,0.4-0.9,0.6-1.5,0.6c-0.6,0-1.1-0.2-1.5-0.6s-0.6-0.9-0.6-1.5s0.2-1.1,0.6-1.5s0.9-0.6,1.5-0.6
	C445.3,94.5,445.8,94.7,446.2,95.1z M445.9,96.5c0-0.4-0.1-0.6-0.4-0.9c-0.2-0.2-0.5-0.4-0.9-0.4c-0.3,0-0.6,0.1-0.9,0.4
	c-0.2,0.2-0.4,0.5-0.4,0.9s0.1,0.6,0.4,0.9c0.2,0.2,0.5,0.4,0.9,0.4c0.3,0,0.6-0.1,0.9-0.4C445.8,97.2,445.9,96.9,445.9,96.5z
	 M448.4,95.2v-0.7h-0.8v3.9h0.8v-2c0-0.4,0.1-0.7,0.4-0.9c0.2-0.2,0.5-0.3,0.8-0.2v-0.9C449,94.5,448.6,94.7,448.4,95.2z
	 M451.5,93.5l-0.8,0.2v0.8H450v0.8h0.7v1.9c0,1,0.5,1.4,1.8,1.2v-0.8c-0.6,0-1,0-1-0.5v-1.9h1v-0.8h-1V93.5z M453.3,94.5L453.3,94.5
	l-0.6,0.1v0.8h0.6v3.1h0.8v-3.1h0.9v-0.8h-0.9v-0.1c0-0.6,0.3-0.8,0.9-0.8v-0.8C454,92.8,453.3,93.4,453.3,94.5z M458.7,95.1
	c0.4,0.4,0.6,0.9,0.6,1.5s-0.2,1.1-0.6,1.5c-0.4,0.4-0.9,0.6-1.5,0.6c-0.6,0-1.1-0.2-1.5-0.6s-0.6-0.9-0.6-1.5s0.2-1.1,0.6-1.5
	s0.9-0.6,1.5-0.6C457.8,94.5,458.3,94.7,458.7,95.1z M458.5,96.5c0-0.4-0.1-0.6-0.4-0.9c-0.2-0.2-0.5-0.4-0.9-0.4
	c-0.3,0-0.6,0.1-0.9,0.4c-0.2,0.2-0.4,0.5-0.4,0.9s0.1,0.6,0.4,0.9c0.2,0.2,0.5,0.4,0.9,0.4c0.3,0,0.6-0.1,0.9-0.4
	C458.4,97.2,458.5,96.9,458.5,96.5z M460.1,98.5h0.8v-5.7h-0.8V98.5z M462,93.1c-0.2,0.2-0.2,0.5,0,0.8c0.2,0.2,0.5,0.2,0.8,0
	c0.2-0.2,0.2-0.5,0-0.8C462.5,92.9,462.2,92.9,462,93.1z M461.9,98.5h0.8v-3.9h-0.8V98.5z M467.1,95.1c0.4,0.4,0.6,0.9,0.6,1.5
	s-0.2,1.1-0.6,1.5c-0.4,0.4-0.9,0.6-1.5,0.6c-0.6,0-1.1-0.2-1.5-0.6s-0.6-0.9-0.6-1.5s0.2-1.1,0.6-1.5s0.9-0.6,1.5-0.6
	C466.2,94.5,466.7,94.7,467.1,95.1z M466.8,96.5c0-0.4-0.1-0.6-0.4-0.9c-0.2-0.2-0.5-0.4-0.9-0.4c-0.3,0-0.6,0.1-0.9,0.4
	c-0.2,0.2-0.4,0.5-0.4,0.9s0.1,0.6,0.4,0.9c0.2,0.2,0.5,0.4,0.9,0.4c0.3,0,0.6-0.1,0.9-0.4C466.7,97.2,466.8,96.9,466.8,96.5z"/>
</svg>
