<?xml version="1.0" encoding="utf-8"?>
<!-- Generator: Adobe Illustrator 22.0.1, SVG Export Plug-In . SVG Version: 6.00 Build 0)  -->
<svg version="1.1" id="Layer_4" xmlns="http://www.w3.org/2000/svg" xmlns:xlink="http://www.w3.org/1999/xlink" x="0px" y="0px"
	 viewBox="0 0 214.3 204.9" style="enable-background:new 0 0 214.3 204.9;" xml:space="preserve">
<style type="text/css">
	.st0{fill:#FFFFFF;}
	.st1{fill:#25258D;}
	.st2{fill:#ABB4BB;}
	.st3{fill:#464F56;}
</style>
<path class="st0" d="M210.5,203.9H13.2c-1.6,0-2.8-1.3-2.8-2.8v-99.5c0-1.6,1.3-2.8,2.8-2.8h197.4c1.6,0,2.8,1.3,2.8,2.8v99.5
	C213.3,202.7,212.1,203.9,210.5,203.9z"/>
<path class="st1" d="M210.5,204.9H13.2c-2.1,0-3.8-1.7-3.8-3.8v-99.5c0-2.1,1.7-3.8,3.8-3.8h197.3c2.1,0,3.8,1.7,3.8,3.8v99.5
	C214.3,203.2,212.6,204.9,210.5,204.9z M13.2,99.8c-1,0-1.8,0.8-1.8,1.8v99.5c0,1,0.8,1.8,1.8,1.8h197.3c1,0,1.8-0.8,1.8-1.8v-99.5
	c0-1-0.8-1.8-1.8-1.8H13.2z"/>
<path class="st0" d="M205.9,199.3H8.6c-1.6,0-2.8-1.3-2.8-2.8V96.9c0-1.6,1.3-2.8,2.8-2.8H206c1.6,0,2.8,1.3,2.8,2.8v99.5
	C208.7,198,207.5,199.3,205.9,199.3z"/>
<path class="st1" d="M205.9,200.3H8.6c-2.1,0-3.8-1.7-3.8-3.8V96.9c0-2.1,1.7-3.8,3.8-3.8h197.3c2.1,0,3.8,1.7,3.8,3.8v99.5
	C209.7,198.6,208,200.3,205.9,200.3z M8.6,95.1c-1,0-1.8,0.8-1.8,1.8v99.5c0,1,0.8,1.8,1.8,1.8h197.3c1,0,1.8-0.8,1.8-1.8V96.9
	c0-1-0.8-1.8-1.8-1.8H8.6z"/>
<path class="st1" d="M201.2,88.4H3.8c-2.1,0-3.8,1.7-3.8,3.8v99.5c0,2.1,1.7,3.8,3.8,3.8h197.3c2.1,0,3.8-1.7,3.8-3.8V92.3
	C205,90.2,203.3,88.4,201.2,88.4z"/>
<path class="st2" d="M58.2,79.5h2.5l-3.5,6l-3.5-6h2.5V61.8c0-0.6,0.4-1,1-1s1,0.4,1,1V79.5z M169.6,79.5V61.8c0-0.6-0.4-1-1-1
	s-1,0.4-1,1v17.8h-2.5l3.5,6l3.5-6L169.6,79.5L169.6,79.5z"/>
<path class="st0" d="M101.2,58.4h-88c-1.6,0-2.8-1.3-2.8-2.8V13.2c0-1.6,1.3-2.8,2.8-2.8h88.1c1.6,0,2.8,1.3,2.8,2.8v42.4
	C104.1,57.2,102.8,58.4,101.2,58.4z"/>
<path class="st3" d="M101.2,59.4h-88c-2.1,0-3.8-1.7-3.8-3.8V13.2c0-2.1,1.7-3.8,3.8-3.8h88.1c2.1,0,3.8,1.7,3.8,3.8v42.4
	C105.1,57.7,103.4,59.4,101.2,59.4z M13.2,11.3c-1,0-1.8,0.8-1.8,1.8v42.4c0,1,0.8,1.8,1.8,1.8h88.1c1,0,1.8-0.8,1.8-1.8V13.2
	c0-1-0.8-1.8-1.8-1.8L13.2,11.3L13.2,11.3z"/>
<path class="st0" d="M96.6,53.8h-88c-1.6,0-2.8-1.3-2.8-2.8V8.5c0-1.6,1.3-2.8,2.8-2.8h88.1c1.6,0,2.8,1.3,2.8,2.8v42.4
	C99.5,52.5,98.2,53.8,96.6,53.8z"/>
<path class="st3" d="M96.7,54.8H8.6c-2.1,0-3.8-1.7-3.8-3.8V8.5c0-2.1,1.7-3.8,3.8-3.8h88.1c2.1,0,3.8,1.7,3.8,3.8v42.4
	C100.5,53,98.8,54.8,96.7,54.8z M8.6,6.7c-1,0-1.8,0.8-1.8,1.8v42.4c0,1,0.8,1.8,1.8,1.8h88.1c1,0,1.8-0.8,1.8-1.8V8.5
	c0-1-0.8-1.8-1.8-1.8H8.6z"/>
<path class="st0" d="M91.9,49.1H3.8c-1.6,0-2.8-1.3-2.8-2.8V3.8C1,2.3,2.3,1,3.8,1h88.1c1.6,0,2.8,1.3,2.8,2.8v42.4
	C94.8,47.8,93.5,49.1,91.9,49.1z"/>
<path class="st3" d="M91.9,50.1H3.8c-2.1,0-3.8-1.7-3.8-3.8V3.8C0,1.7,1.7,0,3.8,0h88.1c2.1,0,3.8,1.7,3.8,3.8v42.4
	C95.8,48.4,94,50.1,91.9,50.1z M3.8,2C2.8,2,2,2.8,2,3.8v42.4c0,1,0.8,1.8,1.8,1.8h88.1c1,0,1.8-0.8,1.8-1.8V3.8
	c0-1-0.8-1.8-1.8-1.8H3.8z"/>
<path class="st0" d="M210.5,58.4h-83.9c-1.6,0-2.8-1.3-2.8-2.8V13.2c0-1.6,1.3-2.8,2.8-2.8h83.9c1.6,0,2.8,1.3,2.8,2.8v42.4
	C213.3,57.2,212.1,58.4,210.5,58.4z"/>
<path class="st3" d="M210.5,59.4h-83.9c-2.1,0-3.8-1.7-3.8-3.8V13.2c0-2.1,1.7-3.8,3.8-3.8h83.9c2.1,0,3.8,1.7,3.8,3.8v42.4
	C214.3,57.7,212.6,59.4,210.5,59.4z M126.6,11.3c-1,0-1.8,0.8-1.8,1.8v42.4c0,1,0.8,1.8,1.8,1.8h83.9c1,0,1.8-0.8,1.8-1.8V13.2
	c0-1-0.8-1.8-1.8-1.8L126.6,11.3L126.6,11.3z"/>
<path class="st0" d="M206.2,53.8h-83.9c-1.6,0-2.8-1.3-2.8-2.8V8.5c0-1.6,1.3-2.8,2.8-2.8h83.9c1.6,0,2.8,1.3,2.8,2.8v42.4
	C209,52.5,207.7,53.8,206.2,53.8z"/>
<path class="st3" d="M206.2,54.8h-83.9c-2.1,0-3.8-1.7-3.8-3.8V8.5c0-2.1,1.7-3.8,3.8-3.8h83.9c2.1,0,3.8,1.7,3.8,3.8v42.4
	C210,53,208.3,54.8,206.2,54.8z M122.3,6.7c-1,0-1.8,0.8-1.8,1.8v42.4c0,1,0.8,1.8,1.8,1.8h83.9c1,0,1.8-0.8,1.8-1.8V8.5
	c0-1-0.8-1.8-1.8-1.8H122.3z"/>
<path class="st0" d="M201.7,49.1h-83.9c-1.6,0-2.8-1.3-2.8-2.8V3.8c0-1.6,1.3-2.8,2.8-2.8h83.9c1.6,0,2.8,1.3,2.8,2.8v42.4
	C204.5,47.8,203.2,49.1,201.7,49.1z"/>
<path class="st3" d="M201.7,50.1h-83.9c-2.1,0-3.8-1.7-3.8-3.8V3.8c0-2.1,1.7-3.8,3.8-3.8h83.9c2.1,0,3.8,1.7,3.8,3.8v42.4
	C205.5,48.4,203.8,50.1,201.7,50.1z M117.8,2c-1,0-1.8,0.8-1.8,1.8v42.4c0,1,0.8,1.8,1.8,1.8h83.9c1,0,1.8-0.8,1.8-1.8V3.8
	c0-1-0.8-1.8-1.8-1.8H117.8z"/>
<path class="st3" d="M37.3,16.5v-0.7h-1.4v0.7c-1.7,0.2-2.8,1.2-2.8,2.6s1.1,2.4,2.8,2.6v0.7h1.4v-0.7c1.7-0.2,2.8-1.2,2.8-2.6
	S39,16.7,37.3,16.5z M35.9,20.4c-0.9-0.1-1.4-0.5-1.4-1.3c0-0.7,0.5-1.1,1.4-1.3V20.4z M37.3,20.4v-2.5c0.9,0.1,1.4,0.5,1.4,1.3
	C38.7,19.8,38.2,20.3,37.3,20.4z M42.9,17.6c-1.3,0-2.4,1-2.4,2.4c0,1.3,1.1,2.4,2.4,2.4s2.4-1,2.4-2.4
	C45.3,18.7,44.3,17.6,42.9,17.6z M42.9,21.1c-0.6,0-1-0.4-1-1.1c0-0.6,0.5-1.1,1-1.1s1,0.4,1,1.1C44,20.7,43.5,21.1,42.9,21.1z
	 M49,17.8h1.4v4.5H49v-1.6h-1.5v1.6h-1.4v-4.5h1.4v1.6H49V17.8z M52.2,22.3h2.5v1.2H56V21h-0.6v-3.2h-3.6v1.7c0,0.8-0.1,1.2-0.4,1.6
	h-0.6v2.5h1.3L52.2,22.3L52.2,22.3z M53.1,19.4V19h1v2h-1.3C53.1,20.6,53.1,20.1,53.1,19.4z M62.4,22.3H61v-4.5h1.4V22.3z
	 M58.8,19.1H58v-1.3h-1.4v4.5h2.1c1.1,0,1.8-0.6,1.8-1.6S59.9,19.1,58.8,19.1z M58.8,21.1H58v-0.8h0.8c0.3,0,0.4,0.2,0.4,0.4
	C59.3,20.9,59.1,21.1,58.8,21.1z M26.4,28.6h1v4.5h-1.3v-2.3l-1.9,2.3h-1v-4.5h1.3v2.2L26.4,28.6z M30.2,28.6h4.1v1.3H33v3.2h-1.4
	v-3.2h-1.4V28.6z M37.5,28.4c-0.6,0-1,0.2-1.3,0.5v-0.4h-1.4v6.3h1.4v-2.2c0.3,0.3,0.7,0.5,1.3,0.5c1.2,0,2.2-1,2.2-2.4
	C39.7,29.5,38.7,28.4,37.5,28.4z M37.3,31.9c-0.6,0-1.1-0.4-1.1-1.1s0.5-1.1,1.1-1.1s1.1,0.4,1.1,1.1C38.3,31.5,37.9,31.9,37.3,31.9
	z M42.6,28.4c-1.4,0-2.4,1-2.4,2.4c0,1.3,1,2.4,2.5,2.4c0.9,0,1.5-0.3,2-0.9l-1.1-0.6c-0.2,0.2-0.5,0.3-0.9,0.3
	c-0.5,0-0.9-0.2-1.1-0.6h3.2c0-0.2,0.1-0.4,0.1-0.5C44.9,29.5,43.9,28.4,42.6,28.4z M41.6,30.3c0.1-0.5,0.5-0.7,1-0.7
	c0.4,0,0.8,0.2,1,0.7H41.6z M49.1,28h-2.7v-1.2h2.7V28z M48.9,28.6h1v4.5h-1.3v-2.3l-1.9,2.3h-1v-4.5H47v2.2L48.9,28.6z M55,28.6
	h-3.6v1.7c0,0.8-0.1,1.2-0.4,1.6h-0.6v2.5h1.3v-1.2h2.5v1.2h1.3v-2.5H55V28.6z M53.7,31.8h-1.3c0.2-0.4,0.3-0.9,0.3-1.6v-0.5h1V31.8
	z M58.3,28.4c-1.4,0-2.4,1-2.4,2.4c0,1.3,1,2.4,2.5,2.4c0.9,0,1.5-0.3,2-0.9l-1.1-0.6c-0.2,0.2-0.5,0.3-0.9,0.3
	c-0.5,0-0.9-0.2-1.1-0.6h3.2c0-0.2,0.1-0.4,0.1-0.5C60.6,29.5,59.6,28.4,58.3,28.4z M57.3,30.3c0.1-0.5,0.5-0.7,1-0.7
	c0.4,0,0.8,0.2,1,0.7H57.3z M64,28.4c-0.6,0-1,0.2-1.3,0.5v-0.4h-1.4v6.3h1.4v-2.2c0.3,0.3,0.7,0.5,1.3,0.5c1.2,0,2.2-1,2.2-2.4
	C66.2,29.5,65.2,28.4,64,28.4z M63.8,31.9c-0.6,0-1.1-0.4-1.1-1.1s0.5-1.1,1.1-1.1c0.6,0,1.1,0.4,1.1,1.1
	C64.8,31.5,64.4,31.9,63.8,31.9z M71.3,28.6h1.4v4.5h-1.4V28.6z M69.1,29.9h-0.8v-1.3h-1.4v4.5H69c1.1,0,1.8-0.6,1.8-1.6
	S70.1,29.9,69.1,29.9z M69.1,31.9h-0.8v-0.8h0.8c0.3,0,0.4,0.2,0.4,0.4C69.5,31.7,69.3,31.9,69.1,31.9z M140.4,21.4h1.1v6.3h-1.4
	v-3.4l-2.4,3.4h-1.1v-6.3h1.4v3.4L140.4,21.4z M145.4,23.2h1.4v4.5h-1.4V26h-1.5v1.6h-1.4v-4.5h1.4v1.6h1.5V23.2z M151.1,25.4
	c0.3-0.2,0.4-0.5,0.4-0.9c0-0.7-0.5-1.3-1.5-1.3h-2.3v4.5h2.4c1,0,1.5-0.5,1.5-1.3C151.7,25.9,151.5,25.6,151.1,25.4z M149,24.2h0.8
	c0.2,0,0.4,0.1,0.4,0.3c0,0.2-0.2,0.3-0.4,0.3H149V24.2z M150,26.5h-1v-0.6h1c0.2,0,0.4,0.1,0.4,0.3C150.4,26.4,150.3,26.5,150,26.5
	z M154.6,23c-1.4,0-2.4,1-2.4,2.4c0,1.3,1,2.4,2.5,2.4c0.9,0,1.5-0.3,2-0.9l-1.1-0.6c-0.2,0.2-0.5,0.3-0.9,0.3
	c-0.5,0-0.9-0.2-1.1-0.6h3.2c0-0.2,0.1-0.4,0.1-0.5C156.9,24.1,155.9,23,154.6,23z M153.6,24.9c0.1-0.5,0.5-0.7,1-0.7
	c0.4,0,0.8,0.2,1,0.7H153.6z M158.7,25.4c0,0.6,0.4,1,1,1c0.4,0,0.7-0.2,0.9-0.5l1.2,0.7c-0.4,0.7-1.2,1.2-2,1.2
	c-1.4,0-2.4-1-2.4-2.4c0-1.3,1-2.4,2.4-2.4c0.9,0,1.6,0.5,2,1.2l-1.2,0.7c-0.2-0.3-0.5-0.5-0.9-0.5
	C159.1,24.4,158.7,24.8,158.7,25.4z M161.9,23.2h4.1v1.3h-1.3v3.2h-1.4v-3.2h-1.4L161.9,23.2L161.9,23.2z M168.5,23
	c-1.3,0-2.4,1-2.4,2.4c0,1.3,1.1,2.4,2.4,2.4c1.3,0,2.4-1,2.4-2.4C170.9,24.1,169.9,23,168.5,23z M168.5,26.5c-0.6,0-1-0.4-1-1.1
	c0-0.6,0.5-1.1,1-1.1c0.6,0,1,0.4,1,1.1C169.6,26.1,169.1,26.5,168.5,26.5z M174.4,23c-0.6,0-1,0.2-1.3,0.5v-0.4h-1.4v6.3h1.4v-2.2
	c0.3,0.3,0.7,0.5,1.3,0.5c1.2,0,2.2-1,2.2-2.4C176.5,24.1,175.6,23,174.4,23z M174.1,26.5c-0.6,0-1.1-0.4-1.1-1.1s0.5-1.1,1.1-1.1
	s1.1,0.4,1.1,1.1C175.2,26.1,174.7,26.5,174.1,26.5z M183,23.2v4.5h-1.4v-4.5H183z M179.4,24.5h-0.8v-1.3h-1.4v4.5h2.1
	c1.1,0,1.8-0.6,1.8-1.6S180.5,24.5,179.4,24.5z M179.4,26.5h-0.8v-0.8h0.8c0.3,0,0.4,0.2,0.4,0.4C179.9,26.3,179.7,26.5,179.4,26.5z
	"/>
<path class="st0" d="M139.1,135.4c0-1.5-1.2-2.6-2.6-2.6s-2.6,1.1-2.6,2.6s1.2,2.6,2.6,2.6C137.9,138,139.1,136.9,139.1,135.4z
	 M135.4,135.4c0-0.7,0.5-1.2,1.1-1.2c0.6,0,1.1,0.5,1.1,1.2s-0.5,1.2-1.1,1.2C135.9,136.6,135.4,136.1,135.4,135.4z M120.7,119v1.8
	h1.7V119h1.5v4.9h-1.5v-1.8h-1.7v1.8h-1.5V119H120.7z M116.4,133v6.9h1.5v-2.4c0.4,0.4,0.8,0.6,1.5,0.6c1.2,0,2.3-1.1,2.3-2.6
	s-1-2.6-2.3-2.6c-0.7,0-1.2,0.2-1.5,0.6V133H116.4z M119.1,134.2c0.7,0,1.2,0.5,1.2,1.2s-0.5,1.2-1.2,1.2c-0.7,0-1.2-0.5-1.2-1.2
	S118.4,134.2,119.1,134.2z M130.9,134.4h-1.5V133h4.4v1.4h-1.5v3.5h-1.4V134.4z M126.7,136.2c0-1-0.7-1.7-1.9-1.7H124V133h-1.5v4.9
	h2.3C126,137.9,126.7,137.2,126.7,136.2z M124,135.8h0.8c0.3,0,0.5,0.1,0.5,0.4c0,0.2-0.2,0.4-0.5,0.4H124V135.8z M110.4,118.9
	c-0.7,0-1.2,0.2-1.5,0.6V119h-1.5v6.8h1.5v-2.4c0.4,0.4,0.8,0.6,1.5,0.6c1.2,0,2.3-1.1,2.3-2.6C112.7,120,111.7,118.9,110.4,118.9z
	 M110.1,122.6c-0.7,0-1.2-0.5-1.2-1.2s0.5-1.2,1.2-1.2c0.7,0,1.2,0.5,1.2,1.2C111.3,122.2,110.8,122.6,110.1,122.6z M113,109.8v-1.4
	c0.5,0.1,0.7-0.1,0.7-0.8V105h4v4.9h-1.5v-3.5h-1.1v1.5C115.2,109.3,114.5,110,113,109.8z M112.9,133v2.2l1.5-2.1h1.7l-1.8,2.4
	l1.8,2.4h-1.7l-1.6-2.2v2.2h-1.5V133H112.9z M142.6,121.4c0-1.5-1.1-2.6-2.5-2.6c-1.5,0-2.6,1.1-2.6,2.6s1,2.6,2.7,2.6
	c0.9,0,1.6-0.3,2.1-1l-1.2-0.7c-0.2,0.2-0.5,0.4-0.9,0.4c-0.6,0-1-0.2-1.2-0.7h3.5C142.6,121.8,142.6,121.6,142.6,121.4z M139,120.9
	c0.2-0.5,0.5-0.8,1.1-0.8c0.4,0,0.8,0.2,1,0.8H139z M109.5,110c0.7,0,1.1-0.2,1.5-0.6v0.5h1.5V105h-1.5v0.5
	c-0.3-0.4-0.8-0.6-1.5-0.6c-1.3,0-2.3,1.1-2.3,2.6S108.2,110,109.5,110z M109.8,106.2c0.7,0,1.2,0.5,1.2,1.2s-0.5,1.2-1.2,1.2
	s-1.2-0.5-1.2-1.2S109.1,106.2,109.8,106.2z M120.3,108.1h0.6c0.3,1.1,1.3,1.9,2.5,1.9c1.4,0,2.6-1.1,2.6-2.6s-1.2-2.6-2.6-2.6
	c-1.2,0-2.2,0.8-2.5,1.9h-0.6V105h-1.5v4.9h1.5V108.1z M123.3,106.2c0.6,0,1.1,0.5,1.1,1.2s-0.5,1.2-1.1,1.2s-1.1-0.5-1.1-1.2
	S122.7,106.2,123.3,106.2z M104.3,124c0.9,0,1.6-0.3,2.1-1l-1.2-0.7c-0.2,0.2-0.5,0.4-0.9,0.4c-0.6,0-1-0.2-1.2-0.7h3.5
	c0.1-0.2,0.1-0.4,0.1-0.6c0-1.5-1.1-2.6-2.5-2.6c-1.5,0-2.6,1.1-2.6,2.6S102.6,124,104.3,124z M104.2,120.1c0.4,0,0.8,0.2,1,0.8
	h-2.1C103.2,120.4,103.6,120.1,104.2,120.1z M106.7,108.4c0-0.5-0.2-0.9-0.7-1.1c0.3-0.2,0.5-0.6,0.5-1c0-0.8-0.6-1.4-1.7-1.4h-2.4
	v4.9h2.6C106.1,109.8,106.7,109.2,106.7,108.4z M103.7,106.1h0.9c0.3,0,0.4,0.1,0.4,0.4c0,0.2-0.2,0.3-0.4,0.3h-0.9V106.1z
	 M103.7,108.6v-0.7h1.1c0.3,0,0.4,0.1,0.4,0.3c0,0.2-0.2,0.4-0.4,0.4H103.7z M115.9,118.9c-1.5,0-2.6,1.1-2.6,2.6s1,2.6,2.7,2.6
	c0.9,0,1.6-0.3,2.1-1l-1.2-0.7c-0.2,0.2-0.5,0.4-0.9,0.4c-0.6,0-1-0.2-1.2-0.7h3.5c0.1-0.2,0.1-0.4,0.1-0.6
	C118.4,120,117.3,118.9,115.9,118.9z M114.8,120.9c0.2-0.5,0.5-0.8,1.1-0.8c0.4,0,0.9,0.3,1,0.8H114.8z M127.6,106.4h-1.5V105h4.4
	v1.4H129v3.5h-1.5V106.4z M135.2,119h1.5v4.9h-1.5V119z M142.9,109.8h-1.5V105h1.5V109.8z M141,108.1c0-1-0.7-1.7-1.9-1.7h-0.8V105
	h-1.5v4.9h2.3C140.3,109.8,141,109.2,141,108.1z M138.3,107.7h0.8c0.3,0,0.5,0.2,0.5,0.4c0,0.3-0.2,0.4-0.5,0.4h-0.8V107.7z
	 M134.7,122.2c0-1-0.7-1.7-1.9-1.7H132V119h-1.5v4.9h2.3C134,123.9,134.7,123.2,134.7,122.2z M132,121.8h0.8c0.3,0,0.5,0.1,0.5,0.4
	c0,0.2-0.2,0.4-0.5,0.4H132V121.8z M132.6,109.8h-1.5V105h1.5v1.8h1.7V105h1.5v4.9h-1.5v-1.8h-1.7V109.8z M145.1,109.8H144V105h1.4
	v2.4l2.1-2.4h1.1v4.9h-1.4v-2.4L145.1,109.8z M167.2,164.5c0-0.5-0.3-0.9-0.7-1.1c0.3-0.2,0.5-0.6,0.5-1c0-0.8-0.6-1.4-1.7-1.4h-2.4
	v4.9h2.6C166.6,165.9,167.1,165.3,167.2,164.5z M164.2,162.1h0.9c0.2,0,0.4,0.2,0.4,0.4c0,0.2-0.1,0.3-0.4,0.3h-0.9V162.1z
	 M164.2,164.7V164h1.1c0.2,0,0.4,0.1,0.4,0.3c0,0.3-0.1,0.4-0.4,0.4H164.2z M177.6,137.9v-1.8h-1.7v1.8h-1.5V133h1.5v1.8h1.7V133
	h1.5v4.9H177.6z M175.8,118.9c-1.5,0-2.6,1.1-2.6,2.6s1,2.6,2.7,2.6c0.9,0,1.6-0.3,2.1-1l-1.2-0.7c-0.2,0.2-0.5,0.4-0.9,0.4
	c-0.6,0-1-0.2-1.2-0.7h3.5c0.1-0.2,0.1-0.4,0.1-0.6C178.3,120,177.2,118.9,175.8,118.9z M174.8,120.9c0.1-0.5,0.5-0.8,1.1-0.8
	c0.4,0,0.8,0.2,1,0.8H174.8z M168.4,119v1.8c0,0.9-0.2,1.3-0.4,1.7h-0.6v2.7h1.4v-1.3h2.7v1.3h1.4v-2.7h-0.6V119H168.4z
	 M170.9,122.5h-1.4c0.2-0.5,0.3-1,0.3-1.7v-0.5h1.1V122.5z M166.2,133.4c-0.4-0.4-0.8-0.6-1.5-0.6c-1.2,0-2.3,1.1-2.3,2.6
	s1,2.6,2.3,2.6c0.7,0,1.2-0.2,1.5-0.6v0.5h1.5V133h-1.5V133.4z M165,136.6c-0.7,0-1.2-0.5-1.2-1.2s0.5-1.2,1.2-1.2s1.2,0.5,1.2,1.2
	C166.2,136.2,165.7,136.6,165,136.6z M174,165.9h-1.5V161h1.5V165.9z M184.2,136.2c0-1-0.7-1.7-1.9-1.7h-0.8V133H180v4.9h2.3
	C183.5,137.9,184.2,137.2,184.2,136.2z M181.5,135.8h0.8c0.3,0,0.5,0.1,0.5,0.4c0,0.2-0.2,0.4-0.5,0.4h-0.8V135.8z M181.8,148.4
	h-1.5V147h4.4v1.4h-1.5v3.5h-1.4V148.4z M163.5,152c0.7,0,1.2-0.2,1.5-0.6v0.5h1.5V147H165v0.4c-0.4-0.4-0.8-0.6-1.5-0.6
	c-1.2,0-2.3,1.1-2.3,2.6S162.2,152,163.5,152z M163.8,148.2c0.7,0,1.2,0.5,1.2,1.2c0,0.8-0.5,1.2-1.2,1.2c-0.7,0-1.2-0.5-1.2-1.2
	S163.1,148.2,163.8,148.2z M180.6,123.5c0.4,0.4,0.8,0.6,1.5,0.6c1.2,0,2.3-1.1,2.3-2.6s-1-2.6-2.3-2.6c-0.7,0-1.2,0.2-1.5,0.6V119
	h-1.5v6.9h1.5V123.5z M181.8,120.2c0.7,0,1.2,0.5,1.2,1.2s-0.5,1.2-1.2,1.2c-0.7,0-1.2-0.5-1.2-1.2S181.1,120.2,181.8,120.2z
	 M174.3,150.2h0.6c0.3,1.1,1.3,1.9,2.5,1.9c1.4,0,2.6-1.1,2.6-2.6s-1.2-2.6-2.6-2.6c-1.2,0-2.2,0.8-2.5,1.9h-0.6V147h-1.5v4.9h1.5
	V150.2z M177.4,148.2c0.6,0,1.1,0.5,1.1,1.2s-0.5,1.2-1.1,1.2c-0.6,0-1.1-0.5-1.1-1.2S176.8,148.2,177.4,148.2z M189.9,119h1.5v4.9
	h-1.5V119z M185.2,119v4.9h2.3c1.2,0,1.9-0.7,1.9-1.7s-0.7-1.7-1.9-1.7h-0.8V119H185.2z M187.5,121.8c0.3,0,0.5,0.1,0.5,0.4
	c0,0.2-0.2,0.4-0.5,0.4h-0.8v-0.8H187.5z M185.2,147v4.9h2.3c1.2,0,1.9-0.7,1.9-1.7s-0.7-1.7-1.9-1.7h-0.8V147H185.2z M187.5,149.8
	c0.3,0,0.5,0.1,0.5,0.4c0,0.2-0.2,0.4-0.5,0.4h-0.8v-0.8H187.5z M187.8,161.5V161h-1.5v6.8h1.5v-2.4c0.4,0.4,0.8,0.6,1.5,0.6
	c1.2,0,2.3-1.1,2.3-2.6s-1-2.6-2.3-2.6C188.6,160.8,188.2,161.1,187.8,161.5z M190.2,163.4c0,0.7-0.5,1.2-1.2,1.2s-1.2-0.5-1.2-1.2
	s0.5-1.2,1.2-1.2S190.2,162.7,190.2,163.4z M188.9,109.8h-1.5V105h1.5v2.1l1.5-2.1h1.7l-1.8,2.4l1.8,2.4h-1.7l-1.6-2.2V109.8z
	 M183,166c1.4,0,2.6-1.1,2.6-2.6s-1.2-2.6-2.6-2.6s-2.6,1.1-2.6,2.6S181.5,166,183,166z M182.9,162.2c0.6,0,1.1,0.5,1.1,1.2
	s-0.5,1.2-1.1,1.2c-0.6,0-1.1-0.5-1.1-1.2S182.3,162.2,182.9,162.2z M171.9,137.9v-1.8h-1.7v1.8h-1.5V133h1.5v1.8h1.7V133h1.5v4.9
	H171.9z M162.1,139.2v-2.7h-0.6V133h-3.9v1.8c0,0.9-0.2,1.3-0.4,1.7h-0.6v2.7h1.4v-1.3h2.7v1.3H162.1z M160.1,136.5h-1.4
	c0.2-0.5,0.3-1,0.3-1.7v-0.5h1.1V136.5z M170.4,152v-3.5h-1.1v1.5c0,1.5-0.8,2.2-2.2,2v-1.4c0.5,0.1,0.7-0.2,0.7-0.8V147h4v4.9v0.1
	H170.4z M161.4,121.4c0-1.5-1.1-2.6-2.5-2.6c-1.5,0-2.6,1.1-2.6,2.6s1,2.6,2.7,2.6c0.9,0,1.6-0.3,2.1-1l-1.2-0.7
	c-0.2,0.2-0.5,0.4-0.9,0.4c-0.6,0-1-0.2-1.2-0.7h3.5C161.3,121.8,161.3,121.6,161.4,121.4z M157.8,120.9c0.2-0.5,0.5-0.8,1.1-0.8
	c0.4,0,0.8,0.2,1,0.8H157.8z M191.4,151.9h-1.5V147h1.5V151.9z M184.2,110c0.9,0,1.6-0.3,2.1-1l-1.2-0.7c-0.2,0.2-0.5,0.4-0.9,0.4
	c-0.5,0-1-0.2-1.2-0.7h3.5c0-0.2,0.1-0.4,0.1-0.6c0-1.5-1.1-2.6-2.5-2.6c-1.5,0-2.6,1.1-2.6,2.6S182.6,110,184.2,110z M184.1,106.1
	c0.4,0,0.9,0.2,1,0.8H183C183.2,106.4,183.5,106.1,184.1,106.1z M186.2,137.9h-1.5V133h1.5V137.9z M149.1,134.4h-1.5v3.5h-1.5v-3.5
	h-1.5V133h4.4h0.1V134.4z M147.3,151.9h-1.5V147h1.5V151.9z M145.5,119h4.4v1.4h-1.5v3.5h-1.5v-3.5h-1.4V119z M148.6,161.1l-1.8,2.4
	l1.8,2.4h-1.7l-1.6-2.2v2.2h-1.5V161h1.5v2.1l1.5-2.1v0.1H148.6z M129.5,123.9H128v-1.8h-1.7v1.8h-1.5V119h1.5v1.8h1.7V119h1.5
	V123.9z M127.2,133h1.5v4.9h-1.5V133z M141.2,135.5c0,0.6,0.5,1.1,1.1,1.1c0.4,0,0.7-0.2,0.9-0.5l1.3,0.7c-0.4,0.8-1.2,1.3-2.2,1.3
	c-1.5,0-2.6-1.1-2.6-2.6s1.1-2.6,2.6-2.6c0.9,0,1.8,0.4,2.2,1.2l-1.3,0.7c-0.1-0.3-0.5-0.5-0.9-0.5
	C141.6,134.3,141.2,134.9,141.2,135.5z M149.6,133v4.9h2.3c1.2,0,1.9-0.7,1.9-1.7s-0.7-1.7-1.9-1.7h-0.8V133H149.6z M151.9,135.8
	c0.3,0,0.5,0.1,0.5,0.4c0,0.2-0.2,0.4-0.5,0.4h-0.8v-0.8H151.9z M138.7,151.9v-1.8H137v1.8h-1.5V147h1.5v1.8h1.6V147h1.5v4.9H138.7z
	 M132,151.9v-3.5h-1.5V147h4.4v1.4h-1.5v3.5H132z M147.8,104.4h-2.9v-1.3h2.9V104.4z M173.4,110c0.9,0,1.6-0.3,2.1-1l-1.2-0.7
	c-0.2,0.2-0.5,0.4-0.9,0.4c-0.5,0-1-0.2-1.2-0.7h3.5c0-0.2,0.1-0.4,0.1-0.6c0-1.5-1.1-2.6-2.5-2.6c-1.5,0-2.6,1.1-2.6,2.6
	S171.8,110,173.4,110z M173.3,106.1c0.4,0,0.9,0.2,1,0.8h-2.1C172.4,106.4,172.8,106.1,173.3,106.1z M169.9,109.8h-7.1V105h1.5v3.5
	h1.4V105h1.5v3.5h1.4V105h1.5V109.8z M176,109.8v-1.4c0.5,0.1,0.7-0.1,0.7-0.8V105h4v4.9h-1.5v-3.5h-1.1v1.5
	C178.2,109.3,177.4,110,176,109.8z M122.4,151.9v-2.4l-2.1,2.4h-1.1V147h1.4v2.4l2.1-2.4h1.1v4.9H122.4z M163,118.4v-1.3h2.9v1.3
	H163z M163.2,123.9h-1.1V119h1.4v2.4l2.1-2.4h1.1v4.8h-1.4v-2.4L163.2,123.9z M151.9,123.5c0.4,0.4,0.8,0.6,1.5,0.6
	c1.2,0,2.3-1.1,2.3-2.6s-1-2.6-2.3-2.6c-0.7,0-1.2,0.2-1.5,0.6V119h-1.5v6.8h1.5V123.5z M153.1,120.2c0.7,0,1.2,0.5,1.2,1.2
	s-0.5,1.2-1.2,1.2c-0.7,0-1.2-0.5-1.2-1.2S152.4,120.2,153.1,120.2z M153.6,109.8h-1.5V105h1.5v2.1l1.5-2.1h1.7l-1.8,2.4l1.8,2.4
	h-1.7l-1.6-2.2V109.8z M159.4,110c1.4,0,2.6-1.1,2.6-2.6s-1.2-2.6-2.6-2.6s-2.6,1.1-2.6,2.6S157.9,110,159.4,110z M159.4,106.2
	c0.6,0,1.1,0.5,1.1,1.2s-0.5,1.2-1.1,1.2s-1.1-0.5-1.1-1.2S158.7,106.2,159.4,106.2z M155.6,159.1h2.9v1.3h-2.9V159.1z M15.2,121.6
	h1c1.4,0,2.4-1,2.4-2.3c0-1.3-1.1-2.3-2.4-2.3h-2.6v6.9h1.6V121.6z M15.2,118.5h1c0.4,0,0.8,0.4,0.8,0.9s-0.3,0.9-0.8,0.9h-1V118.5z
	 M80.3,175l-1.6,2.4l1.6,2.4h-1.6l-1.3-2.1v2.1H76v-2.1l-1.3,2.1h-1.6l1.6-2.4l-1.5-2.4h1.6l1.2,2.1V175h1.5v2.1l1.2-2.1H80.3z
	 M95.4,175h1.5v4.9h-1.5v-1.8h-1.7v1.8h-1.5V175h1.5v1.7h1.7V175z M59.7,174.8c-1.4,0-2.6,1.1-2.6,2.6s1.2,2.6,2.6,2.6
	c1.4,0,2.6-1.1,2.6-2.6C62.3,176,61.1,174.8,59.7,174.8z M59.7,178.6c-0.6,0-1.1-0.5-1.1-1.2s0.5-1.2,1.1-1.2c0.6,0,1.1,0.5,1.1,1.2
	S60.3,178.6,59.7,178.6z M85.5,175h-3.9v1.8c0,0.9-0.2,1.3-0.4,1.7h-0.6v2.7H82v-1.3h2.7v1.3h1.4v-2.7h-0.6V175z M84.1,178.5h-1.4
	c0.2-0.5,0.3-1,0.3-1.7v-0.5h1.1V178.5z M70.4,174.8c-1.4,0-2.6,1.1-2.6,2.6s1.2,2.6,2.6,2.6c1.4,0,2.6-1.1,2.6-2.6
	C73,176,71.8,174.8,70.4,174.8z M70.5,178.6c-0.6,0-1.1-0.5-1.1-1.2s0.5-1.2,1.1-1.2s1.1,0.5,1.1,1.2S71.1,178.6,70.5,178.6z
	 M66.7,177.4c0.3-0.2,0.5-0.6,0.5-1c0-0.8-0.6-1.4-1.7-1.4h-2.4v4.9h2.6c1.1,0,1.7-0.6,1.7-1.4C67.4,178,67.2,177.6,66.7,177.4z
	 M64.5,176.1h0.9c0.2,0,0.4,0.2,0.4,0.4c0,0.2-0.1,0.3-0.4,0.3h-0.9V176.1z M65.6,178.7h-1.1V178h1.1c0.2,0,0.4,0.1,0.4,0.3
	C66,178.5,65.8,178.7,65.6,178.7z M89.1,174.8c-1.5,0-2.6,1.1-2.6,2.6s1,2.6,2.7,2.6c0.9,0,1.6-0.3,2.1-1l-1.2-0.7
	c-0.2,0.2-0.5,0.4-0.9,0.4c-0.6,0-1-0.2-1.2-0.7h3.4c0.1-0.2,0.1-0.4,0.1-0.6C91.5,175.9,90.4,174.8,89.1,174.8z M87.9,176.9
	c0.2-0.5,0.5-0.8,1.1-0.8c0.4,0,0.8,0.2,1,0.8H87.9z M106.3,133h4.4v1.4h-1.5v3.5h-1.5v-3.5h-1.4V133z M118.5,148.5
	c0-1.5-1.2-2.6-3.1-2.8v-0.8h-1.5v0.8c-1.9,0.2-3.1,1.3-3.1,2.8s1.2,2.6,3.1,2.8v0.8h1.5v-0.8C117.2,151,118.4,150,118.5,148.5z
	 M113.9,149.9c-1-0.2-1.5-0.6-1.5-1.4c0-0.8,0.5-1.3,1.5-1.4V149.9z M115.4,149.7V147c1,0.2,1.5,0.6,1.5,1.4
	S116.4,149.7,115.4,149.7z M106,174.8c-1.5,0-2.6,1.1-2.6,2.6s1,2.6,2.7,2.6c0.9,0,1.6-0.3,2.1-1l-1.2-0.7c-0.2,0.2-0.5,0.4-0.9,0.4
	c-0.6,0-1-0.2-1.2-0.7h3.5c0.1-0.2,0.1-0.4,0.1-0.6C108.5,175.9,107.4,174.8,106,174.8z M104.9,176.9c0.2-0.5,0.5-0.8,1.1-0.8
	c0.4,0,0.8,0.2,1,0.8H104.9z M101.5,175h1.1v4.9h-1.4v-2.4l-2.1,2.4H98V175h1.4v2.4L101.5,175z M95.5,161H97v4.9h-1.4h-0.1V161z
	 M24.4,163.4l-1.1,1.7h-0.2l-1.1-1.7v2.5h-1.4V161H22l1.2,1.8l1.2-1.8h1.4v4.9h-1.4V163.4z M30.4,161.4c-0.4-0.4-0.8-0.6-1.5-0.6
	c-1.2,0-2.3,1.1-2.3,2.6s1,2.6,2.3,2.6c0.7,0,1.2-0.2,1.5-0.6v0.5h1.5V161h-1.5V161.4z M29.2,164.6c-0.7,0-1.2-0.5-1.2-1.2
	s0.5-1.2,1.2-1.2s1.2,0.5,1.2,1.2C30.4,164.2,29.9,164.6,29.2,164.6z M31.4,179c0,0.5-0.4,0.9-0.9,0.9s-0.9-0.4-0.9-0.9
	s0.4-0.9,0.9-0.9S31.4,178.5,31.4,179z M26.9,174.9c-0.7,0-1.2,0.2-1.5,0.6V175h-1.5v6.8h1.5v-2.4c0.4,0.4,0.8,0.6,1.5,0.6
	c1.2,0,2.3-1.1,2.3-2.6C29.2,176,28.1,174.8,26.9,174.9z M26.5,178.6c-0.7,0-1.2-0.5-1.2-1.2s0.5-1.2,1.2-1.2s1.2,0.5,1.2,1.2
	C27.7,178.2,27.2,178.6,26.5,178.6z M99.2,119h-2.4v4.9h2.6c1.1,0,1.7-0.6,1.7-1.4c0-0.5-0.3-0.9-0.7-1.1c0.3-0.3,0.5-0.6,0.5-1
	C100.9,119.6,100.3,119,99.2,119z M98.2,120.1h0.9c0.2,0,0.4,0.2,0.4,0.4c0,0.2-0.1,0.3-0.4,0.3h-0.9V120.1z M99.3,122.7h-1.1V122
	h1.1c0.2,0,0.4,0.1,0.4,0.3C99.7,122.5,99.5,122.7,99.3,122.7z M19.5,172.9c-1.7,0-3,1.1-3.4,2.7h-0.9V173h-1.6v6.8h1.6V177h0.9
	c0.3,1.7,1.8,2.9,3.5,2.9c1.9,0,3.5-1.5,3.5-3.5S21.5,172.9,19.5,172.9z M19.6,178.4c-1.1,0-2-0.8-2-2s0.9-2,2-2c1.1,0,2,0.8,2,2
	C21.6,177.7,20.7,178.5,19.6,178.4z M52.8,165.9h-1.7l-1.6-2.2v2.2H48V161h1.5v2.1L51,161h1.7l-1.8,2.4L52.8,165.9z M45.7,175h4.6
	v4.9h-1.5v-3.5h-1.7v3.5h-1.4V175z M38.2,163.5c0-1.5-1-2.6-2.3-2.6c-0.7,0-1.2,0.2-1.5,0.6V161h-1.5v6.8h1.5v-2.4
	c0.4,0.4,0.8,0.6,1.5,0.6C37.1,166,38.2,165,38.2,163.5z M34.4,163.4c0-0.7,0.5-1.2,1.2-1.2c0.7,0,1.2,0.5,1.2,1.2s-0.5,1.2-1.2,1.2
	C34.9,164.6,34.4,164.1,34.4,163.4z M54.2,174.9c-0.7,0-1.2,0.2-1.5,0.6V175h-1.5v6.8h1.5v-2.4c0.4,0.4,0.8,0.6,1.5,0.6
	c1.2,0,2.3-1.1,2.3-2.6C56.5,176,55.5,174.8,54.2,174.9z M53.8,178.6c-0.7,0-1.2-0.5-1.2-1.2s0.5-1.2,1.2-1.2s1.2,0.5,1.2,1.2
	C55,178.2,54.5,178.6,53.8,178.6z M42.2,174.8c-1.4,0-2.6,1.1-2.6,2.6s1.2,2.6,2.6,2.6c1.4,0,2.6-1.1,2.6-2.6
	C44.8,176,43.6,174.8,42.2,174.8z M42.2,178.6c-0.6,0-1.1-0.5-1.1-1.2s0.5-1.2,1.1-1.2c0.6,0,1.1,0.5,1.1,1.2S42.8,178.6,42.2,178.6
	z M36,177.5c0,0.6,0.5,1.1,1.1,1.1c0.4,0,0.7-0.2,0.9-0.5l1.3,0.7c-0.4,0.8-1.2,1.3-2.2,1.3c-1.5,0-2.6-1.1-2.6-2.6s1.1-2.6,2.6-2.6
	c0.9,0,1.8,0.4,2.2,1.2l-1.3,0.7c-0.1-0.3-0.5-0.5-0.9-0.5C36.5,176.3,36,176.9,36,177.5z M123.5,159h1.6v6.8h-8V159h1.6v5.3h1.7
	V159h1.6v5.4h1.5V159z M174.4,174.8c-1.4,0-2.6,1.1-2.6,2.6s1.2,2.6,2.6,2.6c1.4,0,2.6-1.1,2.6-2.6C177,176,175.8,174.8,174.4,174.8
	z M174.4,178.6c-0.6,0-1.1-0.5-1.1-1.2s0.5-1.2,1.1-1.2c0.6,0,1.1,0.5,1.1,1.2S175,178.6,174.4,178.6z M155.8,165.9h-1.1V161h1.4
	v2.4l2.1-2.4h1.1v4.8h-1.4v-2.4L155.8,165.9z M170.2,162.5h-0.8V161h-1.5v4.9h2.3c1.2,0,1.9-0.7,1.9-1.7
	C172.1,163.1,171.3,162.4,170.2,162.5z M170.1,164.7h-0.8v-0.9h0.8c0.3,0,0.5,0.1,0.5,0.4C170.6,164.4,170.4,164.6,170.1,164.7z
	 M162.4,177.5c0,0.6,0.5,1.1,1.1,1.1c0.4,0,0.7-0.2,0.9-0.5l1.3,0.7c-0.4,0.8-1.2,1.3-2.2,1.3c-1.5,0-2.6-1.1-2.6-2.6
	s1.1-2.6,2.6-2.6c0.9,0,1.8,0.4,2.2,1.2l-1.3,0.7c-0.1-0.3-0.5-0.5-0.9-0.5C162.9,176.3,162.4,176.9,162.4,177.5z M158.7,175.4
	c-0.4-0.4-0.8-0.6-1.5-0.6c-1.2,0-2.3,1.1-2.3,2.6s1,2.6,2.3,2.6c0.7,0,1.2-0.2,1.5-0.6v0.5h1.5V175h-1.5V175.4z M157.5,178.6
	c-0.7,0-1.2-0.5-1.2-1.2s0.5-1.2,1.2-1.2s1.2,0.5,1.2,1.2C158.7,178.2,158.2,178.6,157.5,178.6z M160.1,149.4c0.3-0.2,0.5-0.6,0.5-1
	c0-0.8-0.6-1.4-1.7-1.4h-2.4v4.9h2.6c1.1,0,1.7-0.6,1.7-1.4C160.8,150,160.5,149.6,160.1,149.4z M157.8,148.1h0.9
	c0.2,0,0.4,0.2,0.4,0.4c0,0.2-0.1,0.3-0.4,0.3h-0.9V148.1z M158.9,150.7h-1.1V150h1.1c0.2,0,0.4,0.1,0.4,0.3
	C159.3,150.5,159.2,150.7,158.9,150.7z M169.5,175h1.5v4.9h-1.5v-1.8h-1.7v1.8h-1.5V175h1.5v1.7h1.7V175z M190.4,135.4l1.7,2.5h-1.7
	l-0.9-1.3l-0.9,1.3h-1.7l1.7-2.5l-1.7-2.4h1.7l0.8,1.2l0.8-1.2h1.7L190.4,135.4z M189.8,176.5H189V175h-1.5v4.9h2.3
	c1.2,0,1.9-0.7,1.9-1.7C191.7,177.1,191,176.4,189.8,176.5z M189.8,178.7H189v-0.9h0.8c0.3,0,0.5,0.1,0.5,0.4
	C190.3,178.4,190.1,178.6,189.8,178.7z M179,177.5c0,0.6,0.5,1.1,1.1,1.1c0.4,0,0.7-0.2,0.9-0.5l1.3,0.7c-0.4,0.8-1.2,1.3-2.2,1.3
	c-1.5,0-2.6-1.1-2.6-2.6s1.1-2.6,2.6-2.6c0.9,0,1.8,0.4,2.2,1.2l-1.3,0.7c-0.1-0.3-0.5-0.5-0.9-0.5C179.5,176.3,179,176.9,179,177.5
	z M179.9,163.6c0-1.4-1.1-2.1-2-2.1c-0.5,0-0.9,0.2-1.3,0.5c0.2-0.3,0.4-0.6,1.3-0.9c1-0.4,1.6-0.8,1.8-1.6l-1.2-0.7
	c-0.3,0.7-0.8,0.8-1.8,1.3c-1.6,0.8-1.9,1.6-1.9,3.2c0,1.5,1,2.7,2.6,2.7C179,166,179.9,165,179.9,163.6z M177.5,164.6
	c-0.6,0-1.1-0.4-1.1-1c0-0.6,0.5-0.9,1-0.9c0.7,0,1.1,0.4,1.1,1C178.5,164.3,178,164.7,177.5,164.6z M182.6,175h4.4v1.4h-1.5v3.5
	H184v-3.5h-1.4V175z M129.5,163.5l-2.1,2.4h-1.1V161h1.4v2.4l2.1-2.4h1.1v4.9h-1.4V163.5z M137.3,163.5c0-1.5-1-2.6-2.3-2.6
	c-0.7,0-1.2,0.2-1.5,0.6V161H132v6.8h1.4v-2.4c0.4,0.4,0.8,0.6,1.5,0.6C136.2,166,137.3,165,137.3,163.5z M133.5,163.4
	c0-0.7,0.5-1.2,1.2-1.2s1.2,0.5,1.2,1.2s-0.5,1.2-1.2,1.2S133.5,164.1,133.5,163.4z M142.9,178.4c0,0.8-0.7,1.5-2,1.5
	c-0.9,0-1.6-0.4-2-1.2l1.2-0.7c0.1,0.4,0.5,0.6,0.9,0.6c0.4,0,0.6-0.2,0.6-0.4s-0.2-0.3-0.5-0.3h-0.7v-1.2h0.5
	c0.4,0,0.5-0.1,0.5-0.3c0-0.3-0.2-0.4-0.5-0.4c-0.4,0-0.6,0.2-0.8,0.6l-1.2-0.7c0.5-0.7,1.2-1.1,2-1.1c1.2,0,1.9,0.7,1.9,1.5
	c0,0.5-0.1,0.9-0.5,1.1C142.7,177.6,143,178,142.9,178.4z M136.1,174.8c-1.5,0-2.6,1.1-2.6,2.6s1,2.6,2.7,2.6c0.9,0,1.6-0.3,2.1-1
	l-1.2-0.7c-0.2,0.2-0.5,0.4-0.9,0.4c-0.6,0-1-0.2-1.2-0.7h3.5c0.1-0.2,0.1-0.4,0.1-0.6C138.6,175.9,137.5,174.8,136.1,174.8z
	 M135,176.9c0.2-0.5,0.5-0.8,1.1-0.8c0.4,0,0.8,0.2,1,0.8H135z M128.4,151.4v0.5h1.5V147h-1.5v0.4c-0.4-0.4-0.8-0.6-1.5-0.6
	c-1.2,0-2.3,1.1-2.3,2.6s1,2.6,2.3,2.6C127.6,152,128,151.8,128.4,151.4z M126,149.4c0-0.7,0.5-1.2,1.2-1.2s1.2,0.5,1.2,1.2
	s-0.5,1.2-1.2,1.2S126,150.1,126,149.4z M130.9,175.5h-1.1v-1h2.8V173h-4.4v6.8h2.6c1.4,0,2.3-0.8,2.3-2.1S132.1,175.6,130.9,175.5z
	 M130.7,178.4h-1.1V177h1.1c0.4,0,0.8,0.2,0.8,0.7S131.2,178.4,130.7,178.4z M145.3,150.2c0-1-0.7-1.7-1.9-1.7h-0.8V147h-1.5v4.9
	h2.3C144.6,151.9,145.3,151.2,145.3,150.2z M143.4,150.7h-0.8v-0.9h0.8c0.3,0,0.5,0.1,0.5,0.4C143.9,150.4,143.7,150.6,143.4,150.7z
	 M140.4,160.8c-1.4,0-2.6,1.1-2.6,2.6s1.2,2.6,2.6,2.6c1.4,0,2.6-1.1,2.6-2.6C143,162,141.9,160.8,140.4,160.8z M140.5,164.6
	c-0.6,0-1.1-0.5-1.1-1.2s0.5-1.2,1.1-1.2c0.6,0,1.1,0.5,1.1,1.2S141.1,164.6,140.5,164.6z M150.1,165.9H149V161h1.4v2.4l2.1-2.4h1.1
	v4.8h-1.4v-2.4L150.1,165.9z M152.9,151l-1.2-0.7c-0.2,0.2-0.5,0.4-0.9,0.4c-0.6,0-1-0.2-1.2-0.7h3.5c0.1-0.2,0.1-0.4,0.1-0.6
	c0-1.5-1.1-2.6-2.5-2.6c-1.5,0-2.6,1.1-2.6,2.6s1,2.6,2.7,2.6C151.8,152,152.5,151.7,152.9,151z M150.7,148.1c0.4,0,0.8,0.2,1,0.8
	h-2.1C149.8,148.4,150.2,148.1,150.7,148.1z M149.6,175h4.6v4.9h-1.5v-3.5H151v3.5h-1.4V175z M146.1,174.8c-1.4,0-2.6,1.1-2.6,2.6
	s1.2,2.6,2.6,2.6c1.4,0,2.6-1.1,2.6-2.6C148.7,176,147.5,174.8,146.1,174.8z M146.1,178.6c-0.6,0-1.1-0.5-1.1-1.2s0.5-1.2,1.1-1.2
	c0.6,0,1.1,0.5,1.1,1.2S146.7,178.6,146.1,178.6z M32.1,150.3c-0.2,0.2-0.5,0.4-0.9,0.4c-0.6,0-1-0.2-1.2-0.7h3.5
	c0.1-0.2,0.1-0.4,0.1-0.6c0-1.5-1.1-2.6-2.5-2.6c-1.5,0-2.6,1.1-2.6,2.6s1,2.6,2.7,2.6c0.9,0,1.6-0.3,2.1-1L32.1,150.3z M31.1,148.1
	c0.4,0,0.8,0.2,1,0.8H30C30.1,148.4,30.5,148.1,31.1,148.1z M68.9,161v6.9h1.5v-2.4c0.4,0.4,0.8,0.6,1.5,0.6c1.2,0,2.3-1.1,2.3-2.6
	s-1-2.6-2.3-2.6c-0.7,0-1.2,0.2-1.5,0.6V161H68.9z M71.6,162.2c0.7,0,1.2,0.5,1.2,1.2s-0.5,1.2-1.2,1.2c-0.7,0-1.2-0.5-1.2-1.2
	S70.9,162.2,71.6,162.2z M70.1,150.6h0.3v1.4h1.4v-4.9h-2.4c-1.2,0-1.8,0.8-1.8,1.7c0,0.6,0.3,1.2,0.9,1.5l-1.1,1.6v0.1h1.7
	L70.1,150.6z M69.5,148.3h0.8v1h-0.8c-0.3,0-0.5-0.2-0.5-0.5C69,148.5,69.2,148.3,69.5,148.3z M65.4,165.9v-3.5h-1.5V161h4.4v1.4
	h-1.5v3.5H65.4z M78.9,109.7L77,105h1.6l1.1,3l0.9-3h1.6l-1.7,4.7c-0.5,1.6-1.5,2.2-2.8,2.1v-1.4C78.3,110.4,78.6,110.3,78.9,109.7z
	 M63.2,151.9h-1.1V147h1.4v2.4l2.1-2.4h1.1v4.8h-1.4v-2.4L63.2,151.9z M81.9,108.5c0.5,0.1,0.7-0.1,0.7-0.8V105h4v4.9h-1.5v-3.5
	h-1.1v1.5c0,1.5-0.7,2.2-2.2,2V108.5z M71.1,109.8h-1.6V103h1.6l1.9,3l1.9-3h1.6v6.8h-1.6v-4l-1.8,2.9h-0.2l-1.8-2.9V109.8z
	 M60.1,162.8h1.7V161h1.5v4.9h-1.5v-1.8h-1.7v1.8h-1.5V161h1.5V162.8z M55.3,166c1.4,0,2.6-1.1,2.6-2.6s-1.2-2.6-2.6-2.6
	c-1.4,0-2.6,1.1-2.6,2.6S53.9,166,55.3,166z M55.2,162.2c0.6,0,1.1,0.5,1.1,1.2s-0.5,1.2-1.1,1.2c-0.6,0-1.1-0.5-1.1-1.2
	S54.6,162.2,55.2,162.2z M49.4,134.4c0,2,1.6,3.5,3.5,3.5c1.9,0,3.5-1.5,3.5-3.5s-1.5-3.5-3.5-3.5C51,130.9,49.4,132.4,49.4,134.4z
	 M54.9,134.4c0,1.2-0.9,2-2,2c-1.1,0-2-0.8-2-2s0.9-2,2-2C54.1,132.4,54.9,133.2,54.9,134.4z M57.5,147v3.5H59V147h1.5v3.5h0.8v2.7
	h-1.4v-1.3h-3.8V147H57.5z M55.1,151.9V147h-1.5v0.4c-0.4-0.4-0.8-0.6-1.5-0.6c-1.2,0-2.3,1.1-2.3,2.6s1,2.6,2.3,2.6
	c0.7,0,1.2-0.2,1.5-0.6v0.5H55.1z M52.4,150.6c-0.7,0-1.2-0.5-1.2-1.2s0.5-1.2,1.2-1.2c0.7,0,1.2,0.5,1.2,1.2
	C53.6,150.2,53.1,150.6,52.4,150.6z M80.2,123.8h-1.6V117h5.2v6.8h-1.6v-5.3h-2V123.8z M93.2,106.4h-1.5V105h4.4v1.4h-1.5v3.5h-1.5
	V106.4z M90.9,161v4.9h2.3c1.2,0,1.9-0.7,1.9-1.7s-0.7-1.7-1.9-1.7h-0.8V161H90.9z M93.2,163.8c0.3,0,0.5,0.1,0.5,0.4
	c0,0.2-0.2,0.4-0.5,0.4h-0.8v-0.8H93.2z M102.2,137.9c1.9,0,3.5-1.5,3.5-3.5s-1.6-3.5-3.5-3.5c-1.9,0-3.5,1.5-3.5,3.5
	C98.7,136.5,100.3,137.9,102.2,137.9z M102.3,132.4c1.1,0,2,0.8,2,2s-0.9,2-2,2c-1.1,0-2-0.8-2-2S101.2,132.4,102.3,132.4z
	 M96,121.4c0-1.5-1.2-2.6-2.6-2.6c-1.4,0-2.6,1.1-2.6,2.6s1.2,2.6,2.6,2.6C94.8,124,96,122.9,96,121.4z M93.4,122.6
	c-0.6,0-1.1-0.5-1.1-1.2s0.5-1.2,1.1-1.2c0.6,0,1.1,0.5,1.1,1.2S94,122.6,93.4,122.6z M97.8,109.8h-1.1V105h1.4v2.4l2.1-2.4h1.1v4.9
	h-1.4v-2.4L97.8,109.8z M85.8,161.1l-1.8,2.4l1.8,2.4h-1.7l-1.6-2.2v2.2H81V161h1.5v2.2l1.5-2.1H85.8z M51.4,123.9h-1.1V119h1.4v2.4
	l2.1-2.4h1.1v4.8h-1.4v-2.4L51.4,123.9z M80,165.9V161h-1.4v0.4c-0.4-0.4-0.8-0.6-1.5-0.6c-1.2,0-2.3,1.1-2.3,2.6s1,2.6,2.2,2.6
	c0.7,0,1.2-0.2,1.5-0.6v0.5H80z M77.4,164.6c-0.7,0-1.2-0.5-1.2-1.2s0.5-1.2,1.2-1.2c0.7,0,1.2,0.5,1.2,1.2S78.1,164.6,77.4,164.6z
	 M87.4,165.9v-3.5h-1.5V161h4.4v1.4h-1.5v3.5H87.4z M91.9,108.1c0-1-0.7-1.7-1.9-1.7h-0.8V105h-1.5v4.9H90
	C91.2,109.8,91.9,109.2,91.9,108.1z M89.2,107.7H90c0.3,0,0.5,0.2,0.5,0.4c0,0.3-0.2,0.4-0.5,0.4h-0.8V107.7z M86.4,123.5
	c0.4,0.4,0.8,0.6,1.5,0.6c1.2,0,2.3-1.1,2.3-2.6s-1-2.6-2.3-2.6c-0.7,0-1.2,0.2-1.5,0.6V119H85v6.9h1.4V123.5z M87.6,120.2
	c0.7,0,1.2,0.5,1.2,1.2s-0.5,1.2-1.2,1.2c-0.7,0-1.2-0.5-1.2-1.2S86.9,120.2,87.6,120.2z M43.2,162.2h3.7v1.4h-3.7V162.2z
	 M25.2,135.5c0-1.5-1-2.6-2.3-2.6c-0.7,0-1.2,0.2-1.5,0.6V133h-1.5v6.8h1.5v-2.4c0.4,0.4,0.8,0.6,1.5,0.6
	C24.1,138,25.2,137,25.2,135.5z M21.3,135.4c0-0.7,0.5-1.2,1.2-1.2s1.2,0.5,1.2,1.2c0,0.8-0.5,1.2-1.2,1.2S21.3,136.1,21.3,135.4z
	 M47.8,123.9h-1.5V119h3.4v1.4h-1.9V123.9z M28.5,118.4h-2.9v-1.3h2.9V118.4z M31,135.4c0-1.5-1.2-2.6-2.6-2.6
	c-1.4,0-2.6,1.1-2.6,2.6s1.2,2.6,2.6,2.6C29.8,138,31,136.9,31,135.4z M28.4,136.6c-0.6,0-1.1-0.5-1.1-1.2s0.5-1.2,1.1-1.2
	c0.6,0,1.1,0.5,1.1,1.2S29,136.6,28.4,136.6z M17.7,149.4c0,1.5,1.2,2.6,2.6,2.6c1.4,0,2.6-1.1,2.6-2.6s-1.2-2.6-2.6-2.6
	C18.9,146.8,17.7,147.9,17.7,149.4z M20.3,148.2c0.6,0,1.1,0.5,1.1,1.2s-0.5,1.2-1.1,1.2c-0.6,0-1.1-0.5-1.1-1.2
	S19.7,148.2,20.3,148.2z M23.9,121.4c0-1.5-1.1-2.6-2.5-2.6c-1.5,0-2.6,1.1-2.6,2.6s1,2.6,2.7,2.6c0.9,0,1.6-0.3,2.1-1l-1.2-0.7
	c-0.2,0.2-0.5,0.4-0.9,0.4c-0.6,0-1-0.2-1.2-0.7h3.5C23.9,121.8,23.9,121.6,23.9,121.4z M20.4,120.9c0.2-0.5,0.5-0.8,1.1-0.8
	c0.4,0,0.8,0.2,1,0.8H20.4z M15.2,109.9h-1.6V103h1.6v3l2.1-3h1.8l-2.3,3.3l2.4,3.5h-1.8l-2.2-3.2V109.9z M15.2,137.8h-1.6V131h5.2
	v6.8h-1.6v-5.3h-2V137.8z M15,146.5h-1.8V145h5.1v1.6h-1.8v5.3H15V146.5z M28.5,147.1l-1.8,2.4l1.8,2.4h-1.7l-1.5-2.1v2.1h-1.5V147
	h1.5v2.2l1.5-2.1H28.5z M25.2,106.3c0-2,1.4-3.5,3.5-3.5c1.2,0,2.3,0.6,2.9,1.6l-1.3,0.8c-0.3-0.5-0.9-0.8-1.6-0.8c-1.2,0-2,0.8-2,2
	s0.8,2,2,2c0.7,0,1.3-0.3,1.6-0.8l1.3,0.8c-0.6,1-1.7,1.6-2.9,1.6C26.6,110,25.1,108.5,25.2,106.3z M21.5,107.2l-2.3-4.2H21l1.2,2.7
	l1.3-2.6h1.8l-2.3,4.2v2.6h-1.5V107.2z M24.7,119h1.4v2.4l2.1-2.4h1.1v4.9h-1.4v-2.4l-2.1,2.4h-1.1V119z M42.1,123.9h-1.5V119h1.5
	v1.8h1.7V119h1.5v4.9h-1.5v-1.8h-1.7V123.9z M47.2,151.8c-0.9,0-1.6-0.4-2-1.2l1.2-0.7c0.1,0.4,0.5,0.6,0.9,0.6
	c0.4,0,0.6-0.2,0.6-0.4c0-0.2-0.2-0.3-0.5-0.3h-0.7v-1.2h0.5c0.4,0,0.5-0.1,0.5-0.3c0-0.3-0.2-0.4-0.5-0.4c-0.4,0-0.6,0.2-0.8,0.6
	l-1.2-0.7c0.5-0.7,1.2-1.1,2-1.1c1.2,0,1.9,0.7,1.9,1.5c0,0.5-0.1,0.9-0.5,1.1c0.4,0.3,0.7,0.7,0.7,1.2
	C49.3,151.3,48.6,152,47.2,151.8z M41.1,151.9H40V147h1.4v2.4l2.1-2.4h1.1v4.8h-1.4v-2.4L41.1,151.9z M48.5,131v6.8h-1.6v-5.3h-2
	v5.3h-1.6V131H48.5z M13.4,162.3c0-2,1.4-3.5,3.5-3.5c1.2,0,2.3,0.6,2.9,1.6l-1.3,0.8c-0.3-0.5-0.9-0.8-1.6-0.8c-1.2,0-2,0.8-2,2
	s0.8,2,2,2c0.7,0,1.3-0.3,1.6-0.8l1.3,0.8c-0.6,1-1.7,1.6-2.9,1.6C14.9,166,13.4,164.5,13.4,162.3z M38.9,136.2
	c0.5,0,0.9,0.4,0.9,0.9s-0.4,0.9-0.9,0.9s-0.9-0.4-0.9-0.9S38.5,136.1,38.9,136.2z M36.1,123.9H35V119h1.3v2.4l2.1-2.4h1.1v4.8h-1.4
	v-2.4L36.1,123.9z M39.9,165.9v-3.5h-1.5V161h4.4v1.4h-1.5v3.5H39.9z M30,119h4.5v1.4H33v3.5h-1.5v-3.5H30V119z M35.3,139.8v-1.9
	c1.5-0.2,2.4-1.2,2.4-2.5s-0.9-2.3-2.4-2.5V131h-1.4v1.9c-1.5,0.2-2.4,1.2-2.4,2.5s0.9,2.3,2.4,2.5v1.9H35.3z M35.3,134.3
	c0.6,0.2,0.9,0.6,0.9,1.1s-0.3,0.9-0.9,1.1V134.3z M33,135.4c0-0.5,0.3-0.9,0.9-1.1v2.2C33.3,136.4,33,135.9,33,135.4z M37.4,151.9
	v-1.8h-1.7v1.8h-1.5V147h1.5v1.8h1.7V147h1.5v4.9H37.4z"/>
</svg>
