<?xml version="1.0" encoding="utf-8"?>
<!-- Generator: Adobe Illustrator 21.1.0, SVG Export Plug-In . SVG Version: 6.00 Build 0)  -->
<svg version="1.1" id="Layer_4" xmlns="http://www.w3.org/2000/svg" xmlns:xlink="http://www.w3.org/1999/xlink" x="0px" y="0px"
	 viewBox="0 0 214.3 204.9" style="enable-background:new 0 0 214.3 204.9;" xml:space="preserve">
<style type="text/css">
	.st0{fill:#FFFFFF;}
	.st1{fill:#25258D;}
	.st2{fill:#ABB4BB;}
	.st3{fill:#464F56;}
</style>
<path class="st0" d="M210.5,203.9H13.2c-1.6,0-2.8-1.3-2.8-2.8v-99.5c0-1.6,1.3-2.8,2.8-2.8h197.4c1.6,0,2.8,1.3,2.8,2.8v99.5
	C213.3,202.7,212.1,203.9,210.5,203.9z"/>
<path class="st1" d="M210.5,204.9H13.2c-2.1,0-3.8-1.7-3.8-3.8v-99.5c0-2.1,1.7-3.8,3.8-3.8h197.3c2.1,0,3.8,1.7,3.8,3.8v99.5
	C214.3,203.2,212.6,204.9,210.5,204.9z M13.2,99.8c-1,0-1.8,0.8-1.8,1.8v99.5c0,1,0.8,1.8,1.8,1.8h197.3c1,0,1.8-0.8,1.8-1.8v-99.5
	c0-1-0.8-1.8-1.8-1.8H13.2z"/>
<path class="st0" d="M205.9,199.3H8.6c-1.6,0-2.8-1.3-2.8-2.8V96.9c0-1.6,1.3-2.8,2.8-2.8H206c1.6,0,2.8,1.3,2.8,2.8v99.5
	C208.7,198,207.5,199.3,205.9,199.3z"/>
<path class="st1" d="M205.9,200.3H8.6c-2.1,0-3.8-1.7-3.8-3.8V96.9c0-2.1,1.7-3.8,3.8-3.8h197.3c2.1,0,3.8,1.7,3.8,3.8v99.5
	C209.7,198.6,208,200.3,205.9,200.3z M8.6,95.1c-1,0-1.8,0.8-1.8,1.8v99.5c0,1,0.8,1.8,1.8,1.8h197.3c1,0,1.8-0.8,1.8-1.8V96.9
	c0-1-0.8-1.8-1.8-1.8H8.6z"/>
<path class="st1" d="M201.2,88.4H3.8c-2.1,0-3.8,1.7-3.8,3.8v99.5c0,2.1,1.7,3.8,3.8,3.8h197.3c2.1,0,3.8-1.7,3.8-3.8V92.3
	C205,90.2,203.3,88.4,201.2,88.4z"/>
<path class="st2" d="M58.2,79.5h2.5l-3.5,6l-3.5-6h2.5V61.8c0-0.6,0.4-1,1-1s1,0.4,1,1V79.5z M169.6,79.5V61.8c0-0.6-0.4-1-1-1
	s-1,0.4-1,1v17.8h-2.5l3.5,6l3.5-6L169.6,79.5L169.6,79.5z"/>
<path class="st0" d="M101.2,58.4h-88c-1.6,0-2.8-1.3-2.8-2.8V13.2c0-1.6,1.3-2.8,2.8-2.8h88.1c1.6,0,2.8,1.3,2.8,2.8v42.4
	C104.1,57.2,102.8,58.4,101.2,58.4z"/>
<path class="st3" d="M101.2,59.4h-88c-2.1,0-3.8-1.7-3.8-3.8V13.2c0-2.1,1.7-3.8,3.8-3.8h88.1c2.1,0,3.8,1.7,3.8,3.8v42.4
	C105.1,57.7,103.4,59.4,101.2,59.4z M13.2,11.3c-1,0-1.8,0.8-1.8,1.8v42.4c0,1,0.8,1.8,1.8,1.8h88.1c1,0,1.8-0.8,1.8-1.8V13.2
	c0-1-0.8-1.8-1.8-1.8L13.2,11.3L13.2,11.3z"/>
<path class="st0" d="M96.6,53.8h-88c-1.6,0-2.8-1.3-2.8-2.8V8.5c0-1.6,1.3-2.8,2.8-2.8h88.1c1.6,0,2.8,1.3,2.8,2.8v42.4
	C99.5,52.5,98.2,53.8,96.6,53.8z"/>
<path class="st3" d="M96.7,54.8H8.6c-2.1,0-3.8-1.7-3.8-3.8V8.5c0-2.1,1.7-3.8,3.8-3.8h88.1c2.1,0,3.8,1.7,3.8,3.8v42.4
	C100.5,53,98.8,54.8,96.7,54.8z M8.6,6.7c-1,0-1.8,0.8-1.8,1.8v42.4c0,1,0.8,1.8,1.8,1.8h88.1c1,0,1.8-0.8,1.8-1.8V8.5
	c0-1-0.8-1.8-1.8-1.8H8.6z"/>
<path class="st0" d="M91.9,49.1H3.8c-1.6,0-2.8-1.3-2.8-2.8V3.8C1,2.3,2.3,1,3.8,1h88.1c1.6,0,2.8,1.3,2.8,2.8v42.4
	C94.8,47.8,93.5,49.1,91.9,49.1z"/>
<path class="st3" d="M91.9,50.1H3.8c-2.1,0-3.8-1.7-3.8-3.8V3.8C0,1.7,1.7,0,3.8,0h88.1c2.1,0,3.8,1.7,3.8,3.8v42.4
	C95.8,48.4,94,50.1,91.9,50.1z M3.8,2C2.8,2,2,2.8,2,3.8v42.4c0,1,0.8,1.8,1.8,1.8h88.1c1,0,1.8-0.8,1.8-1.8V3.8
	c0-1-0.8-1.8-1.8-1.8H3.8z"/>
<path class="st0" d="M210.5,58.4h-83.9c-1.6,0-2.8-1.3-2.8-2.8V13.2c0-1.6,1.3-2.8,2.8-2.8h83.9c1.6,0,2.8,1.3,2.8,2.8v42.4
	C213.3,57.2,212.1,58.4,210.5,58.4z"/>
<path class="st3" d="M210.5,59.4h-83.9c-2.1,0-3.8-1.7-3.8-3.8V13.2c0-2.1,1.7-3.8,3.8-3.8h83.9c2.1,0,3.8,1.7,3.8,3.8v42.4
	C214.3,57.7,212.6,59.4,210.5,59.4z M126.6,11.3c-1,0-1.8,0.8-1.8,1.8v42.4c0,1,0.8,1.8,1.8,1.8h83.9c1,0,1.8-0.8,1.8-1.8V13.2
	c0-1-0.8-1.8-1.8-1.8L126.6,11.3L126.6,11.3z"/>
<path class="st0" d="M206.2,53.8h-83.9c-1.6,0-2.8-1.3-2.8-2.8V8.5c0-1.6,1.3-2.8,2.8-2.8h83.9c1.6,0,2.8,1.3,2.8,2.8v42.4
	C209,52.5,207.7,53.8,206.2,53.8z"/>
<path class="st3" d="M206.2,54.8h-83.9c-2.1,0-3.8-1.7-3.8-3.8V8.5c0-2.1,1.7-3.8,3.8-3.8h83.9c2.1,0,3.8,1.7,3.8,3.8v42.4
	C210,53,208.3,54.8,206.2,54.8z M122.3,6.7c-1,0-1.8,0.8-1.8,1.8v42.4c0,1,0.8,1.8,1.8,1.8h83.9c1,0,1.8-0.8,1.8-1.8V8.5
	c0-1-0.8-1.8-1.8-1.8H122.3z"/>
<path class="st0" d="M201.7,49.1h-83.9c-1.6,0-2.8-1.3-2.8-2.8V3.8c0-1.6,1.3-2.8,2.8-2.8h83.9c1.6,0,2.8,1.3,2.8,2.8v42.4
	C204.5,47.8,203.2,49.1,201.7,49.1z"/>
<path class="st3" d="M201.7,50.1h-83.9c-2.1,0-3.8-1.7-3.8-3.8V3.8c0-2.1,1.7-3.8,3.8-3.8h83.9c2.1,0,3.8,1.7,3.8,3.8v42.4
	C205.5,48.4,203.8,50.1,201.7,50.1z M117.8,2c-1,0-1.8,0.8-1.8,1.8v42.4c0,1,0.8,1.8,1.8,1.8h83.9c1,0,1.8-0.8,1.8-1.8V3.8
	c0-1-0.8-1.8-1.8-1.8H117.8z"/>
<path class="st0" d="M17.6,110h-4v-6.8h1.6v5.3h2.4V110z M18,107.6c0-1.5,1.1-2.6,2.6-2.6c1.4,0,2.5,1.1,2.5,2.6
	c0,0.2,0,0.4-0.1,0.6h-3.5c0.2,0.5,0.6,0.7,1.2,0.7c0.4,0,0.7-0.2,0.9-0.4l1.2,0.7c-0.5,0.7-1.2,1-2.1,1C19,110.2,18,109,18,107.6z
	 M19.5,107.1h2.1c-0.2-0.6-0.6-0.8-1-0.8C20,106.3,19.6,106.6,19.5,107.1z M23.6,107.5c0-1.3,1-2.5,2.4-2.5c0.6,0,1.1,0.2,1.4,0.6
	v-0.5h1.4v4.6c0,1.6-1.3,2.3-2.6,2.3c-1,0-1.9-0.4-2.3-1.2l1.2-0.7c0.2,0.3,0.5,0.6,1.1,0.6c0.7,0,1.1-0.4,1.1-1v-0.4
	c-0.3,0.4-0.8,0.6-1.4,0.6C24.6,110,23.6,108.8,23.6,107.5z M25,107.5c0,0.7,0.5,1.1,1.2,1.1c0.7,0,1.2-0.5,1.2-1.1
	s-0.5-1.1-1.2-1.1C25.5,106.4,25,106.8,25,107.5z M29.6,107.6c0-1.5,1.1-2.6,2.3-2.6c0.7,0,1.1,0.2,1.5,0.6v-0.5h1.5v4.9h-1.5v-0.5
	c-0.3,0.4-0.8,0.6-1.5,0.6C30.7,110.2,29.6,109,29.6,107.6z M31.1,107.6c0,0.7,0.5,1.2,1.2,1.2s1.2-0.5,1.2-1.2s-0.5-1.2-1.2-1.2
	S31.1,106.9,31.1,107.6z M37.4,102.9H36v7.1h1.5V102.9z M15.2,124h-1.6v-6.8h2.7c1.3,0,2.3,1,2.3,2.3c0,0.8-0.5,1.6-1.3,2l1.5,2.5
	h-1.7l-1.3-2.2h-0.7V124z M15.2,120.4h1.2c0.4,0,0.8-0.4,0.8-0.9c0-0.5-0.4-0.9-0.8-0.9h-1.2V120.4z M22.9,124v-0.5
	c-0.3,0.4-0.8,0.6-1.5,0.6c-1.3,0-2.3-1.1-2.3-2.6s1.1-2.6,2.3-2.6c0.7,0,1.1,0.2,1.5,0.6v-0.5h1.5v4.9H22.9z M22.9,121.6
	c0-0.7-0.5-1.2-1.2-1.2c-0.7,0-1.2,0.5-1.2,1.2s0.5,1.2,1.2,1.2C22.4,122.8,22.9,122.3,22.9,121.6z M25.8,118.2v0.9H25v1.4h0.8v1.7
	c0,1.4,0.6,1.9,2.5,1.7v-1.3c-0.6,0-1,0-1-0.4v-1.7h1v-1.4h-1v-1.4L25.8,118.2z M29.8,118.7c0.5,0,0.9-0.4,0.9-0.9s-0.4-0.9-0.9-0.9
	c-0.5,0-0.9,0.4-0.9,0.9S29.3,118.7,29.8,118.7z M30.6,119.1h-1.5v4.9h1.5V119.1z M33.1,119.6v-0.5h-1.5v4.9h1.5v-2.7
	c0-0.7,0.4-1,0.9-1c0.5,0,0.8,0.3,0.8,0.9v2.8h1.5v-3c0-1.3-0.8-2-1.8-2C33.8,119,33.4,119.2,33.1,119.6z M37.1,121.5
	c0-1.3,1-2.5,2.4-2.5c0.6,0,1.1,0.2,1.4,0.6v-0.5h1.4v4.6c0,1.6-1.3,2.3-2.6,2.3c-1,0-1.9-0.4-2.3-1.2l1.2-0.7
	c0.2,0.3,0.5,0.6,1.1,0.6c0.7,0,1.1-0.4,1.1-1v-0.4c-0.3,0.4-0.8,0.6-1.4,0.6C38.1,124,37.1,122.8,37.1,121.5z M38.5,121.5
	c0,0.7,0.5,1.1,1.2,1.1c0.7,0,1.2-0.5,1.2-1.1s-0.5-1.1-1.2-1.1C39,120.4,38.5,120.8,38.5,121.5z M45.1,122.9
	c-0.4,0-0.7-0.2-0.8-0.6L43,123c0.4,0.8,1.1,1.2,2.1,1.2c1.1,0,2-0.5,2-1.6c0-1.8-2.4-1.4-2.4-2c0-0.2,0.2-0.3,0.4-0.3
	c0.3,0,0.5,0.2,0.7,0.4l1.2-0.7c-0.4-0.7-1.1-1-1.9-1c-1,0-1.9,0.5-1.9,1.6c0,1.7,2.4,1.4,2.4,1.9C45.6,122.7,45.5,122.9,45.1,122.9
	z M16.1,136.6c-0.8,0-1.2-0.4-1.4-0.9l-1.3,0.8c0.4,1,1.3,1.7,2.7,1.7c1.5,0,2.5-0.8,2.5-2.1c0-1.4-1.2-1.8-2.2-2.1
	c-1.1-0.3-1.2-0.5-1.2-0.8c0-0.3,0.2-0.5,0.7-0.5c0.6,0,0.9,0.3,1.2,0.8l1.3-0.8c-0.5-1-1.4-1.5-2.5-1.5c-1.2,0-2.3,0.8-2.3,2.1
	c0,1.3,1,1.8,2,2.1c1,0.3,1.4,0.4,1.4,0.9C17,136.3,16.8,136.6,16.1,136.6z M21.8,138.2c-1.4,0-2.6-1.1-2.6-2.6s1.2-2.6,2.6-2.6
	c1.4,0,2.6,1.1,2.6,2.6S23.2,138.2,21.8,138.2z M22.9,135.6c0-0.7-0.5-1.2-1.1-1.2s-1.1,0.5-1.1,1.2s0.5,1.2,1.1,1.2
	S22.9,136.3,22.9,135.6z M24.7,134.6h0.7v3.5h1.5v-3.5h0.9v-1.4h-0.9c0-0.6,0.4-0.7,0.9-0.7v-1.4c-1.6-0.1-2.4,0.7-2.4,2.1h-0.7
	V134.6z M28.8,136.3c0,1.4,0.6,1.9,2.5,1.7v-1.3c-0.6,0-1,0-1-0.4v-1.7h1v-1.4h-1v-1.4l-1.5,0.4v0.9H28v1.4h0.8V136.3z M35.4,135.4
	l0.8,2.6h1.4l1.6-4.9h-1.6l-0.7,2.6l-0.8-2.6h-1.4l-0.8,2.6l-0.7-2.6h-1.6l1.6,4.9h1.4L35.4,135.4z M43,137.6
	c-0.3,0.4-0.8,0.6-1.5,0.6c-1.3,0-2.3-1.1-2.3-2.6s1.1-2.6,2.3-2.6c0.7,0,1.1,0.2,1.5,0.6v-0.5h1.5v4.9H43V137.6z M43,135.6
	c0-0.7-0.5-1.2-1.2-1.2s-1.2,0.5-1.2,1.2s0.5,1.2,1.2,1.2S43,136.3,43,135.6z M47,133.1h-1.5v4.9H47v-2.2c0-1,0.9-1.2,1.5-1.1v-1.7
	c-0.6,0-1.3,0.3-1.5,1V133.1z M48.8,135.6c0-1.5,1.1-2.6,2.6-2.6c1.4,0,2.5,1.1,2.5,2.6c0,0.2,0,0.4-0.1,0.6h-3.5
	c0.2,0.5,0.6,0.7,1.2,0.7c0.4,0,0.7-0.2,0.9-0.4l1.2,0.7c-0.5,0.7-1.2,1-2.1,1C49.8,138.2,48.8,137,48.8,135.6z M50.3,135.1h2.1
	c-0.2-0.6-0.6-0.8-1-0.8C50.8,134.3,50.5,134.6,50.3,135.1z M14.9,152h1.6v-5.3h1.8v-1.5h-5.1v1.5h1.8V152z M20.3,147
	c1.4,0,2.6,1.1,2.6,2.6s-1.2,2.6-2.6,2.6c-1.4,0-2.6-1.1-2.6-2.6S18.9,147,20.3,147z M20.3,148.4c-0.6,0-1.1,0.5-1.1,1.2
	s0.5,1.2,1.1,1.2s1.1-0.5,1.1-1.2S20.9,148.4,20.3,148.4z M25.2,149.9l1.6,2.2h1.7l-1.8-2.4l1.8-2.4h-1.7l-1.5,2.1v-4.1h-1.5v6.8
	h1.5V149.9z M33.4,150.2H30c0.2,0.5,0.6,0.7,1.2,0.7c0.4,0,0.7-0.2,0.9-0.4l1.2,0.7c-0.5,0.7-1.2,1-2.1,1c-1.7,0-2.7-1.1-2.7-2.6
	s1.1-2.6,2.6-2.6c1.4,0,2.5,1.1,2.5,2.6C33.5,149.8,33.5,150,33.4,150.2z M32,149.1c-0.2-0.6-0.6-0.8-1-0.8c-0.6,0-0.9,0.3-1.1,0.8
	H32z M35.8,149.4c0-0.7,0.4-1,0.9-1c0.5,0,0.8,0.3,0.8,0.9v2.8H39v-3c0-1.3-0.8-2-1.8-2c-0.6,0-1.1,0.2-1.4,0.6v-0.5h-1.5v4.9h1.5
	V149.4z M41.5,147.1H40v4.9h1.5V147.1z M40.7,145c-0.5,0-0.9,0.4-0.9,0.9s0.4,0.9,0.9,0.9c0.5,0,0.9-0.4,0.9-0.9S41.2,145,40.7,145z
	 M44.2,150.9c-0.4,0-0.7-0.2-0.8-0.6l-1.3,0.7c0.4,0.8,1.1,1.2,2.1,1.2c1.1,0,2-0.5,2-1.6c0-1.8-2.4-1.4-2.4-2
	c0-0.2,0.2-0.3,0.4-0.3c0.3,0,0.5,0.2,0.7,0.4l1.2-0.7c-0.4-0.7-1.1-1-1.9-1c-1,0-1.9,0.5-1.9,1.6c0,1.7,2.4,1.4,2.4,1.9
	C44.8,150.7,44.6,150.9,44.2,150.9z M47,152h1.5v-4.9H47V152z M47.7,145c-0.5,0-0.9,0.4-0.9,0.9s0.4,0.9,0.9,0.9
	c0.5,0,0.9-0.4,0.9-0.9S48.2,145,47.7,145z M54.4,149.6c0,0.2,0,0.4-0.1,0.6h-3.5c0.2,0.5,0.6,0.7,1.2,0.7c0.4,0,0.7-0.2,0.9-0.4
	l1.2,0.7c-0.5,0.7-1.2,1-2.1,1c-1.7,0-2.7-1.1-2.7-2.6s1.1-2.6,2.6-2.6C53.3,147,54.4,148.1,54.4,149.6z M52.9,149.1
	c-0.2-0.6-0.6-0.8-1-0.8c-0.6,0-0.9,0.3-1.1,0.8H52.9z M56.7,149.8c0-1,0.9-1.2,1.5-1.1v-1.7c-0.6,0-1.3,0.3-1.5,1v-0.9h-1.5v4.9
	h1.5V149.8z M60.6,152.2c0.6,0,1.1-0.2,1.4-0.6v0.5h1.5v-4.9h-1.5v2.7c0,0.7-0.4,1-0.9,1c-0.5,0-0.8-0.3-0.8-0.9v-2.8h-1.5v3
	C58.7,151.5,59.6,152.2,60.6,152.2z M65.9,149.4c0-0.7,0.4-1,0.9-1c0.5,0,0.8,0.3,0.8,0.9v2.8h1.5v-3c0-1.3-0.8-2-1.8-2
	c-0.6,0-1.1,0.2-1.4,0.6v-0.5h-1.5v4.9h1.5V149.4z M69.9,149.5c0-1.3,1-2.5,2.4-2.5c0.6,0,1.1,0.2,1.4,0.6v-0.5h1.4v4.6
	c0,1.6-1.3,2.3-2.6,2.3c-1,0-1.9-0.4-2.3-1.2l1.2-0.7c0.2,0.3,0.5,0.6,1.1,0.6c0.7,0,1.1-0.4,1.1-1v-0.4c-0.3,0.4-0.8,0.6-1.4,0.6
	C70.9,152,69.9,150.8,69.9,149.5z M71.4,149.5c0,0.7,0.5,1.1,1.2,1.1c0.7,0,1.2-0.5,1.2-1.1s-0.5-1.1-1.2-1.1
	C71.9,148.4,71.4,148.8,71.4,149.5z M16.1,164.6c-0.8,0-1.2-0.4-1.4-0.9l-1.3,0.8c0.4,1,1.3,1.7,2.7,1.7c1.5,0,2.5-0.8,2.5-2.1
	c0-1.4-1.2-1.8-2.2-2.1c-1.1-0.3-1.2-0.5-1.2-0.8c0-0.3,0.2-0.5,0.7-0.5c0.6,0,0.9,0.3,1.2,0.8l1.3-0.8c-0.5-1-1.4-1.5-2.5-1.5
	c-1.2,0-2.3,0.8-2.3,2.1c0,1.3,1,1.8,2,2.1c1,0.3,1.4,0.4,1.4,0.9C17,164.3,16.8,164.6,16.1,164.6z M25.1,163.2v2.9h1.5v-3
	c0-1.2-0.7-2-1.9-2c-0.7,0-1.1,0.3-1.4,0.6c-0.3-0.4-0.7-0.6-1.3-0.6c-0.7,0-1.1,0.3-1.3,0.6v-0.4h-1.5v4.9h1.5v-2.7
	c0-0.6,0.3-0.9,0.8-0.9c0.5,0,0.7,0.3,0.7,0.8v2.9h1.5v-2.7c0-0.6,0.3-0.9,0.8-0.9C24.9,162.4,25.1,162.7,25.1,163.2z M31.1,165.6
	c-0.3,0.4-0.8,0.6-1.5,0.6c-1.3,0-2.3-1.1-2.3-2.6s1.1-2.6,2.3-2.6c0.7,0,1.1,0.2,1.5,0.6v-0.5h1.5v4.9h-1.5V165.6z M31.1,163.6
	c0-0.7-0.5-1.2-1.2-1.2c-0.7,0-1.2,0.5-1.2,1.2s0.5,1.2,1.2,1.2C30.7,164.8,31.1,164.3,31.1,163.6z M36.6,162.7v-1.7
	c-0.6,0-1.3,0.3-1.5,1v-0.9h-1.5v4.9h1.5v-2.2C35.1,162.9,36,162.6,36.6,162.7z M40.3,162.6v-1.4h-1v-1.4l-1.5,0.4v0.9H37v1.4h0.8
	v1.7c0,1.4,0.6,1.9,2.5,1.7v-1.3c-0.6,0-1,0-1-0.4v-1.7H40.3z M43.5,166.2c-1.7,0-2.7-1.1-2.7-2.6s1.1-2.6,2.6-2.6
	c1.4,0,2.5,1.1,2.5,2.6c0,0.2,0,0.4-0.1,0.6h-3.5c0.2,0.5,0.6,0.7,1.2,0.7c0.4,0,0.7-0.2,0.9-0.4l1.2,0.7
	C45.1,165.8,44.4,166.2,43.5,166.2z M42.3,163.1h2.1c-0.2-0.6-0.6-0.8-1-0.8C42.8,162.3,42.4,162.6,42.3,163.1z M51.8,164.2l-1.5-5
	h-1.7l2.2,6.8h2l2.2-6.8h-1.7L51.8,164.2z M57.4,166.2c-1.7,0-2.7-1.1-2.7-2.6s1.1-2.6,2.6-2.6c1.4,0,2.5,1.1,2.5,2.6
	c0,0.2,0,0.4-0.1,0.6h-3.5c0.2,0.5,0.6,0.7,1.2,0.7c0.4,0,0.7-0.2,0.9-0.4l1.2,0.7C59.1,165.8,58.4,166.2,57.4,166.2z M56.3,163.1
	h2.1c-0.2-0.6-0.6-0.8-1-0.8C56.8,162.3,56.4,162.6,56.3,163.1z M62.1,162v-0.9h-1.5v4.9h1.5v-2.2c0-1,0.9-1.2,1.5-1.1v-1.7
	C62.9,161.1,62.3,161.4,62.1,162z M64.8,164.3c0,1.4,0.6,1.9,2.5,1.7v-1.3c-0.6,0-1,0-1-0.4v-1.7h1v-1.4h-1v-1.4l-1.5,0.4v0.9H64
	v1.4h0.8V164.3z M71.1,162.7v-1.7c-0.6,0-1.3,0.3-1.5,1v-0.9h-1.5v4.9h1.5v-2.2C69.6,162.9,70.5,162.6,71.1,162.7z M74.3,160
	c0,0.4,0.3,0.7,0.7,0.7c0.4,0,0.7-0.3,0.7-0.7c0-0.4-0.3-0.7-0.7-0.7C74.6,159.3,74.3,159.6,74.3,160z M72.5,160
	c0,0.4,0.3,0.7,0.7,0.7c0.4,0,0.7-0.3,0.7-0.7c0-0.4-0.3-0.7-0.7-0.7C72.8,159.3,72.5,159.6,72.5,160z M75.2,161.1h1.5v4.9h-1.5
	v-0.5c-0.3,0.4-0.8,0.6-1.5,0.6c-1.3,0-2.3-1.1-2.3-2.6s1.1-2.6,2.3-2.6c0.7,0,1.1,0.2,1.5,0.6V161.1z M75.2,163.6
	c0-0.7-0.5-1.2-1.2-1.2c-0.7,0-1.2,0.5-1.2,1.2s0.5,1.2,1.2,1.2C74.7,164.8,75.2,164.3,75.2,163.6z M81.3,165.8v-0.4
	c-0.3,0.4-0.8,0.6-1.4,0.6c-1.4,0-2.4-1.1-2.4-2.5s1-2.5,2.4-2.5c0.6,0,1.1,0.2,1.4,0.6v-0.5h1.4v4.6c0,1.6-1.3,2.3-2.6,2.3
	c-1,0-1.9-0.4-2.3-1.2l1.2-0.7c0.2,0.3,0.5,0.6,1.1,0.6C80.9,166.8,81.3,166.5,81.3,165.8z M81.3,163.5c0-0.7-0.5-1.1-1.2-1.1
	c-0.7,0-1.2,0.5-1.2,1.1s0.5,1.1,1.2,1.1C80.8,164.6,81.3,164.2,81.3,163.5z M83.5,163.6c0-1.5,1.1-2.6,2.6-2.6
	c1.4,0,2.5,1.1,2.5,2.6c0,0.2,0,0.4-0.1,0.6h-3.5c0.2,0.5,0.6,0.7,1.2,0.7c0.4,0,0.7-0.2,0.9-0.4l1.2,0.7c-0.5,0.7-1.2,1-2.1,1
	C84.6,166.2,83.5,165,83.5,163.6z M85.1,163.1h2.1c-0.2-0.6-0.6-0.8-1-0.8C85.6,162.3,85.2,162.6,85.1,163.1z M19,173.2h-1.8l-2.1,3
	v-3h-1.6v6.8h1.6v-3.2l2.2,3.2h1.8l-2.4-3.5L19,173.2z M24.1,177.6c0,0.2,0,0.4-0.1,0.6h-3.5c0.2,0.5,0.6,0.7,1.2,0.7
	c0.4,0,0.7-0.2,0.9-0.4l1.2,0.7c-0.5,0.7-1.2,1-2.1,1c-1.7,0-2.7-1.1-2.7-2.6s1.1-2.6,2.6-2.6C23,175,24.1,176.1,24.1,177.6z
	 M22.6,177.1c-0.2-0.6-0.6-0.8-1-0.8c-0.6,0-0.9,0.3-1.1,0.8H22.6z M27.8,175c-0.6,0-1.1,0.2-1.4,0.6v-0.5h-1.5v4.9h1.5v-2.7
	c0-0.7,0.4-1,0.9-1c0.5,0,0.8,0.3,0.8,0.9v2.8h1.5v-3C29.6,175.7,28.7,175,27.8,175z M33.4,175c-0.6,0-1.1,0.2-1.4,0.6v-0.5h-1.5
	v4.9H32v-2.7c0-0.7,0.4-1,0.9-1c0.5,0,0.8,0.3,0.8,0.9v2.8h1.5v-3C35.3,175.7,34.4,175,33.4,175z M41.1,177.6c0,0.2,0,0.4-0.1,0.6
	h-3.5c0.2,0.5,0.6,0.7,1.2,0.7c0.4,0,0.7-0.2,0.9-0.4l1.2,0.7c-0.5,0.7-1.2,1-2.1,1c-1.7,0-2.7-1.1-2.7-2.6s1.1-2.6,2.6-2.6
	C40,175,41.1,176.1,41.1,177.6z M39.6,177.1c-0.2-0.6-0.6-0.8-1-0.8c-0.6,0-0.9,0.3-1.1,0.8H39.6z M47.9,173.2h1.5v6.8h-1.5v-0.5
	c-0.3,0.4-0.8,0.6-1.5,0.6c-1.3,0-2.3-1.1-2.3-2.6s1.1-2.6,2.3-2.6c0.7,0,1.1,0.2,1.5,0.6V173.2z M47.9,177.6c0-0.7-0.5-1.2-1.2-1.2
	c-0.7,0-1.2,0.5-1.2,1.2s0.5,1.2,1.2,1.2C47.4,178.8,47.9,178.3,47.9,177.6z M55.3,177.6c0,0.2,0,0.4-0.1,0.6h-3.5
	c0.2,0.5,0.6,0.7,1.2,0.7c0.4,0,0.7-0.2,0.9-0.4l1.2,0.7c-0.5,0.7-1.2,1-2.1,1c-1.7,0-2.7-1.1-2.7-2.6s1.1-2.6,2.6-2.6
	C54.2,175,55.3,176.1,55.3,177.6z M53.8,177.1c-0.2-0.6-0.6-0.8-1-0.8c-0.6,0-0.9,0.3-1.1,0.8H53.8z M56.8,173
	c-0.5,0-0.9,0.4-0.9,0.9s0.4,0.9,0.9,0.9c0.5,0,0.9-0.4,0.9-0.9S57.3,173,56.8,173z M56.1,180h1.5v-4.9h-1.5V180z M61.5,175
	c-0.6,0-1.1,0.2-1.4,0.6v-0.5h-1.5v4.9h1.5v-2.7c0-0.7,0.4-1,0.9-1c0.5,0,0.8,0.3,0.8,0.9v2.8h1.5v-3C63.3,175.7,62.5,175,61.5,175z
	 M69.2,177.6c0,0.2,0,0.4-0.1,0.6h-3.5c0.2,0.5,0.6,0.7,1.2,0.7c0.4,0,0.7-0.2,0.9-0.4l1.2,0.7c-0.5,0.7-1.2,1-2.1,1
	c-1.7,0-2.7-1.1-2.7-2.6s1.1-2.6,2.6-2.6C68.1,175,69.2,176.1,69.2,177.6z M67.7,177.1c-0.2-0.6-0.6-0.8-1-0.8
	c-0.6,0-0.9,0.3-1.1,0.8H67.7z M72.8,175c-0.6,0-1.1,0.2-1.4,0.6v-0.5H70v4.9h1.5v-2.7c0-0.7,0.4-1,0.9-1c0.5,0,0.8,0.3,0.8,0.9v2.8
	h1.5v-3C74.7,175.7,73.8,175,72.8,175z M83.6,173.2h-1.8l-2.1,3v-3h-1.6v6.8h1.6v-3.2l2.2,3.2h1.8l-2.4-3.5L83.6,173.2z M87.2,177.8
	c0,0.7-0.4,1-0.9,1c-0.5,0-0.8-0.3-0.8-0.9v-2.8H84v3c0,1.3,0.8,2,1.8,2c0.6,0,1.1-0.2,1.4-0.6v0.5h1.5v-4.9h-1.5V177.8z M92.6,175
	c-0.6,0-1.1,0.2-1.4,0.6v-0.5h-1.5v4.9h1.5v-2.7c0-0.7,0.4-1,0.9-1c0.5,0,0.8,0.3,0.8,0.9v2.8h1.5v-3C94.4,175.7,93.6,175,92.6,175z
	 M98.9,173.2h1.5v6.8h-1.5v-0.5c-0.3,0.4-0.8,0.6-1.5,0.6c-1.3,0-2.3-1.1-2.3-2.6s1.1-2.6,2.3-2.6c0.7,0,1.1,0.2,1.5,0.6V173.2z
	 M98.9,177.6c0-0.7-0.5-1.2-1.2-1.2s-1.2,0.5-1.2,1.2s0.5,1.2,1.2,1.2S98.9,178.3,98.9,177.6z M106.3,177.6c0,0.2,0,0.4-0.1,0.6
	h-3.5c0.2,0.5,0.6,0.7,1.2,0.7c0.4,0,0.7-0.2,0.9-0.4l1.2,0.7c-0.5,0.7-1.2,1-2.1,1c-1.7,0-2.7-1.1-2.7-2.6s1.1-2.6,2.6-2.6
	C105.3,175,106.3,176.1,106.3,177.6z M104.9,177.1c-0.2-0.6-0.6-0.8-1-0.8c-0.6,0-0.9,0.3-1.1,0.8H104.9z M110,175
	c-0.6,0-1.1,0.2-1.4,0.6v-0.5h-1.5v4.9h1.5v-2.7c0-0.7,0.4-1,0.9-1c0.5,0,0.8,0.3,0.8,0.9v2.8h1.5v-3C111.8,175.7,111,175,110,175z
	 M120.4,107.5h2.5V106h-2.5v-1.3h2.6v-1.5h-4.1v6.8h1.6V107.5z M124.6,104.7c0.5,0,0.9-0.4,0.9-0.9s-0.4-0.9-0.9-0.9
	c-0.5,0-0.9,0.4-0.9,0.9S124.1,104.7,124.6,104.7z M123.8,110h1.5v-4.9h-1.5V110z M126.1,107.6c0-1.5,1.1-2.6,2.3-2.6
	c0.7,0,1.1,0.2,1.5,0.6v-0.5h1.5v4.9h-1.5v-0.5c-0.3,0.4-0.8,0.6-1.5,0.6C127.2,110.2,126.1,109,126.1,107.6z M127.6,107.6
	c0,0.7,0.5,1.2,1.2,1.2s1.2-0.5,1.2-1.2s-0.5-1.2-1.2-1.2S127.6,106.9,127.6,107.6z M132.8,108.3c0,1.4,0.6,1.9,2.5,1.7v-1.3
	c-0.6,0-1,0-1-0.4v-1.7h1v-1.4h-1v-1.4l-1.5,0.4v0.9h-0.8v1.4h0.8V108.3z M139.9,106.4h-3.7v1.4h3.7V106.4z M143.4,110l0.8-2.6
	l0.8,2.6h1.4l1.6-4.9h-1.6l-0.7,2.6l-0.8-2.6h-1.4l-0.8,2.6l-0.7-2.6h-1.6l1.6,4.9H143.4z M151.6,104.8c0.4,0,0.7-0.3,0.7-0.7
	c0-0.4-0.3-0.7-0.7-0.7c-0.4,0-0.7,0.3-0.7,0.7C150.9,104.4,151.2,104.8,151.6,104.8z M149.8,104.8c0.4,0,0.7-0.3,0.7-0.7
	c0-0.4-0.3-0.7-0.7-0.7c-0.4,0-0.7,0.3-0.7,0.7C149.1,104.4,149.4,104.8,149.8,104.8z M148,107.6c0-1.5,1.1-2.6,2.3-2.6
	c0.7,0,1.1,0.2,1.5,0.6v-0.5h1.5v4.9h-1.5v-0.5c-0.3,0.4-0.8,0.6-1.5,0.6C149,110.2,148,109,148,107.6z M149.5,107.6
	c0,0.7,0.5,1.2,1.2,1.2s1.2-0.5,1.2-1.2s-0.5-1.2-1.2-1.2S149.5,106.9,149.5,107.6z M155.8,107.4c0-0.7,0.4-1,0.9-1
	c0.5,0,0.8,0.3,0.8,0.9v2.8h1.5v-3c0-1.3-0.8-2-1.8-2c-0.6,0-1.1,0.2-1.4,0.6v-2.4h-1.5v6.8h1.5V107.4z M161.5,107.8
	c0-1,0.9-1.2,1.5-1.1v-1.7c-0.6,0-1.3,0.3-1.5,1v-0.9H160v4.9h1.5V107.8z M165.4,110.2c0.6,0,1.1-0.2,1.4-0.6v0.5h1.5v-4.9h-1.5v2.7
	c0,0.7-0.4,1-0.9,1c-0.5,0-0.8-0.3-0.8-0.9v-2.8h-1.5v3C163.5,109.5,164.4,110.2,165.4,110.2z M170.8,107.4c0-0.7,0.4-1,0.9-1
	c0.5,0,0.8,0.3,0.8,0.9v2.8h1.5v-3c0-1.3-0.8-2-1.8-2c-0.6,0-1.1,0.2-1.4,0.6v-0.5h-1.5v4.9h1.5V107.4z M174.7,107.5
	c0-1.3,1-2.5,2.4-2.5c0.6,0,1.1,0.2,1.4,0.6v-0.5h1.4v4.6c0,1.6-1.3,2.3-2.6,2.3c-1,0-1.9-0.4-2.3-1.2l1.2-0.7
	c0.2,0.3,0.5,0.6,1.1,0.6c0.7,0,1.1-0.4,1.1-1v-0.4c-0.3,0.4-0.8,0.6-1.4,0.6C175.8,110,174.7,108.8,174.7,107.5z M176.2,107.5
	c0,0.7,0.5,1.1,1.2,1.1s1.2-0.5,1.2-1.1s-0.5-1.1-1.2-1.1S176.2,106.8,176.2,107.5z M180.8,107.6c0-1.5,1.1-2.6,2.6-2.6
	c1.4,0,2.5,1.1,2.5,2.6c0,0.2,0,0.4-0.1,0.6h-3.5c0.2,0.5,0.6,0.7,1.2,0.7c0.4,0,0.7-0.2,0.9-0.4l1.2,0.7c-0.5,0.7-1.2,1-2.1,1
	C181.8,110.2,180.8,109,180.8,107.6z M182.3,107.1h2.1c-0.2-0.6-0.6-0.8-1-0.8C182.8,106.3,182.5,106.6,182.3,107.1z M188.2,107.4
	c0-0.7,0.4-1,0.9-1c0.5,0,0.8,0.3,0.8,0.9v2.8h1.5v-3c0-1.3-0.8-2-1.8-2c-0.6,0-1.1,0.2-1.4,0.6v-0.5h-1.5v4.9h1.5V107.4z
	 M122.5,121.6h1.8c-0.2,0.7-0.8,1.1-1.7,1.1c-1.3,0-2.1-0.8-2.1-2c0-1.2,0.9-2,2-2c0.8,0,1.4,0.4,1.7,0.8l1.3-0.8
	c-0.6-0.9-1.7-1.6-3-1.6c-2,0-3.6,1.6-3.6,3.6c0,2,1.5,3.5,3.7,3.5c1.9,0,3.4-1.3,3.4-3.4v-0.6h-3.4V121.6z M131.6,121.6
	c0,0.2,0,0.4-0.1,0.6h-3.5c0.2,0.5,0.6,0.7,1.2,0.7c0.4,0,0.7-0.2,0.9-0.4l1.2,0.7c-0.5,0.7-1.2,1-2.1,1c-1.7,0-2.7-1.1-2.7-2.6
	s1.1-2.6,2.6-2.6C130.5,119,131.6,120.1,131.6,121.6z M130.1,121.1c-0.2-0.6-0.6-0.8-1-0.8c-0.6,0-0.9,0.3-1.1,0.8H130.1z
	 M135.3,124.2c-0.7,0-1.1-0.2-1.5-0.6v2.4h-1.5v-6.8h1.5v0.5c0.3-0.4,0.8-0.6,1.5-0.6c1.3,0,2.3,1.1,2.3,2.6
	S136.6,124.2,135.3,124.2z M136.2,121.6c0-0.7-0.5-1.2-1.2-1.2s-1.2,0.5-1.2,1.2s0.5,1.2,1.2,1.2S136.2,122.3,136.2,121.6z
	 M138.5,119.1v4.9h1.5v-2.2c0-1,0.9-1.2,1.5-1.1v-1.7c-0.6,0-1.3,0.3-1.5,1v-0.9H138.5z M146,118c0-0.4-0.3-0.7-0.7-0.7
	c-0.4,0-0.7,0.3-0.7,0.7c0,0.4,0.3,0.7,0.7,0.7C145.7,118.8,146,118.4,146,118z M146.7,124v-4.9h-1.5v2.7c0,0.7-0.4,1-0.9,1
	c-0.5,0-0.8-0.3-0.8-0.9v-2.8H142v3c0,1.3,0.8,2,1.8,2c0.6,0,1.1-0.2,1.4-0.6v0.5H146.7z M144.2,118c0-0.4-0.3-0.7-0.7-0.7
	c-0.4,0-0.7,0.3-0.7,0.7c0,0.4,0.3,0.7,0.7,0.7C143.8,118.8,144.2,118.4,144.2,118z M150.5,118.5v-1.4c-1.6-0.1-2.4,0.7-2.4,2.1
	h-0.7v1.4h0.7v3.5h1.5v-3.5h0.9v-1.4h-0.9C149.6,118.6,149.9,118.4,150.5,118.5z M153,117.8l-1.5,0.4v0.9h-0.8v1.4h0.8v1.7
	c0,1.4,0.6,1.9,2.5,1.7v-1.3c-0.6,0-1,0-1-0.4v-1.7h1v-1.4h-1V117.8z M159.6,121.6c0,0.2,0,0.4-0.1,0.6H156c0.2,0.5,0.6,0.7,1.2,0.7
	c0.4,0,0.7-0.2,0.9-0.4l1.2,0.7c-0.5,0.7-1.2,1-2.1,1c-1.7,0-2.7-1.1-2.7-2.6s1.1-2.6,2.6-2.6C158.5,119,159.6,120.1,159.6,121.6z
	 M158.1,121.1c-0.2-0.6-0.6-0.8-1-0.8c-0.6,0-0.9,0.3-1.1,0.8H158.1z M167.5,117.2h-5.1v1.5h1.8v5.3h1.6v-5.3h1.8V117.2z
	 M167.5,119.1v4.9h1.5v-2.2c0-1,0.9-1.2,1.5-1.1v-1.7c-0.6,0-1.3,0.3-1.5,1v-0.9H167.5z M173.1,119c0.7,0,1.1,0.2,1.5,0.6v-0.5h1.5
	v4.9h-1.5v-0.5c-0.3,0.4-0.8,0.6-1.5,0.6c-1.3,0-2.3-1.1-2.3-2.6S171.8,119,173.1,119z M173.4,120.4c-0.7,0-1.2,0.5-1.2,1.2
	s0.5,1.2,1.2,1.2s1.2-0.5,1.2-1.2S174,120.4,173.4,120.4z M179.1,119c0.7,0,1.1,0.2,1.5,0.6v-2.4h1.5v6.8h-1.5v-0.5
	c-0.3,0.4-0.8,0.6-1.5,0.6c-1.3,0-2.3-1.1-2.3-2.6S177.9,119,179.1,119z M179.4,120.4c-0.7,0-1.2,0.5-1.2,1.2s0.5,1.2,1.2,1.2
	s1.2-0.5,1.2-1.2S180.1,120.4,179.4,120.4z M185.6,124.2c-1.7,0-2.7-1.1-2.7-2.6s1.1-2.6,2.6-2.6c1.4,0,2.5,1.1,2.5,2.6
	c0,0.2,0,0.4-0.1,0.6h-3.5c0.2,0.5,0.6,0.7,1.2,0.7c0.4,0,0.7-0.2,0.9-0.4l1.2,0.7C187.2,123.8,186.5,124.2,185.6,124.2z
	 M184.4,121.1h2.1c-0.2-0.6-0.6-0.8-1-0.8C184.9,120.3,184.6,120.6,184.4,121.1z M190.3,120v-0.9h-1.5v4.9h1.5v-2.2
	c0-1,0.9-1.2,1.5-1.1v-1.7C191.1,119.1,190.5,119.4,190.3,120z M135.9,132.7h1.8v5.3h1.6v-5.3h1.8v-1.5h-5.1V132.7z M142.5,134v-0.9
	h-1.5v4.9h1.5v-2.2c0-1,0.9-1.2,1.5-1.1v-1.7C143.4,133.1,142.7,133.4,142.5,134z M144.3,135.6c0-1.5,1.1-2.6,2.3-2.6
	c0.7,0,1.1,0.2,1.5,0.6v-0.5h1.5v4.9h-1.5v-0.5c-0.3,0.4-0.8,0.6-1.5,0.6C145.3,138.2,144.3,137,144.3,135.6z M145.7,135.6
	c0,0.7,0.5,1.2,1.2,1.2s1.2-0.5,1.2-1.2s-0.5-1.2-1.2-1.2S145.7,134.9,145.7,135.6z M150.6,133.1v4.9h1.5v-2.7c0-0.7,0.4-1,0.9-1
	c0.5,0,0.8,0.3,0.8,0.9v2.8h1.5v-3c0-1.3-0.8-2-1.8-2c-0.6,0-1.1,0.2-1.4,0.6v-0.5H150.6z M156.2,134.6c0,1.7,2.4,1.4,2.4,1.9
	c0,0.2-0.2,0.3-0.5,0.3c-0.4,0-0.7-0.2-0.8-0.6l-1.3,0.7c0.4,0.8,1.1,1.2,2.1,1.2c1.1,0,2-0.5,2-1.6c0-1.8-2.4-1.4-2.4-2
	c0-0.2,0.2-0.3,0.4-0.3c0.3,0,0.5,0.2,0.7,0.4l1.2-0.7c-0.4-0.7-1.1-1-1.9-1C157.1,133,156.2,133.5,156.2,134.6z M166.1,135.6
	c0,1.5-1.1,2.6-2.3,2.6c-0.7,0-1.1-0.2-1.5-0.6v2.4h-1.5v-6.8h1.5v0.5c0.3-0.4,0.8-0.6,1.5-0.6C165,133,166.1,134.1,166.1,135.6z
	 M164.6,135.6c0-0.7-0.5-1.2-1.2-1.2s-1.2,0.5-1.2,1.2s0.5,1.2,1.2,1.2S164.6,136.3,164.6,135.6z M166.7,135.6
	c0-1.5,1.1-2.6,2.3-2.6c0.7,0,1.1,0.2,1.5,0.6v-0.5h1.5v4.9h-1.5v-0.5c-0.3,0.4-0.8,0.6-1.5,0.6C167.7,138.2,166.7,137,166.7,135.6z
	 M168.2,135.6c0,0.7,0.5,1.2,1.2,1.2s1.2-0.5,1.2-1.2s-0.5-1.2-1.2-1.2S168.2,134.9,168.2,135.6z M173,133.1v4.9h1.5v-2.2
	c0-1,0.9-1.2,1.5-1.1v-1.7c-0.6,0-1.3,0.3-1.5,1v-0.9H173z M181.2,136.2h-3.5c0.2,0.5,0.6,0.7,1.2,0.7c0.4,0,0.7-0.2,0.9-0.4
	l1.2,0.7c-0.5,0.7-1.2,1-2.1,1c-1.7,0-2.7-1.1-2.7-2.6s1.1-2.6,2.6-2.6c1.4,0,2.5,1.1,2.5,2.6C181.3,135.8,181.3,136,181.2,136.2z
	 M179.8,135.1c-0.2-0.6-0.6-0.8-1-0.8c-0.6,0-0.9,0.3-1.1,0.8H179.8z M186.8,135c0-1.3-0.8-2-1.8-2c-0.6,0-1.1,0.2-1.4,0.6v-0.5
	h-1.5v4.9h1.5v-2.7c0-0.7,0.4-1,0.9-1c0.5,0,0.8,0.3,0.8,0.9v2.8h1.5V135z M191.4,133.1h-3.7v1.4h1.7l-1.8,2.5v1h3.9v-1.4h-1.9
	l1.8-2.5V133.1z M148,148.2l-1.9-3h-1.6v6.8h1.6v-4l1.8,2.9h0.2l1.8-2.9v4h1.6v-6.8h-1.6L148,148.2z M154.3,152.2
	c0.6,0,1.1-0.2,1.4-0.6v0.5h1.5v-4.9h-1.5v2.7c0,0.7-0.4,1-0.9,1c-0.5,0-0.8-0.3-0.8-0.9v-2.8h-1.5v3
	C152.5,151.5,153.3,152.2,154.3,152.2z M159.7,144.9h-1.5v7.1h1.5V144.9z M161.1,146.2v0.9h-0.8v1.4h0.8v1.7c0,1.4,0.6,1.9,2.5,1.7
	v-1.3c-0.6,0-1,0-1-0.4v-1.7h1v-1.4h-1v-1.4L161.1,146.2z M165.9,147.1h-1.5v4.9h1.5V147.1z M165.2,145c-0.5,0-0.9,0.4-0.9,0.9
	s0.4,0.9,0.9,0.9s0.9-0.4,0.9-0.9S165.7,145,165.2,145z M168.4,152H167v-6.8h1.5v2.4c0.3-0.4,0.8-0.6,1.5-0.6c1.3,0,2.3,1.1,2.3,2.6
	s-1.1,2.6-2.3,2.6c-0.7,0-1.1-0.2-1.5-0.6V152z M168.4,149.6c0,0.7,0.5,1.2,1.2,1.2s1.2-0.5,1.2-1.2s-0.5-1.2-1.2-1.2
	S168.4,148.9,168.4,149.6z M175.4,152.2c-1.4,0-2.6-1.1-2.6-2.6s1.2-2.6,2.6-2.6c1.4,0,2.6,1.1,2.6,2.6S176.8,152.2,175.4,152.2z
	 M175.4,150.7c0.6,0,1.1-0.5,1.1-1.2s-0.5-1.2-1.1-1.2s-1.1,0.5-1.1,1.2S174.8,150.7,175.4,150.7z M175.6,145.9
	c0,0.4,0.3,0.7,0.7,0.7s0.7-0.3,0.7-0.7s-0.3-0.7-0.7-0.7S175.6,145.5,175.6,145.9z M173.7,145.9c0,0.4,0.3,0.7,0.7,0.7
	s0.7-0.3,0.7-0.7s-0.3-0.7-0.7-0.7S173.7,145.5,173.7,145.9z M180.3,149.8c0-1,0.9-1.2,1.5-1.1v-1.7c-0.6,0-1.3,0.3-1.5,1v-0.9h-1.5
	v4.9h1.5V149.8z M186.1,150.6c0-1.8-2.4-1.4-2.4-2c0-0.2,0.2-0.3,0.4-0.3c0.3,0,0.5,0.2,0.7,0.4l1.2-0.7c-0.4-0.7-1.1-1-1.9-1
	c-1,0-1.9,0.5-1.9,1.6c0,1.7,2.4,1.4,2.4,1.9c0,0.2-0.2,0.3-0.5,0.3c-0.4,0-0.7-0.2-0.8-0.6l-1.3,0.7c0.4,0.8,1.1,1.2,2.1,1.2
	C185.1,152.2,186.1,151.7,186.1,150.6z M191.6,149.6c0,0.2,0,0.4-0.1,0.6h-3.5c0.2,0.5,0.6,0.7,1.2,0.7c0.4,0,0.7-0.2,0.9-0.4
	l1.2,0.7c-0.5,0.7-1.2,1-2.1,1c-1.7,0-2.7-1.1-2.7-2.6s1.1-2.6,2.6-2.6C190.5,147,191.6,148.1,191.6,149.6z M190.1,149.1
	c-0.2-0.6-0.6-0.8-1-0.8c-0.6,0-0.9,0.3-1.1,0.8H190.1z M149.2,161.9c-1.1-0.3-1.2-0.5-1.2-0.8c0-0.3,0.2-0.5,0.7-0.5
	c0.6,0,0.9,0.3,1.2,0.8l1.3-0.8c-0.5-1-1.4-1.5-2.5-1.5c-1.2,0-2.3,0.8-2.3,2.1c0,1.3,1,1.8,2,2.1c1,0.3,1.4,0.4,1.4,0.9
	c0,0.3-0.2,0.6-0.9,0.6c-0.8,0-1.2-0.4-1.4-0.9l-1.3,0.8c0.4,1,1.3,1.7,2.7,1.7c1.5,0,2.5-0.8,2.5-2.1
	C151.4,162.6,150.2,162.3,149.2,161.9z M152.8,160.7c0.5,0,0.9-0.4,0.9-0.9s-0.4-0.9-0.9-0.9c-0.5,0-0.9,0.4-0.9,0.9
	S152.4,160.7,152.8,160.7z M152.1,166h1.5v-4.9h-1.5V166z M157,162.5c0.4,0,0.8,0.2,0.9,0.5l1.3-0.7c-0.4-0.8-1.3-1.2-2.2-1.2
	c-1.5,0-2.6,1.1-2.6,2.6s1.1,2.6,2.6,2.6c1,0,1.8-0.5,2.2-1.3l-1.3-0.7c-0.2,0.3-0.5,0.5-0.9,0.5c-0.6,0-1.1-0.5-1.1-1.1
	S156.3,162.5,157,162.5z M164.5,166v-3c0-1.3-0.8-2-1.8-2c-0.6,0-1.1,0.2-1.4,0.6v-2.4h-1.5v6.8h1.5v-2.7c0-0.7,0.4-1,0.9-1
	c0.5,0,0.8,0.3,0.8,0.9v2.8H164.5z M170.3,163.6c0,0.2,0,0.4-0.1,0.6h-3.5c0.2,0.5,0.6,0.7,1.2,0.7c0.4,0,0.7-0.2,0.9-0.4l1.2,0.7
	c-0.5,0.7-1.2,1-2.1,1c-1.7,0-2.7-1.1-2.7-2.6s1.1-2.6,2.6-2.6C169.2,161,170.3,162.1,170.3,163.6z M168.8,163.1
	c-0.2-0.6-0.6-0.8-1-0.8c-0.6,0-0.9,0.3-1.1,0.8H168.8z M172.6,163.8c0-1,0.9-1.2,1.5-1.1v-1.7c-0.6,0-1.3,0.3-1.5,1v-0.9h-1.5v4.9
	h1.5V163.8z M179.4,166v-3c0-1.3-0.8-2-1.8-2c-0.6,0-1.1,0.2-1.4,0.6v-2.4h-1.5v6.8h1.5v-2.7c0-0.7,0.4-1,0.9-1
	c0.5,0,0.8,0.3,0.8,0.9v2.8H179.4z M185.2,164.2h-3.5c0.2,0.5,0.6,0.7,1.2,0.7c0.4,0,0.7-0.2,0.9-0.4l1.2,0.7c-0.5,0.7-1.2,1-2.1,1
	c-1.7,0-2.7-1.1-2.7-2.6s1.1-2.6,2.6-2.6c1.4,0,2.5,1.1,2.5,2.6C185.3,163.8,185.2,164,185.2,164.2z M183.8,163.1
	c-0.2-0.6-0.6-0.8-1-0.8c-0.6,0-0.9,0.3-1.1,0.8H183.8z M186.8,159c-0.5,0-0.9,0.4-0.9,0.9s0.4,0.9,0.9,0.9s0.9-0.4,0.9-0.9
	S187.3,159,186.8,159z M186.1,166h1.5v-4.9h-1.5V166z M190.5,159.8l-1.5,0.4v0.9h-0.8v1.4h0.8v1.7c0,1.4,0.6,1.9,2.5,1.7v-1.3
	c-0.6,0-1,0-1-0.4v-1.7h1v-1.4h-1V159.8z M158,173.2l2.3,6.8h-1.7l-0.3-1.1h-2.5l-0.3,1.1h-1.7l2.3-6.8H158z M157.8,177.5L157,175
	l-0.8,2.5H157.8z M163.9,177.8c0,0.7-0.4,1-0.9,1c-0.5,0-0.8-0.3-0.8-0.9v-2.8h-1.5v3c0,1.3,0.8,2,1.8,2c0.6,0,1.1-0.2,1.4-0.6v0.5
	h1.5v-4.9h-1.5V177.8z M167.8,176.6c0-0.2,0.2-0.3,0.4-0.3c0.3,0,0.5,0.2,0.7,0.4l1.2-0.7c-0.4-0.7-1.1-1-1.9-1
	c-1,0-1.9,0.5-1.9,1.6c0,1.7,2.4,1.4,2.4,1.9c0,0.2-0.2,0.3-0.5,0.3c-0.4,0-0.7-0.2-0.8-0.6l-1.3,0.7c0.4,0.8,1.1,1.2,2.1,1.2
	c1.1,0,2-0.5,2-1.6C170.2,176.8,167.8,177.1,167.8,176.6z M175.4,177.8l-0.8-2.6h-1.4l-0.8,2.6l-0.7-2.6h-1.6l1.6,4.9h1.4l0.8-2.6
	l0.8,2.6h1.4l1.6-4.9h-1.6L175.4,177.8z M181.6,175.1h1.5v4.9h-1.5v-0.5c-0.3,0.4-0.8,0.6-1.5,0.6c-1.3,0-2.3-1.1-2.3-2.6
	s1.1-2.6,2.3-2.6c0.7,0,1.1,0.2,1.5,0.6V175.1z M181.6,177.6c0-0.7-0.5-1.2-1.2-1.2s-1.2,0.5-1.2,1.2s0.5,1.2,1.2,1.2
	S181.6,178.3,181.6,177.6z M187,175c-0.6,0-1.1,0.2-1.4,0.6v-2.4h-1.5v6.8h1.5v-2.7c0-0.7,0.4-1,0.9-1c0.5,0,0.8,0.3,0.8,0.9v2.8
	h1.5v-3C188.9,175.7,188,175,187,175z M189.9,180h1.5v-7.1h-1.5V180z"/>
<path class="st3" d="M37.3,22.3h-1.4V16h3.8v1.4h-2.4v1.2h2.3v1.4h-2.3V22.3z M42.7,22.4c-1.3,0-2.4-1-2.4-2.4
	c0-1.3,1.1-2.4,2.4-2.4s2.4,1,2.4,2.4C45.1,21.4,44,22.4,42.7,22.4z M43.7,20c0-0.6-0.4-1.1-1-1.1c-0.6,0-1,0.4-1,1.1
	c0,0.6,0.5,1.1,1,1.1C43.3,21.1,43.7,20.6,43.7,20z M47.2,19.8c0-0.6,0.3-0.9,0.8-0.9c0.4,0,0.8,0.3,0.8,0.8v2.6h1.4v-2.8
	c0-1.2-0.8-1.9-1.7-1.9c-0.6,0-1,0.2-1.3,0.5v-0.4h-1.4v4.5h1.4V19.8z M50.9,20c0-1.3,1-2.4,2.2-2.4c0.6,0,1,0.2,1.3,0.5V16h1.4v6.3
	h-1.4v-0.4c-0.3,0.3-0.7,0.5-1.3,0.5C51.8,22.4,50.9,21.4,50.9,20z M52.2,20c0,0.7,0.5,1.1,1.1,1.1s1.1-0.4,1.1-1.1
	c0-0.7-0.5-1.1-1.1-1.1S52.2,19.3,52.2,20z M60.1,20.9c0-1.7-2.2-1.3-2.2-1.8c0-0.2,0.1-0.3,0.4-0.3c0.3,0,0.5,0.2,0.6,0.4l1.2-0.6
	c-0.4-0.6-1-1-1.8-1c-0.9,0-1.8,0.5-1.8,1.5c0,1.6,2.2,1.3,2.2,1.8c0,0.2-0.2,0.3-0.5,0.3c-0.4,0-0.6-0.2-0.8-0.5l-1.2,0.7
	c0.4,0.7,1,1.1,1.9,1.1C59.2,22.4,60.1,21.9,60.1,20.9z M28.4,31c0,0.6-0.3,0.9-0.8,0.9c-0.4,0-0.8-0.3-0.8-0.8v-2.6h-1.4v2.8
	c0,1.2,0.8,1.9,1.7,1.9c0.6,0,1-0.2,1.3-0.5v0.4h1.4v-4.5h-1.4V31z M33.4,28.4c-0.6,0-1,0.2-1.3,0.5v-0.4h-1.4v4.5h1.4v-2.5
	c0-0.6,0.3-0.9,0.8-0.9c0.4,0,0.8,0.3,0.8,0.8v2.6h1.4v-2.8C35.1,29.1,34.3,28.4,33.4,28.4z M39.3,26.8h1.4v6.3h-1.4v-0.4
	C39,33,38.6,33.2,38,33.2c-1.2,0-2.2-1-2.2-2.4c0-1.3,1-2.4,2.2-2.4c0.6,0,1,0.2,1.3,0.5V26.8z M39.3,30.8c0-0.7-0.5-1.1-1.1-1.1
	s-1.1,0.4-1.1,1.1c0,0.7,0.5,1.1,1.1,1.1S39.3,31.5,39.3,30.8z M43.5,28.1h1.6v4.9h1.4v-4.9h1.6v-1.4h-4.7V28.1z M49.6,29.4v-0.8
	h-1.4v4.5h1.4v-2c0-0.9,0.8-1.1,1.4-1v-1.5C50.3,28.5,49.7,28.8,49.6,29.4z M54.7,28.6H56v4.5h-1.4v-0.4c-0.3,0.3-0.7,0.5-1.3,0.5
	c-1.2,0-2.2-1-2.2-2.4c0-1.3,1-2.4,2.2-2.4c0.6,0,1,0.2,1.3,0.5V28.6z M54.7,30.8c0-0.7-0.5-1.1-1.1-1.1s-1.1,0.4-1.1,1.1
	c0,0.7,0.5,1.1,1.1,1.1S54.7,31.5,54.7,30.8z M60.3,26.8h1.4v6.3h-1.4v-0.4c-0.3,0.3-0.7,0.5-1.3,0.5c-1.2,0-2.2-1-2.2-2.4
	c0-1.3,1-2.4,2.2-2.4c0.6,0,1,0.2,1.3,0.5V26.8z M60.3,30.8c0-0.7-0.5-1.1-1.1-1.1s-1.1,0.4-1.1,1.1c0,0.7,0.5,1.1,1.1,1.1
	S60.3,31.5,60.3,30.8z M67.1,30.8c0,0.2,0,0.4-0.1,0.5h-3.2c0.2,0.5,0.6,0.6,1.1,0.6c0.4,0,0.7-0.1,0.9-0.3l1.1,0.6
	c-0.4,0.6-1.1,0.9-2,0.9c-1.5,0-2.5-1-2.5-2.4c0-1.3,1-2.4,2.4-2.4C66.1,28.4,67.1,29.4,67.1,30.8z M65.7,30.3
	c-0.1-0.5-0.5-0.7-1-0.7c-0.5,0-0.9,0.3-1,0.7H65.7z M69.2,29.4v-0.8h-1.4v4.5h1.4v-2c0-0.9,0.8-1.1,1.4-1v-1.5
	C70,28.5,69.4,28.8,69.2,29.4z M138.4,27.7h1.4v-6.3h-1.4V27.7z M143.5,23c-0.6,0-1,0.2-1.3,0.5v-0.4h-1.4v4.5h1.4v-2.5
	c0-0.6,0.3-0.9,0.8-0.9c0.4,0,0.8,0.3,0.8,0.8v2.6h1.4v-2.8C145.2,23.7,144.5,23,143.5,23z M148,26l-0.9-2.9h-1.5l1.7,4.5h1.5
	l1.7-4.5h-1.5L148,26z M155.2,25.4c0,0.2,0,0.4-0.1,0.5H152c0.2,0.5,0.6,0.6,1.1,0.6c0.4,0,0.7-0.1,0.9-0.3l1.1,0.6
	c-0.4,0.6-1.1,0.9-2,0.9c-1.5,0-2.5-1-2.5-2.4c0-1.3,1-2.4,2.4-2.4C154.2,23,155.2,24.1,155.2,25.4z M153.9,24.9
	c-0.1-0.5-0.5-0.7-1-0.7c-0.5,0-0.9,0.3-1,0.7H153.9z M157.1,24.5c0-0.2,0.1-0.3,0.4-0.3c0.3,0,0.5,0.2,0.6,0.4l1.2-0.6
	c-0.4-0.6-1-1-1.8-1c-0.9,0-1.8,0.5-1.8,1.5c0,1.6,2.2,1.3,2.2,1.8c0,0.2-0.2,0.3-0.5,0.3c-0.4,0-0.6-0.2-0.8-0.5l-1.2,0.7
	c0.4,0.7,1,1.1,1.9,1.1c1,0,1.9-0.4,1.9-1.5C159.3,24.6,157.1,25,157.1,24.5z M161.5,21.9l-1.4,0.4v0.9h-0.7v1.3h0.7V26
	c0,1.3,0.5,1.8,2.3,1.6v-1.2c-0.6,0-0.9,0-0.9-0.4v-1.6h0.9v-1.3h-0.9V21.9z M167.7,25.4c0,1.3-1.1,2.4-2.4,2.4
	c-1.3,0-2.4-1-2.4-2.4c0-1.3,1.1-2.4,2.4-2.4C166.6,23,167.7,24.1,167.7,25.4z M166.3,25.4c0-0.6-0.5-1.1-1-1.1c-0.6,0-1,0.4-1,1.1
	s0.5,1.1,1,1.1C165.9,26.5,166.3,26,166.3,25.4z M169.8,24v-0.8h-1.4v4.5h1.4v-2c0-0.9,0.8-1.1,1.4-1v-1.5
	C170.6,23.1,170,23.4,169.8,24z M176.1,25.4c0,0.2,0,0.4-0.1,0.5h-3.2c0.2,0.5,0.6,0.6,1.1,0.6c0.4,0,0.7-0.1,0.9-0.3l1.1,0.6
	c-0.4,0.6-1.1,0.9-2,0.9c-1.5,0-2.5-1-2.5-2.4c0-1.3,1-2.4,2.4-2.4C175.1,23,176.1,24.1,176.1,25.4z M174.8,24.9
	c-0.1-0.5-0.5-0.7-1-0.7c-0.5,0-0.9,0.3-1,0.7H174.8z M179.5,23c-0.6,0-1,0.2-1.3,0.5v-0.4h-1.4v4.5h1.4v-2.5c0-0.6,0.3-0.9,0.8-0.9
	c0.4,0,0.8,0.3,0.8,0.8v2.6h1.4v-2.8C181.2,23.7,180.4,23,179.5,23z"/>
</svg>
