<?xml version="1.0" encoding="utf-8"?>
<!-- Generator: Adobe Illustrator 21.1.0, SVG Export Plug-In . SVG Version: 6.00 Build 0)  -->
<svg version="1.1" id="Layer_4" xmlns="http://www.w3.org/2000/svg" xmlns:xlink="http://www.w3.org/1999/xlink" x="0px" y="0px"
	 viewBox="0 0 214.3 204.9" style="enable-background:new 0 0 214.3 204.9;" xml:space="preserve">
<style type="text/css">
	.st0{fill:#FFFFFF;}
	.st1{fill:#25258D;}
	.st2{fill:#ABB4BB;}
	.st3{fill:#464F56;}
</style>
<path class="st0" d="M210.5,203.9H13.2c-1.6,0-2.8-1.3-2.8-2.8v-99.5c0-1.6,1.3-2.8,2.8-2.8h197.4c1.6,0,2.8,1.3,2.8,2.8v99.5
	C213.3,202.7,212.1,203.9,210.5,203.9z"/>
<path class="st1" d="M210.5,204.9H13.2c-2.1,0-3.8-1.7-3.8-3.8v-99.5c0-2.1,1.7-3.8,3.8-3.8h197.3c2.1,0,3.8,1.7,3.8,3.8v99.5
	C214.3,203.2,212.6,204.9,210.5,204.9z M13.2,99.8c-1,0-1.8,0.8-1.8,1.8v99.5c0,1,0.8,1.8,1.8,1.8h197.3c1,0,1.8-0.8,1.8-1.8v-99.5
	c0-1-0.8-1.8-1.8-1.8H13.2z"/>
<path class="st0" d="M205.9,199.3H8.6c-1.6,0-2.8-1.3-2.8-2.8V96.9c0-1.6,1.3-2.8,2.8-2.8H206c1.6,0,2.8,1.3,2.8,2.8v99.5
	C208.7,198,207.5,199.3,205.9,199.3z"/>
<path class="st1" d="M205.9,200.3H8.6c-2.1,0-3.8-1.7-3.8-3.8V96.9c0-2.1,1.7-3.8,3.8-3.8h197.3c2.1,0,3.8,1.7,3.8,3.8v99.5
	C209.7,198.6,208,200.3,205.9,200.3z M8.6,95.1c-1,0-1.8,0.8-1.8,1.8v99.5c0,1,0.8,1.8,1.8,1.8h197.3c1,0,1.8-0.8,1.8-1.8V96.9
	c0-1-0.8-1.8-1.8-1.8H8.6z"/>
<path class="st1" d="M201.2,88.4H3.8c-2.1,0-3.8,1.7-3.8,3.8v99.5c0,2.1,1.7,3.8,3.8,3.8h197.3c2.1,0,3.8-1.7,3.8-3.8V92.3
	C205,90.2,203.3,88.4,201.2,88.4z"/>
<path class="st2" d="M58.2,79.5h2.5l-3.5,6l-3.5-6h2.5V61.8c0-0.6,0.4-1,1-1s1,0.4,1,1V79.5z M169.6,79.5V61.8c0-0.6-0.4-1-1-1
	s-1,0.4-1,1v17.8h-2.5l3.5,6l3.5-6L169.6,79.5L169.6,79.5z"/>
<path class="st0" d="M101.2,58.4h-88c-1.6,0-2.8-1.3-2.8-2.8V13.2c0-1.6,1.3-2.8,2.8-2.8h88.1c1.6,0,2.8,1.3,2.8,2.8v42.4
	C104.1,57.2,102.8,58.4,101.2,58.4z"/>
<path class="st3" d="M101.2,59.4h-88c-2.1,0-3.8-1.7-3.8-3.8V13.2c0-2.1,1.7-3.8,3.8-3.8h88.1c2.1,0,3.8,1.7,3.8,3.8v42.4
	C105.1,57.7,103.4,59.4,101.2,59.4z M13.2,11.3c-1,0-1.8,0.8-1.8,1.8v42.4c0,1,0.8,1.8,1.8,1.8h88.1c1,0,1.8-0.8,1.8-1.8V13.2
	c0-1-0.8-1.8-1.8-1.8L13.2,11.3L13.2,11.3z"/>
<path class="st0" d="M96.6,53.8h-88c-1.6,0-2.8-1.3-2.8-2.8V8.5c0-1.6,1.3-2.8,2.8-2.8h88.1c1.6,0,2.8,1.3,2.8,2.8v42.4
	C99.5,52.5,98.2,53.8,96.6,53.8z"/>
<path class="st3" d="M96.7,54.8H8.6c-2.1,0-3.8-1.7-3.8-3.8V8.5c0-2.1,1.7-3.8,3.8-3.8h88.1c2.1,0,3.8,1.7,3.8,3.8v42.4
	C100.5,53,98.8,54.8,96.7,54.8z M8.6,6.7c-1,0-1.8,0.8-1.8,1.8v42.4c0,1,0.8,1.8,1.8,1.8h88.1c1,0,1.8-0.8,1.8-1.8V8.5
	c0-1-0.8-1.8-1.8-1.8H8.6z"/>
<path class="st0" d="M91.9,49.1H3.8c-1.6,0-2.8-1.3-2.8-2.8V3.8C1,2.3,2.3,1,3.8,1h88.1c1.6,0,2.8,1.3,2.8,2.8v42.4
	C94.8,47.8,93.5,49.1,91.9,49.1z"/>
<path class="st3" d="M91.9,50.1H3.8c-2.1,0-3.8-1.7-3.8-3.8V3.8C0,1.7,1.7,0,3.8,0h88.1c2.1,0,3.8,1.7,3.8,3.8v42.4
	C95.8,48.4,94,50.1,91.9,50.1z M3.8,2C2.8,2,2,2.8,2,3.8v42.4c0,1,0.8,1.8,1.8,1.8h88.1c1,0,1.8-0.8,1.8-1.8V3.8
	c0-1-0.8-1.8-1.8-1.8H3.8z"/>
<path class="st0" d="M210.5,58.4h-83.9c-1.6,0-2.8-1.3-2.8-2.8V13.2c0-1.6,1.3-2.8,2.8-2.8h83.9c1.6,0,2.8,1.3,2.8,2.8v42.4
	C213.3,57.2,212.1,58.4,210.5,58.4z"/>
<path class="st3" d="M210.5,59.4h-83.9c-2.1,0-3.8-1.7-3.8-3.8V13.2c0-2.1,1.7-3.8,3.8-3.8h83.9c2.1,0,3.8,1.7,3.8,3.8v42.4
	C214.3,57.7,212.6,59.4,210.5,59.4z M126.6,11.3c-1,0-1.8,0.8-1.8,1.8v42.4c0,1,0.8,1.8,1.8,1.8h83.9c1,0,1.8-0.8,1.8-1.8V13.2
	c0-1-0.8-1.8-1.8-1.8L126.6,11.3L126.6,11.3z"/>
<path class="st0" d="M206.2,53.8h-83.9c-1.6,0-2.8-1.3-2.8-2.8V8.5c0-1.6,1.3-2.8,2.8-2.8h83.9c1.6,0,2.8,1.3,2.8,2.8v42.4
	C209,52.5,207.7,53.8,206.2,53.8z"/>
<path class="st3" d="M206.2,54.8h-83.9c-2.1,0-3.8-1.7-3.8-3.8V8.5c0-2.1,1.7-3.8,3.8-3.8h83.9c2.1,0,3.8,1.7,3.8,3.8v42.4
	C210,53,208.3,54.8,206.2,54.8z M122.3,6.7c-1,0-1.8,0.8-1.8,1.8v42.4c0,1,0.8,1.8,1.8,1.8h83.9c1,0,1.8-0.8,1.8-1.8V8.5
	c0-1-0.8-1.8-1.8-1.8H122.3z"/>
<path class="st0" d="M201.7,49.1h-83.9c-1.6,0-2.8-1.3-2.8-2.8V3.8c0-1.6,1.3-2.8,2.8-2.8h83.9c1.6,0,2.8,1.3,2.8,2.8v42.4
	C204.5,47.8,203.2,49.1,201.7,49.1z"/>
<path class="st3" d="M201.7,50.1h-83.9c-2.1,0-3.8-1.7-3.8-3.8V3.8c0-2.1,1.7-3.8,3.8-3.8h83.9c2.1,0,3.8,1.7,3.8,3.8v42.4
	C205.5,48.4,203.8,50.1,201.7,50.1z M117.8,2c-1,0-1.8,0.8-1.8,1.8v42.4c0,1,0.8,1.8,1.8,1.8h83.9c1,0,1.8-0.8,1.8-1.8V3.8
	c0-1-0.8-1.8-1.8-1.8H117.8z"/>
<path class="st3" d="M147.4,24.5l-1.3,0.5v3.3c0,0.8-0.4,0.9-1.8,0.9c0-0.2-0.1-0.5-0.2-0.7c0.5,0,1,0,1.1,0c0.1,0,0.2-0.1,0.2-0.2
	v-3.1c-0.5,0.2-1,0.4-1.4,0.5c0,0.1-0.1,0.2-0.1,0.2l-0.3-0.9c0.5-0.1,1.1-0.3,1.8-0.5v-2.6h-1.7v-0.7h1.7v-2.2l0.9,0.1
	c0,0.1-0.1,0.1-0.2,0.2v2h1.3v0.7h-1.3v2.3l1.2-0.4L147.4,24.5z M152.7,23.7l0.5,0.2c0,0.1-0.1,0.1-0.1,0.1c-0.4,1.3-1.1,2.3-2,3.1
	c0.8,0.6,1.8,1.1,3,1.3c-0.2,0.2-0.4,0.4-0.5,0.7c-1.2-0.3-2.2-0.8-3.1-1.5c-0.9,0.7-2,1.2-3.1,1.5c-0.1-0.2-0.3-0.5-0.4-0.6
	c1.1-0.3,2.1-0.7,3-1.3c-0.7-0.7-1.2-1.5-1.6-2.5l0.6-0.2h-1v-0.7h4.6L152.7,23.7z M149.2,20.1v0.4c0,1-0.3,2.1-1.5,2.9
	c-0.1-0.2-0.4-0.4-0.5-0.5c1.1-0.7,1.3-1.7,1.3-2.4v-1.1h3.6v2.7c0,0.2,0,0.3,0.3,0.3h0.7c0.2,0,0.3-0.2,0.3-1.3
	c0.2,0.1,0.4,0.2,0.6,0.3c-0.1,1.4-0.2,1.7-0.8,1.7h-0.8c-0.7,0-0.9-0.2-0.9-0.9v-2H149.2z M149,24.4c0.4,0.9,0.9,1.6,1.5,2.3
	c0.7-0.6,1.3-1.4,1.6-2.3H149z"/>
<path class="st3" d="M154.7,22.1c0.8-0.2,2-0.5,3.1-0.9l0.1,0.6c-1,0.3-2.1,0.7-2.7,0.9c0,0.1-0.1,0.1-0.1,0.2L154.7,22.1z
	 M158.9,27.9c0,0.1-0.1,0.1-0.2,0.1c-0.9,0.4-2.2,0.9-3.3,1.2c-0.1-0.1-0.4-0.4-0.5-0.5c1.1-0.2,2.4-0.6,3.2-1.1L158.9,27.9z
	 M155.6,19.2c0.8,0.2,1.8,0.6,2.3,0.9l-0.3,0.6c-0.5-0.3-1.5-0.7-2.3-0.9L155.6,19.2z M156.2,27.4v-4.5h7.2v4.5H156.2z M156.9,23.4
	v0.8h5.7v-0.8H156.9z M156.9,24.7v0.8h5.7v-0.8H156.9z M156.9,26v0.8h5.7V26H156.9z M161.6,20.3c0.3,0.9,0.9,1.7,3.2,2.1
	c-0.1,0.1-0.3,0.4-0.4,0.6c-1.9-0.3-2.7-1.1-3.1-1.9c-0.4,0.8-1.2,1.4-2.9,1.7c-0.1-0.2-0.2-0.4-0.3-0.5c1.8-0.3,2.5-0.9,2.8-2h-1.3
	c-0.3,0.3-0.6,0.7-1,1c-0.1-0.1-0.4-0.3-0.6-0.4c0.8-0.6,1.4-1.3,1.7-2l0.8,0.1c0,0.1-0.1,0.1-0.2,0.1c-0.1,0.2-0.2,0.4-0.3,0.6h4
	l0.1,0l0.4,0.1c-0.1,0.4-0.8,1.3-1.1,1.7l-0.6-0.2c0.2-0.2,0.5-0.6,0.7-0.9H161.6z M163.9,29.1c-0.7-0.4-1.9-0.8-3.2-1.2l0.6-0.4
	c1.2,0.4,2.5,0.8,3.4,1.2L163.9,29.1z"/>
<path class="st3" d="M171.5,22.7c0.2,0.7,0.5,1.4,0.9,2c0.7-0.4,1.6-1.1,2.1-1.5l0.7,0.6c0,0-0.1,0.1-0.2,0c-0.6,0.4-1.5,1-2.2,1.4
	c0.8,1.1,1.8,1.9,3.1,2.3c-0.2,0.1-0.4,0.4-0.5,0.6c-2.2-0.8-3.7-2.8-4.5-5.3c-0.3,0.3-0.8,0.5-1.2,0.8c1.5,1.1,2.2,2.5,2.2,3.6
	c0,1.2-0.7,1.9-1.9,1.9c-0.3,0-0.6,0-1,0c0-0.2-0.1-0.5-0.2-0.7c0.4,0,0.8,0,1,0c0.3,0,0.6,0,0.8-0.2c0.3-0.2,0.5-0.6,0.5-1.1
	c0-0.3-0.1-0.6-0.2-1c-1.2,1-3.1,2.1-4.7,2.6c-0.1-0.2-0.2-0.5-0.4-0.6c1.7-0.4,3.7-1.5,4.8-2.6c-0.1-0.2-0.3-0.5-0.5-0.7
	c-0.9,0.7-2.4,1.5-3.6,1.9c-0.1-0.2-0.3-0.4-0.4-0.6c1.2-0.3,2.7-1.1,3.6-1.7c-0.2-0.2-0.4-0.3-0.6-0.5c-0.8,0.4-1.7,0.7-2.5,0.9
	c-0.1-0.1-0.3-0.4-0.4-0.6c1.3-0.3,2.9-0.9,4-1.7h-2.6V22h6.3v0.6H171.5z M166.8,20.9v1.5h-0.7v-2.2h4.2v-1.3l1,0.1
	c0,0.1-0.1,0.1-0.2,0.1v1.1h4.2v2.2h-0.7v-1.5H166.8z"/>
<path class="st3" d="M32.3,15.8c0,0-0.1,0.1-0.1,0.1c-0.7,3.4-2.5,5.4-5.4,6.5c-0.1-0.2-0.3-0.4-0.4-0.5c2.8-0.9,4.5-2.9,5-5.6h-5.9
	v-0.6h6.1l0.1-0.1L32.3,15.8z"/>
<path class="st3" d="M39.7,16.9C39.7,16.9,39.7,16.9,39.7,16.9c-0.5,0.9-1.3,1.9-1.9,2.5c-0.1-0.1-0.3-0.2-0.4-0.3
	c0.6-0.5,1.3-1.3,1.5-1.9h-5.2v-0.5h5.5l0.1,0L39.7,16.9z M36.8,18.2c0,0.1-0.1,0.1-0.2,0.1c-0.2,1.6-0.8,3.1-2.3,4.1
	c-0.1-0.1-0.3-0.3-0.5-0.3c1.5-0.9,2-2.2,2.2-4L36.8,18.2z"/>
<path class="st3" d="M41,15.4c0.9,0.3,2,0.8,2.7,1.2l-0.3,0.6c-0.6-0.5-1.7-0.9-2.6-1.3L41,15.4z M41,21.6c3.2-1,5.3-2.8,6.4-5.3
	c0.2,0.2,0.4,0.3,0.6,0.4c-1.1,2.5-3.3,4.4-6.4,5.4c0,0.1-0.1,0.2-0.1,0.2L41,21.6z"/>
<path class="st3" d="M54.4,19.4c-0.9-0.5-2.2-1.1-3.2-1.5v4.5h-0.7v-7.8l0.9,0.1c0,0.1-0.1,0.2-0.2,0.2v2.6l0.1-0.2
	c1.1,0.4,2.4,1,3.4,1.5L54.4,19.4z M53.5,15.2c0.4,0.3,1,0.9,1.2,1.3l-0.3,0.3c-0.3-0.4-0.8-1-1.2-1.3L53.5,15.2z M54.7,14.4
	c0.4,0.4,1,0.9,1.2,1.3L55.6,16c-0.3-0.4-0.8-1-1.2-1.3L54.7,14.4z"/>
<path class="st3" d="M62.8,17.6C62.8,17.6,62.8,17.6,62.8,17.6c-0.1,0-0.2,0-0.3,0c-2.7,0.8-5.1,2-5.1,3.2c0,0.9,1,1.2,2.4,1.2
	c1.4,0,2.6-0.1,3.2-0.2l0.1,0.7c-0.8,0.1-2.2,0.2-3.2,0.2c-1.8,0-3.1-0.4-3.1-1.7c0-1,1-1.8,2.4-2.5c-0.3-0.5-0.4-1.6-0.4-3.6l1,0.1
	c0,0.1-0.1,0.2-0.3,0.2c0,1.6,0,2.6,0.3,3c0.8-0.4,1.8-0.8,2.8-1.1L62.8,17.6z"/>
<path class="st3" d="M69.5,19.4c-0.9-0.5-2.2-1.1-3.2-1.5v4.5h-0.7v-7.8l0.9,0.1c0,0.1-0.1,0.2-0.2,0.2v2.6l0.1-0.2
	c1.1,0.4,2.4,1,3.4,1.5L69.5,19.4z"/>
<path class="st3" d="M32.7,32.2c2.3-0.6,4.1-1.7,5.2-3.7c0.1,0.2,0.3,0.3,0.5,0.5c-1.2,2.1-3.2,3.3-5.9,4c0,0.1-0.1,0.2-0.1,0.2
	l-0.4-0.6l0.1-0.2v-6.6l0.9,0c0,0.1-0.1,0.2-0.3,0.2V32.2z"/>
<path class="st3" d="M39.6,28.9h7.5v0.6H40c-0.1,0.1-0.2,0.2-0.3,0.2L39.6,28.9z"/>
<path class="st3" d="M54.8,27c0,0.1-0.1,0.1-0.1,0.1c-0.3,1.1-0.8,2.1-1.3,3c0.4,0.2,0.9,0.5,1.2,0.7l-0.4,0.6
	c-0.3-0.3-0.8-0.5-1.2-0.8c-0.8,1.1-1.9,2.1-3.2,2.7c-0.1-0.2-0.3-0.4-0.5-0.5c1.3-0.6,2.3-1.5,3.2-2.5c-0.7-0.4-1.4-0.7-2-0.9
	l0.4-0.5c0.7,0.2,1.4,0.6,2,0.9c0.5-0.7,0.8-1.6,1.1-2.4h-3c-0.6,1-1.3,1.9-2,2.5c-0.1-0.1-0.4-0.3-0.5-0.4c1.2-0.9,2.2-2.5,2.7-4
	l0.8,0.2c0,0.1-0.1,0.1-0.3,0.1c-0.1,0.3-0.3,0.7-0.5,1h2.9l0.1,0L54.8,27z M54,25.2c0.4,0.3,0.9,0.9,1.2,1.3l-0.3,0.3
	c-0.3-0.4-0.8-0.9-1.2-1.3L54,25.2z M55.2,24.9c0.4,0.3,1,0.9,1.2,1.2L56,26.4c-0.2-0.4-0.8-0.9-1.2-1.2L55.2,24.9z"/>
<path class="st3" d="M56.9,28.9h7.5v0.6h-7.2c-0.1,0.1-0.2,0.2-0.3,0.2L56.9,28.9z"/>
<path class="st0" d="M15.8,105.6c0.7,0.2,1.6,0.6,2,0.9l-0.4,0.6c-0.4-0.3-1.3-0.7-2-1L15.8,105.6z M15.8,111.3
	c0.5-0.8,1.2-2.1,1.8-3.2c0.4,0.3,0.4,0.4,0.5,0.4c-0.5,1.1-1.2,2.3-1.6,3c0,0,0,0.1,0,0.1c0,0,0,0.1,0,0.1L15.8,111.3z M16.3,102.9
	c0.7,0.3,1.5,0.7,2,1l-0.4,0.5c-0.4-0.4-1.3-0.8-2-1.1L16.3,102.9z M24.5,107v0.6h-3.8l0.4,0.1c0,0.1-0.1,0.1-0.2,0.1
	c-0.3,0.8-0.8,2-1.2,2.8c1-0.1,2.2-0.1,3.4-0.2c-0.3-0.5-0.7-1-1.1-1.5l0.6-0.3c0.8,0.8,1.6,2,2,2.8l-0.6,0.4
	c-0.1-0.2-0.3-0.5-0.4-0.8c-1.8,0.1-3.7,0.3-4.9,0.4c0,0.1-0.1,0.1-0.1,0.1l-0.3-0.8l0.8,0c0.4-0.9,1-2.1,1.3-3.1h-2.1V107h2.8v-1.9
	h-2.3v-0.6h2.3v-1.6l0.9,0.1c0,0.1-0.1,0.2-0.2,0.2v1.4H24v0.6h-2.4v1.9H24.5z"/>
<path class="st0" d="M26.7,104.5c0.2-0.5,0.4-1.2,0.5-1.7L28,103c0,0.1-0.1,0.1-0.2,0.1c-0.1,0.4-0.3,0.9-0.5,1.4h1.6v5.8h-2.7v0.8
	h-0.6v-6.6H26.7z M28.3,107v-2h-2v2H28.3z M26.3,109.7h2v-2.1h-2V109.7z M33.6,104.5l0.3,0c0,0,0,0.1,0,0.2
	c-0.1,4.7-0.3,6.3-0.6,6.7c-0.2,0.3-0.5,0.4-1.2,0.4c-0.3,0-0.7,0-1.1,0c0-0.2-0.1-0.5-0.2-0.6c0.7,0,1.3,0,1.6,0
	c0.2,0,0.3,0,0.4-0.1c0.3-0.3,0.5-1.9,0.6-6h-2.7c-0.3,0.9-0.7,1.6-1.1,2.2c-0.1-0.1-0.3-0.3-0.5-0.4c0.7-0.9,1.3-2.5,1.6-4.1
	l0.8,0.2c0,0.1-0.1,0.1-0.2,0.1c-0.1,0.5-0.2,0.9-0.4,1.4H33.6z M30.9,106.6c0.6,0.8,1.1,1.8,1.3,2.4l-0.6,0.3
	c-0.2-0.7-0.8-1.7-1.3-2.5L30.9,106.6z"/>
<path class="st0" d="M18.9,122.3c-1-0.5-2.4-1.2-3.4-1.6v4.9h-0.7v-8.5l1,0.1c0,0.1-0.1,0.2-0.3,0.2v2.8l0.1-0.2
	c1.1,0.4,2.7,1.1,3.7,1.6L18.9,122.3z"/>
<path class="st0" d="M21,120.8h8.1v0.7h-7.8c-0.1,0.1-0.2,0.2-0.3,0.2L21,120.8z"/>
<path class="st0" d="M37.5,119c0,0-0.1,0.1-0.1,0.1c-1,3.2-2.6,5.2-5.3,6.6c-0.1-0.2-0.3-0.4-0.5-0.5c2.6-1.2,4.1-3.2,4.9-5.8h-3.5
	c-0.6,0.9-1.3,1.7-2.2,2.4c-0.1-0.1-0.4-0.3-0.6-0.4c1.3-1,2.4-2.5,3.1-4.2l0.9,0.3c0,0.1-0.2,0.1-0.3,0.1c-0.2,0.4-0.4,0.8-0.6,1.2
	h3.4l0.1-0.1L37.5,119z"/>
<path class="st0" d="M39.3,117.9c1,0.3,2.2,0.8,2.9,1.3l-0.4,0.6c-0.7-0.5-1.9-1-2.8-1.4L39.3,117.9z M39.2,124.6
	c3.5-1.1,5.8-3,6.9-5.7c0.2,0.2,0.4,0.3,0.6,0.4c-1.2,2.7-3.6,4.7-6.9,5.9c0,0.1-0.1,0.2-0.1,0.2L39.2,124.6z"/>
<path class="st0" d="M49.2,125.9v-5.6c-0.4,0.6-0.9,1.2-1.3,1.7c-0.1-0.2-0.3-0.5-0.4-0.6c1-1,2-2.7,2.7-4.4l0.8,0.3
	c0,0.1-0.1,0.1-0.2,0.1c-0.3,0.7-0.6,1.4-1,2.1l0.3,0.1c0,0.1-0.1,0.1-0.2,0.1v6.4H49.2z M52.7,124.4c0,0.5,0.1,0.7,0.7,0.7h2
	c0.6,0,0.6-0.4,0.7-1.8c0.2,0.1,0.4,0.3,0.6,0.3c-0.1,1.6-0.3,2.2-1.3,2.2h-2.1c-1,0-1.3-0.3-1.3-1.3V117l0.8,0.1
	c0,0.1-0.1,0.1-0.2,0.1v3.6c1.2-0.6,2.3-1.4,3.1-2.1l0.5,0.6c0,0-0.1,0-0.2,0c-0.8,0.7-2.2,1.5-3.4,2.1V124.4z"/>
<path class="st0" d="M14,132.1c0.7,0.8,1.4,2,1.7,2.8l-0.7,0.3c-0.3-0.8-1-2-1.6-2.8L14,132.1z M20.8,132.2c0,0.1-0.1,0.1-0.3,0.1
	c-1,3.6-2.9,5.8-5.6,7c-0.1-0.1-0.3-0.4-0.5-0.5c2.7-1.2,4.5-3.2,5.4-6.9L20.8,132.2z"/>
<path class="st0" d="M29.7,132.3c0,0-0.1,0.1-0.1,0.1c-0.8,3.7-2.7,5.9-5.9,7c-0.1-0.2-0.3-0.4-0.4-0.6c3-1,4.9-3.2,5.5-6.1h-6.4
	v-0.7h6.6l0.1-0.1L29.7,132.3z"/>
<path class="st0" d="M36.8,136.3c-1-0.5-2.4-1.2-3.4-1.6v4.9h-0.7v-8.5l1,0.1c0,0.1-0.1,0.2-0.3,0.2v2.8l0.1-0.2
	c1.1,0.4,2.7,1.1,3.7,1.6L36.8,136.3z"/>
<path class="st0" d="M42.3,131.1l1,0.1c0,0.1-0.1,0.2-0.3,0.2v1.5h2.6l0.1-0.1l0.6,0.3c0,0-0.1,0.1-0.1,0.1c-0.4,3.4-1.9,5.4-5,6.5
	c-0.1-0.2-0.3-0.4-0.5-0.6c2.9-1,4.2-2.8,4.6-5.5h-5.5v2.4h-0.7v-3.1h3.1V131.1z"/>
<path class="st0" d="M53.3,133.8v0.6h-2.4v3.8h2.9v0.6h-6.5v-0.6h2.9v-3.8h-2.4v-0.6H53.3z"/>
<path class="st0" d="M63.3,132c0,0-0.1,0.1-0.1,0.1c-0.5,1.2-1.4,2.3-2.3,3.1c-0.1-0.1-0.4-0.3-0.6-0.4c0.9-0.7,1.6-1.6,1.9-2.4h-7
	v-0.7h7.4l0.1,0L63.3,132z M59.5,133.8c0,0.1-0.1,0.1-0.2,0.2c-0.3,2.3-1.1,4.5-3.1,5.7c-0.1-0.1-0.4-0.3-0.6-0.4
	c2-1.1,2.7-3.1,2.9-5.5L59.5,133.8z"/>
<path class="st0" d="M17.4,152.5c2.5-0.7,4.4-1.9,5.6-4c0.1,0.2,0.4,0.4,0.5,0.5c-1.3,2.2-3.5,3.5-6.4,4.3c0,0.1-0.1,0.2-0.2,0.2
	l-0.4-0.7l0.1-0.2v-7.2l1,0c0,0.1-0.1,0.2-0.3,0.2V152.5z"/>
<path class="st0" d="M24.9,148.8h8.1v0.7h-7.8c-0.1,0.1-0.2,0.2-0.3,0.2L24.9,148.8z"/>
<path class="st0" d="M42.5,148.9h-3.3l0.2,0c0,0.1-0.1,0.1-0.2,0.1c-0.3,1.8-0.9,3.4-3,4.5c-0.1-0.1-0.4-0.4-0.5-0.5
	c2-1,2.6-2.3,2.8-4.1h-3.8v-0.7h7.8V148.9z M41.5,146.2h-6v-0.7h6V146.2z"/>
<path class="st0" d="M49.7,147.4c0,0-0.1,0.1-0.2,0.1c0,0-0.1,0-0.1,0c-0.6,0.6-1.4,1.3-2.1,1.8c0.1,0,0.2,0.1,0.2,0.1
	c0,0-0.1,0.1-0.2,0.1v4.2h-0.6v-4.1c-0.8,0.6-2.2,1.4-3.2,1.9c-0.1-0.1-0.2-0.4-0.4-0.5c1.7-0.8,4.2-2.2,5.9-4.1L49.7,147.4z"/>
<path class="st0" d="M51.5,145.9c1,0.3,2.2,0.8,2.9,1.3l-0.4,0.6c-0.7-0.5-1.9-1-2.8-1.4L51.5,145.9z M51.4,152.6
	c3.5-1.1,5.8-3,6.9-5.7c0.2,0.2,0.4,0.3,0.6,0.4c-1.2,2.7-3.6,4.7-6.9,5.9c0,0.1-0.1,0.2-0.1,0.2L51.4,152.6z"/>
<path class="st0" d="M66.9,147c0,0.1-0.1,0.1-0.1,0.1c-1,3.2-2.6,5.2-5.3,6.5c-0.1-0.2-0.3-0.4-0.5-0.5c2.5-1.2,4.1-3.1,4.9-5.7
	h-3.4c-0.6,0.9-1.3,1.7-2.2,2.4c-0.1-0.1-0.4-0.3-0.5-0.4c1.3-1,2.4-2.5,3.1-4.3l0.9,0.3c0,0.1-0.1,0.1-0.3,0.1
	c-0.2,0.4-0.4,0.9-0.6,1.3h3.4l0.1-0.1L66.9,147z M65.7,144.8c0.5,0.4,1,1,1.3,1.4l-0.4,0.3c-0.3-0.4-0.8-1-1.3-1.4L65.7,144.8z
	 M67.1,144.5c0.5,0.4,1,1,1.3,1.4l-0.4,0.3c-0.3-0.4-0.8-1-1.3-1.4L67.1,144.5z"/>
<path class="st0" d="M17.7,167.3h-2.6v0.5h-0.5v-3.1c-0.1,0.2-0.2,0.3-0.3,0.5l-0.2-0.2c-0.1,1-0.3,2-0.6,2.8
	c-0.1-0.1-0.4-0.3-0.5-0.4c0.5-1.3,0.6-3,0.6-4.3v-2.5h4v2h-3.4v0.5c0,0.5,0,1,0,1.5c0.4-0.5,0.7-1.2,0.9-2l0.6,0.2
	c0,0.1-0.1,0.1-0.2,0.1c-0.1,0.2-0.1,0.4-0.2,0.6H16c0.1-0.3,0.2-0.6,0.3-0.9l0.6,0.2c0,0-0.1,0.1-0.2,0.1c-0.1,0.2-0.2,0.4-0.3,0.6
	h1.2v0.5h-1.2v0.6h1.1v0.4h-1.1v0.6h1.1v0.4h-1.1v0.7h1.3V167.3z M17.6,159.3v0.6h-4.5v-0.6H17.6z M16.9,161h-2.8v1h2.8V161z
	 M16,164.6V164h-0.9v0.6H16z M16,165.7v-0.6h-0.9v0.6H16z M16,166.8v-0.7h-0.9v0.7H16z M19.8,166.6c0,0-0.1,0.1-0.2,0.1
	c-0.3,0.4-1,0.9-1.6,1.2c-0.1-0.1-0.3-0.3-0.4-0.4c0.6-0.3,1.3-0.8,1.6-1.2L19.8,166.6z M18.3,160.9h1.2c0-0.3,0.1-0.7,0.1-1H18
	v-0.6h4.1v0.6h-1.8c0,0.3-0.1,0.7-0.2,1h1.7v5.1h-3.5V160.9z M21.3,162.4v-1h-2.3v1H21.3z M21.3,164v-1h-2.3v1H21.3z M21.3,165.5v-1
	h-2.3v1H21.3z M21.7,167.9c-0.3-0.4-0.8-0.9-1.3-1.3l0.5-0.3c0.5,0.4,1,0.9,1.3,1.2L21.7,167.9z"/>
<path class="st0" d="M29.6,161.3l0.5,0.3c0,0-0.1,0.1-0.1,0.1c-0.5,0.7-1.2,1.3-2,1.8c1.1,0.5,2.5,0.9,3.9,1.1
	c-0.1,0.1-0.3,0.4-0.4,0.6c-0.5-0.1-0.9-0.2-1.4-0.3v3h-0.7v-0.3h-4.1v0.3h-0.6V165c-0.5,0.2-1,0.3-1.6,0.4
	c-0.1-0.2-0.2-0.4-0.3-0.6c1.3-0.3,2.8-0.7,4-1.4c-0.5-0.4-1-0.8-1.4-1.2c-0.5,0.4-1,0.7-1.6,1c-0.1-0.1-0.3-0.4-0.4-0.5
	c1.4-0.6,2.3-1.5,2.8-2.3l0.8,0.1c0,0.1-0.1,0.1-0.2,0.1c-0.1,0.2-0.2,0.3-0.4,0.5h3.1L29.6,161.3z M23.9,160.4v1.1h-0.6v-1.8H27v-1
	l0.9,0.1c0,0.1-0.1,0.1-0.2,0.1v0.8h3.8v1.8h-0.7v-1.1H23.9z M29.8,164.8c-0.9-0.2-1.7-0.6-2.4-1c-0.7,0.4-1.4,0.7-2.2,1H29.8z
	 M25.2,167h4.1v-1.6h-4.1V167z M25.8,161.8L25.8,161.8c0.4,0.5,0.9,0.9,1.5,1.3c0.6-0.4,1.2-0.8,1.6-1.3H25.8z"/>
<path class="st0" d="M34.5,166.1c-0.3,0.7-0.7,1.4-1.2,1.8c-0.1-0.1-0.3-0.1-0.6-0.3c0.5-0.4,1-1.1,1.2-1.7L34.5,166.1z M37.3,163.8
	l0,0.4c-0.6,0-1.3,0.1-1.9,0.1v0.7c0,0.3-0.1,0.4-0.3,0.5c-0.2,0.1-0.6,0.1-1.3,0.1c0-0.2-0.1-0.3-0.2-0.5c0.3,0,0.5,0,0.7,0
	c0.4,0,0.4,0,0.4-0.1v-0.7l-1.8,0.1c0,0.1-0.1,0.1-0.1,0.1l-0.2-0.6c0.6,0,1.3,0,2.1-0.1v-0.6l0.3,0c0.2-0.1,0.5-0.2,0.7-0.4H33
	v-0.5h3.4l0.1,0l0.4,0.3c0,0-0.1,0.1-0.1,0.1c-0.4,0.3-1,0.6-1.5,0.8v0.2L37.3,163.8z M37.3,159.6v0.5h-4.7v-0.5h2v-0.8l0.8,0.1
	c0,0.1-0.1,0.1-0.2,0.1v0.6H37.3z M36.7,162.1h-3.5v-1.5h3.5V162.1z M33.8,160.9v0.7h2.3v-0.7H33.8z M35.7,167.8
	c0-0.4-0.1-1.1-0.2-1.7l0.6,0c0.1,0.5,0.2,1.2,0.2,1.6L35.7,167.8z M40.7,160.3c0,3,0,4.7,0.4,4.7c0.2,0,0.2-0.6,0.2-1.3
	c0.1,0.1,0.3,0.3,0.4,0.4c-0.1,1.2-0.2,1.6-0.7,1.6c-1,0-1-1.6-1-4.7h-1c0,0.7-0.1,1.3-0.2,1.8c0.4,0.3,0.8,0.7,1,1l-0.4,0.5
	c-0.2-0.2-0.5-0.5-0.8-0.8c-0.3,1-0.8,1.7-1.7,2.3c-0.1-0.1-0.3-0.3-0.4-0.4c0.9-0.5,1.3-1.3,1.6-2.3c-0.3-0.3-0.7-0.5-1-0.8
	l0.3-0.4c0.3,0.2,0.6,0.4,0.8,0.6c0.1-0.4,0.1-0.9,0.2-1.4h-1.2v-0.6h1.2c0-0.5,0-1,0-1.5l0.8,0c0,0.1-0.1,0.1-0.2,0.1
	c0,0.5,0,0.9,0,1.3H40.7z M38.1,167.8c-0.1-0.4-0.3-1.1-0.6-1.7l0.6-0.1c0.2,0.5,0.5,1.2,0.6,1.6L38.1,167.8z M40.9,167.9
	c-0.2-0.5-0.8-1.3-1.2-1.8l0.6-0.2c0.5,0.5,1,1.3,1.3,1.8L40.9,167.9z"/>
<path class="st0" d="M45.1,160.8v1.7c0,0.2,0,0.3,0,0.5h1.8v0.6H45c0,0.3-0.1,0.6-0.2,0.9c0.5,0.5,1.6,1.7,1.9,2l-0.4,0.5
	c-0.3-0.4-1.1-1.3-1.6-1.9c-0.3,1-0.9,1.9-2,2.7c-0.1-0.1-0.3-0.4-0.4-0.5c1.5-1,2-2.4,2.1-3.7h-2.1v-0.6h2.1c0-0.2,0-0.3,0-0.5
	v-1.7h-0.9c-0.2,0.7-0.5,1.3-0.8,1.7c-0.1-0.1-0.3-0.3-0.5-0.3c0.5-0.8,0.9-2,1.2-3.3l0.8,0.2c0,0.1-0.1,0.1-0.2,0.1
	c-0.1,0.4-0.2,0.7-0.3,1.1h2.8v0.6H45.1z M47.3,159.7h3.6v7.8h-0.7v-0.7H48v0.8h-0.6V159.7z M48,166.2h2.3v-5.9H48V166.2z"/>
<path class="st0" d="M54.3,163.5c0,0.2,0,0.5-0.1,0.7c0.4,0.4,1.4,1.5,1.6,1.8l-0.5,0.5c-0.2-0.4-0.9-1.1-1.3-1.6
	c-0.2,1-0.7,2-1.6,2.7c-0.1-0.1-0.3-0.4-0.4-0.5c1.2-0.9,1.6-2.3,1.7-3.6H52v-0.6h1.7c0-0.2,0-0.5,0-0.7v-1.1h-1.5v-0.6h1.5v-1.7
	l0.8,0.1c0,0.1-0.1,0.1-0.2,0.1v1.5h1.4v0.6h-1.4v1.1c0,0.2,0,0.5,0,0.7H56v0.6H54.3z M57.9,165.1c0,0.1-0.1,0.1-0.2,0.1
	c-0.2,1.2-0.7,2.1-2.4,2.7c-0.1-0.1-0.2-0.4-0.4-0.5c1.5-0.4,2-1.3,2.1-2.4L57.9,165.1z M59.3,166.9c0,0.2,0,0.3,0.3,0.3h0.7
	c0.2,0,0.3-0.1,0.3-1.3c0.1,0.1,0.4,0.2,0.6,0.3c0,1.3-0.2,1.7-0.8,1.7h-0.8c-0.7,0-0.8-0.2-0.8-0.9v-2.2h-2.3v-5.5h4.2v5.5h-1.3
	V166.9z M57,159.8v1h3v-1H57z M57,161.4v1.1h3v-1.1H57z M57,163v1.1h3V163H57z"/>
<path class="st0" d="M63.9,166c0,0.1-0.1,0.1-0.2,0.1c-0.3,0.6-0.8,1.3-1.4,1.8c-0.1-0.1-0.3-0.3-0.5-0.4c0.5-0.4,1-1.1,1.3-1.7
	L63.9,166z M62.4,159.2h3.8v6.2h-3.8V159.2z M63,159.8v1.3h2.5v-1.3H63z M63,161.7v1.3h2.5v-1.3H63z M63,163.5v1.3h2.5v-1.3H63z
	 M65.4,165.8c0.4,0.5,0.9,1.2,1.1,1.7c-0.1,0-0.1,0.1-0.6,0.3c-0.2-0.5-0.7-1.2-1.1-1.7L65.4,165.8z M67.3,160l0.8,0
	c0,0.1-0.1,0.1-0.2,0.1v5.3h-0.6V160z M69.8,159l0.8,0c0,0.1-0.1,0.1-0.2,0.1v7.8c0,0.5-0.1,0.7-0.4,0.8c-0.3,0.1-0.8,0.1-1.8,0.1
	c0-0.2-0.1-0.5-0.3-0.7c0.4,0,0.7,0,1,0c0.8,0,0.8,0,0.8-0.3V159z"/>
<path class="st0" d="M22.2,174.1c0,0-0.1,0.1-0.1,0.1c-0.5,1.2-1.2,2.3-1.9,3.4c1.1,0.8,2.7,2.3,3.6,3.3l-0.6,0.5
	c-0.9-1-2.4-2.5-3.4-3.3c-0.9,1-2.3,2.5-3.8,3.3c-0.1-0.1-0.3-0.4-0.5-0.5c2.7-1.5,4.8-4.3,5.7-6.4h-4.8v-0.7h5.2l0.1,0L22.2,174.1z
	"/>
<path class="st0" d="M33.3,174.7c0,0-0.1,0.1-0.1,0.1c-0.9,1.4-2.4,2.8-3.9,3.9c0.8,0.6,1.5,1.4,2,1.9l-0.6,0.5
	c-1-1.2-2.9-2.8-4.6-3.8l0.5-0.5c0.7,0.4,1.5,0.9,2.2,1.4c1.3-0.9,2.7-2.2,3.4-3.3H25v-0.7h7.7l0.1-0.1L33.3,174.7z"/>
<path class="st0" d="M34.7,176.8h8.1v0.7h-7.8c-0.1,0.1-0.2,0.2-0.3,0.2L34.7,176.8z"/>
<path class="st0" d="M49.9,178.3c-1-0.5-2.4-1.2-3.4-1.6v4.9h-0.7v-8.5l1,0.1c0,0.1-0.1,0.2-0.3,0.2v2.8l0.1-0.2
	c1.1,0.4,2.7,1.1,3.7,1.6L49.9,178.3z"/>
<path class="st0" d="M59.1,174.5v6.6h-0.7v-0.5h-6.1v-0.7h6.1v-4.8h-6v-0.7H59.1z"/>
<path class="st0" d="M61.5,173.9c1,0.3,2.2,0.8,2.9,1.3l-0.4,0.6c-0.7-0.5-1.9-1-2.8-1.4L61.5,173.9z M61.5,180.6
	c3.5-1.1,5.8-3,6.9-5.7c0.2,0.2,0.4,0.3,0.6,0.4c-1.2,2.7-3.6,4.7-6.9,5.9c0,0.1-0.1,0.2-0.1,0.2L61.5,180.6z"/>
<path class="st0" d="M75.8,178.3c-1-0.5-2.4-1.2-3.4-1.6v4.9h-0.7v-8.5l1,0.1c0,0.1-0.1,0.2-0.3,0.2v2.8l0.1-0.2
	c1.1,0.4,2.7,1.1,3.7,1.6L75.8,178.3z"/>
<path class="st0" d="M85.3,176.3c0,0-0.1,0.1-0.1,0.1c-0.8,2.9-2.4,4.4-5.3,5.2c-0.1-0.2-0.3-0.4-0.4-0.6c2.7-0.7,4.3-2,4.9-4.3
	h-6.5V176h6.7l0.1-0.1L85.3,176.3z M84.4,174.2h-5.6v-0.6h5.6V174.2z"/>
<path class="st0" d="M93.6,175c0,0-0.1,0.1-0.1,0.1c-1,3.2-2.6,5.2-5.3,6.6c-0.1-0.2-0.3-0.4-0.5-0.5c2.6-1.2,4.1-3.2,4.9-5.8h-3.5
	c-0.6,0.9-1.3,1.7-2.2,2.4c-0.1-0.1-0.4-0.3-0.6-0.4c1.3-1,2.4-2.5,3.1-4.2l0.9,0.3c0,0.1-0.2,0.1-0.3,0.1c-0.2,0.4-0.4,0.8-0.6,1.2
	H93l0.1-0.1L93.6,175z"/>
<path class="st0" d="M100.6,178.3c-1-0.5-2.4-1.2-3.4-1.6v4.9h-0.7v-8.5l1,0.1c0,0.1-0.1,0.2-0.3,0.2v2.8l0.1-0.2
	c1.1,0.4,2.7,1.1,3.7,1.6L100.6,178.3z"/>
<path class="st0" d="M121,103.4c0,0.1-0.1,0.1-0.2,0.1c-0.6,1.5-1.7,3-2.7,3.9c-0.1-0.1-0.4-0.4-0.6-0.4c1-0.9,2-2.3,2.7-3.8
	L121,103.4z M122.1,106.6c0,0.1-0.1,0.1-0.2,0.1c-0.5,1.2-1.2,2.7-1.8,3.9c1.4,0,3-0.1,4.6-0.2c-0.5-0.7-1-1.4-1.5-2l0.6-0.3
	c0.9,1,1.9,2.4,2.4,3.3l-0.7,0.4c-0.1-0.2-0.3-0.5-0.5-0.8c-2.4,0.1-5.1,0.3-6.7,0.3c0,0.1-0.1,0.1-0.2,0.1l-0.3-0.8l1.4,0
	c0.7-1.2,1.5-3,1.9-4.3L122.1,106.6z M123.6,103.1c0.7,1.3,1.9,2.9,2.8,3.7c-0.2,0.1-0.4,0.4-0.5,0.6c-0.9-0.9-2.2-2.6-2.9-4
	L123.6,103.1z"/>
<path class="st0" d="M130.7,104.5v0.5h-3.5v-0.5H130.7z M130.4,108.5v2.9h-2.2v0.5h-0.6v-3.3H130.4z M130.4,105.8v0.5h-2.8v-0.5
	H130.4z M127.6,107.7v-0.5h2.8v0.5H127.6z M130.4,103.2v0.5h-2.7v-0.5H130.4z M129.8,109h-1.7v1.8h1.7V109z M131.9,109
	c-0.1,0.8-0.3,1.8-0.9,2.3l-0.5-0.3c0.5-0.5,0.7-1.3,0.8-2.1L131.9,109z M133.6,103.8c-0.1,0.4-0.2,0.9-0.3,1.3
	c0.5,0.2,0.9,0.5,1.2,0.7l-0.3,0.5c-0.3-0.2-0.7-0.4-1.1-0.7c-0.4,0.7-0.9,1.4-1.8,1.9c-0.1-0.1-0.3-0.4-0.4-0.5
	c0.8-0.4,1.4-1,1.7-1.7c-0.4-0.2-0.9-0.4-1.3-0.6l0.3-0.5c0.4,0.1,0.8,0.3,1.2,0.5c0.1-0.3,0.2-0.7,0.3-1h-1.7v-0.6h4.1l0.3,0l0.4,0
	c-0.1,0.4-0.1,3.3-0.5,3.7c-0.2,0.3-0.5,0.3-0.9,0.3c-0.2,0-0.5,0-0.8,0c0-0.2-0.1-0.4-0.2-0.6c0.5,0,0.7,0,1.2,0
	c0.1,0,0.2,0,0.3-0.1c0.2-0.2,0.3-0.9,0.3-2.8H133.6z M132.9,110.9c0,0.2,0,0.3,0.3,0.3h1c0.3,0,0.3-0.1,0.3-1.1
	c0.1,0.1,0.4,0.2,0.6,0.2c-0.1,1.2-0.2,1.4-0.8,1.4h-1.1c-0.7,0-0.9-0.2-0.9-0.8v-2.3l0.8,0.1c0,0.1-0.1,0.1-0.2,0.1V110.9z
	 M134.1,108.9c-0.4-0.4-1.1-1-1.7-1.4l0.4-0.4c0.6,0.4,1.4,0.9,1.8,1.3L134.1,108.9z M135.8,111.3c-0.1-0.7-0.6-1.6-1.1-2.4l0.5-0.2
	c0.5,0.7,1,1.7,1.1,2.3L135.8,111.3z"/>
<path class="st0" d="M142,104.6c0,0.1-0.1,0.2-0.2,0.2c-0.4,3-1.4,5.7-3,5.7c-0.8,0-1.6-0.8-1.6-2.4c0-2.3,1.8-4.3,4.4-4.3
	c2.8,0,4,1.8,4,3.7c0,2.3-1.3,3.4-3.7,4c-0.1-0.2-0.3-0.4-0.4-0.6c2.2-0.4,3.4-1.5,3.4-3.4c0-1.6-1-3.1-3.3-3.1c-0.1,0-0.2,0-0.3,0
	L142,104.6z M141.1,104.5c-2,0.2-3.2,1.9-3.2,3.6c0,1,0.4,1.7,0.9,1.7C140,109.7,140.9,107.1,141.1,104.5z"/>
<path class="st0" d="M152.6,108.3c-1-0.5-2.4-1.2-3.4-1.6v4.9h-0.7v-8.5l1,0.1c0,0.1-0.1,0.2-0.3,0.2v2.8l0.1-0.2
	c1.1,0.4,2.7,1.1,3.7,1.6L152.6,108.3z"/>
<path class="st0" d="M156.3,110.5c2.5-0.7,4.4-1.9,5.6-4c0.1,0.2,0.4,0.4,0.5,0.5c-1.3,2.2-3.5,3.5-6.4,4.3c0,0.1-0.1,0.2-0.2,0.2
	l-0.4-0.7l0.1-0.2v-7.2l1,0c0,0.1-0.1,0.2-0.3,0.2V110.5z"/>
<path class="st0" d="M163.9,106.8h8.1v0.7h-7.8c-0.1,0.1-0.2,0.2-0.3,0.2L163.9,106.8z"/>
<path class="st0" d="M180.4,104.8c0,0.1-0.1,0.1-0.1,0.1c-0.4,1.2-0.8,2.3-1.4,3.2c0.4,0.2,0.9,0.5,1.3,0.8l-0.4,0.6
	c-0.4-0.3-0.9-0.6-1.3-0.8c-0.9,1.2-2,2.2-3.5,2.9c-0.1-0.2-0.4-0.4-0.5-0.5c1.4-0.6,2.5-1.6,3.4-2.8c-0.7-0.4-1.5-0.8-2.2-1
	l0.4-0.5c0.7,0.3,1.5,0.6,2.2,1c0.5-0.8,0.9-1.7,1.2-2.6h-3.2c-0.6,1.1-1.4,2-2.2,2.7c-0.1-0.1-0.4-0.3-0.5-0.4c1.3-1,2.4-2.7,3-4.3
	l0.9,0.3c0,0.1-0.2,0.1-0.3,0.1c-0.1,0.4-0.3,0.7-0.5,1.1h3.2l0.1,0L180.4,104.8z M179.5,102.9c0.5,0.4,1,0.9,1.3,1.4l-0.4,0.3
	c-0.3-0.4-0.8-1-1.3-1.4L179.5,102.9z M180.7,102.5c0.5,0.4,1,0.9,1.3,1.3l-0.4,0.3c-0.3-0.4-0.9-1-1.3-1.3L180.7,102.5z"/>
<path class="st0" d="M182.6,106.8h8.1v0.7H183c-0.1,0.1-0.2,0.2-0.3,0.2L182.6,106.8z"/>
<path class="st0" d="M130,118.7c0,0-0.1,0.1-0.1,0.1c-0.9,1.4-2.4,2.8-3.9,3.9c0.8,0.6,1.5,1.4,2,1.9l-0.6,0.5
	c-1-1.2-2.9-2.8-4.6-3.8l0.5-0.5c0.7,0.4,1.5,0.9,2.2,1.4c1.3-0.9,2.7-2.2,3.4-3.3h-7.2v-0.7h7.7l0.1-0.1L130,118.7z"/>
<path class="st0" d="M133.4,118.6c0,0.1-0.1,0.1-0.2,0.2c-0.1,2.6-0.3,5-1.8,6.8c-0.2-0.1-0.4-0.3-0.6-0.4c1.5-1.6,1.6-4,1.7-6.6
	L133.4,118.6z M136,124.2c1.6-0.8,2.7-2.2,3.2-3.9c0.1,0.1,0.4,0.3,0.6,0.4c-0.7,2-1.9,3.4-4,4.4c0,0.1-0.1,0.2-0.2,0.2l-0.5-0.6
	l0.1-0.1v-7.2l0.9,0c0,0.1-0.1,0.2-0.2,0.2V124.2z"/>
<path class="st0" d="M149,121.3h-3.4c-0.2,1.9-0.8,3.3-2.7,4.3c-0.1-0.2-0.4-0.3-0.5-0.5c1.8-1,2.4-2.2,2.6-3.9h-4v-0.6h4
	c0-0.6,0-1.3,0.1-2.1c-1,0.2-2.3,0.4-3.4,0.6c0-0.2-0.1-0.4-0.2-0.6c3.4-0.4,5.4-1.1,6-1.3l0.5,0.6c0,0-0.1,0-0.1,0c0,0-0.1,0-0.1,0
	c-0.5,0.2-1.4,0.5-2.2,0.6l0.3,0c0,0.1-0.1,0.1-0.2,0.2c0,0.7,0,1.4-0.1,2h3.3V121.3z"/>
<path class="st0" d="M153.8,117.1l1,0.1c0,0.1-0.1,0.2-0.3,0.2v1.5h2.6l0.1-0.1l0.6,0.3c0,0-0.1,0.1-0.1,0.1c-0.4,3.4-1.9,5.4-5,6.5
	c-0.1-0.2-0.3-0.4-0.5-0.6c2.9-1,4.2-2.8,4.6-5.5h-5.5v2.4h-0.7v-3.1h3.1V117.1z"/>
<path class="st0" d="M165.8,121.1h-2.3l0,3.6c0,0.8-0.7,0.9-1.8,0.8c0-0.1-0.1-0.4-0.1-0.5c0.5,0,0.9,0,1.1,0c0.2,0,0.3-0.2,0.3-0.3
	l0-3.1c-0.8,1.1-2.1,2.2-3.3,2.9c-0.1-0.1-0.3-0.3-0.4-0.4c1.2-0.6,2.6-1.8,3.3-2.9h-3v-0.6h3.3l0-1.7l0.8,0c0,0.1-0.1,0.1-0.2,0.1
	l0,1.5h2.3V121.1z"/>
<path class="st0" d="M168.9,124.5c2.5-0.7,4.4-1.9,5.6-4c0.1,0.2,0.4,0.4,0.5,0.5c-1.3,2.2-3.5,3.5-6.4,4.3c0,0.1-0.1,0.2-0.2,0.2
	l-0.4-0.7l0.1-0.2v-7.2l1,0c0,0.1-0.1,0.2-0.3,0.2V124.5z"/>
<path class="st0" d="M177.1,119.7c0.3,0.6,0.6,1.5,0.7,2.1l-0.5,0.1c-0.1-0.6-0.4-1.5-0.7-2.1L177.1,119.7z M183,119.8
	c0,0.1-0.1,0.1-0.2,0.1c-0.8,2.8-2.2,4.6-4.6,5.5c-0.1-0.1-0.3-0.3-0.4-0.4c2.3-0.9,3.7-2.5,4.4-5.4L183,119.8z M179.5,119.2
	c0.2,0.7,0.4,1.6,0.5,2.2l-0.6,0.1c-0.1-0.6-0.2-1.5-0.5-2.2L179.5,119.2z"/>
<path class="st0" d="M190.1,122.3c-1-0.5-2.4-1.2-3.4-1.6v4.9h-0.7v-8.5l1,0.1c0,0.1-0.1,0.2-0.3,0.2v2.8l0.1-0.2
	c1.1,0.4,2.7,1.1,3.7,1.6L190.1,122.3z"/>
<path class="st0" d="M139.3,132.3c0,0-0.1,0.1-0.1,0.1c-0.8,3.7-2.7,5.9-5.9,7c-0.1-0.2-0.3-0.4-0.4-0.6c3-1,4.9-3.2,5.5-6.1H132
	v-0.7h6.6l0.1-0.1L139.3,132.3z"/>
<path class="st0" d="M146.5,133.4c0,0-0.1,0.1-0.2,0.1c0,0-0.1,0-0.1,0c-0.6,0.6-1.4,1.3-2.1,1.8c0.1,0,0.2,0.1,0.2,0.1
	c0,0-0.1,0.1-0.2,0.1v4.2h-0.6v-4.1c-0.8,0.6-2.2,1.4-3.2,1.9c-0.1-0.1-0.2-0.4-0.4-0.5c1.7-0.8,4.2-2.2,5.9-4.1L146.5,133.4z"/>
<path class="st0" d="M155.8,132c0,0-0.1,0.1-0.1,0.1c-0.5,1.2-1.4,2.3-2.3,3.1c-0.1-0.1-0.4-0.3-0.6-0.4c0.9-0.7,1.6-1.6,1.9-2.4h-7
	v-0.7h7.4l0.1,0L155.8,132z M152,133.8c0,0.1-0.1,0.1-0.2,0.2c-0.3,2.3-1.1,4.5-3.1,5.7c-0.1-0.1-0.4-0.3-0.6-0.4
	c2-1.1,2.7-3.1,2.9-5.5L152,133.8z"/>
<path class="st0" d="M157.6,133.7c0.3,0.6,0.6,1.5,0.7,2.1l-0.5,0.1c-0.1-0.6-0.4-1.5-0.7-2.1L157.6,133.7z M163.4,133.8
	c0,0.1-0.1,0.1-0.2,0.1c-0.8,2.8-2.2,4.6-4.6,5.5c-0.1-0.1-0.3-0.3-0.4-0.4c2.3-0.9,3.7-2.5,4.4-5.4L163.4,133.8z M160,133.2
	c0.2,0.7,0.4,1.6,0.5,2.2l-0.6,0.1c-0.1-0.6-0.2-1.5-0.5-2.2L160,133.2z"/>
<path class="st0" d="M170.6,136.3c-1-0.5-2.4-1.2-3.4-1.6v4.9h-0.7v-8.5l1,0.1c0,0.1-0.1,0.2-0.3,0.2v2.8l0.1-0.2
	c1.1,0.4,2.7,1.1,3.7,1.6L170.6,136.3z"/>
<path class="st0" d="M174.5,134.7v3.2c0.8,1.2,2.1,1.2,4,1.2c1.1,0,2.3,0,3.1-0.1c-0.1,0.1-0.2,0.4-0.2,0.6c-0.7,0-1.7,0-2.7,0
	c-2.1,0-3.5,0-4.4-1.2c-0.5,0.4-1.1,0.9-1.5,1.2c0,0.1,0,0.1-0.1,0.2l-0.4-0.7c0.5-0.3,1.1-0.7,1.6-1.2v-2.6h-1.5v-0.6H174.5z
	 M173,131.1c0.6,0.4,1.4,1.1,1.7,1.6l-0.5,0.4c-0.3-0.5-1-1.2-1.7-1.7L173,131.1z M178.5,133.3c-0.6-0.3-1.4-0.6-2-0.9l0.4-0.4
	c0.4,0.2,0.9,0.4,1.4,0.6c0.5-0.2,1.1-0.5,1.5-0.8h-4.3v-0.5h4.9l0.1,0l0.5,0.3c0,0-0.1,0.1-0.2,0.1c-0.5,0.4-1.2,0.9-2,1.3
	c0.3,0.1,0.6,0.3,0.8,0.4h1.3v4.4c0,0.6-0.2,0.7-1.7,0.7c0-0.2-0.1-0.4-0.2-0.6c0.3,0,0.6,0,0.8,0c0.4,0,0.5,0,0.5-0.2v-1h-1.8v1.6
	h-0.6v-1.6h-1.8v1.7h-0.6v-5.1H178.5z M177.9,133.8h-1.8v0.9h1.8V133.8z M176.2,136.2h1.8v-1h-1.8V136.2z M180.4,134.8v-0.9h-1.8
	v0.9H180.4z M178.5,136.2h1.8v-1h-1.8V136.2z"/>
<path class="st0" d="M184,134v-1.6c-0.5,0.3-1,0.6-1.4,0.8c-0.1-0.1-0.3-0.3-0.4-0.4c1-0.4,2.2-1.2,2.9-2.1l0.7,0.3
	c0,0.1-0.1,0.1-0.2,0.1c-0.3,0.3-0.6,0.6-1,0.9l0.3,0.1c0,0.1-0.1,0.1-0.2,0.1v1.8H184z M185.9,138.8c0,0-0.1,0.1-0.2,0.1
	c-0.8,0.4-2,0.8-2.9,1c-0.1-0.1-0.3-0.4-0.4-0.5c1-0.2,2.2-0.6,2.9-1L185.9,138.8z M183.5,138.3v-4h6.4v4H183.5z M184.1,134.8v0.7
	h5.1v-0.7H184.1z M184.1,135.9v0.7h5.1v-0.7H184.1z M184.1,137.1v0.7h5.1v-0.7H184.1z M189.8,133.3c0.4,0,0.5-0.1,0.6-0.9
	c0.1,0.1,0.4,0.2,0.6,0.2c-0.1,1-0.3,1.2-1.1,1.2h-2.3c-1,0-1.3-0.2-1.3-0.9v-2.1l0.8,0.1c0,0.1-0.1,0.1-0.2,0.1v0.9
	c1.1-0.2,2.3-0.5,3-0.8l0.5,0.5c0,0,0,0-0.1,0c0,0-0.1,0-0.1,0c-0.8,0.3-2.1,0.6-3.3,0.8v0.5c0,0.3,0.1,0.3,0.7,0.3H189.8z
	 M190.3,139.9c-0.6-0.3-1.7-0.7-2.8-1.1l0.5-0.3c1.1,0.3,2.3,0.8,3,1.1L190.3,139.9z"/>
<path class="st0" d="M148.6,147.3c0,0-0.1,0.1-0.2,0.1c-0.4,1.1-1.2,2.4-2,3.2c-0.1-0.1-0.4-0.3-0.6-0.4c0.7-0.7,1.3-1.6,1.7-2.4
	l-3.7,1v2.5c0,1,0.6,1.3,1.4,1.3h1.6c0.4,0,1.1-0.1,1.5-0.1c0,0.2,0,0.5,0,0.7c-0.4,0-1.1,0.1-1.4,0.1h-1.6c-1.2,0-2-0.6-2-1.9V149
	l-2.5,0.6l-0.2-0.7l2.6-0.7v-3l0.9,0c0,0.1-0.1,0.2-0.2,0.2v2.5l4.1-1.1l0.1-0.1L148.6,147.3z"/>
<path class="st0" d="M154.5,150.5l0.4,3.1l-0.7,0.1l-0.3-3.1l-3.7,0.5l-0.1-0.6l3.7-0.5l-0.3-2.2l-3.1,0.4l-0.1-0.7l3.1-0.4
	l-0.2-1.9l1,0c0,0.1-0.1,0.2-0.2,0.2l0.2,1.7l3-0.4l0.1,0.7l-3,0.4l0.3,2.2l3.7-0.5l0.1,0.6L154.5,150.5z"/>
<path class="st0" d="M166.1,152.3v0.6h-6.6v-0.6h4c0.2-1,0.4-2.9,0.5-3.9h-3.7v-0.6h3.9l0.1,0l0.5,0.2c0,0-0.1,0.1-0.1,0.1
	c-0.1,1-0.4,3.2-0.6,4.2H166.1z"/>
<path class="st0" d="M168.3,150.5v-4.7l0.9,0.1c0,0.1-0.1,0.2-0.2,0.2v4.5H168.3z M173.7,145.4c0,0.1-0.1,0.1-0.2,0.2v3.1
	c0,2-0.7,3.9-3.5,5c-0.1-0.1-0.3-0.4-0.5-0.5c2.7-1,3.3-2.7,3.3-4.5v-3.3L173.7,145.4z"/>
<path class="st0" d="M183.5,148.9h-3.3l0.2,0c0,0.1-0.1,0.1-0.2,0.1c-0.3,1.8-0.9,3.4-3,4.5c-0.1-0.1-0.4-0.4-0.5-0.5
	c2-1,2.6-2.3,2.8-4.1h-3.8v-0.7h7.8V148.9z M182.6,146.2h-6v-0.7h6V146.2z"/>
<path class="st0" d="M190.7,147.4c0,0-0.1,0.1-0.2,0.1c0,0-0.1,0-0.1,0c-0.6,0.6-1.4,1.3-2.1,1.8c0.1,0,0.2,0.1,0.2,0.1
	c0,0-0.1,0.1-0.2,0.1v4.2h-0.6v-4.1c-0.8,0.6-2.2,1.4-3.2,1.9c-0.1-0.1-0.2-0.4-0.4-0.5c1.7-0.8,4.2-2.2,5.9-4.1L190.7,147.4z"/>
<path class="st0" d="M164.5,162.7v3.2c0.8,1.2,2.2,1.2,3.9,1.2c1.1,0,2.5,0,3.3-0.1c-0.1,0.1-0.2,0.4-0.2,0.6c-0.7,0-1.8,0-2.7,0
	c-2.2,0-3.5,0-4.5-1.2c-0.4,0.4-0.9,0.9-1.2,1.2c0,0.1,0,0.1-0.1,0.1l-0.4-0.7c0.4-0.3,0.9-0.8,1.4-1.2v-2.7h-1.3v-0.6H164.5z
	 M163.2,159.1c0.6,0.5,1.3,1.2,1.5,1.6l-0.5,0.4c-0.3-0.5-0.9-1.2-1.5-1.7L163.2,159.1z M171.6,164.5v0.5H165v-0.5h1.8v-1h-1.4V163
	h1.4v-0.8l0.8,0.1c0,0.1-0.1,0.1-0.2,0.1v0.6h1.6v-0.8l0.8,0.1c0,0.1-0.1,0.1-0.2,0.1v0.6h1.5v0.5h-1.5v1H171.6z M167.1,160.4v-0.7
	h-2v-0.5h2.5v1.6h-1.7v0.5c0,0.2,0,0.2,0.4,0.2h1.1c0.2,0,0.3-0.1,0.3-0.5c0.1,0.1,0.3,0.1,0.5,0.2c-0.1,0.6-0.2,0.8-0.7,0.8h-1.2
	c-0.7,0-0.9-0.1-0.9-0.7v-1H167.1z M167.9,165.4c0,0.1-0.1,0.1-0.2,0.1c-0.5,0.4-1.3,0.9-2,1.2c-0.1-0.1-0.3-0.3-0.4-0.4
	c0.7-0.3,1.5-0.7,2-1.2L167.9,165.4z M167.4,163.6v1h1.6v-1H167.4z M170.4,160.4v-0.7h-2.1v-0.5h2.7v1.6h-1.8v0.5
	c0,0.2,0.1,0.2,0.4,0.2h1.2c0.3,0,0.3-0.1,0.3-0.5c0.1,0.1,0.4,0.1,0.5,0.2c-0.1,0.7-0.2,0.8-0.8,0.8h-1.3c-0.7,0-0.9-0.1-0.9-0.7
	v-1H170.4z M169.2,165.1c0.8,0.4,1.7,0.9,2.2,1.3l-0.6,0.3c-0.5-0.4-1.3-0.9-2.1-1.3L169.2,165.1z"/>
<path class="st0" d="M175.7,163.7l-1.2,0.4v2.9c0,0.7-0.3,0.8-1.6,0.8c0-0.2-0.1-0.4-0.2-0.6c0.5,0,0.9,0,1,0c0.1,0,0.2,0,0.2-0.2
	v-2.7c-0.5,0.2-0.9,0.3-1.2,0.4c0,0.1,0,0.1-0.1,0.2l-0.3-0.8c0.4-0.1,1-0.3,1.6-0.5v-2.3h-1.5v-0.6h1.5v-2l0.8,0
	c0,0.1-0.1,0.1-0.2,0.1v1.8h1.1v0.6h-1.1v2.1l1.1-0.3L175.7,163.7z M180.9,163.3h-2c0.4,1.8,1.2,3.4,2.5,4c-0.2,0.1-0.4,0.4-0.5,0.6
	c-1.4-0.8-2.3-2.5-2.7-4.6H177c0,1.5-0.3,3.4-1.5,4.6c-0.1-0.1-0.4-0.4-0.5-0.4c1.3-1.3,1.4-3.3,1.4-4.8v-3.4h4.6V163.3z
	 M180.3,159.9H177v2.7h3.3V159.9z"/>
<path class="st0" d="M190.4,162.5l0.4,0.2c0,0,0,0.1-0.1,0.1c-0.4,1.4-1,2.5-1.9,3.3c0.7,0.6,1.5,1,2.4,1.3
	c-0.1,0.1-0.3,0.4-0.4,0.6c-1-0.3-1.8-0.8-2.5-1.4c-0.8,0.7-1.7,1.1-2.7,1.4c-0.1-0.2-0.2-0.4-0.4-0.6c0.9-0.2,1.9-0.7,2.6-1.3
	c-0.7-0.7-1.2-1.6-1.5-2.6l0.6-0.2c0.3,0.9,0.8,1.7,1.4,2.4c0.7-0.7,1.2-1.5,1.6-2.5h-4v-0.6h2.2V161h-2.3v0.6h-1.4v1
	c0.3,0.4,1.2,1.4,1.4,1.7l-0.4,0.5c-0.2-0.3-0.6-1-1-1.4v4.6h-0.6V163c-0.4,1.2-0.9,2.3-1.4,3.1c-0.1-0.2-0.2-0.4-0.4-0.6
	c0.7-0.8,1.4-2.4,1.7-3.8h-1.5V161h1.6v-2.1l0.8,0.1c0,0.1-0.1,0.1-0.2,0.1v2h1.4v-0.6h2.3v-1.6l0.8,0.1c0,0.1-0.1,0.1-0.2,0.1v1.4
	h2.4v0.6h-2.4v1.6h1.5L190.4,162.5z"/>
<path class="st0" d="M164.6,176.7v3.2c0.8,1.2,2.2,1.2,4,1.2c1.1,0,2.3,0,3.1-0.1c-0.1,0.1-0.2,0.4-0.2,0.6c-0.7,0-1.7,0-2.7,0
	c-2.1,0-3.5,0-4.5-1.2c-0.4,0.4-0.9,0.9-1.3,1.2c0,0.1,0,0.1-0.1,0.2l-0.4-0.7c0.4-0.3,0.9-0.7,1.4-1.2v-2.7h-1.3v-0.6H164.6z
	 M163.3,173.1c0.6,0.5,1.3,1.1,1.6,1.6l-0.5,0.4c-0.3-0.5-1-1.2-1.6-1.7L163.3,173.1z M171.6,175.2h-2.5c0.6,0.7,1.7,1.4,2.6,1.7
	c-0.1,0.1-0.3,0.3-0.4,0.5c-0.9-0.4-2-1.1-2.6-1.9v1.5h-0.6v-1.4c-0.7,0.8-1.8,1.6-2.7,2c-0.1-0.1-0.3-0.4-0.4-0.5
	c1-0.3,2-1,2.7-1.8h-2.4v-0.5h2.8v-0.8c-0.8,0.1-1.5,0.1-2.3,0.2c0-0.1-0.1-0.3-0.2-0.5c1.7-0.1,3.8-0.3,4.9-0.6l0.5,0.5
	c0,0-0.1,0-0.1,0c0,0,0,0-0.1,0c-0.6,0.1-1.3,0.2-2.1,0.3v0.8h2.9V175.2z M168.9,178.8c0.1-0.4,0.2-0.8,0.3-1.2h-1.3
	c-0.2,1.3-0.7,2.3-2.3,2.9c-0.1-0.1-0.2-0.4-0.4-0.5c1.4-0.4,1.8-1.3,2-2.4h-1.2v-0.5h3.3l0.1,0l0.4,0.1c0,0,0,0.1,0,0.1
	c0,0.2-0.1,0.4-0.1,0.7h1.1l0.1,0l0.4,0.1l0,0.2c-0.2,2-0.4,2.1-1.4,2.1c-0.2,0-0.6,0-0.9,0c0-0.2-0.1-0.4-0.2-0.5
	c0.5,0,1,0.1,1.1,0.1c0.2,0,0.3,0,0.3-0.1c0.1-0.1,0.2-0.5,0.3-1.3h-1c0,0.1,0,0.2-0.1,0.3L168.9,178.8z"/>
<path class="st0" d="M176,179.3h-2.6v0.9h-0.6v-6.8h3.2V179.3z M175.3,174h-2v2h2V174z M173.4,178.7h2v-2.1h-2V178.7z M181.1,173.3
	v7.7c0,0.4-0.1,0.7-0.4,0.8c-0.3,0.1-0.8,0.1-1.7,0.1c0-0.2-0.1-0.5-0.2-0.7c0.3,0,0.7,0,0.9,0c0.7,0,0.8,0,0.8-0.3v-2.3h-3
	c-0.2,1.2-0.7,2.4-1.9,3.2c-0.1-0.1-0.3-0.4-0.5-0.4c1.7-1.3,1.9-3.2,1.9-4.7v-3.5H181.1z M177.6,176.8c0,0.4,0,0.9-0.1,1.3h3v-1.8
	h-2.9V176.8z M180.4,173.9h-2.9v1.8h2.9V173.9z"/>
<path class="st0" d="M183.1,174.8c0,0.9-0.2,1.9-0.5,2.6l-0.5-0.3c0.3-0.6,0.5-1.6,0.5-2.4L183.1,174.8z M183.6,172.8l0.8,0.1
	c0,0.1-0.1,0.1-0.2,0.1v8.9h-0.6V172.8z M184.8,174.4c0.3,0.5,0.7,1.1,0.8,1.5l-0.5,0.3c-0.1-0.4-0.5-1.1-0.8-1.6L184.8,174.4z
	 M188.5,180.9h2.6v0.6h-6.1v-0.6h2.8v-2.4h-2.1v-0.6h2.1v-2.2h-1.5c-0.2,0.6-0.4,1.2-0.7,1.6c-0.1-0.1-0.4-0.2-0.5-0.3
	c0.5-0.9,0.9-2.3,1.1-3.8l0.8,0.2c0,0.1-0.1,0.1-0.2,0.1c-0.1,0.5-0.2,1.1-0.4,1.6h1.3v-2.3l0.8,0.1c0,0.1-0.1,0.1-0.2,0.1v2.1h2.3
	v0.6h-2.3v2.2h2v0.6h-2V180.9z"/>
</svg>
