<?xml version="1.0" encoding="utf-8"?>
<!-- Generator: Adobe Illustrator 21.1.0, SVG Export Plug-In . SVG Version: 6.00 Build 0)  -->
<svg version="1.1" id="Layer_4" xmlns="http://www.w3.org/2000/svg" xmlns:xlink="http://www.w3.org/1999/xlink" x="0px" y="0px"
	 viewBox="0 0 214.3 204.9" style="enable-background:new 0 0 214.3 204.9;" xml:space="preserve">
<style type="text/css">
	.st0{fill:#FFFFFF;}
	.st1{fill:#25258D;}
	.st2{fill:#ABB4BB;}
	.st3{fill:#464F56;}
</style>
<path class="st0" d="M210.5,203.9H13.2c-1.6,0-2.8-1.3-2.8-2.8v-99.5c0-1.6,1.3-2.8,2.8-2.8h197.4c1.6,0,2.8,1.3,2.8,2.8v99.5
	C213.3,202.7,212.1,203.9,210.5,203.9z"/>
<path class="st1" d="M210.5,204.9H13.2c-2.1,0-3.8-1.7-3.8-3.8v-99.5c0-2.1,1.7-3.8,3.8-3.8h197.3c2.1,0,3.8,1.7,3.8,3.8v99.5
	C214.3,203.2,212.6,204.9,210.5,204.9z M13.2,99.8c-1,0-1.8,0.8-1.8,1.8v99.5c0,1,0.8,1.8,1.8,1.8h197.3c1,0,1.8-0.8,1.8-1.8v-99.5
	c0-1-0.8-1.8-1.8-1.8H13.2z"/>
<path class="st0" d="M205.9,199.3H8.6c-1.6,0-2.8-1.3-2.8-2.8V96.9c0-1.6,1.3-2.8,2.8-2.8H206c1.6,0,2.8,1.3,2.8,2.8v99.5
	C208.7,198,207.5,199.3,205.9,199.3z"/>
<path class="st1" d="M205.9,200.3H8.6c-2.1,0-3.8-1.7-3.8-3.8V96.9c0-2.1,1.7-3.8,3.8-3.8h197.3c2.1,0,3.8,1.7,3.8,3.8v99.5
	C209.7,198.6,208,200.3,205.9,200.3z M8.6,95.1c-1,0-1.8,0.8-1.8,1.8v99.5c0,1,0.8,1.8,1.8,1.8h197.3c1,0,1.8-0.8,1.8-1.8V96.9
	c0-1-0.8-1.8-1.8-1.8H8.6z"/>
<path class="st1" d="M201.2,88.4H3.8c-2.1,0-3.8,1.7-3.8,3.8v99.5c0,2.1,1.7,3.8,3.8,3.8h197.3c2.1,0,3.8-1.7,3.8-3.8V92.3
	C205,90.2,203.3,88.4,201.2,88.4z"/>
<path class="st2" d="M58.2,79.5h2.5l-3.5,6l-3.5-6h2.5V61.8c0-0.6,0.4-1,1-1s1,0.4,1,1V79.5z M169.6,79.5V61.8c0-0.6-0.4-1-1-1
	s-1,0.4-1,1v17.8h-2.5l3.5,6l3.5-6L169.6,79.5L169.6,79.5z"/>
<path class="st0" d="M101.2,58.4h-88c-1.6,0-2.8-1.3-2.8-2.8V13.2c0-1.6,1.3-2.8,2.8-2.8h88.1c1.6,0,2.8,1.3,2.8,2.8v42.4
	C104.1,57.2,102.8,58.4,101.2,58.4z"/>
<path class="st3" d="M101.2,59.4h-88c-2.1,0-3.8-1.7-3.8-3.8V13.2c0-2.1,1.7-3.8,3.8-3.8h88.1c2.1,0,3.8,1.7,3.8,3.8v42.4
	C105.1,57.7,103.4,59.4,101.2,59.4z M13.2,11.3c-1,0-1.8,0.8-1.8,1.8v42.4c0,1,0.8,1.8,1.8,1.8h88.1c1,0,1.8-0.8,1.8-1.8V13.2
	c0-1-0.8-1.8-1.8-1.8L13.2,11.3L13.2,11.3z"/>
<path class="st0" d="M96.6,53.8h-88c-1.6,0-2.8-1.3-2.8-2.8V8.5c0-1.6,1.3-2.8,2.8-2.8h88.1c1.6,0,2.8,1.3,2.8,2.8v42.4
	C99.5,52.5,98.2,53.8,96.6,53.8z"/>
<path class="st3" d="M96.7,54.8H8.6c-2.1,0-3.8-1.7-3.8-3.8V8.5c0-2.1,1.7-3.8,3.8-3.8h88.1c2.1,0,3.8,1.7,3.8,3.8v42.4
	C100.5,53,98.8,54.8,96.7,54.8z M8.6,6.7c-1,0-1.8,0.8-1.8,1.8v42.4c0,1,0.8,1.8,1.8,1.8h88.1c1,0,1.8-0.8,1.8-1.8V8.5
	c0-1-0.8-1.8-1.8-1.8H8.6z"/>
<path class="st0" d="M91.9,49.1H3.8c-1.6,0-2.8-1.3-2.8-2.8V3.8C1,2.3,2.3,1,3.8,1h88.1c1.6,0,2.8,1.3,2.8,2.8v42.4
	C94.8,47.8,93.5,49.1,91.9,49.1z"/>
<path class="st3" d="M91.9,50.1H3.8c-2.1,0-3.8-1.7-3.8-3.8V3.8C0,1.7,1.7,0,3.8,0h88.1c2.1,0,3.8,1.7,3.8,3.8v42.4
	C95.8,48.4,94,50.1,91.9,50.1z M3.8,2C2.8,2,2,2.8,2,3.8v42.4c0,1,0.8,1.8,1.8,1.8h88.1c1,0,1.8-0.8,1.8-1.8V3.8
	c0-1-0.8-1.8-1.8-1.8H3.8z"/>
<path class="st0" d="M210.5,58.4h-83.9c-1.6,0-2.8-1.3-2.8-2.8V13.2c0-1.6,1.3-2.8,2.8-2.8h83.9c1.6,0,2.8,1.3,2.8,2.8v42.4
	C213.3,57.2,212.1,58.4,210.5,58.4z"/>
<path class="st3" d="M210.5,59.4h-83.9c-2.1,0-3.8-1.7-3.8-3.8V13.2c0-2.1,1.7-3.8,3.8-3.8h83.9c2.1,0,3.8,1.7,3.8,3.8v42.4
	C214.3,57.7,212.6,59.4,210.5,59.4z M126.6,11.3c-1,0-1.8,0.8-1.8,1.8v42.4c0,1,0.8,1.8,1.8,1.8h83.9c1,0,1.8-0.8,1.8-1.8V13.2
	c0-1-0.8-1.8-1.8-1.8L126.6,11.3L126.6,11.3z"/>
<path class="st0" d="M206.2,53.8h-83.9c-1.6,0-2.8-1.3-2.8-2.8V8.5c0-1.6,1.3-2.8,2.8-2.8h83.9c1.6,0,2.8,1.3,2.8,2.8v42.4
	C209,52.5,207.7,53.8,206.2,53.8z"/>
<path class="st3" d="M206.2,54.8h-83.9c-2.1,0-3.8-1.7-3.8-3.8V8.5c0-2.1,1.7-3.8,3.8-3.8h83.9c2.1,0,3.8,1.7,3.8,3.8v42.4
	C210,53,208.3,54.8,206.2,54.8z M122.3,6.7c-1,0-1.8,0.8-1.8,1.8v42.4c0,1,0.8,1.8,1.8,1.8h83.9c1,0,1.8-0.8,1.8-1.8V8.5
	c0-1-0.8-1.8-1.8-1.8H122.3z"/>
<path class="st0" d="M201.7,49.1h-83.9c-1.6,0-2.8-1.3-2.8-2.8V3.8c0-1.6,1.3-2.8,2.8-2.8h83.9c1.6,0,2.8,1.3,2.8,2.8v42.4
	C204.5,47.8,203.2,49.1,201.7,49.1z"/>
<path class="st3" d="M201.7,50.1h-83.9c-2.1,0-3.8-1.7-3.8-3.8V3.8c0-2.1,1.7-3.8,3.8-3.8h83.9c2.1,0,3.8,1.7,3.8,3.8v42.4
	C205.5,48.4,203.8,50.1,201.7,50.1z M117.8,2c-1,0-1.8,0.8-1.8,1.8v42.4c0,1,0.8,1.8,1.8,1.8h83.9c1,0,1.8-0.8,1.8-1.8V3.8
	c0-1-0.8-1.8-1.8-1.8H117.8z"/>
<path class="st3" d="M139,21.4h1.4v6.3H139V21.4z M144.1,23c-0.6,0-1,0.2-1.3,0.5v-0.4h-1.4v4.5h1.4v-2.5c0-0.6,0.3-0.9,0.8-0.9
	c0.4,0,0.8,0.3,0.8,0.8v2.6h1.4v-2.8C145.8,23.7,145,23,144.1,23z M148.5,26l-0.9-2.9h-1.5l1.7,4.5h1.5l1.7-4.5h-1.5L148.5,26z
	 M155.7,25.4c0,0.2,0,0.4-0.1,0.5h-3.2c0.2,0.5,0.6,0.6,1.1,0.6c0.4,0,0.7-0.1,0.9-0.3l1.1,0.6c-0.4,0.6-1.1,0.9-2,0.9
	c-1.5,0-2.5-1-2.5-2.4c0-1.3,1-2.4,2.4-2.4C154.8,23,155.7,24,155.7,25.4z M154.4,24.9c-0.1-0.5-0.5-0.7-1-0.7c-0.5,0-0.9,0.3-1,0.7
	H154.4z M157.8,24v-0.8h-1.4v4.5h1.4v-2c0-0.9,0.8-1.1,1.3-1v-1.5C158.6,23.1,158,23.4,157.8,24z M161,24.5c0-0.2,0.1-0.3,0.4-0.3
	c0.3,0,0.5,0.2,0.6,0.4l1.2-0.6c-0.4-0.6-1-1-1.8-1c-0.9,0-1.8,0.5-1.8,1.5c0,1.6,2.2,1.3,2.2,1.8c0,0.2-0.2,0.3-0.5,0.3
	c-0.4,0-0.6-0.2-0.8-0.5l-1.2,0.7c0.4,0.7,1,1.1,1.9,1.1c1,0,1.9-0.4,1.9-1.5C163.2,24.6,161,25,161,24.5z M168.4,25.4
	c0,1.3-1.1,2.4-2.4,2.4c-1.3,0-2.4-1-2.4-2.4c0-1.3,1.1-2.4,2.4-2.4C167.3,23,168.4,24.1,168.4,25.4z M167,25.4c0-0.6-0.5-1.1-1-1.1
	c-0.6,0-1,0.4-1,1.1c0,0.6,0.4,1.1,1,1.1C166.6,26.5,167,26,167,25.4z M170.5,24v-0.8h-1.4v4.5h1.4v-2c0-0.9,0.8-1.1,1.3-1v-1.5
	C171.3,23.1,170.7,23.4,170.5,24z M176.8,25.4c0,0.2,0,0.4-0.1,0.5h-3.2c0.2,0.5,0.6,0.6,1.1,0.6c0.4,0,0.7-0.1,0.9-0.3l1.1,0.6
	c-0.4,0.6-1.1,0.9-2,0.9c-1.5,0-2.5-1-2.5-2.4c0-1.3,1-2.4,2.4-2.4C175.8,23,176.8,24,176.8,25.4z M175.4,24.9
	c-0.1-0.5-0.5-0.7-1-0.7c-0.5,0-0.9,0.3-1,0.7H175.4z M178.6,24.5c0-0.2,0.1-0.3,0.4-0.3c0.3,0,0.5,0.2,0.6,0.4l1.2-0.6
	c-0.4-0.6-1-1-1.8-1c-0.9,0-1.8,0.5-1.8,1.5c0,1.6,2.2,1.3,2.2,1.8c0,0.2-0.2,0.3-0.5,0.3c-0.4,0-0.6-0.2-0.8-0.5l-1.2,0.7
	c0.4,0.7,1,1.1,1.9,1.1c1,0,1.9-0.4,1.9-1.5C180.9,24.6,178.6,25,178.6,24.5z M34.7,19.7H37v-1.4h-2.3v-1.2h2.4v-1.4h-3.8V22h1.4
	V19.7z M37.7,19.7c0-1.3,1.1-2.4,2.4-2.4s2.4,1,2.4,2.4c0,1.3-1.1,2.4-2.4,2.4S37.7,21.1,37.7,19.7z M39,19.7c0,0.6,0.5,1.1,1,1.1
	c0.6,0,1-0.4,1-1.1c0-0.6-0.4-1.1-1-1.1C39.5,18.7,39,19.1,39,19.7z M47.5,22v-2.8c0-1.2-0.8-1.9-1.7-1.9c-0.6,0-1,0.2-1.3,0.5v-0.4
	h-1.4V22h1.4v-2.5c0-0.6,0.3-0.9,0.8-0.9c0.4,0,0.8,0.3,0.8,0.8V22H47.5z M48.2,19.7c0-1.3,1-2.4,2.2-2.4c0.6,0,1,0.2,1.3,0.5v-2.2
	h1.4V22h-1.4v-0.4c-0.3,0.3-0.7,0.5-1.3,0.5C49.2,22.1,48.2,21.1,48.2,19.7z M49.6,19.7c0,0.7,0.5,1.1,1.1,1.1s1.1-0.4,1.1-1.1
	c0-0.7-0.5-1.1-1.1-1.1S49.6,19,49.6,19.7z M56.2,22.1c-1.3,0-2.4-1-2.4-2.4c0-1.3,1.1-2.4,2.4-2.4s2.4,1,2.4,2.4
	C58.6,21.1,57.5,22.1,56.2,22.1z M57.2,19.7c0-0.6-0.4-1.1-1-1.1c-0.6,0-1,0.4-1,1.1c0,0.6,0.5,1.1,1,1.1
	C56.8,20.8,57.2,20.4,57.2,19.7z M60.9,20.9c-0.4,0-0.6-0.2-0.8-0.5L59,21c0.4,0.7,1,1.1,1.9,1.1c1,0,1.9-0.4,1.9-1.5
	c0-1.7-2.2-1.3-2.2-1.8c0-0.2,0.1-0.3,0.4-0.3c0.3,0,0.5,0.2,0.6,0.4l1.2-0.6c-0.4-0.6-1-1-1.8-1c-0.9,0-1.8,0.5-1.8,1.5
	c0,1.6,2.2,1.3,2.2,1.8C61.4,20.8,61.2,20.9,60.9,20.9z M18.6,31l-1-2.8h-1.5l1.8,4.3c-0.2,0.5-0.5,0.7-1.1,0.7v1.3
	c1.3,0.1,2.1-0.5,2.6-1.9l1.5-4.4h-1.4L18.6,31z M25.7,29.5c0.4,0,0.7,0.2,0.9,0.5l1.2-0.7c-0.4-0.7-1.2-1.2-2-1.2
	c-1.4,0-2.4,1-2.4,2.4c0,1.3,1,2.4,2.4,2.4c0.9,0,1.6-0.5,2-1.2l-1.2-0.7c-0.1,0.3-0.5,0.5-0.9,0.5c-0.6,0-1-0.4-1-1
	S25.1,29.5,25.7,29.5z M32.8,30.5c0,1.3-1.1,2.4-2.4,2.4s-2.4-1-2.4-2.4c0-1.3,1.1-2.4,2.4-2.4S32.8,29.2,32.8,30.5z M31.4,30.5
	c0-0.6-0.5-1.1-1-1.1s-1,0.4-1,1.1c0,0.6,0.5,1.1,1,1.1S31.4,31.2,31.4,30.5z M38.6,28.1c-0.6,0-1.1,0.2-1.3,0.6
	c-0.3-0.4-0.6-0.6-1.2-0.6c-0.6,0-1,0.2-1.2,0.5v-0.4h-1.4v4.5h1.4v-2.5c0-0.5,0.3-0.8,0.7-0.8c0.4,0,0.6,0.3,0.6,0.7v2.6h1.4v-2.5
	c0-0.5,0.3-0.8,0.7-0.8c0.4,0,0.6,0.3,0.6,0.7v2.6h1.4V30C40.3,28.9,39.6,28.1,38.6,28.1z M45.7,30.5c0,0.2,0,0.4-0.1,0.5h-3.2
	c0.2,0.5,0.6,0.6,1.1,0.6c0.4,0,0.7-0.1,0.9-0.3l1.1,0.6c-0.4,0.6-1.1,0.9-2,0.9c-1.5,0-2.5-1-2.5-2.4c0-1.3,1-2.4,2.4-2.4
	C44.7,28.1,45.7,29.2,45.7,30.5z M44.3,30.1c-0.1-0.5-0.5-0.7-1-0.7c-0.5,0-0.9,0.3-1,0.7H44.3z M47.8,29.1v-0.8h-1.4v4.5h1.4v-2
	c0-0.9,0.8-1.1,1.4-1v-1.5C48.6,28.2,48,28.5,47.8,29.1z M51.8,29.5c0.4,0,0.7,0.2,0.9,0.5l1.2-0.7c-0.4-0.7-1.2-1.2-2-1.2
	c-1.4,0-2.4,1-2.4,2.4c0,1.3,1,2.4,2.4,2.4c0.9,0,1.6-0.5,2-1.2l-1.2-0.7c-0.1,0.3-0.5,0.5-0.9,0.5c-0.6,0-1-0.4-1-1
	S51.2,29.5,51.8,29.5z M55,26.3c-0.4,0-0.8,0.4-0.8,0.8c0,0.4,0.4,0.8,0.8,0.8c0.4,0,0.8-0.4,0.8-0.8C55.9,26.6,55.5,26.3,55,26.3z
	 M54.4,32.8h1.4v-4.5h-1.4V32.8z M60,28.3h1.4v4.5H60v-0.4c-0.3,0.3-0.7,0.5-1.3,0.5c-1.2,0-2.2-1-2.2-2.4c0-1.3,1-2.4,2.2-2.4
	c0.6,0,1,0.2,1.3,0.5V28.3z M60,30.5c0-0.7-0.5-1.1-1.1-1.1s-1.1,0.4-1.1,1.1c0,0.7,0.5,1.1,1.1,1.1S60,31.2,60,30.5z M65,28.1
	c-0.6,0-1,0.2-1.3,0.5v-0.4h-1.4v4.5h1.4v-2.5c0-0.6,0.3-0.9,0.8-0.9c0.4,0,0.8,0.3,0.8,0.8v2.6h1.4V30C66.6,28.8,65.9,28.1,65,28.1
	z M69.3,27l-1.4,0.4v0.9h-0.7v1.3h0.7v1.6c0,1.3,0.5,1.8,2.3,1.6v-1.2c-0.6,0-0.9,0-0.9-0.4v-1.6h0.9v-1.3h-0.9V27z M75.3,30.5
	c0,0.2,0,0.4-0.1,0.5h-3.2c0.2,0.5,0.6,0.6,1.1,0.6c0.4,0,0.7-0.1,0.9-0.3l1.1,0.6c-0.4,0.6-1.1,0.9-2,0.9c-1.5,0-2.5-1-2.5-2.4
	c0-1.3,1-2.4,2.4-2.4C74.4,28.1,75.3,29.2,75.3,30.5z M74,30.1c-0.1-0.5-0.5-0.7-1-0.7c-0.5,0-0.9,0.3-1,0.7H74z M77.2,29.6
	c0-0.2,0.1-0.3,0.4-0.3c0.3,0,0.5,0.2,0.6,0.4l1.2-0.6c-0.4-0.6-1-1-1.8-1c-0.9,0-1.8,0.5-1.8,1.5c0,1.6,2.2,1.3,2.2,1.8
	c0,0.2-0.2,0.3-0.5,0.3c-0.4,0-0.6-0.2-0.8-0.5l-1.2,0.7c0.4,0.7,1,1.1,1.9,1.1c1,0,1.9-0.4,1.9-1.5C79.4,29.8,77.2,30.1,77.2,29.6z
	"/>
<path class="st0" d="M13.3,106.6c0-2,1.5-3.5,3.5-3.5c1.2,0,2.3,0.6,2.9,1.6l-1.3,0.8c-0.3-0.5-0.9-0.8-1.6-0.8c-1.2,0-2,0.8-2,2
	s0.8,2,2,2c0.7,0,1.3-0.3,1.6-0.8l1.3,0.8c-0.6,1-1.7,1.6-2.9,1.6C14.8,110.2,13.3,108.6,13.3,106.6z M21.7,110H20l2.3-6.8h2
	l2.3,6.8h-1.7l-0.3-1.1H22L21.7,110z M22.5,107.5h1.6l-0.8-2.5L22.5,107.5z M30.2,110.2c1.2,0,2.3-0.6,2.9-1.6l-1.3-0.8
	c-0.3,0.5-0.9,0.8-1.6,0.8c-1.2,0-2-0.8-2-2s0.8-2,2-2c0.7,0,1.3,0.3,1.6,0.8l1.3-0.8c-0.6-1-1.7-1.6-2.9-1.6
	c-2.1,0-3.5,1.5-3.5,3.5C26.6,108.6,28.1,110.2,30.2,110.2z M13.6,117.2v6.8h4v-1.5h-2.4v-5.3H13.6z M23,121.6c0,0.2,0,0.4-0.1,0.6
	h-3.5c0.2,0.5,0.6,0.7,1.2,0.7c0.4,0,0.7-0.2,0.9-0.4l1.2,0.7c-0.5,0.7-1.2,1-2.1,1c-1.7,0-2.7-1.1-2.7-2.6s1.1-2.6,2.6-2.6
	C22,119,23,120.1,23,121.6z M21.6,121.1c-0.2-0.6-0.6-0.8-1-0.8c-0.6,0-0.9,0.3-1.1,0.8H21.6z M26.2,126.1c-1,0-1.9-0.4-2.3-1.2
	l1.2-0.7c0.2,0.3,0.5,0.6,1.1,0.6c0.7,0,1.1-0.4,1.1-1v-0.4c-0.3,0.4-0.8,0.6-1.4,0.6c-1.4,0-2.4-1.1-2.4-2.5s1-2.5,2.4-2.5
	c0.6,0,1.1,0.2,1.4,0.6v-0.5h1.4v4.6C28.8,125.4,27.5,126.1,26.2,126.1z M27.4,121.5c0-0.7-0.5-1.1-1.2-1.1c-0.7,0-1.2,0.5-1.2,1.1
	s0.5,1.1,1.2,1.1C26.9,122.6,27.4,122.2,27.4,121.5z M32,119c0.7,0,1.1,0.2,1.5,0.6v-0.5h1.5v4.9h-1.5v-0.5
	c-0.3,0.4-0.8,0.6-1.5,0.6c-1.3,0-2.3-1.1-2.3-2.6S30.7,119,32,119z M32.3,120.4c-0.7,0-1.2,0.5-1.2,1.2s0.5,1.2,1.2,1.2
	s1.2-0.5,1.2-1.2S32.9,120.4,32.3,120.4z M37.4,116.9H36v7.1h1.5V116.9z M38.3,121.6c0-1.5,1.1-2.6,2.6-2.6c1.4,0,2.5,1.1,2.5,2.6
	c0,0.2,0,0.4-0.1,0.6h-3.5c0.2,0.5,0.6,0.7,1.2,0.7c0.4,0,0.7-0.2,0.9-0.4l1.2,0.7c-0.5,0.7-1.2,1-2.1,1
	C39.3,124.2,38.3,123,38.3,121.6z M39.8,121.1h2.1c-0.2-0.6-0.6-0.8-1-0.8C40.3,120.3,39.9,120.6,39.8,121.1z M45.7,122.9
	c-0.4,0-0.7-0.2-0.8-0.6l-1.3,0.7c0.4,0.8,1.1,1.2,2.1,1.2c1.1,0,2-0.5,2-1.6c0-1.8-2.4-1.4-2.4-2c0-0.2,0.2-0.3,0.4-0.3
	c0.3,0,0.5,0.2,0.7,0.4l1.2-0.7c-0.4-0.7-1.1-1-1.9-1c-1,0-1.9,0.5-1.9,1.6c0,1.7,2.4,1.4,2.4,1.9C46.3,122.7,46.1,122.9,45.7,122.9
	z M13.6,131.2h2.7c1.3,0,2.3,1,2.3,2.3c0,0.8-0.5,1.6-1.3,2l1.5,2.5h-1.7l-1.3-2.2h-0.7v2.2h-1.6V131.2z M15.2,134.4h1.2
	c0.4,0,0.8-0.4,0.8-0.9c0-0.5-0.4-0.9-0.8-0.9h-1.2V134.4z M22.9,133.1h1.5v4.9h-1.5v-0.5c-0.3,0.4-0.8,0.6-1.5,0.6
	c-1.3,0-2.3-1.1-2.3-2.6s1.1-2.6,2.3-2.6c0.7,0,1.1,0.2,1.5,0.6V133.1z M22.9,135.6c0-0.7-0.5-1.2-1.2-1.2c-0.7,0-1.2,0.5-1.2,1.2
	s0.5,1.2,1.2,1.2C22.4,136.8,22.9,136.3,22.9,135.6z M28.3,134.6v-1.4h-1v-1.4l-1.5,0.4v0.9H25v1.4h0.8v1.7c0,1.4,0.6,1.9,2.5,1.7
	v-1.3c-0.6,0-1,0-1-0.4v-1.7H28.3z M29.8,131c-0.5,0-0.9,0.4-0.9,0.9s0.4,0.9,0.9,0.9c0.5,0,0.9-0.4,0.9-0.9S30.3,131,29.8,131z
	 M29.1,138h1.5v-4.9h-1.5V138z M33.1,133.6v-0.5h-1.5v4.9h1.5v-2.7c0-0.7,0.4-1,0.9-1c0.5,0,0.8,0.3,0.8,0.9v2.8h1.5v-3
	c0-1.3-0.8-2-1.8-2C33.8,133,33.4,133.2,33.1,133.6z M37.1,135.5c0-1.3,1-2.5,2.4-2.5c0.6,0,1.1,0.2,1.4,0.6v-0.5h1.4v4.6
	c0,1.6-1.3,2.3-2.6,2.3c-1,0-1.9-0.4-2.3-1.2l1.2-0.7c0.2,0.3,0.5,0.6,1.1,0.6c0.7,0,1.1-0.4,1.1-1v-0.4c-0.3,0.4-0.8,0.6-1.4,0.6
	C38.1,138,37.1,136.8,37.1,135.5z M38.5,135.5c0,0.7,0.5,1.1,1.2,1.1c0.7,0,1.2-0.5,1.2-1.1s-0.5-1.1-1.2-1.1
	C39,134.4,38.5,134.8,38.5,135.5z M45.6,136.6c0,0.2-0.2,0.3-0.5,0.3c-0.4,0-0.7-0.2-0.8-0.6L43,137c0.4,0.8,1.1,1.2,2.1,1.2
	c1.1,0,2-0.5,2-1.6c0-1.8-2.4-1.4-2.4-2c0-0.2,0.2-0.3,0.4-0.3c0.3,0,0.5,0.2,0.7,0.4l1.2-0.7c-0.4-0.7-1.1-1-1.9-1
	c-1,0-1.9,0.5-1.9,1.6C43.2,136.3,45.6,136,45.6,136.6z M16,152.2c1.5,0,2.5-0.8,2.5-2.1c0-1.4-1.2-1.8-2.2-2.1
	c-1.1-0.3-1.2-0.5-1.2-0.8c0-0.3,0.2-0.5,0.7-0.5c0.6,0,0.9,0.3,1.2,0.8l1.3-0.8c-0.5-1-1.4-1.5-2.5-1.5c-1.2,0-2.3,0.8-2.3,2.1
	c0,1.3,1,1.8,2,2.1c1,0.3,1.4,0.4,1.4,0.9c0,0.3-0.2,0.6-0.9,0.6c-0.8,0-1.2-0.4-1.4-0.9l-1.3,0.8C13.7,151.5,14.6,152.2,16,152.2z
	 M21.8,152.2c-1.4,0-2.6-1.1-2.6-2.6s1.2-2.6,2.6-2.6c1.4,0,2.6,1.1,2.6,2.6S23.2,152.2,21.8,152.2z M22.9,149.6
	c0-0.7-0.5-1.2-1.1-1.2s-1.1,0.5-1.1,1.2s0.5,1.2,1.1,1.2S22.9,150.3,22.9,149.6z M27.7,146.5v-1.4c-1.6-0.1-2.4,0.7-2.4,2.1h-0.7
	v1.4h0.7v3.5h1.5v-3.5h0.9v-1.4h-0.9C26.8,146.6,27.2,146.4,27.7,146.5z M31.3,148.6v-1.4h-1v-1.4l-1.5,0.4v0.9H28v1.4h0.8v1.7
	c0,1.4,0.6,1.9,2.5,1.7v-1.3c-0.6,0-1,0-1-0.4v-1.7H31.3z M36.8,149.8l-0.8-2.6h-1.4l-0.8,2.6l-0.7-2.6h-1.6l1.6,4.9h1.4l0.8-2.6
	l0.8,2.6h1.4l1.6-4.9h-1.6L36.8,149.8z M43,151.6c-0.3,0.4-0.8,0.6-1.5,0.6c-1.3,0-2.3-1.1-2.3-2.6s1.1-2.6,2.3-2.6
	c0.7,0,1.1,0.2,1.5,0.6v-0.5h1.5v4.9H43V151.6z M43,149.6c0-0.7-0.5-1.2-1.2-1.2s-1.2,0.5-1.2,1.2s0.5,1.2,1.2,1.2
	S43,150.3,43,149.6z M47,148v-0.9h-1.5v4.9H47v-2.2c0-1,0.9-1.2,1.5-1.1v-1.7C47.9,147.1,47.2,147.4,47,148z M48.8,149.6
	c0-1.5,1.1-2.6,2.6-2.6c1.4,0,2.5,1.1,2.5,2.6c0,0.2,0,0.4-0.1,0.6h-3.5c0.2,0.5,0.6,0.7,1.2,0.7c0.4,0,0.7-0.2,0.9-0.4l1.2,0.7
	c-0.5,0.7-1.2,1-2.1,1C49.8,152.2,48.8,151,48.8,149.6z M50.3,149.1h2.1c-0.2-0.6-0.6-0.8-1-0.8C50.8,148.3,50.5,148.6,50.3,149.1z
	 M14.9,166h1.6v-5.3h1.8v-1.5h-5.1v1.5h1.8V166z M20.3,161c1.4,0,2.6,1.1,2.6,2.6s-1.2,2.6-2.6,2.6c-1.4,0-2.6-1.1-2.6-2.6
	S18.9,161,20.3,161z M19.2,163.6c0,0.7,0.5,1.2,1.1,1.2s1.1-0.5,1.1-1.2s-0.5-1.2-1.1-1.2S19.2,162.9,19.2,163.6z M25.2,163.9
	l1.6,2.2h1.7l-1.8-2.4l1.8-2.4h-1.7l-1.5,2.1v-4.1h-1.5v6.8h1.5V163.9z M31.1,166.2c-1.7,0-2.7-1.1-2.7-2.6s1.1-2.6,2.6-2.6
	c1.4,0,2.5,1.1,2.5,2.6c0,0.2,0,0.4-0.1,0.6H30c0.2,0.5,0.6,0.7,1.2,0.7c0.4,0,0.7-0.2,0.9-0.4l1.2,0.7
	C32.7,165.8,32,166.2,31.1,166.2z M29.9,163.1H32c-0.2-0.6-0.6-0.8-1-0.8C30.4,162.3,30.1,162.6,29.9,163.1z M37.2,161
	c-0.6,0-1.1,0.2-1.4,0.6v-0.5h-1.5v4.9h1.5v-2.7c0-0.7,0.4-1,0.9-1c0.5,0,0.8,0.3,0.8,0.9v2.8H39v-3C39,161.7,38.1,161,37.2,161z
	 M40.7,159c-0.5,0-0.9,0.4-0.9,0.9s0.4,0.9,0.9,0.9c0.5,0,0.9-0.4,0.9-0.9S41.2,159,40.7,159z M40,166h1.5v-4.9H40V166z M46.3,164.7
	h-1.9l1.8-2.5v-1h-3.7v1.4h1.7l-1.8,2.5v1h3.9V164.7z M50.4,166v-0.5c-0.3,0.4-0.8,0.6-1.5,0.6c-1.3,0-2.3-1.1-2.3-2.6
	s1.1-2.6,2.3-2.6c0.7,0,1.1,0.2,1.5,0.6v-0.5h1.5v4.9H50.4z M50.4,163.6c0-0.7-0.5-1.2-1.2-1.2s-1.2,0.5-1.2,1.2s0.5,1.2,1.2,1.2
	S50.4,164.3,50.4,163.6z M52.7,163.6c0,1.5,1.1,2.6,2.6,2.6c1,0,1.8-0.5,2.2-1.3l-1.3-0.7c-0.2,0.3-0.5,0.5-0.9,0.5
	c-0.6,0-1.1-0.5-1.1-1.1s0.5-1.1,1.1-1.1c0.4,0,0.8,0.2,0.9,0.5l1.3-0.7c-0.4-0.8-1.3-1.2-2.2-1.2C53.8,161,52.7,162.1,52.7,163.6z
	 M58.8,159c-0.5,0-0.9,0.4-0.9,0.9s0.4,0.9,0.9,0.9c0.5,0,0.9-0.4,0.9-0.9S59.3,159,58.8,159z M58.1,166h1.5v-4.9h-1.5V166z
	 M64.6,159.1h-1.8l-0.8,1.4h1.4L64.6,159.1z M63,166.2c-1.4,0-2.6-1.1-2.6-2.6s1.2-2.6,2.6-2.6c1.4,0,2.6,1.1,2.6,2.6
	S64.4,166.2,63,166.2z M63,164.7c0.6,0,1.1-0.5,1.1-1.2s-0.5-1.2-1.1-1.2s-1.1,0.5-1.1,1.2S62.3,164.7,63,164.7z M69.6,166H71v-3
	c0-1.3-0.8-2-1.8-2c-0.6,0-1.1,0.2-1.4,0.6v-0.5h-1.5v4.9h1.5v-2.7c0-0.7,0.4-1,0.9-1c0.5,0,0.8,0.3,0.8,0.9V166z M16.9,174.6
	c0.7,0,1.3,0.3,1.6,0.8l1.3-0.8c-0.6-1-1.7-1.6-2.9-1.6c-2.1,0-3.5,1.5-3.5,3.5c0,2,1.5,3.5,3.5,3.5c1.2,0,2.3-0.6,2.9-1.6l-1.3-0.8
	c-0.3,0.5-0.9,0.8-1.6,0.8c-1.2,0-2-0.8-2-2S15.7,174.6,16.9,174.6z M25.5,177.6c0,1.5-1.2,2.6-2.6,2.6c-1.4,0-2.6-1.1-2.6-2.6
	s1.2-2.6,2.6-2.6C24.3,175,25.5,176.1,25.5,177.6z M24,177.6c0-0.7-0.5-1.2-1.1-1.2s-1.1,0.5-1.1,1.2s0.5,1.2,1.1,1.2
	S24,178.3,24,177.6z M29.1,175c-0.6,0-1.1,0.2-1.4,0.6v-0.5h-1.5v4.9h1.5v-2.7c0-0.7,0.4-1,0.9-1c0.5,0,0.8,0.3,0.8,0.9v2.8H31v-3
	C31,175.7,30.1,175,29.1,175z M33.8,173.8l-1.5,0.4v0.9h-0.8v1.4h0.8v1.7c0,1.4,0.6,1.9,2.5,1.7v-1.3c-0.6,0-1,0-1-0.4v-1.7h1v-1.4
	h-1V173.8z M37.2,176v-0.9h-1.5v4.9h1.5v-2.2c0-1,0.9-1.2,1.5-1.1v-1.7C38.1,175.1,37.4,175.4,37.2,176z M42.8,175.1h1.5v4.9h-1.5
	v-0.5c-0.3,0.4-0.8,0.6-1.5,0.6c-1.3,0-2.3-1.1-2.3-2.6s1.1-2.6,2.3-2.6c0.7,0,1.1,0.2,1.5,0.6V175.1z M42.8,177.6
	c0-0.7-0.5-1.2-1.2-1.2c-0.7,0-1.2,0.5-1.2,1.2s0.5,1.2,1.2,1.2C42.3,178.8,42.8,178.3,42.8,177.6z M47.2,173.8l-1.5,0.4v0.9h-0.8
	v1.4h0.8v1.7c0,1.4,0.6,1.9,2.5,1.7v-1.3c-0.6,0-1,0-1-0.4v-1.7h1v-1.4h-1V173.8z M53.8,177.6c0,1.5-1.2,2.6-2.6,2.6
	c-1.4,0-2.6-1.1-2.6-2.6s1.2-2.6,2.6-2.6C52.7,175,53.8,176.1,53.8,177.6z M52.4,177.6c0-0.7-0.5-1.2-1.1-1.2s-1.1,0.5-1.1,1.2
	s0.5,1.2,1.1,1.2S52.4,178.3,52.4,177.6z M55.9,176.6c0-0.2,0.2-0.3,0.4-0.3c0.3,0,0.5,0.2,0.7,0.4l1.2-0.7c-0.4-0.7-1.1-1-1.9-1
	c-1,0-1.9,0.5-1.9,1.6c0,1.7,2.4,1.4,2.4,1.9c0,0.2-0.2,0.3-0.5,0.3c-0.4,0-0.7-0.2-0.8-0.6l-1.3,0.7c0.4,0.8,1.1,1.2,2.1,1.2
	c1.1,0,2-0.5,2-1.6C58.3,176.8,55.9,177.1,55.9,176.6z M61.6,180H63v-4.9h-1.5V180z M62.3,173c-0.5,0-0.9,0.4-0.9,0.9
	s0.4,0.9,0.9,0.9c0.5,0,0.9-0.4,0.9-0.9S62.8,173,62.3,173z M67,175c-0.6,0-1.1,0.2-1.4,0.6v-0.5h-1.5v4.9h1.5v-2.7
	c0-0.7,0.4-1,0.9-1c0.5,0,0.8,0.3,0.8,0.9v2.8h1.5v-3C68.8,175.7,67.9,175,67,175z M71.6,173.8l-1.5,0.4v0.9h-0.8v1.4h0.8v1.7
	c0,1.4,0.6,1.9,2.5,1.7v-1.3c-0.6,0-1,0-1-0.4v-1.7h1v-1.4h-1V173.8z M78.2,177.6c0,0.2,0,0.4-0.1,0.6h-3.5c0.2,0.5,0.6,0.7,1.2,0.7
	c0.4,0,0.7-0.2,0.9-0.4l1.2,0.7c-0.5,0.7-1.2,1-2.1,1c-1.7,0-2.7-1.1-2.7-2.6s1.1-2.6,2.6-2.6C77.1,175,78.2,176.1,78.2,177.6z
	 M76.7,177.1c-0.2-0.6-0.6-0.8-1-0.8c-0.6,0-0.9,0.3-1.1,0.8H76.7z M79,180h1.5v-7.1H79V180z M82.3,173c-0.5,0-0.9,0.4-0.9,0.9
	s0.4,0.9,0.9,0.9c0.5,0,0.9-0.4,0.9-0.9S82.8,173,82.3,173z M81.6,180H83v-4.9h-1.5V180z M87.7,175.1h1.4v4.6c0,1.6-1.3,2.3-2.6,2.3
	c-1,0-1.9-0.4-2.3-1.2l1.2-0.7c0.2,0.3,0.5,0.6,1.1,0.6c0.7,0,1.1-0.4,1.1-1v-0.4c-0.3,0.4-0.8,0.6-1.4,0.6c-1.4,0-2.4-1.1-2.4-2.5
	s1-2.5,2.4-2.5c0.6,0,1.1,0.2,1.4,0.6V175.1z M87.7,177.5c0-0.7-0.5-1.1-1.2-1.1c-0.7,0-1.2,0.5-1.2,1.1s0.5,1.1,1.2,1.1
	C87.2,178.6,87.7,178.2,87.7,177.5z M95,177.6c0,0.2,0,0.4-0.1,0.6h-3.5c0.2,0.5,0.6,0.7,1.2,0.7c0.4,0,0.7-0.2,0.9-0.4l1.2,0.7
	c-0.5,0.7-1.2,1-2.1,1c-1.7,0-2.7-1.1-2.7-2.6s1.1-2.6,2.6-2.6C94,175,95,176.1,95,177.6z M93.6,177.1c-0.2-0.6-0.6-0.8-1-0.8
	c-0.6,0-0.9,0.3-1.1,0.8H93.6z M98.7,175c-0.6,0-1.1,0.2-1.4,0.6v-0.5h-1.5v4.9h1.5v-2.7c0-0.7,0.4-1,0.9-1c0.5,0,0.8,0.3,0.8,0.9
	v2.8h1.5v-3C100.5,175.7,99.7,175,98.7,175z M103.4,173.8l-1.5,0.4v0.9h-0.8v1.4h0.8v1.7c0,1.4,0.6,1.9,2.5,1.7v-1.3
	c-0.6,0-1,0-1-0.4v-1.7h1v-1.4h-1V173.8z M109.9,177.6c0,0.2,0,0.4-0.1,0.6h-3.5c0.2,0.5,0.6,0.7,1.2,0.7c0.4,0,0.7-0.2,0.9-0.4
	l1.2,0.7c-0.5,0.7-1.2,1-2.1,1c-1.7,0-2.7-1.1-2.7-2.6s1.1-2.6,2.6-2.6C108.9,175,109.9,176.1,109.9,177.6z M108.5,177.1
	c-0.2-0.6-0.6-0.8-1-0.8c-0.6,0-0.9,0.3-1.1,0.8H108.5z M112,176.6c0-0.2,0.2-0.3,0.4-0.3c0.3,0,0.5,0.2,0.7,0.4l1.2-0.7
	c-0.4-0.7-1.1-1-1.9-1c-1,0-1.9,0.5-1.9,1.6c0,1.7,2.4,1.4,2.4,1.9c0,0.2-0.2,0.3-0.5,0.3c-0.4,0-0.7-0.2-0.8-0.6l-1.3,0.7
	c0.4,0.8,1.1,1.2,2.1,1.2c1.1,0,2-0.5,2-1.6C114.4,176.8,112,177.1,112,176.6z M80.2,110.2c1.2,0,2.3-0.6,2.9-1.6l-1.3-0.8
	c-0.3,0.5-0.9,0.8-1.6,0.8c-1.2,0-2-0.8-2-2s0.8-2,2-2c0.7,0,1.3,0.3,1.6,0.8l1.3-0.8c-0.6-1-1.7-1.6-2.9-1.6
	c-2.1,0-3.5,1.5-3.5,3.5C76.7,108.6,78.2,110.2,80.2,110.2z M83.6,107.6c0-1.5,1.2-2.6,2.6-2.6c1.4,0,2.6,1.1,2.6,2.6
	s-1.2,2.6-2.6,2.6C84.8,110.2,83.6,109,83.6,107.6z M85.1,107.6c0,0.7,0.5,1.2,1.1,1.2s1.1-0.5,1.1-1.2s-0.5-1.2-1.1-1.2
	S85.1,106.9,85.1,107.6z M97,110v-3c0-1.2-0.7-2-1.9-2c-0.7,0-1.1,0.3-1.4,0.6c-0.3-0.4-0.7-0.6-1.3-0.6c-0.7,0-1.1,0.3-1.3,0.6
	v-0.4h-1.5v4.9h1.5v-2.7c0-0.6,0.3-0.9,0.8-0.9c0.5,0,0.7,0.3,0.7,0.8v2.9H94v-2.7c0-0.6,0.3-0.9,0.8-0.9c0.5,0,0.7,0.3,0.7,0.8v2.9
	H97z M97.7,107.6c0-1.5,1.1-2.6,2.6-2.6c1.4,0,2.5,1.1,2.5,2.6c0,0.2,0,0.4-0.1,0.6h-3.5c0.2,0.5,0.6,0.7,1.2,0.7
	c0.4,0,0.7-0.2,0.9-0.4l1.2,0.7c-0.5,0.7-1.2,1-2.1,1C98.8,110.2,97.7,109,97.7,107.6z M99.2,107.1h2.1c-0.2-0.6-0.6-0.8-1-0.8
	C99.7,106.3,99.4,106.6,99.2,107.1z M105.1,107.8c0-1,0.9-1.2,1.5-1.1v-1.7c-0.6,0-1.3,0.3-1.5,1v-0.9h-1.5v4.9h1.5V107.8z
	 M109.4,110.2c1,0,1.8-0.5,2.2-1.3l-1.3-0.7c-0.2,0.3-0.5,0.5-0.9,0.5c-0.6,0-1.1-0.5-1.1-1.1s0.5-1.1,1.1-1.1
	c0.4,0,0.8,0.2,0.9,0.5l1.3-0.7c-0.4-0.8-1.3-1.2-2.2-1.2c-1.5,0-2.6,1.1-2.6,2.6S107.9,110.2,109.4,110.2z M112.2,110h1.5v-4.9
	h-1.5V110z M112.9,104.7c0.5,0,0.9-0.4,0.9-0.9s-0.4-0.9-0.9-0.9s-0.9,0.4-0.9,0.9S112.5,104.7,112.9,104.7z M118.3,109.6
	c-0.3,0.4-0.8,0.6-1.5,0.6c-1.3,0-2.3-1.1-2.3-2.6s1.1-2.6,2.3-2.6c0.7,0,1.1,0.2,1.5,0.6v-0.5h1.5v4.9h-1.5V109.6z M118.3,107.6
	c0-0.7-0.5-1.2-1.2-1.2s-1.2,0.5-1.2,1.2s0.5,1.2,1.2,1.2S118.3,108.3,118.3,107.6z M123.2,106.4c0.5,0,0.8,0.3,0.8,0.9v2.8h1.5v-3
	c0-1.3-0.8-2-1.8-2c-0.6,0-1.1,0.2-1.4,0.6v-0.5h-1.5v4.9h1.5v-2.7C122.3,106.7,122.7,106.4,123.2,106.4z M126.9,108.3
	c0,1.4,0.6,1.9,2.5,1.7v-1.3c-0.6,0-1,0-1-0.4v-1.7h1v-1.4h-1v-1.4l-1.5,0.4v0.9h-0.8v1.4h0.8V108.3z M129.9,107.6
	c0-1.5,1.1-2.6,2.6-2.6c1.4,0,2.5,1.1,2.5,2.6c0,0.2,0,0.4-0.1,0.6h-3.5c0.2,0.5,0.6,0.7,1.2,0.7c0.4,0,0.7-0.2,0.9-0.4l1.2,0.7
	c-0.5,0.7-1.2,1-2.1,1C130.9,110.2,129.9,109,129.9,107.6z M131.4,107.1h2.1c-0.2-0.6-0.6-0.8-1-0.8
	C131.9,106.3,131.5,106.6,131.4,107.1z M137.3,108.9c-0.4,0-0.7-0.2-0.8-0.6l-1.3,0.7c0.4,0.8,1.1,1.2,2.1,1.2c1.1,0,2-0.5,2-1.6
	c0-1.8-2.4-1.4-2.4-2c0-0.2,0.2-0.3,0.4-0.3c0.3,0,0.5,0.2,0.7,0.4l1.2-0.7c-0.4-0.7-1.1-1-1.9-1c-1,0-1.9,0.5-1.9,1.6
	c0,1.7,2.4,1.4,2.4,1.9C137.9,108.7,137.7,108.9,137.3,108.9z M142.3,107.6c0-1.5,1.1-2.6,2.3-2.6c0.7,0,1.1,0.2,1.5,0.6v-0.5h1.5
	v4.9h-1.5v-0.5c-0.3,0.4-0.8,0.6-1.5,0.6C143.4,110.2,142.3,109,142.3,107.6z M143.8,107.6c0,0.7,0.5,1.2,1.2,1.2s1.2-0.5,1.2-1.2
	s-0.5-1.2-1.2-1.2S143.8,106.9,143.8,107.6z M150.1,112h-1.5v-6.8h1.5v0.5c0.3-0.4,0.8-0.6,1.5-0.6c1.3,0,2.3,1.1,2.3,2.6
	s-1.1,2.6-2.3,2.6c-0.7,0-1.1-0.2-1.5-0.6V112z M150.1,107.6c0,0.7,0.5,1.2,1.2,1.2s1.2-0.5,1.2-1.2s-0.5-1.2-1.2-1.2
	S150.1,106.9,150.1,107.6z M156.2,107.8c0-1,0.9-1.2,1.5-1.1v-1.7c-0.6,0-1.3,0.3-1.5,1v-0.9h-1.5v4.9h1.5V107.8z M157.9,107.6
	c0-1.5,1.2-2.6,2.6-2.6c1.4,0,2.6,1.1,2.6,2.6s-1.2,2.6-2.6,2.6C159.1,110.2,157.9,109,157.9,107.6z M159.4,107.6
	c0,0.7,0.5,1.2,1.1,1.2s1.1-0.5,1.1-1.2s-0.5-1.2-1.1-1.2S159.4,106.9,159.4,107.6z M165.4,110h-1.5v-6.8h1.5v2.4
	c0.3-0.4,0.8-0.6,1.5-0.6c1.3,0,2.3,1.1,2.3,2.6s-1.1,2.6-2.3,2.6c-0.7,0-1.1-0.2-1.5-0.6V110z M165.4,107.6c0,0.7,0.5,1.2,1.2,1.2
	c0.7,0,1.2-0.5,1.2-1.2s-0.5-1.2-1.2-1.2C165.9,106.4,165.4,106.9,165.4,107.6z M169.8,107.6c0-1.5,1.1-2.6,2.3-2.6
	c0.7,0,1.1,0.2,1.5,0.6v-0.5h1.5v4.9h-1.5v-0.5c-0.3,0.4-0.8,0.6-1.5,0.6C170.8,110.2,169.8,109,169.8,107.6z M171.2,107.6
	c0,0.7,0.5,1.2,1.2,1.2s1.2-0.5,1.2-1.2s-0.5-1.2-1.2-1.2S171.2,106.9,171.2,107.6z M175.9,107.6c0-1.5,1.1-2.6,2.3-2.6
	c0.7,0,1.1,0.2,1.5,0.6v-2.4h1.5v6.8h-1.5v-0.5c-0.3,0.4-0.8,0.6-1.5,0.6C176.9,110.2,175.9,109,175.9,107.6z M177.3,107.6
	c0,0.7,0.5,1.2,1.2,1.2s1.2-0.5,1.2-1.2s-0.5-1.2-1.2-1.2S177.3,106.9,177.3,107.6z M181.9,107.6c0-1.5,1.2-2.6,2.6-2.6
	c1.4,0,2.6,1.1,2.6,2.6s-1.2,2.6-2.6,2.6C183.1,110.2,181.9,109,181.9,107.6z M183.4,107.6c0,0.7,0.5,1.2,1.1,1.2s1.1-0.5,1.1-1.2
	s-0.5-1.2-1.1-1.2S183.4,106.9,183.4,107.6z M189.6,108.9c-0.4,0-0.7-0.2-0.8-0.6l-1.3,0.7c0.4,0.8,1.1,1.2,2.1,1.2
	c1.1,0,2-0.5,2-1.6c0-1.8-2.4-1.4-2.4-2c0-0.2,0.2-0.3,0.4-0.3c0.3,0,0.5,0.2,0.7,0.4l1.2-0.7c-0.4-0.7-1.1-1-1.9-1
	c-1,0-1.9,0.5-1.9,1.6c0,1.7,2.4,1.4,2.4,1.9C190.1,108.7,189.9,108.9,189.6,108.9z M102.3,118.7v-1.5h-4.1v6.8h1.6v-2.5h2.5V120
	h-2.5v-1.3H102.3z M103.9,117c-0.5,0-0.9,0.4-0.9,0.9s0.4,0.9,0.9,0.9c0.5,0,0.9-0.4,0.9-0.9S104.3,117,103.9,117z M103.1,124h1.5
	v-4.9h-1.5V124z M109.2,124v-0.5c-0.3,0.4-0.8,0.6-1.5,0.6c-1.3,0-2.3-1.1-2.3-2.6s1.1-2.6,2.3-2.6c0.7,0,1.1,0.2,1.5,0.6v-2.4h1.5
	v6.8H109.2z M109.2,121.6c0-0.7-0.5-1.2-1.2-1.2s-1.2,0.5-1.2,1.2s0.5,1.2,1.2,1.2S109.2,122.3,109.2,121.6z M114.9,121.8
	c0,0.7-0.4,1-0.9,1c-0.5,0-0.8-0.3-0.8-0.9v-2.8h-1.5v3c0,1.3,0.8,2,1.8,2c0.6,0,1.1-0.2,1.4-0.6v0.5h1.5v-4.9h-1.5V121.8z
	 M119.8,120.5c0.4,0,0.8,0.2,0.9,0.5l1.3-0.7c-0.4-0.8-1.3-1.2-2.2-1.2c-1.5,0-2.6,1.1-2.6,2.6s1.1,2.6,2.6,2.6c1,0,1.8-0.5,2.2-1.3
	l-1.3-0.7c-0.2,0.3-0.5,0.5-0.9,0.5c-0.6,0-1.1-0.5-1.1-1.1S119.1,120.5,119.8,120.5z M123.3,117c-0.5,0-0.9,0.4-0.9,0.9
	s0.4,0.9,0.9,0.9s0.9-0.4,0.9-0.9S123.8,117,123.3,117z M122.6,124h1.5v-4.9h-1.5V124z M127.2,124.2c-1.3,0-2.3-1.1-2.3-2.6
	s1.1-2.6,2.3-2.6c0.7,0,1.1,0.2,1.5,0.6v-0.5h1.5v4.9h-1.5v-0.5C128.3,123.9,127.8,124.2,127.2,124.2z M127.5,122.8
	c0.7,0,1.2-0.5,1.2-1.2s-0.5-1.2-1.2-1.2s-1.2,0.5-1.2,1.2S126.8,122.8,127.5,122.8z M131.2,119.1v4.9h1.5v-2.2c0-1,0.9-1.2,1.5-1.1
	v-1.7c-0.6,0-1.3,0.3-1.5,1v-0.9H131.2z M136.3,119.1h-1.5v4.9h1.5V119.1z M135.5,117c-0.5,0-0.9,0.4-0.9,0.9s0.4,0.9,0.9,0.9
	c0.5,0,0.9-0.4,0.9-0.9S136,117,135.5,117z M139.4,119c0.7,0,1.1,0.2,1.5,0.6v-0.5h1.5v4.9h-1.5v-0.5c-0.3,0.4-0.8,0.6-1.5,0.6
	c-1.3,0-2.3-1.1-2.3-2.6S138.1,119,139.4,119z M138.5,121.6c0,0.7,0.5,1.2,1.2,1.2s1.2-0.5,1.2-1.2s-0.5-1.2-1.2-1.2
	S138.5,120.9,138.5,121.6z M145.1,122.9c-0.4,0-0.7-0.2-0.8-0.6L143,123c0.4,0.8,1.1,1.2,2.1,1.2c1.1,0,2-0.5,2-1.6
	c0-1.8-2.4-1.4-2.4-2c0-0.2,0.2-0.3,0.4-0.3c0.3,0,0.5,0.2,0.7,0.4l1.2-0.7c-0.4-0.7-1.1-1-1.9-1c-1,0-1.9,0.5-1.9,1.6
	c0,1.7,2.4,1.4,2.4,1.9C145.6,122.7,145.5,122.9,145.1,122.9z M151.8,119.6v-0.4h-1.5v4.9h1.5v-2.7c0-0.6,0.3-0.9,0.8-0.9
	c0.5,0,0.7,0.3,0.7,0.8v2.9h1.5v-2.7c0-0.6,0.3-0.9,0.8-0.9c0.5,0,0.7,0.3,0.7,0.8v2.9h1.5v-3c0-1.2-0.7-2-1.9-2
	c-0.7,0-1.1,0.3-1.4,0.6c-0.3-0.4-0.7-0.6-1.3-0.6C152.5,119,152,119.3,151.8,119.6z M163.6,121.6c0,1.5-1.2,2.6-2.6,2.6
	s-2.6-1.1-2.6-2.6s1.2-2.6,2.6-2.6S163.6,120.1,163.6,121.6z M162.1,121.6c0-0.7-0.5-1.2-1.1-1.2s-1.1,0.5-1.1,1.2s0.5,1.2,1.1,1.2
	S162.1,122.3,162.1,121.6z M164.4,119.1v4.9h1.5v-2.7c0-0.7,0.4-1,0.9-1c0.5,0,0.8,0.3,0.8,0.9v2.8h1.5v-3c0-1.3-0.8-2-1.8-2
	c-0.6,0-1.1,0.2-1.4,0.6v-0.5H164.4z M175,121.6c0,0.2,0,0.4-0.1,0.6h-3.5c0.2,0.5,0.6,0.7,1.2,0.7c0.4,0,0.7-0.2,0.9-0.4l1.2,0.7
	c-0.5,0.7-1.2,1-2.1,1c-1.7,0-2.7-1.1-2.7-2.6s1.1-2.6,2.6-2.6C173.9,119,175,120.1,175,121.6z M173.5,121.1c-0.2-0.6-0.6-0.8-1-0.8
	c-0.6,0-0.9,0.3-1.1,0.8H173.5z M175.5,121.6c0-1.5,1.1-2.6,2.3-2.6c0.7,0,1.1,0.2,1.5,0.6v-2.4h1.5v6.8h-1.5v-0.5
	c-0.3,0.4-0.8,0.6-1.5,0.6C176.5,124.2,175.5,123,175.5,121.6z M177,121.6c0,0.7,0.5,1.2,1.2,1.2s1.2-0.5,1.2-1.2s-0.5-1.2-1.2-1.2
	S177,120.9,177,121.6z M181.6,121.6c0-1.5,1.1-2.6,2.3-2.6c0.7,0,1.1,0.2,1.5,0.6v-0.5h1.5v4.9h-1.5v-0.5c-0.3,0.4-0.8,0.6-1.5,0.6
	C182.6,124.2,181.6,123,181.6,121.6z M183,121.6c0,0.7,0.5,1.2,1.2,1.2s1.2-0.5,1.2-1.2s-0.5-1.2-1.2-1.2S183,120.9,183,121.6z
	 M189.2,120.6c0-0.2,0.2-0.3,0.4-0.3c0.3,0,0.5,0.2,0.7,0.4l1.2-0.7c-0.4-0.7-1.1-1-1.9-1c-1,0-1.9,0.5-1.9,1.6
	c0,1.7,2.4,1.4,2.4,1.9c0,0.2-0.2,0.3-0.5,0.3c-0.4,0-0.7-0.2-0.8-0.6l-1.3,0.7c0.4,0.8,1.1,1.2,2.1,1.2c1.1,0,2-0.5,2-1.6
	C191.6,120.8,189.2,121.1,189.2,120.6z M131.9,131.2h-5.1v1.5h1.8v5.3h1.6v-5.3h1.8V131.2z M133.4,135.8c0-1,0.9-1.2,1.5-1.1v-1.7
	c-0.6,0-1.3,0.3-1.5,1v-0.9h-1.5v4.9h1.5V135.8z M138.9,138v-0.5c-0.3,0.4-0.8,0.6-1.5,0.6c-1.3,0-2.3-1.1-2.3-2.6s1.1-2.6,2.3-2.6
	c0.7,0,1.1,0.2,1.5,0.6v-0.5h1.5v4.9H138.9z M138.9,135.6c0-0.7-0.5-1.2-1.2-1.2s-1.2,0.5-1.2,1.2s0.5,1.2,1.2,1.2
	S138.9,136.3,138.9,135.6z M144.7,138h1.5v-3c0-1.3-0.8-2-1.8-2c-0.6,0-1.1,0.2-1.4,0.6v-0.5h-1.5v4.9h1.5v-2.7c0-0.7,0.4-1,0.9-1
	c0.5,0,0.8,0.3,0.8,0.9V138z M148.9,136.9c-0.4,0-0.7-0.2-0.8-0.6l-1.3,0.7c0.4,0.8,1.1,1.2,2.1,1.2c1.1,0,2-0.5,2-1.6
	c0-1.8-2.4-1.4-2.4-2c0-0.2,0.2-0.3,0.4-0.3c0.3,0,0.5,0.2,0.7,0.4l1.2-0.7c-0.4-0.7-1.1-1-1.9-1c-1,0-1.9,0.5-1.9,1.6
	c0,1.7,2.4,1.4,2.4,1.9C149.4,136.7,149.2,136.9,148.9,136.9z M153.2,140h-1.5v-6.8h1.5v0.5c0.3-0.4,0.8-0.6,1.5-0.6
	c1.3,0,2.3,1.1,2.3,2.6s-1.1,2.6-2.3,2.6c-0.7,0-1.1-0.2-1.5-0.6V140z M153.2,135.6c0,0.7,0.5,1.2,1.2,1.2s1.2-0.5,1.2-1.2
	s-0.5-1.2-1.2-1.2S153.2,134.9,153.2,135.6z M161.3,138v-0.5c-0.3,0.4-0.8,0.6-1.5,0.6c-1.3,0-2.3-1.1-2.3-2.6s1.1-2.6,2.3-2.6
	c0.7,0,1.1,0.2,1.5,0.6v-0.5h1.5v4.9H161.3z M161.3,135.6c0-0.7-0.5-1.2-1.2-1.2s-1.2,0.5-1.2,1.2s0.5,1.2,1.2,1.2
	S161.3,136.3,161.3,135.6z M165.3,135.8c0-1,0.9-1.2,1.5-1.1v-1.7c-0.6,0-1.3,0.3-1.5,1v-0.9h-1.5v4.9h1.5V135.8z M169.7,133
	c1.4,0,2.5,1.1,2.5,2.6c0,0.2,0,0.4-0.1,0.6h-3.5c0.2,0.5,0.6,0.7,1.2,0.7c0.4,0,0.7-0.2,0.9-0.4l1.2,0.7c-0.5,0.7-1.2,1-2.1,1
	c-1.7,0-2.7-1.1-2.7-2.6S168.1,133,169.7,133z M168.6,135.1h2.1c-0.2-0.6-0.6-0.8-1-0.8C169.1,134.3,168.7,134.6,168.6,135.1z
	 M177.7,138v-3c0-1.3-0.8-2-1.8-2c-0.6,0-1.1,0.2-1.4,0.6v-0.5H173v4.9h1.5v-2.7c0-0.7,0.4-1,0.9-1c0.5,0,0.8,0.3,0.8,0.9v2.8H177.7
	z M183.2,136.9l-1.3-0.7c-0.2,0.3-0.5,0.5-0.9,0.5c-0.6,0-1.1-0.5-1.1-1.1s0.5-1.1,1.1-1.1c0.4,0,0.8,0.2,0.9,0.5l1.3-0.7
	c-0.4-0.8-1.3-1.2-2.2-1.2c-1.5,0-2.6,1.1-2.6,2.6s1.1,2.6,2.6,2.6C182,138.2,182.8,137.7,183.2,136.9z M184.5,131
	c-0.5,0-0.9,0.4-0.9,0.9s0.4,0.9,0.9,0.9s0.9-0.4,0.9-0.9S185,131,184.5,131z M183.8,138h1.5v-4.9h-1.5V138z M189.9,138v-0.5
	c-0.3,0.4-0.8,0.6-1.5,0.6c-1.3,0-2.3-1.1-2.3-2.6s1.1-2.6,2.3-2.6c0.7,0,1.1,0.2,1.5,0.6v-0.5h1.5v4.9H189.9z M189.9,135.6
	c0-0.7-0.5-1.2-1.2-1.2s-1.2,0.5-1.2,1.2s0.5,1.2,1.2,1.2S189.9,136.3,189.9,135.6z M134.9,148.2l-1.9-3h-1.6v6.8h1.6v-4l1.8,2.9
	h0.2l1.8-2.9v4h1.6v-6.8h-1.6L134.9,148.2z M142.6,149.8c0,0.7-0.4,1-0.9,1c-0.5,0-0.8-0.3-0.8-0.9v-2.8h-1.5v3c0,1.3,0.8,2,1.8,2
	c0.6,0,1.1-0.2,1.4-0.6v0.5h1.5v-4.9h-1.5V149.8z M145.1,152h1.5v-7.1h-1.5V152z M150.5,150.7c-0.6,0-1,0-1-0.4v-1.7h1v-1.4h-1v-1.4
	l-1.5,0.4v0.9h-0.8v1.4h0.8v1.7c0,1.4,0.6,1.9,2.5,1.7V150.7z M152.1,145c-0.5,0-0.9,0.4-0.9,0.9s0.4,0.9,0.9,0.9
	c0.5,0,0.9-0.4,0.9-0.9S152.5,145,152.1,145z M151.3,152h1.5v-4.9h-1.5V152z M157.6,148.4h-3.7v1.4h3.7V148.4z M161.1,148.5
	c0.4,0,0.8,0.2,0.9,0.5l1.3-0.7c-0.4-0.8-1.3-1.2-2.2-1.2c-1.5,0-2.6,1.1-2.6,2.6s1.1,2.6,2.6,2.6c1,0,1.8-0.5,2.2-1.3l-1.3-0.7
	c-0.2,0.3-0.5,0.5-0.9,0.5c-0.6,0-1.1-0.5-1.1-1.1S160.4,148.5,161.1,148.5z M167.3,152v-0.5c-0.3,0.4-0.8,0.6-1.5,0.6
	c-1.3,0-2.3-1.1-2.3-2.6s1.1-2.6,2.3-2.6c0.7,0,1.1,0.2,1.5,0.6v-0.5h1.5v4.9H167.3z M167.3,149.6c0-0.7-0.5-1.2-1.2-1.2
	s-1.2,0.5-1.2,1.2s0.5,1.2,1.2,1.2S167.3,150.3,167.3,149.6z M171.3,149.8c0-1,0.9-1.2,1.5-1.1v-1.7c-0.6,0-1.3,0.3-1.5,1v-0.9h-1.5
	v4.9h1.5V149.8z M174,150.3c0,1.4,0.6,1.9,2.5,1.7v-1.3c-0.6,0-1,0-1-0.4v-1.7h1v-1.4h-1v-1.4l-1.5,0.4v0.9h-0.8v1.4h0.8V150.3z
	 M182,150.2h-3.5c0.2,0.5,0.6,0.7,1.2,0.7c0.4,0,0.7-0.2,0.9-0.4l1.2,0.7c-0.5,0.7-1.2,1-2.1,1c-1.7,0-2.7-1.1-2.7-2.6
	s1.1-2.6,2.6-2.6c1.4,0,2.5,1.1,2.5,2.6C182,149.8,182,150,182,150.2z M180.6,149.1c-0.2-0.6-0.6-0.8-1-0.8c-0.6,0-0.9,0.3-1.1,0.8
	H180.6z M184.3,149.8c0-1,0.9-1.2,1.5-1.1v-1.7c-0.6,0-1.3,0.3-1.5,1v-0.9h-1.5v4.9h1.5V149.8z M186.1,149.6c0-1.5,1.1-2.6,2.3-2.6
	c0.7,0,1.1,0.2,1.5,0.6v-0.5h1.5v4.9h-1.5v-0.5c-0.3,0.4-0.8,0.6-1.5,0.6C187.1,152.2,186.1,151,186.1,149.6z M187.5,149.6
	c0,0.7,0.5,1.2,1.2,1.2s1.2-0.5,1.2-1.2s-0.5-1.2-1.2-1.2S187.5,148.9,187.5,149.6z M147.6,161.9c-1.1-0.3-1.2-0.5-1.2-0.8
	c0-0.3,0.2-0.5,0.7-0.5c0.6,0,0.9,0.3,1.2,0.8l1.3-0.8c-0.5-1-1.4-1.5-2.5-1.5c-1.2,0-2.3,0.8-2.3,2.1c0,1.3,1,1.8,2,2.1
	c1,0.3,1.4,0.4,1.4,0.9c0,0.3-0.2,0.6-0.9,0.6c-0.8,0-1.2-0.4-1.4-0.9l-1.3,0.8c0.4,1,1.3,1.7,2.7,1.7c1.5,0,2.5-0.8,2.5-2.1
	C149.8,162.6,148.6,162.3,147.6,161.9z M155.2,165.2c-0.5,0.7-1.2,1-2.1,1c-1.7,0-2.7-1.1-2.7-2.6s1.1-2.6,2.6-2.6
	c1.4,0,2.5,1.1,2.5,2.6c0,0.2,0,0.4-0.1,0.6H152c0.2,0.5,0.6,0.7,1.2,0.7c0.4,0,0.7-0.2,0.9-0.4L155.2,165.2z M151.9,163.1h2.1
	c-0.2-0.6-0.6-0.8-1-0.8C152.4,162.3,152.1,162.6,151.9,163.1z M159.8,165.8v-0.4c-0.3,0.4-0.8,0.6-1.4,0.6c-1.4,0-2.4-1.1-2.4-2.5
	s1-2.5,2.4-2.5c0.6,0,1.1,0.2,1.4,0.6v-0.5h1.4v4.6c0,1.6-1.3,2.3-2.6,2.3c-1,0-1.9-0.4-2.3-1.2l1.2-0.7c0.2,0.3,0.5,0.6,1.1,0.6
	C159.4,166.8,159.8,166.5,159.8,165.8z M159.8,163.5c0-0.7-0.5-1.1-1.2-1.1s-1.2,0.5-1.2,1.1s0.5,1.1,1.2,1.1
	S159.8,164.2,159.8,163.5z M164.1,166.2c0.6,0,1.1-0.2,1.4-0.6v0.5h1.5v-4.9h-1.5v2.7c0,0.7-0.4,1-0.9,1c-0.5,0-0.8-0.3-0.8-0.9
	v-2.8h-1.5v3C162.3,165.5,163.1,166.2,164.1,166.2z M169.5,163.8c0-1,0.9-1.2,1.5-1.1v-1.7c-0.6,0-1.3,0.3-1.5,1v-0.9H168v4.9h1.5
	V163.8z M171.6,166h1.5v-4.9h-1.5V166z M172.4,159c-0.5,0-0.9,0.4-0.9,0.9s0.4,0.9,0.9,0.9s0.9-0.4,0.9-0.9S172.8,159,172.4,159z
	 M177.7,166v-0.5c-0.3,0.4-0.8,0.6-1.5,0.6c-1.3,0-2.3-1.1-2.3-2.6s1.1-2.6,2.3-2.6c0.7,0,1.1,0.2,1.5,0.6v-2.4h1.5v6.8H177.7z
	 M177.7,163.6c0-0.7-0.5-1.2-1.2-1.2s-1.2,0.5-1.2,1.2s0.5,1.2,1.2,1.2S177.7,164.3,177.7,163.6z M182.3,166.2
	c-1.3,0-2.3-1.1-2.3-2.6s1.1-2.6,2.3-2.6c0.7,0,1.1,0.2,1.5,0.6v-0.5h1.5v4.9h-1.5v-0.5C183.5,165.9,183,166.2,182.3,166.2z
	 M182.6,164.8c0.7,0,1.2-0.5,1.2-1.2s-0.5-1.2-1.2-1.2s-1.2,0.5-1.2,1.2S182,164.8,182.6,164.8z M186.1,163.6c0-1.5,1.1-2.6,2.3-2.6
	c0.7,0,1.1,0.2,1.5,0.6v-2.4h1.5v6.8h-1.5v-0.5c-0.3,0.4-0.8,0.6-1.5,0.6C187.1,166.2,186.1,165,186.1,163.6z M187.5,163.6
	c0,0.7,0.5,1.2,1.2,1.2s1.2-0.5,1.2-1.2s-0.5-1.2-1.2-1.2S187.5,162.9,187.5,163.6z M156.6,177.3h2.4v-1.5h-2.4v-1.1h2.7v-1.5H155
	v6.8h4.3v-1.5h-2.7V177.3z M160.1,180h1.5v-7.1h-1.5V180z M167.5,177.6c0,0.2,0,0.4-0.1,0.6H164c0.2,0.5,0.6,0.7,1.2,0.7
	c0.4,0,0.7-0.2,0.9-0.4l1.2,0.7c-0.5,0.7-1.2,1-2.1,1c-1.7,0-2.7-1.1-2.7-2.6s1.1-2.6,2.6-2.6C166.4,175,167.5,176.1,167.5,177.6z
	 M166,177.1c-0.2-0.6-0.6-0.8-1-0.8c-0.6,0-0.9,0.3-1.1,0.8H166z M170.6,176.5c0.4,0,0.8,0.2,0.9,0.5l1.3-0.7
	c-0.4-0.8-1.3-1.2-2.2-1.2c-1.5,0-2.6,1.1-2.6,2.6s1.1,2.6,2.6,2.6c1,0,1.8-0.5,2.2-1.3l-1.3-0.7c-0.2,0.3-0.5,0.5-0.9,0.5
	c-0.6,0-1.1-0.5-1.1-1.1S169.9,176.5,170.6,176.5z M175.6,176.5c0.4,0,0.8,0.2,0.9,0.5l1.3-0.7c-0.4-0.8-1.3-1.2-2.2-1.2
	c-1.5,0-2.6,1.1-2.6,2.6s1.1,2.6,2.6,2.6c1,0,1.8-0.5,2.2-1.3l-1.3-0.7c-0.2,0.3-0.5,0.5-0.9,0.5c-0.6,0-1.1-0.5-1.1-1.1
	S175,176.5,175.6,176.5z M179.2,173c-0.5,0-0.9,0.4-0.9,0.9s0.4,0.9,0.9,0.9s0.9-0.4,0.9-0.9S179.6,173,179.2,173z M178.4,180h1.5
	v-4.9h-1.5V180z M185.9,177.6c0,1.5-1.2,2.6-2.6,2.6c-1.4,0-2.6-1.1-2.6-2.6s1.2-2.6,2.6-2.6C184.7,175,185.9,176.1,185.9,177.6z
	 M184.4,177.6c0-0.7-0.5-1.2-1.1-1.2s-1.1,0.5-1.1,1.2s0.5,1.2,1.1,1.2S184.4,178.3,184.4,177.6z M182.4,174.5h1.4l1.1-1.4h-1.8
	L182.4,174.5z M189.6,175c-0.6,0-1.1,0.2-1.4,0.6v-0.5h-1.5v4.9h1.5v-2.7c0-0.7,0.4-1,0.9-1c0.5,0,0.8,0.3,0.8,0.9v2.8h1.5v-3
	C191.4,175.7,190.6,175,189.6,175z"/>
</svg>
