<?xml version="1.0" encoding="utf-8"?>
<!-- Generator: Adobe Illustrator 21.1.0, SVG Export Plug-In . SVG Version: 6.00 Build 0)  -->
<svg version="1.1" id="Layer_4" xmlns="http://www.w3.org/2000/svg" xmlns:xlink="http://www.w3.org/1999/xlink" x="0px" y="0px"
	 viewBox="0 0 214.3 204.9" style="enable-background:new 0 0 214.3 204.9;" xml:space="preserve">
<style type="text/css">
	.st0{fill:#FFFFFF;}
	.st1{fill:#25258D;}
	.st2{fill:#ABB4BB;}
	.st3{fill:#464F56;}
</style>
<path class="st0" d="M210.5,203.9H13.2c-1.6,0-2.8-1.3-2.8-2.8v-99.5c0-1.6,1.3-2.8,2.8-2.8h197.4c1.6,0,2.8,1.3,2.8,2.8v99.5
	C213.3,202.7,212.1,203.9,210.5,203.9z"/>
<path class="st1" d="M210.5,204.9H13.2c-2.1,0-3.8-1.7-3.8-3.8v-99.5c0-2.1,1.7-3.8,3.8-3.8h197.3c2.1,0,3.8,1.7,3.8,3.8v99.5
	C214.3,203.2,212.6,204.9,210.5,204.9z M13.2,99.8c-1,0-1.8,0.8-1.8,1.8v99.5c0,1,0.8,1.8,1.8,1.8h197.3c1,0,1.8-0.8,1.8-1.8v-99.5
	c0-1-0.8-1.8-1.8-1.8H13.2z"/>
<path class="st0" d="M205.9,199.3H8.6c-1.6,0-2.8-1.3-2.8-2.8V96.9c0-1.6,1.3-2.8,2.8-2.8H206c1.6,0,2.8,1.3,2.8,2.8v99.5
	C208.7,198,207.5,199.3,205.9,199.3z"/>
<path class="st1" d="M205.9,200.3H8.6c-2.1,0-3.8-1.7-3.8-3.8V96.9c0-2.1,1.7-3.8,3.8-3.8h197.3c2.1,0,3.8,1.7,3.8,3.8v99.5
	C209.7,198.6,208,200.3,205.9,200.3z M8.6,95.1c-1,0-1.8,0.8-1.8,1.8v99.5c0,1,0.8,1.8,1.8,1.8h197.3c1,0,1.8-0.8,1.8-1.8V96.9
	c0-1-0.8-1.8-1.8-1.8H8.6z"/>
<path class="st1" d="M201.2,88.4H3.8c-2.1,0-3.8,1.7-3.8,3.8v99.5c0,2.1,1.7,3.8,3.8,3.8h197.3c2.1,0,3.8-1.7,3.8-3.8V92.3
	C205,90.2,203.3,88.4,201.2,88.4z"/>
<path class="st2" d="M58.2,79.5h2.5l-3.5,6l-3.5-6h2.5V61.8c0-0.6,0.4-1,1-1s1,0.4,1,1V79.5z M169.6,79.5V61.8c0-0.6-0.4-1-1-1
	s-1,0.4-1,1v17.8h-2.5l3.5,6l3.5-6L169.6,79.5L169.6,79.5z"/>
<path class="st0" d="M101.2,58.4h-88c-1.6,0-2.8-1.3-2.8-2.8V13.2c0-1.6,1.3-2.8,2.8-2.8h88.1c1.6,0,2.8,1.3,2.8,2.8v42.4
	C104.1,57.2,102.8,58.4,101.2,58.4z"/>
<path class="st3" d="M101.2,59.4h-88c-2.1,0-3.8-1.7-3.8-3.8V13.2c0-2.1,1.7-3.8,3.8-3.8h88.1c2.1,0,3.8,1.7,3.8,3.8v42.4
	C105.1,57.7,103.4,59.4,101.2,59.4z M13.2,11.3c-1,0-1.8,0.8-1.8,1.8v42.4c0,1,0.8,1.8,1.8,1.8h88.1c1,0,1.8-0.8,1.8-1.8V13.2
	c0-1-0.8-1.8-1.8-1.8L13.2,11.3L13.2,11.3z"/>
<path class="st0" d="M96.6,53.8h-88c-1.6,0-2.8-1.3-2.8-2.8V8.5c0-1.6,1.3-2.8,2.8-2.8h88.1c1.6,0,2.8,1.3,2.8,2.8v42.4
	C99.5,52.5,98.2,53.8,96.6,53.8z"/>
<path class="st3" d="M96.7,54.8H8.6c-2.1,0-3.8-1.7-3.8-3.8V8.5c0-2.1,1.7-3.8,3.8-3.8h88.1c2.1,0,3.8,1.7,3.8,3.8v42.4
	C100.5,53,98.8,54.8,96.7,54.8z M8.6,6.7c-1,0-1.8,0.8-1.8,1.8v42.4c0,1,0.8,1.8,1.8,1.8h88.1c1,0,1.8-0.8,1.8-1.8V8.5
	c0-1-0.8-1.8-1.8-1.8H8.6z"/>
<path class="st0" d="M91.9,49.1H3.8c-1.6,0-2.8-1.3-2.8-2.8V3.8C1,2.3,2.3,1,3.8,1h88.1c1.6,0,2.8,1.3,2.8,2.8v42.4
	C94.8,47.8,93.5,49.1,91.9,49.1z"/>
<path class="st3" d="M91.9,50.1H3.8c-2.1,0-3.8-1.7-3.8-3.8V3.8C0,1.7,1.7,0,3.8,0h88.1c2.1,0,3.8,1.7,3.8,3.8v42.4
	C95.8,48.4,94,50.1,91.9,50.1z M3.8,2C2.8,2,2,2.8,2,3.8v42.4c0,1,0.8,1.8,1.8,1.8h88.1c1,0,1.8-0.8,1.8-1.8V3.8
	c0-1-0.8-1.8-1.8-1.8H3.8z"/>
<path class="st0" d="M210.5,58.4h-83.9c-1.6,0-2.8-1.3-2.8-2.8V13.2c0-1.6,1.3-2.8,2.8-2.8h83.9c1.6,0,2.8,1.3,2.8,2.8v42.4
	C213.3,57.2,212.1,58.4,210.5,58.4z"/>
<path class="st3" d="M210.5,59.4h-83.9c-2.1,0-3.8-1.7-3.8-3.8V13.2c0-2.1,1.7-3.8,3.8-3.8h83.9c2.1,0,3.8,1.7,3.8,3.8v42.4
	C214.3,57.7,212.6,59.4,210.5,59.4z M126.6,11.3c-1,0-1.8,0.8-1.8,1.8v42.4c0,1,0.8,1.8,1.8,1.8h83.9c1,0,1.8-0.8,1.8-1.8V13.2
	c0-1-0.8-1.8-1.8-1.8L126.6,11.3L126.6,11.3z"/>
<path class="st0" d="M206.2,53.8h-83.9c-1.6,0-2.8-1.3-2.8-2.8V8.5c0-1.6,1.3-2.8,2.8-2.8h83.9c1.6,0,2.8,1.3,2.8,2.8v42.4
	C209,52.5,207.7,53.8,206.2,53.8z"/>
<path class="st3" d="M206.2,54.8h-83.9c-2.1,0-3.8-1.7-3.8-3.8V8.5c0-2.1,1.7-3.8,3.8-3.8h83.9c2.1,0,3.8,1.7,3.8,3.8v42.4
	C210,53,208.3,54.8,206.2,54.8z M122.3,6.7c-1,0-1.8,0.8-1.8,1.8v42.4c0,1,0.8,1.8,1.8,1.8h83.9c1,0,1.8-0.8,1.8-1.8V8.5
	c0-1-0.8-1.8-1.8-1.8H122.3z"/>
<path class="st0" d="M201.7,49.1h-83.9c-1.6,0-2.8-1.3-2.8-2.8V3.8c0-1.6,1.3-2.8,2.8-2.8h83.9c1.6,0,2.8,1.3,2.8,2.8v42.4
	C204.5,47.8,203.2,49.1,201.7,49.1z"/>
<path class="st3" d="M201.7,50.1h-83.9c-2.1,0-3.8-1.7-3.8-3.8V3.8c0-2.1,1.7-3.8,3.8-3.8h83.9c2.1,0,3.8,1.7,3.8,3.8v42.4
	C205.5,48.4,203.8,50.1,201.7,50.1z M117.8,2c-1,0-1.8,0.8-1.8,1.8v42.4c0,1,0.8,1.8,1.8,1.8h83.9c1,0,1.8-0.8,1.8-1.8V3.8
	c0-1-0.8-1.8-1.8-1.8H117.8z"/>
<path class="st3" d="M135.2,21.4v6.3h-1.4v-6.3H135.2z"/>
<path class="st3" d="M140.6,24.9v2.8h-1.4v-2.6c0-0.6-0.4-0.8-0.8-0.8c-0.5,0-0.8,0.3-0.8,0.9v2.5h-1.4v-4.5h1.4v0.4
	c0.2-0.3,0.7-0.5,1.3-0.5C139.8,23,140.6,23.7,140.6,24.9z"/>
<path class="st3" d="M145.8,23.2l-1.7,4.5h-1.5l-1.7-4.5h1.5l0.9,2.9l0.9-2.9H145.8z"/>
<path class="st3" d="M148.4,26.6c0.4,0,0.7-0.1,0.9-0.3l1.1,0.6c-0.4,0.6-1.1,0.9-2,0.9c-1.5,0-2.5-1-2.5-2.4c0-1.3,1-2.4,2.4-2.4
	c1.3,0,2.3,1,2.3,2.4c0,0.2,0,0.4-0.1,0.5h-3.2C147.4,26.4,147.9,26.6,148.4,26.6z M149.2,24.9c-0.1-0.5-0.5-0.7-1-0.7
	c-0.5,0-0.9,0.3-1,0.7H149.2z"/>
<path class="st3" d="M154.6,26.3c0,1-0.9,1.5-1.9,1.5c-0.9,0-1.6-0.3-1.9-1.1L152,26c0.1,0.3,0.4,0.5,0.8,0.5c0.3,0,0.5-0.1,0.5-0.3
	c0-0.5-2.2-0.2-2.2-1.8c0-1,0.8-1.5,1.8-1.5c0.7,0,1.4,0.3,1.8,1l-1.2,0.6c-0.1-0.2-0.3-0.4-0.6-0.4c-0.2,0-0.4,0.1-0.4,0.3
	C152.4,25,154.6,24.6,154.6,26.3z"/>
<path class="st3" d="M156.9,24.5V26c0,0.4,0.3,0.4,0.9,0.4v1.2c-1.8,0.2-2.3-0.4-2.3-1.6v-1.6h-0.7v-1.3h0.7v-0.9l1.4-0.4v1.3h0.9
	v1.3H156.9z"/>
<path class="st3" d="M158.4,22c0-0.4,0.4-0.8,0.8-0.8c0.4,0,0.8,0.4,0.8,0.8c0,0.4-0.4,0.8-0.8,0.8C158.8,22.8,158.4,22.4,158.4,22z
	 M158.5,23.2h1.3v4.5h-1.3V23.2z"/>
<path class="st3" d="M164.3,26.3c0,1-0.9,1.5-1.9,1.5c-0.9,0-1.6-0.3-1.9-1.1l1.2-0.7c0.1,0.3,0.4,0.5,0.8,0.5
	c0.3,0,0.5-0.1,0.5-0.3c0-0.5-2.2-0.2-2.2-1.8c0-1,0.8-1.5,1.8-1.5c0.7,0,1.4,0.3,1.8,1l-1.2,0.6c-0.1-0.2-0.3-0.4-0.6-0.4
	c-0.2,0-0.4,0.1-0.4,0.3C162.1,25,164.3,24.6,164.3,26.3z"/>
<path class="st3" d="M168.3,26.3c0,1-0.9,1.5-1.9,1.5c-0.9,0-1.6-0.3-1.9-1.1l1.2-0.7c0.1,0.3,0.4,0.5,0.8,0.5
	c0.3,0,0.5-0.1,0.5-0.3c0-0.5-2.2-0.2-2.2-1.8c0-1,0.8-1.5,1.8-1.5c0.7,0,1.4,0.3,1.8,1l-1.2,0.6c-0.1-0.2-0.3-0.4-0.6-0.4
	c-0.2,0-0.4,0.1-0.4,0.3C166.1,25,168.3,24.6,168.3,26.3z"/>
<path class="st3" d="M171.2,26.6c0.4,0,0.7-0.1,0.9-0.3l1.1,0.6c-0.4,0.6-1.1,0.9-2,0.9c-1.5,0-2.5-1-2.5-2.4c0-1.3,1-2.4,2.4-2.4
	c1.3,0,2.3,1,2.3,2.4c0,0.2,0,0.4-0.1,0.5h-3.2C170.3,26.4,170.7,26.6,171.2,26.6z M172,24.9c-0.1-0.5-0.5-0.7-1-0.7
	c-0.5,0-0.9,0.3-1,0.7H172z"/>
<path class="st3" d="M178.4,23.2v4.5H177v-0.4c-0.2,0.3-0.7,0.5-1.3,0.5c-0.9,0-1.7-0.6-1.7-1.9v-2.8h1.3v2.6c0,0.6,0.4,0.8,0.8,0.8
	c0.5,0,0.8-0.3,0.8-0.9v-2.5H178.4z"/>
<path class="st3" d="M182.1,23.1v1.5c-0.6-0.1-1.3,0.1-1.3,1v2h-1.4v-4.5h1.4V24C180.9,23.4,181.5,23.1,182.1,23.1z"/>
<path class="st3" d="M186.1,26.3c0,1-0.9,1.5-1.9,1.5c-0.9,0-1.6-0.3-1.9-1.1l1.2-0.7c0.1,0.3,0.4,0.5,0.8,0.5
	c0.3,0,0.5-0.1,0.5-0.3c0-0.5-2.2-0.2-2.2-1.8c0-1,0.8-1.5,1.8-1.5c0.7,0,1.4,0.3,1.8,1l-1.2,0.6c-0.1-0.2-0.3-0.4-0.6-0.4
	c-0.2,0-0.4,0.1-0.4,0.3C183.8,25,186.1,24.6,186.1,26.3z"/>
<path class="st3" d="M26.4,17.1v1.2h2.3v1.4h-2.3V22h-1.4v-6.3h3.8v1.4H26.4z"/>
<path class="st3" d="M29.3,19.7c0-1.3,1.1-2.4,2.4-2.4s2.4,1,2.4,2.4c0,1.3-1.1,2.4-2.4,2.4S29.3,21.1,29.3,19.7z M32.7,19.7
	c0-0.6-0.4-1.1-1-1.1c-0.6,0-1,0.4-1,1.1c0,0.6,0.5,1.1,1,1.1C32.3,20.8,32.7,20.4,32.7,19.7z"/>
<path class="st3" d="M39.2,19.2V22h-1.4v-2.6c0-0.6-0.4-0.8-0.8-0.8c-0.5,0-0.8,0.3-0.8,0.9V22h-1.4v-4.5h1.4v0.4
	c0.2-0.3,0.7-0.5,1.3-0.5C38.4,17.3,39.2,18,39.2,19.2z"/>
<path class="st3" d="M44.7,15.7V22h-1.4v-0.4c-0.3,0.3-0.7,0.5-1.3,0.5c-1.2,0-2.2-1-2.2-2.4c0-1.3,1-2.4,2.2-2.4
	c0.6,0,1,0.2,1.3,0.5v-2.2H44.7z M43.4,19.7c0-0.7-0.5-1.1-1.1-1.1s-1.1,0.4-1.1,1.1c0,0.7,0.5,1.1,1.1,1.1S43.4,20.4,43.4,19.7z"/>
<path class="st3" d="M50.3,17.5V22H49v-0.4c-0.3,0.3-0.7,0.5-1.3,0.5c-1.2,0-2.2-1-2.2-2.4c0-1.3,1-2.4,2.2-2.4c0.6,0,1,0.2,1.3,0.5
	v-0.4H50.3z M49,19.7c0-0.7-0.5-1.1-1.1-1.1s-1.1,0.4-1.1,1.1c0,0.7,0.5,1.1,1.1,1.1S49,20.4,49,19.7z"/>
<path class="st3" d="M53,18.8v1.6c0,0.4,0.3,0.4,0.9,0.4V22c-1.8,0.2-2.3-0.4-2.3-1.6v-1.6H51v-1.3h0.7v-0.9l1.4-0.4v1.3H54v1.3H53z
	"/>
<path class="st3" d="M54.6,16.3c0-0.4,0.4-0.8,0.8-0.8c0.4,0,0.8,0.4,0.8,0.8c0,0.4-0.4,0.8-0.8,0.8C55,17.1,54.6,16.7,54.6,16.3z
	 M54.7,17.5h1.4V22h-1.4V17.5z"/>
<path class="st3" d="M56.8,19.7c0-1.3,1.1-2.4,2.4-2.4s2.4,1,2.4,2.4c0,1.3-1.1,2.4-2.4,2.4S56.8,21.1,56.8,19.7z M60.3,19.7
	c0-0.6-0.4-1.1-1-1.1c-0.6,0-1,0.4-1,1.1c0,0.6,0.5,1.1,1,1.1C59.8,20.8,60.3,20.4,60.3,19.7z"/>
<path class="st3" d="M66.7,19.2V22h-1.4v-2.6c0-0.6-0.4-0.8-0.8-0.8c-0.5,0-0.8,0.3-0.8,0.9V22h-1.4v-4.5h1.4v0.4
	c0.2-0.3,0.7-0.5,1.3-0.5C65.9,17.3,66.7,18,66.7,19.2z"/>
<path class="st3" d="M71.1,20.6c0,1-0.9,1.5-1.9,1.5c-0.9,0-1.6-0.3-1.9-1.1l1.2-0.7c0.1,0.3,0.4,0.5,0.8,0.5c0.3,0,0.5-0.1,0.5-0.3
	c0-0.5-2.2-0.2-2.2-1.8c0-1,0.8-1.5,1.8-1.5c0.7,0,1.4,0.3,1.8,1l-1.2,0.6c-0.1-0.2-0.3-0.4-0.6-0.4c-0.2,0-0.4,0.1-0.4,0.3
	C68.9,19.3,71.1,19,71.1,20.6z"/>
<path class="st3" d="M17.2,31.7c0.4,0,0.7-0.1,0.9-0.3l1.1,0.6c-0.4,0.6-1.1,0.9-2,0.9c-1.5,0-2.5-1-2.5-2.4c0-1.3,1-2.4,2.4-2.4
	c1.3,0,2.3,1,2.3,2.4c0,0.2,0,0.4-0.1,0.5h-3.2C16.3,31.5,16.7,31.7,17.2,31.7z M18.1,30.1c-0.1-0.5-0.5-0.7-1-0.7
	c-0.5,0-0.9,0.3-1,0.7H18.1z"/>
<path class="st3" d="M21.7,29.6v1.6c0,0.4,0.3,0.4,0.9,0.4v1.2c-1.8,0.2-2.3-0.4-2.3-1.6v-1.6h-0.7v-1.3h0.7v-0.9l1.4-0.4v1.3h0.9
	v1.3H21.7z"/>
<path class="st3" d="M30.8,26.5v6.3h-1.1l-2.4-3.4v3.4h-1.4v-6.3h1.1l2.4,3.4v-3.4H30.8z"/>
<path class="st3" d="M34.1,31.7c0.4,0,0.7-0.1,0.9-0.3L36,32c-0.4,0.6-1.1,0.9-2,0.9c-1.5,0-2.5-1-2.5-2.4c0-1.3,1-2.4,2.4-2.4
	c1.3,0,2.3,1,2.3,2.4c0,0.2,0,0.4-0.1,0.5H33C33.2,31.5,33.6,31.7,34.1,31.7z M34.9,30.1c-0.1-0.5-0.5-0.7-1-0.7
	c-0.5,0-0.9,0.3-1,0.7H34.9z M34.4,27.7h-1.3l0.7-1.3h1.6L34.4,27.7z"/>
<path class="st3" d="M41.6,28.3v4.3c0,1.5-1.2,2.2-2.4,2.2c-0.9,0-1.7-0.4-2.1-1.1l1.2-0.7c0.2,0.3,0.4,0.6,1,0.6c0.6,0,1-0.3,1-1
	v-0.4c-0.3,0.4-0.7,0.6-1.3,0.6c-1.3,0-2.2-1-2.2-2.3s0.9-2.3,2.2-2.3c0.6,0,1,0.2,1.3,0.6v-0.5H41.6z M40.3,30.4c0-0.6-0.5-1-1.1-1
	s-1.1,0.4-1.1,1s0.5,1,1.1,1S40.3,31.1,40.3,30.4z"/>
<path class="st3" d="M42.4,30.5c0-1.3,1.1-2.4,2.4-2.4s2.4,1,2.4,2.4c0,1.3-1.1,2.4-2.4,2.4S42.4,31.9,42.4,30.5z M45.8,30.5
	c0-0.6-0.5-1.1-1-1.1s-1,0.4-1,1.1c0,0.6,0.5,1.1,1,1.1S45.8,31.2,45.8,30.5z"/>
<path class="st3" d="M47.7,30.5c0-1.3,1-2.4,2.4-2.4c0.9,0,1.6,0.5,2,1.2L50.9,30c-0.2-0.3-0.5-0.5-0.9-0.5c-0.6,0-1,0.4-1,1
	s0.4,1,1,1c0.4,0,0.7-0.2,0.9-0.5l1.2,0.7c-0.4,0.7-1.2,1.2-2,1.2C48.7,32.9,47.7,31.9,47.7,30.5z"/>
<path class="st3" d="M52.5,27.1c0-0.4,0.4-0.8,0.8-0.8c0.4,0,0.8,0.4,0.8,0.8c0,0.4-0.4,0.8-0.8,0.8C52.9,27.9,52.5,27.5,52.5,27.1z
	 M52.6,28.3H54v4.5h-1.4V28.3z"/>
<path class="st3" d="M59.6,28.3v4.5h-1.4v-0.4c-0.3,0.3-0.7,0.5-1.3,0.5c-1.2,0-2.2-1-2.2-2.4c0-1.3,1-2.4,2.2-2.4
	c0.6,0,1,0.2,1.3,0.5v-0.4H59.6z M58.2,30.5c0-0.7-0.5-1.1-1.1-1.1s-1.1,0.4-1.1,1.1c0,0.7,0.5,1.1,1.1,1.1S58.2,31.2,58.2,30.5z"/>
<path class="st3" d="M62.3,29.6v1.6c0,0.4,0.3,0.4,0.9,0.4v1.2c-1.8,0.2-2.3-0.4-2.3-1.6v-1.6h-0.7v-1.3h0.7v-0.9l1.4-0.4v1.3h0.9
	v1.3H62.3z"/>
<path class="st3" d="M66.2,31.7c0.4,0,0.7-0.1,0.9-0.3l1.1,0.6c-0.4,0.6-1.1,0.9-2,0.9c-1.5,0-2.5-1-2.5-2.4c0-1.3,1-2.4,2.4-2.4
	c1.3,0,2.3,1,2.3,2.4c0,0.2,0,0.4-0.1,0.5h-3.2C65.3,31.5,65.7,31.7,66.2,31.7z M67,30.1c-0.1-0.5-0.5-0.7-1-0.7
	c-0.5,0-0.9,0.3-1,0.7H67z"/>
<path class="st3" d="M73.4,28.3v4.5H72v-0.4c-0.2,0.3-0.7,0.5-1.3,0.5c-0.9,0-1.7-0.6-1.7-1.9v-2.8h1.4v2.6c0,0.6,0.4,0.8,0.8,0.8
	c0.5,0,0.8-0.3,0.8-0.9v-2.5H73.4z"/>
<path class="st3" d="M77,28.2v1.5c-0.6-0.1-1.4,0.1-1.4,1v2h-1.4v-4.5h1.4v0.8C75.9,28.5,76.5,28.2,77,28.2z"/>
<path class="st3" d="M81,31.4c0,1-0.9,1.5-1.9,1.5c-0.9,0-1.6-0.3-1.9-1.1l1.2-0.7c0.1,0.3,0.4,0.5,0.8,0.5c0.3,0,0.5-0.1,0.5-0.3
	c0-0.5-2.2-0.2-2.2-1.8c0-1,0.8-1.5,1.8-1.5c0.7,0,1.4,0.3,1.8,1l-1.2,0.6c-0.1-0.2-0.3-0.4-0.6-0.4c-0.2,0-0.4,0.1-0.4,0.3
	C78.8,30.1,81,29.8,81,31.4z"/>
<path class="st0" d="M14.2,112.4l-2-2.9v2.9h-1.4v-6.3h1.4v2.7l1.9-2.7h1.6l-2.1,3.1l2.2,3.2H14.2z"/>
<path class="st0" d="M19.3,109.9v2.4h-1.4v-2.4l-2.1-3.9h1.6l1.2,2.4l1.2-2.4h1.6L19.3,109.9z"/>
<path class="st0" d="M21.3,109.2c0-1.8,1.4-3.3,3.3-3.3c1.1,0,2.1,0.6,2.7,1.5l-1.2,0.7c-0.3-0.5-0.8-0.8-1.5-0.8
	c-1.1,0-1.8,0.7-1.8,1.9c0,1.1,0.7,1.9,1.8,1.9c0.6,0,1.2-0.3,1.5-0.8l1.2,0.7c-0.5,0.9-1.5,1.5-2.7,1.5
	C22.7,112.5,21.3,111.1,21.3,109.2z"/>
<path class="st0" d="M14.4,123.9v1.4h-3.7V119h1.4v4.9H14.4z"/>
<path class="st0" d="M17.2,124.2c0.4,0,0.7-0.1,0.9-0.3l1.1,0.6c-0.4,0.6-1.1,0.9-2,0.9c-1.5,0-2.5-1-2.5-2.4s1-2.4,2.4-2.4
	c1.3,0,2.3,1,2.3,2.4c0,0.2,0,0.4-0.1,0.5h-3.2C16.3,124,16.7,124.2,17.2,124.2z M18,122.5c-0.1-0.5-0.5-0.7-1-0.7
	c-0.5,0-0.9,0.3-1,0.7H18z"/>
<path class="st0" d="M23.4,123.9c0,1-0.9,1.5-1.9,1.5c-0.9,0-1.6-0.3-1.9-1.1l1.2-0.7c0.1,0.3,0.4,0.5,0.8,0.5
	c0.3,0,0.5-0.1,0.5-0.3c0-0.5-2.2-0.2-2.2-1.8c0-1,0.8-1.5,1.8-1.5c0.7,0,1.4,0.3,1.7,1l-1.1,0.6c-0.1-0.2-0.3-0.4-0.6-0.4
	c-0.2,0-0.4,0.1-0.4,0.3C21.2,122.6,23.4,122.2,23.4,123.9z"/>
<path class="st0" d="M26.4,118.7h1.3v6.5h-1.3V118.7z"/>
<path class="st0" d="M31,124.2c0.4,0,0.7-0.1,0.9-0.3l1.1,0.6c-0.4,0.6-1.1,0.9-2,0.9c-1.5,0-2.5-1-2.5-2.4s1-2.4,2.4-2.4
	c1.3,0,2.3,1,2.3,2.4c0,0.2,0,0.4-0.1,0.5h-3.2C30.1,124,30.5,124.2,31,124.2z M31.9,122.5c-0.1-0.5-0.5-0.7-1-0.7
	c-0.5,0-0.9,0.3-1,0.7H31.9z M31.3,120.2H30l0.7-1.3h1.6L31.3,120.2z"/>
<path class="st0" d="M38.5,120.7v4.3c0,1.5-1.2,2.1-2.4,2.1c-0.9,0-1.7-0.3-2.1-1.1l1.1-0.7c0.2,0.3,0.4,0.6,1,0.6c0.6,0,1-0.3,1-1
	v-0.4c-0.3,0.4-0.7,0.6-1.3,0.6c-1.3,0-2.2-1-2.2-2.3s0.9-2.3,2.2-2.3c0.6,0,1,0.2,1.3,0.6v-0.5H38.5z M37.2,122.9
	c0-0.6-0.4-1-1.1-1s-1.1,0.4-1.1,1s0.4,1,1.1,1S37.2,123.5,37.2,122.9z"/>
<path class="st0" d="M44.1,120.7v4.5h-1.3v-0.4c-0.3,0.3-0.7,0.5-1.3,0.5c-1.2,0-2.1-1-2.1-2.4s1-2.4,2.1-2.4c0.6,0,1,0.2,1.3,0.5
	v-0.4H44.1z M42.8,123c0-0.7-0.4-1.1-1.1-1.1s-1.1,0.4-1.1,1.1s0.4,1.1,1.1,1.1S42.8,123.7,42.8,123z"/>
<path class="st0" d="M45.1,118.7h1.3v6.5h-1.3V118.7z"/>
<path class="st0" d="M49.7,124.2c0.4,0,0.7-0.1,0.9-0.3l1.1,0.6c-0.4,0.6-1.1,0.9-2,0.9c-1.5,0-2.5-1-2.5-2.4s1-2.4,2.4-2.4
	c1.3,0,2.3,1,2.3,2.4c0,0.2,0,0.4-0.1,0.5h-3.2C48.8,124,49.2,124.2,49.7,124.2z M50.5,122.5c-0.1-0.5-0.5-0.7-1-0.7
	c-0.5,0-0.9,0.3-1,0.7H50.5z"/>
<path class="st0" d="M55.9,123.9c0,1-0.9,1.5-1.9,1.5c-0.9,0-1.6-0.3-1.9-1.1l1.2-0.7c0.1,0.3,0.4,0.5,0.8,0.5
	c0.3,0,0.5-0.1,0.5-0.3c0-0.5-2.2-0.2-2.2-1.8c0-1,0.8-1.5,1.8-1.5c0.7,0,1.4,0.3,1.7,1l-1.1,0.6c-0.1-0.2-0.3-0.4-0.6-0.4
	c-0.2,0-0.4,0.1-0.4,0.3C53.7,122.6,55.9,122.2,55.9,123.9z"/>
<path class="st0" d="M14.4,136.7v1.4h-3.7v-6.3h1.4v4.9H14.4z"/>
<path class="st0" d="M17.2,137c0.4,0,0.7-0.1,0.9-0.3l1.1,0.6c-0.4,0.6-1.1,0.9-2,0.9c-1.5,0-2.5-1-2.5-2.4s1-2.4,2.4-2.4
	c1.3,0,2.3,1,2.3,2.4c0,0.2,0,0.4-0.1,0.5h-3.2C16.3,136.9,16.7,137,17.2,137z M18,135.4c-0.1-0.5-0.5-0.7-1-0.7
	c-0.5,0-0.9,0.3-1,0.7H18z"/>
<path class="st0" d="M22.4,131.6h1.3v6.5h-1.3V131.6z"/>
<path class="st0" d="M24.5,135.9c0-1.3,1.1-2.4,2.4-2.4c1.3,0,2.4,1,2.4,2.4s-1.1,2.4-2.4,2.4C25.6,138.2,24.5,137.2,24.5,135.9z
	 M27.9,135.9c0-0.6-0.4-1.1-1-1.1c-0.6,0-1,0.4-1,1.1s0.4,1.1,1,1.1C27.5,136.9,27.9,136.5,27.9,135.9z"/>
<path class="st0" d="M34.6,133.6v4.3c0,1.5-1.2,2.1-2.4,2.1c-0.9,0-1.7-0.3-2.1-1.1l1.1-0.7c0.2,0.3,0.4,0.6,1,0.6c0.6,0,1-0.3,1-1
	v-0.4c-0.3,0.4-0.7,0.6-1.3,0.6c-1.3,0-2.2-1-2.2-2.3s0.9-2.3,2.2-2.3c0.6,0,1,0.2,1.3,0.6v-0.5H34.6z M33.3,135.8
	c0-0.6-0.4-1-1.1-1s-1.1,0.4-1.1,1s0.4,1,1.1,1S33.3,136.4,33.3,135.8z"/>
<path class="st0" d="M35.5,132.4c0-0.4,0.4-0.8,0.8-0.8c0.4,0,0.8,0.4,0.8,0.8s-0.4,0.8-0.8,0.8C35.8,133.2,35.5,132.9,35.5,132.4z
	 M35.6,133.6H37v4.5h-1.3V133.6z"/>
<path class="st0" d="M37.7,135.9c0-1.3,1-2.4,2.4-2.4c0.9,0,1.6,0.5,2,1.1l-1.2,0.7c-0.2-0.3-0.5-0.5-0.9-0.5c-0.6,0-1,0.4-1,1
	s0.4,1,1,1c0.4,0,0.7-0.2,0.9-0.5l1.2,0.7c-0.4,0.7-1.1,1.2-2,1.2C38.7,138.2,37.7,137.2,37.7,135.9z"/>
<path class="st0" d="M42.5,132.4c0-0.4,0.4-0.8,0.8-0.8c0.4,0,0.8,0.4,0.8,0.8s-0.4,0.8-0.8,0.8C42.9,133.2,42.5,132.9,42.5,132.4z
	 M42.7,133.6H44v4.5h-1.3V133.6z"/>
<path class="st0" d="M47.3,137c0.4,0,0.7-0.1,0.9-0.3l1.1,0.6c-0.4,0.6-1.1,0.9-2,0.9c-1.5,0-2.5-1-2.5-2.4s1-2.4,2.4-2.4
	c1.3,0,2.3,1,2.3,2.4c0,0.2,0,0.4-0.1,0.5h-3.2C46.4,136.9,46.8,137,47.3,137z M48.1,135.4c-0.1-0.5-0.5-0.7-1-0.7
	c-0.5,0-0.9,0.3-1,0.7H48.1z"/>
<path class="st0" d="M50.2,131.6h1.3v6.5h-1.3V131.6z"/>
<path class="st0" d="M14.4,149.6v1.4h-3.7v-6.3h1.4v4.9H14.4z"/>
<path class="st0" d="M19.5,146.5v4.5h-1.3v-0.4c-0.3,0.3-0.7,0.5-1.3,0.5c-1.2,0-2.1-1-2.1-2.4s1-2.4,2.1-2.4c0.6,0,1,0.2,1.3,0.5
	v-0.4H19.5z M18.2,148.8c0-0.7-0.4-1.1-1.1-1.1s-1.1,0.4-1.1,1.1s0.4,1.1,1.1,1.1S18.2,149.4,18.2,148.8z"/>
<path class="st0" d="M24.5,147.8v1.6c0,0.4,0.3,0.4,0.9,0.4v1.2c-1.8,0.2-2.3-0.3-2.3-1.6v-1.6h-0.7v-1.3h0.7v-0.9l1.3-0.4v1.3h0.9
	v1.3H24.5z"/>
<path class="st0" d="M25.9,148.8c0-1.3,1.1-2.4,2.4-2.4c1.3,0,2.4,1,2.4,2.4s-1.1,2.4-2.4,2.4C26.9,151.1,25.9,150.1,25.9,148.8z
	 M29.3,148.8c0-0.6-0.4-1.1-1-1.1c-0.6,0-1,0.4-1,1.1s0.4,1.1,1,1.1C28.8,149.8,29.3,149.4,29.3,148.8z"/>
<path class="st0" d="M34.2,151l-1.4-2v2h-1.3v-6.3h1.3v3.8l1.3-2h1.6l-1.6,2.2l1.7,2.2H34.2z"/>
<path class="st0" d="M38.2,149.9c0.4,0,0.7-0.1,0.9-0.3l1.1,0.6c-0.4,0.6-1.1,0.9-2,0.9c-1.5,0-2.5-1-2.5-2.4s1-2.4,2.4-2.4
	c1.3,0,2.3,1,2.3,2.4c0,0.2,0,0.4-0.1,0.5h-3.2C37.3,149.8,37.7,149.9,38.2,149.9z M39,148.3c-0.1-0.5-0.5-0.7-1-0.7
	c-0.5,0-0.9,0.3-1,0.7H39z"/>
<path class="st0" d="M45.4,148.2v2.8h-1.3v-2.6c0-0.6-0.3-0.8-0.8-0.8c-0.5,0-0.8,0.3-0.8,0.9v2.4h-1.3v-4.5h1.3v0.4
	c0.2-0.3,0.7-0.5,1.3-0.5C44.6,146.4,45.4,147,45.4,148.2z"/>
<path class="st0" d="M46.2,145.3c0-0.4,0.4-0.8,0.8-0.8c0.4,0,0.8,0.4,0.8,0.8s-0.4,0.8-0.8,0.8C46.6,146.1,46.2,145.7,46.2,145.3z
	 M46.3,146.5h1.3v4.5h-1.3V146.5z"/>
<path class="st0" d="M52.1,149.6c0,1-0.9,1.5-1.9,1.5c-0.9,0-1.6-0.3-1.9-1.1l1.2-0.7c0.1,0.3,0.4,0.5,0.8,0.5
	c0.3,0,0.5-0.1,0.5-0.3c0-0.5-2.2-0.2-2.2-1.8c0-1,0.8-1.5,1.8-1.5c0.7,0,1.4,0.3,1.7,1l-1.1,0.6c-0.1-0.2-0.3-0.4-0.6-0.4
	c-0.2,0-0.4,0.1-0.4,0.3C49.9,148.3,52.1,148,52.1,149.6z"/>
<path class="st0" d="M57.3,146.5v4.5H56v-0.4c-0.3,0.3-0.7,0.5-1.3,0.5c-1.2,0-2.1-1-2.1-2.4s1-2.4,2.1-2.4c0.6,0,1,0.2,1.3,0.5
	v-0.4H57.3z M56,148.8c0-0.7-0.4-1.1-1.1-1.1s-1.1,0.4-1.1,1.1s0.4,1.1,1.1,1.1S56,149.4,56,148.8z"/>
<path class="st0" d="M60,147.8v1.6c0,0.4,0.3,0.4,0.9,0.4v1.2c-1.8,0.2-2.3-0.3-2.3-1.6v-1.6H58v-1.3h0.7v-0.9l1.3-0.4v1.3H61v1.3
	H60z"/>
<path class="st0" d="M61.6,145.3c0-0.4,0.4-0.8,0.8-0.8c0.4,0,0.8,0.4,0.8,0.8s-0.4,0.8-0.8,0.8C62,146.1,61.6,145.7,61.6,145.3z
	 M61.7,146.5h1.3v4.5h-1.3V146.5z"/>
<path class="st0" d="M63.8,148.8c0-1.3,1.1-2.4,2.4-2.4c1.3,0,2.4,1,2.4,2.4s-1.1,2.4-2.4,2.4C64.9,151.1,63.8,150.1,63.8,148.8z
	 M67.2,148.8c0-0.6-0.4-1.1-1-1.1c-0.6,0-1,0.4-1,1.1s0.4,1.1,1,1.1C66.8,149.8,67.2,149.4,67.2,148.8z"/>
<path class="st0" d="M73.7,148.2v2.8h-1.3v-2.6c0-0.6-0.3-0.8-0.8-0.8c-0.5,0-0.8,0.3-0.8,0.9v2.4h-1.3v-4.5h1.3v0.4
	c0.2-0.3,0.7-0.5,1.3-0.5C72.9,146.4,73.7,147,73.7,148.2z"/>
<path class="st0" d="M14.4,162.5v1.4h-3.7v-6.3h1.4v4.9H14.4z"/>
<path class="st0" d="M17.2,162.8c0.4,0,0.7-0.1,0.9-0.3l1.1,0.6c-0.4,0.6-1.1,0.9-2,0.9c-1.5,0-2.5-1-2.5-2.4s1-2.4,2.4-2.4
	c1.3,0,2.3,1,2.3,2.4c0,0.2,0,0.4-0.1,0.5h-3.2C16.3,162.6,16.7,162.8,17.2,162.8z M18,161.2c-0.1-0.5-0.5-0.7-1-0.7
	c-0.5,0-0.9,0.3-1,0.7H18z"/>
<path class="st0" d="M23.4,162.5c0,1-0.9,1.5-1.9,1.5c-0.9,0-1.6-0.3-1.9-1.1l1.2-0.7c0.1,0.3,0.4,0.5,0.8,0.5
	c0.3,0,0.5-0.1,0.5-0.3c0-0.5-2.2-0.2-2.2-1.8c0-1,0.8-1.5,1.8-1.5c0.7,0,1.4,0.3,1.7,1l-1.1,0.6c-0.1-0.2-0.3-0.4-0.6-0.4
	c-0.2,0-0.4,0.1-0.4,0.3C21.2,161.2,23.4,160.9,23.4,162.5z"/>
<path class="st0" d="M28.7,162.8c0.4,0,0.7-0.1,0.9-0.3l1.1,0.6c-0.4,0.6-1.1,0.9-2,0.9c-1.5,0-2.5-1-2.5-2.4s1-2.4,2.4-2.4
	c1.3,0,2.3,1,2.3,2.4c0,0.2,0,0.4-0.1,0.5h-3.2C27.8,162.6,28.2,162.8,28.7,162.8z M29.5,161.2c-0.1-0.5-0.5-0.7-1-0.7
	c-0.5,0-0.9,0.3-1,0.7H29.5z M29,158.8h-1.3l0.7-1.3H30L29,158.8z"/>
<path class="st0" d="M35.8,159.4l-1.7,4.5h-1.5l-1.7-4.5h1.5l0.9,2.8l0.9-2.8H35.8z"/>
<path class="st0" d="M40.7,159.4v4.5h-1.3v-0.4c-0.3,0.3-0.7,0.5-1.3,0.5c-1.2,0-2.1-1-2.1-2.4s1-2.4,2.1-2.4c0.6,0,1,0.2,1.3,0.5
	v-0.4H40.7z M39.4,161.6c0-0.7-0.4-1.1-1.1-1.1s-1.1,0.4-1.1,1.1s0.4,1.1,1.1,1.1S39.4,162.3,39.4,161.6z"/>
<path class="st0" d="M41.7,157.3H43v6.5h-1.3V157.3z"/>
<path class="st0" d="M48.3,159.4v4.5h-1.3v-0.4c-0.2,0.3-0.7,0.5-1.3,0.5c-0.9,0-1.7-0.6-1.7-1.9v-2.8h1.3v2.6
	c0,0.6,0.4,0.8,0.8,0.8c0.5,0,0.8-0.3,0.8-0.9v-2.4H48.3z"/>
<path class="st0" d="M53.9,159.4v4.5h-1.3v-0.4c-0.3,0.3-0.7,0.5-1.3,0.5c-1.2,0-2.1-1-2.1-2.4s1-2.4,2.1-2.4c0.6,0,1,0.2,1.3,0.5
	v-0.4H53.9z M52.5,161.6c0-0.7-0.4-1.1-1.1-1.1s-1.1,0.4-1.1,1.1s0.4,1.1,1.1,1.1S52.5,162.3,52.5,161.6z"/>
<path class="st0" d="M56.6,160.7v1.6c0,0.4,0.3,0.4,0.9,0.4v1.2c-1.8,0.2-2.3-0.3-2.3-1.6v-1.6h-0.7v-1.3h0.7v-0.9l1.3-0.4v1.3h0.9
	v1.3H56.6z"/>
<path class="st0" d="M58.1,158.2c0-0.4,0.4-0.8,0.8-0.8c0.4,0,0.8,0.4,0.8,0.8s-0.4,0.8-0.8,0.8C58.5,159,58.1,158.6,58.1,158.2z
	 M58.2,159.4h1.3v4.5h-1.3V159.4z"/>
<path class="st0" d="M60.4,161.6c0-1.3,1.1-2.4,2.4-2.4c1.3,0,2.4,1,2.4,2.4s-1.1,2.4-2.4,2.4C61.4,164,60.4,163,60.4,161.6z
	 M63.8,161.6c0-0.6-0.4-1.1-1-1.1c-0.6,0-1,0.4-1,1.1s0.4,1.1,1,1.1C63.3,162.7,63.8,162.3,63.8,161.6z"/>
<path class="st0" d="M70.2,161.1v2.8h-1.3v-2.6c0-0.6-0.3-0.8-0.8-0.8c-0.5,0-0.8,0.3-0.8,0.9v2.4h-1.3v-4.5h1.3v0.4
	c0.2-0.3,0.7-0.5,1.3-0.5C69.4,159.3,70.2,159.9,70.2,161.1z"/>
<path class="st0" d="M74.6,162.5c0,1-0.9,1.5-1.9,1.5c-0.9,0-1.6-0.3-1.9-1.1l1.2-0.7c0.1,0.3,0.4,0.5,0.8,0.5
	c0.3,0,0.5-0.1,0.5-0.3c0-0.5-2.2-0.2-2.2-1.8c0-1,0.8-1.5,1.8-1.5c0.7,0,1.4,0.3,1.7,1l-1.1,0.6c-0.1-0.2-0.3-0.4-0.6-0.4
	c-0.2,0-0.4,0.1-0.4,0.3C72.4,161.2,74.6,160.9,74.6,162.5z"/>
<path class="st0" d="M14.4,175.4v1.4h-3.7v-6.3h1.4v4.9H14.4z"/>
<path class="st0" d="M17.2,175.7c0.4,0,0.7-0.1,0.9-0.3l1.1,0.6c-0.4,0.6-1.1,0.9-2,0.9c-1.5,0-2.5-1-2.5-2.4s1-2.4,2.4-2.4
	c1.3,0,2.3,1,2.3,2.4c0,0.2,0,0.4-0.1,0.5h-3.2C16.3,175.5,16.7,175.7,17.2,175.7z M18,174c-0.1-0.5-0.5-0.7-1-0.7
	c-0.5,0-0.9,0.3-1,0.7H18z"/>
<path class="st0" d="M23.4,175.4c0,1-0.9,1.5-1.9,1.5c-0.9,0-1.6-0.3-1.9-1.1l1.2-0.7c0.1,0.3,0.4,0.5,0.8,0.5
	c0.3,0,0.5-0.1,0.5-0.3c0-0.5-2.2-0.2-2.2-1.8c0-1,0.8-1.5,1.8-1.5c0.7,0,1.4,0.3,1.7,1l-1.1,0.6c-0.1-0.2-0.3-0.4-0.6-0.4
	c-0.2,0-0.4,0.1-0.4,0.3C21.2,174.1,23.4,173.7,23.4,175.4z"/>
<path class="st0" d="M26.2,174.5c0-1.3,1-2.4,2.4-2.4c0.9,0,1.6,0.5,2,1.1l-1.2,0.7c-0.2-0.3-0.5-0.5-0.9-0.5c-0.6,0-1,0.4-1,1
	s0.4,1,1,1c0.4,0,0.7-0.2,0.9-0.5l1.2,0.7c-0.4,0.7-1.1,1.2-2,1.2C27.2,176.9,26.2,175.8,26.2,174.5z"/>
<path class="st0" d="M30.8,174.5c0-1.3,1.1-2.4,2.4-2.4s2.4,1,2.4,2.4s-1.1,2.4-2.4,2.4S30.8,175.8,30.8,174.5z M34.2,174.5
	c0-0.6-0.4-1.1-1-1.1c-0.6,0-1,0.4-1,1.1s0.4,1.1,1,1.1C33.8,175.6,34.2,175.1,34.2,174.5z"/>
<path class="st0" d="M40.6,174v2.8h-1.3v-2.6c0-0.6-0.3-0.8-0.8-0.8c-0.5,0-0.8,0.3-0.8,0.9v2.4h-1.3v-4.5h1.3v0.4
	c0.2-0.3,0.7-0.5,1.3-0.5C39.9,172.1,40.6,172.8,40.6,174z"/>
<path class="st0" d="M43.3,173.6v1.6c0,0.4,0.3,0.4,0.9,0.4v1.2c-1.8,0.2-2.3-0.3-2.3-1.6v-1.6h-0.7v-1.3h0.7v-0.9l1.3-0.4v1.3h0.9
	v1.3H43.3z"/>
<path class="st0" d="M47.7,172.2v1.5c-0.6-0.1-1.3,0.1-1.3,1v2h-1.3v-4.5h1.3v0.8C46.6,172.5,47.2,172.2,47.7,172.2z"/>
<path class="st0" d="M52.8,172.3v4.5h-1.3v-0.4c-0.3,0.3-0.7,0.5-1.3,0.5c-1.2,0-2.1-1-2.1-2.4s1-2.4,2.1-2.4c0.6,0,1,0.2,1.3,0.5
	v-0.4H52.8z M51.5,174.5c0-0.7-0.4-1.1-1.1-1.1s-1.1,0.4-1.1,1.1s0.4,1.1,1.1,1.1S51.5,175.2,51.5,174.5z"/>
<path class="st0" d="M55.5,173.6v1.6c0,0.4,0.3,0.4,0.9,0.4v1.2c-1.8,0.2-2.3-0.3-2.3-1.6v-1.6h-0.7v-1.3h0.7v-0.9l1.3-0.4v1.3h0.9
	v1.3H55.5z"/>
<path class="st0" d="M60.7,175.4c0,1-0.9,1.5-1.9,1.5c-0.9,0-1.6-0.3-1.9-1.1l1.2-0.7c0.1,0.3,0.4,0.5,0.8,0.5
	c0.3,0,0.5-0.1,0.5-0.3c0-0.5-2.2-0.2-2.2-1.8c0-1,0.8-1.5,1.8-1.5c0.7,0,1.4,0.3,1.7,1l-1.1,0.6c-0.1-0.2-0.3-0.4-0.6-0.4
	c-0.2,0-0.4,0.1-0.4,0.3C58.5,174.1,60.7,173.7,60.7,175.4z"/>
<path class="st0" d="M63.5,171.1c0-0.4,0.4-0.8,0.8-0.8c0.4,0,0.8,0.4,0.8,0.8s-0.4,0.8-0.8,0.8C63.9,171.9,63.5,171.5,63.5,171.1z
	 M63.6,172.3H65v4.5h-1.3V172.3z"/>
<path class="st0" d="M70.3,174v2.8h-1.3v-2.6c0-0.6-0.3-0.8-0.8-0.8c-0.5,0-0.8,0.3-0.8,0.9v2.4H66v-4.5h1.3v0.4
	c0.2-0.3,0.7-0.5,1.3-0.5C69.5,172.1,70.3,172.8,70.3,174z"/>
<path class="st0" d="M72.9,173.6v1.6c0,0.4,0.3,0.4,0.9,0.4v1.2c-1.8,0.2-2.3-0.3-2.3-1.6v-1.6h-0.7v-1.3h0.7v-0.9l1.3-0.4v1.3h0.9
	v1.3H72.9z"/>
<path class="st0" d="M76.8,175.7c0.4,0,0.7-0.1,0.9-0.3l1.1,0.6c-0.4,0.6-1.1,0.9-2,0.9c-1.5,0-2.5-1-2.5-2.4s1-2.4,2.4-2.4
	c1.3,0,2.3,1,2.3,2.4c0,0.2,0,0.4-0.1,0.5h-3.2C75.9,175.5,76.3,175.7,76.8,175.7z M77.6,174c-0.1-0.5-0.5-0.7-1-0.7
	c-0.5,0-0.9,0.3-1,0.7H77.6z"/>
<path class="st0" d="M79.7,170.2H81v6.5h-1.3V170.2z"/>
<path class="st0" d="M82,170.2h1.3v6.5H82V170.2z"/>
<path class="st0" d="M84.2,171.1c0-0.4,0.4-0.8,0.8-0.8c0.4,0,0.8,0.4,0.8,0.8s-0.4,0.8-0.8,0.8C84.6,171.9,84.2,171.5,84.2,171.1z
	 M84.4,172.3h1.3v4.5h-1.3V172.3z"/>
<path class="st0" d="M91.3,172.3v4.3c0,1.5-1.2,2.1-2.4,2.1c-0.9,0-1.7-0.3-2.1-1.1l1.1-0.7c0.2,0.3,0.4,0.6,1,0.6c0.6,0,1-0.3,1-1
	v-0.4c-0.3,0.4-0.7,0.6-1.3,0.6c-1.3,0-2.2-1-2.2-2.3s0.9-2.3,2.2-2.3c0.6,0,1,0.2,1.3,0.6v-0.5H91.3z M90,174.4c0-0.6-0.4-1-1.1-1
	c-0.6,0-1.1,0.4-1.1,1s0.4,1,1.1,1C89.5,175.5,90,175,90,174.4z"/>
<path class="st0" d="M94.6,175.7c0.4,0,0.7-0.1,0.9-0.3l1.1,0.6c-0.4,0.6-1.1,0.9-2,0.9c-1.5,0-2.5-1-2.5-2.4s1-2.4,2.4-2.4
	c1.3,0,2.3,1,2.3,2.4c0,0.2,0,0.4-0.1,0.5h-3.2C93.7,175.5,94.1,175.7,94.6,175.7z M95.4,174c-0.1-0.5-0.5-0.7-1-0.7
	c-0.5,0-0.9,0.3-1,0.7H95.4z"/>
<path class="st0" d="M101.8,174v2.8h-1.3v-2.6c0-0.6-0.3-0.8-0.8-0.8c-0.5,0-0.8,0.3-0.8,0.9v2.4h-1.3v-4.5h1.3v0.4
	c0.2-0.3,0.7-0.5,1.3-0.5C101,172.1,101.8,172.8,101.8,174z"/>
<path class="st0" d="M104.4,173.6v1.6c0,0.4,0.3,0.4,0.9,0.4v1.2c-1.8,0.2-2.3-0.3-2.3-1.6v-1.6h-0.7v-1.3h0.7v-0.9l1.3-0.4v1.3h0.9
	v1.3H104.4z"/>
<path class="st0" d="M109.6,175.4c0,1-0.9,1.5-1.9,1.5c-0.9,0-1.6-0.3-1.9-1.1l1.2-0.7c0.1,0.3,0.4,0.5,0.8,0.5
	c0.3,0,0.5-0.1,0.5-0.3c0-0.5-2.2-0.2-2.2-1.8c0-1,0.8-1.5,1.8-1.5c0.7,0,1.4,0.3,1.7,1l-1.1,0.6c-0.1-0.2-0.3-0.4-0.6-0.4
	c-0.2,0-0.4,0.1-0.4,0.3C107.4,174.1,109.6,173.7,109.6,175.4z"/>
<path class="st0" d="M68.6,111v1.4h-3.7v-6.3h1.4v4.9H68.6z"/>
<path class="st0" d="M71.4,111.3c0.4,0,0.7-0.1,0.9-0.3l1.1,0.6c-0.4,0.6-1.1,0.9-2,0.9c-1.5,0-2.5-1-2.5-2.4s1-2.4,2.4-2.4
	c1.3,0,2.3,1,2.3,2.4c0,0.2,0,0.4-0.1,0.5h-3.2C70.5,111.1,70.9,111.3,71.4,111.3z M72.2,109.6c-0.1-0.5-0.5-0.7-1-0.7
	c-0.5,0-0.9,0.3-1,0.7H72.2z"/>
<path class="st0" d="M81.4,110.1c0,1.3-1,2.4-2.1,2.4c-0.6,0-1-0.2-1.3-0.5v2.2h-1.3v-6.3h1.3v0.4c0.3-0.3,0.7-0.5,1.3-0.5
	C80.4,107.7,81.4,108.8,81.4,110.1z M80.1,110.1c0-0.7-0.4-1.1-1.1-1.1c-0.6,0-1.1,0.4-1.1,1.1s0.4,1.1,1.1,1.1
	C79.6,111.2,80.1,110.8,80.1,110.1z"/>
<path class="st0" d="M81.9,110.1c0-1.3,1.1-2.4,2.4-2.4c1.3,0,2.4,1,2.4,2.4s-1.1,2.4-2.4,2.4C83,112.5,81.9,111.4,81.9,110.1z
	 M85.4,110.1c0-0.6-0.4-1.1-1-1.1c-0.6,0-1,0.4-1,1.1s0.4,1.1,1,1.1C84.9,111.2,85.4,110.7,85.4,110.1z"/>
<path class="st0" d="M90.2,107.8v1.5c-0.6-0.1-1.3,0.1-1.3,1v2h-1.3v-4.5h1.3v0.8C89,108.1,89.6,107.8,90.2,107.8z"/>
<path class="st0" d="M92.6,109.2v1.6c0,0.4,0.3,0.4,0.9,0.4v1.2c-1.8,0.2-2.3-0.3-2.3-1.6v-1.6h-0.7v-1.3h0.7V107l1.3-0.4v1.3h0.9
	v1.3H92.6z"/>
<path class="st0" d="M96.5,111.3c0.4,0,0.7-0.1,0.9-0.3l1.1,0.6c-0.4,0.6-1.1,0.9-2,0.9c-1.5,0-2.5-1-2.5-2.4s1-2.4,2.4-2.4
	c1.3,0,2.3,1,2.3,2.4c0,0.2,0,0.4-0.1,0.5h-3.2C95.6,111.1,96,111.3,96.5,111.3z M97.3,109.6c-0.1-0.5-0.5-0.7-1-0.7
	c-0.5,0-0.9,0.3-1,0.7H97.3z"/>
<path class="st0" d="M99.5,109h3.4v1.3h-3.4V109z"/>
<path class="st0" d="M110.6,109.6v2.8h-1.3v-2.6c0-0.4-0.2-0.7-0.6-0.7c-0.4,0-0.7,0.3-0.7,0.8v2.5h-1.3v-2.6c0-0.4-0.2-0.7-0.6-0.7
	c-0.4,0-0.7,0.3-0.7,0.8v2.5h-1.3v-4.5h1.3v0.4c0.2-0.3,0.6-0.5,1.2-0.5c0.5,0,0.9,0.2,1.2,0.6c0.3-0.4,0.7-0.6,1.3-0.6
	C110,107.7,110.6,108.5,110.6,109.6z"/>
<path class="st0" d="M111.3,110.1c0-1.3,1.1-2.4,2.4-2.4s2.4,1,2.4,2.4s-1.1,2.4-2.4,2.4S111.3,111.4,111.3,110.1z M114.8,110.1
	c0-0.6-0.4-1.1-1-1.1s-1,0.4-1,1.1s0.4,1.1,1,1.1S114.8,110.7,114.8,110.1z"/>
<path class="st0" d="M121.2,109.6v2.8h-1.3v-2.6c0-0.6-0.3-0.8-0.8-0.8c-0.5,0-0.8,0.3-0.8,0.9v2.4h-1.3v-4.5h1.3v0.4
	c0.2-0.3,0.7-0.5,1.3-0.5C120.4,107.7,121.2,108.4,121.2,109.6z"/>
<path class="st0" d="M126.4,109.6v2.8h-1.3v-2.6c0-0.6-0.3-0.8-0.8-0.8c-0.5,0-0.8,0.3-0.8,0.9v2.4h-1.3v-4.5h1.3v0.4
	c0.2-0.3,0.7-0.5,1.3-0.5C125.6,107.7,126.4,108.4,126.4,109.6z"/>
<path class="st0" d="M131.9,107.9v4.5h-1.3v-0.4c-0.3,0.3-0.7,0.5-1.3,0.5c-1.2,0-2.1-1-2.1-2.4s1-2.4,2.1-2.4c0.6,0,1,0.2,1.3,0.5
	v-0.4H131.9z M130.6,110.1c0-0.7-0.4-1.1-1.1-1.1s-1.1,0.4-1.1,1.1s0.4,1.1,1.1,1.1S130.6,110.8,130.6,110.1z"/>
<path class="st0" d="M132.8,106.7c0-0.4,0.4-0.8,0.8-0.8c0.4,0,0.8,0.4,0.8,0.8s-0.4,0.8-0.8,0.8
	C133.2,107.5,132.8,107.1,132.8,106.7z M132.9,107.9h1.3v4.5h-1.3V107.9z"/>
<path class="st0" d="M137.5,111.3c0.4,0,0.7-0.1,0.9-0.3l1.1,0.6c-0.4,0.6-1.1,0.9-2,0.9c-1.5,0-2.5-1-2.5-2.4s1-2.4,2.4-2.4
	c1.3,0,2.3,1,2.3,2.4c0,0.2,0,0.4-0.1,0.5h-3.2C136.6,111.1,137,111.3,137.5,111.3z M138.4,109.6c-0.1-0.5-0.5-0.7-1-0.7
	c-0.5,0-0.9,0.3-1,0.7H138.4z"/>
<path class="st0" d="M149.4,109.6v2.8h-1.3v-2.6c0-0.4-0.2-0.7-0.6-0.7c-0.4,0-0.7,0.3-0.7,0.8v2.5h-1.3v-2.6c0-0.4-0.2-0.7-0.6-0.7
	c-0.4,0-0.7,0.3-0.7,0.8v2.5h-1.3v-4.5h1.3v0.4c0.2-0.3,0.6-0.5,1.2-0.5c0.5,0,0.9,0.2,1.2,0.6c0.3-0.4,0.7-0.6,1.3-0.6
	C148.8,107.7,149.4,108.5,149.4,109.6z"/>
<path class="st0" d="M154.6,107.9v4.5h-1.3v-0.4c-0.2,0.3-0.7,0.5-1.3,0.5c-0.9,0-1.7-0.6-1.7-1.9v-2.8h1.3v2.6
	c0,0.6,0.3,0.8,0.8,0.8c0.5,0,0.8-0.3,0.8-0.9v-2.4H154.6z"/>
<path class="st0" d="M155.6,105.8h1.3v6.5h-1.3V105.8z"/>
<path class="st0" d="M159.6,109.2v1.6c0,0.4,0.3,0.4,0.9,0.4v1.2c-1.8,0.2-2.3-0.3-2.3-1.6v-1.6h-0.7v-1.3h0.7V107l1.3-0.4v1.3h0.9
	v1.3H159.6z"/>
<path class="st0" d="M161.2,106.7c0-0.4,0.4-0.8,0.8-0.8c0.4,0,0.8,0.4,0.8,0.8s-0.4,0.8-0.8,0.8
	C161.6,107.5,161.2,107.1,161.2,106.7z M161.3,107.9h1.3v4.5h-1.3V107.9z"/>
<path class="st0" d="M163.7,109h3.4v1.3h-3.4V109z"/>
<path class="st0" d="M172.7,106.1v6.3h-1.3v-0.4c-0.3,0.3-0.7,0.5-1.3,0.5c-1.2,0-2.1-1-2.1-2.4s1-2.4,2.1-2.4c0.6,0,1,0.2,1.3,0.5
	v-2.2H172.7z M171.4,110.1c0-0.7-0.4-1.1-1.1-1.1s-1.1,0.4-1.1,1.1s0.4,1.1,1.1,1.1S171.4,110.8,171.4,110.1z"/>
<path class="st0" d="M176,111.3c0.4,0,0.7-0.1,0.9-0.3l1.1,0.6c-0.4,0.6-1.1,0.9-2,0.9c-1.5,0-2.5-1-2.5-2.4s1-2.4,2.4-2.4
	c1.3,0,2.3,1,2.3,2.4c0,0.2,0,0.4-0.1,0.5h-3.2C175.1,111.1,175.5,111.3,176,111.3z M176.8,109.6c-0.1-0.5-0.5-0.7-1-0.7
	c-0.5,0-0.9,0.3-1,0.7H176.8z"/>
<path class="st0" d="M183.1,107.9l-1.7,4.5h-1.5l-1.7-4.5h1.5l0.9,2.8l0.9-2.8H183.1z"/>
<path class="st0" d="M183.5,106.7c0-0.4,0.4-0.8,0.8-0.8c0.4,0,0.8,0.4,0.8,0.8s-0.4,0.8-0.8,0.8
	C183.8,107.5,183.5,107.1,183.5,106.7z M183.6,107.9h1.3v4.5h-1.3V107.9z"/>
<path class="st0" d="M189.4,111c0,1-0.9,1.5-1.9,1.5c-0.9,0-1.6-0.3-1.9-1.1l1.2-0.7c0.1,0.3,0.4,0.5,0.8,0.5c0.3,0,0.5-0.1,0.5-0.3
	c0-0.5-2.2-0.2-2.2-1.8c0-1,0.8-1.5,1.8-1.5c0.7,0,1.4,0.3,1.7,1l-1.1,0.6c-0.1-0.2-0.3-0.4-0.6-0.4c-0.2,0-0.4,0.1-0.4,0.3
	C187.2,109.7,189.4,109.3,189.4,111z"/>
<path class="st0" d="M192.3,111.3c0.4,0,0.7-0.1,0.9-0.3l1.1,0.6c-0.4,0.6-1.1,0.9-2,0.9c-1.5,0-2.5-1-2.5-2.4s1-2.4,2.4-2.4
	c1.3,0,2.3,1,2.3,2.4c0,0.2,0,0.4-0.1,0.5h-3.2C191.4,111.1,191.8,111.3,192.3,111.3z M193.1,109.6c-0.1-0.5-0.5-0.7-1-0.7
	c-0.5,0-0.9,0.3-1,0.7H193.1z"/>
<path class="st0" d="M87.7,123.9v1.4h-3.7V119h1.4v4.9H87.7z"/>
<path class="st0" d="M90.6,124.2c0.4,0,0.7-0.1,0.9-0.3l1.1,0.6c-0.4,0.6-1.1,0.9-2,0.9c-1.5,0-2.5-1-2.5-2.4s1-2.4,2.4-2.4
	c1.3,0,2.3,1,2.3,2.4c0,0.2,0,0.4-0.1,0.5h-3.2C89.7,124,90.1,124.2,90.6,124.2z M91.4,122.5c-0.1-0.5-0.5-0.7-1-0.7
	c-0.5,0-0.9,0.3-1,0.7H91.4z"/>
<path class="st0" d="M96.8,123.9c0,1-0.9,1.5-1.9,1.5c-0.9,0-1.6-0.3-1.9-1.1l1.2-0.7c0.1,0.3,0.4,0.5,0.8,0.5
	c0.3,0,0.5-0.1,0.5-0.3c0-0.5-2.2-0.2-2.2-1.8c0-1,0.8-1.5,1.8-1.5c0.7,0,1.4,0.3,1.7,1l-1.1,0.6c-0.1-0.2-0.3-0.4-0.6-0.4
	c-0.2,0-0.4,0.1-0.4,0.3C94.6,122.6,96.8,122.2,96.8,123.9z"/>
<path class="st0" d="M99.6,119.5c0-0.4,0.4-0.8,0.8-0.8c0.4,0,0.8,0.4,0.8,0.8s-0.4,0.8-0.8,0.8C100,120.4,99.6,120,99.6,119.5z
	 M99.8,120.7h1.3v4.5h-1.3V120.7z"/>
<path class="st0" d="M106.4,122.5v2.8H105v-2.6c0-0.6-0.3-0.8-0.8-0.8c-0.5,0-0.8,0.3-0.8,0.9v2.4h-1.3v-4.5h1.3v0.4
	c0.2-0.3,0.7-0.5,1.3-0.5C105.6,120.6,106.4,121.3,106.4,122.5z"/>
<path class="st0" d="M111.6,120.7l-1.7,4.5h-1.5l-1.7-4.5h1.5l0.9,2.8l0.9-2.8H111.6z"/>
<path class="st0" d="M114.2,124.2c0.4,0,0.7-0.1,0.9-0.3l1.1,0.6c-0.4,0.6-1.1,0.9-2,0.9c-1.5,0-2.5-1-2.5-2.4s1-2.4,2.4-2.4
	c1.3,0,2.3,1,2.3,2.4c0,0.2,0,0.4-0.1,0.5h-3.2C113.3,124,113.7,124.2,114.2,124.2z M115,122.5c-0.1-0.5-0.5-0.7-1-0.7
	c-0.5,0-0.9,0.3-1,0.7H115z"/>
<path class="st0" d="M120.4,123.9c0,1-0.9,1.5-1.9,1.5c-0.9,0-1.6-0.3-1.9-1.1l1.2-0.7c0.1,0.3,0.4,0.5,0.8,0.5
	c0.3,0,0.5-0.1,0.5-0.3c0-0.5-2.2-0.2-2.2-1.8c0-1,0.8-1.5,1.8-1.5c0.7,0,1.4,0.3,1.8,1l-1.1,0.6c-0.1-0.2-0.3-0.4-0.6-0.4
	c-0.2,0-0.4,0.1-0.4,0.3C118.2,122.6,120.4,122.2,120.4,123.9z"/>
<path class="st0" d="M122.6,122v1.6c0,0.4,0.3,0.4,0.9,0.4v1.2c-1.8,0.2-2.3-0.3-2.3-1.6V122h-0.7v-1.3h0.7v-0.9l1.3-0.4v1.3h0.9
	v1.3H122.6z"/>
<path class="st0" d="M124.2,119.5c0-0.4,0.4-0.8,0.8-0.8c0.4,0,0.8,0.4,0.8,0.8s-0.4,0.8-0.8,0.8C124.6,120.4,124.2,120,124.2,119.5
	z M124.3,120.7h1.3v4.5h-1.3V120.7z"/>
<path class="st0" d="M130.1,123.9c0,1-0.9,1.5-1.9,1.5c-0.9,0-1.6-0.3-1.9-1.1l1.2-0.7c0.1,0.3,0.4,0.5,0.8,0.5
	c0.3,0,0.5-0.1,0.5-0.3c0-0.5-2.2-0.2-2.2-1.8c0-1,0.8-1.5,1.8-1.5c0.7,0,1.4,0.3,1.7,1l-1.1,0.6c-0.1-0.2-0.3-0.4-0.6-0.4
	c-0.2,0-0.4,0.1-0.4,0.3C127.9,122.6,130.1,122.2,130.1,123.9z"/>
<path class="st0" d="M134,123.9c0,1-0.9,1.5-1.9,1.5c-0.9,0-1.6-0.3-1.9-1.1l1.2-0.7c0.1,0.3,0.4,0.5,0.8,0.5c0.3,0,0.5-0.1,0.5-0.3
	c0-0.5-2.2-0.2-2.2-1.8c0-1,0.8-1.5,1.8-1.5c0.7,0,1.4,0.3,1.7,1l-1.1,0.6c-0.1-0.2-0.3-0.4-0.6-0.4c-0.2,0-0.4,0.1-0.4,0.3
	C131.8,122.6,134,122.2,134,123.9z"/>
<path class="st0" d="M136.9,124.2c0.4,0,0.7-0.1,0.9-0.3l1.1,0.6c-0.4,0.6-1.1,0.9-2,0.9c-1.5,0-2.5-1-2.5-2.4s1-2.4,2.4-2.4
	c1.3,0,2.3,1,2.3,2.4c0,0.2,0,0.4-0.1,0.5h-3.2C136,124,136.5,124.2,136.9,124.2z M137.8,122.5c-0.1-0.5-0.5-0.7-1-0.7
	c-0.5,0-0.9,0.3-1,0.7H137.8z"/>
<path class="st0" d="M144.1,120.7v4.5h-1.3v-0.4c-0.2,0.3-0.7,0.5-1.3,0.5c-0.9,0-1.7-0.6-1.7-1.9v-2.8h1.3v2.6
	c0,0.6,0.3,0.8,0.8,0.8c0.5,0,0.8-0.3,0.8-0.9v-2.4H144.1z"/>
<path class="st0" d="M147.8,120.7v1.5c-0.6-0.1-1.3,0.1-1.3,1v2h-1.3v-4.5h1.3v0.8C146.6,120.9,147.2,120.7,147.8,120.7z"/>
<path class="st0" d="M151.8,123.9c0,1-0.9,1.5-1.9,1.5c-0.9,0-1.6-0.3-1.9-1.1l1.2-0.7c0.1,0.3,0.4,0.5,0.8,0.5
	c0.3,0,0.5-0.1,0.5-0.3c0-0.5-2.2-0.2-2.2-1.8c0-1,0.8-1.5,1.8-1.5c0.7,0,1.4,0.3,1.7,1l-1.1,0.6c-0.1-0.2-0.3-0.4-0.6-0.4
	c-0.2,0-0.4,0.1-0.4,0.3C149.6,122.6,151.8,122.2,151.8,123.9z"/>
<path class="st0" d="M154.5,123c0-1.3,1-2.4,2.4-2.4c0.9,0,1.6,0.5,2,1.1l-1.2,0.7c-0.2-0.3-0.5-0.5-0.9-0.5c-0.6,0-1,0.4-1,1
	s0.4,1,1,1c0.4,0,0.7-0.2,0.9-0.5l1.2,0.7c-0.4,0.7-1.1,1.2-2,1.2C155.5,125.4,154.5,124.3,154.5,123z"/>
<path class="st0" d="M159.1,123c0-1.3,1.1-2.4,2.4-2.4c1.3,0,2.4,1,2.4,2.4s-1.1,2.4-2.4,2.4C160.2,125.4,159.1,124.3,159.1,123z
	 M162.5,123c0-0.6-0.4-1.1-1-1.1c-0.6,0-1,0.4-1,1.1s0.4,1.1,1,1.1C162.1,124,162.5,123.6,162.5,123z"/>
<path class="st0" d="M169,122.5v2.8h-1.3v-2.6c0-0.6-0.3-0.8-0.8-0.8c-0.5,0-0.8,0.3-0.8,0.9v2.4h-1.3v-4.5h1.3v0.4
	c0.2-0.3,0.7-0.5,1.3-0.5C168.2,120.6,169,121.3,169,122.5z"/>
<path class="st0" d="M174,125.2h-1.3V122h-1.1v3.2h-1.3V122h-0.6v-1.3h0.6c0-1.3,0.7-1.9,2.2-1.9c0.4,0,0.7,0,1.1,0.1v1.2
	c-0.4,0-0.8-0.1-1.1-0.1c-0.5,0-0.8,0.1-0.8,0.6h2.5V125.2z"/>
<path class="st0" d="M177.7,120.7v1.5c-0.6-0.1-1.3,0.1-1.3,1v2H175v-4.5h1.3v0.8C176.5,120.9,177.1,120.7,177.7,120.7z"/>
<path class="st0" d="M185.1,122.5v2.8h-1.3v-2.6c0-0.4-0.2-0.7-0.6-0.7c-0.4,0-0.7,0.3-0.7,0.8v2.5H181v-2.6c0-0.4-0.2-0.7-0.6-0.7
	c-0.4,0-0.7,0.3-0.7,0.8v2.5h-1.3v-4.5h1.3v0.4c0.2-0.3,0.6-0.5,1.2-0.5c0.5,0,0.9,0.2,1.2,0.6c0.3-0.4,0.7-0.6,1.3-0.6
	C184.4,120.6,185.1,121.4,185.1,122.5z"/>
<path class="st0" d="M188.3,124.2c0.4,0,0.7-0.1,0.9-0.3l1.1,0.6c-0.4,0.6-1.1,0.9-2,0.9c-1.5,0-2.5-1-2.5-2.4s1-2.4,2.4-2.4
	c1.3,0,2.3,1,2.3,2.4c0,0.2,0,0.4-0.1,0.5h-3.2C187.4,124,187.8,124.2,188.3,124.2z M189.1,122.5c-0.1-0.5-0.5-0.7-1-0.7
	c-0.5,0-0.9,0.3-1,0.7H189.1z M188.6,120.2h-1.3l0.7-1.3h1.6L188.6,120.2z"/>
<path class="st0" d="M194.5,123.9c0,1-0.9,1.5-1.9,1.5c-0.9,0-1.6-0.3-1.9-1.1l1.2-0.7c0.1,0.3,0.4,0.5,0.8,0.5
	c0.3,0,0.5-0.1,0.5-0.3c0-0.5-2.2-0.2-2.2-1.8c0-1,0.8-1.5,1.8-1.5c0.7,0,1.4,0.3,1.7,1l-1.1,0.6c-0.1-0.2-0.3-0.4-0.6-0.4
	c-0.2,0-0.4,0.1-0.4,0.3C192.3,122.6,194.5,122.2,194.5,123.9z"/>
<path class="st0" d="M130.5,136.7v1.4h-3.7v-6.3h1.4v4.9H130.5z"/>
<path class="st0" d="M135.6,133.6v4.5h-1.3v-0.4c-0.3,0.3-0.7,0.5-1.3,0.5c-1.2,0-2.1-1-2.1-2.4s1-2.4,2.1-2.4c0.6,0,1,0.2,1.3,0.5
	v-0.4H135.6z M134.3,135.9c0-0.7-0.4-1.1-1.1-1.1s-1.1,0.4-1.1,1.1s0.4,1.1,1.1,1.1S134.3,136.5,134.3,135.9z"/>
<path class="st0" d="M140.6,134.9v1.6c0,0.4,0.3,0.4,0.9,0.4v1.2c-1.8,0.2-2.3-0.3-2.3-1.6v-1.6h-0.7v-1.3h0.7v-0.9l1.3-0.4v1.3h0.9
	v1.3H140.6z"/>
<path class="st0" d="M145,133.5v1.5c-0.6-0.1-1.3,0.1-1.3,1v2h-1.3v-4.5h1.3v0.8C143.9,133.8,144.5,133.5,145,133.5z"/>
<path class="st0" d="M150.1,133.6v4.5h-1.3v-0.4c-0.3,0.3-0.7,0.5-1.3,0.5c-1.2,0-2.1-1-2.1-2.4s1-2.4,2.1-2.4c0.6,0,1,0.2,1.3,0.5
	v-0.4H150.1z M148.8,135.9c0-0.7-0.4-1.1-1.1-1.1s-1.1,0.4-1.1,1.1s0.4,1.1,1.1,1.1S148.8,136.5,148.8,135.9z"/>
<path class="st0" d="M155.4,135.4v2.8h-1.3v-2.6c0-0.6-0.3-0.8-0.8-0.8c-0.5,0-0.8,0.3-0.8,0.9v2.4h-1.3v-4.5h1.3v0.4
	c0.2-0.3,0.7-0.5,1.3-0.5C154.7,133.5,155.4,134.1,155.4,135.4z"/>
<path class="st0" d="M159.8,136.8c0,1-0.9,1.5-1.9,1.5c-0.9,0-1.6-0.3-1.9-1.1l1.2-0.7c0.1,0.3,0.4,0.5,0.8,0.5
	c0.3,0,0.5-0.1,0.5-0.3c0-0.5-2.2-0.2-2.2-1.8c0-1,0.8-1.5,1.8-1.5c0.7,0,1.4,0.3,1.7,1l-1.1,0.6c-0.1-0.2-0.3-0.4-0.6-0.4
	c-0.2,0-0.4,0.1-0.4,0.3C157.6,135.4,159.8,135.1,159.8,136.8z"/>
<path class="st0" d="M165.4,135.9c0,1.3-1,2.4-2.1,2.4c-0.6,0-1-0.2-1.3-0.5v2.2h-1.3v-6.3h1.3v0.4c0.3-0.3,0.7-0.5,1.3-0.5
	C164.4,133.5,165.4,134.5,165.4,135.9z M164,135.9c0-0.7-0.4-1.1-1.1-1.1s-1.1,0.4-1.1,1.1s0.4,1.1,1.1,1.1S164,136.5,164,135.9z"/>
<path class="st0" d="M170.8,133.6v4.5h-1.3v-0.4c-0.3,0.3-0.7,0.5-1.3,0.5c-1.2,0-2.1-1-2.1-2.4s1-2.4,2.1-2.4c0.6,0,1,0.2,1.3,0.5
	v-0.4H170.8z M169.4,135.9c0-0.7-0.4-1.1-1.1-1.1s-1.1,0.4-1.1,1.1s0.4,1.1,1.1,1.1S169.4,136.5,169.4,135.9z"/>
<path class="st0" d="M174.4,133.5v1.5c-0.6-0.1-1.3,0.1-1.3,1v2h-1.3v-4.5h1.3v0.8C173.3,133.8,173.9,133.5,174.4,133.5z"/>
<path class="st0" d="M177.2,137c0.4,0,0.7-0.1,0.9-0.3l1.1,0.6c-0.4,0.6-1.1,0.9-2,0.9c-1.5,0-2.5-1-2.5-2.4s1-2.4,2.4-2.4
	c1.3,0,2.3,1,2.3,2.4c0,0.2,0,0.4-0.1,0.5h-3.2C176.3,136.9,176.7,137,177.2,137z M178,135.4c-0.1-0.5-0.5-0.7-1-0.7
	c-0.5,0-0.9,0.3-1,0.7H178z"/>
<path class="st0" d="M184.4,135.4v2.8h-1.3v-2.6c0-0.6-0.3-0.8-0.8-0.8c-0.5,0-0.8,0.3-0.8,0.9v2.4h-1.3v-4.5h1.3v0.4
	c0.2-0.3,0.7-0.5,1.3-0.5C183.7,133.5,184.4,134.1,184.4,135.4z"/>
<path class="st0" d="M185.2,135.9c0-1.3,1-2.4,2.4-2.4c0.9,0,1.6,0.5,2,1.1l-1.2,0.7c-0.2-0.3-0.5-0.5-0.9-0.5c-0.6,0-1,0.4-1,1
	s0.4,1,1,1c0.4,0,0.7-0.2,0.9-0.5l1.2,0.7c-0.4,0.7-1.1,1.2-2,1.2C186.2,138.2,185.2,137.2,185.2,135.9z"/>
<path class="st0" d="M192.3,137c0.4,0,0.7-0.1,0.9-0.3l1.1,0.6c-0.4,0.6-1.1,0.9-2,0.9c-1.5,0-2.5-1-2.5-2.4s1-2.4,2.4-2.4
	c1.3,0,2.3,1,2.3,2.4c0,0.2,0,0.4-0.1,0.5h-3.2C191.4,136.9,191.8,137,192.3,137z M193.1,135.4c-0.1-0.5-0.5-0.7-1-0.7
	c-0.5,0-0.9,0.3-1,0.7H193.1z"/>
<path class="st0" d="M153.4,149.6v1.4h-3.7v-6.3h1.4v4.9H153.4z"/>
<path class="st0" d="M158.5,146.5v4.5h-1.3v-0.4c-0.3,0.3-0.7,0.5-1.3,0.5c-1.2,0-2.1-1-2.1-2.4s1-2.4,2.1-2.4c0.6,0,1,0.2,1.3,0.5
	v-0.4H158.5z M157.2,148.8c0-0.7-0.4-1.1-1.1-1.1s-1.1,0.4-1.1,1.1s0.4,1.1,1.1,1.1S157.2,149.4,157.2,148.8z"/>
<path class="st0" d="M165.3,149.6c0,1-0.9,1.5-1.9,1.5c-0.9,0-1.6-0.3-1.9-1.1l1.2-0.7c0.1,0.3,0.4,0.5,0.8,0.5
	c0.3,0,0.5-0.1,0.5-0.3c0-0.5-2.2-0.2-2.2-1.8c0-1,0.8-1.5,1.8-1.5c0.7,0,1.4,0.3,1.7,1L164,148c-0.1-0.2-0.3-0.4-0.6-0.4
	c-0.2,0-0.4,0.1-0.4,0.3C163.1,148.3,165.3,148,165.3,149.6z"/>
<path class="st0" d="M168.2,149.9c0.4,0,0.7-0.1,0.9-0.3l1.1,0.6c-0.4,0.6-1.1,0.9-2,0.9c-1.5,0-2.5-1-2.5-2.4s1-2.4,2.4-2.4
	c1.3,0,2.3,1,2.3,2.4c0,0.2,0,0.4-0.1,0.5h-3.2C167.3,149.8,167.7,149.9,168.2,149.9z M169,148.3c-0.1-0.5-0.5-0.7-1-0.7
	c-0.5,0-0.9,0.3-1,0.7H169z M168.5,145.9h-1.3l0.7-1.3h1.6L168.5,145.9z"/>
<path class="st0" d="M170.8,148.8c0-1.3,1-2.4,2.4-2.4c0.9,0,1.6,0.5,2,1.1l-1.2,0.7c-0.2-0.3-0.5-0.5-0.9-0.5c-0.6,0-1,0.4-1,1
	s0.4,1,1,1c0.4,0,0.7-0.2,0.9-0.5l1.2,0.7c-0.4,0.7-1.1,1.2-2,1.2C171.8,151.1,170.8,150.1,170.8,148.8z"/>
<path class="st0" d="M180.1,146.5v4.5h-1.3v-0.4c-0.2,0.3-0.7,0.5-1.3,0.5c-0.9,0-1.7-0.6-1.7-1.9v-2.8h1.3v2.6
	c0,0.6,0.3,0.8,0.8,0.8c0.5,0,0.8-0.3,0.8-0.9v-2.4H180.1z"/>
<path class="st0" d="M183.7,146.4v1.5c-0.6-0.1-1.3,0.1-1.3,1v2H181v-4.5h1.3v0.8C182.6,146.7,183.2,146.4,183.7,146.4z"/>
<path class="st0" d="M184.2,145.3c0-0.4,0.4-0.8,0.8-0.8c0.4,0,0.8,0.4,0.8,0.8s-0.4,0.8-0.8,0.8
	C184.6,146.1,184.2,145.7,184.2,145.3z M184.4,146.5h1.3v4.5h-1.3V146.5z"/>
<path class="st0" d="M188.4,147.8v1.6c0,0.4,0.3,0.4,0.9,0.4v1.2c-1.8,0.2-2.3-0.3-2.3-1.6v-1.6h-0.7v-1.3h0.7v-0.9l1.3-0.4v1.3h0.9
	v1.3H188.4z"/>
<path class="st0" d="M192.3,149.9c0.4,0,0.7-0.1,0.9-0.3l1.1,0.6c-0.4,0.6-1.1,0.9-2,0.9c-1.5,0-2.5-1-2.5-2.4s1-2.4,2.4-2.4
	c1.3,0,2.3,1,2.3,2.4c0,0.2,0,0.4-0.1,0.5h-3.2C191.4,149.8,191.8,149.9,192.3,149.9z M193.1,148.3c-0.1-0.5-0.5-0.7-1-0.7
	c-0.5,0-0.9,0.3-1,0.7H193.1z M192.6,145.9h-1.3l0.7-1.3h1.6L192.6,145.9z"/>
<path class="st0" d="M164.9,162.5v1.4h-3.7v-6.3h1.4v4.9H164.9z"/>
<path class="st0" d="M167.7,162.8c0.4,0,0.7-0.1,0.9-0.3l1.1,0.6c-0.4,0.6-1.1,0.9-2,0.9c-1.5,0-2.5-1-2.5-2.4s1-2.4,2.4-2.4
	c1.3,0,2.3,1,2.3,2.4c0,0.2,0,0.4-0.1,0.5h-3.2C166.8,162.6,167.2,162.8,167.7,162.8z M168.5,161.2c-0.1-0.5-0.5-0.7-1-0.7
	c-0.5,0-0.9,0.3-1,0.7H168.5z"/>
<path class="st0" d="M172.6,161.6c0-1.3,1-2.4,2.4-2.4c0.9,0,1.6,0.5,2,1.1l-1.2,0.7c-0.2-0.3-0.5-0.5-0.9-0.5c-0.6,0-1,0.4-1,1
	s0.4,1,1,1c0.4,0,0.7-0.2,0.9-0.5l1.2,0.7c-0.4,0.7-1.1,1.2-2,1.2C173.7,164,172.6,163,172.6,161.6z"/>
<path class="st0" d="M181.9,161.1v2.8h-1.3v-2.6c0-0.6-0.3-0.8-0.8-0.8c-0.5,0-0.8,0.3-0.8,0.9v2.4h-1.3v-6.3h1.3v2.2
	c0.2-0.3,0.7-0.5,1.3-0.5C181.1,159.3,181.9,159.9,181.9,161.1z"/>
<path class="st0" d="M182.6,161.6c0-1.3,1.1-2.4,2.4-2.4c1.3,0,2.4,1,2.4,2.4s-1.1,2.4-2.4,2.4C183.7,164,182.6,163,182.6,161.6z
	 M186,161.6c0-0.6-0.4-1.1-1-1.1s-1,0.4-1,1.1s0.4,1.1,1,1.1S186,162.3,186,161.6z"/>
<path class="st0" d="M188,158.2c0-0.4,0.4-0.8,0.8-0.8c0.4,0,0.8,0.4,0.8,0.8s-0.4,0.8-0.8,0.8C188.4,159,188,158.6,188,158.2z
	 M188.1,159.4h1.3v4.5h-1.3V159.4z"/>
<path class="st0" d="M193.2,163.9l-0.8-1.2l-0.8,1.2H190l1.6-2.3l-1.6-2.2h1.5l0.8,1.1l0.8-1.1h1.5l-1.6,2.2l1.6,2.3H193.2z"/>
<path class="st0" d="M162.1,171.9v1.2h2.3v1.4h-2.3v2.3h-1.4v-6.3h3.8v1.4H162.1z"/>
<path class="st0" d="M165.1,171.1c0-0.4,0.4-0.8,0.8-0.8c0.4,0,0.8,0.4,0.8,0.8s-0.4,0.8-0.8,0.8
	C165.5,171.9,165.1,171.5,165.1,171.1z M165.3,172.3h1.3v4.5h-1.3V172.3z"/>
<path class="st0" d="M172.2,172.3v4.5h-1.3v-0.4c-0.3,0.3-0.7,0.5-1.3,0.5c-1.2,0-2.1-1-2.1-2.4s1-2.4,2.1-2.4c0.6,0,1,0.2,1.3,0.5
	v-0.4H172.2z M170.9,174.5c0-0.7-0.4-1.1-1.1-1.1s-1.1,0.4-1.1,1.1s0.4,1.1,1.1,1.1S170.9,175.2,170.9,174.5z"/>
<path class="st0" d="M174.9,173.6v1.6c0,0.4,0.3,0.4,0.9,0.4v1.2c-1.8,0.2-2.3-0.3-2.3-1.6v-1.6h-0.7v-1.3h0.7v-0.9l1.3-0.4v1.3h0.9
	v1.3H174.9z"/>
<path class="st0" d="M181.1,172.3v4.3c0,1.5-1.2,2.1-2.4,2.1c-0.9,0-1.7-0.3-2.1-1.1l1.1-0.7c0.2,0.3,0.4,0.6,1,0.6c0.6,0,1-0.3,1-1
	v-0.4c-0.3,0.4-0.7,0.6-1.3,0.6c-1.3,0-2.2-1-2.2-2.3s0.9-2.3,2.2-2.3c0.6,0,1,0.2,1.3,0.6v-0.5H181.1z M179.8,174.4
	c0-0.6-0.4-1-1.1-1c-0.6,0-1.1,0.4-1.1,1s0.4,1,1.1,1C179.3,175.5,179.8,175,179.8,174.4z"/>
<path class="st0" d="M184.4,175.7c0.4,0,0.7-0.1,0.9-0.3l1.1,0.6c-0.4,0.6-1.1,0.9-2,0.9c-1.5,0-2.5-1-2.5-2.4s1-2.4,2.4-2.4
	c1.3,0,2.3,1,2.3,2.4c0,0.2,0,0.4-0.1,0.5h-3.2C183.5,175.5,183.9,175.7,184.4,175.7z M185.2,174c-0.1-0.5-0.5-0.7-1-0.7
	c-0.5,0-0.9,0.3-1,0.7H185.2z"/>
<path class="st0" d="M187.3,170.2h1.3v6.5h-1.3V170.2z"/>
<path class="st0" d="M194.2,170.5v6.3h-1.3v-0.4c-0.3,0.3-0.7,0.5-1.3,0.5c-1.2,0-2.1-1-2.1-2.4s1-2.4,2.1-2.4c0.6,0,1,0.2,1.3,0.5
	v-2.2H194.2z M192.9,174.5c0-0.7-0.4-1.1-1.1-1.1s-1.1,0.4-1.1,1.1s0.4,1.1,1.1,1.1S192.9,175.2,192.9,174.5z"/>
</svg>
