<?xml version="1.0" encoding="utf-8"?>
<!-- Generator: Adobe Illustrator 21.1.0, SVG Export Plug-In . SVG Version: 6.00 Build 0)  -->
<svg version="1.1" id="Layer_4" xmlns="http://www.w3.org/2000/svg" xmlns:xlink="http://www.w3.org/1999/xlink" x="0px" y="0px"
	 viewBox="0 0 517 207.1" style="enable-background:new 0 0 517 207.1;" xml:space="preserve">
<style type="text/css">
	.st0{fill:#ABB4BB;}
	.st1{fill:#474C53;}
	.st2{fill:#FFFFFF;}
	.st3{fill:#464F56;}
	.st4{fill:#25258D;}
	.st5{fill:none;stroke:#464F56;stroke-width:1.9967;stroke-miterlimit:10;}
</style>
<path class="st0" d="M480.5,142c-0.6,0-1-0.4-1-1v-13.9c0-0.6,0.4-1,1-1s1,0.4,1,1V141C481.5,141.5,481.1,142,480.5,142z"/>
<path class="st1" d="M475,131.8c0-0.7-0.3-1.4-0.9-1.9l1-0.5l1,0.5c1.6,0.8,3.5,1.8,5.7,2.9l0.5,0.3l1.4-1.8l-6.2-3.3l6.2-3.3
	l-1.4-1.8l-0.5,0.3c-2.2,1.1-4.1,2.1-5.7,2.9l-1,0.5l-1-0.5c0.6-0.5,0.9-1.1,0.9-1.9c0-1.5-1.5-2.6-3.3-2.6s-3.3,1.2-3.3,2.6
	s0.8,2,3.9,3.7c-3.1,1.6-3.9,2.3-3.9,3.7c0,1.5,1.5,2.6,3.3,2.6C473.5,134.4,475,133.3,475,131.8 M470.4,124.4
	c0-0.6,0.6-1.1,1.3-1.1c0.7,0,1.3,0.5,1.3,1.1s-0.6,1.1-1.3,1.1S470.4,125,470.4,124.4 M470.4,131.8c0-0.6,0.6-1.1,1.3-1.1
	c0.7,0,1.3,0.5,1.3,1.1s-0.6,1.1-1.3,1.1C471,132.9,470.4,132.4,470.4,131.8"/>
<path class="st0" d="M480.5,129.1c-0.6,0-1-0.4-1-1v-14.8c0-0.6,0.4-1,1-1s1,0.4,1,1v14.8C481.5,128.7,481.1,129.1,480.5,129.1z"/>
<path class="st0" d="M48.5,142c-0.6,0-1-0.4-1-1v-12.9c0-0.6,0.4-1,1-1s1,0.4,1,1V141C49.5,141.5,49.1,142,48.5,142z"/>
<path class="st1" d="M57.3,134.4c1.8,0,3.3-1.2,3.3-2.6c0-1.4-0.8-2-3.9-3.7c3.1-1.6,3.9-2.3,3.9-3.7c0-1.5-1.5-2.6-3.3-2.6
	S54,123,54,124.4c0,0.7,0.3,1.4,0.9,1.9l-1,0.5l-1-0.5c-1.6-0.8-3.5-1.8-5.7-2.9l-0.5-0.3l-1.4,1.8l6.2,3.3l-6.2,3.3l1.4,1.8
	l0.5-0.3c2.2-1.1,4.1-2.1,5.7-2.9l1-0.5l1,0.5c-0.6,0.5-0.9,1.1-0.9,1.9C54.1,133.3,55.5,134.4,57.3,134.4 M57.3,125.5
	c-0.7,0-1.3-0.5-1.3-1.1s0.6-1.1,1.3-1.1s1.3,0.5,1.3,1.1S58,125.5,57.3,125.5 M57.3,132.9c-0.7,0-1.3-0.5-1.3-1.1s0.6-1.1,1.3-1.1
	s1.3,0.5,1.3,1.1S58,132.9,57.3,132.9"/>
<path class="st0" d="M48.5,129.1c-0.6,0-1-0.4-1-1v-14.8c0-0.6,0.4-1,1-1s1,0.4,1,1v14.8C49.5,128.7,49.1,129.1,48.5,129.1z"/>
<path class="st0" d="M132.2,173.6v-2.5H83.8c-0.6,0-1-0.4-1-1s0.4-1,1-1h48.3v-2.5l6,3.5L132.2,173.6z"/>
<path class="st2" d="M129.5,114.6H4.2c-1,0-1.9-0.8-1.9-1.9V16.4c0-1,0.8-1.9,1.9-1.9h125.3c1,0,1.9,0.8,1.9,1.9v96.3
	C131.3,113.7,130.5,114.6,129.5,114.6"/>
<path class="st0" d="M129.5,115.6h-2.7c-0.6,0-1-0.4-1-1s0.4-1,1-1h2.7c0.6,0,1,0.4,1,1S130,115.6,129.5,115.6z M120.1,115.6h-2.7
	c-0.6,0-1-0.4-1-1s0.4-1,1-1h2.7c0.6,0,1,0.4,1,1S120.7,115.6,120.1,115.6z M110.8,115.6h-2.7c-0.6,0-1-0.4-1-1s0.4-1,1-1h2.7
	c0.6,0,1,0.4,1,1S111.4,115.6,110.8,115.6z M101.5,115.6h-2.7c-0.6,0-1-0.4-1-1s0.4-1,1-1h2.7c0.6,0,1,0.4,1,1
	S102.1,115.6,101.5,115.6z M92.2,115.6h-2.7c-0.6,0-1-0.4-1-1s0.4-1,1-1h2.7c0.6,0,1,0.4,1,1S92.7,115.6,92.2,115.6z M82.9,115.6
	h-2.7c-0.6,0-1-0.4-1-1s0.4-1,1-1h2.7c0.6,0,1,0.4,1,1S83.4,115.6,82.9,115.6z M73.5,115.6h-2.7c-0.6,0-1-0.4-1-1s0.4-1,1-1h2.7
	c0.6,0,1,0.4,1,1S74.1,115.6,73.5,115.6z M64.2,115.6h-2.7c-0.6,0-1-0.4-1-1s0.4-1,1-1h2.7c0.6,0,1,0.4,1,1S64.8,115.6,64.2,115.6z
	 M54.9,115.6h-2.7c-0.6,0-1-0.4-1-1s0.4-1,1-1h2.7c0.6,0,1,0.4,1,1S55.5,115.6,54.9,115.6z M45.6,115.6h-2.7c-0.6,0-1-0.4-1-1
	s0.4-1,1-1h2.7c0.6,0,1,0.4,1,1S46.1,115.6,45.6,115.6z M36.3,115.6h-2.7c-0.6,0-1-0.4-1-1s0.4-1,1-1h2.7c0.6,0,1,0.4,1,1
	S36.8,115.6,36.3,115.6z M27,115.6h-2.7c-0.6,0-1-0.4-1-1s0.4-1,1-1H27c0.6,0,1,0.4,1,1S27.5,115.6,27,115.6z M17.6,115.6H15
	c-0.6,0-1-0.4-1-1s0.4-1,1-1h2.7c0.6,0,1,0.4,1,1S18.2,115.6,17.6,115.6z M8.3,115.6H5.6c-0.6,0-1-0.4-1-1s0.4-1,1-1h2.7
	c0.6,0,1,0.4,1,1S8.9,115.6,8.3,115.6z M131.3,111.7c-0.6,0-1-0.4-1-1V108c0-0.6,0.4-1,1-1s1,0.4,1,1v2.7
	C132.3,111.2,131.9,111.7,131.3,111.7z M2.3,111.5c-0.6,0-1-0.4-1-1v-2.7c0-0.6,0.4-1,1-1s1,0.4,1,1v2.7
	C3.3,111,2.9,111.5,2.3,111.5z M131.3,102.4c-0.6,0-1-0.4-1-1v-2.7c0-0.6,0.4-1,1-1s1,0.4,1,1v2.7
	C132.3,101.9,131.9,102.4,131.3,102.4z M2.3,102.1c-0.6,0-1-0.4-1-1v-2.7c0-0.6,0.4-1,1-1s1,0.4,1,1v2.7
	C3.3,101.7,2.9,102.1,2.3,102.1z M131.3,93c-0.6,0-1-0.4-1-1v-2.7c0-0.6,0.4-1,1-1s1,0.4,1,1V92C132.3,92.6,131.9,93,131.3,93z
	 M2.3,92.8c-0.6,0-1-0.4-1-1v-2.7c0-0.6,0.4-1,1-1s1,0.4,1,1v2.7C3.3,92.4,2.9,92.8,2.3,92.8z M131.3,83.7c-0.6,0-1-0.4-1-1V80
	c0-0.6,0.4-1,1-1s1,0.4,1,1v2.7C132.3,83.3,131.9,83.7,131.3,83.7z M2.3,83.5c-0.6,0-1-0.4-1-1v-2.7c0-0.6,0.4-1,1-1s1,0.4,1,1v2.7
	C3.3,83.1,2.9,83.5,2.3,83.5z M131.3,74.4c-0.6,0-1-0.4-1-1v-2.7c0-0.6,0.4-1,1-1s1,0.4,1,1v2.7C132.3,74,131.9,74.4,131.3,74.4z
	 M2.3,74.2c-0.6,0-1-0.4-1-1v-2.7c0-0.6,0.4-1,1-1s1,0.4,1,1v2.7C3.3,73.7,2.9,74.2,2.3,74.2z M131.3,65.1c-0.6,0-1-0.4-1-1v-2.7
	c0-0.6,0.4-1,1-1s1,0.4,1,1v2.7C132.3,64.6,131.9,65.1,131.3,65.1z M2.3,64.9c-0.6,0-1-0.4-1-1v-2.7c0-0.6,0.4-1,1-1s1,0.4,1,1v2.7
	C3.3,64.4,2.9,64.9,2.3,64.9z M131.3,55.8c-0.6,0-1-0.4-1-1v-2.7c0-0.6,0.4-1,1-1s1,0.4,1,1v2.7C132.3,55.3,131.9,55.8,131.3,55.8z
	 M2.3,55.5c-0.6,0-1-0.4-1-1v-2.7c0-0.6,0.4-1,1-1s1,0.4,1,1v2.7C3.3,55.1,2.9,55.5,2.3,55.5z M131.3,46.5c-0.6,0-1-0.4-1-1v-2.7
	c0-0.6,0.4-1,1-1s1,0.4,1,1v2.7C132.3,46,131.9,46.5,131.3,46.5z M2.3,46.2c-0.6,0-1-0.4-1-1v-2.7c0-0.6,0.4-1,1-1s1,0.4,1,1v2.7
	C3.3,45.8,2.9,46.2,2.3,46.2z M131.3,37.1c-0.6,0-1-0.4-1-1v-2.7c0-0.6,0.4-1,1-1s1,0.4,1,1v2.7C132.3,36.7,131.9,37.1,131.3,37.1z
	 M2.3,36.9c-0.6,0-1-0.4-1-1v-2.7c0-0.6,0.4-1,1-1s1,0.4,1,1v2.7C3.3,36.5,2.9,36.9,2.3,36.9z M131.3,27.8c-0.6,0-1-0.4-1-1v-2.7
	c0-0.6,0.4-1,1-1s1,0.4,1,1v2.7C132.3,27.4,131.9,27.8,131.3,27.8z M2.3,27.6c-0.6,0-1-0.4-1-1v-2.7c0-0.6,0.4-1,1-1s1,0.4,1,1v2.7
	C3.3,27.1,2.9,27.6,2.3,27.6z M131.3,18.5c-0.6,0-1-0.4-1-1v-1.1c0-0.2-0.1-0.5-0.3-0.7c-0.4-0.4-0.4-1-0.1-1.4
	c0.4-0.4,1-0.4,1.4-0.1c0.6,0.5,1,1.3,1,2.2v1.1C132.3,18.1,131.9,18.5,131.3,18.5z M2.3,18.3c-0.6,0-1-0.4-1-1v-0.9
	c0-0.9,0.5-1.8,1.2-2.4c0.5-0.3,1.1-0.2,1.4,0.2c0.3,0.5,0.2,1.1-0.2,1.4c-0.2,0.2-0.4,0.4-0.4,0.7v0.9C3.3,17.8,2.9,18.3,2.3,18.3z
	 M124.2,15.5h-2.7c-0.6,0-1-0.4-1-1s0.4-1,1-1h2.7c0.6,0,1,0.4,1,1S124.7,15.5,124.2,15.5z M114.9,15.5h-2.7c-0.6,0-1-0.4-1-1
	s0.4-1,1-1h2.7c0.6,0,1,0.4,1,1S115.4,15.5,114.9,15.5z M105.5,15.5h-2.7c-0.6,0-1-0.4-1-1s0.4-1,1-1h2.7c0.6,0,1,0.4,1,1
	S106.1,15.5,105.5,15.5z M96.2,15.5h-2.7c-0.6,0-1-0.4-1-1s0.4-1,1-1h2.7c0.6,0,1,0.4,1,1S96.8,15.5,96.2,15.5z M86.9,15.5h-2.7
	c-0.6,0-1-0.4-1-1s0.4-1,1-1h2.7c0.6,0,1,0.4,1,1S87.5,15.5,86.9,15.5z M77.6,15.5h-2.7c-0.6,0-1-0.4-1-1s0.4-1,1-1h2.7
	c0.6,0,1,0.4,1,1S78.1,15.5,77.6,15.5z M68.3,15.5h-2.7c-0.6,0-1-0.4-1-1s0.4-1,1-1h2.7c0.6,0,1,0.4,1,1S68.8,15.5,68.3,15.5z
	 M59,15.5h-2.7c-0.6,0-1-0.4-1-1s0.4-1,1-1H59c0.6,0,1,0.4,1,1S59.5,15.5,59,15.5z M49.6,15.5H47c-0.6,0-1-0.4-1-1s0.4-1,1-1h2.7
	c0.6,0,1,0.4,1,1S50.2,15.5,49.6,15.5z M40.3,15.5h-2.7c-0.6,0-1-0.4-1-1s0.4-1,1-1h2.7c0.6,0,1,0.4,1,1S40.9,15.5,40.3,15.5z
	 M31,15.5h-2.7c-0.6,0-1-0.4-1-1s0.4-1,1-1H31c0.6,0,1,0.4,1,1S31.5,15.5,31,15.5z M21.7,15.5H19c-0.6,0-1-0.4-1-1s0.4-1,1-1h2.7
	c0.6,0,1,0.4,1,1S22.2,15.5,21.7,15.5z M12.4,15.5H9.7c-0.6,0-1-0.4-1-1s0.4-1,1-1h2.7c0.6,0,1,0.4,1,1S12.9,15.5,12.4,15.5z"/>
<path class="st2" d="M85.2,198.3H13.1c-1.6,0-2.8-1.3-2.8-2.8v-42.4c0-1.6,1.3-2.8,2.8-2.8h72.1c1.6,0,2.8,1.3,2.8,2.8v42.4
	C88.1,197.1,86.8,198.3,85.2,198.3"/>
<path class="st3" d="M85.2,199.3H13.1c-2.1,0-3.8-1.7-3.8-3.8v-42.4c0-2.1,1.7-3.8,3.8-3.8h72.1c2.1,0,3.8,1.7,3.8,3.8v42.4
	C89.1,197.6,87.3,199.3,85.2,199.3z M13.1,151.2c-1,0-1.8,0.8-1.8,1.8v42.4c0,1,0.8,1.8,1.8,1.8h72.1c1,0,1.8-0.8,1.8-1.8V153
	c0-1-0.8-1.8-1.8-1.8H13.1z"/>
<path class="st2" d="M80.6,193.7H8.5c-1.6,0-2.8-1.3-2.8-2.8v-42.4c0-1.6,1.3-2.8,2.8-2.8h72.1c1.6,0,2.8,1.3,2.8,2.8v42.4
	C83.5,192.4,82.2,193.7,80.6,193.7"/>
<path class="st3" d="M80.6,194.7H8.5c-2.1,0-3.8-1.7-3.8-3.8v-42.4c0-2.1,1.7-3.8,3.8-3.8h72.1c2.1,0,3.8,1.7,3.8,3.8v42.4
	C84.5,193,82.8,194.7,80.6,194.7z M8.5,146.6c-1,0-1.8,0.8-1.8,1.8v42.4c0,1,0.8,1.8,1.8,1.8h72.1c1,0,1.8-0.8,1.8-1.8v-42.4
	c0-1-0.8-1.8-1.8-1.8L8.5,146.6L8.5,146.6z"/>
<path class="st2" d="M75.9,189H3.8c-1.6,0-2.8-1.3-2.8-2.8v-42.4c0-1.6,1.3-2.8,2.8-2.8h72.1c1.6,0,2.8,1.3,2.8,2.8v42.4
	C78.8,187.8,77.5,189,75.9,189"/>
<path class="st3" d="M75.9,190H3.8c-2.1,0-3.8-1.7-3.8-3.8v-42.4c0-2.1,1.7-3.8,3.8-3.8h72.1c2.1,0,3.8,1.7,3.8,3.8v42.4
	C79.8,188.3,78,190,75.9,190z M3.8,141.9c-1,0-1.8,0.8-1.8,1.8v42.4c0,1,0.8,1.8,1.8,1.8h72.1c1,0,1.8-0.8,1.8-1.8v-42.4
	c0-1-0.8-1.8-1.8-1.8L3.8,141.9L3.8,141.9z"/>
<path class="st0" d="M432.7,170.1c0,0.6-0.4,1-1,1h-59v2.5l-6-3.5l6-3.5v2.5h59C432.2,169.1,432.7,169.6,432.7,170.1z"/>
<path class="st2" d="M395.2,170.1c0,4.2-3.4,7.7-7.7,7.7s-7.7-3.4-7.7-7.7c0-4.2,3.4-7.7,7.7-7.7S395.2,165.9,395.2,170.1"/>
<path class="st0" d="M387.5,178.8c-4.8,0-8.7-3.9-8.7-8.7s3.9-8.7,8.7-8.7s8.7,3.9,8.7,8.7S392.3,178.8,387.5,178.8z M387.5,163.5
	c-3.7,0-6.7,3-6.7,6.7s3,6.7,6.7,6.7s6.7-3,6.7-6.7S391.2,163.5,387.5,163.5z"/>
<path class="st2" d="M407.9,170.1c0,4.2-3.4,7.7-7.7,7.7c-4.2,0-7.7-3.4-7.7-7.7c0-4.2,3.4-7.7,7.7-7.7
	C404.5,162.5,407.9,165.9,407.9,170.1"/>
<path class="st0" d="M400.2,178.8c-4.8,0-8.7-3.9-8.7-8.7s3.9-8.7,8.7-8.7s8.7,3.9,8.7,8.7S405,178.8,400.2,178.8z M400.2,163.5
	c-3.7,0-6.7,3-6.7,6.7s3,6.7,6.7,6.7s6.7-3,6.7-6.7S403.9,163.5,400.2,163.5z"/>
<path class="st0" d="M397.7,169.8L397.7,169.8l2.6-4.3l2.6,4.3l-2.6,1.9L397.7,169.8z M400.2,174.8l2.6-4l-2.6,1.7l-2.6-1.7
	L400.2,174.8z"/>
<path class="st2" d="M421.2,170.1c0,4.2-3.4,7.7-7.7,7.7s-7.7-3.4-7.7-7.7c0-4.2,3.4-7.7,7.7-7.7S421.2,165.9,421.2,170.1"/>
<path class="st0" d="M413.6,178.8c-4.8,0-8.7-3.9-8.7-8.7s3.9-8.7,8.7-8.7s8.7,3.9,8.7,8.7S418.3,178.8,413.6,178.8z M413.6,163.5
	c-3.7,0-6.7,3-6.7,6.7s3,6.7,6.7,6.7s6.7-3,6.7-6.7S417.2,163.5,413.6,163.5z"/>
<path class="st0" d="M415.3,169.8c0.4-0.2,0.7-0.6,0.6-1.2c-0.1-0.9-0.8-1.1-1.8-1.2v-1.2h-0.7v1.2c-0.2,0-0.4,0-0.6,0v-1.2h-0.7
	v1.2c-0.2,0-0.3,0-0.5,0l0,0h-1v0.8h0.5c0.3,0,0.4,0.2,0.4,0.3v1.4c0,0,0,0,0.1,0h-0.1v1.9c0,0.1-0.1,0.2-0.3,0.2h-0.5l-0.1,0.9h0.9
	c0.2,0,0.3,0,0.5,0v1.2h0.7v-1.2c0.2,0,0.4,0,0.6,0v1.2h0.7v-1.2c1.2-0.1,2.1-0.4,2.2-1.5C416.5,170.4,416,170,415.3,169.8
	 M412.9,168.2c0.4,0,1.7-0.1,1.7,0.7s-1.3,0.7-1.7,0.7V168.2z M412.9,172v-1.6c0.5,0,2-0.1,2,0.8C415,172.1,413.4,172,412.9,172"/>
<path class="st2" d="M357.8,206.1H157.4c-1.6,0-2.8-1.3-2.8-2.8v-99.5c0-1.6,1.3-2.8,2.8-2.8h200.4c1.6,0,2.8,1.3,2.8,2.8v99.5
	C360.6,204.9,359.3,206.1,357.8,206.1"/>
<path class="st4" d="M357.8,207.1H157.4c-2.1,0-3.8-1.7-3.8-3.8v-99.5c0-2.1,1.7-3.8,3.8-3.8h200.4c2.1,0,3.8,1.7,3.8,3.8v99.5
	C361.6,205.4,359.9,207.1,357.8,207.1z M157.4,102c-1,0-1.8,0.8-1.8,1.8v99.5c0,1,0.8,1.8,1.8,1.8h200.4c1,0,1.8-0.8,1.8-1.8v-99.5
	c0-1-0.8-1.8-1.8-1.8H157.4z"/>
<path class="st2" d="M353.2,201.5H152.8c-1.6,0-2.8-1.3-2.8-2.8V99.1c0-1.6,1.3-2.8,2.8-2.8h200.4c1.6,0,2.8,1.3,2.8,2.8v99.5
	C356,200.2,354.7,201.5,353.2,201.5"/>
<path class="st4" d="M353.2,202.5H152.8c-2.1,0-3.8-1.7-3.8-3.8V99.1c0-2.1,1.7-3.8,3.8-3.8h200.4c2.1,0,3.8,1.7,3.8,3.8v99.5
	C357,200.8,355.3,202.5,353.2,202.5z M152.8,97.3c-1,0-1.8,0.8-1.8,1.8v99.5c0,1,0.8,1.8,1.8,1.8h200.4c1,0,1.8-0.8,1.8-1.8V99.1
	c0-1-0.8-1.8-1.8-1.8L152.8,97.3z"/>
<path class="st2" d="M513.2,198.3h-72.1c-1.6,0-2.8-1.3-2.8-2.8v-42.4c0-1.6,1.3-2.8,2.8-2.8h72.1c1.6,0,2.8,1.3,2.8,2.8v42.4
	C516,197.1,514.8,198.3,513.2,198.3"/>
<path class="st3" d="M513.2,199.3h-72.1c-2.1,0-3.8-1.7-3.8-3.8v-42.4c0-2.1,1.7-3.8,3.8-3.8h72.1c2.1,0,3.8,1.7,3.8,3.8v42.4
	C517,197.6,515.3,199.3,513.2,199.3z M441.1,151.2c-1,0-1.8,0.8-1.8,1.8v42.4c0,1,0.8,1.8,1.8,1.8h72.1c1,0,1.8-0.8,1.8-1.8V153
	c0-1-0.8-1.8-1.8-1.8H441.1z"/>
<path class="st2" d="M508.6,193.7h-72.1c-1.6,0-2.8-1.3-2.8-2.8v-42.4c0-1.6,1.3-2.8,2.8-2.8h72.1c1.6,0,2.8,1.3,2.8,2.8v42.4
	C511.4,192.4,510.2,193.7,508.6,193.7"/>
<path class="st3" d="M508.6,194.7h-72.1c-2.1,0-3.8-1.7-3.8-3.8v-42.4c0-2.1,1.7-3.8,3.8-3.8h72.1c2.1,0,3.8,1.7,3.8,3.8v42.4
	C512.4,193,510.7,194.7,508.6,194.7z M436.5,146.6c-1,0-1.8,0.8-1.8,1.8v42.4c0,1,0.8,1.8,1.8,1.8h72.1c1,0,1.8-0.8,1.8-1.8v-42.4
	c0-1-0.8-1.8-1.8-1.8L436.5,146.6L436.5,146.6z"/>
<path class="st2" d="M503.9,189h-72.1c-1.6,0-2.8-1.3-2.8-2.8v-42.4c0-1.6,1.3-2.8,2.8-2.8h72.1c1.6,0,2.8,1.3,2.8,2.8v42.4
	C506.7,187.8,505.4,189,503.9,189"/>
<path class="st3" d="M503.9,190h-72.1c-2.1,0-3.8-1.7-3.8-3.8v-42.4c0-2.1,1.7-3.8,3.8-3.8h72.1c2.1,0,3.8,1.7,3.8,3.8v42.4
	C507.7,188.3,506,190,503.9,190z M431.8,141.9c-1,0-1.8,0.8-1.8,1.8v42.4c0,1,0.8,1.8,1.8,1.8h72.1c1,0,1.8-0.8,1.8-1.8v-42.4
	c0-1-0.8-1.8-1.8-1.8L431.8,141.9L431.8,141.9z"/>
<path class="st4" d="M348.5,196.8H148.1c-1.6,0-2.8-1.3-2.8-2.8V94.5c0-1.6,1.3-2.8,2.8-2.8h200.4c1.6,0,2.8,1.3,2.8,2.8V194
	C351.3,195.5,350,196.8,348.5,196.8"/>
<path class="st4" d="M348.5,197.8H148.1c-2.1,0-3.8-1.7-3.8-3.8V94.5c0-2.1,1.7-3.8,3.8-3.8h200.4c2.1,0,3.8,1.7,3.8,3.8V194
	C352.3,196.1,350.6,197.8,348.5,197.8z M148.1,92.6c-1,0-1.8,0.8-1.8,1.8V194c0,1,0.8,1.8,1.8,1.8h200.4c1,0,1.8-0.8,1.8-1.8V94.5
	c0-1-0.8-1.8-1.8-1.8L148.1,92.6L148.1,92.6z"/>
<path class="st2" d="M514.1,114.6H376.9c-1,0-1.9-0.8-1.9-1.9V16.4c0-1,0.8-1.9,1.9-1.9h137.3c1,0,1.9,0.8,1.9,1.9v96.3
	C516,113.7,515.2,114.6,514.1,114.6"/>
<path class="st0" d="M514.1,115.6h-2.7c-0.6,0-1-0.4-1-1s0.4-1,1-1h2.7c0.1,0,0.2,0,0.3,0c0.1-0.1,0.1-0.1,0.2-0.2
	c0.3-0.2,0.4-0.5,0.4-0.8V112c0-0.6,0.4-1,1-1s1,0.4,1,1v0.7c0,1-0.5,1.9-1.4,2.5c-0.2,0.1-0.5,0.2-0.8,0.1
	C514.7,115.5,514.4,115.6,514.1,115.6z M504.8,115.6h-2.7c-0.6,0-1-0.4-1-1s0.4-1,1-1h2.7c0.6,0,1,0.4,1,1S505.4,115.6,504.8,115.6z
	 M495.5,115.6h-2.7c-0.6,0-1-0.4-1-1s0.4-1,1-1h2.7c0.6,0,1,0.4,1,1S496.1,115.6,495.5,115.6z M486.2,115.6h-2.7c-0.6,0-1-0.4-1-1
	s0.4-1,1-1h2.7c0.6,0,1,0.4,1,1S486.7,115.6,486.2,115.6z M476.9,115.6h-2.7c-0.6,0-1-0.4-1-1s0.4-1,1-1h2.7c0.6,0,1,0.4,1,1
	S477.4,115.6,476.9,115.6z M467.6,115.6h-2.7c-0.6,0-1-0.4-1-1s0.4-1,1-1h2.7c0.6,0,1,0.4,1,1S468.1,115.6,467.6,115.6z
	 M458.2,115.6h-2.7c-0.6,0-1-0.4-1-1s0.4-1,1-1h2.7c0.6,0,1,0.4,1,1S458.8,115.6,458.2,115.6z M448.9,115.6h-2.7c-0.6,0-1-0.4-1-1
	s0.4-1,1-1h2.7c0.6,0,1,0.4,1,1S449.5,115.6,448.9,115.6z M439.6,115.6h-2.7c-0.6,0-1-0.4-1-1s0.4-1,1-1h2.7c0.6,0,1,0.4,1,1
	S440.2,115.6,439.6,115.6z M430.3,115.6h-2.7c-0.6,0-1-0.4-1-1s0.4-1,1-1h2.7c0.6,0,1,0.4,1,1S430.8,115.6,430.3,115.6z M421,115.6
	h-2.7c-0.6,0-1-0.4-1-1s0.4-1,1-1h2.7c0.6,0,1,0.4,1,1S421.5,115.6,421,115.6z M411.6,115.6H409c-0.6,0-1-0.4-1-1s0.4-1,1-1h2.7
	c0.6,0,1,0.4,1,1S412.2,115.6,411.6,115.6z M402.3,115.6h-2.7c-0.6,0-1-0.4-1-1s0.4-1,1-1h2.7c0.6,0,1,0.4,1,1
	S402.9,115.6,402.3,115.6z M393,115.6h-2.7c-0.6,0-1-0.4-1-1s0.4-1,1-1h2.7c0.6,0,1,0.4,1,1S393.6,115.6,393,115.6z M383.7,115.6
	H381c-0.6,0-1-0.4-1-1s0.4-1,1-1h2.7c0.6,0,1,0.4,1,1S384.2,115.6,383.7,115.6z M375,114.1c-0.4,0-0.9-0.3-1-0.8
	c-0.1-0.2-0.1-0.5-0.1-0.7v-2.2c0-0.6,0.4-1,1-1s1,0.4,1,1v2.2c0,0.1,0,0.1,0,0.2c0.1,0.5-0.2,1.1-0.7,1.2
	C375.2,114.1,375.1,114.1,375,114.1z M516,106.3c-0.6,0-1-0.4-1-1v-2.7c0-0.6,0.4-1,1-1s1,0.4,1,1v2.7
	C517,105.9,516.6,106.3,516,106.3z M375,104.8c-0.6,0-1-0.4-1-1v-2.7c0-0.6,0.4-1,1-1s1,0.4,1,1v2.7
	C376,104.4,375.5,104.8,375,104.8z M516,97c-0.6,0-1-0.4-1-1v-2.7c0-0.6,0.4-1,1-1s1,0.4,1,1V96C517,96.5,516.6,97,516,97z
	 M375,95.5c-0.6,0-1-0.4-1-1v-2.7c0-0.6,0.4-1,1-1s1,0.4,1,1v2.7C376,95.1,375.5,95.5,375,95.5z M516,87.7c-0.6,0-1-0.4-1-1V84
	c0-0.6,0.4-1,1-1s1,0.4,1,1v2.7C517,87.2,516.6,87.7,516,87.7z M375,86.2c-0.6,0-1-0.4-1-1v-2.7c0-0.6,0.4-1,1-1s1,0.4,1,1v2.7
	C376,85.7,375.5,86.2,375,86.2z M516,78.3c-0.6,0-1-0.4-1-1v-2.7c0-0.6,0.4-1,1-1s1,0.4,1,1v2.7C517,77.9,516.6,78.3,516,78.3z
	 M375,76.9c-0.6,0-1-0.4-1-1v-2.7c0-0.6,0.4-1,1-1s1,0.4,1,1v2.7C376,76.4,375.5,76.9,375,76.9z M516,69c-0.6,0-1-0.4-1-1v-2.7
	c0-0.6,0.4-1,1-1s1,0.4,1,1V68C517,68.6,516.6,69,516,69z M375,67.6c-0.6,0-1-0.4-1-1v-2.7c0-0.6,0.4-1,1-1s1,0.4,1,1v2.7
	C376,67.1,375.5,67.6,375,67.6z M516,59.7c-0.6,0-1-0.4-1-1V56c0-0.6,0.4-1,1-1s1,0.4,1,1v2.7C517,59.3,516.6,59.7,516,59.7z
	 M375,58.2c-0.6,0-1-0.4-1-1v-2.7c0-0.6,0.4-1,1-1s1,0.4,1,1v2.7C376,57.8,375.5,58.2,375,58.2z M516,50.4c-0.6,0-1-0.4-1-1v-2.7
	c0-0.6,0.4-1,1-1s1,0.4,1,1v2.7C517,49.9,516.6,50.4,516,50.4z M375,48.9c-0.6,0-1-0.4-1-1v-2.7c0-0.6,0.4-1,1-1s1,0.4,1,1v2.7
	C376,48.5,375.5,48.9,375,48.9z M516,41.1c-0.6,0-1-0.4-1-1v-2.7c0-0.6,0.4-1,1-1s1,0.4,1,1v2.7C517,40.6,516.6,41.1,516,41.1z
	 M375,39.6c-0.6,0-1-0.4-1-1v-2.7c0-0.6,0.4-1,1-1s1,0.4,1,1v2.7C376,39.2,375.5,39.6,375,39.6z M516,31.8c-0.6,0-1-0.4-1-1v-2.7
	c0-0.6,0.4-1,1-1s1,0.4,1,1v2.7C517,31.3,516.6,31.8,516,31.8z M375,30.3c-0.6,0-1-0.4-1-1v-2.7c0-0.6,0.4-1,1-1s1,0.4,1,1v2.7
	C376,29.8,375.5,30.3,375,30.3z M516,22.4c-0.6,0-1-0.4-1-1v-2.7c0-0.6,0.4-1,1-1s1,0.4,1,1v2.7C517,22,516.6,22.4,516,22.4z
	 M375,21c-0.6,0-1-0.4-1-1v-2.7c0-0.6,0.4-1,1-1s1,0.4,1,1V20C376,20.5,375.5,21,375,21z M512.8,15.5h-2.7c-0.6,0-1-0.4-1-1
	s0.4-1,1-1h2.7c0.6,0,1,0.4,1,1S513.4,15.5,512.8,15.5z M503.5,15.5h-2.7c-0.6,0-1-0.4-1-1s0.4-1,1-1h2.7c0.6,0,1,0.4,1,1
	S504,15.5,503.5,15.5z M494.2,15.5h-2.7c-0.6,0-1-0.4-1-1s0.4-1,1-1h2.7c0.6,0,1,0.4,1,1S494.7,15.5,494.2,15.5z M484.8,15.5h-2.7
	c-0.6,0-1-0.4-1-1s0.4-1,1-1h2.7c0.6,0,1,0.4,1,1S485.4,15.5,484.8,15.5z M475.5,15.5h-2.7c-0.6,0-1-0.4-1-1s0.4-1,1-1h2.7
	c0.6,0,1,0.4,1,1S476.1,15.5,475.5,15.5z M466.2,15.5h-2.7c-0.6,0-1-0.4-1-1s0.4-1,1-1h2.7c0.6,0,1,0.4,1,1S466.8,15.5,466.2,15.5z
	 M456.9,15.5h-2.7c-0.6,0-1-0.4-1-1s0.4-1,1-1h2.7c0.6,0,1,0.4,1,1S457.4,15.5,456.9,15.5z M447.6,15.5h-2.7c-0.6,0-1-0.4-1-1
	s0.4-1,1-1h2.7c0.6,0,1,0.4,1,1S448.1,15.5,447.6,15.5z M438.3,15.5h-2.7c-0.6,0-1-0.4-1-1s0.4-1,1-1h2.7c0.6,0,1,0.4,1,1
	S438.8,15.5,438.3,15.5z M428.9,15.5h-2.7c-0.6,0-1-0.4-1-1s0.4-1,1-1h2.7c0.6,0,1,0.4,1,1S429.5,15.5,428.9,15.5z M419.6,15.5H417
	c-0.6,0-1-0.4-1-1s0.4-1,1-1h2.7c0.6,0,1,0.4,1,1S420.2,15.5,419.6,15.5z M410.3,15.5h-2.7c-0.6,0-1-0.4-1-1s0.4-1,1-1h2.7
	c0.6,0,1,0.4,1,1S410.9,15.5,410.3,15.5z M401,15.5h-2.7c-0.6,0-1-0.4-1-1s0.4-1,1-1h2.7c0.6,0,1,0.4,1,1S401.5,15.5,401,15.5z
	 M391.7,15.5H389c-0.6,0-1-0.4-1-1s0.4-1,1-1h2.7c0.6,0,1,0.4,1,1S392.2,15.5,391.7,15.5z M382.4,15.5h-2.7c-0.6,0-1-0.4-1-1
	s0.4-1,1-1h2.7c0.6,0,1,0.4,1,1S382.9,15.5,382.4,15.5z"/>
<path class="st4" d="M263.3,73.4l-3.5,6l-3.5-6h2.5V5.9h-2V0h5.9v5.9h-2v67.4L263.3,73.4L263.3,73.4z"/>
<path class="st5" d="M257.7,187.6"/>
<path class="st3" d="M24.3,156c0,0-0.1,0.1-0.1,0.1c-0.7,3.4-2.5,5.4-5.4,6.5c-0.1-0.2-0.3-0.4-0.4-0.5c2.8-0.9,4.5-2.9,5-5.6h-5.9
	v-0.6h6.1l0.1-0.1L24.3,156z"/>
<path class="st3" d="M31.7,157.1C31.7,157.1,31.7,157.2,31.7,157.1c-0.5,0.9-1.3,1.9-1.9,2.5c-0.1-0.1-0.3-0.2-0.4-0.3
	c0.6-0.5,1.3-1.3,1.5-1.9h-5.2v-0.5h5.5l0.1,0L31.7,157.1z M28.8,158.4c0,0.1-0.1,0.1-0.2,0.1c-0.2,1.6-0.8,3.1-2.3,4.1
	c-0.1-0.1-0.3-0.3-0.5-0.3c1.5-0.9,2-2.2,2.2-4L28.8,158.4z"/>
<path class="st3" d="M33,155.6c0.9,0.3,2,0.8,2.7,1.2l-0.3,0.6c-0.6-0.5-1.7-0.9-2.6-1.3L33,155.6z M33,161.8c3.2-1,5.3-2.8,6.4-5.3
	c0.2,0.2,0.4,0.3,0.6,0.4c-1.1,2.5-3.3,4.4-6.4,5.4c0,0.1-0.1,0.2-0.1,0.2L33,161.8z"/>
<path class="st3" d="M46.4,159.7c-0.9-0.5-2.2-1.1-3.2-1.5v4.5h-0.7v-7.8l0.9,0.1c0,0.1-0.1,0.2-0.2,0.2v2.6l0.1-0.2
	c1.1,0.4,2.4,1,3.4,1.5L46.4,159.7z M45.5,155.4c0.4,0.3,1,0.9,1.2,1.3l-0.3,0.3c-0.3-0.4-0.8-1-1.2-1.3L45.5,155.4z M46.7,154.6
	c0.4,0.4,1,0.9,1.2,1.3l-0.3,0.3c-0.3-0.4-0.8-1-1.2-1.3L46.7,154.6z"/>
<path class="st3" d="M54.8,157.8C54.8,157.8,54.8,157.8,54.8,157.8c-0.1,0-0.2,0-0.3,0c-2.7,0.8-5.1,2-5.1,3.2c0,0.9,1,1.2,2.4,1.2
	c1.4,0,2.6-0.1,3.2-0.2l0.1,0.7c-0.8,0.1-2.2,0.2-3.2,0.2c-1.8,0-3.1-0.4-3.1-1.7c0-1,1-1.8,2.4-2.5c-0.3-0.5-0.4-1.6-0.4-3.6l1,0.1
	c0,0.1-0.1,0.2-0.3,0.2c0,1.6,0,2.6,0.3,3c0.8-0.4,1.8-0.8,2.8-1.1L54.8,157.8z"/>
<path class="st3" d="M61.5,159.7c-0.9-0.5-2.2-1.1-3.2-1.5v4.5h-0.7v-7.8l0.9,0.1c0,0.1-0.1,0.2-0.2,0.2v2.6l0.1-0.2
	c1.1,0.4,2.4,1,3.4,1.5L61.5,159.7z"/>
<path class="st3" d="M24.7,172.5c2.3-0.6,4.1-1.7,5.2-3.7c0.1,0.2,0.3,0.3,0.5,0.5c-1.2,2.1-3.2,3.3-5.9,4c0,0.1-0.1,0.2-0.1,0.2
	l-0.4-0.6l0.1-0.2V166l0.9,0c0,0.1-0.1,0.2-0.3,0.2V172.5z"/>
<path class="st3" d="M31.6,169.1h7.5v0.6H32c-0.1,0.1-0.2,0.2-0.3,0.2L31.6,169.1z"/>
<path class="st3" d="M46.8,167.2c0,0.1-0.1,0.1-0.1,0.1c-0.3,1.1-0.8,2.1-1.3,3c0.4,0.2,0.9,0.5,1.2,0.7l-0.4,0.6
	c-0.3-0.3-0.8-0.5-1.2-0.8c-0.8,1.1-1.9,2.1-3.2,2.7c-0.1-0.2-0.3-0.4-0.5-0.5c1.3-0.6,2.3-1.5,3.2-2.5c-0.7-0.4-1.4-0.7-2-0.9
	l0.4-0.5c0.7,0.2,1.4,0.6,2,0.9c0.5-0.7,0.8-1.6,1.1-2.4h-3c-0.6,1-1.3,1.9-2,2.5c-0.1-0.1-0.4-0.3-0.5-0.4c1.2-0.9,2.2-2.5,2.7-4
	l0.8,0.2c0,0.1-0.1,0.1-0.3,0.1c-0.1,0.3-0.3,0.7-0.5,1h2.9l0.1,0L46.8,167.2z M46,165.4c0.4,0.3,0.9,0.9,1.2,1.3l-0.3,0.3
	c-0.3-0.4-0.8-0.9-1.2-1.3L46,165.4z M47.2,165.1c0.4,0.3,1,0.9,1.2,1.2l-0.4,0.3c-0.2-0.4-0.8-0.9-1.2-1.2L47.2,165.1z"/>
<path class="st3" d="M48.9,169.1h7.5v0.6h-7.2c-0.1,0.1-0.2,0.2-0.3,0.2L48.9,169.1z"/>
<path class="st0" d="M12.8,32.4c0,0.2,0,0.4-0.1,0.6c0.3,0.3,1.1,1.2,1.3,1.4l-0.4,0.4c-0.2-0.3-0.7-0.9-1-1.3
	c-0.2,0.8-0.6,1.6-1.3,2.2c-0.1-0.1-0.2-0.3-0.4-0.4c1-0.7,1.3-1.9,1.3-2.9h-1.3V32h1.4c0-0.2,0-0.4,0-0.6v-0.9h-1.2V30h1.2v-1.4
	l0.6,0c0,0,0,0.1-0.1,0.1V30H14v0.5h-1.1v0.9c0,0.2,0,0.4,0,0.6h1.3v0.5H12.8z M15.6,33.7c0,0-0.1,0.1-0.1,0.1
	c-0.2,0.9-0.6,1.7-1.9,2.2c-0.1-0.1-0.2-0.3-0.3-0.4c1.2-0.4,1.6-1,1.7-1.9L15.6,33.7z M16.8,35.1c0,0.2,0,0.2,0.2,0.2h0.6
	c0.2,0,0.2-0.1,0.2-1.1c0.1,0.1,0.3,0.2,0.4,0.2c0,1.1-0.2,1.3-0.6,1.3h-0.7c-0.5,0-0.6-0.1-0.6-0.7v-1.8h-1.9V29h3.4v4.4h-1V35.1z
	 M14.9,29.5v0.8h2.4v-0.8H14.9z M14.9,30.7v0.8h2.4v-0.8H14.9z M14.9,32v0.9h2.4V32H14.9z"/>
<path class="st0" d="M21.3,30.3v1h1.9v0.5h-1.9v0.8h1.6v2.2c0,0.5-0.2,0.5-1.2,0.5c0-0.1-0.1-0.3-0.1-0.4c0.2,0,0.3,0,0.4,0
	c0.3,0,0.4,0,0.4-0.1V33h-1.1v2.9h-0.5V33h-1.1v2.3h-0.5v-2.7h1.5v-0.8h-2v-0.5h2v-1h-1c-0.1,0.4-0.2,0.7-0.3,0.9
	c-0.1-0.1-0.3-0.2-0.4-0.2c0.3-0.5,0.5-1.4,0.6-2.2l0.6,0.2c0,0.1-0.1,0.1-0.2,0.1c0,0.2-0.1,0.5-0.1,0.7h0.9v-1.2l0.7,0
	c0,0.1,0,0.1-0.2,0.1v1h1.6v0.5H21.3z M24.2,29.7c0,0.1,0,0.1-0.1,0.1V34h-0.5v-4.4L24.2,29.7z M25.2,28.8l0.7,0
	c0,0.1,0,0.1-0.1,0.1v6.3c0,0.7-0.4,0.7-1.6,0.7c0-0.1-0.1-0.4-0.2-0.5c0.3,0,0.6,0,0.8,0c0.4,0,0.5,0,0.5-0.2V28.8z"/>
<path class="st0" d="M30.2,35h3.6v0.5h-7.1V35h3v-6.2l0.7,0c0,0.1-0.1,0.1-0.2,0.1v2.3h3v0.5h-3V35z"/>
<path class="st0" d="M38.5,30.1c0,0.1-0.1,0.1-0.2,0.1c-0.3,2.4-1.1,4.6-2.4,4.6c-0.7,0-1.3-0.7-1.3-1.9c0-1.9,1.5-3.5,3.5-3.5
	c2.3,0,3.2,1.4,3.2,3c0,1.9-1.1,2.8-3,3.2c-0.1-0.1-0.2-0.3-0.3-0.5c1.8-0.3,2.7-1.2,2.7-2.7c0-1.3-0.8-2.5-2.7-2.5
	c-0.1,0-0.2,0-0.2,0L38.5,30.1z M37.8,30c-1.6,0.2-2.6,1.5-2.6,2.9c0,0.8,0.4,1.4,0.7,1.4C36.9,34.2,37.6,32.1,37.8,30z"/>
<path class="st0" d="M45.5,31.8h-2.3v4.2h-0.5V29h2.8V31.8z M45,29.4h-1.8v0.7H45V29.4z M43.2,31.3H45v-0.8h-1.8V31.3z M47.3,34.8
	h-2.5v0.5h-0.5v-2.8h3V34.8z M46.8,33h-2v1.4h2V33z M49.1,29v6.2c0,0.4-0.1,0.5-0.3,0.6c-0.3,0.1-0.7,0.1-1.4,0.1
	c0-0.1-0.1-0.4-0.2-0.5c0.3,0,0.5,0,0.8,0c0.6,0,0.7,0,0.7-0.2v-3.4h-2.4V29H49.1z M48.6,29.4h-1.9v0.7h1.9V29.4z M46.7,31.3h1.9
	v-0.8h-1.9V31.3z"/>
<path class="st0" d="M52.2,33.8v1.1c0.7,0.3,1.5,0.4,2.5,0.4c0.3,0,2.2,0,2.7,0c-0.1,0.1-0.2,0.3-0.2,0.5h-2.5c-1.8,0-3-0.2-3.7-1.3
	c-0.1,0.6-0.3,1.1-0.6,1.5c-0.1-0.1-0.2-0.2-0.3-0.3c0.5-0.6,0.6-1.7,0.7-2.7l0.6,0.1c0,0.1-0.1,0.1-0.1,0.1c0,0.2,0,0.5-0.1,0.7
	c0.2,0.3,0.4,0.6,0.6,0.8v-2.2h-1.6v-0.4h3.6v0.4h-1.5v0.9h1.4v0.4H52.2z M53.2,29v2.5h-2.6V29H53.2z M52.7,30v-0.6h-1.6V30H52.7z
	 M52.7,31.1v-0.6h-1.6v0.6H52.7z M55.1,33.9C55.1,34,55,34,55,34c-0.3,0.4-0.9,0.8-1.4,1c-0.1-0.1-0.2-0.2-0.3-0.3
	c0.5-0.2,1-0.6,1.3-1L55.1,33.9z M54,30.2h0.9c0.1-0.2,0.2-0.5,0.2-0.7h-1.5v-0.4h3.7v0.4h-1.7c-0.1,0.2-0.1,0.5-0.2,0.7h1.5v3.5H54
	V30.2z M56.4,31.2v-0.6h-1.9v0.6H56.4z M56.4,32.2v-0.6h-1.9v0.6H56.4z M56.4,33.2v-0.6h-1.9v0.6H56.4z M56.9,35
	c-0.3-0.3-0.8-0.7-1.2-1l0.4-0.2c0.5,0.3,1,0.7,1.3,1L56.9,35z"/>
<path class="st0" d="M18.3,42.3c0,0-0.1,0.1-0.1,0.1c-0.4,1-0.9,1.9-1.6,2.7c0.9,0.7,2.1,1.8,2.9,2.7l-0.5,0.4
	c-0.7-0.8-1.9-2-2.7-2.6c-0.7,0.8-1.9,2-3,2.6c-0.1-0.1-0.3-0.3-0.4-0.4c2.2-1.2,3.9-3.4,4.6-5.1h-3.8v-0.5h4.1l0.1,0L18.3,42.3z"/>
<path class="st0" d="M27.2,42.8c0,0-0.1,0.1-0.1,0.1c-0.7,1.1-2,2.3-3.2,3.1c0.6,0.5,1.2,1.1,1.6,1.5L25.1,48c-0.8-1-2.4-2.3-3.7-3
	l0.4-0.4c0.6,0.3,1.2,0.7,1.7,1.2c1.1-0.8,2.1-1.8,2.7-2.7h-5.7v-0.5h6.2l0.1,0L27.2,42.8z"/>
<path class="st0" d="M28.3,44.5h6.5v0.6h-6.2c0,0.1-0.1,0.1-0.3,0.1L28.3,44.5z"/>
<path class="st0" d="M40.5,45.7c-0.8-0.4-1.9-0.9-2.7-1.3v3.9h-0.6v-6.8l0.8,0c0,0.1-0.1,0.1-0.2,0.2V44l0.1-0.2
	c0.9,0.3,2.1,0.9,2.9,1.3L40.5,45.7z"/>
<path class="st0" d="M47.9,42.6v5.3h-0.6v-0.4h-4.9V47h4.9v-3.8h-4.9v-0.5H47.9z"/>
<path class="st0" d="M49.8,42.2c0.8,0.3,1.8,0.7,2.3,1.1l-0.3,0.5c-0.6-0.4-1.5-0.8-2.3-1.1L49.8,42.2z M49.8,47.6
	c2.8-0.9,4.6-2.4,5.6-4.6c0.2,0.1,0.3,0.2,0.5,0.3c-1,2.1-2.9,3.8-5.5,4.7c0,0.1-0.1,0.1-0.1,0.2L49.8,47.6z"/>
<path class="st0" d="M61.3,45.7c-0.8-0.4-1.9-0.9-2.7-1.3v3.9H58v-6.8l0.8,0c0,0.1-0.1,0.1-0.2,0.2V44l0.1-0.2
	c0.9,0.3,2.1,0.9,2.9,1.3L61.3,45.7z"/>
<path class="st0" d="M68.9,44.1c0,0-0.1,0.1-0.1,0.1c-0.6,2.4-1.9,3.5-4.3,4.2c-0.1-0.1-0.2-0.3-0.3-0.5c2.1-0.5,3.5-1.6,3.9-3.4H63
	v-0.5h5.4l0.1,0L68.9,44.1z M68.2,42.4h-4.5v-0.5h4.5V42.4z"/>
<path class="st0" d="M75.6,43c0,0-0.1,0.1-0.1,0.1c-0.8,2.5-2.1,4.2-4.3,5.3c-0.1-0.1-0.2-0.3-0.4-0.4c2.1-1,3.3-2.6,4-4.6H72
	c-0.5,0.7-1.1,1.4-1.8,1.9c-0.1-0.1-0.3-0.3-0.4-0.4c1.1-0.8,2-2,2.5-3.4l0.7,0.2c0,0.1-0.1,0.1-0.2,0.1c-0.2,0.3-0.3,0.7-0.5,1h2.8
	l0.1,0L75.6,43z"/>
<path class="st0" d="M81.2,45.7c-0.8-0.4-1.9-0.9-2.7-1.3v3.9h-0.6v-6.8l0.8,0c0,0.1-0.1,0.1-0.2,0.2V44l0.1-0.2
	c0.9,0.3,2.1,0.9,2.9,1.3L81.2,45.7z"/>
<path class="st0" d="M86.7,42.7c0,0.1-0.1,0.1-0.2,0.1c-0.3,2.4-1.1,4.6-2.4,4.6c-0.7,0-1.3-0.7-1.3-1.9c0-1.9,1.5-3.5,3.5-3.5
	c2.3,0,3.2,1.4,3.2,3c0,1.9-1.1,2.8-3,3.2c-0.1-0.1-0.2-0.3-0.3-0.5c1.8-0.3,2.7-1.2,2.7-2.7c0-1.3-0.8-2.5-2.7-2.5
	c-0.1,0-0.2,0-0.2,0L86.7,42.7z M86,42.6c-1.6,0.2-2.6,1.5-2.6,2.9c0,0.8,0.4,1.4,0.7,1.4C85.1,46.9,85.8,44.8,86,42.6z"/>
<path class="st0" d="M97.5,42.4h-2.4c0,0.1-0.1,0.1-0.2,0.1c-0.2,0.3-0.4,0.7-0.6,1l0.2,0.1c0,0-0.1,0.1-0.2,0.1v5h-0.5v-4.5
	c-0.8,1-1.8,1.9-3,2.6c-0.1-0.1-0.2-0.3-0.4-0.4c1.6-0.9,3-2.4,3.8-3.9h-3.6v-0.5h6.8V42.4z M97.3,46.6c-0.6-0.6-1.8-1.4-2.7-2
	l0.4-0.4c0.9,0.5,2.1,1.4,2.7,1.9L97.3,46.6z"/>
<path class="st0" d="M101.7,41.5c0,0.1-0.1,0.1-0.2,0.1c-0.1,0.3-0.2,0.7-0.3,1h4.1v0.5H101c-0.3,0.6-0.6,1.1-0.9,1.6l0.1,0
	c0,0.1-0.1,0.1-0.2,0.1v3.8h-0.5v-3.2c-0.3,0.3-0.6,0.6-0.9,0.8c-0.1-0.1-0.2-0.4-0.3-0.5c0.5-0.3,0.9-0.7,1.2-1.2v-0.1l0,0
	c0.4-0.5,0.7-1,0.9-1.5h-2v-0.5h2.2c0.2-0.4,0.3-0.8,0.4-1.3L101.7,41.5z M103.2,45.6v2.3h2.2v0.5h-4.8v-0.5h2.1v-2.3h-1.8v-0.5h1.8
	v-1.6l0.7,0c0,0.1,0,0.1-0.1,0.1v1.4h1.8v0.5H103.2z"/>
<path class="st0" d="M13.7,55c0.5,0.6,1.1,1.6,1.3,2.2l-0.5,0.3c-0.2-0.6-0.8-1.6-1.3-2.2L13.7,55z M19.2,55.1
	c0,0.1-0.1,0.1-0.2,0.1c-0.8,2.9-2.3,4.6-4.5,5.6c-0.1-0.1-0.3-0.3-0.4-0.4c2.2-0.9,3.6-2.6,4.3-5.6L19.2,55.1z"/>
<path class="st0" d="M26.3,55.2c0,0-0.1,0.1-0.1,0.1c-0.6,3-2.2,4.7-4.7,5.6c-0.1-0.1-0.3-0.3-0.4-0.5c2.4-0.8,3.9-2.5,4.4-4.9h-5.1
	V55h5.3l0.1-0.1L26.3,55.2z"/>
<path class="st0" d="M32,58.3c-0.8-0.4-1.9-0.9-2.7-1.3V61h-0.6v-6.8l0.8,0c0,0.1-0.1,0.1-0.2,0.2v2.3l0.1-0.2
	c0.9,0.3,2.1,0.9,2.9,1.3L32,58.3z"/>
<path class="st0" d="M36.4,54.1l0.8,0c0,0.1-0.1,0.1-0.2,0.2v1.2H39l0.1,0l0.5,0.2c0,0-0.1,0.1-0.1,0.1c-0.4,2.7-1.5,4.3-4,5.2
	c-0.1-0.1-0.2-0.3-0.4-0.5c2.3-0.8,3.4-2.3,3.7-4.5h-4.4V58h-0.5v-2.5h2.5V54.1z"/>
<path class="st0" d="M45.2,56.4v0.5h-1.9v3.1h2.4v0.5h-5.2v-0.5h2.4v-3.1h-1.9v-0.5H45.2z"/>
<path class="st0" d="M53.3,54.9c0,0-0.1,0.1-0.1,0.1c-0.4,1-1.1,1.9-1.9,2.5c-0.1-0.1-0.3-0.2-0.5-0.3c0.7-0.5,1.3-1.3,1.6-1.9h-5.6
	v-0.5h5.9l0.1,0L53.3,54.9z M50.2,56.3c0,0.1-0.1,0.1-0.2,0.1c-0.2,1.8-0.9,3.6-2.5,4.5c-0.1-0.1-0.3-0.3-0.5-0.4
	c1.6-0.9,2.2-2.5,2.4-4.4L50.2,56.3z"/>
<path class="st0" d="M60.9,55h-2.4c0,0.1-0.1,0.1-0.2,0.1c-0.2,0.3-0.4,0.7-0.6,1l0.2,0.1c0,0-0.1,0.1-0.2,0.1v5h-0.5v-4.5
	c-0.8,1-1.8,1.9-3,2.6c-0.1-0.1-0.2-0.3-0.4-0.4c1.6-0.9,3-2.4,3.8-3.9H54v-0.5h6.8V55z M60.7,59.2c-0.6-0.6-1.8-1.4-2.7-2l0.4-0.4
	c0.9,0.5,2.1,1.4,2.7,1.9L60.7,59.2z"/>
<path class="st0" d="M65.6,58.8v1.7c0.6,0.1,0.9,0.1,3.4,0.1c-0.1,0.1-0.2,0.4-0.2,0.5H67c-1.7,0-2.9-0.3-3.7-1.7
	c-0.3,0.7-0.7,1.4-1.3,1.9c-0.1-0.1-0.3-0.3-0.4-0.4c1-0.7,1.4-2.1,1.5-3.2l0.7,0.1c0,0.1-0.1,0.1-0.2,0.1c0,0.3-0.1,0.6-0.2,0.9
	c0.3,0.9,0.8,1.4,1.5,1.6v-3.2h-2.4v-2.8h5.4v2.8h-2.5v1.2h2.7v0.5H65.6z M63.2,54.8v1.7h4.3v-1.7H63.2z"/>
<path class="st0" d="M16.7,73.4h-2.1v0.4h-0.4v-2.5c-0.1,0.1-0.2,0.3-0.3,0.4l-0.2-0.2c-0.1,0.8-0.2,1.6-0.5,2.3
	c-0.1-0.1-0.3-0.2-0.4-0.3c0.4-1,0.5-2.4,0.5-3.5v-2h3.2v1.6h-2.7V70c0,0.4,0,0.8,0,1.2c0.3-0.4,0.6-1,0.8-1.6l0.5,0.2
	c0,0-0.1,0.1-0.1,0.1c-0.1,0.2-0.1,0.3-0.2,0.5h0.6c0.1-0.2,0.2-0.5,0.3-0.7l0.5,0.2c0,0-0.1,0.1-0.1,0.1c-0.1,0.1-0.1,0.3-0.2,0.5
	h0.9v0.4h-1v0.5h0.9v0.3h-0.9v0.5h0.9v0.4h-0.9V73h1V73.4z M16.6,67v0.5H13V67H16.6z M16,68.4h-2.3v0.8H16V68.4z M15.3,71.3v-0.5
	h-0.7v0.5H15.3z M15.3,72.1v-0.5h-0.7v0.5H15.3z M15.3,73v-0.5h-0.7V73H15.3z M18.3,72.8c0,0-0.1,0-0.1,0.1c-0.3,0.3-0.8,0.7-1.3,1
	c-0.1-0.1-0.2-0.2-0.4-0.3c0.5-0.2,1-0.6,1.3-1L18.3,72.8z M17.2,68.3h0.9c0-0.2,0.1-0.5,0.1-0.8h-1.3V67h3.3v0.5h-1.5
	c0,0.2-0.1,0.5-0.1,0.8H20v4.1h-2.8V68.3z M19.5,69.5v-0.8h-1.9v0.8H19.5z M19.5,70.7v-0.8h-1.9v0.8H19.5z M19.5,72v-0.8h-1.9V72
	H19.5z M19.9,73.9c-0.2-0.3-0.7-0.7-1-1l0.4-0.2c0.4,0.3,0.8,0.7,1.1,1L19.9,73.9z"/>
<path class="st0" d="M26.2,68.6l0.4,0.2c0,0-0.1,0.1-0.1,0.1c-0.4,0.6-0.9,1.1-1.6,1.5c0.9,0.4,2,0.7,3.1,0.9
	c-0.1,0.1-0.3,0.3-0.3,0.5c-0.4-0.1-0.8-0.1-1.1-0.2v2.4H26v-0.3h-3.3v0.3h-0.5v-2.3c-0.4,0.1-0.8,0.2-1.2,0.3
	c0-0.1-0.2-0.4-0.3-0.5c1.1-0.2,2.2-0.6,3.2-1.1c-0.4-0.3-0.8-0.6-1.2-1c-0.4,0.3-0.8,0.6-1.3,0.8c-0.1-0.1-0.2-0.3-0.4-0.4
	c1.1-0.5,1.9-1.2,2.3-1.8l0.7,0.1c0,0.1-0.1,0.1-0.2,0.1c-0.1,0.1-0.2,0.3-0.3,0.4h2.5L26.2,68.6z M21.6,67.9v0.9h-0.5v-1.4h3v-0.8
	l0.7,0c0,0.1-0.1,0.1-0.2,0.1v0.7h3v1.4h-0.5v-0.9H21.6z M26.4,71.4c-0.7-0.2-1.4-0.5-2-0.8c-0.5,0.3-1.1,0.6-1.7,0.8H26.4z
	 M22.7,73.1H26v-1.3h-3.3V73.1z M23.2,69L23.2,69c0.3,0.4,0.7,0.8,1.2,1.1c0.5-0.3,0.9-0.7,1.3-1.1H23.2z"/>
<path class="st0" d="M30.1,72.4c-0.2,0.5-0.6,1.1-1,1.5c-0.1,0-0.2-0.1-0.5-0.2c0.4-0.3,0.8-0.9,1-1.4L30.1,72.4z M32.4,70.6l0,0.3
	c-0.5,0-1,0.1-1.5,0.1v0.6c0,0.2-0.1,0.4-0.3,0.4c-0.2,0.1-0.5,0.1-1,0.1c0-0.1-0.1-0.3-0.2-0.4c0.2,0,0.4,0,0.6,0
	c0.3,0,0.4,0,0.4-0.1V71l-1.4,0.1c0,0.1-0.1,0.1-0.1,0.1l-0.1-0.5c0.5,0,1,0,1.7,0v-0.5l0.2,0c0.2-0.1,0.4-0.2,0.6-0.3h-2.2v-0.4
	h2.8l0.1,0l0.3,0.2c0,0-0.1,0-0.1,0c-0.3,0.2-0.8,0.5-1.2,0.7v0.2L32.4,70.6z M32.4,67.2v0.4h-3.7v-0.4h1.6v-0.6l0.7,0
	c0,0.1-0.1,0.1-0.2,0.1v0.5H32.4z M31.9,69.2h-2.8v-1.2h2.8V69.2z M29.6,68.3v0.6h1.9v-0.6H29.6z M31.1,73.8c0-0.3-0.1-0.9-0.2-1.3
	l0.5,0c0.1,0.4,0.2,1,0.2,1.3L31.1,73.8z M35.1,67.8c0,2.4,0,3.8,0.3,3.8c0.1,0,0.2-0.5,0.2-1.1c0.1,0.1,0.2,0.2,0.3,0.3
	c0,0.9-0.1,1.2-0.5,1.2c-0.8,0-0.8-1.3-0.8-3.8h-0.8c0,0.5-0.1,1-0.2,1.5c0.3,0.3,0.6,0.5,0.8,0.8l-0.3,0.4
	c-0.2-0.2-0.4-0.4-0.6-0.6c-0.2,0.8-0.6,1.4-1.3,1.9c-0.1-0.1-0.2-0.3-0.3-0.3c0.7-0.4,1.1-1.1,1.3-1.9c-0.3-0.2-0.6-0.4-0.8-0.6
	l0.3-0.4c0.2,0.1,0.4,0.3,0.7,0.5c0.1-0.4,0.1-0.7,0.1-1.2h-0.9v-0.5h1c0-0.4,0-0.8,0-1.2l0.6,0c0,0.1-0.1,0.1-0.2,0.1
	c0,0.4,0,0.7,0,1.1H35.1z M33,73.8c-0.1-0.3-0.3-0.9-0.4-1.3l0.5-0.1c0.2,0.4,0.4,1,0.5,1.3L33,73.8z M35.2,73.9
	c-0.2-0.4-0.6-1-1-1.5l0.5-0.2c0.4,0.4,0.8,1,1,1.4L35.2,73.9z"/>
<path class="st0" d="M38.6,68.2v1.3c0,0.1,0,0.3,0,0.4h1.4v0.5h-1.5c0,0.2-0.1,0.5-0.1,0.7c0.4,0.4,1.3,1.4,1.5,1.6l-0.4,0.4
	c-0.3-0.3-0.9-1.1-1.3-1.5c-0.3,0.8-0.8,1.5-1.6,2.1c-0.1-0.1-0.3-0.3-0.4-0.4c1.2-0.8,1.6-2,1.7-3h-1.7v-0.5h1.7c0-0.1,0-0.3,0-0.4
	v-1.3h-0.7c-0.2,0.5-0.4,1-0.6,1.4c-0.1-0.1-0.3-0.2-0.4-0.3c0.4-0.6,0.8-1.6,0.9-2.7l0.6,0.2c0,0.1-0.1,0.1-0.2,0.1
	c-0.1,0.3-0.1,0.6-0.2,0.8h2.3v0.5H38.6z M40.4,67.3h2.9v6.3h-0.5V73h-1.8v0.6h-0.5V67.3z M40.9,72.5h1.8v-4.7h-1.8V72.5z"/>
<path class="st0" d="M46,70.4c0,0.2,0,0.4-0.1,0.6c0.3,0.3,1.1,1.2,1.3,1.4l-0.4,0.4c-0.2-0.3-0.7-0.9-1-1.3
	c-0.2,0.8-0.6,1.6-1.3,2.2c-0.1-0.1-0.2-0.3-0.4-0.4c1-0.7,1.3-1.9,1.3-2.9h-1.3v-0.5h1.4c0-0.2,0-0.4,0-0.6v-0.9h-1.2V68h1.2v-1.4
	l0.6,0c0,0,0,0.1-0.1,0.1V68h1.1v0.5h-1.1v0.9c0,0.2,0,0.4,0,0.6h1.3v0.5H46z M48.9,71.6c0,0-0.1,0.1-0.1,0.1
	c-0.2,0.9-0.6,1.7-1.9,2.2c-0.1-0.1-0.2-0.3-0.3-0.4c1.2-0.4,1.6-1,1.7-1.9L48.9,71.6z M50,73.1c0,0.2,0,0.2,0.2,0.2h0.6
	c0.2,0,0.2-0.1,0.2-1.1c0.1,0.1,0.3,0.2,0.4,0.2c0,1.1-0.2,1.3-0.6,1.3h-0.7c-0.5,0-0.6-0.1-0.6-0.7v-1.8h-1.9v-4.4h3.4v4.4h-1V73.1
	z M48.2,67.4v0.8h2.4v-0.8H48.2z M48.2,68.7v0.8h2.4v-0.8H48.2z M48.2,70v0.9h2.4V70H48.2z"/>
<path class="st0" d="M53.7,72.4c0,0-0.1,0.1-0.2,0.1c-0.3,0.5-0.7,1.1-1.1,1.4c-0.1-0.1-0.3-0.2-0.4-0.3c0.4-0.3,0.8-0.9,1-1.4
	L53.7,72.4z M52.5,66.9h3.1v5h-3.1V66.9z M53,67.4v1h2v-1H53z M53,68.9v1h2v-1H53z M53,70.4v1.1h2v-1.1H53z M54.9,72.2
	c0.4,0.4,0.7,1,0.9,1.4c0,0-0.1,0.1-0.5,0.2c-0.2-0.4-0.5-1-0.9-1.4L54.9,72.2z M56.4,67.5l0.7,0c0,0.1,0,0.1-0.1,0.1v4.2h-0.5V67.5
	z M58.4,66.7l0.7,0c0,0.1,0,0.1-0.1,0.1v6.3c0,0.4-0.1,0.5-0.3,0.6c-0.3,0.1-0.7,0.1-1.4,0.1c0-0.1-0.1-0.4-0.2-0.5
	c0.3,0,0.6,0,0.8,0c0.6,0,0.7,0,0.7-0.2V66.7z"/>
<path class="st0" d="M63.9,68c0,0.1-0.1,0.1-0.2,0.1c-0.3,2.4-1.1,4.6-2.4,4.6c-0.7,0-1.3-0.7-1.3-1.9c0-1.9,1.5-3.5,3.5-3.5
	c2.3,0,3.2,1.4,3.2,3c0,1.9-1.1,2.8-3,3.2c-0.1-0.1-0.2-0.3-0.3-0.5c1.8-0.3,2.7-1.2,2.7-2.7c0-1.3-0.8-2.5-2.7-2.5
	c-0.1,0-0.2,0-0.2,0L63.9,68z M63.2,67.9c-1.6,0.2-2.6,1.5-2.6,2.9c0,0.8,0.4,1.4,0.7,1.4C62.3,72.2,63,70.1,63.2,67.9z"/>
<path class="st0" d="M74.7,67.7h-2.4c0,0.1-0.1,0.1-0.2,0.1c-0.2,0.3-0.4,0.7-0.6,1l0.2,0.1c0,0-0.1,0.1-0.2,0.1v5H71v-4.5
	c-0.8,1-1.8,1.9-3,2.6c-0.1-0.1-0.2-0.3-0.4-0.4c1.6-0.9,3-2.4,3.8-3.9h-3.6v-0.5h6.8V67.7z M74.5,71.9c-0.6-0.6-1.8-1.4-2.7-2
	l0.4-0.4c0.9,0.5,2.1,1.4,2.7,1.9L74.5,71.9z"/>
<path class="st0" d="M79,66.8c0,0.1-0.1,0.1-0.2,0.1c-0.1,0.3-0.2,0.7-0.3,1h4.1v0.5h-4.4c-0.3,0.6-0.6,1.1-0.9,1.6l0.1,0
	c0,0.1-0.1,0.1-0.2,0.1v3.8h-0.5v-3.2c-0.3,0.3-0.6,0.6-0.9,0.8c-0.1-0.1-0.2-0.4-0.3-0.5c0.5-0.3,0.9-0.7,1.2-1.2v-0.1l0,0
	c0.4-0.5,0.7-1,0.9-1.5h-2v-0.5h2.2c0.2-0.4,0.3-0.8,0.4-1.3L79,66.8z M80.4,70.8v2.3h2.2v0.5h-4.8v-0.5h2.1v-2.3h-1.8v-0.5h1.8
	v-1.6l0.7,0c0,0.1,0,0.1-0.1,0.1v1.4h1.8v0.5H80.4z"/>
<path class="st0" d="M19.7,81.3c0,0-0.1,0.1-0.1,0.1c-0.4,0.9-1,1.9-1.6,2.6c-0.1-0.1-0.3-0.2-0.5-0.3c0.6-0.5,1.1-1.3,1.3-1.9
	l-3,0.8v2c0,0.8,0.5,1,1.1,1h1.3c0.3,0,0.9,0,1.2-0.1c0,0.2,0,0.4,0,0.5C19,86,18.5,86,18.2,86h-1.3c-1,0-1.6-0.5-1.6-1.5v-1.9
	l-2,0.5l-0.1-0.5l2.1-0.5v-2.4l0.8,0c0,0.1-0.1,0.1-0.2,0.1v2.1l3.3-0.9l0.1-0.1L19.7,81.3z M18,79.4c0.3,0.3,0.8,0.8,1,1.2
	l-0.3,0.2c-0.2-0.3-0.6-0.8-1-1.1L18,79.4z M19.1,79c0.4,0.3,0.8,0.8,1,1.1l-0.3,0.2c-0.2-0.3-0.6-0.8-1-1.1L19.1,79z"/>
<path class="st0" d="M26.8,80.5v5.2h-0.6v-0.5H22v0.5h-0.5v-5.2H26.8z M26.3,84.7v-3.6H22v3.6H26.3z"/>
<path class="st0" d="M32.3,80.7c0,0.1-0.1,0.1-0.2,0.1c-0.3,2.4-1.1,4.6-2.4,4.6c-0.7,0-1.3-0.7-1.3-1.9c0-1.9,1.5-3.5,3.5-3.5
	c2.3,0,3.2,1.4,3.2,3c0,1.9-1.1,2.8-3,3.2c-0.1-0.1-0.2-0.3-0.3-0.5c1.8-0.3,2.7-1.2,2.7-2.7c0-1.3-0.8-2.5-2.7-2.5
	c-0.1,0-0.2,0-0.2,0L32.3,80.7z M31.5,80.6c-1.6,0.2-2.6,1.5-2.6,2.9c0,0.8,0.4,1.4,0.7,1.4C30.6,84.8,31.3,82.7,31.5,80.6z"/>
<path class="st0" d="M40.7,83.6c-0.8-0.4-1.9-0.9-2.7-1.3v3.9h-0.6v-6.8l0.8,0c0,0.1-0.1,0.1-0.2,0.2V82l0.1-0.2
	c0.9,0.3,2.1,0.9,2.9,1.3L40.7,83.6z"/>
<path class="st0" d="M42.4,82.5h6.5V83h-6.2c0,0.1-0.1,0.1-0.3,0.1L42.4,82.5z"/>
<path class="st0" d="M55.7,80.9c0,0-0.1,0.1-0.1,0.1c-0.8,2.5-2.1,4.2-4.3,5.3c-0.1-0.1-0.2-0.3-0.4-0.4c2.1-1,3.3-2.6,4-4.6H52
	c-0.5,0.7-1.1,1.4-1.8,1.9c-0.1-0.1-0.3-0.3-0.4-0.4c1.1-0.8,2-2,2.5-3.4l0.7,0.2c0,0.1-0.1,0.1-0.2,0.1c-0.2,0.3-0.3,0.7-0.5,1h2.8
	l0.1,0L55.7,80.9z"/>
<path class="st0" d="M57,80.1c0.8,0.3,1.8,0.7,2.3,1.1l-0.3,0.5c-0.6-0.4-1.5-0.8-2.3-1.1L57,80.1z M57,85.5
	c2.8-0.9,4.6-2.4,5.6-4.6c0.2,0.1,0.3,0.2,0.5,0.3c-1,2.1-2.9,3.8-5.5,4.7c0,0.1-0.1,0.1-0.1,0.2L57,85.5z"/>
<path class="st0" d="M65,86.5V82c-0.3,0.5-0.7,1-1.1,1.4c-0.1-0.1-0.2-0.4-0.3-0.5c0.8-0.8,1.6-2.2,2.1-3.6l0.6,0.2
	c0,0.1-0.1,0.1-0.2,0.1c-0.2,0.6-0.5,1.1-0.8,1.7l0.2,0.1c0,0.1-0.1,0.1-0.2,0.1v5.1H65z M67.8,85.3c0,0.4,0.1,0.5,0.5,0.5H70
	c0.4,0,0.5-0.3,0.6-1.5c0.1,0.1,0.3,0.2,0.5,0.2c-0.1,1.3-0.2,1.7-1,1.7h-1.7c-0.8,0-1-0.2-1-1.1v-5.9l0.7,0c0,0.1,0,0.1-0.2,0.1
	v2.9c0.9-0.5,1.9-1.2,2.5-1.7l0.4,0.5c0,0-0.1,0-0.1,0c-0.7,0.6-1.7,1.2-2.7,1.7V85.3z"/>
<path class="st0" d="M15.9,93.2v0.4h-3v-0.4H15.9z M15.6,96.4v2.3h-1.9v0.4h-0.5v-2.7H15.6z M13.3,94.7v-0.4h2.4v0.4H13.3z
	 M13.3,95.8v-0.4h2.4v0.4H13.3z M15.6,92.2v0.4h-2.3v-0.4H15.6z M15.1,96.8h-1.4v1.4h1.4V96.8z M20.2,95.9v0.5h-1.9v2.7h-0.5v-2.7
	h-2v-0.5h2v-3.1h-1.7v-0.5H20v0.5h-1.8v3.1H20.2z M16.7,95.5c0-0.5-0.2-1.4-0.4-2l0.4-0.1c0.2,0.6,0.4,1.5,0.5,2L16.7,95.5z
	 M19.9,93.4c0,0-0.1,0.1-0.2,0.1c-0.1,0.6-0.4,1.4-0.6,2c-0.1,0-0.3-0.1-0.4-0.1c0.2-0.5,0.4-1.5,0.6-2.1L19.9,93.4z"/>
<path class="st0" d="M21.6,94.7c-0.3,0.5-0.5,0.9-0.8,1.3c-0.1-0.1-0.2-0.4-0.3-0.5c0.7-0.8,1.3-2.2,1.7-3.5l0.6,0.2
	c0,0.1-0.1,0.1-0.2,0.1c-0.2,0.5-0.4,1-0.6,1.6l0.2,0.1c0,0.1-0.1,0.1-0.1,0.1v5.2h-0.5V94.7z M28,93h-1.6v1.6h1.5V99h-0.5v-0.4
	h-3.9v0.5h-0.5v-4.5h1.4V93h-1.6v-0.5H28V93z M23.4,95.1v3h1v-3H23.4z M25.9,94.6V93h-1v1.6H25.9z M25.9,95.1h-1v3h1V95.1z
	 M27.3,98.1v-3h-1v3H27.3z"/>
<path class="st0" d="M32.6,93.3c0,0.1-0.1,0.1-0.2,0.1c-0.3,2.4-1.1,4.6-2.4,4.6c-0.7,0-1.3-0.7-1.3-1.9c0-1.9,1.5-3.5,3.5-3.5
	c2.3,0,3.2,1.4,3.2,3c0,1.9-1.1,2.8-3,3.2c-0.1-0.1-0.2-0.3-0.3-0.5c1.8-0.3,2.7-1.2,2.7-2.7c0-1.3-0.8-2.5-2.7-2.5
	c-0.1,0-0.2,0-0.2,0L32.6,93.3z M31.9,93.2c-1.6,0.2-2.6,1.5-2.6,2.9c0,0.8,0.4,1.4,0.7,1.4C31,97.4,31.7,95.4,31.9,93.2z"/>
<path class="st0" d="M43.4,93H41c0,0.1-0.1,0.1-0.2,0.1c-0.2,0.3-0.4,0.7-0.6,1l0.2,0.1c0,0-0.1,0.1-0.2,0.1v5h-0.5v-4.5
	c-0.8,1-1.8,1.9-3,2.6c-0.1-0.1-0.2-0.3-0.4-0.4c1.6-0.9,3-2.4,3.8-3.9h-3.6v-0.5h6.8V93z M43.2,97.2c-0.6-0.6-1.8-1.4-2.7-2
	l0.4-0.4c0.9,0.5,2.1,1.4,2.7,1.9L43.2,97.2z"/>
<path class="st0" d="M48.1,96.7v1.7c0.6,0.1,0.9,0.1,3.4,0.1c-0.1,0.1-0.2,0.4-0.2,0.5h-1.8c-1.7,0-2.9-0.3-3.7-1.7
	c-0.3,0.7-0.7,1.4-1.3,1.9c-0.1-0.1-0.3-0.3-0.4-0.4c1-0.7,1.4-2.1,1.5-3.2l0.7,0.1c0,0.1-0.1,0.1-0.2,0.1c0,0.3-0.1,0.6-0.2,0.9
	c0.3,0.9,0.8,1.4,1.5,1.6V95h-2.4v-2.8h5.4V95h-2.5v1.2h2.7v0.5H48.1z M45.7,92.8v1.7h4.3v-1.7H45.7z"/>
<path class="st3" d="M457.7,164.5l-1,0.4v2.7c0,0.6-0.3,0.7-1.5,0.7c0-0.1-0.1-0.4-0.2-0.6c0.4,0,0.8,0,0.9,0c0.1,0,0.2,0,0.2-0.2
	v-2.5c-0.4,0.2-0.8,0.3-1.1,0.4c0,0.1,0,0.1-0.1,0.1l-0.3-0.7c0.4-0.1,0.9-0.3,1.5-0.4v-2.1h-1.4v-0.6h1.4V160l0.8,0
	c0,0.1-0.1,0.1-0.2,0.1v1.6h1v0.6h-1v1.9l1-0.3L457.7,164.5z M462,163.9l0.4,0.2c0,0-0.1,0.1-0.1,0.1c-0.3,1.1-0.9,1.9-1.6,2.6
	c0.7,0.5,1.5,0.9,2.4,1.1c-0.1,0.1-0.3,0.4-0.4,0.5c-1-0.3-1.8-0.7-2.5-1.2c-0.8,0.6-1.6,1-2.6,1.2c-0.1-0.2-0.2-0.4-0.3-0.5
	c0.9-0.2,1.7-0.6,2.5-1.1c-0.6-0.6-1-1.3-1.3-2.1l0.5-0.1h-0.8V164h3.8L462,163.9z M459.2,160.9v0.4c0,0.8-0.2,1.8-1.2,2.4
	c-0.1-0.1-0.3-0.4-0.4-0.4c0.9-0.6,1.1-1.4,1.1-2v-0.9h3v2.2c0,0.2,0,0.2,0.2,0.2h0.5c0.2,0,0.2-0.1,0.2-1.1
	c0.1,0.1,0.4,0.2,0.5,0.2c0,1.1-0.2,1.4-0.7,1.4h-0.7c-0.5,0-0.7-0.2-0.7-0.8v-1.7H459.2z M459,164.5c0.3,0.7,0.7,1.3,1.3,1.9
	c0.6-0.5,1-1.1,1.3-1.9H459z"/>
<path class="st3" d="M463.7,162.6c0.7-0.2,1.6-0.4,2.6-0.7l0.1,0.5c-0.8,0.3-1.7,0.5-2.2,0.7c0,0.1-0.1,0.1-0.1,0.1L463.7,162.6z
	 M467.1,167.4c0,0-0.1,0.1-0.2,0.1c-0.7,0.4-1.8,0.7-2.7,1c-0.1-0.1-0.3-0.3-0.4-0.4c0.9-0.2,2-0.5,2.7-0.9L467.1,167.4z
	 M464.5,160.2c0.6,0.2,1.5,0.5,1.9,0.7l-0.3,0.5c-0.4-0.2-1.3-0.6-1.9-0.8L464.5,160.2z M465,166.9v-3.7h5.9v3.7H465z M465.5,163.7
	v0.7h4.7v-0.7H465.5z M465.5,164.7v0.7h4.7v-0.7H465.5z M465.5,165.8v0.7h4.7v-0.7H465.5z M469.4,161.2c0.2,0.7,0.7,1.4,2.6,1.7
	c-0.1,0.1-0.3,0.3-0.3,0.5c-1.6-0.3-2.2-0.9-2.6-1.6c-0.3,0.7-1,1.1-2.4,1.4c0-0.1-0.2-0.3-0.3-0.4c1.5-0.3,2.1-0.7,2.3-1.6h-1
	c-0.2,0.3-0.5,0.5-0.8,0.8c-0.1-0.1-0.3-0.2-0.5-0.3c0.7-0.5,1.2-1.1,1.4-1.7l0.7,0.1c0,0.1-0.1,0.1-0.2,0.1
	c-0.1,0.2-0.2,0.3-0.3,0.5h3.3l0.1,0l0.4,0c-0.1,0.3-0.6,1.1-0.9,1.4l-0.5-0.2c0.2-0.2,0.4-0.5,0.6-0.7H469.4z M471.3,168.4
	c-0.6-0.3-1.6-0.7-2.6-1l0.5-0.3c1,0.3,2.1,0.7,2.8,1L471.3,168.4z"/>
<path class="st3" d="M477.5,163.1c0.2,0.6,0.4,1.2,0.7,1.7c0.6-0.4,1.3-0.9,1.7-1.3l0.5,0.5c0,0-0.1,0-0.2,0
	c-0.5,0.4-1.2,0.8-1.8,1.2c0.6,0.9,1.5,1.6,2.6,1.9c-0.1,0.1-0.3,0.4-0.4,0.5c-1.8-0.7-3-2.3-3.7-4.4c-0.3,0.2-0.6,0.4-1,0.6
	c1.2,0.9,1.8,2,1.8,3c0,1-0.6,1.6-1.5,1.6c-0.2,0-0.5,0-0.8,0c0-0.2-0.1-0.4-0.2-0.6c0.3,0,0.6,0,0.8,0c0.3,0,0.5,0,0.7-0.2
	c0.3-0.2,0.4-0.5,0.4-0.9c0-0.3-0.1-0.5-0.2-0.8c-1,0.9-2.5,1.7-3.8,2.1c-0.1-0.2-0.2-0.4-0.3-0.5c1.4-0.4,3-1.3,3.9-2.1
	c-0.1-0.2-0.3-0.4-0.4-0.6c-0.8,0.6-2,1.2-2.9,1.5c-0.1-0.1-0.2-0.4-0.3-0.5c1-0.3,2.2-0.9,2.9-1.4c-0.2-0.1-0.3-0.3-0.5-0.4
	c-0.7,0.3-1.4,0.6-2.1,0.8c-0.1-0.1-0.2-0.4-0.3-0.5c1.1-0.3,2.4-0.8,3.2-1.4h-2.1v-0.5h5.2v0.5H477.5z M473.7,161.6v1.2h-0.6v-1.8
	h3.4V160l0.8,0.1c0,0.1-0.1,0.1-0.2,0.1v0.9h3.5v1.8H480v-1.2H473.7z"/>
<path class="st2" d="M162.7,105.6c0.7,0.2,1.6,0.6,2,0.9l-0.4,0.6c-0.4-0.3-1.3-0.7-2-1L162.7,105.6z M162.7,111.3
	c0.5-0.8,1.2-2.1,1.8-3.2c0.4,0.3,0.4,0.4,0.5,0.4c-0.5,1.1-1.2,2.3-1.6,3c0,0,0,0.1,0,0.1c0,0,0,0.1,0,0.1L162.7,111.3z
	 M163.2,102.9c0.7,0.3,1.5,0.7,2,1l-0.4,0.5c-0.4-0.4-1.3-0.8-2-1.1L163.2,102.9z M171.4,107v0.6h-3.8l0.4,0.1
	c0,0.1-0.1,0.1-0.2,0.1c-0.3,0.8-0.8,2-1.2,2.8c1-0.1,2.2-0.1,3.4-0.2c-0.3-0.5-0.7-1-1.1-1.5l0.6-0.3c0.8,0.8,1.6,2,2,2.8l-0.6,0.4
	c-0.1-0.2-0.3-0.5-0.4-0.8c-1.8,0.1-3.7,0.3-4.9,0.4c0,0.1-0.1,0.1-0.1,0.1l-0.3-0.8l0.8,0c0.4-0.9,1-2.1,1.3-3.1H165V107h2.8v-1.9
	h-2.3v-0.6h2.3v-1.6l0.9,0.1c0,0.1-0.1,0.2-0.2,0.2v1.4h2.4v0.6h-2.4v1.9H171.4z"/>
<path class="st2" d="M173.6,104.5c0.2-0.5,0.4-1.2,0.5-1.7l0.8,0.2c0,0.1-0.1,0.1-0.2,0.1c-0.1,0.4-0.3,0.9-0.5,1.4h1.6v5.8h-2.7
	v0.8h-0.6v-6.6H173.6z M175.2,107v-2h-2v2H175.2z M173.1,109.7h2v-2.1h-2V109.7z M180.5,104.5l0.3,0c0,0,0,0.1,0,0.2
	c-0.1,4.7-0.3,6.3-0.6,6.7c-0.2,0.3-0.5,0.4-1.2,0.4c-0.3,0-0.7,0-1.1,0c0-0.2-0.1-0.5-0.2-0.6c0.7,0,1.3,0,1.6,0
	c0.2,0,0.3,0,0.4-0.1c0.3-0.3,0.5-1.9,0.6-6h-2.7c-0.3,0.9-0.7,1.6-1.1,2.2c-0.1-0.1-0.3-0.3-0.5-0.4c0.7-0.9,1.3-2.5,1.6-4.1
	l0.8,0.2c0,0.1-0.1,0.1-0.2,0.1c-0.1,0.5-0.2,0.9-0.4,1.4H180.5z M177.8,106.6c0.6,0.8,1.1,1.8,1.3,2.4l-0.6,0.3
	c-0.2-0.7-0.8-1.7-1.3-2.5L177.8,106.6z"/>
<path class="st2" d="M165.8,122.3c-1-0.5-2.4-1.2-3.4-1.6v4.9h-0.7v-8.5l1,0.1c0,0.1-0.1,0.2-0.3,0.2v2.8l0.1-0.2
	c1.1,0.4,2.7,1.1,3.7,1.6L165.8,122.3z"/>
<path class="st2" d="M167.9,120.8h8.1v0.7h-7.8c-0.1,0.1-0.2,0.2-0.3,0.2L167.9,120.8z"/>
<path class="st2" d="M184.4,119c0,0-0.1,0.1-0.1,0.1c-1,3.2-2.6,5.2-5.3,6.6c-0.1-0.2-0.3-0.4-0.5-0.5c2.6-1.2,4.1-3.2,4.9-5.8h-3.5
	c-0.6,0.9-1.3,1.7-2.2,2.4c-0.1-0.1-0.4-0.3-0.6-0.4c1.3-1,2.4-2.5,3.1-4.2l0.9,0.3c0,0.1-0.2,0.1-0.3,0.1c-0.2,0.4-0.4,0.8-0.6,1.2
	h3.4l0.1-0.1L184.4,119z"/>
<path class="st2" d="M186.2,117.9c1,0.3,2.2,0.8,2.9,1.3l-0.4,0.6c-0.7-0.5-1.9-1-2.8-1.4L186.2,117.9z M186.1,124.6
	c3.5-1.1,5.8-3,6.9-5.7c0.2,0.2,0.4,0.3,0.6,0.4c-1.2,2.7-3.6,4.7-6.9,5.9c0,0.1-0.1,0.2-0.1,0.2L186.1,124.6z"/>
<path class="st2" d="M196.1,125.9v-5.6c-0.4,0.6-0.9,1.2-1.3,1.7c-0.1-0.2-0.3-0.5-0.4-0.6c1-1,2-2.7,2.7-4.4l0.8,0.3
	c0,0.1-0.1,0.1-0.2,0.1c-0.3,0.7-0.6,1.4-1,2.1l0.3,0.1c0,0.1-0.1,0.1-0.2,0.1v6.4H196.1z M199.6,124.4c0,0.5,0.1,0.7,0.7,0.7h2
	c0.6,0,0.6-0.4,0.7-1.8c0.2,0.1,0.4,0.3,0.6,0.3c-0.1,1.6-0.3,2.2-1.3,2.2h-2.1c-1,0-1.3-0.3-1.3-1.3V117l0.8,0.1
	c0,0.1-0.1,0.1-0.2,0.1v3.6c1.2-0.6,2.3-1.4,3.1-2.1l0.5,0.6c0,0-0.1,0-0.2,0c-0.8,0.7-2.2,1.5-3.4,2.1V124.4z"/>
<path class="st2" d="M160.9,132.1c0.7,0.8,1.4,2,1.7,2.8l-0.7,0.3c-0.3-0.8-1-2-1.6-2.8L160.9,132.1z M167.7,132.2
	c0,0.1-0.1,0.1-0.3,0.1c-1,3.6-2.9,5.8-5.6,7c-0.1-0.1-0.3-0.4-0.5-0.5c2.7-1.2,4.5-3.2,5.4-6.9L167.7,132.2z"/>
<path class="st2" d="M176.6,132.3c0,0-0.1,0.1-0.1,0.1c-0.8,3.7-2.7,5.9-5.9,7c-0.1-0.2-0.3-0.4-0.4-0.6c3-1,4.9-3.2,5.5-6.1h-6.4
	v-0.7h6.6l0.1-0.1L176.6,132.3z"/>
<path class="st2" d="M183.7,136.3c-1-0.5-2.4-1.2-3.4-1.6v4.9h-0.7v-8.5l1,0.1c0,0.1-0.1,0.2-0.3,0.2v2.8l0.1-0.2
	c1.1,0.4,2.7,1.1,3.7,1.6L183.7,136.3z"/>
<path class="st2" d="M189.2,131.1l1,0.1c0,0.1-0.1,0.2-0.3,0.2v1.5h2.6l0.1-0.1l0.6,0.3c0,0-0.1,0.1-0.1,0.1c-0.4,3.4-1.9,5.4-5,6.5
	c-0.1-0.2-0.3-0.4-0.5-0.6c2.9-1,4.2-2.8,4.6-5.5h-5.5v2.4h-0.7v-3.1h3.1V131.1z"/>
<path class="st2" d="M200.2,133.8v0.6h-2.4v3.8h2.9v0.6h-6.5v-0.6h2.9v-3.8h-2.4v-0.6H200.2z"/>
<path class="st2" d="M210.2,132c0,0-0.1,0.1-0.1,0.1c-0.5,1.2-1.4,2.3-2.3,3.1c-0.1-0.1-0.4-0.3-0.6-0.4c0.9-0.7,1.6-1.6,1.9-2.4h-7
	v-0.7h7.4l0.1,0L210.2,132z M206.4,133.8c0,0.1-0.1,0.1-0.2,0.2c-0.3,2.3-1.1,4.5-3.1,5.7c-0.1-0.1-0.4-0.3-0.6-0.4
	c2-1.1,2.7-3.1,2.9-5.5L206.4,133.8z"/>
<path class="st2" d="M164.3,152.5c2.5-0.7,4.4-1.9,5.6-4c0.1,0.2,0.4,0.4,0.5,0.5c-1.3,2.2-3.5,3.5-6.4,4.3c0,0.1-0.1,0.2-0.2,0.2
	l-0.4-0.7l0.1-0.2v-7.2l1,0c0,0.1-0.1,0.2-0.3,0.2V152.5z"/>
<path class="st2" d="M171.8,148.8h8.1v0.7h-7.8c-0.1,0.1-0.2,0.2-0.3,0.2L171.8,148.8z"/>
<path class="st2" d="M189.4,148.9h-3.3l0.2,0c0,0.1-0.1,0.1-0.2,0.1c-0.3,1.8-0.9,3.4-3,4.5c-0.1-0.1-0.4-0.4-0.5-0.5
	c2-1,2.6-2.3,2.8-4.1h-3.8v-0.7h7.8V148.9z M188.4,146.2h-6v-0.7h6V146.2z"/>
<path class="st2" d="M196.6,147.4c0,0-0.1,0.1-0.2,0.1c0,0-0.1,0-0.1,0c-0.6,0.6-1.4,1.3-2.1,1.8c0.1,0,0.2,0.1,0.2,0.1
	c0,0-0.1,0.1-0.2,0.1v4.2h-0.6v-4.1c-0.8,0.6-2.2,1.4-3.2,1.9c-0.1-0.1-0.2-0.4-0.4-0.5c1.7-0.8,4.2-2.2,5.9-4.1L196.6,147.4z"/>
<path class="st2" d="M198.4,145.9c1,0.3,2.2,0.8,2.9,1.3l-0.4,0.6c-0.7-0.5-1.9-1-2.8-1.4L198.4,145.9z M198.3,152.6
	c3.5-1.1,5.8-3,6.9-5.7c0.2,0.2,0.4,0.3,0.6,0.4c-1.2,2.7-3.6,4.7-6.9,5.9c0,0.1-0.1,0.2-0.1,0.2L198.3,152.6z"/>
<path class="st2" d="M213.8,147c0,0.1-0.1,0.1-0.1,0.1c-1,3.2-2.6,5.2-5.3,6.5c-0.1-0.2-0.3-0.4-0.5-0.5c2.5-1.2,4.1-3.1,4.9-5.7
	h-3.4c-0.6,0.9-1.3,1.7-2.2,2.4c-0.1-0.1-0.4-0.3-0.5-0.4c1.3-1,2.4-2.5,3.1-4.3l0.9,0.3c0,0.1-0.1,0.1-0.3,0.1
	c-0.2,0.4-0.4,0.9-0.6,1.3h3.4l0.1-0.1L213.8,147z M212.5,144.8c0.5,0.4,1,1,1.3,1.4l-0.4,0.3c-0.3-0.4-0.8-1-1.3-1.4L212.5,144.8z
	 M214,144.5c0.5,0.4,1,1,1.3,1.4l-0.4,0.3c-0.3-0.4-0.8-1-1.3-1.4L214,144.5z"/>
<path class="st2" d="M164.6,167.3H162v0.5h-0.5v-3.1c-0.1,0.2-0.2,0.3-0.3,0.5l-0.2-0.2c-0.1,1-0.3,2-0.6,2.8
	c-0.1-0.1-0.4-0.3-0.5-0.4c0.5-1.3,0.6-3,0.6-4.3v-2.5h4v2H161v0.5c0,0.5,0,1,0,1.5c0.4-0.5,0.7-1.2,0.9-2l0.6,0.2
	c0,0.1-0.1,0.1-0.2,0.1c-0.1,0.2-0.1,0.4-0.2,0.6h0.8c0.1-0.3,0.2-0.6,0.3-0.9l0.6,0.2c0,0-0.1,0.1-0.2,0.1
	c-0.1,0.2-0.2,0.4-0.3,0.6h1.2v0.5h-1.2v0.6h1.1v0.4h-1.1v0.6h1.1v0.4h-1.1v0.7h1.3V167.3z M164.5,159.3v0.6h-4.5v-0.6H164.5z
	 M163.8,161H161v1h2.8V161z M162.9,164.6V164H162v0.6H162.9z M162.9,165.7v-0.6H162v0.6H162.9z M162.9,166.8v-0.7H162v0.7H162.9z
	 M166.7,166.6c0,0-0.1,0.1-0.2,0.1c-0.3,0.4-1,0.9-1.6,1.2c-0.1-0.1-0.3-0.3-0.4-0.4c0.6-0.3,1.3-0.8,1.6-1.2L166.7,166.6z
	 M165.2,160.9h1.2c0-0.3,0.1-0.7,0.1-1h-1.7v-0.6h4.1v0.6h-1.8c0,0.3-0.1,0.7-0.2,1h1.7v5.1h-3.5V160.9z M168.2,162.4v-1h-2.3v1
	H168.2z M168.2,164v-1h-2.3v1H168.2z M168.2,165.5v-1h-2.3v1H168.2z M168.6,167.9c-0.3-0.4-0.8-0.9-1.3-1.3l0.5-0.3
	c0.5,0.4,1,0.9,1.3,1.2L168.6,167.9z"/>
<path class="st2" d="M176.4,161.3l0.5,0.3c0,0-0.1,0.1-0.1,0.1c-0.5,0.7-1.2,1.3-2,1.8c1.1,0.5,2.5,0.9,3.9,1.1
	c-0.1,0.1-0.3,0.4-0.4,0.6c-0.5-0.1-0.9-0.2-1.4-0.3v3h-0.7v-0.3h-4.1v0.3h-0.6V165c-0.5,0.2-1,0.3-1.6,0.4
	c-0.1-0.2-0.2-0.4-0.3-0.6c1.3-0.3,2.8-0.7,4-1.4c-0.5-0.4-1-0.8-1.4-1.2c-0.5,0.4-1,0.7-1.6,1c-0.1-0.1-0.3-0.4-0.4-0.5
	c1.4-0.6,2.3-1.5,2.8-2.3l0.8,0.1c0,0.1-0.1,0.1-0.2,0.1c-0.1,0.2-0.2,0.3-0.4,0.5h3.1L176.4,161.3z M170.8,160.4v1.1h-0.6v-1.8h3.7
	v-1l0.9,0.1c0,0.1-0.1,0.1-0.2,0.1v0.8h3.8v1.8h-0.7v-1.1H170.8z M176.7,164.8c-0.9-0.2-1.7-0.6-2.4-1c-0.7,0.4-1.4,0.7-2.2,1H176.7
	z M172.1,167h4.1v-1.6h-4.1V167z M172.7,161.8L172.7,161.8c0.4,0.5,0.9,0.9,1.5,1.3c0.6-0.4,1.2-0.8,1.6-1.3H172.7z"/>
<path class="st2" d="M181.4,166.1c-0.3,0.7-0.7,1.4-1.2,1.8c-0.1-0.1-0.3-0.1-0.6-0.3c0.5-0.4,1-1.1,1.2-1.7L181.4,166.1z
	 M184.2,163.8l0,0.4c-0.6,0-1.3,0.1-1.9,0.1v0.7c0,0.3-0.1,0.4-0.3,0.5c-0.2,0.1-0.6,0.1-1.3,0.1c0-0.2-0.1-0.3-0.2-0.5
	c0.3,0,0.5,0,0.7,0c0.4,0,0.4,0,0.4-0.1v-0.7l-1.8,0.1c0,0.1-0.1,0.1-0.1,0.1l-0.2-0.6c0.6,0,1.3,0,2.1-0.1v-0.6l0.3,0
	c0.2-0.1,0.5-0.2,0.7-0.4h-2.8v-0.5h3.4l0.1,0l0.4,0.3c0,0-0.1,0.1-0.1,0.1c-0.4,0.3-1,0.6-1.5,0.8v0.2L184.2,163.8z M184.2,159.6
	v0.5h-4.7v-0.5h2v-0.8l0.8,0.1c0,0.1-0.1,0.1-0.2,0.1v0.6H184.2z M183.6,162.1h-3.5v-1.5h3.5V162.1z M180.7,160.9v0.7h2.3v-0.7
	H180.7z M182.6,167.8c0-0.4-0.1-1.1-0.2-1.7l0.6,0c0.1,0.5,0.2,1.2,0.2,1.6L182.6,167.8z M187.5,160.3c0,3,0,4.7,0.4,4.7
	c0.2,0,0.2-0.6,0.2-1.3c0.1,0.1,0.3,0.3,0.4,0.4c-0.1,1.2-0.2,1.6-0.7,1.6c-1,0-1-1.6-1-4.7h-1c0,0.7-0.1,1.3-0.2,1.8
	c0.4,0.3,0.8,0.7,1,1l-0.4,0.5c-0.2-0.2-0.5-0.5-0.8-0.8c-0.3,1-0.8,1.7-1.7,2.3c-0.1-0.1-0.3-0.3-0.4-0.4c0.9-0.5,1.3-1.3,1.6-2.3
	c-0.3-0.3-0.7-0.5-1-0.8l0.3-0.4c0.3,0.2,0.6,0.4,0.8,0.6c0.1-0.4,0.1-0.9,0.2-1.4h-1.2v-0.6h1.2c0-0.5,0-1,0-1.5l0.8,0
	c0,0.1-0.1,0.1-0.2,0.1c0,0.5,0,0.9,0,1.3H187.5z M185,167.8c-0.1-0.4-0.3-1.1-0.6-1.7l0.6-0.1c0.2,0.5,0.5,1.2,0.6,1.6L185,167.8z
	 M187.8,167.9c-0.2-0.5-0.8-1.3-1.2-1.8l0.6-0.2c0.5,0.5,1,1.3,1.3,1.8L187.8,167.9z"/>
<path class="st2" d="M192,160.8v1.7c0,0.2,0,0.3,0,0.5h1.8v0.6h-1.8c0,0.3-0.1,0.6-0.2,0.9c0.5,0.5,1.6,1.7,1.9,2l-0.4,0.5
	c-0.3-0.4-1.1-1.3-1.6-1.9c-0.3,1-0.9,1.9-2,2.7c-0.1-0.1-0.3-0.4-0.4-0.5c1.5-1,2-2.4,2.1-3.7h-2.1v-0.6h2.1c0-0.2,0-0.3,0-0.5
	v-1.7h-0.9c-0.2,0.7-0.5,1.3-0.8,1.7c-0.1-0.1-0.3-0.3-0.5-0.3c0.5-0.8,0.9-2,1.2-3.3l0.8,0.2c0,0.1-0.1,0.1-0.2,0.1
	c-0.1,0.4-0.2,0.7-0.3,1.1h2.8v0.6H192z M194.2,159.7h3.6v7.8h-0.7v-0.7h-2.3v0.8h-0.6V159.7z M194.8,166.2h2.3v-5.9h-2.3V166.2z"/>
<path class="st2" d="M201.2,163.5c0,0.2,0,0.5-0.1,0.7c0.4,0.4,1.4,1.5,1.6,1.8l-0.5,0.5c-0.2-0.4-0.9-1.1-1.3-1.6
	c-0.2,1-0.7,2-1.6,2.7c-0.1-0.1-0.3-0.4-0.4-0.5c1.2-0.9,1.6-2.3,1.7-3.6h-1.7v-0.6h1.7c0-0.2,0-0.5,0-0.7v-1.1h-1.5v-0.6h1.5v-1.7
	l0.8,0.1c0,0.1-0.1,0.1-0.2,0.1v1.5h1.4v0.6h-1.4v1.1c0,0.2,0,0.5,0,0.7h1.6v0.6H201.2z M204.8,165.1c0,0.1-0.1,0.1-0.2,0.1
	c-0.2,1.2-0.7,2.1-2.4,2.7c-0.1-0.1-0.2-0.4-0.4-0.5c1.5-0.4,2-1.3,2.1-2.4L204.8,165.1z M206.2,166.9c0,0.2,0,0.3,0.3,0.3h0.7
	c0.2,0,0.3-0.1,0.3-1.3c0.1,0.1,0.4,0.2,0.6,0.3c0,1.3-0.2,1.7-0.8,1.7h-0.8c-0.7,0-0.8-0.2-0.8-0.9v-2.2h-2.3v-5.5h4.2v5.5h-1.3
	V166.9z M203.9,159.8v1h3v-1H203.9z M203.9,161.4v1.1h3v-1.1H203.9z M203.9,163v1.1h3V163H203.9z"/>
<path class="st2" d="M210.7,166c0,0.1-0.1,0.1-0.2,0.1c-0.3,0.6-0.8,1.3-1.4,1.8c-0.1-0.1-0.3-0.3-0.5-0.4c0.5-0.4,1-1.1,1.3-1.7
	L210.7,166z M209.2,159.2h3.8v6.2h-3.8V159.2z M209.9,159.8v1.3h2.5v-1.3H209.9z M209.9,161.7v1.3h2.5v-1.3H209.9z M209.9,163.5v1.3
	h2.5v-1.3H209.9z M212.3,165.8c0.4,0.5,0.9,1.2,1.1,1.7c-0.1,0-0.1,0.1-0.6,0.3c-0.2-0.5-0.7-1.2-1.1-1.7L212.3,165.8z M214.2,160
	l0.8,0c0,0.1-0.1,0.1-0.2,0.1v5.3h-0.6V160z M216.7,159l0.8,0c0,0.1-0.1,0.1-0.2,0.1v7.8c0,0.5-0.1,0.7-0.4,0.8
	c-0.3,0.1-0.8,0.1-1.8,0.1c0-0.2-0.1-0.5-0.3-0.7c0.4,0,0.7,0,1,0c0.8,0,0.8,0,0.8-0.3V159z"/>
<path class="st2" d="M169.1,174.1c0,0-0.1,0.1-0.1,0.1c-0.5,1.2-1.2,2.3-1.9,3.4c1.1,0.8,2.7,2.3,3.6,3.3l-0.6,0.5
	c-0.9-1-2.4-2.5-3.4-3.3c-0.9,1-2.3,2.5-3.8,3.3c-0.1-0.1-0.3-0.4-0.5-0.5c2.7-1.5,4.8-4.3,5.7-6.4h-4.8v-0.7h5.2l0.1,0L169.1,174.1
	z"/>
<path class="st2" d="M180.2,174.7c0,0-0.1,0.1-0.1,0.1c-0.9,1.4-2.4,2.8-3.9,3.9c0.8,0.6,1.5,1.4,2,1.9l-0.6,0.5
	c-1-1.2-2.9-2.8-4.6-3.8l0.5-0.5c0.7,0.4,1.5,0.9,2.2,1.4c1.3-0.9,2.7-2.2,3.4-3.3h-7.2v-0.7h7.7l0.1-0.1L180.2,174.7z"/>
<path class="st2" d="M181.6,176.8h8.1v0.7H182c-0.1,0.1-0.2,0.2-0.3,0.2L181.6,176.8z"/>
<path class="st2" d="M196.8,178.3c-1-0.5-2.4-1.2-3.4-1.6v4.9h-0.7v-8.5l1,0.1c0,0.1-0.1,0.2-0.3,0.2v2.8l0.1-0.2
	c1.1,0.4,2.7,1.1,3.7,1.6L196.8,178.3z"/>
<path class="st2" d="M206,174.5v6.6h-0.7v-0.5h-6.1v-0.7h6.1v-4.8h-6v-0.7H206z"/>
<path class="st2" d="M208.4,173.9c1,0.3,2.2,0.8,2.9,1.3l-0.4,0.6c-0.7-0.5-1.9-1-2.8-1.4L208.4,173.9z M208.4,180.6
	c3.5-1.1,5.8-3,6.9-5.7c0.2,0.2,0.4,0.3,0.6,0.4c-1.2,2.7-3.6,4.7-6.9,5.9c0,0.1-0.1,0.2-0.1,0.2L208.4,180.6z"/>
<path class="st2" d="M222.7,178.3c-1-0.5-2.4-1.2-3.4-1.6v4.9h-0.7v-8.5l1,0.1c0,0.1-0.1,0.2-0.3,0.2v2.8l0.1-0.2
	c1.1,0.4,2.7,1.1,3.7,1.6L222.7,178.3z"/>
<path class="st2" d="M232.2,176.3c0,0-0.1,0.1-0.1,0.1c-0.8,2.9-2.4,4.4-5.3,5.2c-0.1-0.2-0.3-0.4-0.4-0.6c2.7-0.7,4.3-2,4.9-4.3
	h-6.5V176h6.7l0.1-0.1L232.2,176.3z M231.3,174.2h-5.6v-0.6h5.6V174.2z"/>
<path class="st2" d="M240.5,175c0,0-0.1,0.1-0.1,0.1c-1,3.2-2.6,5.2-5.3,6.6c-0.1-0.2-0.3-0.4-0.5-0.5c2.6-1.2,4.1-3.2,4.9-5.8H236
	c-0.6,0.9-1.3,1.7-2.2,2.4c-0.1-0.1-0.4-0.3-0.6-0.4c1.3-1,2.4-2.5,3.1-4.2l0.9,0.3c0,0.1-0.2,0.1-0.3,0.1c-0.2,0.4-0.4,0.8-0.6,1.2
	h3.4l0.1-0.1L240.5,175z"/>
<path class="st2" d="M247.5,178.3c-1-0.5-2.4-1.2-3.4-1.6v4.9h-0.7v-8.5l1,0.1c0,0.1-0.1,0.2-0.3,0.2v2.8l0.1-0.2
	c1.1,0.4,2.7,1.1,3.7,1.6L247.5,178.3z"/>
<path class="st2" d="M267.9,103.4c0,0.1-0.1,0.1-0.2,0.1c-0.6,1.5-1.7,3-2.7,3.9c-0.1-0.1-0.4-0.4-0.6-0.4c1-0.9,2-2.3,2.7-3.8
	L267.9,103.4z M269,106.6c0,0.1-0.1,0.1-0.2,0.1c-0.5,1.2-1.2,2.7-1.8,3.9c1.4,0,3-0.1,4.6-0.2c-0.5-0.7-1-1.4-1.5-2l0.6-0.3
	c0.9,1,1.9,2.4,2.4,3.3l-0.7,0.4c-0.1-0.2-0.3-0.5-0.5-0.8c-2.4,0.1-5.1,0.3-6.7,0.3c0,0.1-0.1,0.1-0.2,0.1l-0.3-0.8l1.4,0
	c0.7-1.2,1.5-3,1.9-4.3L269,106.6z M270.5,103.1c0.7,1.3,1.9,2.9,2.8,3.7c-0.2,0.1-0.4,0.4-0.5,0.6c-0.9-0.9-2.2-2.6-2.9-4
	L270.5,103.1z"/>
<path class="st2" d="M277.6,104.5v0.5h-3.5v-0.5H277.6z M277.3,108.5v2.9h-2.2v0.5h-0.6v-3.3H277.3z M277.3,105.8v0.5h-2.8v-0.5
	H277.3z M274.5,107.7v-0.5h2.8v0.5H274.5z M277.2,103.2v0.5h-2.7v-0.5H277.2z M276.7,109h-1.7v1.8h1.7V109z M278.7,109
	c-0.1,0.8-0.3,1.8-0.9,2.3l-0.5-0.3c0.5-0.5,0.7-1.3,0.8-2.1L278.7,109z M280.5,103.8c-0.1,0.4-0.2,0.9-0.3,1.3
	c0.5,0.2,0.9,0.5,1.2,0.7l-0.3,0.5c-0.3-0.2-0.7-0.4-1.1-0.7c-0.4,0.7-0.9,1.4-1.8,1.9c-0.1-0.1-0.3-0.4-0.4-0.5
	c0.8-0.4,1.4-1,1.7-1.7c-0.4-0.2-0.9-0.4-1.3-0.6l0.3-0.5c0.4,0.1,0.8,0.3,1.2,0.5c0.1-0.3,0.2-0.7,0.3-1h-1.7v-0.6h4.1l0.3,0l0.4,0
	c-0.1,0.4-0.1,3.3-0.5,3.7c-0.2,0.3-0.5,0.3-0.9,0.3c-0.2,0-0.5,0-0.8,0c0-0.2-0.1-0.4-0.2-0.6c0.5,0,0.7,0,1.2,0
	c0.1,0,0.2,0,0.3-0.1c0.2-0.2,0.3-0.9,0.3-2.8H280.5z M279.8,110.9c0,0.2,0,0.3,0.3,0.3h1c0.3,0,0.3-0.1,0.3-1.1
	c0.1,0.1,0.4,0.2,0.6,0.2c-0.1,1.2-0.2,1.4-0.8,1.4H280c-0.7,0-0.9-0.2-0.9-0.8v-2.3l0.8,0.1c0,0.1-0.1,0.1-0.2,0.1V110.9z
	 M281,108.9c-0.4-0.4-1.1-1-1.7-1.4l0.4-0.4c0.6,0.4,1.4,0.9,1.8,1.3L281,108.9z M282.7,111.3c-0.1-0.7-0.6-1.6-1.1-2.4l0.5-0.2
	c0.5,0.7,1,1.7,1.1,2.3L282.7,111.3z"/>
<path class="st2" d="M288.9,104.6c0,0.1-0.1,0.2-0.2,0.2c-0.4,3-1.4,5.7-3,5.7c-0.8,0-1.6-0.8-1.6-2.4c0-2.3,1.8-4.3,4.4-4.3
	c2.8,0,4,1.8,4,3.7c0,2.3-1.3,3.4-3.7,4c-0.1-0.2-0.3-0.4-0.4-0.6c2.2-0.4,3.4-1.5,3.4-3.4c0-1.6-1-3.1-3.3-3.1c-0.1,0-0.2,0-0.3,0
	L288.9,104.6z M288,104.5c-2,0.2-3.2,1.9-3.2,3.6c0,1,0.4,1.7,0.9,1.7C286.9,109.7,287.7,107.1,288,104.5z"/>
<path class="st2" d="M299.5,108.3c-1-0.5-2.4-1.2-3.4-1.6v4.9h-0.7v-8.5l1,0.1c0,0.1-0.1,0.2-0.3,0.2v2.8l0.1-0.2
	c1.1,0.4,2.7,1.1,3.7,1.6L299.5,108.3z"/>
<path class="st2" d="M303.2,110.5c2.5-0.7,4.4-1.9,5.6-4c0.1,0.2,0.4,0.4,0.5,0.5c-1.3,2.2-3.5,3.5-6.4,4.3c0,0.1-0.1,0.2-0.2,0.2
	l-0.4-0.7l0.1-0.2v-7.2l1,0c0,0.1-0.1,0.2-0.3,0.2V110.5z"/>
<path class="st2" d="M310.8,106.8h8.1v0.7h-7.8c-0.1,0.1-0.2,0.2-0.3,0.2L310.8,106.8z"/>
<path class="st2" d="M327.2,104.8c0,0.1-0.1,0.1-0.1,0.1c-0.4,1.2-0.8,2.3-1.4,3.2c0.4,0.2,0.9,0.5,1.3,0.8l-0.4,0.6
	c-0.4-0.3-0.9-0.6-1.3-0.8c-0.9,1.2-2,2.2-3.5,2.9c-0.1-0.2-0.4-0.4-0.5-0.5c1.4-0.6,2.5-1.6,3.4-2.8c-0.7-0.4-1.5-0.8-2.2-1
	l0.4-0.5c0.7,0.3,1.5,0.6,2.2,1c0.5-0.8,0.9-1.7,1.2-2.6h-3.2c-0.6,1.1-1.4,2-2.2,2.7c-0.1-0.1-0.4-0.3-0.5-0.4c1.3-1,2.4-2.7,3-4.3
	l0.9,0.3c0,0.1-0.2,0.1-0.3,0.1c-0.1,0.4-0.3,0.7-0.5,1.1h3.2l0.1,0L327.2,104.8z M326.3,102.9c0.5,0.4,1,0.9,1.3,1.4l-0.4,0.3
	c-0.3-0.4-0.8-1-1.3-1.4L326.3,102.9z M327.6,102.5c0.5,0.4,1,0.9,1.3,1.3l-0.4,0.3c-0.3-0.4-0.9-1-1.3-1.3L327.6,102.5z"/>
<path class="st2" d="M329.5,106.8h8.1v0.7h-7.8c-0.1,0.1-0.2,0.2-0.3,0.2L329.5,106.8z"/>
<path class="st2" d="M276.9,118.7c0,0-0.1,0.1-0.1,0.1c-0.9,1.4-2.4,2.8-3.9,3.9c0.8,0.6,1.5,1.4,2,1.9l-0.6,0.5
	c-1-1.2-2.9-2.8-4.6-3.8l0.5-0.5c0.7,0.4,1.5,0.9,2.2,1.4c1.3-0.9,2.7-2.2,3.4-3.3h-7.2v-0.7h7.7l0.1-0.1L276.9,118.7z"/>
<path class="st2" d="M280.3,118.6c0,0.1-0.1,0.1-0.2,0.2c-0.1,2.6-0.3,5-1.8,6.8c-0.2-0.1-0.4-0.3-0.6-0.4c1.5-1.6,1.6-4,1.7-6.6
	L280.3,118.6z M282.8,124.2c1.6-0.8,2.7-2.2,3.2-3.9c0.1,0.1,0.4,0.3,0.6,0.4c-0.7,2-1.9,3.4-4,4.4c0,0.1-0.1,0.2-0.2,0.2l-0.5-0.6
	l0.1-0.1v-7.2l0.9,0c0,0.1-0.1,0.2-0.2,0.2V124.2z"/>
<path class="st2" d="M295.9,121.3h-3.4c-0.2,1.9-0.8,3.3-2.7,4.3c-0.1-0.2-0.4-0.3-0.5-0.5c1.8-1,2.4-2.2,2.6-3.9h-4v-0.6h4
	c0-0.6,0-1.3,0.1-2.1c-1,0.2-2.3,0.4-3.4,0.6c0-0.2-0.1-0.4-0.2-0.6c3.4-0.4,5.4-1.1,6-1.3l0.5,0.6c0,0-0.1,0-0.1,0c0,0-0.1,0-0.1,0
	c-0.5,0.2-1.4,0.5-2.2,0.6l0.3,0c0,0.1-0.1,0.1-0.2,0.2c0,0.7,0,1.4-0.1,2h3.3V121.3z"/>
<path class="st2" d="M300.7,117.1l1,0.1c0,0.1-0.1,0.2-0.3,0.2v1.5h2.6l0.1-0.1l0.6,0.3c0,0-0.1,0.1-0.1,0.1c-0.4,3.4-1.9,5.4-5,6.5
	c-0.1-0.2-0.3-0.4-0.5-0.6c2.9-1,4.2-2.8,4.6-5.5h-5.5v2.4h-0.7v-3.1h3.1V117.1z"/>
<path class="st2" d="M312.7,121.1h-2.3l0,3.6c0,0.8-0.7,0.9-1.8,0.8c0-0.1-0.1-0.4-0.1-0.5c0.5,0,0.9,0,1.1,0c0.2,0,0.3-0.2,0.3-0.3
	l0-3.1c-0.8,1.1-2.1,2.2-3.3,2.9c-0.1-0.1-0.3-0.3-0.4-0.4c1.2-0.6,2.6-1.8,3.3-2.9h-3v-0.6h3.3l0-1.7l0.8,0c0,0.1-0.1,0.1-0.2,0.1
	l0,1.5h2.3V121.1z"/>
<path class="st2" d="M315.8,124.5c2.5-0.7,4.4-1.9,5.6-4c0.1,0.2,0.4,0.4,0.5,0.5c-1.3,2.2-3.5,3.5-6.4,4.3c0,0.1-0.1,0.2-0.2,0.2
	l-0.4-0.7l0.1-0.2v-7.2l1,0c0,0.1-0.1,0.2-0.3,0.2V124.5z"/>
<path class="st2" d="M324,119.7c0.3,0.6,0.6,1.5,0.7,2.1l-0.5,0.1c-0.1-0.6-0.4-1.5-0.7-2.1L324,119.7z M329.8,119.8
	c0,0.1-0.1,0.1-0.2,0.1c-0.8,2.8-2.2,4.6-4.6,5.5c-0.1-0.1-0.3-0.3-0.4-0.4c2.3-0.9,3.7-2.5,4.4-5.4L329.8,119.8z M326.4,119.2
	c0.2,0.7,0.4,1.6,0.5,2.2l-0.6,0.1c-0.1-0.6-0.2-1.5-0.5-2.2L326.4,119.2z"/>
<path class="st2" d="M337,122.3c-1-0.5-2.4-1.2-3.4-1.6v4.9h-0.7v-8.5l1,0.1c0,0.1-0.1,0.2-0.3,0.2v2.8l0.1-0.2
	c1.1,0.4,2.7,1.1,3.7,1.6L337,122.3z"/>
<path class="st2" d="M286.2,132.3c0,0-0.1,0.1-0.1,0.1c-0.8,3.7-2.7,5.9-5.9,7c-0.1-0.2-0.3-0.4-0.4-0.6c3-1,4.9-3.2,5.5-6.1h-6.4
	v-0.7h6.6l0.1-0.1L286.2,132.3z"/>
<path class="st2" d="M293.3,133.4c0,0-0.1,0.1-0.2,0.1c0,0-0.1,0-0.1,0c-0.6,0.6-1.4,1.3-2.1,1.8c0.1,0,0.2,0.1,0.2,0.1
	c0,0-0.1,0.1-0.2,0.1v4.2h-0.6v-4.1c-0.8,0.6-2.2,1.4-3.2,1.9c-0.1-0.1-0.2-0.4-0.4-0.5c1.7-0.8,4.2-2.2,5.9-4.1L293.3,133.4z"/>
<path class="st2" d="M302.7,132c0,0-0.1,0.1-0.1,0.1c-0.5,1.2-1.4,2.3-2.3,3.1c-0.1-0.1-0.4-0.3-0.6-0.4c0.9-0.7,1.6-1.6,1.9-2.4h-7
	v-0.7h7.4l0.1,0L302.7,132z M298.9,133.8c0,0.1-0.1,0.1-0.2,0.2c-0.3,2.3-1.1,4.5-3.1,5.7c-0.1-0.1-0.4-0.3-0.6-0.4
	c2-1.1,2.7-3.1,2.9-5.5L298.9,133.8z"/>
<path class="st2" d="M304.5,133.7c0.3,0.6,0.6,1.5,0.7,2.1l-0.5,0.1c-0.1-0.6-0.4-1.5-0.7-2.1L304.5,133.7z M310.3,133.8
	c0,0.1-0.1,0.1-0.2,0.1c-0.8,2.8-2.2,4.6-4.6,5.5c-0.1-0.1-0.3-0.3-0.4-0.4c2.3-0.9,3.7-2.5,4.4-5.4L310.3,133.8z M306.9,133.2
	c0.2,0.7,0.4,1.6,0.5,2.2l-0.6,0.1c-0.1-0.6-0.2-1.5-0.5-2.2L306.9,133.2z"/>
<path class="st2" d="M317.4,136.3c-1-0.5-2.4-1.2-3.4-1.6v4.9h-0.7v-8.5l1,0.1c0,0.1-0.1,0.2-0.3,0.2v2.8l0.1-0.2
	c1.1,0.4,2.7,1.1,3.7,1.6L317.4,136.3z"/>
<path class="st2" d="M321.4,134.7v3.2c0.8,1.2,2.1,1.2,4,1.2c1.1,0,2.3,0,3.1-0.1c-0.1,0.1-0.2,0.4-0.2,0.6c-0.7,0-1.7,0-2.7,0
	c-2.1,0-3.5,0-4.4-1.2c-0.5,0.4-1.1,0.9-1.5,1.2c0,0.1,0,0.1-0.1,0.2l-0.4-0.7c0.5-0.3,1.1-0.7,1.6-1.2v-2.6h-1.5v-0.6H321.4z
	 M319.9,131.1c0.6,0.4,1.4,1.1,1.7,1.6l-0.5,0.4c-0.3-0.5-1-1.2-1.7-1.7L319.9,131.1z M325.4,133.3c-0.6-0.3-1.4-0.6-2-0.9l0.4-0.4
	c0.4,0.2,0.9,0.4,1.4,0.6c0.5-0.2,1.1-0.5,1.5-0.8h-4.3v-0.5h4.9l0.1,0l0.5,0.3c0,0-0.1,0.1-0.2,0.1c-0.5,0.4-1.2,0.9-2,1.3
	c0.3,0.1,0.6,0.3,0.8,0.4h1.3v4.4c0,0.6-0.2,0.7-1.7,0.7c0-0.2-0.1-0.4-0.2-0.6c0.3,0,0.6,0,0.8,0c0.4,0,0.5,0,0.5-0.2v-1h-1.8v1.6
	h-0.6v-1.6h-1.8v1.7h-0.6v-5.1H325.4z M324.8,133.8h-1.8v0.9h1.8V133.8z M323.1,136.2h1.8v-1h-1.8V136.2z M327.2,134.8v-0.9h-1.8
	v0.9H327.2z M325.4,136.2h1.8v-1h-1.8V136.2z"/>
<path class="st2" d="M330.9,134v-1.6c-0.5,0.3-1,0.6-1.4,0.8c-0.1-0.1-0.3-0.3-0.4-0.4c1-0.4,2.2-1.2,2.9-2.1l0.7,0.3
	c0,0.1-0.1,0.1-0.2,0.1c-0.3,0.3-0.6,0.6-1,0.9l0.3,0.1c0,0.1-0.1,0.1-0.2,0.1v1.8H330.9z M332.8,138.8c0,0-0.1,0.1-0.2,0.1
	c-0.8,0.4-2,0.8-2.9,1c-0.1-0.1-0.3-0.4-0.4-0.5c1-0.2,2.2-0.6,2.9-1L332.8,138.8z M330.4,138.3v-4h6.4v4H330.4z M331,134.8v0.7h5.1
	v-0.7H331z M331,135.9v0.7h5.1v-0.7H331z M331,137.1v0.7h5.1v-0.7H331z M336.7,133.3c0.4,0,0.5-0.1,0.6-0.9c0.1,0.1,0.4,0.2,0.6,0.2
	c-0.1,1-0.3,1.2-1.1,1.2h-2.3c-1,0-1.3-0.2-1.3-0.9v-2.1l0.8,0.1c0,0.1-0.1,0.1-0.2,0.1v0.9c1.1-0.2,2.3-0.5,3-0.8l0.5,0.5
	c0,0,0,0-0.1,0c0,0-0.1,0-0.1,0c-0.8,0.3-2.1,0.6-3.3,0.8v0.5c0,0.3,0.1,0.3,0.7,0.3H336.7z M337.2,139.9c-0.6-0.3-1.7-0.7-2.8-1.1
	l0.5-0.3c1.1,0.3,2.3,0.8,3,1.1L337.2,139.9z"/>
<path class="st2" d="M295.5,147.3c0,0-0.1,0.1-0.2,0.1c-0.4,1.1-1.2,2.4-2,3.2c-0.1-0.1-0.4-0.3-0.6-0.4c0.7-0.7,1.3-1.6,1.7-2.4
	l-3.7,1v2.5c0,1,0.6,1.3,1.4,1.3h1.6c0.4,0,1.1-0.1,1.5-0.1c0,0.2,0,0.5,0,0.7c-0.4,0-1.1,0.1-1.4,0.1H292c-1.2,0-2-0.6-2-1.9V149
	l-2.5,0.6l-0.2-0.7l2.6-0.7v-3l0.9,0c0,0.1-0.1,0.2-0.2,0.2v2.5l4.1-1.1l0.1-0.1L295.5,147.3z"/>
<path class="st2" d="M301.4,150.5l0.4,3.1l-0.7,0.1l-0.3-3.1l-3.7,0.5l-0.1-0.6l3.7-0.5l-0.3-2.2l-3.1,0.4l-0.1-0.7l3.1-0.4
	l-0.2-1.9l1,0c0,0.1-0.1,0.2-0.2,0.2l0.2,1.7l3-0.4l0.1,0.7l-3,0.4l0.3,2.2l3.7-0.5l0.1,0.6L301.4,150.5z"/>
<path class="st2" d="M313,152.3v0.6h-6.6v-0.6h4c0.2-1,0.4-2.9,0.5-3.9h-3.7v-0.6h3.9l0.1,0l0.5,0.2c0,0-0.1,0.1-0.1,0.1
	c-0.1,1-0.4,3.2-0.6,4.2H313z"/>
<path class="st2" d="M315.2,150.5v-4.7l0.9,0.1c0,0.1-0.1,0.2-0.2,0.2v4.5H315.2z M320.6,145.4c0,0.1-0.1,0.1-0.2,0.2v3.1
	c0,2-0.7,3.9-3.5,5c-0.1-0.1-0.3-0.4-0.5-0.5c2.7-1,3.3-2.7,3.3-4.5v-3.3L320.6,145.4z"/>
<path class="st2" d="M330.4,148.9h-3.3l0.2,0c0,0.1-0.1,0.1-0.2,0.1c-0.3,1.8-0.9,3.4-3,4.5c-0.1-0.1-0.4-0.4-0.5-0.5
	c2-1,2.6-2.3,2.8-4.1h-3.8v-0.7h7.8V148.9z M329.5,146.2h-6v-0.7h6V146.2z"/>
<path class="st2" d="M337.6,147.4c0,0-0.1,0.1-0.2,0.1c0,0-0.1,0-0.1,0c-0.6,0.6-1.4,1.3-2.1,1.8c0.1,0,0.2,0.1,0.2,0.1
	c0,0-0.1,0.1-0.2,0.1v4.2h-0.6v-4.1c-0.8,0.6-2.2,1.4-3.2,1.9c-0.1-0.1-0.2-0.4-0.4-0.5c1.7-0.8,4.2-2.2,5.9-4.1L337.6,147.4z"/>
<path class="st2" d="M311.4,162.7v3.2c0.8,1.2,2.2,1.2,3.9,1.2c1.1,0,2.5,0,3.3-0.1c-0.1,0.1-0.2,0.4-0.2,0.6c-0.7,0-1.8,0-2.7,0
	c-2.2,0-3.5,0-4.5-1.2c-0.4,0.4-0.9,0.9-1.2,1.2c0,0.1,0,0.1-0.1,0.1l-0.4-0.7c0.4-0.3,0.9-0.8,1.4-1.2v-2.7h-1.3v-0.6H311.4z
	 M310.1,159.1c0.6,0.5,1.3,1.2,1.5,1.6l-0.5,0.4c-0.3-0.5-0.9-1.2-1.5-1.7L310.1,159.1z M318.4,164.5v0.5h-6.6v-0.5h1.8v-1h-1.4V163
	h1.4v-0.8l0.8,0.1c0,0.1-0.1,0.1-0.2,0.1v0.6h1.6v-0.8l0.8,0.1c0,0.1-0.1,0.1-0.2,0.1v0.6h1.5v0.5h-1.5v1H318.4z M314,160.4v-0.7h-2
	v-0.5h2.5v1.6h-1.7v0.5c0,0.2,0,0.2,0.4,0.2h1.1c0.2,0,0.3-0.1,0.3-0.5c0.1,0.1,0.3,0.1,0.5,0.2c-0.1,0.6-0.2,0.8-0.7,0.8h-1.2
	c-0.7,0-0.9-0.1-0.9-0.7v-1H314z M314.8,165.4c0,0.1-0.1,0.1-0.2,0.1c-0.5,0.4-1.3,0.9-2,1.2c-0.1-0.1-0.3-0.3-0.4-0.4
	c0.7-0.3,1.5-0.7,2-1.2L314.8,165.4z M314.3,163.6v1h1.6v-1H314.3z M317.3,160.4v-0.7h-2.1v-0.5h2.7v1.6H316v0.5
	c0,0.2,0.1,0.2,0.4,0.2h1.2c0.3,0,0.3-0.1,0.3-0.5c0.1,0.1,0.4,0.1,0.5,0.2c-0.1,0.7-0.2,0.8-0.8,0.8h-1.3c-0.7,0-0.9-0.1-0.9-0.7
	v-1H317.3z M316.1,165.1c0.8,0.4,1.7,0.9,2.2,1.3l-0.6,0.3c-0.5-0.4-1.3-0.9-2.1-1.3L316.1,165.1z"/>
<path class="st2" d="M322.6,163.7l-1.2,0.4v2.9c0,0.7-0.3,0.8-1.6,0.8c0-0.2-0.1-0.4-0.2-0.6c0.5,0,0.9,0,1,0c0.1,0,0.2,0,0.2-0.2
	v-2.7c-0.5,0.2-0.9,0.3-1.2,0.4c0,0.1,0,0.1-0.1,0.2l-0.3-0.8c0.4-0.1,1-0.3,1.6-0.5v-2.3h-1.5v-0.6h1.5v-2l0.8,0
	c0,0.1-0.1,0.1-0.2,0.1v1.8h1.1v0.6h-1.1v2.1l1.1-0.3L322.6,163.7z M327.8,163.3h-2c0.4,1.8,1.2,3.4,2.5,4c-0.2,0.1-0.4,0.4-0.5,0.6
	c-1.4-0.8-2.3-2.5-2.7-4.6h-1.3c0,1.5-0.3,3.4-1.5,4.6c-0.1-0.1-0.4-0.4-0.5-0.4c1.3-1.3,1.4-3.3,1.4-4.8v-3.4h4.6V163.3z
	 M327.2,159.9h-3.3v2.7h3.3V159.9z"/>
<path class="st2" d="M337.3,162.5l0.4,0.2c0,0,0,0.1-0.1,0.1c-0.4,1.4-1,2.5-1.9,3.3c0.7,0.6,1.5,1,2.4,1.3
	c-0.1,0.1-0.3,0.4-0.4,0.6c-1-0.3-1.8-0.8-2.5-1.4c-0.8,0.7-1.7,1.1-2.7,1.4c-0.1-0.2-0.2-0.4-0.4-0.6c0.9-0.2,1.9-0.7,2.6-1.3
	c-0.7-0.7-1.2-1.6-1.5-2.6l0.6-0.2c0.3,0.9,0.8,1.7,1.4,2.4c0.7-0.7,1.2-1.5,1.6-2.5h-4v-0.6h2.2V161h-2.3v0.6h-1.4v1
	c0.3,0.4,1.2,1.4,1.4,1.7l-0.4,0.5c-0.2-0.3-0.6-1-1-1.4v4.6h-0.6V163c-0.4,1.2-0.9,2.3-1.4,3.1c-0.1-0.2-0.2-0.4-0.4-0.6
	c0.7-0.8,1.4-2.4,1.7-3.8h-1.5V161h1.6v-2.1l0.8,0.1c0,0.1-0.1,0.1-0.2,0.1v2h1.4v-0.6h2.3v-1.6l0.8,0.1c0,0.1-0.1,0.1-0.2,0.1v1.4
	h2.4v0.6h-2.4v1.6h1.5L337.3,162.5z"/>
<path class="st2" d="M311.5,176.7v3.2c0.8,1.2,2.2,1.2,4,1.2c1.1,0,2.3,0,3.1-0.1c-0.1,0.1-0.2,0.4-0.2,0.6c-0.7,0-1.7,0-2.7,0
	c-2.1,0-3.5,0-4.5-1.2c-0.4,0.4-0.9,0.9-1.3,1.2c0,0.1,0,0.1-0.1,0.2l-0.4-0.7c0.4-0.3,0.9-0.7,1.4-1.2v-2.7h-1.3v-0.6H311.5z
	 M310.2,173.1c0.6,0.5,1.3,1.1,1.6,1.6l-0.5,0.4c-0.3-0.5-1-1.2-1.6-1.7L310.2,173.1z M318.5,175.2H316c0.6,0.7,1.7,1.4,2.6,1.7
	c-0.1,0.1-0.3,0.3-0.4,0.5c-0.9-0.4-2-1.1-2.6-1.9v1.5H315v-1.4c-0.7,0.8-1.8,1.6-2.7,2c-0.1-0.1-0.3-0.4-0.4-0.5c1-0.3,2-1,2.7-1.8
	h-2.4v-0.5h2.8v-0.8c-0.8,0.1-1.5,0.1-2.3,0.2c0-0.1-0.1-0.3-0.2-0.5c1.7-0.1,3.8-0.3,4.9-0.6l0.5,0.5c0,0-0.1,0-0.1,0
	c0,0,0,0-0.1,0c-0.6,0.1-1.3,0.2-2.1,0.3v0.8h2.9V175.2z M315.8,178.8c0.1-0.4,0.2-0.8,0.3-1.2h-1.3c-0.2,1.3-0.7,2.3-2.3,2.9
	c-0.1-0.1-0.2-0.4-0.4-0.5c1.4-0.4,1.8-1.3,2-2.4H313v-0.5h3.3l0.1,0l0.4,0.1c0,0,0,0.1,0,0.1c0,0.2-0.1,0.4-0.1,0.7h1.1l0.1,0
	l0.4,0.1l0,0.2c-0.2,2-0.4,2.1-1.4,2.1c-0.2,0-0.6,0-0.9,0c0-0.2-0.1-0.4-0.2-0.5c0.5,0,1,0.1,1.1,0.1c0.2,0,0.3,0,0.3-0.1
	c0.1-0.1,0.2-0.5,0.3-1.3h-1c0,0.1,0,0.2-0.1,0.3L315.8,178.8z"/>
<path class="st2" d="M322.8,179.3h-2.6v0.9h-0.6v-6.8h3.2V179.3z M322.2,174h-2v2h2V174z M320.3,178.7h2v-2.1h-2V178.7z M328,173.3
	v7.7c0,0.4-0.1,0.7-0.4,0.8c-0.3,0.1-0.8,0.1-1.7,0.1c0-0.2-0.1-0.5-0.2-0.7c0.3,0,0.7,0,0.9,0c0.7,0,0.8,0,0.8-0.3v-2.3h-3
	c-0.2,1.2-0.7,2.4-1.9,3.2c-0.1-0.1-0.3-0.4-0.5-0.4c1.7-1.3,1.9-3.2,1.9-4.7v-3.5H328z M324.4,176.8c0,0.4,0,0.9-0.1,1.3h3v-1.8
	h-2.9V176.8z M327.3,173.9h-2.9v1.8h2.9V173.9z"/>
<path class="st2" d="M330,174.8c0,0.9-0.2,1.9-0.5,2.6l-0.5-0.3c0.3-0.6,0.5-1.6,0.5-2.4L330,174.8z M330.4,172.8l0.8,0.1
	c0,0.1-0.1,0.1-0.2,0.1v8.9h-0.6V172.8z M331.7,174.4c0.3,0.5,0.7,1.1,0.8,1.5l-0.5,0.3c-0.1-0.4-0.5-1.1-0.8-1.6L331.7,174.4z
	 M335.4,180.9h2.6v0.6H332v-0.6h2.8v-2.4h-2.1v-0.6h2.1v-2.2h-1.5c-0.2,0.6-0.4,1.2-0.7,1.6c-0.1-0.1-0.4-0.2-0.5-0.3
	c0.5-0.9,0.9-2.3,1.1-3.8l0.8,0.2c0,0.1-0.1,0.1-0.2,0.1c-0.1,0.5-0.2,1.1-0.4,1.6h1.3v-2.3l0.8,0.1c0,0.1-0.1,0.1-0.2,0.1v2.1h2.3
	v0.6h-2.3v2.2h2v0.6h-2V180.9z"/>
<path class="st0" d="M393,29.9c0,0-0.1,0.1-0.1,0.1c-0.6,3-2.2,4.7-4.7,5.6c-0.1-0.1-0.3-0.3-0.4-0.5c2.4-0.8,3.9-2.5,4.4-4.9h-5.1
	v-0.5h5.3l0.1-0.1L393,29.9z"/>
<path class="st0" d="M398.7,30.7c0,0-0.1,0.1-0.1,0.1c0,0-0.1,0-0.1,0c-0.5,0.5-1.1,1-1.7,1.4c0.1,0,0.1,0.1,0.2,0.1
	c0,0-0.1,0.1-0.1,0.1v3.4h-0.5v-3.3c-0.7,0.5-1.7,1.1-2.6,1.5c-0.1-0.1-0.2-0.3-0.3-0.4c1.3-0.6,3.4-1.8,4.7-3.3L398.7,30.7z"/>
<path class="st0" d="M406.2,29.6c0,0-0.1,0.1-0.1,0.1c-0.4,1-1.1,1.9-1.9,2.5c-0.1-0.1-0.3-0.2-0.5-0.3c0.7-0.5,1.3-1.3,1.6-1.9
	h-5.6v-0.5h5.9l0.1,0L406.2,29.6z M403.1,31c0,0.1-0.1,0.1-0.2,0.1c-0.2,1.8-0.9,3.6-2.5,4.5c-0.1-0.1-0.3-0.3-0.5-0.4
	c1.6-0.9,2.2-2.5,2.4-4.4L403.1,31z"/>
<path class="st0" d="M407.6,31c0.2,0.5,0.5,1.2,0.6,1.7l-0.4,0.1c-0.1-0.5-0.3-1.2-0.6-1.7L407.6,31z M412.3,31
	c0,0.1-0.1,0.1-0.2,0.1c-0.6,2.3-1.8,3.7-3.7,4.5c-0.1-0.1-0.2-0.3-0.3-0.4c1.9-0.7,2.9-2,3.5-4.4L412.3,31z M409.5,30.6
	c0.2,0.5,0.3,1.3,0.4,1.8l-0.5,0.1c0-0.5-0.2-1.2-0.4-1.8L409.5,30.6z"/>
<path class="st0" d="M418,33c-0.8-0.4-1.9-0.9-2.7-1.3v3.9h-0.6v-6.8l0.8,0c0,0.1-0.1,0.1-0.2,0.2v2.3l0.1-0.2
	c0.9,0.3,2.1,0.9,2.9,1.3L418,33z"/>
<path class="st0" d="M426.1,30.7v0.5h-1.9c0,0-0.1,0.1-0.1,0.1c-0.2,1.8-1,3.4-2.6,4.4c-0.1-0.1-0.3-0.3-0.5-0.4
	c1.6-0.9,2.3-2.3,2.5-4.1h-2.2c-0.4,0.6-0.8,1.2-1.2,1.6c-0.1-0.1-0.3-0.2-0.5-0.3c0.8-0.7,1.8-2.3,2.1-3.7l0.8,0.2
	c0,0.1-0.1,0.1-0.2,0.1c-0.2,0.5-0.4,1.1-0.7,1.5H426.1z M424.5,29c0.4,0.3,0.8,0.8,1,1.1l-0.3,0.2c-0.2-0.4-0.6-0.8-1-1.1L424.5,29
	z M425.6,28.5c0.4,0.3,0.8,0.8,1,1.1l-0.3,0.2c-0.2-0.4-0.6-0.8-1-1.1L425.6,28.5z"/>
<path class="st0" d="M427.3,31.9h6.5v0.6h-6.2c0,0.1-0.1,0.1-0.3,0.1L427.3,31.9z"/>
<path class="st0" d="M439.5,33c-0.8-0.4-1.9-0.9-2.7-1.3v3.9h-0.6v-6.8l0.8,0c0,0.1-0.1,0.1-0.2,0.2v2.3l0.1-0.2
	c0.9,0.3,2.1,0.9,2.9,1.3L439.5,33z"/>
<path class="st0" d="M443.9,28.8l0.8,0c0,0.1-0.1,0.1-0.2,0.2v1.2h2.1l0.1,0l0.5,0.2c0,0-0.1,0.1-0.1,0.1c-0.4,2.7-1.5,4.3-4,5.2
	c-0.1-0.1-0.2-0.3-0.4-0.5c2.3-0.8,3.4-2.3,3.7-4.5H442v1.9h-0.5v-2.5h2.5V28.8z"/>
<path class="st0" d="M452.7,31.1v0.5h-1.9v3.1h2.4v0.5H448v-0.5h2.4v-3.1h-1.9v-0.5H452.7z"/>
<path class="st0" d="M460.7,29.4c0,0-0.1,0.1-0.1,0.1c0,0,0,0-0.1,0c-0.6,0.6-1.5,1.3-2.2,1.9c0.1,0,0.2,0.1,0.2,0.1
	c0,0-0.1,0.1-0.2,0.1v4.2h-0.6v-4c-0.8,0.6-1.9,1.2-3,1.7c-0.1-0.1-0.2-0.3-0.3-0.4c2.1-1,4.5-2.7,5.7-4L460.7,29.4z"/>
<path class="st0" d="M465.5,30.1c0,0.1-0.1,0.1-0.2,0.1c-0.3,2.4-1.1,4.6-2.4,4.6c-0.7,0-1.3-0.7-1.3-1.9c0-1.9,1.5-3.5,3.5-3.5
	c2.3,0,3.2,1.4,3.2,3c0,1.9-1.1,2.8-3,3.2c-0.1-0.1-0.2-0.3-0.3-0.5c1.8-0.3,2.7-1.2,2.7-2.7c0-1.3-0.8-2.5-2.7-2.5
	c-0.1,0-0.2,0-0.2,0L465.5,30.1z M464.8,30c-1.6,0.2-2.6,1.5-2.6,2.9c0,0.8,0.4,1.4,0.7,1.4C463.9,34.2,464.6,32.1,464.8,30z"/>
<path class="st0" d="M476.3,29.7h-2.4c0,0.1-0.1,0.1-0.2,0.1c-0.2,0.3-0.4,0.7-0.6,1l0.2,0.1c0,0-0.1,0.1-0.2,0.1v5h-0.5v-4.5
	c-0.8,1-1.8,1.9-3,2.6c-0.1-0.1-0.2-0.3-0.4-0.4c1.6-0.9,3-2.4,3.8-3.9h-3.6v-0.5h6.8V29.7z M476.1,34c-0.6-0.6-1.8-1.4-2.7-2
	l0.4-0.4c0.9,0.5,2.1,1.4,2.7,1.9L476.1,34z"/>
<path class="st0" d="M480.6,28.8c0,0.1-0.1,0.1-0.2,0.1c-0.1,0.3-0.2,0.7-0.3,1h4.1v0.5h-4.4c-0.3,0.6-0.6,1.1-0.9,1.6l0.1,0
	c0,0.1-0.1,0.1-0.2,0.1v3.8h-0.5v-3.2c-0.3,0.3-0.6,0.6-0.9,0.8c-0.1-0.1-0.2-0.4-0.3-0.5c0.5-0.3,0.9-0.7,1.2-1.2v-0.1l0,0
	c0.4-0.5,0.7-1,0.9-1.5h-2v-0.5h2.2c0.2-0.4,0.3-0.8,0.4-1.3L480.6,28.8z M482,32.9v2.3h2.2v0.5h-4.8v-0.5h2.1v-2.3h-1.8v-0.5h1.8
	v-1.6l0.7,0c0,0.1,0,0.1-0.1,0.1v1.4h1.8v0.5H482z"/>
<path class="st0" d="M390.3,44.4V47c0.6,0.9,1.8,0.9,3.2,0.9c0.9,0,1.9,0,2.5-0.1c-0.1,0.1-0.1,0.4-0.2,0.5c-0.5,0-1.4,0-2.2,0
	c-1.7,0-2.8,0-3.6-1c-0.4,0.4-0.7,0.7-1,1c0,0.1,0,0.1-0.1,0.1l-0.3-0.6c0.3-0.3,0.7-0.6,1.1-0.9v-2.1h-1v-0.5H390.3z M389.2,41.5
	c0.5,0.4,1,0.9,1.3,1.3l-0.4,0.3c-0.2-0.4-0.8-1-1.3-1.3L389.2,41.5z M395.9,43.2h-2c0.5,0.6,1.3,1.1,2.1,1.3
	c-0.1,0.1-0.2,0.3-0.3,0.4c-0.8-0.3-1.6-0.9-2.1-1.5v1.2h-0.5v-1.2c-0.6,0.7-1.4,1.3-2.2,1.6c-0.1-0.1-0.2-0.3-0.3-0.4
	c0.8-0.3,1.6-0.8,2.2-1.4h-1.9v-0.4h2.3v-0.6c-0.6,0.1-1.2,0.1-1.8,0.1c0-0.1-0.1-0.3-0.1-0.4c1.4-0.1,3-0.3,3.9-0.5l0.4,0.4
	c0,0,0,0-0.1,0c0,0,0,0-0.1,0c-0.4,0.1-1.1,0.2-1.7,0.3v0.7h2.3V43.2z M393.8,46.1c0.1-0.3,0.1-0.6,0.2-0.9h-1
	c-0.2,1-0.5,1.8-1.8,2.3c-0.1-0.1-0.2-0.3-0.3-0.4c1.1-0.4,1.5-1,1.6-1.9h-1v-0.4h2.7l0.1,0l0.3,0.1c0,0,0,0.1,0,0.1
	c0,0.1-0.1,0.3-0.1,0.6h0.9l0.1,0l0.3,0.1l0,0.1c-0.2,1.6-0.3,1.7-1.1,1.7c-0.2,0-0.4,0-0.7,0c0-0.1-0.1-0.3-0.1-0.4
	c0.4,0,0.8,0,0.9,0c0.1,0,0.2,0,0.3-0.1c0.1-0.1,0.2-0.4,0.3-1h-0.8c0,0.1,0,0.2-0.1,0.3L393.8,46.1z"/>
<path class="st0" d="M399.4,46.5h-2.1v0.8h-0.5v-5.5h2.6V46.5z M398.9,42.3h-1.6v1.6h1.6V42.3z M397.3,46h1.6v-1.7h-1.6V46z
	 M403.5,41.6v6.2c0,0.4-0.1,0.5-0.3,0.6c-0.2,0.1-0.7,0.1-1.4,0.1c0-0.1-0.1-0.4-0.2-0.5c0.3,0,0.5,0,0.7,0c0.6,0,0.6,0,0.6-0.2V46
	h-2.4c-0.2,0.9-0.6,1.9-1.5,2.6c-0.1-0.1-0.3-0.3-0.4-0.4c1.4-1,1.5-2.6,1.5-3.8v-2.8H403.5z M400.7,44.5c0,0.3,0,0.7-0.1,1.1h2.4
	v-1.5h-2.3V44.5z M403,42.1h-2.3v1.4h2.3V42.1z"/>
<path class="st0" d="M404.5,42.4c0.6,0,5.4-0.4,6.4-0.4l0,0.6c-0.1,0-0.2,0-0.3,0c-0.5,0-0.8,0.1-1.3,0.4c-1.2,0.7-2.3,2-2.3,3
	c0,1.1,0.8,1.7,2.7,2l-0.3,0.5c-2.2-0.3-3.1-1.2-3.1-2.5c0-1.1,1.1-2.4,2.5-3.3c-0.9,0.1-3.2,0.2-4.2,0.3c0,0.1-0.1,0.1-0.2,0.1
	L404.5,42.4z M409.5,43.9c0.4,0.3,0.8,0.7,1.1,1.1l-0.3,0.2c-0.2-0.3-0.7-0.8-1-1.1L409.5,43.9z M410.4,43.2
	c0.4,0.3,0.8,0.7,1.1,1.1l-0.3,0.2c-0.2-0.3-0.7-0.8-1-1.1L410.4,43.2z"/>
<path class="st0" d="M412.7,48.1c-0.2-0.6-0.3-1.7-0.3-2.8c0-1,0.2-2.3,0.4-3.7l0.8,0.1c0,0.1-0.1,0.1-0.2,0.1
	c-0.3,1.1-0.5,2.5-0.5,3.4c0,0.6,0,1.2,0.1,1.5c0.2-0.5,0.5-1.2,0.6-1.6l0.4,0.3c-0.3,0.5-0.8,1.7-0.8,2.1c0,0.1,0,0.2,0.1,0.4
	L412.7,48.1z M414.7,43.5c0.7,0,1.3,0,2,0c0-0.7-0.1-1.3-0.1-1.8l0.8,0c0,0.1-0.1,0.1-0.2,0.2c0,0.5,0,1,0,1.6
	c0.6-0.1,1.1-0.2,1.5-0.3l0.1,0.5c-0.4,0.1-0.9,0.2-1.6,0.3c0,0.9,0.1,1.8,0.1,2.3c0.6,0.2,1.2,0.6,1.6,1l-0.3,0.5
	c-0.3-0.3-0.8-0.7-1.3-0.9c0,0.7-0.1,1.4-1.3,1.4c-0.9,0-1.5-0.4-1.5-1.1c0-0.8,0.8-1.2,1.5-1.2c0.2,0,0.5,0,0.7,0.1
	c0-0.5-0.1-1.3-0.1-2.1c-0.2,0-0.6,0-0.8,0h-1.2L414.7,43.5z M416.8,46.6c-0.2-0.1-0.5-0.1-0.8-0.1c-0.5,0-1,0.2-1,0.7
	c0,0.4,0.5,0.7,1,0.7c0.6,0,0.8-0.3,0.8-0.9L416.8,46.6z"/>
<path class="st0" d="M422.8,41.5c0,0.1-0.1,0.1-0.2,0.1c-0.1,0.3-0.1,0.8-0.2,1.1c0.8,0,1.6-0.2,2.3-0.4l0.1,0.5
	c-0.7,0.2-1.6,0.3-2.5,0.4c-0.4,1.5-0.9,2.7-1.7,3.9l-0.5-0.2c0.7-1,1.3-2.2,1.6-3.6h-1.6v-0.5h0.9c0.2,0,0.5,0,0.7,0
	c0.1-0.4,0.2-0.9,0.2-1.3L422.8,41.5z M424.9,44.9c0,0.6,0.1,1.1,0.1,1.6c0.5,0.2,1.2,0.5,1.7,0.9l-0.3,0.5c-0.4-0.3-1-0.6-1.4-0.8
	c0,0.8-0.3,1.4-1.5,1.4c-0.9,0-1.5-0.4-1.5-1.1c0-0.8,0.8-1.2,1.5-1.2c0.3,0,0.6,0.1,0.9,0.1c0-0.5-0.1-1-0.1-1.4L424.9,44.9z
	 M424.4,46.8c-0.3-0.1-0.6-0.2-0.9-0.2c-0.5,0-1,0.2-1,0.7c0,0.4,0.4,0.7,1,0.7c0.6,0,0.9-0.3,0.9-0.8
	C424.4,47.1,424.4,46.9,424.4,46.8z M426.6,44.1c-0.9,0-2,0.1-2.8,0.4l-0.1-0.5c0.9-0.3,2-0.4,2.8-0.4L426.6,44.1z"/>
<path class="st0" d="M428.9,42.4c0,0.1-0.1,0.1-0.2,0.1c-0.1,0.6-0.1,1.3-0.1,1.9c0,0.3,0,0.6,0,0.8c0.1,1.3,0.6,2.1,1.2,2.1
	c0.3,0,0.7-0.8,1-1.7c0.1,0.1,0.3,0.3,0.5,0.3c-0.4,1.1-0.8,1.9-1.5,1.9c-1,0-1.7-1.2-1.8-2.7c0-0.3,0-0.6,0-1c0-0.7,0-1.4,0.1-2.1
	L428.9,42.4z M434.1,46c-0.2-1.4-0.9-2.4-2-2.9l0.3-0.4c1.1,0.6,2,1.7,2.2,3.2L434.1,46z"/>
<path class="st0" d="M441.6,42.5c0,0-0.1,0.1-0.1,0.1c-0.6,3-2.2,4.7-4.7,5.6c-0.1-0.1-0.3-0.3-0.4-0.5c2.4-0.8,3.9-2.5,4.4-4.9
	h-5.1v-0.5h5.3l0.1-0.1L441.6,42.5z"/>
<path class="st0" d="M448,43.5C448,43.5,448,43.5,448,43.5c-0.4,0.8-1.1,1.7-1.7,2.1c-0.1-0.1-0.3-0.2-0.4-0.3
	c0.6-0.4,1.2-1.1,1.3-1.6h-4.5v-0.4h4.8l0.1,0L448,43.5z M445.5,44.6c0,0-0.1,0.1-0.1,0.1c-0.2,1.4-0.7,2.7-2,3.6
	c-0.1-0.1-0.3-0.2-0.4-0.3c1.3-0.8,1.8-2,1.9-3.5L445.5,44.6z"/>
<path class="st0" d="M449.2,42.2c0.8,0.3,1.8,0.7,2.3,1.1l-0.3,0.5c-0.6-0.4-1.5-0.8-2.3-1.1L449.2,42.2z M449.1,47.6
	c2.8-0.9,4.6-2.4,5.6-4.6c0.2,0.1,0.3,0.2,0.5,0.3c-1,2.1-2.9,3.8-5.5,4.7c0,0.1-0.1,0.1-0.1,0.2L449.1,47.6z"/>
<path class="st0" d="M460.8,45.7c-0.8-0.4-1.9-0.9-2.7-1.3v3.9h-0.6v-6.8l0.8,0c0,0.1-0.1,0.1-0.2,0.2V44l0.1-0.2
	c0.9,0.3,2.1,0.9,2.9,1.3L460.8,45.7z M460,42c0.4,0.3,0.8,0.8,1.1,1.2l-0.3,0.2c-0.2-0.3-0.7-0.9-1.1-1.1L460,42z M461,41.3
	c0.4,0.3,0.8,0.8,1.1,1.1l-0.3,0.2c-0.2-0.3-0.7-0.9-1.1-1.1L461,41.3z"/>
<path class="st0" d="M468.1,44.1C468.1,44.1,468.1,44.1,468.1,44.1c-0.1,0-0.2,0-0.2,0c-2.3,0.7-4.4,1.7-4.4,2.8c0,0.8,0.8,1,2.1,1
	c1.3,0,2.2-0.1,2.8-0.2l0,0.6c-0.7,0.1-1.9,0.1-2.8,0.1c-1.5,0-2.7-0.4-2.7-1.5c0-0.8,0.8-1.6,2.1-2.2c-0.3-0.5-0.4-1.4-0.4-3.2
	l0.9,0.1c0,0.1-0.1,0.2-0.2,0.2c0,1.4,0,2.2,0.3,2.6c0.7-0.3,1.6-0.7,2.4-0.9L468.1,44.1z"/>
<path class="st0" d="M473.9,45.7c-0.8-0.4-1.9-0.9-2.7-1.3v3.9h-0.6v-6.8l0.8,0c0,0.1-0.1,0.1-0.2,0.2V44l0.1-0.2
	c0.9,0.3,2.1,0.9,2.9,1.3L473.9,45.7z"/>
<path class="st0" d="M476.9,47.4c2-0.6,3.6-1.5,4.5-3.2c0.1,0.1,0.3,0.3,0.4,0.4c-1.1,1.8-2.8,2.8-5.2,3.5c0,0.1-0.1,0.1-0.1,0.2
	l-0.3-0.5l0.1-0.1v-5.8l0.8,0c0,0.1-0.1,0.2-0.2,0.2V47.4z"/>
<path class="st0" d="M483,44.5h6.5v0.6h-6.2c0,0.1-0.1,0.1-0.3,0.1L483,44.5z"/>
<path class="st0" d="M496.2,42.9C496.2,42.9,496.1,42.9,496.2,42.9c-0.4,1-0.8,1.9-1.2,2.7c0.3,0.2,0.8,0.4,1,0.6l-0.3,0.5
	c-0.3-0.2-0.7-0.5-1-0.7c-0.7,1-1.6,1.8-2.8,2.3c-0.1-0.1-0.3-0.3-0.4-0.4c1.1-0.5,2-1.3,2.7-2.2c-0.6-0.3-1.2-0.6-1.8-0.8l0.3-0.4
	c0.6,0.2,1.2,0.5,1.8,0.8c0.4-0.6,0.7-1.4,0.9-2.1h-2.6c-0.5,0.8-1.1,1.6-1.8,2.1c-0.1-0.1-0.3-0.3-0.4-0.4c1-0.8,1.9-2.2,2.4-3.5
	l0.7,0.2c0,0.1-0.1,0.1-0.2,0.1c-0.1,0.3-0.3,0.6-0.4,0.9h2.5l0.1,0L496.2,42.9z M495.5,41.3c0.4,0.3,0.8,0.8,1,1.1l-0.3,0.2
	c-0.2-0.3-0.7-0.8-1-1.1L495.5,41.3z M496.5,41c0.4,0.3,0.8,0.8,1.1,1.1l-0.3,0.2c-0.2-0.3-0.7-0.8-1-1.1L496.5,41z"/>
<path class="st0" d="M498,44.5h6.5v0.6h-6.2c0,0.1-0.1,0.1-0.3,0.1L498,44.5z"/>
<path class="st0" d="M395.7,55.5c0,0-0.1,0.1-0.1,0.1c-0.7,1.1-2,2.3-3.2,3.1c0.6,0.5,1.2,1.1,1.6,1.5l-0.5,0.4
	c-0.8-1-2.4-2.3-3.7-3l0.4-0.4c0.6,0.3,1.2,0.7,1.7,1.2c1.1-0.8,2.1-1.8,2.7-2.7H389v-0.5h6.2l0.1,0L395.7,55.5z"/>
<path class="st0" d="M398.4,55.4c0,0.1-0.1,0.1-0.2,0.1c0,2.1-0.2,4-1.4,5.4c-0.1-0.1-0.3-0.2-0.5-0.3c1.2-1.3,1.3-3.2,1.3-5.3
	L398.4,55.4z M400.4,59.9c1.3-0.6,2.2-1.8,2.6-3.1c0.1,0.1,0.4,0.2,0.5,0.3c-0.6,1.6-1.5,2.7-3.2,3.5c0,0.1-0.1,0.1-0.1,0.2
	l-0.4-0.5l0.1-0.1v-5.7l0.7,0c0,0.1-0.1,0.1-0.2,0.1V59.9z"/>
<path class="st0" d="M410.9,57.5h-2.7c-0.2,1.5-0.7,2.6-2.2,3.5c-0.1-0.1-0.3-0.3-0.4-0.4c1.4-0.8,1.9-1.7,2.1-3.1h-3.2V57h3.2
	c0-0.5,0-1,0-1.7c-0.8,0.2-1.8,0.4-2.7,0.4c0-0.1-0.1-0.3-0.2-0.5c2.7-0.3,4.4-0.9,4.9-1.1l0.4,0.5c0,0-0.1,0-0.1,0c0,0-0.1,0-0.1,0
	c-0.4,0.2-1.1,0.4-1.8,0.5l0.3,0c0,0.1-0.1,0.1-0.2,0.1c0,0.6,0,1.1,0,1.6h2.7V57.5z"/>
<path class="st0" d="M414.7,54.1l0.8,0c0,0.1-0.1,0.1-0.2,0.2v1.2h2.1l0.1,0l0.5,0.2c0,0-0.1,0.1-0.1,0.1c-0.4,2.7-1.5,4.3-4,5.2
	c-0.1-0.1-0.2-0.3-0.4-0.5c2.3-0.8,3.4-2.3,3.7-4.5h-4.4V58h-0.5v-2.5h2.5V54.1z"/>
<path class="st0" d="M424.4,57.4h-1.9l0,2.9c0,0.7-0.6,0.7-1.5,0.7c0-0.1-0.1-0.3-0.1-0.4c0.4,0,0.7,0,0.9,0c0.1,0,0.2-0.1,0.2-0.3
	l0-2.5c-0.6,0.9-1.7,1.8-2.6,2.3c-0.1-0.1-0.2-0.3-0.3-0.4c1-0.5,2.1-1.4,2.7-2.4h-2.4v-0.5h2.7l0-1.4l0.6,0c0,0.1-0.1,0.1-0.2,0.1
	l0,1.2h1.9V57.4z"/>
<path class="st0" d="M426.9,60.1c2-0.6,3.6-1.5,4.5-3.2c0.1,0.1,0.3,0.3,0.4,0.4c-1.1,1.8-2.8,2.8-5.2,3.5c0,0.1-0.1,0.1-0.1,0.2
	l-0.3-0.5l0.1-0.1v-5.8l0.8,0c0,0.1-0.1,0.2-0.2,0.2V60.1z"/>
<path class="st0" d="M433.4,56.3c0.2,0.5,0.5,1.2,0.6,1.7l-0.4,0.1c-0.1-0.5-0.3-1.2-0.6-1.7L433.4,56.3z M438.1,56.3
	c0,0.1-0.1,0.1-0.2,0.1c-0.6,2.3-1.8,3.7-3.7,4.5c-0.1-0.1-0.2-0.3-0.3-0.4c1.9-0.7,2.9-2,3.5-4.4L438.1,56.3z M435.3,55.9
	c0.2,0.5,0.3,1.3,0.4,1.8l-0.5,0.1c0-0.5-0.2-1.2-0.4-1.8L435.3,55.9z"/>
<path class="st0" d="M443.8,58.3c-0.8-0.4-1.9-0.9-2.7-1.3V61h-0.6v-6.8l0.8,0c0,0.1-0.1,0.1-0.2,0.2v2.3l0.1-0.2
	c0.9,0.3,2.1,0.9,2.9,1.3L443.8,58.3z"/>
<path class="st0" d="M449.3,55.4c0,0.1-0.1,0.1-0.2,0.1c-0.3,2.4-1.1,4.6-2.4,4.6c-0.7,0-1.3-0.7-1.3-1.9c0-1.9,1.5-3.5,3.5-3.5
	c2.3,0,3.2,1.4,3.2,3c0,1.9-1.1,2.8-3,3.2c-0.1-0.1-0.2-0.3-0.3-0.5c1.8-0.3,2.7-1.2,2.7-2.7c0-1.3-0.8-2.5-2.7-2.5
	c-0.1,0-0.2,0-0.2,0L449.3,55.4z M448.6,55.3c-1.6,0.2-2.6,1.5-2.6,2.9c0,0.8,0.4,1.4,0.7,1.4C447.7,59.5,448.4,57.4,448.6,55.3z"/>
<path class="st0" d="M460.1,55h-2.4c0,0.1-0.1,0.1-0.2,0.1c-0.2,0.3-0.4,0.7-0.6,1l0.2,0.1c0,0-0.1,0.1-0.2,0.1v5h-0.5v-4.5
	c-0.8,1-1.8,1.9-3,2.6c-0.1-0.1-0.2-0.3-0.4-0.4c1.6-0.9,3-2.4,3.8-3.9h-3.6v-0.5h6.8V55z M459.9,59.2c-0.6-0.6-1.8-1.4-2.7-2
	l0.4-0.4c0.9,0.5,2.1,1.4,2.7,1.9L459.9,59.2z"/>
<path class="st0" d="M464.4,54.1c0,0.1-0.1,0.1-0.2,0.1c-0.1,0.3-0.2,0.7-0.3,1h4.1v0.5h-4.4c-0.3,0.6-0.6,1.1-0.9,1.6l0.1,0
	c0,0.1-0.1,0.1-0.2,0.1v3.8h-0.5V58c-0.3,0.3-0.6,0.6-0.9,0.8c-0.1-0.1-0.2-0.4-0.3-0.5c0.5-0.3,0.9-0.7,1.2-1.2v-0.1l0,0
	c0.4-0.5,0.7-1,0.9-1.5h-2v-0.5h2.2c0.2-0.4,0.3-0.8,0.4-1.3L464.4,54.1z M465.8,58.2v2.3h2.2V61h-4.8v-0.5h2.1v-2.3h-1.8v-0.5h1.8
	v-1.6l0.7,0c0,0.1,0,0.1-0.1,0.1v1.4h1.8v0.5H465.8z"/>
<path class="st0" d="M390.2,69.7v2.6c0.6,0.9,1.8,0.9,3.1,0.9c0.9,0,2,0,2.6-0.1c-0.1,0.1-0.1,0.4-0.2,0.5c-0.5,0-1.4,0-2.2,0
	c-1.7,0-2.8,0-3.6-1c-0.3,0.4-0.7,0.7-1,1c0,0.1,0,0.1-0.1,0.1l-0.3-0.5c0.3-0.3,0.7-0.6,1.1-0.9v-2.1h-1v-0.5H390.2z M389.2,66.8
	c0.5,0.4,1,0.9,1.2,1.3l-0.4,0.3c-0.2-0.4-0.7-1-1.2-1.4L389.2,66.8z M395.9,71.2v0.4h-5.3v-0.4h1.5v-0.8h-1.1V70h1.1v-0.6l0.7,0
	c0,0.1-0.1,0.1-0.2,0.1V70h1.3v-0.6l0.7,0c0,0.1-0.1,0.1-0.2,0.1V70h1.2v0.4h-1.2v0.8H395.9z M392.3,67.8v-0.5h-1.6v-0.4h2v1.3h-1.4
	v0.4c0,0.1,0,0.2,0.3,0.2h0.9c0.2,0,0.2,0,0.2-0.4c0.1,0.1,0.3,0.1,0.4,0.1c0,0.5-0.2,0.6-0.6,0.6h-1c-0.6,0-0.7-0.1-0.7-0.6v-0.8
	H392.3z M392.9,71.9c0,0.1-0.1,0.1-0.2,0.1c-0.4,0.4-1.1,0.7-1.6,1c-0.1-0.1-0.2-0.2-0.4-0.3c0.5-0.2,1.2-0.6,1.6-0.9L392.9,71.9z
	 M392.6,70.4v0.8h1.3v-0.8H392.6z M395,67.8v-0.5h-1.7v-0.4h2.2v1.3H394v0.4c0,0.1,0,0.2,0.3,0.2h1c0.2,0,0.2,0,0.3-0.4
	c0.1,0.1,0.3,0.1,0.4,0.1c-0.1,0.5-0.2,0.7-0.6,0.7h-1.1c-0.6,0-0.7-0.1-0.7-0.6v-0.8H395z M394,71.7c0.7,0.3,1.4,0.7,1.8,1
	l-0.5,0.2c-0.4-0.3-1-0.7-1.7-1L394,71.7z"/>
<path class="st0" d="M399.2,70.5l-0.9,0.3v2.4c0,0.6-0.3,0.6-1.3,0.6c0-0.1-0.1-0.3-0.2-0.5c0.4,0,0.7,0,0.8,0c0.1,0,0.1,0,0.1-0.1
	V71c-0.4,0.1-0.7,0.2-1,0.3c0,0.1,0,0.1-0.1,0.1l-0.2-0.6c0.4-0.1,0.8-0.2,1.3-0.4v-1.8h-1.2v-0.5h1.2v-1.6l0.7,0
	c0,0.1,0,0.1-0.2,0.1v1.4h0.9v0.5h-0.9v1.7l0.9-0.3L399.2,70.5z M403.4,70.2h-1.6c0.3,1.5,1,2.7,2,3.2c-0.1,0.1-0.3,0.3-0.4,0.5
	c-1.2-0.7-1.8-2-2.2-3.7h-1.1c0,1.2-0.3,2.7-1.2,3.7c-0.1-0.1-0.3-0.3-0.4-0.4c1-1.1,1.1-2.6,1.1-3.8V67h3.7V70.2z M402.9,67.5h-2.6
	v2.2h2.6V67.5z"/>
<path class="st0" d="M407,66.9v6.3c0,0.6-0.3,0.6-1.3,0.6c0-0.1-0.1-0.4-0.2-0.5c0.2,0,0.4,0,0.5,0c0.4,0,0.5,0,0.5-0.1v-2.1h-1.2
	c-0.1,0.9-0.2,1.9-0.6,2.7c-0.1-0.1-0.3-0.2-0.4-0.3c0.5-1.1,0.6-2.7,0.6-3.9v-2.8H407z M405.4,69.7c0,0.3,0,0.6,0,0.9h1.2v-1.4
	h-1.2V69.7z M406.5,67.4h-1.2v1.4h1.2V67.4z M410.8,69.6L410.8,69.6c0.2,0,0.3,0,0.4,0.1c0,0,0,0.1-0.1,0.1c-0.3,1-0.8,1.8-1.5,2.5
	c0.5,0.5,1.2,0.9,1.9,1.1c-0.1,0.1-0.3,0.3-0.4,0.4c-0.8-0.3-1.4-0.7-2-1.2c-0.6,0.5-1.2,0.9-1.9,1.2c-0.1-0.1-0.2-0.4-0.3-0.5
	c0.6-0.2,1.3-0.6,1.9-1.1c-0.5-0.6-0.9-1.3-1.2-2.1l0.4-0.1h-0.8v-0.5h1.7v-1.2h-1.8v-0.5h1.8v-1.3l0.7,0c0,0.1,0,0.1-0.2,0.1v1.1h2
	v0.5h-2v1.2H410.8z M408.3,70.1c0.2,0.7,0.6,1.3,1.1,1.9c0.5-0.5,0.9-1.2,1.2-1.9H408.3z"/>
<path class="st0" d="M416.2,68c0,0.1-0.1,0.1-0.2,0.1c-0.3,2.4-1.1,4.6-2.4,4.6c-0.7,0-1.3-0.7-1.3-1.9c0-1.9,1.5-3.5,3.5-3.5
	c2.3,0,3.2,1.4,3.2,3c0,1.9-1.1,2.8-3,3.2c-0.1-0.1-0.2-0.3-0.3-0.5c1.8-0.3,2.7-1.2,2.7-2.7c0-1.3-0.8-2.5-2.7-2.5
	c-0.1,0-0.2,0-0.2,0L416.2,68z M415.5,67.9c-1.6,0.2-2.6,1.5-2.6,2.9c0,0.8,0.4,1.4,0.7,1.4C414.6,72.2,415.3,70.1,415.5,67.9z"/>
<path class="st0" d="M427,67.7h-2.4c0,0.1-0.1,0.1-0.2,0.1c-0.2,0.3-0.4,0.7-0.6,1l0.2,0.1c0,0-0.1,0.1-0.2,0.1v5h-0.5v-4.5
	c-0.8,1-1.8,1.9-3,2.6c-0.1-0.1-0.2-0.3-0.4-0.4c1.6-0.9,3-2.4,3.8-3.9h-3.6v-0.5h6.8V67.7z M426.8,71.9c-0.6-0.6-1.8-1.4-2.7-2
	l0.4-0.4c0.9,0.5,2.1,1.4,2.7,1.9L426.8,71.9z"/>
<path class="st0" d="M431.7,71.4v1.7c0.6,0.1,0.9,0.1,3.4,0.1c-0.1,0.1-0.2,0.4-0.2,0.5h-1.8c-1.7,0-2.9-0.3-3.7-1.7
	c-0.3,0.7-0.7,1.4-1.3,1.9c-0.1-0.1-0.3-0.3-0.4-0.4c1-0.7,1.4-2.1,1.5-3.2l0.7,0.1c0,0.1-0.1,0.1-0.2,0.1c0,0.3-0.1,0.6-0.2,0.9
	c0.3,0.9,0.8,1.4,1.5,1.6v-3.2h-2.4V67h5.4v2.8h-2.5v1.2h2.7v0.5H431.7z M429.4,67.5v1.7h4.3v-1.7H429.4z"/>
<path class="st0" d="M395.5,81.2c0,0-0.1,0.1-0.1,0.1c-0.4,0.8-1,1.9-1.6,2.6c-0.1-0.1-0.3-0.2-0.5-0.3c0.6-0.5,1.1-1.3,1.3-1.9
	l-3,0.8v2c0,0.8,0.5,1,1.1,1h1.3c0.3,0,0.9,0,1.2-0.1c0,0.2,0,0.4,0,0.5c-0.3,0-0.9,0.1-1.2,0.1h-1.3c-1,0-1.6-0.5-1.6-1.5v-1.9
	l-2,0.5l-0.1-0.5L391,82v-2.4l0.8,0c0,0.1-0.1,0.1-0.2,0.2v2l3.3-0.9L395,81L395.5,81.2z"/>
<path class="st0" d="M400.2,83.8l0.3,2.5l-0.6,0.1l-0.3-2.5l-2.9,0.4l-0.1-0.5l3-0.4l-0.2-1.8l-2.5,0.3l-0.1-0.5l2.5-0.3l-0.2-1.5
	l0.8,0c0,0.1-0.1,0.1-0.2,0.2l0.1,1.3l2.4-0.3l0.1,0.5l-2.4,0.3l0.2,1.8l2.9-0.4l0.1,0.5L400.2,83.8z"/>
<path class="st0" d="M409.5,85.2v0.5h-5.3v-0.5h3.2c0.1-0.8,0.3-2.3,0.4-3.1h-3v-0.5h3.1l0.1,0l0.4,0.2c0,0,0,0.1-0.1,0.1
	c-0.1,0.8-0.4,2.5-0.5,3.4H409.5z"/>
<path class="st0" d="M411.3,83.8V80l0.7,0c0,0.1-0.1,0.1-0.2,0.1v3.6H411.3z M415.6,79.7c0,0.1-0.1,0.1-0.2,0.1v2.5
	c0,1.6-0.6,3.1-2.8,4c-0.1-0.1-0.3-0.3-0.4-0.4c2.2-0.8,2.7-2.1,2.7-3.6v-2.7L415.6,79.7z"/>
<path class="st0" d="M423.5,82.5h-2.6l0.1,0c0,0-0.1,0.1-0.2,0.1c-0.2,1.5-0.7,2.8-2.4,3.6c-0.1-0.1-0.3-0.3-0.4-0.4
	c1.6-0.8,2.1-1.9,2.3-3.3h-3V82h6.3V82.5z M422.7,80.3h-4.8v-0.5h4.8V80.3z"/>
<path class="st0" d="M429.3,81.3c0,0-0.1,0.1-0.1,0.1c0,0-0.1,0-0.1,0c-0.5,0.5-1.1,1-1.7,1.4c0.1,0,0.1,0.1,0.2,0.1
	c0,0-0.1,0.1-0.1,0.1v3.4h-0.5v-3.3c-0.7,0.5-1.7,1.1-2.6,1.5c-0.1-0.1-0.2-0.3-0.3-0.4c1.3-0.6,3.4-1.8,4.7-3.3L429.3,81.3z"/>
<path class="st0" d="M434.2,80.7c0,0.1-0.1,0.1-0.2,0.1c-0.3,2.4-1.1,4.6-2.4,4.6c-0.7,0-1.3-0.7-1.3-1.9c0-1.9,1.5-3.5,3.5-3.5
	c2.3,0,3.2,1.4,3.2,3c0,1.9-1.1,2.8-3,3.2c-0.1-0.1-0.2-0.3-0.3-0.5c1.8-0.3,2.7-1.2,2.7-2.7c0-1.3-0.8-2.5-2.7-2.5
	c-0.1,0-0.2,0-0.2,0L434.2,80.7z M433.5,80.6c-1.6,0.2-2.6,1.5-2.6,2.9c0,0.8,0.4,1.4,0.7,1.4C432.6,84.8,433.3,82.7,433.5,80.6z"/>
<path class="st0" d="M441.2,82.3h-2.3v4.2h-0.5v-6.9h2.8V82.3z M440.7,80h-1.8v0.7h1.8V80z M438.9,81.9h1.8v-0.8h-1.8V81.9z
	 M443.1,85.4h-2.5v0.5h-0.5v-2.8h3V85.4z M442.6,83.5h-2v1.4h2V83.5z M444.9,79.6v6.2c0,0.4-0.1,0.5-0.3,0.6
	c-0.3,0.1-0.7,0.1-1.4,0.1c0-0.1-0.1-0.4-0.2-0.5c0.3,0,0.5,0,0.8,0c0.6,0,0.7,0,0.7-0.2v-3.4H442v-2.8H444.9z M444.4,80h-1.9v0.7
	h1.9V80z M442.5,81.9h1.9v-0.8h-1.9V81.9z"/>
<path class="st0" d="M447.9,84.4v1.1c0.7,0.3,1.5,0.4,2.5,0.4c0.3,0,2.2,0,2.7,0c-0.1,0.1-0.2,0.3-0.2,0.5h-2.5
	c-1.8,0-3-0.2-3.7-1.3c-0.1,0.6-0.3,1.1-0.6,1.5c-0.1-0.1-0.2-0.2-0.3-0.3c0.5-0.6,0.6-1.7,0.7-2.7l0.6,0.1c0,0.1-0.1,0.1-0.1,0.1
	c0,0.2,0,0.5-0.1,0.7c0.2,0.3,0.4,0.6,0.6,0.8v-2.2h-1.6v-0.4h3.6v0.4h-1.5V84h1.4v0.4H447.9z M448.9,79.6V82h-2.6v-2.5H448.9z
	 M448.4,80.6V80h-1.6v0.6H448.4z M448.4,81.6V81h-1.6v0.7H448.4z M450.9,84.5c0,0.1-0.1,0.1-0.2,0.1c-0.3,0.4-0.9,0.8-1.4,1
	c-0.1-0.1-0.2-0.2-0.3-0.3c0.5-0.2,1-0.6,1.3-1L450.9,84.5z M449.7,80.7h0.9c0.1-0.2,0.2-0.5,0.2-0.7h-1.5v-0.4h3.7V80h-1.7
	c-0.1,0.2-0.1,0.5-0.2,0.7h1.5v3.5h-2.9V80.7z M452.1,81.8v-0.6h-1.9v0.6H452.1z M452.1,82.8v-0.6h-1.9v0.6H452.1z M452.1,83.8v-0.6
	h-1.9v0.6H452.1z M452.6,85.6c-0.3-0.3-0.8-0.7-1.2-1l0.4-0.2c0.5,0.3,1,0.7,1.3,1L452.6,85.6z"/>
<path class="st0" d="M395.7,93h-2.4c0,0.1-0.1,0.1-0.2,0.1c-0.2,0.3-0.4,0.7-0.6,1l0.2,0.1c0,0-0.1,0.1-0.2,0.1v5H392v-4.5
	c-0.8,1-1.8,1.9-3,2.6c-0.1-0.1-0.2-0.3-0.4-0.4c1.6-0.9,3-2.4,3.8-3.9h-3.6v-0.5h6.8V93z M395.5,97.2c-0.6-0.6-1.8-1.4-2.7-2
	l0.4-0.4c0.9,0.5,2.1,1.4,2.7,1.9L395.5,97.2z"/>
<path class="st0" d="M399.8,94.9h-2.3v4.3h-0.5v-6.9h2.9V94.9z M399.3,92.6h-1.8v0.7h1.8V92.6z M397.4,94.5h1.8v-0.7h-1.8V94.5z
	 M402.3,97.2h-1.1V99h-0.5v-1.8h-1.2c-0.1,0.5-0.3,1.4-1.1,1.9c-0.1-0.1-0.2-0.2-0.4-0.3c0.7-0.4,0.9-1.1,1-1.6h-1v-0.4h1v-0.9h-0.9
	v-0.4h4v0.4h-0.9v0.9h1.1V97.2z M399.5,96.8h1.2v-0.9h-1.2V96.8z M403.4,92.2v6.2c0,0.7-0.3,0.7-1.5,0.7c0-0.1-0.1-0.4-0.2-0.5
	c0.3,0,0.5,0,0.7,0c0.4,0,0.5,0,0.5-0.2v-3.6h-2.4v-2.7H403.4z M402.9,92.6H401v0.7h1.9V92.6z M401,94.5h1.9v-0.7H401V94.5z"/>
<path class="st0" d="M406.6,95.6c-0.4,0.9-0.9,1.7-1.5,2.3l-0.5-0.3c0.6-0.5,1.1-1.3,1.4-2.2L406.6,95.6z M408.3,94.4V98
	c0,0.9-0.6,0.9-1.9,0.9c0-0.1-0.1-0.4-0.2-0.5c0.2,0,0.5,0,0.7,0h0.5c0.2,0,0.3-0.1,0.3-0.3v-3.7H405v-0.5h2.7v-1.7l0.7,0
	c0,0.1-0.1,0.1-0.2,0.1v1.5h2.6v0.5H408.3z M409.7,95.3c0.6,0.6,1.2,1.6,1.7,2.3l-0.5,0.3c-0.4-0.7-1.1-1.7-1.6-2.3L409.7,95.3z
	 M410.7,91.7c0.5,0,0.9,0.4,0.9,0.9s-0.4,0.9-0.9,0.9c-0.5,0-0.9-0.4-0.9-0.9C409.8,92.1,410.2,91.7,410.7,91.7z M411.3,92.6
	c0-0.3-0.3-0.6-0.6-0.6c-0.3,0-0.6,0.3-0.6,0.6c0,0.3,0.3,0.6,0.6,0.6C411,93.2,411.3,92.9,411.3,92.6z"/>
<path class="st0" d="M412.4,95.1h6.5v0.6h-6.2c0,0.1-0.1,0.1-0.3,0.1L412.4,95.1z"/>
<path class="st0" d="M424.6,96.3c-0.8-0.4-1.9-0.9-2.7-1.3v3.9h-0.6v-6.8l0.8,0c0,0.1-0.1,0.1-0.2,0.2v2.3l0.1-0.2
	c0.9,0.3,2.1,0.9,2.9,1.3L424.6,96.3z"/>
<path class="st0" d="M432.2,93.1c0,0-0.1,0.1-0.1,0.1c-0.6,3-2.2,4.7-4.7,5.6c-0.1-0.1-0.3-0.3-0.4-0.5c2.4-0.8,3.9-2.5,4.4-4.9
	h-5.1v-0.5h5.3l0.1-0.1L432.2,93.1z"/>
<path class="st0" d="M438.4,95.3h-1.9l0,2.9c0,0.7-0.6,0.7-1.5,0.7c0-0.1-0.1-0.3-0.1-0.4c0.4,0,0.7,0,0.9,0c0.1,0,0.2-0.1,0.2-0.3
	l0-2.5c-0.6,0.9-1.7,1.8-2.6,2.3c-0.1-0.1-0.2-0.3-0.3-0.4c1-0.5,2.1-1.4,2.7-2.4h-2.4v-0.5h2.7l0-1.4l0.6,0c0,0.1-0.1,0.1-0.2,0.1
	l0,1.2h1.9V95.3z"/>
<path class="st0" d="M440.2,96.4v-3.8l0.7,0c0,0.1-0.1,0.1-0.2,0.1v3.6H440.2z M444.6,92.3c0,0.1-0.1,0.1-0.2,0.1v2.5
	c0,1.6-0.6,3.1-2.8,4c-0.1-0.1-0.3-0.3-0.4-0.4c2.2-0.8,2.7-2.1,2.7-3.6v-2.7L444.6,92.3z"/>
<path class="st0" d="M452.5,94.3h-2.3l0,3.8c0,0.8-0.5,0.8-2,0.8c0-0.1-0.1-0.4-0.1-0.5c0.5,0,1.1,0,1.3,0c0.2,0,0.3-0.1,0.3-0.3
	l0-3.4c-0.8,1.2-2.1,2.4-3.4,3.1c-0.1-0.1-0.2-0.3-0.4-0.4c1.3-0.7,2.6-1.9,3.4-3.1h-3.1v-0.5h3.4l0-1.7l0.8,0
	c0,0.1-0.1,0.1-0.2,0.1l0,1.5h2.3V94.3z"/>
<path class="st0" d="M455,94.7c0.2,0.3,0.8,1.2,1,1.4l-0.3,0.4c-0.1-0.3-0.4-0.8-0.7-1.2v3.8h-0.5v-3.9c-0.3,0.9-0.6,1.8-1,2.3
	c-0.1-0.1-0.2-0.3-0.3-0.5c0.5-0.7,1-1.9,1.2-3.1h-1.1v-0.5h1.1v-1.7l0.6,0c0,0-0.1,0.1-0.2,0.1v1.6h0.9v0.5H455V94.7z M460.5,97.4
	v0.4H460v0.8c0,0.5-0.2,0.6-1.3,0.6c0-0.1-0.1-0.3-0.2-0.4c0.2,0,0.4,0,0.5,0c0.4,0,0.5,0,0.5-0.1v-0.8h-2.7v1.3h-0.5v-1.3h-0.6
	v-0.4h0.6v-2h1.6v-0.5h-2v-0.4h1.1v-0.6h-0.8v-0.4h0.8V93h-0.9v-0.4h0.9v-0.7l0.6,0c0,0,0,0.1-0.1,0.1v0.6h1.4v-0.7l0.6,0
	c0,0.1,0,0.1-0.1,0.1v0.6h1V93h-1v0.6h0.9v0.4h-0.9v0.6h1.2v0.4h-2.1v0.5h1.6v2H460.5z M457.9,95.8h-1.1v0.6h1.1V95.8z M456.8,96.8
	v0.6h1.1v-0.6H456.8z M457.5,93v0.6h1.4V93H457.5z M457.5,93.9v0.6h1.4v-0.6H457.5z M459.5,95.8h-1.2v0.6h1.2V95.8z M458.4,97.4h1.2
	v-0.6h-1.2V97.4z"/>
<path class="st0" d="M462.8,95v2.6c0.6,0.9,1.7,0.9,3.1,0.9c0.8,0,1.8,0,2.5-0.1c-0.1,0.1-0.2,0.4-0.2,0.5c-0.5,0-1.4,0-2.2,0
	c-1.6,0-2.7,0-3.5-1c-0.4,0.3-0.8,0.7-1.1,1c0,0.1,0,0.1-0.1,0.1l-0.3-0.6c0.4-0.2,0.8-0.6,1.2-1v-2.1h-1.2V95H462.8z M461.6,92.1
	c0.5,0.3,1.1,0.9,1.4,1.2l-0.4,0.4c-0.3-0.4-0.9-0.9-1.4-1.3L461.6,92.1z M468.2,94.5V95h-5.1v-0.5h2.3v-1.1h-1.1
	c-0.2,0.4-0.3,0.7-0.5,0.9c-0.1-0.1-0.3-0.2-0.4-0.2c0.4-0.5,0.7-1.3,0.9-2.1l0.6,0.2c0,0.1-0.1,0.1-0.2,0.1
	c-0.1,0.2-0.1,0.5-0.2,0.7h0.9v-1l0.7,0c0,0.1-0.1,0.1-0.2,0.1v0.9h1.9v0.5H466v1.1H468.2z M467.6,98h-0.5v-0.3h-2.6V98h-0.5v-2.4
	h3.6V98z M464.4,97.3h2.6V96h-2.6V97.3z"/>
</svg>
