<?xml version="1.0" encoding="utf-8"?>
<!-- Generator: Adobe Illustrator 21.1.0, SVG Export Plug-In . SVG Version: 6.00 Build 0)  -->
<svg version="1.1" id="Layer_4" xmlns="http://www.w3.org/2000/svg" xmlns:xlink="http://www.w3.org/1999/xlink" x="0px" y="0px"
	 viewBox="0 0 214.3 204.9" style="enable-background:new 0 0 214.3 204.9;" xml:space="preserve">
<style type="text/css">
	.st0{fill:#FFFFFF;}
	.st1{fill:#25258D;}
	.st2{fill:#ABB4BB;}
	.st3{fill:#464F56;}
</style>
<path class="st0" d="M210.5,203.9H13.2c-1.6,0-2.8-1.3-2.8-2.8v-99.5c0-1.6,1.3-2.8,2.8-2.8h197.4c1.6,0,2.8,1.3,2.8,2.8v99.5
	C213.3,202.7,212.1,203.9,210.5,203.9z"/>
<path class="st1" d="M210.5,204.9H13.2c-2.1,0-3.8-1.7-3.8-3.8v-99.5c0-2.1,1.7-3.8,3.8-3.8h197.3c2.1,0,3.8,1.7,3.8,3.8v99.5
	C214.3,203.2,212.6,204.9,210.5,204.9z M13.2,99.8c-1,0-1.8,0.8-1.8,1.8v99.5c0,1,0.8,1.8,1.8,1.8h197.3c1,0,1.8-0.8,1.8-1.8v-99.5
	c0-1-0.8-1.8-1.8-1.8H13.2z"/>
<path class="st0" d="M205.9,199.3H8.6c-1.6,0-2.8-1.3-2.8-2.8V96.9c0-1.6,1.3-2.8,2.8-2.8H206c1.6,0,2.8,1.3,2.8,2.8v99.5
	C208.7,198,207.5,199.3,205.9,199.3z"/>
<path class="st1" d="M205.9,200.3H8.6c-2.1,0-3.8-1.7-3.8-3.8V96.9c0-2.1,1.7-3.8,3.8-3.8h197.3c2.1,0,3.8,1.7,3.8,3.8v99.5
	C209.7,198.6,208,200.3,205.9,200.3z M8.6,95.1c-1,0-1.8,0.8-1.8,1.8v99.5c0,1,0.8,1.8,1.8,1.8h197.3c1,0,1.8-0.8,1.8-1.8V96.9
	c0-1-0.8-1.8-1.8-1.8H8.6z"/>
<path class="st1" d="M201.2,88.4H3.8c-2.1,0-3.8,1.7-3.8,3.8v99.5c0,2.1,1.7,3.8,3.8,3.8h197.3c2.1,0,3.8-1.7,3.8-3.8V92.3
	C205,90.2,203.3,88.4,201.2,88.4z"/>
<path class="st2" d="M58.2,79.5h2.5l-3.5,6l-3.5-6h2.5V61.8c0-0.6,0.4-1,1-1s1,0.4,1,1V79.5z M169.6,79.5V61.8c0-0.6-0.4-1-1-1
	s-1,0.4-1,1v17.8h-2.5l3.5,6l3.5-6L169.6,79.5L169.6,79.5z"/>
<path class="st0" d="M101.2,58.4h-88c-1.6,0-2.8-1.3-2.8-2.8V13.2c0-1.6,1.3-2.8,2.8-2.8h88.1c1.6,0,2.8,1.3,2.8,2.8v42.4
	C104.1,57.2,102.8,58.4,101.2,58.4z"/>
<path class="st3" d="M101.2,59.4h-88c-2.1,0-3.8-1.7-3.8-3.8V13.2c0-2.1,1.7-3.8,3.8-3.8h88.1c2.1,0,3.8,1.7,3.8,3.8v42.4
	C105.1,57.7,103.4,59.4,101.2,59.4z M13.2,11.3c-1,0-1.8,0.8-1.8,1.8v42.4c0,1,0.8,1.8,1.8,1.8h88.1c1,0,1.8-0.8,1.8-1.8V13.2
	c0-1-0.8-1.8-1.8-1.8L13.2,11.3L13.2,11.3z"/>
<path class="st0" d="M96.6,53.8h-88c-1.6,0-2.8-1.3-2.8-2.8V8.5c0-1.6,1.3-2.8,2.8-2.8h88.1c1.6,0,2.8,1.3,2.8,2.8v42.4
	C99.5,52.5,98.2,53.8,96.6,53.8z"/>
<path class="st3" d="M96.7,54.8H8.6c-2.1,0-3.8-1.7-3.8-3.8V8.5c0-2.1,1.7-3.8,3.8-3.8h88.1c2.1,0,3.8,1.7,3.8,3.8v42.4
	C100.5,53,98.8,54.8,96.7,54.8z M8.6,6.7c-1,0-1.8,0.8-1.8,1.8v42.4c0,1,0.8,1.8,1.8,1.8h88.1c1,0,1.8-0.8,1.8-1.8V8.5
	c0-1-0.8-1.8-1.8-1.8H8.6z"/>
<path class="st0" d="M91.9,49.1H3.8c-1.6,0-2.8-1.3-2.8-2.8V3.8C1,2.3,2.3,1,3.8,1h88.1c1.6,0,2.8,1.3,2.8,2.8v42.4
	C94.8,47.8,93.5,49.1,91.9,49.1z"/>
<path class="st3" d="M91.9,50.1H3.8c-2.1,0-3.8-1.7-3.8-3.8V3.8C0,1.7,1.7,0,3.8,0h88.1c2.1,0,3.8,1.7,3.8,3.8v42.4
	C95.8,48.4,94,50.1,91.9,50.1z M3.8,2C2.8,2,2,2.8,2,3.8v42.4c0,1,0.8,1.8,1.8,1.8h88.1c1,0,1.8-0.8,1.8-1.8V3.8
	c0-1-0.8-1.8-1.8-1.8H3.8z"/>
<path class="st0" d="M210.5,58.4h-83.9c-1.6,0-2.8-1.3-2.8-2.8V13.2c0-1.6,1.3-2.8,2.8-2.8h83.9c1.6,0,2.8,1.3,2.8,2.8v42.4
	C213.3,57.2,212.1,58.4,210.5,58.4z"/>
<path class="st3" d="M210.5,59.4h-83.9c-2.1,0-3.8-1.7-3.8-3.8V13.2c0-2.1,1.7-3.8,3.8-3.8h83.9c2.1,0,3.8,1.7,3.8,3.8v42.4
	C214.3,57.7,212.6,59.4,210.5,59.4z M126.6,11.3c-1,0-1.8,0.8-1.8,1.8v42.4c0,1,0.8,1.8,1.8,1.8h83.9c1,0,1.8-0.8,1.8-1.8V13.2
	c0-1-0.8-1.8-1.8-1.8L126.6,11.3L126.6,11.3z"/>
<path class="st0" d="M206.2,53.8h-83.9c-1.6,0-2.8-1.3-2.8-2.8V8.5c0-1.6,1.3-2.8,2.8-2.8h83.9c1.6,0,2.8,1.3,2.8,2.8v42.4
	C209,52.5,207.7,53.8,206.2,53.8z"/>
<path class="st3" d="M206.2,54.8h-83.9c-2.1,0-3.8-1.7-3.8-3.8V8.5c0-2.1,1.7-3.8,3.8-3.8h83.9c2.1,0,3.8,1.7,3.8,3.8v42.4
	C210,53,208.3,54.8,206.2,54.8z M122.3,6.7c-1,0-1.8,0.8-1.8,1.8v42.4c0,1,0.8,1.8,1.8,1.8h83.9c1,0,1.8-0.8,1.8-1.8V8.5
	c0-1-0.8-1.8-1.8-1.8H122.3z"/>
<path class="st0" d="M201.7,49.1h-83.9c-1.6,0-2.8-1.3-2.8-2.8V3.8c0-1.6,1.3-2.8,2.8-2.8h83.9c1.6,0,2.8,1.3,2.8,2.8v42.4
	C204.5,47.8,203.2,49.1,201.7,49.1z"/>
<path class="st3" d="M201.7,50.1h-83.9c-2.1,0-3.8-1.7-3.8-3.8V3.8c0-2.1,1.7-3.8,3.8-3.8h83.9c2.1,0,3.8,1.7,3.8,3.8v42.4
	C205.5,48.4,203.8,50.1,201.7,50.1z M117.8,2c-1,0-1.8,0.8-1.8,1.8v42.4c0,1,0.8,1.8,1.8,1.8h83.9c1,0,1.8-0.8,1.8-1.8V3.8
	c0-1-0.8-1.8-1.8-1.8H117.8z"/>
<path class="st3" d="M136.5,21.4v6.3H135v-6.3H136.5z"/>
<path class="st3" d="M141.8,24.9v2.8h-1.4v-2.6c0-0.6-0.4-0.8-0.8-0.8c-0.5,0-0.8,0.3-0.8,0.9v2.5h-1.4v-4.5h1.4v0.4
	c0.2-0.3,0.7-0.5,1.3-0.5C141,23,141.8,23.7,141.8,24.9z"/>
<path class="st3" d="M147,23.2l-1.7,4.5h-1.5l-1.7-4.5h1.5l0.9,2.9l0.9-2.9H147z"/>
<path class="st3" d="M149.6,26.6c0.4,0,0.7-0.1,0.9-0.3l1.1,0.6c-0.4,0.6-1.1,0.9-2,0.9c-1.5,0-2.5-1-2.5-2.4c0-1.3,1-2.4,2.4-2.4
	c1.3,0,2.3,1,2.3,2.4c0,0.2,0,0.4-0.1,0.5h-3.2C148.7,26.4,149.1,26.6,149.6,26.6z M150.4,24.9c-0.1-0.5-0.5-0.7-1-0.7
	c-0.5,0-0.9,0.3-1,0.7H150.4z"/>
<path class="st3" d="M155.9,26.3c0,1-0.9,1.5-1.9,1.5c-0.9,0-1.6-0.3-1.9-1.1l1.2-0.7c0.1,0.3,0.4,0.5,0.8,0.5
	c0.3,0,0.5-0.1,0.5-0.3c0-0.5-2.2-0.2-2.2-1.8c0-1,0.8-1.5,1.8-1.5c0.7,0,1.4,0.3,1.8,1l-1.2,0.6c-0.1-0.2-0.3-0.4-0.6-0.4
	c-0.2,0-0.4,0.1-0.4,0.3C153.7,25,155.9,24.6,155.9,26.3z"/>
<path class="st3" d="M158.1,24.5V26c0,0.4,0.3,0.4,0.9,0.4v1.2c-1.8,0.2-2.3-0.4-2.3-1.6v-1.6H156v-1.3h0.7v-0.9l1.3-0.4v1.3h0.9
	v1.3H158.1z"/>
<path class="st3" d="M159.7,22c0-0.4,0.4-0.8,0.8-0.8s0.8,0.4,0.8,0.8c0,0.4-0.4,0.8-0.8,0.8S159.7,22.4,159.7,22z M159.8,23.2h1.4
	v4.5h-1.4V23.2z"/>
<path class="st3" d="M166.8,21.4v6.3h-1.4v-0.4c-0.3,0.3-0.7,0.5-1.3,0.5c-1.2,0-2.2-1-2.2-2.4c0-1.3,1-2.4,2.2-2.4
	c0.6,0,1,0.2,1.3,0.5v-2.2H166.8z M165.4,25.4c0-0.7-0.5-1.1-1.1-1.1s-1.1,0.4-1.1,1.1c0,0.7,0.5,1.1,1.1,1.1S165.4,26.1,165.4,25.4
	z"/>
<path class="st3" d="M167.5,25.4c0-1.3,1.1-2.4,2.4-2.4c1.3,0,2.4,1,2.4,2.4c0,1.3-1.1,2.4-2.4,2.4
	C168.6,27.8,167.5,26.8,167.5,25.4z M171,25.4c0-0.6-0.4-1.1-1-1.1c-0.6,0-1,0.4-1,1.1c0,0.6,0.5,1.1,1,1.1
	C170.5,26.5,171,26,171,25.4z"/>
<path class="st3" d="M175.8,23.1v1.5c-0.6-0.1-1.4,0.1-1.4,1v2h-1.3v-4.5h1.3V24C174.6,23.4,175.2,23.1,175.8,23.1z"/>
<path class="st3" d="M178.5,26.6c0.4,0,0.7-0.1,0.9-0.3l1.1,0.6c-0.4,0.6-1.1,0.9-2,0.9c-1.5,0-2.5-1-2.5-2.4c0-1.3,1-2.4,2.4-2.4
	c1.3,0,2.3,1,2.3,2.4c0,0.2,0,0.4-0.1,0.5h-3.2C177.6,26.4,178.1,26.6,178.5,26.6z M179.4,24.9c-0.1-0.5-0.5-0.7-1-0.7
	c-0.5,0-0.9,0.3-1,0.7H179.4z"/>
<path class="st3" d="M184.8,26.3c0,1-0.9,1.5-1.9,1.5c-0.9,0-1.6-0.3-1.9-1.1l1.2-0.7c0.1,0.3,0.4,0.5,0.8,0.5
	c0.3,0,0.5-0.1,0.5-0.3c0-0.5-2.2-0.2-2.2-1.8c0-1,0.8-1.5,1.8-1.5c0.7,0,1.4,0.3,1.8,1l-1.2,0.6c-0.1-0.2-0.3-0.4-0.6-0.4
	c-0.2,0-0.4,0.1-0.4,0.3C182.6,25,184.8,24.6,184.8,26.3z"/>
<path class="st3" d="M34.7,17.1v1.2h2.3v1.4h-2.3V22h-1.4v-6.3h3.8v1.4H34.7z"/>
<path class="st3" d="M42.2,17.5V22h-1.4v-0.4c-0.2,0.3-0.7,0.5-1.3,0.5c-0.9,0-1.7-0.6-1.7-1.9v-2.8h1.4V20c0,0.6,0.4,0.8,0.8,0.8
	c0.5,0,0.8-0.3,0.8-0.9v-2.5H42.2z"/>
<path class="st3" d="M47.5,19.2V22h-1.4v-2.6c0-0.6-0.4-0.8-0.8-0.8c-0.5,0-0.8,0.3-0.8,0.9V22h-1.4v-4.5h1.4v0.4
	c0.2-0.3,0.7-0.5,1.3-0.5C46.7,17.3,47.5,18,47.5,19.2z"/>
<path class="st3" d="M53,15.7V22h-1.4v-0.4c-0.3,0.3-0.7,0.5-1.3,0.5c-1.2,0-2.2-1-2.2-2.4c0-1.3,1-2.4,2.2-2.4c0.6,0,1,0.2,1.3,0.5
	v-2.2H53z M51.7,19.7c0-0.7-0.5-1.1-1.1-1.1s-1.1,0.4-1.1,1.1c0,0.7,0.5,1.1,1.1,1.1S51.7,20.4,51.7,19.7z"/>
<path class="st3" d="M53.8,19.7c0-1.3,1.1-2.4,2.4-2.4s2.4,1,2.4,2.4c0,1.3-1.1,2.4-2.4,2.4S53.8,21.1,53.8,19.7z M57.2,19.7
	c0-0.6-0.5-1.1-1-1.1s-1,0.4-1,1.1c0,0.6,0.5,1.1,1,1.1S57.2,20.4,57.2,19.7z"/>
<path class="st3" d="M62.7,20.6c0,1-0.9,1.5-1.9,1.5c-0.9,0-1.6-0.3-1.9-1.1l1.2-0.7c0.1,0.3,0.4,0.5,0.8,0.5c0.3,0,0.5-0.1,0.5-0.3
	c0-0.5-2.2-0.2-2.2-1.8c0-1,0.8-1.5,1.8-1.5c0.7,0,1.4,0.3,1.8,1l-1.2,0.6c-0.1-0.2-0.3-0.4-0.6-0.4c-0.2,0-0.4,0.1-0.4,0.3
	C60.5,19.3,62.7,19,62.7,20.6z"/>
<path class="st3" d="M18.6,31.7c0.4,0,0.7-0.1,0.9-0.3l1.1,0.6c-0.4,0.6-1.1,0.9-2,0.9c-1.5,0-2.5-1-2.5-2.4c0-1.3,1-2.4,2.4-2.4
	c1.3,0,2.3,1,2.3,2.4c0,0.2,0,0.4-0.1,0.5h-3.2C17.7,31.5,18.1,31.7,18.6,31.7z M19.5,30.1c-0.1-0.5-0.5-0.7-1-0.7
	c-0.5,0-0.9,0.3-1,0.7H19.5z"/>
<path class="st3" d="M23.6,30.5c0-1.3,1-2.4,2.4-2.4c0.9,0,1.6,0.5,2,1.2L26.8,30c-0.2-0.3-0.5-0.5-0.9-0.5c-0.6,0-1,0.4-1,1
	s0.4,1,1,1c0.4,0,0.7-0.2,0.9-0.5l1.2,0.7c-0.4,0.7-1.2,1.2-2,1.2C24.6,32.9,23.6,31.9,23.6,30.5z"/>
<path class="st3" d="M28.2,30.5c0-1.3,1.1-2.4,2.4-2.4s2.4,1,2.4,2.4c0,1.3-1.1,2.4-2.4,2.4S28.2,31.9,28.2,30.5z M31.7,30.5
	c0-0.6-0.4-1.1-1-1.1c-0.6,0-1,0.4-1,1.1c0,0.6,0.5,1.1,1,1.1C31.2,31.6,31.7,31.2,31.7,30.5z"/>
<path class="st3" d="M40.5,30v2.8h-1.4v-2.6c0-0.5-0.2-0.7-0.6-0.7c-0.5,0-0.7,0.3-0.7,0.8v2.5h-1.4v-2.6c0-0.5-0.2-0.7-0.6-0.7
	c-0.5,0-0.7,0.3-0.7,0.8v2.5h-1.4v-4.5h1.4v0.4c0.2-0.3,0.6-0.5,1.2-0.5c0.5,0,0.9,0.2,1.2,0.6c0.3-0.4,0.7-0.6,1.3-0.6
	C39.8,28.1,40.5,28.9,40.5,30z"/>
<path class="st3" d="M43.7,31.7c0.4,0,0.7-0.1,0.9-0.3l1.1,0.6c-0.4,0.6-1.1,0.9-2,0.9c-1.5,0-2.5-1-2.5-2.4c0-1.3,1-2.4,2.4-2.4
	c1.3,0,2.3,1,2.3,2.4c0,0.2,0,0.4-0.1,0.5h-3.2C42.8,31.5,43.2,31.7,43.7,31.7z M44.6,30.1c-0.1-0.5-0.5-0.7-1-0.7
	c-0.5,0-0.9,0.3-1,0.7H44.6z"/>
<path class="st3" d="M49.4,28.2v1.5c-0.6-0.1-1.4,0.1-1.4,1v2h-1.4v-4.5H48v0.8C48.2,28.5,48.8,28.2,49.4,28.2z"/>
<path class="st3" d="M49.6,30.5c0-1.3,1-2.4,2.4-2.4c0.9,0,1.6,0.5,2,1.2L52.9,30c-0.2-0.3-0.5-0.5-0.9-0.5c-0.6,0-1,0.4-1,1
	s0.4,1,1,1c0.4,0,0.7-0.2,0.9-0.5l1.2,0.7c-0.4,0.7-1.2,1.2-2,1.2C50.7,32.9,49.6,31.9,49.6,30.5z"/>
<path class="st3" d="M54.5,27.1c0-0.4,0.4-0.8,0.8-0.8c0.4,0,0.8,0.4,0.8,0.8c0,0.4-0.4,0.8-0.8,0.8C54.8,27.9,54.5,27.5,54.5,27.1z
	 M54.6,28.3h1.4v4.5h-1.4V28.3z"/>
<path class="st3" d="M61.6,28.3v4.5h-1.4v-0.4c-0.3,0.3-0.7,0.5-1.3,0.5c-1.2,0-2.2-1-2.2-2.4c0-1.3,1-2.4,2.2-2.4
	c0.6,0,1,0.2,1.3,0.5v-0.4H61.6z M60.2,30.5c0-0.7-0.5-1.1-1.1-1.1s-1.1,0.4-1.1,1.1c0,0.7,0.5,1.1,1.1,1.1S60.2,31.2,60.2,30.5z"/>
<path class="st3" d="M66.9,30v2.8h-1.4v-2.6c0-0.6-0.4-0.8-0.8-0.8c-0.5,0-0.8,0.3-0.8,0.9v2.5h-1.4v-4.5h1.4v0.4
	c0.2-0.3,0.7-0.5,1.3-0.5C66.1,28.1,66.9,28.8,66.9,30z"/>
<path class="st3" d="M69.5,29.6v1.6c0,0.4,0.3,0.4,0.9,0.4v1.2c-1.8,0.2-2.3-0.4-2.3-1.6v-1.6h-0.7v-1.3h0.7v-0.9l1.4-0.4v1.3h0.9
	v1.3H69.5z"/>
<path class="st3" d="M73.4,31.7c0.4,0,0.7-0.1,0.9-0.3l1.1,0.6c-0.4,0.6-1.1,0.9-2,0.9c-1.5,0-2.5-1-2.5-2.4c0-1.3,1-2.4,2.4-2.4
	c1.3,0,2.3,1,2.3,2.4c0,0.2,0,0.4-0.1,0.5h-3.2C72.5,31.5,72.9,31.7,73.4,31.7z M74.2,30.1c-0.1-0.5-0.5-0.7-1-0.7
	c-0.5,0-0.9,0.3-1,0.7H74.2z"/>
<path class="st3" d="M79.6,31.4c0,1-0.9,1.5-1.9,1.5c-0.9,0-1.6-0.3-1.9-1.1l1.2-0.7c0.1,0.3,0.4,0.5,0.8,0.5c0.3,0,0.5-0.1,0.5-0.3
	c0-0.5-2.2-0.2-2.2-1.8c0-1,0.8-1.5,1.8-1.5c0.7,0,1.4,0.3,1.8,1l-1.2,0.6c-0.1-0.2-0.3-0.4-0.6-0.4c-0.2,0-0.4,0.1-0.4,0.3
	C77.4,30.1,79.6,29.8,79.6,31.4z"/>
<path class="st0" d="M17.6,108.3v1.5h-4V103h1.6v5.3H17.6z"/>
<path class="st0" d="M20.7,108.6c0.4,0,0.7-0.2,0.9-0.4l1.2,0.7c-0.5,0.7-1.2,1-2.1,1c-1.7,0-2.7-1.1-2.7-2.6c0-1.5,1.1-2.6,2.6-2.6
	c1.4,0,2.5,1.1,2.5,2.6c0,0.2,0,0.4-0.1,0.6h-3.5C19.7,108.4,20.1,108.6,20.7,108.6z M21.6,106.8c-0.2-0.6-0.6-0.8-1-0.8
	c-0.6,0-0.9,0.3-1.1,0.8H21.6z"/>
<path class="st0" d="M28.8,104.9v4.6c0,1.6-1.3,2.3-2.6,2.3c-1,0-1.9-0.4-2.3-1.2l1.2-0.7c0.2,0.3,0.5,0.6,1.1,0.6
	c0.7,0,1.1-0.4,1.1-1v-0.4c-0.3,0.4-0.8,0.6-1.4,0.6c-1.4,0-2.4-1.1-2.4-2.5s1-2.5,2.4-2.5c0.6,0,1.1,0.2,1.4,0.6v-0.5H28.8z
	 M27.4,107.2c0-0.7-0.5-1.1-1.2-1.1c-0.7,0-1.2,0.5-1.2,1.1c0,0.7,0.5,1.1,1.2,1.1C26.9,108.4,27.4,107.9,27.4,107.2z"/>
<path class="st0" d="M34.9,104.9v4.9h-1.5v-0.5c-0.3,0.4-0.8,0.6-1.5,0.6c-1.3,0-2.3-1.1-2.3-2.6c0-1.5,1.1-2.6,2.3-2.6
	c0.7,0,1.1,0.2,1.5,0.6v-0.5H34.9z M33.4,107.3c0-0.7-0.5-1.2-1.2-1.2s-1.2,0.5-1.2,1.2c0,0.7,0.5,1.2,1.2,1.2
	S33.4,108.1,33.4,107.3z"/>
<path class="st0" d="M36,102.7h1.5v7.1H36V102.7z"/>
<path class="st0" d="M13.3,122.2l1.3-0.8c0.2,0.6,0.7,0.9,1.4,0.9c0.7,0,0.9-0.3,0.9-0.6c0-0.4-0.4-0.6-1.4-0.9c-1-0.3-2-0.8-2-2.1
	c0-1.3,1.1-2.1,2.3-2.1c1.1,0,2,0.5,2.5,1.5l-1.3,0.8c-0.2-0.5-0.6-0.8-1.2-0.8c-0.5,0-0.7,0.2-0.7,0.5c0,0.3,0.2,0.5,1.2,0.8
	c1,0.3,2.2,0.7,2.2,2.1c0,1.3-1.1,2.1-2.5,2.1C14.6,123.9,13.7,123.2,13.3,122.2z"/>
<path class="st0" d="M19.2,121.3c0-1.5,1.2-2.6,2.6-2.6c1.4,0,2.6,1.1,2.6,2.6c0,1.5-1.2,2.6-2.6,2.6
	C20.3,123.9,19.2,122.8,19.2,121.3z M22.9,121.3c0-0.7-0.5-1.2-1.1-1.2s-1.1,0.5-1.1,1.2c0,0.7,0.5,1.2,1.1,1.2S22.9,122,22.9,121.3
	z"/>
<path class="st0" d="M26.8,118.9h0.9v1.4h-0.9v3.5h-1.5v-3.5h-0.7v-1.4h0.7c0-1.4,0.8-2.2,2.4-2.1v1.4
	C27.2,118.2,26.8,118.3,26.8,118.9z"/>
<path class="st0" d="M30.3,120.3v1.7c0,0.4,0.4,0.5,1,0.4v1.3c-1.9,0.2-2.5-0.4-2.5-1.7v-1.7H28v-1.4h0.8V118l1.5-0.4v1.4h1v1.4
	H30.3z"/>
<path class="st0" d="M39.1,118.9l-1.6,4.9h-1.4l-0.8-2.6l-0.8,2.6h-1.4l-1.6-4.9h1.6l0.7,2.6l0.8-2.6h1.4l0.8,2.6l0.7-2.6H39.1z"/>
<path class="st0" d="M44.5,118.9v4.9H43v-0.5c-0.3,0.4-0.8,0.6-1.5,0.6c-1.3,0-2.3-1.1-2.3-2.6c0-1.5,1.1-2.6,2.3-2.6
	c0.7,0,1.1,0.2,1.5,0.6v-0.5H44.5z M43,121.3c0-0.7-0.5-1.2-1.2-1.2s-1.2,0.5-1.2,1.2c0,0.7,0.5,1.2,1.2,1.2S43,122.1,43,121.3z"/>
<path class="st0" d="M48.5,118.8v1.7c-0.6-0.1-1.5,0.1-1.5,1.1v2.2h-1.5v-4.9H47v0.9C47.2,119.1,47.9,118.8,48.5,118.8z"/>
<path class="st0" d="M51.5,122.6c0.4,0,0.7-0.2,0.9-0.4l1.2,0.7c-0.5,0.7-1.2,1-2.1,1c-1.7,0-2.7-1.1-2.7-2.6c0-1.5,1.1-2.6,2.6-2.6
	c1.4,0,2.5,1.1,2.5,2.6c0,0.2,0,0.4-0.1,0.6h-3.5C50.5,122.4,51,122.6,51.5,122.6z M52.4,120.8c-0.2-0.6-0.6-0.8-1-0.8
	c-0.6,0-0.9,0.3-1.1,0.8H52.4z"/>
<path class="st0" d="M18.2,132.5h-1.8v5.3h-1.6v-5.3h-1.8V131h5.1V132.5z"/>
<path class="st0" d="M17.7,135.3c0-1.5,1.2-2.6,2.6-2.6c1.4,0,2.6,1.1,2.6,2.6c0,1.5-1.2,2.6-2.6,2.6
	C18.9,137.9,17.7,136.8,17.7,135.3z M21.4,135.3c0-0.7-0.5-1.2-1.1-1.2s-1.1,0.5-1.1,1.2c0,0.7,0.5,1.2,1.1,1.2S21.4,136,21.4,135.3
	z"/>
<path class="st0" d="M26.7,137.8l-1.6-2.2v2.2h-1.5V131h1.5v4.1l1.5-2.1h1.7l-1.8,2.4l1.8,2.4H26.7z"/>
<path class="st0" d="M31.1,136.6c0.4,0,0.7-0.2,0.9-0.4l1.2,0.7c-0.5,0.7-1.2,1-2.1,1c-1.7,0-2.7-1.1-2.7-2.6c0-1.5,1.1-2.6,2.6-2.6
	c1.4,0,2.5,1.1,2.5,2.6c0,0.2,0,0.4-0.1,0.6H30C30.1,136.4,30.6,136.6,31.1,136.6z M32,134.8c-0.2-0.6-0.6-0.8-1-0.8
	c-0.6,0-0.9,0.3-1.1,0.8H32z"/>
<path class="st0" d="M39,134.8v3h-1.5V135c0-0.6-0.4-0.9-0.8-0.9c-0.5,0-0.9,0.3-0.9,1v2.7h-1.5v-4.9h1.5v0.5
	c0.3-0.4,0.8-0.6,1.4-0.6C38.1,132.8,39,133.5,39,134.8z"/>
<path class="st0" d="M39.8,131.6c0-0.5,0.4-0.9,0.9-0.9c0.5,0,0.9,0.4,0.9,0.9c0,0.5-0.4,0.9-0.9,0.9
	C40.2,132.5,39.8,132.1,39.8,131.6z M40,132.9h1.5v4.9H40V132.9z"/>
<path class="st0" d="M46.3,136.4v1.4h-3.9v-1l1.8-2.5h-1.7v-1.4h3.7v1l-1.8,2.5H46.3z"/>
<path class="st0" d="M51.9,132.9v4.9h-1.5v-0.5c-0.3,0.4-0.8,0.6-1.5,0.6c-1.3,0-2.3-1.1-2.3-2.6c0-1.5,1.1-2.6,2.3-2.6
	c0.7,0,1.1,0.2,1.5,0.6v-0.5H51.9z M50.4,135.3c0-0.7-0.5-1.2-1.2-1.2s-1.2,0.5-1.2,1.2c0,0.7,0.5,1.2,1.2,1.2
	S50.4,136.1,50.4,135.3z"/>
<path class="st0" d="M56.2,135.9l1.3,0.7c-0.3,0.6-0.9,1-1.6,1.2v0.4c0.3,0.1,0.6,0.3,0.6,0.8c0,0.6-0.6,1-2.2,0.9v-1
	c0.6,0,0.9,0,0.9-0.1c0-0.1-0.2-0.2-0.5-0.2v-0.7c-1.2-0.2-2.1-1.2-2.1-2.5c0-1.5,1.1-2.6,2.6-2.6c0.9,0,1.8,0.5,2.2,1.2l-1.3,0.7
	c-0.2-0.3-0.5-0.5-0.9-0.5c-0.6,0-1.1,0.5-1.1,1.1c0,0.7,0.5,1.1,1.1,1.1C55.7,136.5,56.1,136.3,56.2,135.9z"/>
<path class="st0" d="M63,132.9v4.9h-1.5v-0.5c-0.3,0.4-0.8,0.6-1.5,0.6c-1.3,0-2.3-1.1-2.3-2.6c0-1.5,1.1-2.6,2.3-2.6
	c0.7,0,1.1,0.2,1.5,0.6v-0.5H63z M59.9,132.4h-1.2c0-1.7,1-1.8,1.9-1.3c0.3,0.2,0.4,0.2,0.4-0.2h1.2c0,1.7-1,1.8-1.9,1.3
	C60,131.9,59.9,132,59.9,132.4z M61.5,135.3c0-0.7-0.5-1.2-1.2-1.2s-1.2,0.5-1.2,1.2c0,0.7,0.5,1.2,1.2,1.2S61.5,136.1,61.5,135.3z"
	/>
<path class="st0" d="M63.8,135.3c0-1.5,1.2-2.6,2.6-2.6c1.4,0,2.6,1.1,2.6,2.6c0,1.5-1.2,2.6-2.6,2.6
	C65,137.9,63.8,136.8,63.8,135.3z M67.5,135.3c0-0.7-0.5-1.2-1.1-1.2s-1.1,0.5-1.1,1.2c0,0.7,0.5,1.2,1.1,1.2S67.5,136,67.5,135.3z"
	/>
<path class="st0" d="M13.3,148.4c0-2,1.5-3.5,3.5-3.5c1.2,0,2.3,0.6,2.9,1.6l-1.3,0.8c-0.3-0.5-0.9-0.8-1.6-0.8c-1.2,0-2,0.8-2,2
	s0.8,2,2,2c0.7,0,1.3-0.3,1.6-0.8l1.3,0.8c-0.6,1-1.7,1.6-2.9,1.6C14.8,151.9,13.3,150.4,13.3,148.4z"/>
<path class="st0" d="M20.6,144.7H22v7.1h-1.5V144.7z"/>
<path class="st0" d="M28.1,146.9v4.9h-1.5v-0.5c-0.3,0.4-0.8,0.6-1.5,0.6c-1.3,0-2.3-1.1-2.3-2.6c0-1.5,1.1-2.6,2.3-2.6
	c0.7,0,1.1,0.2,1.5,0.6v-0.5H28.1z M26.7,149.3c0-0.7-0.5-1.2-1.2-1.2c-0.7,0-1.2,0.5-1.2,1.2c0,0.7,0.5,1.2,1.2,1.2
	C26.2,150.5,26.7,150.1,26.7,149.3z"/>
<path class="st0" d="M32.9,150.3c0,1.1-1,1.6-2,1.6c-1,0-1.7-0.4-2.1-1.2l1.3-0.7c0.1,0.4,0.4,0.6,0.8,0.6c0.4,0,0.5-0.1,0.5-0.3
	c0-0.5-2.4-0.3-2.4-1.9c0-1.1,0.9-1.6,1.9-1.6c0.8,0,1.5,0.4,1.9,1l-1.2,0.7c-0.1-0.3-0.3-0.4-0.7-0.4c-0.3,0-0.4,0.1-0.4,0.3
	C30.5,148.9,32.9,148.5,32.9,150.3z"/>
<path class="st0" d="M37.2,150.3c0,1.1-1,1.6-2,1.6c-1,0-1.7-0.4-2.1-1.2l1.3-0.7c0.1,0.4,0.4,0.6,0.8,0.6c0.4,0,0.5-0.1,0.5-0.3
	c0-0.5-2.4-0.3-2.4-1.9c0-1.1,0.9-1.6,1.9-1.6c0.8,0,1.5,0.4,1.9,1l-1.2,0.7c-0.1-0.3-0.3-0.4-0.7-0.4c-0.3,0-0.4,0.1-0.4,0.3
	C34.8,148.9,37.2,148.5,37.2,150.3z"/>
<path class="st0" d="M37.8,145.6c0-0.5,0.4-0.9,0.9-0.9c0.5,0,0.9,0.4,0.9,0.9c0,0.5-0.4,0.9-0.9,0.9
	C38.2,146.5,37.8,146.1,37.8,145.6z M37.9,146.9h1.5v4.9h-1.5V146.9z"/>
<path class="st0" d="M45,151.8h-1.5v-3.5h-1.2v3.5h-1.5v-3.5h-0.7v-1.4h0.7c0-1.4,0.8-2.1,2.4-2.1c0.4,0,0.8,0,1.2,0.1v1.3
	c-0.4,0-0.8-0.1-1.2-0.1c-0.5,0-0.9,0.1-0.9,0.7H45V151.8z"/>
<path class="st0" d="M45.8,149.3c0-1.5,1.1-2.6,2.6-2.6c0.9,0,1.8,0.5,2.2,1.2l-1.3,0.7c-0.2-0.3-0.5-0.5-0.9-0.5
	c-0.6,0-1.1,0.5-1.1,1.1c0,0.7,0.5,1.1,1.1,1.1c0.4,0,0.8-0.2,0.9-0.5l1.3,0.7c-0.4,0.8-1.2,1.3-2.2,1.3
	C46.9,151.9,45.8,150.8,45.8,149.3z"/>
<path class="st0" d="M56.1,146.9v4.9h-1.5v-0.5c-0.3,0.4-0.8,0.6-1.5,0.6c-1.3,0-2.3-1.1-2.3-2.6c0-1.5,1.1-2.6,2.3-2.6
	c0.7,0,1.1,0.2,1.5,0.6v-0.5H56.1z M54.6,149.3c0-0.7-0.5-1.2-1.2-1.2c-0.7,0-1.2,0.5-1.2,1.2c0,0.7,0.5,1.2,1.2,1.2
	C54.1,150.5,54.6,150.1,54.6,149.3z"/>
<path class="st0" d="M60.4,149.9l1.3,0.7c-0.3,0.6-0.9,1-1.6,1.2v0.4c0.3,0.1,0.6,0.3,0.6,0.8c0,0.6-0.6,1-2.2,0.9v-1
	c0.6,0,0.9,0,0.9-0.1c0-0.1-0.2-0.2-0.5-0.2v-0.7c-1.2-0.2-2.1-1.2-2.1-2.5c0-1.5,1.1-2.6,2.6-2.6c0.9,0,1.8,0.5,2.2,1.2l-1.3,0.7
	c-0.2-0.3-0.5-0.5-0.9-0.5c-0.6,0-1.1,0.5-1.1,1.1c0,0.7,0.5,1.1,1.1,1.1C59.9,150.5,60.3,150.3,60.4,149.9z"/>
<path class="st0" d="M61.9,149.3c0-1.5,1.2-2.6,2.6-2.6c1.4,0,2.6,1.1,2.6,2.6c0,1.5-1.2,2.6-2.6,2.6
	C63.1,151.9,61.9,150.8,61.9,149.3z M64.7,145c0.3,0.2,0.4,0.2,0.4-0.2h1.2c0,1.7-1,1.8-1.9,1.3c-0.3-0.2-0.4-0.2-0.4,0.2h-1.2
	C62.8,144.6,63.8,144.4,64.7,145z M65.6,149.3c0-0.7-0.5-1.2-1.1-1.2s-1.1,0.5-1.1,1.2c0,0.7,0.5,1.2,1.1,1.2S65.6,150,65.6,149.3z"
	/>
<path class="st0" d="M70.4,150.6c0.4,0,0.7-0.2,0.9-0.4l1.2,0.7c-0.5,0.7-1.2,1-2.1,1c-1.7,0-2.7-1.1-2.7-2.6c0-1.5,1.1-2.6,2.6-2.6
	c1.4,0,2.5,1.1,2.5,2.6c0,0.2,0,0.4-0.1,0.6h-3.5C69.4,150.4,69.9,150.6,70.4,150.6z M71.3,148.8c-0.2-0.6-0.6-0.8-1-0.8
	c-0.6,0-0.9,0.3-1.1,0.8H71.3z"/>
<path class="st0" d="M77.2,150.3c0,1.1-1,1.6-2,1.6c-1,0-1.7-0.4-2.1-1.2l1.3-0.7c0.1,0.4,0.4,0.6,0.8,0.6c0.4,0,0.5-0.1,0.5-0.3
	c0-0.5-2.4-0.3-2.4-1.9c0-1.1,0.9-1.6,1.9-1.6c0.8,0,1.5,0.4,1.9,1l-1.2,0.7c-0.1-0.3-0.3-0.4-0.7-0.4c-0.3,0-0.4,0.1-0.4,0.3
	C74.8,148.9,77.2,148.5,77.2,150.3z"/>
<path class="st0" d="M13.3,162.4c0-2,1.5-3.5,3.5-3.5c1.2,0,2.3,0.6,2.9,1.6l-1.3,0.8c-0.3-0.5-0.9-0.8-1.6-0.8c-1.2,0-2,0.8-2,2
	s0.8,2,2,2c0.7,0,1.3-0.3,1.6-0.8l1.3,0.8c-0.6,1-1.7,1.6-2.9,1.6C14.8,165.9,13.3,164.4,13.3,162.4z"/>
<path class="st0" d="M20.3,163.3c0-1.5,1.2-2.6,2.6-2.6c1.4,0,2.6,1.1,2.6,2.6c0,1.5-1.2,2.6-2.6,2.6
	C21.4,165.9,20.3,164.8,20.3,163.3z M24,163.3c0-0.7-0.5-1.2-1.1-1.2s-1.1,0.5-1.1,1.2c0,0.7,0.5,1.2,1.1,1.2S24,164,24,163.3z"/>
<path class="st0" d="M31,162.8v3h-1.5V163c0-0.6-0.4-0.9-0.8-0.9c-0.5,0-0.9,0.3-0.9,1v2.7h-1.5v-4.9h1.5v0.5
	c0.3-0.4,0.8-0.6,1.4-0.6C30.1,160.8,31,161.5,31,162.8z"/>
<path class="st0" d="M33.8,162.3v1.7c0,0.4,0.4,0.5,1,0.4v1.3c-1.9,0.2-2.5-0.4-2.5-1.7v-1.7h-0.8v-1.4h0.8V160l1.5-0.4v1.4h1v1.4
	H33.8z"/>
<path class="st0" d="M38.7,160.8v1.7c-0.6-0.1-1.5,0.1-1.5,1.1v2.2h-1.5v-4.9h1.5v0.9C37.4,161.1,38.1,160.8,38.7,160.8z"/>
<path class="st0" d="M44.2,160.9v4.9h-1.5v-0.5c-0.3,0.4-0.8,0.6-1.5,0.6c-1.3,0-2.3-1.1-2.3-2.6c0-1.5,1.1-2.6,2.3-2.6
	c0.7,0,1.1,0.2,1.5,0.6v-0.5H44.2z M42.8,163.3c0-0.7-0.5-1.2-1.2-1.2c-0.7,0-1.2,0.5-1.2,1.2c0,0.7,0.5,1.2,1.2,1.2
	C42.3,164.5,42.8,164.1,42.8,163.3z"/>
<path class="st0" d="M47.2,162.3v1.7c0,0.4,0.4,0.5,1,0.4v1.3c-1.9,0.2-2.5-0.4-2.5-1.7v-1.7h-0.8v-1.4h0.8V160l1.5-0.4v1.4h1v1.4
	H47.2z"/>
<path class="st0" d="M48.7,163.3c0-1.5,1.2-2.6,2.6-2.6c1.4,0,2.6,1.1,2.6,2.6c0,1.5-1.2,2.6-2.6,2.6
	C49.8,165.9,48.7,164.8,48.7,163.3z M52.4,163.3c0-0.7-0.5-1.2-1.1-1.2s-1.1,0.5-1.1,1.2c0,0.7,0.5,1.2,1.1,1.2S52.4,164,52.4,163.3
	z"/>
<path class="st0" d="M58.3,164.3c0,1.1-1,1.6-2,1.6c-1,0-1.7-0.4-2.1-1.2l1.3-0.7c0.1,0.4,0.4,0.6,0.8,0.6c0.4,0,0.5-0.1,0.5-0.3
	c0-0.5-2.4-0.3-2.4-1.9c0-1.1,0.9-1.6,1.9-1.6c0.8,0,1.5,0.4,1.9,1l-1.2,0.7c-0.1-0.3-0.3-0.4-0.7-0.4c-0.3,0-0.4,0.1-0.4,0.3
	C55.9,162.9,58.3,162.5,58.3,164.3z"/>
<path class="st0" d="M65.3,164.3c0,1.1-1,1.6-2,1.6c-1,0-1.7-0.4-2.1-1.2l1.3-0.7c0.1,0.4,0.4,0.6,0.8,0.6c0.4,0,0.5-0.1,0.5-0.3
	c0-0.5-2.4-0.3-2.4-1.9c0-1.1,0.9-1.6,1.9-1.6c0.8,0,1.5,0.4,1.9,1l-1.2,0.7c-0.1-0.3-0.3-0.4-0.7-0.4c-0.3,0-0.4,0.1-0.4,0.3
	C62.9,162.9,65.3,162.5,65.3,164.3z"/>
<path class="st0" d="M73.4,162.8v3H72v-2.9c0-0.5-0.2-0.8-0.7-0.8c-0.5,0-0.8,0.3-0.8,0.9v2.8H69v-2.9c0-0.5-0.2-0.8-0.7-0.8
	c-0.5,0-0.8,0.3-0.8,0.9v2.8h-1.5v-4.9h1.5v0.4c0.2-0.3,0.7-0.6,1.3-0.6c0.6,0,1,0.2,1.3,0.6c0.3-0.4,0.7-0.6,1.4-0.6
	C72.7,160.8,73.4,161.6,73.4,162.8z"/>
<path class="st0" d="M79.4,160.9v4.9H78v-0.5c-0.3,0.4-0.8,0.6-1.5,0.6c-1.3,0-2.3-1.1-2.3-2.6c0-1.5,1.1-2.6,2.3-2.6
	c0.7,0,1.1,0.2,1.5,0.6v-0.5H79.4z M78,163.3c0-0.7-0.5-1.2-1.2-1.2s-1.2,0.5-1.2,1.2c0,0.7,0.5,1.2,1.2,1.2S78,164.1,78,163.3z"/>
<path class="st0" d="M83.4,160.8v1.7c-0.6-0.1-1.5,0.1-1.5,1.1v2.2h-1.5v-4.9H82v0.9C82.2,161.1,82.8,160.8,83.4,160.8z"/>
<path class="st0" d="M86.1,162.3v1.7c0,0.4,0.4,0.5,1,0.4v1.3c-1.9,0.2-2.5-0.4-2.5-1.7v-1.7h-0.8v-1.4h0.8V160l1.5-0.4v1.4h1v1.4
	H86.1z"/>
<path class="st0" d="M13.3,176.4c0-2,1.5-3.5,3.5-3.5c1.2,0,2.3,0.6,2.9,1.6l-1.3,0.8c-0.3-0.5-0.9-0.8-1.6-0.8c-1.2,0-2,0.8-2,2
	s0.8,2,2,2c0.7,0,1.3-0.3,1.6-0.8l1.3,0.8c-0.6,1-1.7,1.6-2.9,1.6C14.8,179.9,13.3,178.4,13.3,176.4z"/>
<path class="st0" d="M20.3,177.3c0-1.5,1.2-2.6,2.6-2.6c1.4,0,2.6,1.1,2.6,2.6c0,1.5-1.2,2.6-2.6,2.6
	C21.4,179.9,20.3,178.8,20.3,177.3z M24,177.3c0-0.7-0.5-1.2-1.1-1.2s-1.1,0.5-1.1,1.2c0,0.7,0.5,1.2,1.1,1.2S24,178,24,177.3z"/>
<path class="st0" d="M31,176.8v3h-1.5V177c0-0.6-0.4-0.9-0.8-0.9c-0.5,0-0.9,0.3-0.9,1v2.7h-1.5v-4.9h1.5v0.5
	c0.3-0.4,0.8-0.6,1.4-0.6C30.1,174.8,31,175.5,31,176.8z"/>
<path class="st0" d="M36.7,176.8v3h-1.5V177c0-0.6-0.4-0.9-0.8-0.9c-0.5,0-0.9,0.3-0.9,1v2.7H32V173h1.5v2.4
	c0.3-0.4,0.8-0.6,1.4-0.6C35.8,174.8,36.7,175.5,36.7,176.8z"/>
<path class="st0" d="M40.1,178.6c0.4,0,0.7-0.2,0.9-0.4l1.2,0.7c-0.5,0.7-1.2,1-2.1,1c-1.7,0-2.7-1.1-2.7-2.6c0-1.5,1.1-2.6,2.6-2.6
	c1.4,0,2.5,1.1,2.5,2.6c0,0.2,0,0.4-0.1,0.6H39C39.2,178.4,39.6,178.6,40.1,178.6z M41,176.8c-0.2-0.6-0.6-0.8-1-0.8
	c-0.6,0-0.9,0.3-1.1,0.8H41z"/>
<path class="st0" d="M46.5,177.9l1.3,0.7c-0.3,0.6-0.9,1-1.6,1.2v0.4c0.3,0.1,0.6,0.3,0.6,0.8c0,0.6-0.6,1-2.2,0.9v-1
	c0.6,0,0.9,0,0.9-0.1c0-0.1-0.2-0.2-0.5-0.2v-0.7c-1.2-0.2-2.1-1.2-2.1-2.5c0-1.5,1.1-2.6,2.6-2.6c0.9,0,1.8,0.5,2.2,1.2l-1.3,0.7
	c-0.2-0.3-0.5-0.5-0.9-0.5c-0.6,0-1.1,0.5-1.1,1.1c0,0.7,0.5,1.1,1.1,1.1C46,178.5,46.4,178.3,46.5,177.9z"/>
<path class="st0" d="M53.3,174.9v4.9h-1.5v-0.5c-0.3,0.4-0.8,0.6-1.5,0.6c-1.3,0-2.3-1.1-2.3-2.6c0-1.5,1.1-2.6,2.3-2.6
	c0.7,0,1.1,0.2,1.5,0.6v-0.5H53.3z M51.9,177.3c0-0.7-0.5-1.2-1.2-1.2c-0.7,0-1.2,0.5-1.2,1.2c0,0.7,0.5,1.2,1.2,1.2
	C51.4,178.5,51.9,178.1,51.9,177.3z"/>
<path class="st0" d="M60.6,178.3c0,1.1-1,1.6-2,1.6c-1,0-1.7-0.4-2.1-1.2l1.3-0.7c0.1,0.4,0.4,0.6,0.8,0.6c0.4,0,0.5-0.1,0.5-0.3
	c0-0.5-2.4-0.3-2.4-1.9c0-1.1,0.9-1.6,1.9-1.6c0.8,0,1.5,0.4,1.9,1l-1.2,0.7c-0.1-0.3-0.3-0.4-0.7-0.4c-0.3,0-0.4,0.1-0.4,0.3
	C58.2,176.9,60.6,176.5,60.6,178.3z"/>
<path class="st0" d="M63.8,178.6c0.4,0,0.7-0.2,0.9-0.4l1.2,0.7c-0.5,0.7-1.2,1-2.1,1c-1.7,0-2.7-1.1-2.7-2.6c0-1.5,1.1-2.6,2.6-2.6
	c1.4,0,2.5,1.1,2.5,2.6c0,0.2,0,0.4-0.1,0.6h-3.5C62.8,178.4,63.2,178.6,63.8,178.6z M64.7,176.8c-0.2-0.6-0.6-0.8-1-0.8
	c-0.6,0-0.9,0.3-1.1,0.8H64.7z"/>
<path class="st0" d="M71.6,174.9v4.9h-1.5v-0.5c-0.3,0.4-0.8,0.6-1.4,0.6c-1,0-1.8-0.7-1.8-2v-3h1.5v2.8c0,0.6,0.4,0.9,0.8,0.9
	c0.5,0,0.9-0.3,0.9-1v-2.7H71.6z"/>
<path class="st0" d="M74.8,177.3c0-1.5,1.1-2.6,2.6-2.6c0.9,0,1.8,0.5,2.2,1.2l-1.3,0.7c-0.2-0.3-0.5-0.5-0.9-0.5
	c-0.6,0-1.1,0.5-1.1,1.1c0,0.7,0.5,1.1,1.1,1.1c0.4,0,0.8-0.2,0.9-0.5l1.3,0.7c-0.4,0.8-1.2,1.3-2.2,1.3
	C75.9,179.9,74.8,178.8,74.8,177.3z"/>
<path class="st0" d="M80.2,172.7h1.5v7.1h-1.5V172.7z"/>
<path class="st0" d="M82.6,173.6c0-0.5,0.4-0.9,0.9-0.9c0.5,0,0.9,0.4,0.9,0.9c0,0.5-0.4,0.9-0.9,0.9
	C83,174.5,82.6,174.1,82.6,173.6z M82.7,174.9h1.5v4.9h-1.5V174.9z"/>
<path class="st0" d="M87.8,178.6c0.4,0,0.7-0.2,0.9-0.4l1.2,0.7c-0.5,0.7-1.2,1-2.1,1c-1.7,0-2.7-1.1-2.7-2.6c0-1.5,1.1-2.6,2.6-2.6
	c1.4,0,2.5,1.1,2.5,2.6c0,0.2,0,0.4-0.1,0.6h-3.5C86.8,178.4,87.2,178.6,87.8,178.6z M88.7,176.8c-0.2-0.6-0.6-0.8-1-0.8
	c-0.6,0-0.9,0.3-1.1,0.8H88.7z"/>
<path class="st0" d="M95.6,176.8v3h-1.5V177c0-0.6-0.4-0.9-0.8-0.9c-0.5,0-0.9,0.3-0.9,1v2.7h-1.5v-4.9h1.5v0.5
	c0.3-0.4,0.8-0.6,1.4-0.6C94.8,174.8,95.6,175.5,95.6,176.8z"/>
<path class="st0" d="M98.5,176.3v1.7c0,0.4,0.4,0.5,1,0.4v1.3c-1.9,0.2-2.5-0.4-2.5-1.7v-1.7h-0.8v-1.4H97V174l1.5-0.4v1.4h1v1.4
	H98.5z"/>
<path class="st0" d="M102.7,178.6c0.4,0,0.7-0.2,0.9-0.4l1.2,0.7c-0.5,0.7-1.2,1-2.1,1c-1.7,0-2.7-1.1-2.7-2.6
	c0-1.5,1.1-2.6,2.6-2.6c1.4,0,2.5,1.1,2.5,2.6c0,0.2,0,0.4-0.1,0.6h-3.5C101.7,178.4,102.2,178.6,102.7,178.6z M103.6,176.8
	c-0.2-0.6-0.6-0.8-1-0.8c-0.6,0-0.9,0.3-1.1,0.8H103.6z"/>
<path class="st0" d="M77.9,106.4c0-2,1.5-3.5,3.5-3.5c1.2,0,2.3,0.6,2.9,1.6l-1.3,0.8c-0.3-0.5-0.9-0.8-1.6-0.8c-1.2,0-2,0.8-2,2
	s0.8,2,2,2c0.7,0,1.3-0.3,1.6-0.8l1.3,0.8c-0.6,1-1.7,1.6-2.9,1.6C79.4,109.9,77.9,108.4,77.9,106.4z"/>
<path class="st0" d="M84.8,107.3c0-1.5,1.2-2.6,2.6-2.6c1.4,0,2.6,1.1,2.6,2.6c0,1.5-1.2,2.6-2.6,2.6
	C86,109.9,84.8,108.8,84.8,107.3z M88.5,107.3c0-0.7-0.5-1.2-1.1-1.2s-1.1,0.5-1.1,1.2c0,0.7,0.5,1.2,1.1,1.2S88.5,108,88.5,107.3z"
	/>
<path class="st0" d="M98.2,106.8v3h-1.5v-2.9c0-0.5-0.2-0.8-0.7-0.8c-0.5,0-0.8,0.3-0.8,0.9v2.8h-1.5v-2.9c0-0.5-0.2-0.8-0.7-0.8
	c-0.5,0-0.8,0.3-0.8,0.9v2.8h-1.5v-4.9h1.5v0.4c0.2-0.3,0.7-0.6,1.3-0.6c0.6,0,1,0.2,1.3,0.6c0.3-0.4,0.7-0.6,1.4-0.6
	C97.4,104.8,98.2,105.6,98.2,106.8z"/>
<path class="st0" d="M101.6,108.6c0.4,0,0.7-0.2,0.9-0.4l1.2,0.7c-0.5,0.7-1.2,1-2.1,1c-1.7,0-2.7-1.1-2.7-2.6
	c0-1.5,1.1-2.6,2.6-2.6c1.4,0,2.5,1.1,2.5,2.6c0,0.2,0,0.4-0.1,0.6h-3.5C100.7,108.4,101.1,108.6,101.6,108.6z M102.5,106.8
	c-0.2-0.6-0.6-0.8-1-0.8c-0.6,0-0.9,0.3-1.1,0.8H102.5z"/>
<path class="st0" d="M107.7,104.8v1.7c-0.6-0.1-1.5,0.1-1.5,1.1v2.2h-1.5v-4.9h1.5v0.9C106.5,105.1,107.1,104.8,107.7,104.8z"/>
<path class="st0" d="M108,107.3c0-1.5,1.1-2.6,2.6-2.6c0.9,0,1.8,0.5,2.2,1.2l-1.3,0.7c-0.2-0.3-0.5-0.5-0.9-0.5
	c-0.6,0-1.1,0.5-1.1,1.1c0,0.7,0.5,1.1,1.1,1.1c0.4,0,0.8-0.2,0.9-0.5l1.3,0.7c-0.4,0.8-1.2,1.3-2.2,1.3
	C109.1,109.9,108,108.8,108,107.3z"/>
<path class="st0" d="M113.3,103.6c0-0.5,0.4-0.9,0.9-0.9s0.9,0.4,0.9,0.9c0,0.5-0.4,0.9-0.9,0.9S113.3,104.1,113.3,103.6z
	 M113.4,104.9h1.5v4.9h-1.5V104.9z"/>
<path class="st0" d="M121,104.9v4.9h-1.5v-0.5c-0.3,0.4-0.8,0.6-1.5,0.6c-1.3,0-2.3-1.1-2.3-2.6c0-1.5,1.1-2.6,2.3-2.6
	c0.7,0,1.1,0.2,1.5,0.6v-0.5H121z M119.5,107.3c0-0.7-0.5-1.2-1.2-1.2s-1.2,0.5-1.2,1.2c0,0.7,0.5,1.2,1.2,1.2
	S119.5,108.1,119.5,107.3z"/>
<path class="st0" d="M126.7,106.8v3h-1.5V107c0-0.6-0.4-0.9-0.8-0.9c-0.5,0-0.9,0.3-0.9,1v2.7H122v-4.9h1.5v0.5
	c0.3-0.4,0.8-0.6,1.4-0.6C125.9,104.8,126.7,105.5,126.7,106.8z"/>
<path class="st0" d="M129.6,106.3v1.7c0,0.4,0.4,0.5,1,0.4v1.3c-1.9,0.2-2.5-0.4-2.5-1.7v-1.7h-0.8v-1.4h0.8V104l1.5-0.4v1.4h1v1.4
	H129.6z"/>
<path class="st0" d="M133.8,108.6c0.4,0,0.7-0.2,0.9-0.4l1.2,0.7c-0.5,0.7-1.2,1-2.1,1c-1.7,0-2.7-1.1-2.7-2.6
	c0-1.5,1.1-2.6,2.6-2.6c1.4,0,2.5,1.1,2.5,2.6c0,0.2,0,0.4-0.1,0.6h-3.5C132.8,108.4,133.2,108.6,133.8,108.6z M134.7,106.8
	c-0.2-0.6-0.6-0.8-1-0.8c-0.6,0-0.9,0.3-1.1,0.8H134.7z"/>
<path class="st0" d="M140.6,108.3c0,1.1-1,1.6-2,1.6c-1,0-1.7-0.4-2.1-1.2l1.3-0.7c0.1,0.4,0.4,0.6,0.8,0.6c0.4,0,0.5-0.1,0.5-0.3
	c0-0.5-2.4-0.3-2.4-1.9c0-1.1,0.9-1.6,1.9-1.6c0.8,0,1.5,0.4,1.9,1l-1.2,0.7c-0.1-0.3-0.3-0.4-0.7-0.4c-0.3,0-0.4,0.1-0.4,0.3
	C138.2,106.9,140.6,106.5,140.6,108.3z"/>
<path class="st0" d="M148.8,104.9v4.9h-1.5v-0.5c-0.3,0.4-0.8,0.6-1.5,0.6c-1.3,0-2.3-1.1-2.3-2.6c0-1.5,1.1-2.6,2.3-2.6
	c0.7,0,1.1,0.2,1.5,0.6v-0.5H148.8z M147.3,107.3c0-0.7-0.5-1.2-1.2-1.2c-0.7,0-1.2,0.5-1.2,1.2c0,0.7,0.5,1.2,1.2,1.2
	C146.8,108.5,147.3,108.1,147.3,107.3z"/>
<path class="st0" d="M155.1,107.3c0,1.5-1.1,2.6-2.3,2.6c-0.7,0-1.1-0.2-1.5-0.6v2.4h-1.5v-6.8h1.5v0.5c0.3-0.4,0.8-0.6,1.5-0.6
	C154,104.8,155.1,105.9,155.1,107.3z M153.6,107.3c0-0.7-0.5-1.2-1.2-1.2s-1.2,0.5-1.2,1.2c0,0.7,0.5,1.2,1.2,1.2
	S153.6,108.1,153.6,107.3z"/>
<path class="st0" d="M158.9,104.8v1.7c-0.6-0.1-1.5,0.1-1.5,1.1v2.2h-1.5v-4.9h1.5v0.9C157.6,105.1,158.2,104.8,158.9,104.8z"/>
<path class="st0" d="M159.1,107.3c0-1.5,1.2-2.6,2.6-2.6c1.4,0,2.6,1.1,2.6,2.6c0,1.5-1.2,2.6-2.6,2.6
	C160.3,109.9,159.1,108.8,159.1,107.3z M162.9,107.3c0-0.7-0.5-1.2-1.1-1.2s-1.1,0.5-1.1,1.2c0,0.7,0.5,1.2,1.1,1.2
	S162.9,108,162.9,107.3z"/>
<path class="st0" d="M169.7,104.9l-1.8,4.9h-1.7l-1.8-4.9h1.6l1,3.1l1-3.1H169.7z"/>
<path class="st0" d="M175,104.9v4.9h-1.5v-0.5c-0.3,0.4-0.8,0.6-1.5,0.6c-1.3,0-2.3-1.1-2.3-2.6c0-1.5,1.1-2.6,2.3-2.6
	c0.7,0,1.1,0.2,1.5,0.6v-0.5H175z M173.6,107.3c0-0.7-0.5-1.2-1.2-1.2s-1.2,0.5-1.2,1.2c0,0.7,0.5,1.2,1.2,1.2
	S173.6,108.1,173.6,107.3z"/>
<path class="st0" d="M181.1,103v6.8h-1.5v-0.5c-0.3,0.4-0.8,0.6-1.5,0.6c-1.3,0-2.3-1.1-2.3-2.6c0-1.5,1.1-2.6,2.3-2.6
	c0.7,0,1.1,0.2,1.5,0.6V103H181.1z M179.6,107.3c0-0.7-0.5-1.2-1.2-1.2s-1.2,0.5-1.2,1.2c0,0.7,0.5,1.2,1.2,1.2
	S179.6,108.1,179.6,107.3z"/>
<path class="st0" d="M181.9,107.3c0-1.5,1.2-2.6,2.6-2.6c1.4,0,2.6,1.1,2.6,2.6c0,1.5-1.2,2.6-2.6,2.6
	C183.1,109.9,181.9,108.8,181.9,107.3z M185.6,107.3c0-0.7-0.5-1.2-1.1-1.2s-1.1,0.5-1.1,1.2c0,0.7,0.5,1.2,1.1,1.2
	S185.6,108,185.6,107.3z"/>
<path class="st0" d="M191.6,108.3c0,1.1-1,1.6-2,1.6c-1,0-1.7-0.4-2.1-1.2l1.3-0.7c0.1,0.4,0.4,0.6,0.8,0.6c0.4,0,0.5-0.1,0.5-0.3
	c0-0.5-2.4-0.3-2.4-1.9c0-1.1,0.9-1.6,1.9-1.6c0.8,0,1.5,0.4,1.9,1l-1.2,0.7c-0.1-0.3-0.3-0.4-0.7-0.4c-0.3,0-0.4,0.1-0.4,0.3
	C189.2,106.9,191.6,106.5,191.6,108.3z"/>
<path class="st0" d="M122.1,118.5v1.3h2.5v1.5h-2.5v2.5h-1.6V117h4.1v1.5H122.1z"/>
<path class="st0" d="M125.4,117.6c0-0.5,0.4-0.9,0.9-0.9c0.5,0,0.9,0.4,0.9,0.9c0,0.5-0.4,0.9-0.9,0.9
	C125.8,118.5,125.4,118.1,125.4,117.6z M125.6,118.9h1.5v4.9h-1.5V118.9z"/>
<path class="st0" d="M133.1,118.9v4.9h-1.5v-0.5c-0.3,0.4-0.8,0.6-1.5,0.6c-1.3,0-2.3-1.1-2.3-2.6c0-1.5,1.1-2.6,2.3-2.6
	c0.7,0,1.1,0.2,1.5,0.6v-0.5H133.1z M131.6,121.3c0-0.7-0.5-1.2-1.2-1.2c-0.7,0-1.2,0.5-1.2,1.2c0,0.7,0.5,1.2,1.2,1.2
	C131.2,122.5,131.6,122.1,131.6,121.3z"/>
<path class="st0" d="M136,120.3v1.7c0,0.4,0.4,0.5,1,0.4v1.3c-1.9,0.2-2.5-0.4-2.5-1.7v-1.7h-0.8v-1.4h0.8V118l1.5-0.4v1.4h1v1.4
	H136z"/>
<path class="st0" d="M142.8,118.9v4.6c0,1.6-1.3,2.3-2.6,2.3c-1,0-1.9-0.4-2.3-1.2l1.2-0.7c0.2,0.3,0.5,0.6,1.1,0.6
	c0.7,0,1.1-0.4,1.1-1v-0.4c-0.3,0.4-0.8,0.6-1.4,0.6c-1.4,0-2.4-1.1-2.4-2.5s1-2.5,2.4-2.5c0.6,0,1.1,0.2,1.4,0.6v-0.5H142.8z
	 M141.4,121.2c0-0.7-0.5-1.1-1.2-1.1s-1.2,0.5-1.2,1.1c0,0.7,0.5,1.1,1.2,1.1S141.4,121.9,141.4,121.2z"/>
<path class="st0" d="M146.3,122.6c0.4,0,0.7-0.2,0.9-0.4l1.2,0.7c-0.5,0.7-1.2,1-2.1,1c-1.7,0-2.7-1.1-2.7-2.6
	c0-1.5,1.1-2.6,2.6-2.6c1.4,0,2.5,1.1,2.5,2.6c0,0.2,0,0.4-0.1,0.6h-3.5C145.3,122.4,145.8,122.6,146.3,122.6z M147.2,120.8
	c-0.2-0.6-0.6-0.8-1-0.8c-0.6,0-0.9,0.3-1.1,0.8H147.2z"/>
<path class="st0" d="M149.5,116.7h1.5v7.1h-1.5V116.7z"/>
<path class="st0" d="M157,117v6.8h-1.5v-0.5c-0.3,0.4-0.8,0.6-1.5,0.6c-1.3,0-2.3-1.1-2.3-2.6c0-1.5,1.1-2.6,2.3-2.6
	c0.7,0,1.1,0.2,1.5,0.6V117H157z M155.6,121.3c0-0.7-0.5-1.2-1.2-1.2c-0.7,0-1.2,0.5-1.2,1.2c0,0.7,0.5,1.2,1.2,1.2
	C155.1,122.5,155.6,122.1,155.6,121.3z"/>
<path class="st0" d="M167.9,120.8v3h-1.5v-2.9c0-0.5-0.2-0.8-0.7-0.8c-0.5,0-0.8,0.3-0.8,0.9v2.8h-1.5v-2.9c0-0.5-0.2-0.8-0.7-0.8
	c-0.5,0-0.8,0.3-0.8,0.9v2.8h-1.5v-4.9h1.5v0.4c0.2-0.3,0.7-0.6,1.3-0.6c0.6,0,1,0.2,1.3,0.6c0.3-0.4,0.7-0.6,1.4-0.6
	C167.1,118.8,167.9,119.6,167.9,120.8z"/>
<path class="st0" d="M168.6,121.3c0-1.5,1.2-2.6,2.6-2.6c1.4,0,2.6,1.1,2.6,2.6c0,1.5-1.2,2.6-2.6,2.6
	C169.8,123.9,168.6,122.8,168.6,121.3z M172.3,121.3c0-0.7-0.5-1.2-1.1-1.2s-1.1,0.5-1.1,1.2c0,0.7,0.5,1.2,1.1,1.2
	S172.3,122,172.3,121.3z"/>
<path class="st0" d="M177.1,122.6c0.4,0,0.7-0.2,0.9-0.4l1.2,0.7c-0.5,0.7-1.2,1-2.1,1c-1.7,0-2.7-1.1-2.7-2.6
	c0-1.5,1.1-2.6,2.6-2.6c1.4,0,2.5,1.1,2.5,2.6c0,0.2,0,0.4-0.1,0.6h-3.5C176.1,122.4,176.6,122.6,177.1,122.6z M178,120.8
	c-0.2-0.6-0.6-0.8-1-0.8c-0.6,0-0.9,0.3-1.1,0.8H178z"/>
<path class="st0" d="M185.3,117v6.8h-1.5v-0.5c-0.3,0.4-0.8,0.6-1.5,0.6c-1.3,0-2.3-1.1-2.3-2.6c0-1.5,1.1-2.6,2.3-2.6
	c0.7,0,1.1,0.2,1.5,0.6V117H185.3z M183.8,121.3c0-0.7-0.5-1.2-1.2-1.2s-1.2,0.5-1.2,1.2c0,0.7,0.5,1.2,1.2,1.2
	S183.8,122.1,183.8,121.3z"/>
<path class="st0" d="M191.3,118.9v4.9h-1.5v-0.5c-0.3,0.4-0.8,0.6-1.5,0.6c-1.3,0-2.3-1.1-2.3-2.6c0-1.5,1.1-2.6,2.3-2.6
	c0.7,0,1.1,0.2,1.5,0.6v-0.5H191.3z M189.9,121.3c0-0.7-0.5-1.2-1.2-1.2s-1.2,0.5-1.2,1.2c0,0.7,0.5,1.2,1.2,1.2
	S189.9,122.1,189.9,121.3z"/>
<path class="st0" d="M131.9,132.5h-1.8v5.3h-1.6v-5.3h-1.8V131h5.1V132.5z"/>
<path class="st0" d="M134.8,132.8v1.7c-0.6-0.1-1.5,0.1-1.5,1.1v2.2h-1.5v-4.9h1.5v0.9C133.6,133.1,134.2,132.8,134.8,132.8z"/>
<path class="st0" d="M140.4,132.9v4.9h-1.5v-0.5c-0.3,0.4-0.8,0.6-1.5,0.6c-1.3,0-2.3-1.1-2.3-2.6c0-1.5,1.1-2.6,2.3-2.6
	c0.7,0,1.1,0.2,1.5,0.6v-0.5H140.4z M138.9,135.3c0-0.7-0.5-1.2-1.2-1.2c-0.7,0-1.2,0.5-1.2,1.2c0,0.7,0.5,1.2,1.2,1.2
	C138.4,136.5,138.9,136.1,138.9,135.3z"/>
<path class="st0" d="M146.1,134.8v3h-1.5V135c0-0.6-0.4-0.9-0.8-0.9c-0.5,0-0.9,0.3-0.9,1v2.7h-1.5v-4.9h1.5v0.5
	c0.3-0.4,0.8-0.6,1.4-0.6C145.3,132.8,146.1,133.5,146.1,134.8z"/>
<path class="st0" d="M150.9,136.3c0,1.1-1,1.6-2,1.6c-1,0-1.7-0.4-2.1-1.2l1.3-0.7c0.1,0.4,0.4,0.6,0.8,0.6c0.4,0,0.5-0.1,0.5-0.3
	c0-0.5-2.4-0.3-2.4-1.9c0-1.1,0.9-1.6,1.9-1.6c0.8,0,1.5,0.4,1.9,1l-1.2,0.7c-0.1-0.3-0.3-0.4-0.7-0.4c-0.3,0-0.4,0.1-0.4,0.3
	C148.5,134.9,150.9,134.5,150.9,136.3z"/>
<path class="st0" d="M156.9,135.3c0,1.5-1.1,2.6-2.3,2.6c-0.7,0-1.1-0.2-1.5-0.6v2.4h-1.5v-6.8h1.5v0.5c0.3-0.4,0.8-0.6,1.5-0.6
	C155.9,132.8,156.9,133.9,156.9,135.3z M155.5,135.3c0-0.7-0.5-1.2-1.2-1.2s-1.2,0.5-1.2,1.2c0,0.7,0.5,1.2,1.2,1.2
	S155.5,136.1,155.5,135.3z"/>
<path class="st0" d="M162.8,132.9v4.9h-1.5v-0.5c-0.3,0.4-0.8,0.6-1.5,0.6c-1.3,0-2.3-1.1-2.3-2.6c0-1.5,1.1-2.6,2.3-2.6
	c0.7,0,1.1,0.2,1.5,0.6v-0.5H162.8z M161.3,135.3c0-0.7-0.5-1.2-1.2-1.2c-0.7,0-1.2,0.5-1.2,1.2c0,0.7,0.5,1.2,1.2,1.2
	C160.8,136.5,161.3,136.1,161.3,135.3z"/>
<path class="st0" d="M166.8,132.8v1.7c-0.6-0.1-1.5,0.1-1.5,1.1v2.2h-1.5v-4.9h1.5v0.9C165.5,133.1,166.2,132.8,166.8,132.8z"/>
<path class="st0" d="M169.8,136.6c0.4,0,0.7-0.2,0.9-0.4l1.2,0.7c-0.5,0.7-1.2,1-2.1,1c-1.7,0-2.7-1.1-2.7-2.6
	c0-1.5,1.1-2.6,2.6-2.6c1.4,0,2.5,1.1,2.5,2.6c0,0.2,0,0.4-0.1,0.6h-3.5C168.8,136.4,169.3,136.6,169.8,136.6z M169.2,132.4h-1.4
	l1-1.5h1.4l1,1.5h-1.4l-0.3-0.5L169.2,132.4z M170.7,134.8c-0.2-0.6-0.6-0.8-1-0.8c-0.6,0-0.9,0.3-1.1,0.8H170.7z"/>
<path class="st0" d="M177.7,134.8v3h-1.5V135c0-0.6-0.4-0.9-0.8-0.9c-0.5,0-0.9,0.3-0.9,1v2.7H173v-4.9h1.5v0.5
	c0.3-0.4,0.8-0.6,1.4-0.6C176.8,132.8,177.7,133.5,177.7,134.8z"/>
<path class="st0" d="M178.4,135.3c0-1.5,1.1-2.6,2.6-2.6c0.9,0,1.8,0.5,2.2,1.2l-1.3,0.7c-0.2-0.3-0.5-0.5-0.9-0.5
	c-0.6,0-1.1,0.5-1.1,1.1c0,0.7,0.5,1.1,1.1,1.1c0.4,0,0.8-0.2,0.9-0.5l1.3,0.7c-0.4,0.8-1.2,1.3-2.2,1.3
	C179.5,137.9,178.4,136.8,178.4,135.3z"/>
<path class="st0" d="M183.6,131.6c0-0.5,0.4-0.9,0.9-0.9s0.9,0.4,0.9,0.9c0,0.5-0.4,0.9-0.9,0.9S183.6,132.1,183.6,131.6z
	 M183.8,132.9h1.5v4.9h-1.5V132.9z"/>
<path class="st0" d="M191.3,132.9v4.9h-1.5v-0.5c-0.3,0.4-0.8,0.6-1.5,0.6c-1.3,0-2.3-1.1-2.3-2.6c0-1.5,1.1-2.6,2.3-2.6
	c0.7,0,1.1,0.2,1.5,0.6v-0.5H191.3z M189.9,135.3c0-0.7-0.5-1.2-1.2-1.2s-1.2,0.5-1.2,1.2c0,0.7,0.5,1.2,1.2,1.2
	S189.9,136.1,189.9,135.3z"/>
<path class="st0" d="M132.9,149.8c0,1.2-1,2-2.2,2h-2.9V145h2.7c1.2,0,2.2,0.8,2.2,2c0,0.6-0.2,1-0.6,1.3
	C132.6,148.6,132.9,149.1,132.9,149.8z M129.4,146.4v1.2h1.1c0.4,0,0.6-0.3,0.6-0.6s-0.2-0.6-0.6-0.6H129.4z M131.3,149.7
	c0-0.4-0.3-0.7-0.6-0.7h-1.3v1.3h1.3C131.1,150.3,131.3,150,131.3,149.7z"/>
<path class="st0" d="M133.5,149.3c0-1.5,1.2-2.6,2.6-2.6s2.6,1.1,2.6,2.6c0,1.5-1.2,2.6-2.6,2.6S133.5,150.8,133.5,149.3z
	 M137.2,149.3c0-0.7-0.5-1.2-1.1-1.2s-1.1,0.5-1.1,1.2c0,0.7,0.5,1.2,1.1,1.2S137.2,150,137.2,149.3z"/>
<path class="st0" d="M139.5,144.7h1.5v7.1h-1.5V144.7z"/>
<path class="st0" d="M145.7,150.3c0,1.1-1,1.6-2,1.6c-1,0-1.7-0.4-2.1-1.2l1.3-0.7c0.1,0.4,0.4,0.6,0.8,0.6c0.4,0,0.5-0.1,0.5-0.3
	c0-0.5-2.4-0.3-2.4-1.9c0-1.1,0.9-1.6,1.9-1.6c0.8,0,1.5,0.4,1.9,1l-1.2,0.7c-0.1-0.3-0.3-0.4-0.7-0.4c-0.3,0-0.4,0.1-0.4,0.3
	C143.3,148.9,145.7,148.5,145.7,150.3z"/>
<path class="st0" d="M151.4,146.9v4.9H150v-0.5c-0.3,0.4-0.8,0.6-1.5,0.6c-1.3,0-2.3-1.1-2.3-2.6c0-1.5,1.1-2.6,2.3-2.6
	c0.7,0,1.1,0.2,1.5,0.6v-0.5H151.4z M150,149.3c0-0.7-0.5-1.2-1.2-1.2c-0.7,0-1.2,0.5-1.2,1.2c0,0.7,0.5,1.2,1.2,1.2
	C149.5,150.5,150,150.1,150,149.3z"/>
<path class="st0" d="M162.3,148.8v3h-1.5v-2.9c0-0.5-0.2-0.8-0.7-0.8c-0.5,0-0.8,0.3-0.8,0.9v2.8h-1.5v-2.9c0-0.5-0.2-0.8-0.7-0.8
	c-0.5,0-0.8,0.3-0.8,0.9v2.8h-1.5v-4.9h1.5v0.4c0.2-0.3,0.7-0.6,1.3-0.6c0.6,0,1,0.2,1.3,0.6c0.3-0.4,0.7-0.6,1.4-0.6
	C161.5,146.8,162.3,147.6,162.3,148.8z"/>
<path class="st0" d="M167.9,146.9v4.9h-1.5v-0.5c-0.3,0.4-0.8,0.6-1.4,0.6c-1,0-1.8-0.7-1.8-2v-3h1.5v2.8c0,0.6,0.4,0.9,0.8,0.9
	c0.5,0,0.9-0.3,0.9-1v-2.7H167.9z M166.1,146.3h-1.4l0.8-1.4h1.8L166.1,146.3z"/>
<path class="st0" d="M169,144.7h1.5v7.1H169V144.7z"/>
<path class="st0" d="M173.3,148.3v1.7c0,0.4,0.4,0.5,1,0.4v1.3c-1.9,0.2-2.5-0.4-2.5-1.7v-1.7h-0.8v-1.4h0.8V146l1.5-0.4v1.4h1v1.4
	H173.3z"/>
<path class="st0" d="M175,145.6c0-0.5,0.4-0.9,0.9-0.9s0.9,0.4,0.9,0.9c0,0.5-0.4,0.9-0.9,0.9S175,146.1,175,145.6z M175.2,146.9
	h1.5v4.9h-1.5V146.9z"/>
<path class="st0" d="M183,149.3c0,1.5-1.1,2.6-2.3,2.6c-0.7,0-1.1-0.2-1.5-0.6v2.4h-1.5v-6.8h1.5v0.5c0.3-0.4,0.8-0.6,1.5-0.6
	C181.9,146.8,183,147.9,183,149.3z M181.5,149.3c0-0.7-0.5-1.2-1.2-1.2s-1.2,0.5-1.2,1.2c0,0.7,0.5,1.2,1.2,1.2
	S181.5,150.1,181.5,149.3z"/>
<path class="st0" d="M183.8,144.7h1.5v7.1h-1.5V144.7z"/>
<path class="st0" d="M191.3,146.9v4.9h-1.5v-0.5c-0.3,0.4-0.8,0.6-1.5,0.6c-1.3,0-2.3-1.1-2.3-2.6c0-1.5,1.1-2.6,2.3-2.6
	c0.7,0,1.1,0.2,1.5,0.6v-0.5H191.3z M189.9,149.3c0-0.7-0.5-1.2-1.2-1.2s-1.2,0.5-1.2,1.2c0,0.7,0.5,1.2,1.2,1.2
	S189.9,150.1,189.9,149.3z"/>
<path class="st0" d="M142.5,164.2l1.3-0.8c0.2,0.6,0.7,0.9,1.4,0.9c0.7,0,0.9-0.3,0.9-0.6c0-0.4-0.4-0.6-1.4-0.9c-1-0.3-2-0.8-2-2.1
	c0-1.3,1.1-2.1,2.3-2.1c1.1,0,2,0.5,2.5,1.5l-1.3,0.8c-0.2-0.5-0.6-0.8-1.2-0.8c-0.5,0-0.7,0.2-0.7,0.5c0,0.3,0.2,0.5,1.2,0.8
	c1,0.3,2.2,0.7,2.2,2.1c0,1.3-1.1,2.1-2.5,2.1C143.8,165.9,142.9,165.2,142.5,164.2z"/>
<path class="st0" d="M151.2,164.6c0.4,0,0.7-0.2,0.9-0.4l1.2,0.7c-0.5,0.7-1.2,1-2.1,1c-1.7,0-2.7-1.1-2.7-2.6
	c0-1.5,1.1-2.6,2.6-2.6c1.4,0,2.5,1.1,2.5,2.6c0,0.2,0,0.4-0.1,0.6H150C150.2,164.4,150.6,164.6,151.2,164.6z M152.1,162.8
	c-0.2-0.6-0.6-0.8-1-0.8c-0.6,0-0.9,0.3-1.1,0.8H152.1z"/>
<path class="st0" d="M159.3,160.9v4.6c0,1.6-1.3,2.3-2.6,2.3c-1,0-1.9-0.4-2.3-1.2l1.2-0.7c0.2,0.3,0.5,0.6,1.1,0.6
	c0.7,0,1.1-0.4,1.1-1v-0.4c-0.3,0.4-0.8,0.6-1.4,0.6c-1.4,0-2.4-1.1-2.4-2.5s1-2.5,2.4-2.5c0.6,0,1.1,0.2,1.4,0.6v-0.5H159.3z
	 M157.9,163.2c0-0.7-0.5-1.1-1.2-1.1c-0.7,0-1.2,0.5-1.2,1.1c0,0.7,0.5,1.1,1.2,1.1C157.4,164.4,157.9,163.9,157.9,163.2z"/>
<path class="st0" d="M165,160.9v4.9h-1.5v-0.5c-0.3,0.4-0.8,0.6-1.4,0.6c-1,0-1.8-0.7-1.8-2v-3h1.5v2.8c0,0.6,0.4,0.9,0.8,0.9
	c0.5,0,0.9-0.3,0.9-1v-2.7H165z"/>
<path class="st0" d="M169,160.8v1.7c-0.6-0.1-1.5,0.1-1.5,1.1v2.2h-1.5v-4.9h1.5v0.9C167.7,161.1,168.4,160.8,169,160.8z"/>
<path class="st0" d="M174.5,160.9v4.9h-1.5v-0.5c-0.3,0.4-0.8,0.6-1.5,0.6c-1.3,0-2.3-1.1-2.3-2.6c0-1.5,1.1-2.6,2.3-2.6
	c0.7,0,1.1,0.2,1.5,0.6v-0.5H174.5z M173.1,163.3c0-0.7-0.5-1.2-1.2-1.2s-1.2,0.5-1.2,1.2c0,0.7,0.5,1.2,1.2,1.2
	S173.1,164.1,173.1,163.3z"/>
<path class="st0" d="M180.3,162.8v3h-1.5V163c0-0.6-0.4-0.9-0.8-0.9c-0.5,0-0.9,0.3-0.9,1v2.7h-1.5v-4.9h1.5v0.5
	c0.3-0.4,0.8-0.6,1.4-0.6C179.4,160.8,180.3,161.5,180.3,162.8z"/>
<path class="st0" d="M184.6,163.9l1.3,0.7c-0.3,0.6-0.9,1-1.6,1.2v0.4c0.3,0.1,0.6,0.3,0.6,0.8c0,0.6-0.6,1-2.2,0.9v-1
	c0.6,0,0.9,0,0.9-0.1c0-0.1-0.2-0.2-0.5-0.2v-0.7c-1.2-0.2-2.1-1.2-2.1-2.5c0-1.5,1.1-2.6,2.6-2.6c0.9,0,1.8,0.5,2.2,1.2l-1.3,0.7
	c-0.2-0.3-0.5-0.5-0.9-0.5c-0.6,0-1.1,0.5-1.1,1.1c0,0.7,0.5,1.1,1.1,1.1C184,164.5,184.4,164.3,184.6,163.9z"/>
<path class="st0" d="M191.3,160.9v4.9h-1.5v-0.5c-0.3,0.4-0.8,0.6-1.5,0.6c-1.3,0-2.3-1.1-2.3-2.6c0-1.5,1.1-2.6,2.3-2.6
	c0.7,0,1.1,0.2,1.5,0.6v-0.5H191.3z M189.9,163.3c0-0.7-0.5-1.2-1.2-1.2s-1.2,0.5-1.2,1.2c0,0.7,0.5,1.2,1.2,1.2
	S189.9,164.1,189.9,163.3z"/>
<path class="st0" d="M162,178.3v1.5h-4.3V173h4.2v1.5h-2.7v1.1h2.4v1.5h-2.4v1.2H162z"/>
<path class="st0" d="M166.6,178.3c0,1.1-1,1.6-2,1.6c-1,0-1.7-0.4-2.1-1.2l1.3-0.7c0.1,0.4,0.4,0.6,0.8,0.6c0.4,0,0.5-0.1,0.5-0.3
	c0-0.5-2.4-0.3-2.4-1.9c0-1.1,0.9-1.6,1.9-1.6c0.8,0,1.5,0.4,1.9,1l-1.2,0.7c-0.1-0.3-0.3-0.4-0.7-0.4c-0.3,0-0.4,0.1-0.4,0.3
	C164.2,176.9,166.6,176.5,166.6,178.3z"/>
<path class="st0" d="M167.1,177.3c0-1.5,1.1-2.6,2.6-2.6c0.9,0,1.8,0.5,2.2,1.2l-1.3,0.7c-0.2-0.3-0.5-0.5-0.9-0.5
	c-0.6,0-1.1,0.5-1.1,1.1c0,0.7,0.5,1.1,1.1,1.1c0.4,0,0.8-0.2,0.9-0.5l1.3,0.7c-0.4,0.8-1.2,1.3-2.2,1.3
	C168.2,179.9,167.1,178.8,167.1,177.3z"/>
<path class="st0" d="M172.1,177.3c0-1.5,1.2-2.6,2.6-2.6c1.4,0,2.6,1.1,2.6,2.6c0,1.5-1.2,2.6-2.6,2.6
	C173.3,179.9,172.1,178.8,172.1,177.3z M175.8,177.3c0-0.7-0.5-1.2-1.1-1.2s-1.1,0.5-1.1,1.2c0,0.7,0.5,1.2,1.1,1.2
	S175.8,178,175.8,177.3z"/>
<path class="st0" d="M178.1,172.7h1.5v7.1h-1.5V172.7z"/>
<path class="st0" d="M185.3,176.8v3h-1.5V177c0-0.6-0.4-0.9-0.8-0.9c-0.5,0-0.9,0.3-0.9,1v2.7h-1.5V173h1.5v2.4
	c0.3-0.4,0.8-0.6,1.4-0.6C184.5,174.8,185.3,175.5,185.3,176.8z"/>
<path class="st0" d="M191.3,174.9v4.9h-1.5v-0.5c-0.3,0.4-0.8,0.6-1.5,0.6c-1.3,0-2.3-1.1-2.3-2.6c0-1.5,1.1-2.6,2.3-2.6
	c0.7,0,1.1,0.2,1.5,0.6v-0.5H191.3z M189.9,177.3c0-0.7-0.5-1.2-1.2-1.2s-1.2,0.5-1.2,1.2c0,0.7,0.5,1.2,1.2,1.2
	S189.9,178.1,189.9,177.3z"/>
</svg>
