<?xml version="1.0" encoding="utf-8"?>
<!-- Generator: Adobe Illustrator 21.1.0, SVG Export Plug-In . SVG Version: 6.00 Build 0)  -->
<svg version="1.1" id="Layer_4" xmlns="http://www.w3.org/2000/svg" xmlns:xlink="http://www.w3.org/1999/xlink" x="0px" y="0px"
	 viewBox="0 0 517 207.1" style="enable-background:new 0 0 517 207.1;" xml:space="preserve">
<style type="text/css">
	.st0{fill:#ABB4BB;}
	.st1{fill:#474C53;}
	.st2{fill:#FFFFFF;}
	.st3{fill:#464F56;}
	.st4{font-family:'Gilroy-ExtraBold';}
	.st5{font-size:9.0982px;}
	.st6{fill:#25258D;}
	.st7{fill:none;stroke:#464F56;stroke-width:1.9967;stroke-miterlimit:10;}
</style>
<path class="st0" d="M480.5,142c-0.6,0-1-0.4-1-1v-13.9c0-0.6,0.4-1,1-1s1,0.4,1,1V141C481.5,141.5,481.1,142,480.5,142z"/>
<path class="st1" d="M475,131.8c0-0.7-0.3-1.4-0.9-1.9l1-0.5l1,0.5c1.6,0.8,3.5,1.8,5.7,2.9l0.5,0.3l1.4-1.8l-6.2-3.3l6.2-3.3
	l-1.4-1.8l-0.5,0.3c-2.2,1.1-4.1,2.1-5.7,2.9l-1,0.5l-1-0.5c0.6-0.5,0.9-1.1,0.9-1.9c0-1.5-1.5-2.6-3.3-2.6s-3.3,1.2-3.3,2.6
	s0.8,2,3.9,3.7c-3.1,1.6-3.9,2.3-3.9,3.7c0,1.5,1.5,2.6,3.3,2.6C473.5,134.4,475,133.3,475,131.8 M470.4,124.4
	c0-0.6,0.6-1.1,1.3-1.1c0.7,0,1.3,0.5,1.3,1.1s-0.6,1.1-1.3,1.1S470.4,125,470.4,124.4 M470.4,131.8c0-0.6,0.6-1.1,1.3-1.1
	c0.7,0,1.3,0.5,1.3,1.1s-0.6,1.1-1.3,1.1C471,132.9,470.4,132.4,470.4,131.8"/>
<path class="st0" d="M480.5,129.1c-0.6,0-1-0.4-1-1v-14.8c0-0.6,0.4-1,1-1s1,0.4,1,1v14.8C481.5,128.7,481.1,129.1,480.5,129.1z"/>
<path class="st0" d="M48.5,142c-0.6,0-1-0.4-1-1v-12.9c0-0.6,0.4-1,1-1s1,0.4,1,1V141C49.5,141.5,49.1,142,48.5,142z"/>
<path class="st1" d="M57.3,134.4c1.8,0,3.3-1.2,3.3-2.6c0-1.4-0.8-2-3.9-3.7c3.1-1.6,3.9-2.3,3.9-3.7c0-1.5-1.5-2.6-3.3-2.6
	S54,123,54,124.4c0,0.7,0.3,1.4,0.9,1.9l-1,0.5l-1-0.5c-1.6-0.8-3.5-1.8-5.7-2.9l-0.5-0.3l-1.4,1.8l6.2,3.3l-6.2,3.3l1.4,1.8
	l0.5-0.3c2.2-1.1,4.1-2.1,5.7-2.9l1-0.5l1,0.5c-0.6,0.5-0.9,1.1-0.9,1.9C54.1,133.3,55.5,134.4,57.3,134.4 M57.3,125.5
	c-0.7,0-1.3-0.5-1.3-1.1s0.6-1.1,1.3-1.1s1.3,0.5,1.3,1.1S58,125.5,57.3,125.5 M57.3,132.9c-0.7,0-1.3-0.5-1.3-1.1s0.6-1.1,1.3-1.1
	s1.3,0.5,1.3,1.1S58,132.9,57.3,132.9"/>
<path class="st0" d="M48.5,129.1c-0.6,0-1-0.4-1-1v-14.8c0-0.6,0.4-1,1-1s1,0.4,1,1v14.8C49.5,128.7,49.1,129.1,48.5,129.1z"/>
<path class="st0" d="M132.2,173.6v-2.5H83.8c-0.6,0-1-0.4-1-1s0.4-1,1-1h48.3v-2.5l6,3.5L132.2,173.6z"/>
<path class="st2" d="M129.5,114.6H4.2c-1,0-1.9-0.8-1.9-1.9V16.4c0-1,0.8-1.9,1.9-1.9h125.3c1,0,1.9,0.8,1.9,1.9v96.3
	C131.3,113.7,130.5,114.6,129.5,114.6"/>
<path class="st0" d="M129.5,115.6h-2.7c-0.6,0-1-0.4-1-1s0.4-1,1-1h2.7c0.6,0,1,0.4,1,1S130,115.6,129.5,115.6z M120.1,115.6h-2.7
	c-0.6,0-1-0.4-1-1s0.4-1,1-1h2.7c0.6,0,1,0.4,1,1S120.7,115.6,120.1,115.6z M110.8,115.6h-2.7c-0.6,0-1-0.4-1-1s0.4-1,1-1h2.7
	c0.6,0,1,0.4,1,1S111.4,115.6,110.8,115.6z M101.5,115.6h-2.7c-0.6,0-1-0.4-1-1s0.4-1,1-1h2.7c0.6,0,1,0.4,1,1
	S102.1,115.6,101.5,115.6z M92.2,115.6h-2.7c-0.6,0-1-0.4-1-1s0.4-1,1-1h2.7c0.6,0,1,0.4,1,1S92.7,115.6,92.2,115.6z M82.9,115.6
	h-2.7c-0.6,0-1-0.4-1-1s0.4-1,1-1h2.7c0.6,0,1,0.4,1,1S83.4,115.6,82.9,115.6z M73.5,115.6h-2.7c-0.6,0-1-0.4-1-1s0.4-1,1-1h2.7
	c0.6,0,1,0.4,1,1S74.1,115.6,73.5,115.6z M64.2,115.6h-2.7c-0.6,0-1-0.4-1-1s0.4-1,1-1h2.7c0.6,0,1,0.4,1,1S64.8,115.6,64.2,115.6z
	 M54.9,115.6h-2.7c-0.6,0-1-0.4-1-1s0.4-1,1-1h2.7c0.6,0,1,0.4,1,1S55.5,115.6,54.9,115.6z M45.6,115.6h-2.7c-0.6,0-1-0.4-1-1
	s0.4-1,1-1h2.7c0.6,0,1,0.4,1,1S46.1,115.6,45.6,115.6z M36.3,115.6h-2.7c-0.6,0-1-0.4-1-1s0.4-1,1-1h2.7c0.6,0,1,0.4,1,1
	S36.8,115.6,36.3,115.6z M27,115.6h-2.7c-0.6,0-1-0.4-1-1s0.4-1,1-1H27c0.6,0,1,0.4,1,1S27.5,115.6,27,115.6z M17.6,115.6H15
	c-0.6,0-1-0.4-1-1s0.4-1,1-1h2.7c0.6,0,1,0.4,1,1S18.2,115.6,17.6,115.6z M8.3,115.6H5.6c-0.6,0-1-0.4-1-1s0.4-1,1-1h2.7
	c0.6,0,1,0.4,1,1S8.9,115.6,8.3,115.6z M131.3,111.7c-0.6,0-1-0.4-1-1V108c0-0.6,0.4-1,1-1c0.6,0,1,0.4,1,1v2.7
	C132.3,111.2,131.9,111.7,131.3,111.7z M2.3,111.5c-0.6,0-1-0.4-1-1v-2.7c0-0.6,0.4-1,1-1s1,0.4,1,1v2.7
	C3.3,111,2.9,111.5,2.3,111.5z M131.3,102.4c-0.6,0-1-0.4-1-1v-2.7c0-0.6,0.4-1,1-1c0.6,0,1,0.4,1,1v2.7
	C132.3,101.9,131.9,102.4,131.3,102.4z M2.3,102.1c-0.6,0-1-0.4-1-1v-2.7c0-0.6,0.4-1,1-1s1,0.4,1,1v2.7
	C3.3,101.7,2.9,102.1,2.3,102.1z M131.3,93c-0.6,0-1-0.4-1-1v-2.7c0-0.6,0.4-1,1-1c0.6,0,1,0.4,1,1V92C132.3,92.6,131.9,93,131.3,93
	z M2.3,92.8c-0.6,0-1-0.4-1-1v-2.7c0-0.6,0.4-1,1-1s1,0.4,1,1v2.7C3.3,92.4,2.9,92.8,2.3,92.8z M131.3,83.7c-0.6,0-1-0.4-1-1V80
	c0-0.6,0.4-1,1-1c0.6,0,1,0.4,1,1v2.7C132.3,83.3,131.9,83.7,131.3,83.7z M2.3,83.5c-0.6,0-1-0.4-1-1v-2.7c0-0.6,0.4-1,1-1
	s1,0.4,1,1v2.7C3.3,83.1,2.9,83.5,2.3,83.5z M131.3,74.4c-0.6,0-1-0.4-1-1v-2.7c0-0.6,0.4-1,1-1c0.6,0,1,0.4,1,1v2.7
	C132.3,74,131.9,74.4,131.3,74.4z M2.3,74.2c-0.6,0-1-0.4-1-1v-2.7c0-0.6,0.4-1,1-1s1,0.4,1,1v2.7C3.3,73.7,2.9,74.2,2.3,74.2z
	 M131.3,65.1c-0.6,0-1-0.4-1-1v-2.7c0-0.6,0.4-1,1-1c0.6,0,1,0.4,1,1v2.7C132.3,64.6,131.9,65.1,131.3,65.1z M2.3,64.9
	c-0.6,0-1-0.4-1-1v-2.7c0-0.6,0.4-1,1-1s1,0.4,1,1v2.7C3.3,64.4,2.9,64.9,2.3,64.9z M131.3,55.8c-0.6,0-1-0.4-1-1v-2.7
	c0-0.6,0.4-1,1-1c0.6,0,1,0.4,1,1v2.7C132.3,55.3,131.9,55.8,131.3,55.8z M2.3,55.5c-0.6,0-1-0.4-1-1v-2.7c0-0.6,0.4-1,1-1
	s1,0.4,1,1v2.7C3.3,55.1,2.9,55.5,2.3,55.5z M131.3,46.5c-0.6,0-1-0.4-1-1v-2.7c0-0.6,0.4-1,1-1c0.6,0,1,0.4,1,1v2.7
	C132.3,46,131.9,46.5,131.3,46.5z M2.3,46.2c-0.6,0-1-0.4-1-1v-2.7c0-0.6,0.4-1,1-1s1,0.4,1,1v2.7C3.3,45.8,2.9,46.2,2.3,46.2z
	 M131.3,37.1c-0.6,0-1-0.4-1-1v-2.7c0-0.6,0.4-1,1-1c0.6,0,1,0.4,1,1v2.7C132.3,36.7,131.9,37.1,131.3,37.1z M2.3,36.9
	c-0.6,0-1-0.4-1-1v-2.7c0-0.6,0.4-1,1-1s1,0.4,1,1v2.7C3.3,36.5,2.9,36.9,2.3,36.9z M131.3,27.8c-0.6,0-1-0.4-1-1v-2.7
	c0-0.6,0.4-1,1-1c0.6,0,1,0.4,1,1v2.7C132.3,27.4,131.9,27.8,131.3,27.8z M2.3,27.6c-0.6,0-1-0.4-1-1v-2.7c0-0.6,0.4-1,1-1
	s1,0.4,1,1v2.7C3.3,27.1,2.9,27.6,2.3,27.6z M131.3,18.5c-0.6,0-1-0.4-1-1v-1.1c0-0.2-0.1-0.5-0.3-0.7c-0.4-0.4-0.4-1-0.1-1.4
	c0.4-0.4,1-0.4,1.4-0.1c0.6,0.5,1,1.3,1,2.2v1.1C132.3,18.1,131.9,18.5,131.3,18.5z M2.3,18.3c-0.6,0-1-0.4-1-1v-0.9
	c0-0.9,0.5-1.8,1.2-2.4c0.5-0.3,1.1-0.2,1.4,0.2c0.3,0.5,0.2,1.1-0.2,1.4c-0.2,0.2-0.4,0.4-0.4,0.7v0.9C3.3,17.8,2.9,18.3,2.3,18.3z
	 M124.2,15.5h-2.7c-0.6,0-1-0.4-1-1s0.4-1,1-1h2.7c0.6,0,1,0.4,1,1S124.7,15.5,124.2,15.5z M114.9,15.5h-2.7c-0.6,0-1-0.4-1-1
	s0.4-1,1-1h2.7c0.6,0,1,0.4,1,1S115.4,15.5,114.9,15.5z M105.5,15.5h-2.7c-0.6,0-1-0.4-1-1s0.4-1,1-1h2.7c0.6,0,1,0.4,1,1
	S106.1,15.5,105.5,15.5z M96.2,15.5h-2.7c-0.6,0-1-0.4-1-1s0.4-1,1-1h2.7c0.6,0,1,0.4,1,1S96.8,15.5,96.2,15.5z M86.9,15.5h-2.7
	c-0.6,0-1-0.4-1-1s0.4-1,1-1h2.7c0.6,0,1,0.4,1,1S87.5,15.5,86.9,15.5z M77.6,15.5h-2.7c-0.6,0-1-0.4-1-1s0.4-1,1-1h2.7
	c0.6,0,1,0.4,1,1S78.1,15.5,77.6,15.5z M68.3,15.5h-2.7c-0.6,0-1-0.4-1-1s0.4-1,1-1h2.7c0.6,0,1,0.4,1,1S68.8,15.5,68.3,15.5z
	 M59,15.5h-2.7c-0.6,0-1-0.4-1-1s0.4-1,1-1H59c0.6,0,1,0.4,1,1S59.5,15.5,59,15.5z M49.6,15.5H47c-0.6,0-1-0.4-1-1s0.4-1,1-1h2.7
	c0.6,0,1,0.4,1,1S50.2,15.5,49.6,15.5z M40.3,15.5h-2.7c-0.6,0-1-0.4-1-1s0.4-1,1-1h2.7c0.6,0,1,0.4,1,1S40.9,15.5,40.3,15.5z
	 M31,15.5h-2.7c-0.6,0-1-0.4-1-1s0.4-1,1-1H31c0.6,0,1,0.4,1,1S31.5,15.5,31,15.5z M21.7,15.5H19c-0.6,0-1-0.4-1-1s0.4-1,1-1h2.7
	c0.6,0,1,0.4,1,1S22.2,15.5,21.7,15.5z M12.4,15.5H9.7c-0.6,0-1-0.4-1-1s0.4-1,1-1h2.7c0.6,0,1,0.4,1,1S12.9,15.5,12.4,15.5z"/>
<path class="st2" d="M85.2,198.3H13.1c-1.6,0-2.8-1.3-2.8-2.8v-42.4c0-1.6,1.3-2.8,2.8-2.8h72.1c1.6,0,2.8,1.3,2.8,2.8v42.4
	C88.1,197.1,86.8,198.3,85.2,198.3"/>
<path class="st3" d="M85.2,199.3H13.1c-2.1,0-3.8-1.7-3.8-3.8v-42.4c0-2.1,1.7-3.8,3.8-3.8h72.1c2.1,0,3.8,1.7,3.8,3.8v42.4
	C89.1,197.6,87.3,199.3,85.2,199.3z M13.1,151.2c-1,0-1.8,0.8-1.8,1.8v42.4c0,1,0.8,1.8,1.8,1.8h72.1c1,0,1.8-0.8,1.8-1.8V153
	c0-1-0.8-1.8-1.8-1.8H13.1z"/>
<path class="st2" d="M80.6,193.7H8.5c-1.6,0-2.8-1.3-2.8-2.8v-42.4c0-1.6,1.3-2.8,2.8-2.8h72.1c1.6,0,2.8,1.3,2.8,2.8v42.4
	C83.5,192.4,82.2,193.7,80.6,193.7"/>
<path class="st3" d="M80.6,194.7H8.5c-2.1,0-3.8-1.7-3.8-3.8v-42.4c0-2.1,1.7-3.8,3.8-3.8h72.1c2.1,0,3.8,1.7,3.8,3.8v42.4
	C84.5,193,82.8,194.7,80.6,194.7z M8.5,146.6c-1,0-1.8,0.8-1.8,1.8v42.4c0,1,0.8,1.8,1.8,1.8h72.1c1,0,1.8-0.8,1.8-1.8v-42.4
	c0-1-0.8-1.8-1.8-1.8L8.5,146.6L8.5,146.6z"/>
<path class="st2" d="M75.9,189H3.8c-1.6,0-2.8-1.3-2.8-2.8v-42.4c0-1.6,1.3-2.8,2.8-2.8h72.1c1.6,0,2.8,1.3,2.8,2.8v42.4
	C78.8,187.8,77.5,189,75.9,189"/>
<path class="st3" d="M75.9,190H3.8c-2.1,0-3.8-1.7-3.8-3.8v-42.4c0-2.1,1.7-3.8,3.8-3.8h72.1c2.1,0,3.8,1.7,3.8,3.8v42.4
	C79.8,188.3,78,190,75.9,190z M3.8,141.9c-1,0-1.8,0.8-1.8,1.8v42.4c0,1,0.8,1.8,1.8,1.8h72.1c1,0,1.8-0.8,1.8-1.8v-42.4
	c0-1-0.8-1.8-1.8-1.8L3.8,141.9L3.8,141.9z"/>
<path class="st0" d="M432.7,170.1c0,0.6-0.4,1-1,1h-59v2.5l-6-3.5l6-3.5v2.5h59C432.2,169.1,432.7,169.6,432.7,170.1z"/>
<path class="st2" d="M395.2,170.1c0,4.2-3.4,7.7-7.7,7.7s-7.7-3.4-7.7-7.7c0-4.2,3.4-7.7,7.7-7.7S395.2,165.9,395.2,170.1"/>
<path class="st0" d="M387.5,178.8c-4.8,0-8.7-3.9-8.7-8.7s3.9-8.7,8.7-8.7s8.7,3.9,8.7,8.7S392.3,178.8,387.5,178.8z M387.5,163.5
	c-3.7,0-6.7,3-6.7,6.7s3,6.7,6.7,6.7s6.7-3,6.7-6.7S391.2,163.5,387.5,163.5z"/>
<text transform="matrix(1 0 0 1 385.0273 173.7384)" class="st0 st4 st5">$</text>
<path class="st2" d="M407.9,170.1c0,4.2-3.4,7.7-7.7,7.7c-4.2,0-7.7-3.4-7.7-7.7c0-4.2,3.4-7.7,7.7-7.7
	C404.5,162.5,407.9,165.9,407.9,170.1"/>
<path class="st0" d="M400.2,178.8c-4.8,0-8.7-3.9-8.7-8.7s3.9-8.7,8.7-8.7s8.7,3.9,8.7,8.7S405,178.8,400.2,178.8z M400.2,163.5
	c-3.7,0-6.7,3-6.7,6.7s3,6.7,6.7,6.7s6.7-3,6.7-6.7S403.9,163.5,400.2,163.5z"/>
<path class="st0" d="M397.7,169.8L397.7,169.8l2.6-4.3l2.6,4.3l-2.6,1.9L397.7,169.8z M400.2,174.8l2.6-4l-2.6,1.7l-2.6-1.7
	L400.2,174.8z"/>
<path class="st2" d="M421.2,170.1c0,4.2-3.4,7.7-7.7,7.7s-7.7-3.4-7.7-7.7c0-4.2,3.4-7.7,7.7-7.7S421.2,165.9,421.2,170.1"/>
<path class="st0" d="M413.6,178.8c-4.8,0-8.7-3.9-8.7-8.7s3.9-8.7,8.7-8.7s8.7,3.9,8.7,8.7S418.3,178.8,413.6,178.8z M413.6,163.5
	c-3.7,0-6.7,3-6.7,6.7s3,6.7,6.7,6.7s6.7-3,6.7-6.7S417.2,163.5,413.6,163.5z"/>
<path class="st0" d="M415.3,169.8c0.4-0.2,0.7-0.6,0.6-1.2c-0.1-0.9-0.8-1.1-1.8-1.2v-1.2h-0.7v1.2c-0.2,0-0.4,0-0.6,0v-1.2h-0.7
	v1.2c-0.2,0-0.3,0-0.5,0l0,0h-1v0.8h0.5c0.3,0,0.4,0.2,0.4,0.3v1.4c0,0,0,0,0.1,0h-0.1v1.9c0,0.1-0.1,0.2-0.3,0.2h-0.5l-0.1,0.9h0.9
	c0.2,0,0.3,0,0.5,0v1.2h0.7v-1.2c0.2,0,0.4,0,0.6,0v1.2h0.7v-1.2c1.2-0.1,2.1-0.4,2.2-1.5C416.5,170.4,416,170,415.3,169.8
	 M412.9,168.2c0.4,0,1.7-0.1,1.7,0.7s-1.3,0.7-1.7,0.7V168.2z M412.9,172v-1.6c0.5,0,2-0.1,2,0.8C415,172.1,413.4,172,412.9,172"/>
<path class="st2" d="M357.8,206.1H157.4c-1.6,0-2.8-1.3-2.8-2.8v-99.5c0-1.6,1.3-2.8,2.8-2.8h200.4c1.6,0,2.8,1.3,2.8,2.8v99.5
	C360.6,204.9,359.3,206.1,357.8,206.1"/>
<path class="st6" d="M357.8,207.1H157.4c-2.1,0-3.8-1.7-3.8-3.8v-99.5c0-2.1,1.7-3.8,3.8-3.8h200.4c2.1,0,3.8,1.7,3.8,3.8v99.5
	C361.6,205.4,359.9,207.1,357.8,207.1z M157.4,102c-1,0-1.8,0.8-1.8,1.8v99.5c0,1,0.8,1.8,1.8,1.8h200.4c1,0,1.8-0.8,1.8-1.8v-99.5
	c0-1-0.8-1.8-1.8-1.8H157.4z"/>
<path class="st2" d="M353.2,201.5H152.8c-1.6,0-2.8-1.3-2.8-2.8V99.1c0-1.6,1.3-2.8,2.8-2.8h200.4c1.6,0,2.8,1.3,2.8,2.8v99.5
	C356,200.2,354.7,201.5,353.2,201.5"/>
<path class="st6" d="M353.2,202.5H152.8c-2.1,0-3.8-1.7-3.8-3.8V99.1c0-2.1,1.7-3.8,3.8-3.8h200.4c2.1,0,3.8,1.7,3.8,3.8v99.5
	C357,200.8,355.3,202.5,353.2,202.5z M152.8,97.3c-1,0-1.8,0.8-1.8,1.8v99.5c0,1,0.8,1.8,1.8,1.8h200.4c1,0,1.8-0.8,1.8-1.8V99.1
	c0-1-0.8-1.8-1.8-1.8C353.2,97.3,152.8,97.3,152.8,97.3z"/>
<path class="st2" d="M513.2,198.3h-72.1c-1.6,0-2.8-1.3-2.8-2.8v-42.4c0-1.6,1.3-2.8,2.8-2.8h72.1c1.6,0,2.8,1.3,2.8,2.8v42.4
	C516,197.1,514.8,198.3,513.2,198.3"/>
<path class="st3" d="M513.2,199.3h-72.1c-2.1,0-3.8-1.7-3.8-3.8v-42.4c0-2.1,1.7-3.8,3.8-3.8h72.1c2.1,0,3.8,1.7,3.8,3.8v42.4
	C517,197.6,515.3,199.3,513.2,199.3z M441.1,151.2c-1,0-1.8,0.8-1.8,1.8v42.4c0,1,0.8,1.8,1.8,1.8h72.1c1,0,1.8-0.8,1.8-1.8V153
	c0-1-0.8-1.8-1.8-1.8H441.1z"/>
<path class="st2" d="M508.6,193.7h-72.1c-1.6,0-2.8-1.3-2.8-2.8v-42.4c0-1.6,1.3-2.8,2.8-2.8h72.1c1.6,0,2.8,1.3,2.8,2.8v42.4
	C511.4,192.4,510.2,193.7,508.6,193.7"/>
<path class="st3" d="M508.6,194.7h-72.1c-2.1,0-3.8-1.7-3.8-3.8v-42.4c0-2.1,1.7-3.8,3.8-3.8h72.1c2.1,0,3.8,1.7,3.8,3.8v42.4
	C512.4,193,510.7,194.7,508.6,194.7z M436.5,146.6c-1,0-1.8,0.8-1.8,1.8v42.4c0,1,0.8,1.8,1.8,1.8h72.1c1,0,1.8-0.8,1.8-1.8v-42.4
	c0-1-0.8-1.8-1.8-1.8L436.5,146.6L436.5,146.6z"/>
<path class="st2" d="M503.9,189h-72.1c-1.6,0-2.8-1.3-2.8-2.8v-42.4c0-1.6,1.3-2.8,2.8-2.8h72.1c1.6,0,2.8,1.3,2.8,2.8v42.4
	C506.7,187.8,505.4,189,503.9,189"/>
<path class="st3" d="M503.9,190h-72.1c-2.1,0-3.8-1.7-3.8-3.8v-42.4c0-2.1,1.7-3.8,3.8-3.8h72.1c2.1,0,3.8,1.7,3.8,3.8v42.4
	C507.7,188.3,506,190,503.9,190z M431.8,141.9c-1,0-1.8,0.8-1.8,1.8v42.4c0,1,0.8,1.8,1.8,1.8h72.1c1,0,1.8-0.8,1.8-1.8v-42.4
	c0-1-0.8-1.8-1.8-1.8L431.8,141.9L431.8,141.9z"/>
<path class="st3" d="M29.4,158v-0.7H28v0.7c-1.7,0.2-2.8,1.2-2.8,2.6c0,1.4,1.1,2.4,2.8,2.6v0.7h1.4v-0.7c1.7-0.2,2.8-1.2,2.8-2.6
	S31.1,158.2,29.4,158z M28,161.9c-0.9-0.1-1.4-0.5-1.4-1.3c0-0.7,0.5-1.1,1.4-1.3V161.9z M29.4,161.9v-2.5c0.9,0.1,1.4,0.5,1.4,1.3
	C30.8,161.3,30.3,161.7,29.4,161.9z M35,159.1c-1.3,0-2.4,1-2.4,2.4c0,1.3,1.1,2.4,2.4,2.4s2.4-1,2.4-2.4
	C37.4,160.2,36.4,159.1,35,159.1z M35,162.6c-0.6,0-1-0.4-1-1.1c0-0.6,0.5-1.1,1-1.1s1,0.4,1,1.1C36.1,162.1,35.6,162.6,35,162.6z
	 M41.1,159.2h1.4v4.5h-1.4v-1.6h-1.5v1.6h-1.4v-4.5h1.4v1.6h1.5V159.2z M44.3,163.7h2.5v1.2h1.3v-2.5h-0.6v-3.2h-3.6v1.7
	c0,0.8-0.1,1.2-0.4,1.6H43v2.5h1.3V163.7z M45.2,160.9v-0.5h1v2H45C45.1,162.1,45.2,161.6,45.2,160.9z M54.5,163.7h-1.3v-4.5h1.3
	V163.7z M50.9,160.6h-0.8v-1.3h-1.4v4.5h2.1c1.1,0,1.8-0.6,1.8-1.6S52,160.6,50.9,160.6z M50.9,162.6h-0.8v-0.8h0.8
	c0.3,0,0.4,0.2,0.4,0.4C51.4,162.4,51.2,162.6,50.9,162.6z M18.5,170h1v4.5h-1.3v-2.3l-1.9,2.3h-1V170h1.3v2.2L18.5,170z M22.3,170
	h4.1v1.3H25v3.2h-1.3v-3.2h-1.4V170z M29.6,169.9c-0.6,0-1,0.2-1.3,0.5V170h-1.4v6.3h1.3v-2.2c0.3,0.3,0.7,0.5,1.3,0.5
	c1.2,0,2.2-1,2.2-2.4C31.8,171,30.8,169.9,29.6,169.9z M29.4,173.4c-0.6,0-1.1-0.4-1.1-1.1c0-0.7,0.5-1.1,1.1-1.1s1.1,0.4,1.1,1.1
	C30.4,173,30,173.4,29.4,173.4z M34.7,169.9c-1.4,0-2.4,1-2.4,2.4c0,1.3,1,2.4,2.5,2.4c0.9,0,1.5-0.3,2-0.9l-1.1-0.6
	c-0.2,0.2-0.5,0.3-0.9,0.3c-0.5,0-0.9-0.2-1.1-0.6h3.2c0-0.2,0.1-0.4,0.1-0.5C37,170.9,36,169.9,34.7,169.9z M33.7,171.8
	c0.1-0.5,0.5-0.7,1-0.7c0.4,0,0.8,0.2,1,0.7H33.7z M41.2,169.5h-2.7v-1.2h2.7V169.5z M41,170h1v4.5h-1.3v-2.3l-1.9,2.3h-1V170h1.3
	v2.2L41,170z M47.1,170h-3.6v1.7c0,0.8-0.1,1.2-0.4,1.6h-0.6v2.5h1.3v-1.2h2.5v1.2h1.3v-2.5H47V170H47.1z M45.8,173.3h-1.3
	c0.2-0.4,0.3-0.9,0.3-1.6v-0.5h1V173.3z M50.4,169.9c-1.4,0-2.4,1-2.4,2.4c0,1.3,1,2.4,2.5,2.4c0.9,0,1.5-0.3,2-0.9l-1.1-0.6
	c-0.2,0.2-0.5,0.3-0.9,0.3c-0.5,0-0.9-0.2-1.1-0.6h3.2c0-0.2,0.1-0.4,0.1-0.5C52.7,170.9,51.7,169.9,50.4,169.9z M49.4,171.8
	c0.1-0.5,0.5-0.7,1-0.7c0.4,0,0.8,0.2,1,0.7H49.4z M56.1,169.9c-0.6,0-1,0.2-1.3,0.5V170h-1.4v6.3h1.4v-2.2c0.3,0.3,0.7,0.5,1.3,0.5
	c1.2,0,2.2-1,2.2-2.4C58.3,171,57.3,169.9,56.1,169.9z M55.8,173.4c-0.6,0-1.1-0.4-1.1-1.1c0-0.7,0.5-1.1,1.1-1.1s1.1,0.4,1.1,1.1
	C56.9,173,56.5,173.4,55.8,173.4z M61.1,171.4h-0.8V170H59v4.5h2.1c1.1,0,1.8-0.6,1.8-1.6S62.2,171.4,61.1,171.4z M61.1,173.4h-0.8
	v-0.8h0.8c0.3,0,0.4,0.2,0.4,0.4C61.6,173.2,61.4,173.4,61.1,173.4z M63.4,170h1.3v4.5h-1.3V170z M448.6,162.1h1.1v6.3h-1.4V165
	l-2.4,3.4h-1.1v-6.3h1.4v3.4L448.6,162.1z M453.6,163.9h1.4v4.5h-1.4v-1.6h-1.5v1.6h-1.4v-4.5h1.4v1.6h1.5V163.9z M459.3,166.1
	c0.3-0.2,0.4-0.5,0.4-0.9c0-0.7-0.5-1.3-1.5-1.3H456v4.5h2.4c1,0,1.5-0.5,1.5-1.3C459.9,166.7,459.7,166.3,459.3,166.1z M457.2,165
	h0.8c0.2,0,0.4,0.1,0.4,0.3s-0.2,0.3-0.4,0.3h-0.8V165z M458.2,167.3h-1v-0.6h1c0.2,0,0.4,0.1,0.4,0.3S458.4,167.3,458.2,167.3z
	 M462.8,163.8c-1.4,0-2.4,1-2.4,2.4c0,1.3,1,2.4,2.5,2.4c0.9,0,1.5-0.3,2-0.9l-1.1-0.6c-0.2,0.2-0.5,0.3-0.9,0.3
	c-0.5,0-0.9-0.2-1.1-0.6h3.2c0-0.2,0.1-0.4,0.1-0.5C465,164.8,464.1,163.8,462.8,163.8z M461.8,165.7c0.1-0.5,0.5-0.7,1-0.7
	c0.4,0,0.8,0.2,1,0.7H461.8z M466.9,166.2c0,0.6,0.4,1,1,1c0.4,0,0.7-0.2,0.9-0.5l1.2,0.7c-0.4,0.7-1.2,1.2-2,1.2
	c-1.4,0-2.4-1-2.4-2.4c0-1.3,1-2.4,2.4-2.4c0.9,0,1.6,0.5,2,1.2l-1.2,0.7c-0.2-0.3-0.5-0.5-0.9-0.5
	C467.3,165.1,466.9,165.5,466.9,166.2z M470.1,163.9h4.1v1.3h-1.3v3.2h-1.4v-3.2h-1.4L470.1,163.9L470.1,163.9z M476.7,163.8
	c-1.3,0-2.4,1-2.4,2.4c0,1.3,1.1,2.4,2.4,2.4s2.4-1,2.4-2.4S478.1,163.8,476.7,163.8z M476.7,167.2c-0.6,0-1-0.4-1-1.1
	c0-0.6,0.5-1.1,1-1.1c0.6,0,1,0.4,1,1.1C477.8,166.8,477.3,167.2,476.7,167.2z M482.6,163.8c-0.6,0-1,0.2-1.3,0.5v-0.4h-1.4v6.3h1.4
	V168c0.3,0.3,0.7,0.5,1.3,0.5c1.2,0,2.2-1,2.2-2.4C484.7,164.8,483.8,163.8,482.6,163.8z M482.3,167.3c-0.6,0-1.1-0.4-1.1-1.1
	c0-0.7,0.5-1.1,1.1-1.1s1.1,0.4,1.1,1.1C483.4,166.8,482.9,167.3,482.3,167.3z M491.2,163.9v4.5h-1.4v-4.5H491.2z M487.6,165.3h-0.8
	V164h-1.4v4.5h2.1c1.1,0,1.8-0.6,1.8-1.6S488.7,165.3,487.6,165.3z M487.6,167.2h-0.8v-0.8h0.8c0.3,0,0.4,0.2,0.4,0.4
	C488,167.1,487.9,167.2,487.6,167.2z"/>
<path class="st6" d="M348.5,196.8H148.1c-1.6,0-2.8-1.3-2.8-2.8V94.5c0-1.6,1.3-2.8,2.8-2.8h200.4c1.6,0,2.8,1.3,2.8,2.8V194
	C351.3,195.5,350,196.8,348.5,196.8"/>
<path class="st6" d="M348.5,197.8H148.1c-2.1,0-3.8-1.7-3.8-3.8V94.5c0-2.1,1.7-3.8,3.8-3.8h200.4c2.1,0,3.8,1.7,3.8,3.8V194
	C352.3,196.1,350.6,197.8,348.5,197.8z M148.1,92.6c-1,0-1.8,0.8-1.8,1.8V194c0,1,0.8,1.8,1.8,1.8h200.4c1,0,1.8-0.8,1.8-1.8V94.5
	c0-1-0.8-1.8-1.8-1.8L148.1,92.6L148.1,92.6z"/>
<path class="st2" d="M161.8,113.3h-1.6v-6.8h1.6v3l2.1-3h1.8l-2.3,3.3l2.4,3.5H164l-2.2-3.2V113.3z M168,113.3h1.6v-2.6l2.3-4.2
	h-1.8l-1.3,2.6l-1.3-2.6h-1.8l2.3,4.2V113.3z M175.3,113.4c1.2,0,2.3-0.6,2.9-1.6l-1.3-0.8c-0.3,0.5-0.9,0.8-1.6,0.8
	c-1.2,0-2-0.8-2-2s0.8-2,2-2c0.7,0,1.3,0.3,1.6,0.8l1.3-0.8c-0.6-1-1.7-1.6-2.9-1.6c-2.1,0-3.5,1.5-3.5,3.5S173.2,113.4,175.3,113.4
	z M161.8,127.3h-1.6v-6.8h2.6c1.3,0,2.4,1,2.4,2.3s-1,2.3-2.4,2.3h-1V127.3z M161.8,123.7h1c0.5,0,0.8-0.4,0.8-0.9s-0.4-0.9-0.8-0.9
	h-1V123.7z M170.4,125.4H167c0.2,0.5,0.6,0.7,1.2,0.7c0.4,0,0.7-0.2,0.9-0.4l1.2,0.7c-0.5,0.7-1.2,1-2.1,1c-1.7,0-2.7-1.1-2.7-2.6
	s1.1-2.6,2.6-2.6c1.4,0,2.5,1.1,2.5,2.6C170.5,125.1,170.5,125.3,170.4,125.4z M169,124.4c-0.2-0.6-0.6-0.8-1-0.8
	c-0.6,0-0.9,0.3-1.1,0.8H169z M171.3,127.3h1.1l2.1-2.4v2.4h1.4v-4.9h-1.1l-2.1,2.4v-2.4h-1.4V127.3z M175.1,120.6h-2.9v1.3h2.9
	V120.6z M176.5,123.8h1.5v3.5h1.5v-3.5h1.5v-1.4h-4.4v1.4H176.5z M184.7,124.9v2.4h1.4v-4.9H185l-2.1,2.4v-2.4h-1.4v4.9h1.1
	L184.7,124.9z M188.7,125.5h1.7v1.8h1.5v-4.9h-1.5v1.8h-1.7v-1.8h-1.5v4.9h1.5V125.5z M194.3,123.8h2v-1.4h-3.4v4.9h1.5v-3.5H194.3z
	 M200.1,124.9v2.4h1.4v-4.9h-1.1l-2.1,2.4v-2.4h-1.4v4.9h1.1L200.1,124.9z M161.8,136h2v5.3h1.6v-6.8h-5.2v6.8h1.6L161.8,136
	L161.8,136z M169.4,141.4c-0.7,0-1.1-0.2-1.5-0.6v2.4h-1.5v-6.8h1.5v0.5c0.3-0.4,0.8-0.6,1.5-0.6c1.3,0,2.3,1.1,2.3,2.6
	S170.7,141.4,169.4,141.4z M170.3,138.9c0-0.7-0.5-1.2-1.2-1.2s-1.2,0.5-1.2,1.2s0.5,1.2,1.2,1.2C169.8,140,170.3,139.6,170.3,138.9
	z M174.9,141.4c-1.4,0-2.6-1.1-2.6-2.6s1.2-2.6,2.6-2.6c1.4,0,2.6,1.1,2.6,2.6S176.4,141.4,174.9,141.4z M176.1,138.9
	c0-0.7-0.5-1.2-1.1-1.2s-1.1,0.5-1.1,1.2s0.5,1.2,1.1,1.2S176.1,139.6,176.1,138.9z M180.5,143.2v-1.9c-1.5-0.2-2.4-1.2-2.4-2.5
	s0.9-2.3,2.4-2.5v-1.9h1.4v1.9c1.5,0.2,2.4,1.2,2.4,2.5s-0.9,2.3-2.4,2.5v1.9H180.5z M181.9,140c0.6-0.2,0.9-0.6,0.9-1.1
	s-0.3-0.9-0.9-1.1V140z M180.5,140v-2.2c-0.6,0.2-0.9,0.6-0.9,1.1S179.9,139.8,180.5,140z M184.6,140.5c0,0.5,0.4,0.9,0.9,0.9
	s0.9-0.4,0.9-0.9s-0.4-0.9-0.9-0.9S184.6,140,184.6,140.5z M195.1,141.3v-6.8h-5.2v6.8h1.6V136h2v5.3H195.1z M199.5,134.3
	c2,0,3.5,1.5,3.5,3.5s-1.6,3.5-3.5,3.5c-2,0-3.5-1.5-3.5-3.5C196,135.9,197.6,134.3,199.5,134.3z M199.5,135.9c-1.1,0-2,0.8-2,2
	s0.9,2,2,2s2-0.8,2-2S200.6,135.9,199.5,135.9z M161.5,155.3h1.6V150h1.8v-1.5h-5.1v1.5h1.8v5.3H161.5z M166.9,150.3
	c1.4,0,2.6,1.1,2.6,2.6s-1.2,2.6-2.6,2.6s-2.6-1.1-2.6-2.6S165.5,150.3,166.9,150.3z M165.8,152.9c0,0.7,0.5,1.2,1.1,1.2
	s1.1-0.5,1.1-1.2s-0.5-1.2-1.1-1.2S165.8,152.2,165.8,152.9z M171.8,153.1l1.6,2.2h1.7l-1.8-2.4l1.8-2.4h-1.7l-1.5,2.1v-2.1h-1.5
	v4.9h1.5v-2.3H171.8z M179.8,154.4c-0.5,0.7-1.2,1-2.1,1c-1.7,0-2.7-1.1-2.7-2.6s1.1-2.6,2.6-2.6c1.4,0,2.5,1.1,2.5,2.6
	c0,0.2,0,0.4-0.1,0.6h-3.5c0.2,0.5,0.6,0.7,1.2,0.7c0.4,0,0.7-0.2,0.9-0.4L179.8,154.4z M176.5,152.4h2.1c-0.2-0.6-0.6-0.8-1-0.8
	C177.1,151.6,176.7,151.9,176.5,152.4z M185.5,155.3v-4.9H184v1.8h-1.7v-1.8h-1.5v4.9h1.5v-1.8h1.7v1.8H185.5z M189.7,152.9v2.4h1.4
	v-4.9H190l-2.1,2.4v-2.4h-1.4v4.9h1.1L189.7,152.9z M195.9,154c0-0.5-0.3-0.9-0.7-1.2c0.4-0.2,0.5-0.6,0.5-1.1
	c0-0.8-0.7-1.5-1.9-1.5c-0.8,0-1.5,0.4-2,1.1l1.2,0.7c0.2-0.4,0.4-0.6,0.8-0.6c0.3,0,0.5,0.1,0.5,0.4c0,0.2-0.1,0.3-0.5,0.3h-0.5
	v1.2h0.7c0.3,0,0.5,0.1,0.5,0.3s-0.2,0.4-0.6,0.4c-0.4,0-0.8-0.2-0.9-0.6l-1.2,0.7c0.4,0.8,1.1,1.2,2,1.2
	C195.2,155.4,195.9,154.8,195.9,154z M200.2,155.3v-0.5c-0.3,0.4-0.8,0.6-1.5,0.6c-1.3,0-2.3-1.1-2.3-2.6s1.1-2.6,2.3-2.6
	c0.7,0,1.1,0.2,1.5,0.6v-0.5h1.5v4.9h-1.5V155.3z M200.2,152.9c0-0.7-0.5-1.2-1.2-1.2s-1.2,0.5-1.2,1.2s0.5,1.2,1.2,1.2
	C199.7,154,200.2,153.6,200.2,152.9z M202.7,150.4v4.9h3.8v1.3h1.4v-2.7h-0.8v-3.5h-1.5v3.5h-1.5v-3.5H202.7z M211.8,152.9v2.4h1.4
	v-4.9h-1.1l-2.1,2.4v-2.4h-1.4v4.9h1.1L211.8,152.9z M214,155.3l1.1-1.6c-0.6-0.3-0.9-0.9-0.9-1.5c0-0.9,0.6-1.7,1.8-1.7h2.4v4.9
	H217V154h-0.3l-1,1.4L214,155.3L214,155.3z M215.6,152.2c0,0.3,0.2,0.5,0.5,0.5h0.8v-1h-0.8C215.8,151.7,215.6,151.9,215.6,152.2z
	 M163.5,169.4c1.2,0,2.3-0.6,2.9-1.6l-1.3-0.8c-0.3,0.5-0.9,0.8-1.6,0.8c-1.2,0-2-0.8-2-2s0.8-2,2-2c0.7,0,1.3,0.3,1.6,0.8l1.3-0.8
	c-0.6-1-1.7-1.6-2.9-1.6c-2.1,0-3.5,1.5-3.5,3.5C159.9,167.9,161.4,169.4,163.5,169.4z M171,169.3h1.4v-4.9H171l-1.2,1.8l-1.2-1.8
	h-1.4v4.9h1.4v-2.5l1.1,1.7h0.2l1.1-1.7L171,169.3L171,169.3z M177,164.4h1.5v4.9H177v-0.5c-0.3,0.4-0.8,0.6-1.5,0.6
	c-1.3,0-2.3-1.1-2.3-2.6s1.1-2.6,2.3-2.6c0.7,0,1.1,0.2,1.5,0.6V164.4z M177,166.9c0-0.7-0.5-1.2-1.2-1.2s-1.2,0.5-1.2,1.2
	s0.5,1.2,1.2,1.2C176.5,168,177,167.6,177,166.9z M182.4,169.4c-0.7,0-1.1-0.2-1.5-0.6v2.4h-1.5v-6.8h1.5v0.5
	c0.3-0.4,0.8-0.6,1.5-0.6c1.3,0,2.3,1.1,2.3,2.6S183.7,169.4,182.4,169.4z M182.1,168c0.7,0,1.2-0.5,1.2-1.2s-0.5-1.2-1.2-1.2
	s-1.2,0.5-1.2,1.2S181.5,168,182.1,168z M187.9,169.3v-3.5h1.5v-1.4H185v1.4h1.5v3.5H187.9z M189.8,167.1h3.7v-1.4h-3.7V167.1z
	 M197.4,166.9l1.8-2.4h-1.7l-1.5,2.1v-2.1h-1.5v4.9h1.5v-2.2l1.6,2.2h1.7L197.4,166.9z M199.3,166.9c0-1.5,1.2-2.6,2.6-2.6
	s2.6,1.1,2.6,2.6s-1.2,2.6-2.6,2.6S199.3,168.3,199.3,166.9z M200.7,166.9c0,0.7,0.5,1.2,1.1,1.2s1.1-0.5,1.1-1.2s-0.5-1.2-1.1-1.2
	S200.7,166.2,200.7,166.9z M206.7,164.4h-1.5v4.9h1.5v-1.8h1.7v1.8h1.5v-4.9h-1.5v1.8h-1.7V164.4z M213.4,169.3v-3.5h1.5v-1.4h-4.4
	v1.4h1.5v3.5H213.4z M217,164.4v0.5c0.3-0.4,0.8-0.6,1.5-0.6c1.3,0,2.3,1.1,2.3,2.6s-1.1,2.6-2.3,2.6c-0.7,0-1.1-0.2-1.5-0.6v2.4
	h-1.5v-6.8L217,164.4L217,164.4z M217,166.9c0,0.7,0.5,1.2,1.2,1.2s1.2-0.5,1.2-1.2s-0.5-1.2-1.2-1.2S217,166.1,217,166.9z
	 M221.3,166.9c0-1.5,1.1-2.6,2.3-2.6c0.7,0,1.1,0.2,1.5,0.6v-0.5h1.5v4.9h-1.5v-0.5c-0.3,0.4-0.8,0.6-1.5,0.6
	C222.4,169.4,221.3,168.3,221.3,166.9z M222.8,166.9c0,0.7,0.5,1.2,1.2,1.2s1.2-0.5,1.2-1.2s-0.5-1.2-1.2-1.2
	S222.8,166.1,222.8,166.9z M229.1,167.1l1.6,2.2h1.7l-1.8-2.4l1.8-2.4h-1.7l-1.5,2.1v-2.1h-1.5v4.9h1.5v-2.3H229.1z M235.4,169.3
	v-3.5h1.5v-1.4h-4.4v1.4h1.5v3.5H235.4z M238.9,164.4v1.5h0.8c1.2,0,1.9,0.7,1.9,1.7s-0.7,1.7-1.9,1.7h-2.3v-4.9H238.9z
	 M238.9,167.1v0.9h0.8c0.3,0,0.5-0.2,0.5-0.4c0-0.3-0.2-0.4-0.5-0.4h-0.8V167.1z M242.1,169.3h1.5v-4.9h-1.5V169.3z M169.7,179.9
	c0,2-1.6,3.5-3.5,3.5c-1.7,0-3.2-1.2-3.5-2.9h-0.9v2.8h-1.6v-6.8h1.6v2.6h0.9c0.4-1.6,1.7-2.7,3.4-2.7
	C168.1,176.3,169.7,177.9,169.7,179.9z M168.1,179.9c0-1.2-0.9-2-2-2s-2,0.8-2,2s0.9,2,2,2C167.3,181.9,168.1,181.1,168.1,179.9z
	 M175.8,180.9c0,1.5-1.1,2.6-2.3,2.6c-0.7,0-1.1-0.2-1.5-0.6v2.4h-1.5v-6.8h1.5v0.5c0.3-0.4,0.8-0.6,1.5-0.6
	C174.7,178.3,175.8,179.4,175.8,180.9z M174.3,180.9c0-0.7-0.5-1.2-1.2-1.2s-1.2,0.5-1.2,1.2s0.5,1.2,1.2,1.2
	S174.3,181.6,174.3,180.9z M177.1,181.6c-0.5,0-0.9,0.4-0.9,0.9s0.4,0.9,0.9,0.9s0.9-0.4,0.9-0.9S177.6,181.6,177.1,181.6z
	 M183.7,179.7c0.4,0,0.8,0.2,0.9,0.5l1.3-0.7c-0.4-0.8-1.3-1.2-2.2-1.2c-1.5,0-2.6,1.1-2.6,2.6s1.1,2.6,2.6,2.6c1,0,1.8-0.5,2.2-1.3
	l-1.3-0.7c-0.2,0.3-0.5,0.5-0.9,0.5c-0.6,0-1.1-0.5-1.1-1.1S183.1,179.7,183.7,179.7z M191.4,180.9c0,1.5-1.2,2.6-2.6,2.6
	s-2.6-1.1-2.6-2.6s1.2-2.6,2.6-2.6S191.4,179.4,191.4,180.9z M189.9,180.9c0-0.7-0.5-1.2-1.1-1.2s-1.1,0.5-1.1,1.2s0.5,1.2,1.1,1.2
	C189.4,182,189.9,181.5,189.9,180.9z M192.2,183.3h1.5v-3.5h1.7v3.5h1.5v-4.9h-4.6L192.2,183.3L192.2,183.3z M203.1,180.9
	c0,1.5-1.1,2.6-2.3,2.6c-0.7,0-1.1-0.2-1.5-0.6v2.4h-1.5v-6.8h1.5v0.5c0.3-0.4,0.8-0.6,1.5-0.6C202,178.3,203.1,179.4,203.1,180.9z
	 M201.6,180.9c0-0.7-0.5-1.2-1.2-1.2s-1.2,0.5-1.2,1.2s0.5,1.2,1.2,1.2S201.6,181.6,201.6,180.9z M208.8,180.9
	c0,1.5-1.2,2.6-2.6,2.6s-2.6-1.1-2.6-2.6s1.2-2.6,2.6-2.6S208.8,179.4,208.8,180.9z M207.4,180.9c0-0.7-0.5-1.2-1.1-1.2
	s-1.1,0.5-1.1,1.2s0.5,1.2,1.1,1.2S207.4,181.5,207.4,180.9z M214,181.9c0,0.8-0.6,1.4-1.7,1.4h-2.6v-4.9h2.4c1.1,0,1.7,0.6,1.7,1.4
	c0,0.4-0.2,0.8-0.5,1C213.7,181,214,181.4,214,181.9z M211,180.3h0.9c0.3,0,0.4-0.1,0.4-0.3s-0.2-0.4-0.4-0.4H211V180.3z
	 M212.5,181.7c0-0.2-0.2-0.3-0.4-0.3H211v0.7h1.1C212.4,182.1,212.5,182,212.5,181.7z M219.6,180.9c0,1.5-1.2,2.6-2.6,2.6
	s-2.6-1.1-2.6-2.6s1.2-2.6,2.6-2.6S219.6,179.4,219.6,180.9z M218.2,180.9c0-0.7-0.5-1.2-1.1-1.2s-1.1,0.5-1.1,1.2s0.5,1.2,1.1,1.2
	C217.7,182,218.2,181.5,218.2,180.9z M226.8,178.4h-1.6l-1.2,2.1v-2.1h-1.4v2.1l-1.2-2.1h-1.6l1.5,2.4l-1.6,2.4h1.6l1.3-2.1v2.1h1.4
	v-2.1l1.3,2.1h1.6l-1.6-2.4L226.8,178.4z M232.1,181.9h0.6v2.7h-1.4v-1.3h-2.7v1.3h-1.4v-2.7h0.6c0.2-0.4,0.4-0.8,0.4-1.7v-1.8h3.9
	L232.1,181.9L232.1,181.9z M230.6,179.7h-1.1v0.5c0,0.7-0.1,1.2-0.3,1.7h1.4L230.6,179.7L230.6,179.7z M238.1,180.9
	c0,0.2,0,0.4-0.1,0.6h-3.5c0.2,0.5,0.6,0.7,1.2,0.7c0.4,0,0.7-0.2,0.9-0.4l1.2,0.7c-0.5,0.7-1.2,1-2.1,1c-1.7,0-2.7-1.1-2.7-2.6
	s1.1-2.6,2.6-2.6C237,178.3,238.1,179.4,238.1,180.9z M236.6,180.3c-0.2-0.6-0.6-0.8-1-0.8c-0.6,0-0.9,0.3-1.1,0.8H236.6z
	 M242,180.2h-1.7v-1.8h-1.5v4.9h1.5v-1.8h1.7v1.8h1.5v-4.9H242V180.2z M246,180.9v-2.4h-1.4v4.9h1.1l2.1-2.4v2.4h1.4v-4.9h-1.1
	L246,180.9z M255,180.9c0,0.2,0,0.4-0.1,0.6h-3.5c0.2,0.5,0.6,0.7,1.2,0.7c0.4,0,0.7-0.2,0.9-0.4l1.2,0.7c-0.5,0.7-1.2,1-2.1,1
	c-1.7,0-2.7-1.1-2.7-2.6s1.1-2.6,2.6-2.6C254,178.3,255,179.4,255,180.9z M253.6,180.3c-0.2-0.6-0.6-0.8-1-0.8
	c-0.6,0-0.9,0.3-1.1,0.8H253.6z M216.3,109.3l1.8,2.9h0.2l1.8-2.9v4h1.6v-6.8H220l-1.9,3l-1.9-3h-1.6v6.8h1.6L216.3,109.3
	L216.3,109.3z M222.4,110.9c0-1.5,1.1-2.6,2.3-2.6c0.7,0,1.1,0.2,1.5,0.6v-0.5h1.5v4.9h-1.5v-0.5c-0.3,0.4-0.8,0.6-1.5,0.6
	C223.5,113.4,222.4,112.3,222.4,110.9z M223.9,110.9c0,0.7,0.5,1.2,1.2,1.2s1.2-0.5,1.2-1.2s-0.5-1.2-1.2-1.2
	C224.4,109.7,223.9,110.1,223.9,110.9z M230.5,111.3v-1.5h1.1v3.5h1.5v-4.9h-4v2.8c0,0.6-0.2,0.9-0.7,0.8v1.4
	C229.7,113.5,230.5,112.8,230.5,111.3z M236.4,113.3h-2.3v-4.9h1.5v1.5h0.8c1.2,0,1.9,0.7,1.9,1.7
	C238.3,112.6,237.5,113.3,236.4,113.3z M235.5,112h0.8c0.3,0,0.5-0.2,0.5-0.4c0-0.3-0.2-0.4-0.5-0.4h-0.8V112z M239.6,113.3h1.5
	v-3.5h1.5v-1.4h-4.4v1.4h1.5v3.5H239.6z M246.3,110.9v2.4h1.4v-4.9h-1.1l-2.1,2.4v-2.4h-1.4v4.9h1.1L246.3,110.9z M251.4,113.3h-2.6
	v-4.9h2.4c1.1,0,1.7,0.6,1.7,1.4c0,0.4-0.2,0.8-0.5,1c0.4,0.2,0.7,0.6,0.7,1.1C253.1,112.7,252.5,113.3,251.4,113.3z M250.1,110.3
	h0.9c0.3,0,0.4-0.1,0.4-0.3c0-0.2-0.2-0.4-0.4-0.4h-0.9V110.3z M251.2,112.1c0.3,0,0.4-0.1,0.4-0.4c0-0.2-0.2-0.3-0.4-0.3h-1.1v0.7
	C250.1,112.1,251.2,112.1,251.2,112.1z M253.5,110.9c0-1.5,1.1-2.6,2.3-2.6c0.7,0,1.1,0.2,1.5,0.6v-0.5h1.5v4.9h-1.5v-0.5
	c-0.3,0.4-0.8,0.6-1.5,0.6C254.6,113.4,253.5,112.3,253.5,110.9z M255,110.9c0,0.7,0.5,1.2,1.2,1.2c0.7,0,1.2-0.5,1.2-1.2
	s-0.5-1.2-1.2-1.2C255.5,109.7,255,110.1,255,110.9z M261.6,111.3v-1.5h1.1v3.5h1.5v-4.9h-4v2.8c0,0.6-0.2,0.9-0.7,0.8v1.4
	C260.9,113.5,261.6,112.8,261.6,111.3z M266.6,113.3h-1.5v-4.9h1.5v1.8h0.6c0.3-1.1,1.3-1.9,2.5-1.9c1.4,0,2.6,1.1,2.6,2.6
	s-1.2,2.6-2.6,2.6c-1.2,0-2.2-0.8-2.5-1.9h-0.6V113.3z M268.6,110.9c0,0.7,0.5,1.2,1.1,1.2s1.1-0.5,1.1-1.2s-0.5-1.2-1.1-1.2
	S268.6,110.2,268.6,110.9z M274,113.3h1.5v-3.5h1.5v-1.4h-4.4v1.4h1.5v3.5H274z M279,111.5h1.7v1.8h1.5v-4.9h-1.5v1.8H279v-1.8h-1.5
	v4.9h1.5V111.5z M285.5,113.3h-2.3v-4.9h1.5v1.5h0.8c1.2,0,1.9,0.7,1.9,1.7S286.7,113.3,285.5,113.3z M284.7,112h0.8
	c0.3,0,0.5-0.2,0.5-0.4c0-0.3-0.2-0.4-0.5-0.4h-0.8V112z M289.3,108.4h-1.5v4.9h1.5V108.4z M294.2,106.6h-2.9v1.3h2.9V106.6z
	 M293.6,110.9v2.4h1.4v-4.9h-1.1l-2.1,2.4v-2.4h-1.4v4.9h1.1L293.6,110.9z M300,111.1l1.6,2.2h1.7l-1.8-2.4l1.8-2.4h-1.7l-1.5,2.1
	v-2.1h-1.5v4.9h1.5v-2.3H300z M303.2,110.9c0-1.5,1.2-2.6,2.6-2.6s2.6,1.1,2.6,2.6s-1.2,2.6-2.6,2.6
	C304.4,113.4,303.2,112.3,303.2,110.9z M304.7,110.9c0,0.7,0.5,1.2,1.1,1.2s1.1-0.5,1.1-1.2s-0.5-1.2-1.1-1.2
	S304.7,110.2,304.7,110.9z M316.3,108.4h-1.5v3.5h-1.4v-3.5H312v3.5h-1.4v-3.5h-1.5v4.9h7.1L316.3,108.4L316.3,108.4z M317.2,110.9
	c0-1.5,1.1-2.6,2.6-2.6c1.4,0,2.5,1.1,2.5,2.6c0,0.2,0,0.4-0.1,0.6h-3.5c0.2,0.5,0.6,0.7,1.2,0.7c0.4,0,0.7-0.2,0.9-0.4l1.2,0.7
	c-0.5,0.7-1.2,1-2.1,1C318.2,113.4,317.2,112.3,317.2,110.9z M318.7,110.4h2.1c-0.2-0.6-0.6-0.8-1-0.8
	C319.2,109.6,318.8,109.9,318.7,110.4z M324.6,111.3v-1.5h1.1v3.5h1.5v-4.9h-4v2.8c0,0.6-0.2,0.9-0.7,0.8v1.4
	C323.9,113.5,324.6,112.8,324.6,111.3z M327.9,110.9c0-1.5,1.1-2.6,2.6-2.6c1.4,0,2.5,1.1,2.5,2.6c0,0.2,0,0.4-0.1,0.6h-3.5
	c0.2,0.5,0.6,0.7,1.2,0.7c0.4,0,0.7-0.2,0.9-0.4l1.2,0.7c-0.5,0.7-1.2,1-2.1,1C329,113.4,327.9,112.3,327.9,110.9z M329.5,110.4h2.1
	c-0.2-0.6-0.6-0.8-1-0.8C330,109.6,329.6,109.9,329.5,110.4z M335.3,111.1l1.6,2.2h1.7l-1.8-2.4l1.8-2.4h-1.7l-1.5,2.1v-2.1h-1.5
	v4.9h1.5v-2.3H335.3z M230.4,127.3v-6.8h-5.2v6.8h1.6V122h2v5.3H230.4z M233,122.4v0.5c0.3-0.4,0.8-0.6,1.5-0.6
	c1.3,0,2.3,1.1,2.3,2.6s-1.1,2.6-2.3,2.6c-0.7,0-1.1-0.2-1.5-0.6v2.4h-1.5v-6.8L233,122.4L233,122.4z M233,124.9
	c0,0.7,0.5,1.2,1.2,1.2s1.2-0.5,1.2-1.2s-0.5-1.2-1.2-1.2S233,124.1,233,124.9z M240,127.4c-1.4,0-2.6-1.1-2.6-2.6s1.2-2.6,2.6-2.6
	s2.6,1.1,2.6,2.6S241.4,127.4,240,127.4z M241.1,124.9c0-0.7-0.5-1.2-1.1-1.2s-1.1,0.5-1.1,1.2s0.5,1.2,1.1,1.2
	C240.6,126,241.1,125.6,241.1,124.9z M247,124.8c0.4,0.2,0.7,0.6,0.7,1.1c0,0.8-0.6,1.4-1.7,1.4h-2.6v-4.9h2.4
	c1.1,0,1.7,0.6,1.7,1.4C247.5,124.2,247.3,124.6,247,124.8z M244.7,124.3h0.9c0.3,0,0.4-0.1,0.4-0.3c0-0.2-0.2-0.4-0.4-0.4h-0.9
	V124.3z M246.2,125.7c0-0.2-0.2-0.3-0.4-0.3h-1.1v0.7h1.1C246.1,126.1,246.2,126,246.2,125.7z M248.2,124.9c0-1.5,1.1-2.6,2.6-2.6
	c1.4,0,2.5,1.1,2.5,2.6c0,0.2,0,0.4-0.1,0.6h-3.5c0.2,0.5,0.6,0.7,1.2,0.7c0.4,0,0.7-0.2,0.9-0.4l1.2,0.7c-0.5,0.7-1.2,1-2.1,1
	C249.2,127.4,248.2,126.3,248.2,124.9z M249.7,124.4h2.1c-0.2-0.6-0.6-0.8-1-0.8C250.2,123.6,249.8,123.9,249.7,124.4z M259.3,124.9
	c0,1.5-1.1,2.6-2.3,2.6c-0.7,0-1.1-0.2-1.5-0.6v2.4H254v-6.8h1.5v0.5c0.3-0.4,0.8-0.6,1.5-0.6C258.3,122.3,259.3,123.4,259.3,124.9z
	 M257.8,124.9c0-0.7-0.5-1.2-1.2-1.2c-0.7,0-1.2,0.5-1.2,1.2s0.5,1.2,1.2,1.2C257.3,126.1,257.8,125.6,257.8,124.9z M262.5,122.3
	c1.4,0,2.5,1.1,2.5,2.6c0,0.2,0,0.4-0.1,0.6h-3.5c0.2,0.5,0.6,0.7,1.2,0.7c0.4,0,0.7-0.2,0.9-0.4l1.2,0.7c-0.5,0.7-1.2,1-2.1,1
	c-1.7,0-2.7-1.1-2.7-2.6S260.9,122.3,262.5,122.3z M262.5,123.6c-0.6,0-0.9,0.3-1.1,0.8h2.1C263.4,123.8,262.9,123.6,262.5,123.6z
	 M265.8,122.4v4.9h1.5v-1.8h1.7v1.8h1.5v-4.9H269v1.8h-1.7v-1.8H265.8z M276,122.4h-1.5v1.8h-1.7v-1.8h-1.5v4.9h1.5v-1.8h1.7v1.8
	h1.5V122.4z M283.3,122.4h-1.5v4.9h1.5V122.4z M279.4,127.3h-2.3v-4.9h1.5v1.5h0.8c1.2,0,1.9,0.7,1.9,1.7S280.6,127.3,279.4,127.3z
	 M278.6,126h0.8c0.3,0,0.5-0.2,0.5-0.4c0-0.3-0.2-0.4-0.5-0.4h-0.8V126z M289.1,125.4h-3.5c0.2,0.5,0.6,0.7,1.2,0.7
	c0.4,0,0.7-0.2,0.9-0.4l1.2,0.7c-0.5,0.7-1.2,1-2.1,1c-1.7,0-2.7-1.1-2.7-2.6s1.1-2.6,2.6-2.6c1.4,0,2.5,1.1,2.5,2.6
	C289.2,125.1,289.1,125.3,289.1,125.4z M287.7,124.4c-0.2-0.6-0.6-0.8-1-0.8c-0.6,0-0.9,0.3-1.1,0.8H287.7z M292,123.8h1.5v3.5h1.5
	v-3.5h1.5v-1.4H292V123.8z M298.5,129.2H297v-6.8h1.5v0.5c0.3-0.4,0.8-0.6,1.5-0.6c1.3,0,2.3,1.1,2.3,2.6s-1.1,2.6-2.3,2.6
	c-0.7,0-1.1-0.2-1.5-0.6V129.2z M298.5,124.9c0,0.7,0.5,1.2,1.2,1.2s1.2-0.5,1.2-1.2s-0.5-1.2-1.2-1.2S298.5,124.1,298.5,124.9z
	 M307.9,125.4h-3.5c0.2,0.5,0.6,0.7,1.2,0.7c0.4,0,0.7-0.2,0.9-0.4l1.2,0.7c-0.5,0.7-1.2,1-2.1,1c-1.7,0-2.7-1.1-2.7-2.6
	s1.1-2.6,2.6-2.6c1.4,0,2.5,1.1,2.5,2.6C307.9,125.1,307.9,125.3,307.9,125.4z M306.5,124.4c-0.2-0.6-0.6-0.8-1-0.8
	c-0.6,0-0.9,0.3-1.1,0.8H306.5z M312.5,121.8v-1.3h-2.9v1.3H312.5z M311.9,124.9v2.4h1.4v-4.9h-1.1l-2.1,2.4v-2.4h-1.4v4.9h1.1
	L311.9,124.9z M318.9,122.4v3.5h0.6v2.7h-1.4v-1.3h-2.7v1.3H314v-2.7h0.6c0.2-0.4,0.4-0.8,0.4-1.7v-1.8
	C315,122.4,318.9,122.4,318.9,122.4z M317.5,123.7h-1.1v0.5c0,0.7-0.1,1.2-0.3,1.7h1.4V123.7z M322.4,122.3c1.4,0,2.5,1.1,2.5,2.6
	c0,0.2,0,0.4-0.1,0.6h-3.5c0.2,0.5,0.6,0.7,1.2,0.7c0.4,0,0.7-0.2,0.9-0.4l1.2,0.7c-0.5,0.7-1.2,1-2.1,1c-1.7,0-2.7-1.1-2.7-2.6
	S320.9,122.3,322.4,122.3z M321.4,124.4h2.1c-0.2-0.6-0.6-0.8-1-0.8C321.9,123.6,321.5,123.9,321.4,124.4z M327.2,122.4v0.5
	c0.3-0.4,0.8-0.6,1.5-0.6c1.3,0,2.3,1.1,2.3,2.6s-1.1,2.6-2.3,2.6c-0.7,0-1.1-0.2-1.5-0.6v2.4h-1.5v-6.8L327.2,122.4L327.2,122.4z
	 M327.2,124.9c0,0.7,0.5,1.2,1.2,1.2s1.2-0.5,1.2-1.2s-0.5-1.2-1.2-1.2S327.2,124.1,327.2,124.9z M333.3,122.4v1.5h0.8
	c1.2,0,1.9,0.7,1.9,1.7s-0.7,1.7-1.9,1.7h-2.3v-4.9C331.8,122.4,333.3,122.4,333.3,122.4z M333.3,125.2v0.9h0.8
	c0.3,0,0.5-0.2,0.5-0.4c0-0.3-0.2-0.4-0.5-0.4L333.3,125.2L333.3,125.2z M336.5,127.3h1.5v-4.9h-1.5V127.3z M245.3,137.9
	c0-2,1.6-3.5,3.5-3.5s3.5,1.5,3.5,3.5s-1.6,3.5-3.5,3.5S245.3,139.9,245.3,137.9z M246.9,137.9c0,1.2,0.9,2,2,2s2-0.8,2-2
	s-0.9-2-2-2S246.9,136.7,246.9,137.9z M252.8,137.8h1.5v3.5h1.5v-3.5h1.5v-1.4h-4.4v1.4H252.8z M257.8,136.4v4.9h1.5v-2.2l1.6,2.2
	h1.7l-1.8-2.4l1.8-2.4h-1.7l-1.5,2.1v-2.1h-1.6V136.4z M264.5,136.4v0.5c0.3-0.4,0.8-0.6,1.5-0.6c1.3,0,2.3,1.1,2.3,2.6
	s-1.1,2.6-2.3,2.6c-0.7,0-1.1-0.2-1.5-0.6v2.4H263v-6.8L264.5,136.4L264.5,136.4z M264.5,138.9c0,0.7,0.5,1.2,1.2,1.2
	c0.7,0,1.2-0.5,1.2-1.2s-0.5-1.2-1.2-1.2C265,137.7,264.5,138.1,264.5,138.9z M273.8,141.3h1.5v-4.9h-1.5V141.3L273.8,141.3z
	 M271.4,141.3h-2.3v-4.9h1.5v1.5h0.8c1.2,0,1.9,0.7,1.9,1.7S272.6,141.3,271.4,141.3z M270.6,140h0.8c0.3,0,0.5-0.2,0.5-0.4
	c0-0.3-0.2-0.4-0.5-0.4h-0.8V140z M277.4,141.3h1.5v-3.5h1.5v-1.4H276v1.4h1.5v3.5H277.4z M283.1,141.4c-1.4,0-2.6-1.1-2.6-2.6
	s1.2-2.6,2.6-2.6s2.6,1.1,2.6,2.6S284.5,141.4,283.1,141.4z M283.1,140c0.6,0,1.1-0.5,1.1-1.2s-0.5-1.2-1.1-1.2s-1.1,0.5-1.1,1.2
	S282.5,140,283.1,140z M288.8,137.7c0.4,0,0.8,0.2,0.9,0.5l1.3-0.7c-0.4-0.8-1.3-1.2-2.2-1.2c-1.5,0-2.6,1.1-2.6,2.6
	s1.1,2.6,2.6,2.6c1,0,1.8-0.5,2.2-1.3l-1.3-0.7c-0.2,0.3-0.5,0.5-0.9,0.5c-0.6,0-1.1-0.5-1.1-1.1S288.2,137.7,288.8,137.7z
	 M295.6,136.4h-4.4v1.4h1.5v3.5h1.5v-3.5h1.5v-1.4H295.6z M297.7,136.4v1.5h0.8c1.2,0,1.9,0.7,1.9,1.7s-0.7,1.7-1.9,1.7h-2.3v-4.9
	H297.7z M297.7,139.2v0.9h0.8c0.3,0,0.5-0.2,0.5-0.4c0-0.3-0.2-0.4-0.5-0.4h-0.8V139.2z M308.1,139.9h0.6v2.7h-1.4v-1.3h-2.7v1.3
	h-1.4v-2.7h0.6c0.2-0.4,0.4-0.8,0.4-1.7v-1.8h3.9V139.9z M306.7,137.7h-1.1v0.5c0,0.7-0.1,1.2-0.3,1.7h1.4V137.7z M314.3,141.3h-1.5
	v-0.5c-0.3,0.4-0.8,0.6-1.5,0.6c-1.3,0-2.3-1.1-2.3-2.6s1.1-2.6,2.3-2.6c0.7,0,1.1,0.2,1.5,0.6v-0.5h1.5V141.3z M312.8,138.9
	c0-0.7-0.5-1.2-1.2-1.2s-1.2,0.5-1.2,1.2s0.5,1.2,1.2,1.2S312.8,139.6,312.8,138.9z M319.9,141.3v-4.9h-1.5v1.8h-1.7v-1.8h-1.5v4.9
	h1.5v-1.8h1.7v1.8H319.9z M321,136.4v4.9h1.5v-1.8h1.7v1.8h1.5v-4.9h-1.5v1.8h-1.7v-1.8H321z M328.1,136.4v1.5h0.8
	c1.2,0,1.9,0.7,1.9,1.7s-0.7,1.7-1.9,1.7h-2.3v-4.9H328.1z M328.1,139.2v0.9h0.8c0.3,0,0.5-0.2,0.5-0.4c0-0.3-0.2-0.4-0.5-0.4h-0.8
	V139.2z M332.8,136.4h-1.5v4.9h1.5V136.4z M338.5,136.4h-1.7l-0.8,1.2l-0.8-1.2h-1.7l1.7,2.4l-1.7,2.5h1.7l0.9-1.3l0.9,1.3h1.7
	l-1.7-2.5L338.5,136.4z M262,154.7v0.8h-1.5v-0.8c-1.9-0.2-3.1-1.3-3.1-2.8s1.2-2.6,3.1-2.8v-0.8h1.5v0.8c1.9,0.2,3.1,1.3,3.1,2.8
	C265,153.4,263.8,154.5,262,154.7z M260.4,150.5c-1,0.1-1.5,0.6-1.5,1.4c0,0.8,0.5,1.2,1.5,1.4V150.5z M263.5,151.9
	c0-0.8-0.5-1.2-1.5-1.4v2.7C263,153.1,263.5,152.7,263.5,151.9z M270.3,155.3v-4.9h-1.1l-2.1,2.4v-2.4h-1.4v4.9h1.1l2.1-2.4v2.4
	H270.3z M273.5,155.4c-1.3,0-2.3-1.1-2.3-2.6s1.1-2.6,2.3-2.6c0.7,0,1.1,0.2,1.5,0.6v-0.5h1.5v4.9H275v-0.5
	C274.6,155.2,274.1,155.4,273.5,155.4z M273.8,154c0.7,0,1.2-0.5,1.2-1.2s-0.5-1.2-1.2-1.2c-0.7,0-1.2,0.5-1.2,1.2
	S273.1,154,273.8,154z M280,155.3v-3.5h1.5v-1.4H277v1.4h1.5v3.5H280z M286.7,155.3v-4.9h-1.5v1.8h-1.7v-1.8H282v4.9h1.5v-1.8h1.7
	v1.8H286.7z M293.9,150.4h-1.5v4.9h1.5V150.4z M290,155.3h-2.3v-4.9h1.5v1.5h0.8c1.2,0,1.9,0.7,1.9,1.7S291.2,155.3,290,155.3z
	 M290.5,153.6c0-0.3-0.2-0.4-0.5-0.4h-0.8v0.9h0.8C290.3,154,290.5,153.8,290.5,153.6z M297.4,155.4c-1.7,0-2.7-1.1-2.7-2.6
	s1.1-2.6,2.6-2.6c1.4,0,2.5,1.1,2.5,2.6c0,0.2,0,0.4-0.1,0.6h-3.5c0.2,0.5,0.6,0.7,1.2,0.7c0.4,0,0.7-0.2,0.9-0.4l1.2,0.7
	C299.1,155.1,298.3,155.4,297.4,155.4z M296.2,152.4h2.1c-0.2-0.6-0.6-0.8-1-0.8C296.7,151.6,296.4,151.9,296.2,152.4z M307.3,153.9
	c0,0.8-0.6,1.4-1.7,1.4H303v-4.9h2.4c1.1,0,1.7,0.6,1.7,1.4c0,0.4-0.2,0.8-0.5,1C307.1,153,307.3,153.4,307.3,153.9z M304.4,152.3
	h0.9c0.3,0,0.4-0.1,0.4-0.3s-0.2-0.4-0.4-0.4h-0.9V152.3z M305.9,153.7c0-0.2-0.2-0.3-0.4-0.3h-1.1v0.7h1.1
	C305.7,154.1,305.9,154,305.9,153.7z M311.6,155.3v-0.5c-0.3,0.4-0.8,0.6-1.5,0.6c-1.3,0-2.3-1.1-2.3-2.6s1.1-2.6,2.3-2.6
	c0.7,0,1.1,0.2,1.5,0.6v-0.5h1.5v4.9h-1.5V155.3z M311.6,152.9c0-0.7-0.5-1.2-1.2-1.2s-1.2,0.5-1.2,1.2s0.5,1.2,1.2,1.2
	S311.6,153.6,311.6,152.9z M318.4,155.3v-4.9h-4v2.8c0,0.6-0.2,0.9-0.7,0.8v1.4c1.4,0.2,2.2-0.5,2.2-2v-1.5h1.1v3.5h1.4V155.3z
	 M320.9,155.3h-1.5v-4.9h1.5v1.8h0.6c0.3-1.1,1.3-1.9,2.5-1.9c1.4,0,2.6,1.1,2.6,2.6s-1.2,2.6-2.6,2.6c-1.2,0-2.2-0.8-2.5-1.9h-0.6
	V155.3z M322.9,152.9c0,0.7,0.5,1.2,1.1,1.2s1.1-0.5,1.1-1.2s-0.5-1.2-1.1-1.2S322.9,152.2,322.9,152.9z M328.3,155.3h1.5v-3.5h1.5
	v-1.4h-4.4v1.4h1.5v3.5H328.3z M338,150.4h-1.5v4.9h1.5V150.4z M333.3,150.4v1.5h0.8c1.2,0,1.9,0.7,1.9,1.7s-0.7,1.7-1.9,1.7h-2.3
	v-4.9H333.3z M333.3,153.2v0.9h0.8c0.3,0,0.5-0.2,0.5-0.4c0-0.3-0.2-0.4-0.5-0.4h-0.8V153.2z M270.3,167.8h-1.7v-5.3H267v5.3h-1.7
	v-5.3h-1.6v6.8h8v-6.8h-1.6v5.3H270.3z M276.1,169.3h1.4v-4.9h-1.1l-2.1,2.4v-2.4h-1.4v4.9h1.1l2.1-2.4V169.3z M281.5,169.4
	c-0.7,0-1.1-0.2-1.5-0.6v2.4h-1.5v-6.8h1.5v0.5c0.3-0.4,0.8-0.6,1.5-0.6c1.3,0,2.3,1.1,2.3,2.6S282.8,169.4,281.5,169.4z M281.2,168
	c0.7,0,1.2-0.5,1.2-1.2s-0.5-1.2-1.2-1.2s-1.2,0.5-1.2,1.2S280.6,168,281.2,168z M289.6,166.9c0,1.5-1.2,2.6-2.6,2.6
	s-2.6-1.1-2.6-2.6s1.2-2.6,2.6-2.6C288.5,164.3,289.6,165.4,289.6,166.9z M288.1,166.9c0-0.7-0.5-1.2-1.1-1.2s-1.1,0.5-1.1,1.2
	s0.5,1.2,1.1,1.2S288.1,167.6,288.1,166.9z M293.4,164.4l-1.5,2.1v-2.1h-1.5v4.9h1.5v-2.2l1.6,2.2h1.7l-1.8-2.4l1.8-2.4h-1.8V164.4z
	 M298.8,166.9v2.4h1.4v-4.9h-1.1l-2.1,2.4v-2.4h-1.4v4.9h1.1L298.8,166.9z M304.5,166.9v2.4h1.4v-4.9h-1.1l-2.1,2.4v-2.4h-1.4v4.9
	h1.1L304.5,166.9z M302.1,163.8h2.9v-1.3h-2.9V163.8z M312,169.3h-2.6v-4.9h2.4c1.1,0,1.7,0.6,1.7,1.4c0,0.4-0.2,0.8-0.5,1
	c0.4,0.2,0.7,0.6,0.7,1.1C313.7,168.7,313.1,169.3,312,169.3z M310.8,166.3h0.9c0.3,0,0.4-0.1,0.4-0.3s-0.2-0.4-0.4-0.4h-0.9V166.3z
	 M311.9,168.1c0.3,0,0.4-0.1,0.4-0.4c0-0.2-0.2-0.3-0.4-0.3h-1.1v0.7H311.9z M318.6,167.6c0,1-0.7,1.7-1.9,1.7h-2.3v-4.9h1.5v1.5
	h0.8C317.9,165.9,318.6,166.6,318.6,167.6z M317.2,167.6c0-0.3-0.2-0.4-0.5-0.4h-0.8v0.9h0.8C317,168,317.2,167.8,317.2,167.6z
	 M320.6,164.4h-1.5v4.9h1.5V164.4z M324,169.4c-1.6,0-2.6-1.2-2.6-2.7c0-1.6,0.3-2.4,1.9-3.2c1-0.5,1.5-0.6,1.8-1.3l1.2,0.7
	c-0.2,0.8-0.8,1.2-1.8,1.6c-0.9,0.3-1.1,0.6-1.3,0.9c0.4-0.3,0.8-0.5,1.3-0.5c0.9,0,2,0.7,2,2.1C326.5,168.5,325.5,169.4,324,169.4z
	 M325,167.1c0-0.6-0.4-1-1.1-1c-0.5,0-1,0.3-1,0.9c0,0.6,0.5,1,1.1,1C324.6,168.1,325,167.7,325,167.1z M326.9,166.9
	c0-1.5,1.2-2.6,2.6-2.6s2.6,1.1,2.6,2.6s-1.2,2.6-2.6,2.6C328.1,169.4,326.9,168.3,326.9,166.9z M328.4,166.9c0,0.7,0.5,1.2,1.1,1.2
	s1.1-0.5,1.1-1.2s-0.5-1.2-1.1-1.2S328.4,166.2,328.4,166.9z M335.9,164.3c1.3,0,2.3,1.1,2.3,2.6s-1.1,2.6-2.3,2.6
	c-0.7,0-1.1-0.2-1.5-0.6v2.4h-1.5v-6.8h1.5v0.5C334.7,164.5,335.2,164.3,335.9,164.3z M335.6,165.7c-0.7,0-1.2,0.5-1.2,1.2
	s0.5,1.2,1.2,1.2s1.2-0.5,1.2-1.2S336.2,165.7,335.6,165.7z M279.6,181.1c0,1.3-0.9,2.1-2.3,2.1h-2.6v-6.8h4.4v1.5h-2.8v1h1.1
	C278.7,179,279.6,179.9,279.6,181.1z M278.1,181.1c0-0.5-0.4-0.7-0.8-0.7h-1.1v1.4h1.1C277.7,181.8,278.1,181.6,278.1,181.1z
	 M285.2,180.9c0,0.2,0,0.4-0.1,0.6h-3.5c0.2,0.5,0.6,0.7,1.2,0.7c0.4,0,0.7-0.2,0.9-0.4l1.2,0.7c-0.5,0.7-1.2,1-2.1,1
	c-1.7,0-2.7-1.1-2.7-2.6s1.1-2.6,2.6-2.6C284.1,178.3,285.2,179.4,285.2,180.9z M283.7,180.3c-0.2-0.6-0.6-0.8-1-0.8
	c-0.6,0-0.9,0.3-1.1,0.8H283.7z M288.9,180.8c0.4-0.2,0.5-0.6,0.5-1.1c0-0.8-0.7-1.5-1.9-1.5c-0.8,0-1.5,0.4-2,1.1l1.2,0.7
	c0.2-0.4,0.4-0.6,0.8-0.6c0.3,0,0.5,0.1,0.5,0.4c0,0.2-0.1,0.3-0.5,0.3H287v1.2h0.7c0.3,0,0.5,0.1,0.5,0.3s-0.2,0.4-0.6,0.4
	s-0.8-0.2-0.9-0.6l-1.2,0.7c0.4,0.8,1.1,1.2,2,1.2c1.3,0,2-0.7,2-1.5C289.6,181.5,289.3,181.1,288.9,180.8z M295.2,180.9
	c0,1.5-1.2,2.6-2.6,2.6s-2.6-1.1-2.6-2.6s1.2-2.6,2.6-2.6C294.1,178.3,295.2,179.4,295.2,180.9z M293.8,180.9c0-0.7-0.5-1.2-1.1-1.2
	s-1.1,0.5-1.1,1.2s0.5,1.2,1.1,1.2S293.8,181.5,293.8,180.9z M296.1,183.3h1.5v-3.5h1.7v3.5h1.5v-4.9h-4.6v4.9H296.1z M305.3,178.4
	h1.5v4.9h-1.5v-0.5c-0.3,0.4-0.8,0.6-1.5,0.6c-1.3,0-2.3-1.1-2.3-2.6s1.1-2.6,2.3-2.6c0.7,0,1.1,0.2,1.5,0.6V178.4z M305.3,180.9
	c0-0.7-0.5-1.2-1.2-1.2s-1.2,0.5-1.2,1.2s0.5,1.2,1.2,1.2S305.3,181.6,305.3,180.9z M310.1,179.7c0.4,0,0.8,0.2,0.9,0.5l1.3-0.7
	c-0.4-0.8-1.3-1.2-2.2-1.2c-1.5,0-2.6,1.1-2.6,2.6s1.1,2.6,2.6,2.6c1,0,1.8-0.5,2.2-1.3l-1.3-0.7c-0.2,0.3-0.5,0.5-0.9,0.5
	c-0.6,0-1.1-0.5-1.1-1.1S309.5,179.7,310.1,179.7z M316.1,180.2h-1.7v-1.8H313v4.9h1.5v-1.8h1.7v1.8h1.5v-4.9h-1.5v1.8H316.1z
	 M323.6,180.9c0,1.5-1.2,2.6-2.6,2.6s-2.6-1.1-2.6-2.6s1.2-2.6,2.6-2.6C322.4,178.3,323.6,179.4,323.6,180.9z M322.1,180.9
	c0-0.7-0.5-1.2-1.1-1.2s-1.1,0.5-1.1,1.2s0.5,1.2,1.1,1.2S322.1,181.5,322.1,180.9z M326.7,179.7c0.4,0,0.8,0.2,0.9,0.5l1.3-0.7
	c-0.4-0.8-1.3-1.2-2.2-1.2c-1.5,0-2.6,1.1-2.6,2.6s1.1,2.6,2.6,2.6c1,0,1.8-0.5,2.2-1.3l-1.3-0.7c-0.2,0.3-0.5,0.5-0.9,0.5
	c-0.6,0-1.1-0.5-1.1-1.1S326.1,179.7,326.7,179.7z M329.1,179.8h1.5v3.5h1.5v-3.5h1.5v-1.4h-4.4v1.4H329.1z M338.3,181.6
	c0,1-0.7,1.7-1.9,1.7h-2.3v-4.9h1.5v1.5h0.8C337.6,179.9,338.3,180.6,338.3,181.6z M336.9,181.6c0-0.3-0.2-0.4-0.5-0.4h-0.8v0.9h0.8
	C336.7,182,336.9,181.8,336.9,181.6z"/>
<path class="st2" d="M514.1,114.6H376.9c-1,0-1.9-0.8-1.9-1.9V16.4c0-1,0.8-1.9,1.9-1.9h137.3c1,0,1.9,0.8,1.9,1.9v96.3
	C516,113.7,515.2,114.6,514.1,114.6"/>
<path class="st0" d="M514.1,115.6h-2.7c-0.6,0-1-0.4-1-1s0.4-1,1-1h2.7c0.1,0,0.2,0,0.3,0c0.1-0.1,0.1-0.1,0.2-0.2
	c0.3-0.2,0.4-0.5,0.4-0.8V112c0-0.6,0.4-1,1-1c0.6,0,1,0.4,1,1v0.7c0,1-0.5,1.9-1.4,2.5c-0.2,0.1-0.5,0.2-0.8,0.1
	C514.7,115.5,514.4,115.6,514.1,115.6z M504.8,115.6h-2.7c-0.6,0-1-0.4-1-1s0.4-1,1-1h2.7c0.6,0,1,0.4,1,1S505.4,115.6,504.8,115.6z
	 M495.5,115.6h-2.7c-0.6,0-1-0.4-1-1s0.4-1,1-1h2.7c0.6,0,1,0.4,1,1S496.1,115.6,495.5,115.6z M486.2,115.6h-2.7c-0.6,0-1-0.4-1-1
	s0.4-1,1-1h2.7c0.6,0,1,0.4,1,1S486.7,115.6,486.2,115.6z M476.9,115.6h-2.7c-0.6,0-1-0.4-1-1s0.4-1,1-1h2.7c0.6,0,1,0.4,1,1
	S477.4,115.6,476.9,115.6z M467.6,115.6h-2.7c-0.6,0-1-0.4-1-1s0.4-1,1-1h2.7c0.6,0,1,0.4,1,1S468.1,115.6,467.6,115.6z
	 M458.2,115.6h-2.7c-0.6,0-1-0.4-1-1s0.4-1,1-1h2.7c0.6,0,1,0.4,1,1S458.8,115.6,458.2,115.6z M448.9,115.6h-2.7c-0.6,0-1-0.4-1-1
	s0.4-1,1-1h2.7c0.6,0,1,0.4,1,1S449.5,115.6,448.9,115.6z M439.6,115.6h-2.7c-0.6,0-1-0.4-1-1s0.4-1,1-1h2.7c0.6,0,1,0.4,1,1
	S440.2,115.6,439.6,115.6z M430.3,115.6h-2.7c-0.6,0-1-0.4-1-1s0.4-1,1-1h2.7c0.6,0,1,0.4,1,1S430.8,115.6,430.3,115.6z M421,115.6
	h-2.7c-0.6,0-1-0.4-1-1s0.4-1,1-1h2.7c0.6,0,1,0.4,1,1S421.5,115.6,421,115.6z M411.6,115.6H409c-0.6,0-1-0.4-1-1s0.4-1,1-1h2.7
	c0.6,0,1,0.4,1,1S412.2,115.6,411.6,115.6z M402.3,115.6h-2.7c-0.6,0-1-0.4-1-1s0.4-1,1-1h2.7c0.6,0,1,0.4,1,1
	S402.9,115.6,402.3,115.6z M393,115.6h-2.7c-0.6,0-1-0.4-1-1s0.4-1,1-1h2.7c0.6,0,1,0.4,1,1S393.6,115.6,393,115.6z M383.7,115.6
	H381c-0.6,0-1-0.4-1-1s0.4-1,1-1h2.7c0.6,0,1,0.4,1,1S384.2,115.6,383.7,115.6z M375,114.1c-0.4,0-0.9-0.3-1-0.8
	c-0.1-0.2-0.1-0.5-0.1-0.7v-2.2c0-0.6,0.4-1,1-1s1,0.4,1,1v2.2c0,0.1,0,0.1,0,0.2c0.1,0.5-0.2,1.1-0.7,1.2
	C375.2,114.1,375.1,114.1,375,114.1z M516,106.3c-0.6,0-1-0.4-1-1v-2.7c0-0.6,0.4-1,1-1c0.6,0,1,0.4,1,1v2.7
	C517,105.9,516.6,106.3,516,106.3z M375,104.8c-0.6,0-1-0.4-1-1v-2.7c0-0.6,0.4-1,1-1s1,0.4,1,1v2.7
	C376,104.4,375.5,104.8,375,104.8z M516,97c-0.6,0-1-0.4-1-1v-2.7c0-0.6,0.4-1,1-1c0.6,0,1,0.4,1,1V96C517,96.5,516.6,97,516,97z
	 M375,95.5c-0.6,0-1-0.4-1-1v-2.7c0-0.6,0.4-1,1-1s1,0.4,1,1v2.7C376,95.1,375.5,95.5,375,95.5z M516,87.7c-0.6,0-1-0.4-1-1V84
	c0-0.6,0.4-1,1-1c0.6,0,1,0.4,1,1v2.7C517,87.2,516.6,87.7,516,87.7z M375,86.2c-0.6,0-1-0.4-1-1v-2.7c0-0.6,0.4-1,1-1s1,0.4,1,1
	v2.7C376,85.7,375.5,86.2,375,86.2z M516,78.3c-0.6,0-1-0.4-1-1v-2.7c0-0.6,0.4-1,1-1c0.6,0,1,0.4,1,1v2.7
	C517,77.9,516.6,78.3,516,78.3z M375,76.9c-0.6,0-1-0.4-1-1v-2.7c0-0.6,0.4-1,1-1s1,0.4,1,1v2.7C376,76.4,375.5,76.9,375,76.9z
	 M516,69c-0.6,0-1-0.4-1-1v-2.7c0-0.6,0.4-1,1-1c0.6,0,1,0.4,1,1V68C517,68.6,516.6,69,516,69z M375,67.6c-0.6,0-1-0.4-1-1v-2.7
	c0-0.6,0.4-1,1-1s1,0.4,1,1v2.7C376,67.1,375.5,67.6,375,67.6z M516,59.7c-0.6,0-1-0.4-1-1V56c0-0.6,0.4-1,1-1c0.6,0,1,0.4,1,1v2.7
	C517,59.3,516.6,59.7,516,59.7z M375,58.2c-0.6,0-1-0.4-1-1v-2.7c0-0.6,0.4-1,1-1s1,0.4,1,1v2.7C376,57.8,375.5,58.2,375,58.2z
	 M516,50.4c-0.6,0-1-0.4-1-1v-2.7c0-0.6,0.4-1,1-1c0.6,0,1,0.4,1,1v2.7C517,49.9,516.6,50.4,516,50.4z M375,48.9c-0.6,0-1-0.4-1-1
	v-2.7c0-0.6,0.4-1,1-1s1,0.4,1,1v2.7C376,48.5,375.5,48.9,375,48.9z M516,41.1c-0.6,0-1-0.4-1-1v-2.7c0-0.6,0.4-1,1-1
	c0.6,0,1,0.4,1,1v2.7C517,40.6,516.6,41.1,516,41.1z M375,39.6c-0.6,0-1-0.4-1-1v-2.7c0-0.6,0.4-1,1-1s1,0.4,1,1v2.7
	C376,39.2,375.5,39.6,375,39.6z M516,31.8c-0.6,0-1-0.4-1-1v-2.7c0-0.6,0.4-1,1-1c0.6,0,1,0.4,1,1v2.7C517,31.3,516.6,31.8,516,31.8
	z M375,30.3c-0.6,0-1-0.4-1-1v-2.7c0-0.6,0.4-1,1-1s1,0.4,1,1v2.7C376,29.8,375.5,30.3,375,30.3z M516,22.4c-0.6,0-1-0.4-1-1v-2.7
	c0-0.6,0.4-1,1-1c0.6,0,1,0.4,1,1v2.7C517,22,516.6,22.4,516,22.4z M375,21c-0.6,0-1-0.4-1-1v-2.7c0-0.6,0.4-1,1-1s1,0.4,1,1V20
	C376,20.5,375.5,21,375,21z M512.8,15.5h-2.7c-0.6,0-1-0.4-1-1s0.4-1,1-1h2.7c0.6,0,1,0.4,1,1S513.4,15.5,512.8,15.5z M503.5,15.5
	h-2.7c-0.6,0-1-0.4-1-1s0.4-1,1-1h2.7c0.6,0,1,0.4,1,1S504,15.5,503.5,15.5z M494.2,15.5h-2.7c-0.6,0-1-0.4-1-1s0.4-1,1-1h2.7
	c0.6,0,1,0.4,1,1S494.7,15.5,494.2,15.5z M484.8,15.5h-2.7c-0.6,0-1-0.4-1-1s0.4-1,1-1h2.7c0.6,0,1,0.4,1,1S485.4,15.5,484.8,15.5z
	 M475.5,15.5h-2.7c-0.6,0-1-0.4-1-1s0.4-1,1-1h2.7c0.6,0,1,0.4,1,1S476.1,15.5,475.5,15.5z M466.2,15.5h-2.7c-0.6,0-1-0.4-1-1
	s0.4-1,1-1h2.7c0.6,0,1,0.4,1,1S466.8,15.5,466.2,15.5z M456.9,15.5h-2.7c-0.6,0-1-0.4-1-1s0.4-1,1-1h2.7c0.6,0,1,0.4,1,1
	S457.4,15.5,456.9,15.5z M447.6,15.5h-2.7c-0.6,0-1-0.4-1-1s0.4-1,1-1h2.7c0.6,0,1,0.4,1,1S448.1,15.5,447.6,15.5z M438.3,15.5h-2.7
	c-0.6,0-1-0.4-1-1s0.4-1,1-1h2.7c0.6,0,1,0.4,1,1S438.8,15.5,438.3,15.5z M428.9,15.5h-2.7c-0.6,0-1-0.4-1-1s0.4-1,1-1h2.7
	c0.6,0,1,0.4,1,1S429.5,15.5,428.9,15.5z M419.6,15.5H417c-0.6,0-1-0.4-1-1s0.4-1,1-1h2.7c0.6,0,1,0.4,1,1S420.2,15.5,419.6,15.5z
	 M410.3,15.5h-2.7c-0.6,0-1-0.4-1-1s0.4-1,1-1h2.7c0.6,0,1,0.4,1,1S410.9,15.5,410.3,15.5z M401,15.5h-2.7c-0.6,0-1-0.4-1-1
	s0.4-1,1-1h2.7c0.6,0,1,0.4,1,1S401.5,15.5,401,15.5z M391.7,15.5H389c-0.6,0-1-0.4-1-1s0.4-1,1-1h2.7c0.6,0,1,0.4,1,1
	S392.2,15.5,391.7,15.5z M382.4,15.5h-2.7c-0.6,0-1-0.4-1-1s0.4-1,1-1h2.7c0.6,0,1,0.4,1,1S382.9,15.5,382.4,15.5z"/>
<path class="st0" d="M17.2,36.2c0.8,0,1.5-0.3,2-0.8c0.6-0.6,0.8-1.2,0.8-2s-0.3-1.5-0.8-2c-0.5-0.6-1.2-0.8-2-0.8
	c-0.8,0-1.5,0.3-2,0.8s-0.8,1.2-0.8,2s0.3,1.5,0.8,2C15.8,35.9,16.4,36.2,17.2,36.2z M15.8,31.9c0.4-0.4,0.8-0.6,1.4-0.6
	c0.5,0,1,0.2,1.4,0.6s0.6,0.8,0.6,1.4s-0.2,1-0.6,1.4s-0.8,0.6-1.4,0.6c-0.5,0-1-0.2-1.4-0.6c-0.4-0.4-0.6-0.8-0.6-1.4
	S15.5,32.3,15.8,31.9z M21.7,33h-1.3v-0.8h3.4V33h-1.3v3.1h-0.8V33z M24.6,35.6c-0.4-0.4-0.6-0.9-0.6-1.5c0-0.6,0.2-1.1,0.6-1.5
	s0.9-0.6,1.5-0.6c0.8,0,1.4,0.4,1.7,1l-0.7,0.4c-0.2-0.4-0.6-0.6-1-0.6c-0.3,0-0.6,0.1-0.9,0.4c-0.2,0.2-0.3,0.5-0.3,0.9
	s0.1,0.6,0.3,0.9c0.2,0.2,0.5,0.4,0.9,0.4c0.5,0,0.9-0.2,1-0.6l0.7,0.4c-0.3,0.6-1,1-1.8,1C25.5,36.2,25,36,24.6,35.6z M29.5,36
	l-1.6-3.9h0.9L30,35l1-2.8h0.9l-1.5,4c-0.4,1-1,1.5-1.9,1.4v-0.8C29,36.9,29.3,36.6,29.5,36L29.5,36z M33.3,33H32v-0.8h3.4V33h-1.3
	v3.1h-0.8C33.3,36.1,33.3,33,33.3,33z M36.2,35.6c-0.4-0.4-0.6-0.9-0.6-1.5s0.2-1.1,0.6-1.5s0.9-0.6,1.5-0.6c0.8,0,1.4,0.4,1.7,1
	l-0.7,0.4c-0.2-0.4-0.6-0.6-1-0.6c-0.3,0-0.6,0.1-0.9,0.4c-0.2,0.2-0.3,0.5-0.3,0.9s0.1,0.6,0.3,0.9c0.2,0.2,0.5,0.4,0.9,0.4
	c0.5,0,0.9-0.2,1-0.6l0.7,0.4c-0.3,0.6-1,1-1.8,1C37.1,36.2,36.6,36,36.2,35.6z M40.9,33h-1.3v-0.8H43V33h-1.3v3.1h-0.8
	C40.9,36.1,40.9,33,40.9,33z M46.9,35c0-0.4-0.2-0.7-0.6-0.9c0.3-0.2,0.4-0.5,0.4-0.8c0-0.6-0.5-1.1-1.3-1.1h-1.8v3.9h2
	C46.4,36.1,46.9,35.6,46.9,35z M44.4,32.9h1c0.3,0,0.5,0.1,0.5,0.4s-0.2,0.4-0.5,0.4h-1V32.9z M44.4,35.3v-0.9h1.1
	c0.3,0,0.5,0.2,0.5,0.4c0,0.3-0.2,0.5-0.5,0.5H44.4z M48.2,36.1h-0.6v-3.9h0.8v2.5l2-2.5H51v3.9h-0.8v-2.5L48.2,36.1z M53.9,36.2
	c0.8,0,1.3-0.3,1.7-0.9l-0.7-0.4c-0.2,0.3-0.6,0.5-1,0.5c-0.7,0-1.1-0.3-1.3-0.9h3.1c0-0.1,0-0.3,0-0.4c0-0.6-0.2-1.1-0.6-1.5
	c-0.4-0.4-0.8-0.6-1.4-0.6c-0.6,0-1.1,0.2-1.5,0.6s-0.6,0.9-0.6,1.5s0.2,1.1,0.6,1.5C52.8,36,53.3,36.2,53.9,36.2z M53.9,32.8
	c0.6,0,1,0.3,1.1,1h-2.3C52.8,33.2,53.2,32.8,53.9,32.8z M59.5,36.1h-0.9v-5.5h0.9v2.5l2.1-2.5h1.1l-2.2,2.7l2.3,2.8h-1.1l-2.2-2.6
	C59.5,33.5,59.5,36.1,59.5,36.1z M64.7,33.9l-1.9-3.3h1l1.3,2.4l1.3-2.4h1l-1.9,3.3v2.2h-0.9v-2.2H64.7z M67.4,33.3
	c0-0.8,0.3-1.5,0.8-2s1.2-0.8,2.1-0.8c1,0,1.9,0.5,2.4,1.3l-0.8,0.5c-0.3-0.5-0.9-0.9-1.6-0.9c-0.6,0-1.1,0.2-1.4,0.6
	c-0.4,0.4-0.5,0.8-0.5,1.4s0.2,1,0.5,1.4c0.4,0.4,0.8,0.6,1.4,0.6c0.7,0,1.3-0.3,1.6-0.9l0.8,0.4c-0.2,0.4-0.6,0.7-1,1
	c-0.4,0.2-0.9,0.4-1.4,0.4c-0.8,0-1.5-0.3-2.1-0.8C67.7,34.8,67.4,34.1,67.4,33.3z M18.8,48.7h-0.9v-2.4h-2.3v2.4h-0.9v-5.5h0.9v2.2
	h2.3v-2.2h0.9C18.8,43.2,18.8,48.7,18.8,48.7z M20.2,48.2c0.4,0.4,0.9,0.6,1.5,0.6c0.8,0,1.3-0.3,1.7-0.9l-0.7-0.4
	c-0.2,0.3-0.6,0.5-1,0.5c-0.7,0-1.1-0.3-1.3-0.9h3.1c0-0.1,0-0.3,0-0.4c0-0.6-0.2-1.1-0.6-1.5s-0.8-0.6-1.4-0.6s-1.1,0.2-1.5,0.6
	c-0.4,0.4-0.6,0.9-0.6,1.5C19.6,47.4,19.8,47.8,20.2,48.2z M21.7,45.5c0.6,0,1,0.3,1.1,1h-2.3C20.6,45.8,21,45.5,21.7,45.5z
	 M25.1,45.6h-1.3v-0.8h3.4v0.8H26v3.1h-0.9V45.6z M30.7,45.9c-0.2,0.2-0.3,0.5-0.3,0.9s0.1,0.6,0.3,0.9c0.2,0.2,0.5,0.4,0.9,0.4
	c0.5,0,0.9-0.2,1-0.6l0.7,0.4c-0.3,0.6-1,1-1.8,1c-0.6,0-1.1-0.2-1.5-0.6c-0.4-0.4-0.6-0.9-0.6-1.5s0.2-1.1,0.6-1.5
	c0.4-0.4,0.9-0.6,1.5-0.6c0.8,0,1.4,0.4,1.7,1l-0.7,0.4c-0.2-0.4-0.6-0.6-1-0.6C31.2,45.5,31,45.6,30.7,45.9z M34.8,44.8v2.5l2-2.5
	h0.7v3.9h-0.8v-2.5l-2,2.5H34v-3.9H34.8z M39.4,45.9c-0.2,0.2-0.3,0.5-0.3,0.9s0.1,0.6,0.3,0.9c0.2,0.2,0.5,0.4,0.9,0.4
	c0.5,0,0.9-0.2,1-0.6l0.7,0.4c-0.3,0.6-1,1-1.8,1c-0.6,0-1.1-0.2-1.5-0.6c-0.4-0.4-0.6-0.9-0.6-1.5s0.2-1.1,0.6-1.5s0.9-0.6,1.5-0.6
	c0.8,0,1.4,0.4,1.7,1l-0.7,0.4c-0.2-0.4-0.6-0.6-1-0.6C40,45.5,39.7,45.6,39.4,45.9z M43.5,48.7v-3.1h-1.3v-0.8h3.4v0.8h-1.3v3.1
	H43.5z M49.9,46.8c0-0.6-0.2-1.1-0.6-1.5s-0.8-0.6-1.4-0.6c-0.6,0-1.1,0.2-1.5,0.6c-0.4,0.4-0.6,0.9-0.6,1.5s0.2,1.1,0.6,1.5
	c0.4,0.4,0.9,0.6,1.5,0.6c0.8,0,1.3-0.3,1.7-0.9L49,47.6c-0.2,0.3-0.6,0.5-1,0.5c-0.7,0-1.1-0.3-1.3-0.9h3.1
	C49.8,47,49.9,46.9,49.9,46.8z M46.7,46.4c0.1-0.6,0.6-1,1.2-1s1,0.3,1.1,1H46.7z M50.6,44.8h0.9l1.1,1.8l1.1-1.8h0.9v3.9h-0.8v-2.6
	l-1.1,1.8h-0.1l-1.1-1.8v2.6h-0.8v-3.9H50.6z M58.4,48.2c0.3,0.4,0.8,0.7,1.4,0.7c0.5,0,1-0.2,1.4-0.6s0.6-0.9,0.6-1.5
	s-0.2-1.1-0.6-1.5c-0.4-0.4-0.8-0.6-1.4-0.6c-0.6,0-1,0.2-1.4,0.7v-0.6h-0.8v5.5h0.8V48.2z M58.7,45.9c0.2-0.2,0.5-0.4,0.9-0.4
	s0.7,0.1,0.9,0.4c0.2,0.2,0.4,0.5,0.4,0.9s-0.1,0.7-0.4,0.9C60.3,47.9,60,48,59.6,48s-0.6-0.1-0.9-0.4c-0.2-0.2-0.4-0.5-0.4-0.9
	C58.4,46.4,58.5,46.1,58.7,45.9z M66.3,46.8c0-0.6-0.2-1.1-0.6-1.5c-0.4-0.4-0.8-0.6-1.4-0.6s-1.1,0.2-1.5,0.6
	c-0.4,0.4-0.6,0.9-0.6,1.5s0.2,1.1,0.6,1.5c0.4,0.4,0.9,0.6,1.5,0.6c0.8,0,1.3-0.3,1.7-0.9l-0.7-0.4c-0.2,0.3-0.6,0.5-1,0.5
	c-0.6,0-1.1-0.3-1.3-0.9h3.1C66.3,47,66.3,46.9,66.3,46.8z M63.1,46.4c0.1-0.6,0.6-1,1.2-1c0.6,0,1,0.3,1.1,1H63.1z M67,44.8h0.8
	v2.5l2-2.5h0.6v3.9h-0.8v-2.5l-2,2.5H67V44.8z M69.8,44.3h-2.2v-0.7h2.2V44.3z M71,44.8h3.4v0.8h-1.3v3.1h-0.8v-3.1H71V44.8z
	 M75.7,48.7H75v-3.9h0.8v2.5l2-2.5h0.7v3.9h-0.8v-2.5L75.7,48.7z M80.3,48.7h-0.8v-3.9h0.8v1.6h1.8v-1.6H83v3.9h-0.8v-1.6h-1.8
	L80.3,48.7L80.3,48.7z M84.8,48.7H84v-3.9h2.6v0.8h-1.8C84.8,45.6,84.8,48.7,84.8,48.7z M88.7,48.8c0.6,0,1-0.2,1.4-0.7v0.6h0.8
	v-3.9h-0.8v0.6c-0.3-0.4-0.8-0.7-1.4-0.7c-0.5,0-1,0.2-1.4,0.6c-0.4,0.4-0.6,0.9-0.6,1.5s0.2,1.1,0.6,1.5
	C87.7,48.6,88.2,48.8,88.7,48.8z M88,45.9c0.2-0.2,0.5-0.4,0.9-0.4c0.4,0,0.6,0.1,0.9,0.4c0.2,0.2,0.4,0.5,0.4,0.9s-0.1,0.7-0.4,0.9
	c-0.2,0.2-0.5,0.4-0.9,0.4c-0.4,0-0.7-0.1-0.9-0.4c-0.2-0.2-0.4-0.5-0.4-0.9S87.7,46.1,88,45.9z M17.9,61.4V59h-2.3v2.4h-0.9v-5.5
	h0.9v2.2h2.3v-2.2h0.9v5.5H17.9z M23.6,59.4c0-0.6-0.2-1.1-0.6-1.5s-0.8-0.6-1.4-0.6s-1.1,0.2-1.5,0.6c-0.4,0.4-0.6,0.9-0.6,1.5
	s0.2,1.1,0.6,1.5s0.9,0.6,1.5,0.6c0.8,0,1.3-0.3,1.7-0.9l-0.7-0.4c-0.2,0.3-0.6,0.5-1,0.5c-0.7,0-1.1-0.3-1.3-0.9h3.1
	C23.6,59.6,23.6,59.5,23.6,59.4z M20.5,59.1c0.1-0.6,0.6-1,1.2-1c0.6,0,1,0.3,1.1,1H20.5z M25.1,58.3h-1.3v-0.8h3.4v0.8H26v3.1h-0.9
	V58.3z M30.6,61.4h-0.8v-3.9h3.5v3.9h-0.8v-3.1h-1.8v3.1H30.6z M37.8,60.9c0.4-0.4,0.6-0.9,0.6-1.5s-0.2-1.1-0.6-1.5
	s-0.8-0.6-1.4-0.6c-0.6,0-1,0.2-1.4,0.7v-0.6h-0.8v5.5H35v-2.1c0.3,0.4,0.8,0.7,1.4,0.7C37,61.5,37.4,61.3,37.8,60.9z M35.4,60.3
	c-0.2-0.2-0.4-0.5-0.4-0.9s0.1-0.7,0.4-0.9c0.2-0.2,0.5-0.4,0.9-0.4s0.7,0.1,0.9,0.4c0.2,0.2,0.4,0.5,0.4,0.9s-0.1,0.7-0.4,0.9
	c-0.2,0.2-0.5,0.4-0.9,0.4S35.6,60.5,35.4,60.3z M42.5,57.9c-0.4-0.4-0.9-0.6-1.5-0.6s-1.1,0.2-1.5,0.6c-0.4,0.4-0.6,0.9-0.6,1.5
	s0.2,1.1,0.6,1.5s0.9,0.6,1.5,0.6s1.1-0.2,1.5-0.6c0.4-0.4,0.6-0.9,0.6-1.5S42.9,58.3,42.5,57.9z M41.9,60.3
	c-0.2,0.2-0.5,0.4-0.9,0.4s-0.6-0.1-0.9-0.4c-0.2-0.2-0.4-0.5-0.4-0.9s0.1-0.6,0.4-0.9c0.2-0.2,0.5-0.4,0.9-0.4s0.6,0.1,0.9,0.4
	c0.3,0.3,0.4,0.5,0.4,0.9C42.2,59.8,42.1,60.1,41.9,60.3z M45.6,57.4c-0.6,0.1-1.1,0.3-1.4,0.7c-0.4,0.4-0.5,0.8-0.5,1.4
	s0.2,1,0.5,1.4c0.4,0.4,0.8,0.6,1.4,0.7v1.5h0.8v-1.5c0.6-0.1,1.1-0.3,1.4-0.7c0.4-0.4,0.5-0.8,0.5-1.4s-0.2-1-0.5-1.4
	c-0.4-0.4-0.8-0.6-1.4-0.7v-1.5h-0.8V57.4z M45.6,60.6c-0.7-0.1-1.1-0.6-1.1-1.2c0-0.6,0.4-1.1,1.1-1.2V60.6z M46.4,58.2
	c0.7,0.1,1.1,0.6,1.1,1.2c0,0.6-0.4,1.1-1.1,1.2V58.2z M52.8,60.6l-0.7-0.4c-0.2,0.3-0.6,0.5-1,0.5c-0.7,0-1.1-0.3-1.3-0.9h3.1
	c0-0.1,0-0.3,0-0.4c0-0.6-0.2-1.1-0.6-1.5c-0.4-0.4-0.8-0.6-1.4-0.6c-0.6,0-1.1,0.2-1.5,0.6c-0.4,0.4-0.6,0.9-0.6,1.5
	s0.2,1.1,0.6,1.5c0.4,0.4,0.9,0.6,1.5,0.6C51.8,61.5,52.4,61.2,52.8,60.6z M51,58.1c0.6,0,1,0.3,1.1,1h-2.3
	C49.9,58.5,50.4,58.1,51,58.1z M55.5,57.3c0.8,0,1.4,0.4,1.7,1l-0.7,0.4c-0.2-0.4-0.6-0.6-1-0.6c-0.3,0-0.6,0.1-0.9,0.4
	c-0.2,0.2-0.3,0.5-0.3,0.9s0.1,0.6,0.3,0.9c0.2,0.2,0.5,0.4,0.9,0.4c0.5,0,0.9-0.2,1-0.6l0.7,0.4c-0.3,0.6-1,1-1.8,1
	c-0.6,0-1.1-0.2-1.5-0.6c-0.4-0.4-0.6-0.9-0.6-1.5s0.2-1.1,0.6-1.5C54.4,57.5,54.9,57.3,55.5,57.3z M58.8,58.5
	c-0.2,0.2-0.3,0.5-0.3,0.9s0.1,0.6,0.3,0.9c0.2,0.2,0.5,0.4,0.9,0.4c0.5,0,0.9-0.2,1-0.6l0.7,0.4c-0.3,0.6-1,1-1.8,1
	c-0.6,0-1.1-0.2-1.5-0.6c-0.4-0.4-0.6-0.9-0.6-1.5s0.2-1.1,0.6-1.5c0.4-0.4,0.9-0.6,1.5-0.6c0.8,0,1.4,0.4,1.7,1l-0.7,0.4
	c-0.2-0.4-0.6-0.6-1-0.6C59.3,58.2,59,58.3,58.8,58.5z M62.9,57.4v2.5l2-2.5h0.7v3.9h-0.8v-2.5l-2,2.5h-0.7v-3.9H62.9z M69.9,57.9
	c-0.4-0.4-0.9-0.6-1.5-0.6c-0.6,0-1.1,0.2-1.5,0.6c-0.4,0.4-0.6,0.9-0.6,1.5s0.2,1.1,0.6,1.5c0.4,0.4,0.9,0.6,1.5,0.6
	c0.6,0,1.1-0.2,1.5-0.6c0.4-0.4,0.6-0.9,0.6-1.5S70.3,58.3,69.9,57.9z M69.3,60.3c-0.2,0.2-0.5,0.4-0.9,0.4c-0.3,0-0.6-0.1-0.9-0.4
	s-0.4-0.5-0.4-0.9s0.1-0.6,0.4-0.9s0.5-0.4,0.9-0.4c0.3,0,0.6,0.1,0.9,0.4c0.2,0.2,0.4,0.5,0.4,0.9C69.6,59.8,69.5,60.1,69.3,60.3z
	 M73.9,57.4h0.8v3.9h-0.8v-1.6h-1.8v1.6h-0.8v-3.9h0.8V59h1.8V57.4z M76,57.9c-0.4,0.4-0.6,0.9-0.6,1.5s0.2,1.1,0.6,1.5
	c0.4,0.4,0.8,0.6,1.4,0.6c0.6,0,1-0.2,1.4-0.7v0.6h0.8v-3.9h-0.8V58c-0.3-0.4-0.8-0.7-1.4-0.7C76.9,57.3,76.4,57.5,76,57.9z
	 M78.4,58.5c0.2,0.2,0.4,0.5,0.4,0.9s-0.1,0.7-0.4,0.9c-0.2,0.2-0.5,0.4-0.9,0.4c-0.4,0-0.7-0.1-0.9-0.4c-0.2-0.2-0.4-0.5-0.4-0.9
	s0.1-0.7,0.4-0.9c0.2-0.2,0.5-0.4,0.9-0.4C77.9,58.1,78.2,58.3,78.4,58.5z M80.9,57.4h3v3.9h-0.8v-3.1h-1.3v1.5
	c0,1.2-0.6,1.7-1.6,1.6v-0.8c0.5,0.1,0.7-0.2,0.7-0.9V57.4z M85.7,57.4h-0.8v3.9h1.7c0.4,0,0.8-0.1,1-0.4S88,60.4,88,60
	s-0.1-0.7-0.4-0.9s-0.6-0.4-1-0.4h-0.9C85.7,58.7,85.7,57.4,85.7,57.4z M86.6,59.5c0.3,0,0.6,0.2,0.6,0.5s-0.2,0.5-0.6,0.5h-0.9
	v-1.1L86.6,59.5L86.6,59.5z M89.6,59h1.8v-1.6h0.8v3.9h-0.8v-1.6h-1.8v1.6h-0.8v-3.9h0.8V59z M95,61.5c0.6,0,1.1-0.2,1.5-0.6
	c0.4-0.4,0.6-0.9,0.6-1.5s-0.2-1.1-0.6-1.5c-0.4-0.4-0.9-0.6-1.5-0.6c-0.6,0-1.1,0.2-1.5,0.6c-0.4,0.4-0.6,0.9-0.6,1.5
	s0.2,1.1,0.6,1.5C94,61.3,94.4,61.5,95,61.5z M94.2,58.5c0.2-0.2,0.5-0.4,0.9-0.4c0.3,0,0.6,0.1,0.9,0.4c0.2,0.2,0.4,0.5,0.4,0.9
	S96.3,60,96,60.3c-0.2,0.2-0.5,0.4-0.9,0.4c-0.3,0-0.6-0.1-0.9-0.4s-0.4-0.5-0.4-0.9C93.8,59.1,93.9,58.8,94.2,58.5z M98.7,61.4
	h-0.8v-3.9h2.6v0.8h-1.8C98.7,58.3,98.7,61.4,98.7,61.4z M102.7,61.5c0.6,0,1.1-0.2,1.5-0.6c0.4-0.4,0.6-0.9,0.6-1.5
	s-0.2-1.1-0.6-1.5c-0.4-0.4-0.9-0.6-1.5-0.6c-0.6,0-1.1,0.2-1.5,0.6c-0.4,0.4-0.6,0.9-0.6,1.5s0.2,1.1,0.6,1.5
	C101.6,61.3,102.2,61.5,102.7,61.5z M101.9,58.5c0.2-0.2,0.5-0.4,0.9-0.4c0.3,0,0.6,0.1,0.9,0.4s0.4,0.5,0.4,0.9s-0.1,0.6-0.4,0.9
	s-0.5,0.4-0.9,0.4c-0.3,0-0.6-0.1-0.9-0.4c-0.2-0.2-0.4-0.5-0.4-0.9C101.5,59.1,101.6,58.8,101.9,58.5z M108.5,61.4h-0.9v-5.5h4v5.5
	h-0.9v-4.6h-2.2V61.4z M115.3,55.8c-0.8,0-1.5,0.3-2,0.8s-0.8,1.2-0.8,2s0.3,1.5,0.8,2c0.6,0.5,1.2,0.8,2,0.8s1.5-0.3,2-0.8
	c0.6-0.6,0.8-1.2,0.8-2s-0.3-1.5-0.8-2C116.7,56.1,116.1,55.8,115.3,55.8z M116.7,60c-0.4,0.4-0.8,0.6-1.4,0.6c-0.5,0-1-0.2-1.4-0.6
	c-0.4-0.4-0.6-0.8-0.6-1.4s0.2-1,0.6-1.4c0.4-0.4,0.8-0.6,1.4-0.6c0.5,0,1,0.2,1.4,0.6c0.4,0.4,0.6,0.8,0.6,1.4S117,59.7,116.7,60z
	 M19.2,69.3c-0.5-0.6-1.2-0.8-2-0.8c-0.8,0-1.5,0.3-2,0.8s-0.8,1.2-0.8,2s0.3,1.5,0.8,2c0.6,0.5,1.2,0.8,2,0.8c0.8,0,1.5-0.3,2-0.8
	c0.6-0.6,0.8-1.2,0.8-2S19.8,69.8,19.2,69.3z M18.6,72.7c-0.4,0.4-0.8,0.6-1.4,0.6c-0.5,0-1-0.2-1.4-0.6s-0.6-0.8-0.6-1.4
	s0.2-1,0.6-1.4c0.4-0.4,0.8-0.6,1.4-0.6c0.5,0,1,0.2,1.4,0.6s0.6,0.8,0.6,1.4S19,72.3,18.6,72.7z M21.7,74v-3.1h-1.3v-0.8h3.4v0.8
	h-1.3V74H21.7z M25.2,71.2c-0.2,0.2-0.3,0.5-0.3,0.8c0,0.4,0.1,0.6,0.3,0.9c0.2,0.2,0.5,0.4,0.9,0.4c0.5,0,0.9-0.2,1-0.6l0.7,0.4
	c-0.3,0.6-1,1-1.8,1c-0.6,0-1.1-0.2-1.5-0.6C24.2,73.1,24,72.6,24,72s0.2-1.1,0.6-1.5c0.4-0.3,0.9-0.5,1.5-0.5c0.8,0,1.4,0.4,1.7,1
	l-0.7,0.4c-0.2-0.4-0.6-0.6-1-0.6S25.4,70.9,25.2,71.2z M29.5,74l-1.6-3.9h0.9l1.2,2.8l1-2.8h0.9l-1.5,4c-0.4,1-1,1.5-1.9,1.4v-0.8
	C29,74.8,29.3,74.6,29.5,74L29.5,74z M34.1,74h-0.8v-3.1H32v-0.8h3.4v0.8h-1.3C34.1,70.9,34.1,74,34.1,74z M36.2,73.5
	c-0.4-0.4-0.6-0.9-0.6-1.5s0.2-1.1,0.6-1.5s0.9-0.6,1.5-0.6c0.8,0,1.4,0.4,1.7,1l-0.7,0.4c-0.2-0.4-0.6-0.6-1-0.6
	c-0.3,0-0.6,0.1-0.9,0.4c-0.2,0.2-0.3,0.5-0.3,0.9s0.1,0.6,0.3,0.9c0.2,0.2,0.5,0.4,0.9,0.4c0.5,0,0.9-0.2,1-0.6l0.7,0.4
	c-0.3,0.6-1,1-1.8,1C37.1,74.1,36.6,73.9,36.2,73.5z M40.9,74v-3.1h-1.3v-0.8H43v0.8h-1.3V74H40.9z M46.9,72.9
	c0-0.4-0.2-0.7-0.6-0.9c0.3-0.2,0.4-0.5,0.4-0.8c0-0.6-0.5-1.1-1.3-1.1h-1.8V74h2C46.4,74,46.9,73.5,46.9,72.9z M44.4,70.8h1
	c0.3,0,0.5,0.1,0.5,0.4s-0.2,0.4-0.5,0.4h-1V70.8z M44.4,73.3v-0.9h1.1c0.3,0,0.5,0.2,0.5,0.4c0,0.3-0.2,0.5-0.5,0.5H44.4z M48.2,74
	h-0.6v-3.9h0.8v2.5l2-2.5H51V74h-0.8v-2.5L48.2,74z M55.8,72.1c0-0.6-0.2-1.1-0.6-1.5c-0.4-0.4-0.8-0.6-1.4-0.6
	c-0.6,0-1.1,0.2-1.5,0.6C52,71,51.8,71.5,51.8,72c0,0.6,0.2,1.1,0.6,1.5c0.4,0.4,0.9,0.6,1.5,0.6c0.8,0,1.3-0.3,1.7-0.9l-0.7-0.4
	c-0.2,0.3-0.6,0.5-1,0.5c-0.7,0-1.1-0.3-1.3-0.9h3.1C55.8,72.3,55.8,72.1,55.8,72.1z M52.7,71.7c0.1-0.6,0.6-1,1.2-1
	c0.6,0,1,0.3,1.1,1H52.7z M59.4,74v-3.1h-1.3v-0.8h3.4v0.8h-1.3V74H59.4z M62.3,73.5c0.4,0.4,0.9,0.6,1.5,0.6s1.1-0.2,1.5-0.6
	s0.6-0.9,0.6-1.5s-0.2-1.1-0.6-1.5s-0.9-0.6-1.5-0.6s-1.1,0.2-1.5,0.6s-0.6,0.9-0.6,1.5S61.9,73.1,62.3,73.5z M62.9,71.2
	c0.2-0.2,0.5-0.4,0.9-0.4c0.3,0,0.6,0.1,0.9,0.4c0.2,0.2,0.4,0.5,0.4,0.9S65,72.7,64.7,73c-0.2,0.2-0.5,0.4-0.9,0.4
	c-0.3,0-0.6-0.1-0.9-0.4s-0.4-0.5-0.4-0.9C62.6,71.7,62.7,71.4,62.9,71.2z M67.5,70.1v1.7l1.5-1.7h1L68.3,72l1.8,2h-1l-1.6-1.8V74
	h-0.8v-3.9H67.5z M72.2,74.1c0.8,0,1.3-0.3,1.7-0.9l-0.7-0.4c-0.2,0.3-0.6,0.5-1,0.5c-0.6,0-1.1-0.3-1.3-0.9H74c0-0.1,0-0.3,0-0.4
	c0-0.6-0.2-1.1-0.6-1.5c-0.4-0.4-0.8-0.6-1.4-0.6c-0.6,0-1.1,0.2-1.5,0.6c-0.4,0.4-0.6,0.9-0.6,1.5s0.2,1.1,0.6,1.5
	C71.1,73.9,71.6,74.1,72.2,74.1z M72.2,70.8c0.6,0,1,0.3,1.1,1H71C71.1,71.1,71.5,70.8,72.2,70.8z M75.7,74h-0.8v-3.9h0.8v1.6h1.8
	v-1.6h0.8V74h-0.8v-1.6h-1.8V74z M82,74v-2.5L80,74h-0.6v-3.9h0.8v2.5l2-2.5h0.7V74H82z M85.8,72.8c0-0.3-0.2-0.4-0.6-0.4h-0.6v-0.7
	H85c0.3,0,0.5-0.2,0.5-0.5s-0.2-0.5-0.6-0.5c-0.4,0-0.7,0.2-0.8,0.5l-0.7-0.4c0.3-0.6,0.8-0.9,1.5-0.9c0.4,0,0.8,0.1,1,0.3
	c0.3,0.2,0.4,0.5,0.4,0.8c0,0.4-0.1,0.7-0.5,0.9c0.4,0.2,0.6,0.5,0.6,0.9c0,0.7-0.6,1.2-1.5,1.2c-0.8,0-1.3-0.3-1.6-0.9l0.7-0.4
	c0.1,0.4,0.4,0.6,0.9,0.6C85.5,73.3,85.8,73.1,85.8,72.8z M91.3,74v-3.9h-0.8v0.6C90.1,70.2,89.6,70,89,70c-0.5,0-1,0.2-1.4,0.6
	C87.2,71,87,71.5,87,72.1s0.2,1.1,0.6,1.5c0.4,0.4,0.8,0.6,1.4,0.6c0.6,0,1-0.2,1.4-0.7V74H91.3z M90.1,72.9
	c-0.2,0.2-0.5,0.4-0.9,0.4c-0.4,0-0.6-0.1-0.9-0.4c-0.2-0.2-0.4-0.5-0.4-0.9s0.1-0.7,0.4-0.9c0.2-0.2,0.5-0.4,0.9-0.4
	c0.4,0,0.7,0.1,0.9,0.4c0.2,0.2,0.4,0.5,0.4,0.9C90.4,72.4,90.3,72.7,90.1,72.9z M95.4,74h-3.2v-3.9H93v3.1h1.7v-3.1h0.8v3.1h0.6V75
	h-0.8L95.4,74L95.4,74z M97.8,70.1v2.5l2-2.5h0.7V74h-0.8v-2.5l-2,2.5H97v-3.9H97.8z M104.1,74v-2.5l-2,2.5h-0.6v-3.9h0.8v2.5l2-2.5
	h0.7V74H104.1z M17.9,81.2h0.9v5.5h-0.9v-2.4h-2.3v2.4h-0.9v-5.5h0.9v2.2h2.3C17.9,83.4,17.9,81.2,17.9,81.2z M21.7,86.7
	c0.8,0,1.3-0.3,1.7-0.9l-0.7-0.4c-0.2,0.3-0.6,0.5-1,0.5c-0.7,0-1.1-0.3-1.3-0.9h3.1c0-0.1,0-0.3,0-0.4c0-0.6-0.2-1.1-0.6-1.5
	s-0.8-0.6-1.4-0.6s-1.1,0.2-1.5,0.6s-0.6,0.9-0.6,1.5s0.2,1.1,0.6,1.5C20.6,86.6,21.1,86.7,21.7,86.7z M21.7,83.4c0.6,0,1,0.3,1.1,1
	h-2.3C20.6,83.8,21,83.4,21.7,83.4z M25.1,83.5h-1.3v-0.8h3.4v0.8H26v3.1h-0.9V83.5z M30.7,83.8c-0.2,0.2-0.3,0.5-0.3,0.9
	s0.1,0.6,0.3,0.9c0.2,0.2,0.5,0.4,0.9,0.4c0.5,0,0.9-0.2,1-0.6l0.7,0.4c-0.3,0.6-1,1-1.8,1c-0.6,0-1.1-0.2-1.5-0.6
	c-0.4-0.4-0.6-0.9-0.6-1.5s0.2-1.1,0.6-1.5c0.4-0.4,0.9-0.6,1.5-0.6c0.8,0,1.4,0.4,1.7,1L32.5,84c-0.2-0.4-0.6-0.6-1-0.6
	C31.2,83.5,31,83.6,30.7,83.8z M37.2,86.6V84L36,85.9h-0.1l-1.1-1.8v2.6H34v-3.9h0.9l1.1,1.8l1.1-1.8H38v3.9L37.2,86.6L37.2,86.6z
	 M42.9,86.6v-3.9h-0.8v0.6c-0.3-0.4-0.8-0.7-1.4-0.7c-0.5,0-1,0.2-1.4,0.6c-0.4,0.4-0.6,0.9-0.6,1.5s0.2,1.1,0.6,1.5
	c0.4,0.4,0.8,0.6,1.4,0.6s1-0.2,1.4-0.7v0.6L42.9,86.6L42.9,86.6z M41.7,85.6c-0.2,0.2-0.5,0.4-0.9,0.4c-0.4,0-0.6-0.1-0.9-0.4
	c-0.2-0.2-0.4-0.5-0.4-0.9s0.1-0.7,0.4-0.9c0.2-0.2,0.5-0.4,0.9-0.4c0.4,0,0.6,0.1,0.9,0.4c0.2,0.2,0.4,0.5,0.4,0.9
	C42.1,85,41.9,85.3,41.7,85.6z M44.7,86.1c0.3,0.4,0.8,0.7,1.4,0.7c0.5,0,1-0.2,1.4-0.6s0.6-0.9,0.6-1.5s-0.2-1.1-0.6-1.5
	s-0.8-0.6-1.4-0.6c-0.6,0-1,0.2-1.4,0.7v-0.6h-0.8v5.5h0.8V86.1z M45.1,83.8c0.2-0.2,0.5-0.4,0.9-0.4s0.7,0.1,0.9,0.4
	c0.2,0.2,0.4,0.5,0.4,0.9s-0.1,0.7-0.4,0.9C46.7,85.8,46.4,86,46,86s-0.6-0.1-0.9-0.4c-0.2-0.2-0.4-0.5-0.4-0.9S44.9,84,45.1,83.8z
	 M49.5,86.6v-3.1h-1.3v-0.8h3.4v0.8h-1.3v3.1H49.5z M54.9,84.7H52v-0.8h2.9V84.7z M57.7,84.6l1.8,2h-1l-1.6-1.8v1.8H56v-3.9h0.8v1.7
	l1.5-1.7h1L57.7,84.6z M63,86.2c0.4-0.4,0.6-0.9,0.6-1.5s-0.2-1.1-0.6-1.5c-0.4-0.4-0.9-0.6-1.5-0.6s-1.1,0.2-1.5,0.6
	s-0.6,0.9-0.6,1.5s0.2,1.1,0.6,1.5c0.4,0.4,0.9,0.6,1.5,0.6C62.1,86.7,62.6,86.6,63,86.2z M60.3,84.7c0-0.4,0.1-0.6,0.4-0.9
	s0.5-0.4,0.9-0.4c0.3,0,0.6,0.1,0.9,0.4c0.2,0.2,0.4,0.5,0.4,0.9s-0.1,0.6-0.4,0.9C62.3,85.8,62,86,61.6,86c-0.3,0-0.6-0.1-0.9-0.4
	S60.3,85,60.3,84.7z M65.2,86.6h-0.8v-3.9h0.8v1.6H67v-1.6h0.8v3.9H67V85h-1.8V86.6z M69.7,86.6v-3.1h-1.3v-0.8h3.4v0.8h-1.3v3.1
	H69.7z M73.2,86.1c0.3,0.4,0.8,0.7,1.4,0.7c0.5,0,1-0.2,1.4-0.6s0.6-0.9,0.6-1.5s-0.2-1.1-0.6-1.5c-0.4-0.4-0.8-0.6-1.4-0.6
	s-1,0.2-1.4,0.7v-0.6h-0.8v5.5h0.8V86.1z M73.6,83.8c0.2-0.2,0.5-0.4,0.9-0.4c0.4,0,0.6,0.1,0.9,0.4c0.2,0.2,0.4,0.5,0.4,0.9
	s-0.1,0.7-0.4,0.9c-0.2,0.2-0.5,0.4-0.9,0.4c-0.4,0-0.7-0.1-0.9-0.4c-0.2-0.2-0.4-0.5-0.4-0.9S73.4,84,73.6,83.8z M80.4,83.3
	c-0.3-0.4-0.8-0.7-1.4-0.7c-0.5,0-1,0.2-1.4,0.6c-0.4,0.4-0.6,0.9-0.6,1.5s0.2,1.1,0.6,1.5c0.4,0.4,0.8,0.6,1.4,0.6
	c0.6,0,1-0.2,1.4-0.7v0.6h0.8v-3.9h-0.8V83.3z M80.1,85.6c-0.2,0.2-0.5,0.4-0.9,0.4c-0.4,0-0.6-0.1-0.9-0.4C78.1,85.3,78,85,78,84.7
	c0-0.4,0.1-0.7,0.4-0.9c0.2-0.2,0.5-0.4,0.9-0.4c0.4,0,0.7,0.1,0.9,0.4c0.2,0.2,0.4,0.5,0.4,0.9C80.4,85,80.3,85.3,80.1,85.6z
	 M83.9,84.6l1.8,2h-1l-1.6-1.8v1.8h-0.8v-3.9h0.8v1.7l1.5-1.7h1L83.9,84.6z M87.2,83.5h-1.3v-0.8h3.4v0.8H88v3.1h-0.8V83.5z
	 M93,86.2c0.4-0.4,0.6-0.9,0.6-1.5s-0.2-1.1-0.6-1.5c-0.4-0.4-0.9-0.6-1.5-0.6c-0.6,0-1.1,0.2-1.5,0.6c-0.4,0.4-0.6,0.9-0.6,1.5
	s0.2,1.1,0.6,1.5c0.4,0.4,0.9,0.6,1.5,0.6C92.1,86.7,92.6,86.6,93,86.2z M90.3,84.7c0-0.4,0.1-0.6,0.4-0.9s0.5-0.4,0.9-0.4
	c0.3,0,0.6,0.1,0.9,0.4c0.2,0.2,0.4,0.5,0.4,0.9s-0.1,0.6-0.4,0.9C92.3,85.8,92,86,91.6,86c-0.3,0-0.6-0.1-0.9-0.4
	S90.3,85,90.3,84.7z M97.7,85.5c0-0.4-0.2-0.7-0.6-0.9c0.3-0.2,0.4-0.5,0.4-0.8c0-0.6-0.5-1.1-1.3-1.1h-1.8v3.9h2
	C97.2,86.6,97.7,86.2,97.7,85.5z M95.2,83.5h1c0.3,0,0.5,0.1,0.5,0.4s-0.2,0.4-0.5,0.4h-1V83.5z M95.2,85.9V85h1.1
	c0.3,0,0.5,0.2,0.5,0.4c0,0.3-0.2,0.5-0.5,0.5H95.2z M14.6,93.8h4v5.5h-0.9v-4.6h-2.2v4.6h-0.9V93.8z M21.9,95.3
	c-0.6,0-1,0.2-1.4,0.7v-0.6h-0.8v5.5h0.8v-2.1c0.3,0.4,0.8,0.7,1.4,0.7c0.5,0,1-0.2,1.4-0.6c0.4-0.4,0.6-0.9,0.6-1.5
	s-0.2-1.1-0.6-1.5C22.9,95.5,22.5,95.3,21.9,95.3z M22.7,98.2c-0.2,0.2-0.5,0.4-0.9,0.4c-0.4,0-0.6-0.1-0.9-0.4
	c-0.2-0.2-0.4-0.5-0.4-0.9s0.1-0.7,0.4-0.9c0.2-0.2,0.5-0.4,0.9-0.4c0.4,0,0.7,0.1,0.9,0.4c0.2,0.3,0.3,0.6,0.3,0.9
	C23,97.7,22.9,98,22.7,98.2z M26.5,95.3c-0.6,0-1.1,0.2-1.5,0.6s-0.6,0.9-0.6,1.5s0.2,1.1,0.6,1.5s0.9,0.6,1.5,0.6s1.1-0.2,1.5-0.6
	s0.6-0.9,0.6-1.5s-0.2-1.1-0.6-1.5C27.6,95.5,27.1,95.3,26.5,95.3z M27.4,98.2c-0.2,0.2-0.5,0.4-0.9,0.4c-0.3,0-0.6-0.1-0.9-0.4
	c-0.2-0.2-0.4-0.5-0.4-0.9s0.1-0.6,0.4-0.9c0.2-0.2,0.5-0.4,0.9-0.4c0.3,0,0.6,0.1,0.9,0.4c0.2,0.2,0.4,0.5,0.4,0.9
	C27.7,97.7,27.6,98,27.4,98.2z M31.4,95.8c-0.5,0-1,0.2-1.3,0.5c0.1-0.4,0.4-0.7,1.1-1l0.4-0.2l0.3-0.2c0.1-0.1,0.3-0.1,0.3-0.2
	c0.2-0.2,0.5-0.5,0.5-0.8L32,93.5c-0.1,0.2-0.1,0.4-0.4,0.6c-0.1,0.1-0.2,0.1-0.3,0.2c-0.1,0-0.2,0.1-0.4,0.2
	c-0.2,0.1-0.3,0.2-0.4,0.2c-0.6,0.3-1,0.6-1.2,1S29,96.6,29,97.2s0.2,1.1,0.6,1.5c0.4,0.4,0.9,0.6,1.5,0.6c0.6,0,1-0.2,1.4-0.5
	c0.4-0.3,0.5-0.8,0.5-1.3s-0.2-0.9-0.5-1.3C32.2,96,31.8,95.8,31.4,95.8z M31.1,98.6c-0.3,0-0.6-0.1-0.8-0.3
	c-0.2-0.2-0.3-0.5-0.3-0.8s0.1-0.6,0.4-0.7c0.2-0.2,0.5-0.3,0.8-0.3c0.7,0,1.1,0.4,1.1,1.1C32.3,98.2,31.8,98.6,31.1,98.6z M34,95.4
	h3v3.9h-0.8v-3.1h-1.3v1.5c0,1.2-0.6,1.7-1.6,1.6v-0.8c0.5,0.1,0.7-0.2,0.7-0.9V95.4z M39.8,95.3c-0.6,0-1.1,0.2-1.5,0.6
	s-0.6,0.9-0.6,1.5s0.2,1.1,0.6,1.5s0.9,0.6,1.5,0.6c0.8,0,1.3-0.3,1.7-0.9l-0.7-0.4c-0.2,0.3-0.6,0.5-1,0.5c-0.7,0-1.1-0.3-1.3-0.9
	h3.1c0-0.1,0-0.3,0-0.4c0-0.6-0.2-1.1-0.6-1.5C40.8,95.5,40.4,95.3,39.8,95.3z M38.6,97c0.1-0.6,0.6-1,1.2-1c0.6,0,1,0.3,1.1,1H38.6
	z M45.6,95.4h0.9v3.9h-0.8v-2.6l-1.1,1.8h-0.1l-1.1-1.8v2.6h-0.8v-3.9h0.9l1.1,1.8L45.6,95.4z M51.1,95.4h0.8v3.9h-0.8V95.4z
	 M49.2,96.7h-0.9v-1.3h-0.8v3.9h1.7c0.4,0,0.8-0.1,1-0.4c0.3-0.2,0.4-0.5,0.4-0.9s-0.1-0.7-0.4-0.9C49.9,96.8,49.6,96.7,49.2,96.7z
	 M49.2,98.5h-0.9v-1.1h0.9c0.3,0,0.6,0.2,0.6,0.5C49.8,98.3,49.5,98.5,49.2,98.5z M57.7,98l0.7,0.4c-0.3,0.6-1,1-1.8,1
	c-0.6,0-1.1-0.2-1.5-0.6s-0.6-0.9-0.6-1.5s0.2-1.1,0.6-1.5c0.4-0.4,0.9-0.6,1.5-0.6c0.8,0,1.4,0.4,1.7,1l-0.7,0.4
	c-0.2-0.4-0.6-0.6-1-0.6c-0.3,0-0.6,0.1-0.9,0.4c-0.2,0.2-0.3,0.5-0.3,0.9s0.1,0.6,0.3,0.9c0.2,0.2,0.5,0.4,0.9,0.4
	C57.1,98.6,57.5,98.3,57.7,98z M61.3,95.4h3v3.9h-0.8v-3.1h-1.3v1.5c0,1.2-0.6,1.7-1.6,1.6v-0.8c0.5,0.1,0.7-0.2,0.7-0.9
	C61.3,97.6,61.3,95.4,61.3,95.4z M67.2,95.3c-0.6,0-1.1,0.2-1.5,0.6s-0.6,0.9-0.6,1.5s0.2,1.1,0.6,1.5c0.4,0.4,0.9,0.6,1.5,0.6
	c0.8,0,1.3-0.3,1.7-0.9l-0.7-0.4c-0.2,0.3-0.6,0.5-1,0.5c-0.7,0-1.1-0.3-1.3-0.9H69c0-0.1,0-0.3,0-0.4c0-0.6-0.2-1.1-0.6-1.5
	C68.2,95.5,67.7,95.3,67.2,95.3z M66,97c0.1-0.6,0.6-1,1.2-1c0.6,0,1,0.3,1.1,1H66z M69.9,95.4h2.6v0.8h-1.8v3.1h-0.8V95.4z
	 M76,95.9c-0.3-0.4-0.8-0.7-1.4-0.7c-0.5,0-1,0.2-1.4,0.6c-0.4,0.4-0.6,0.9-0.6,1.5s0.2,1.1,0.6,1.5c0.4,0.4,0.8,0.6,1.4,0.6
	c0.6,0,1-0.2,1.4-0.7v0.6h0.8v-3.9H76V95.9z M75.7,98.2c-0.2,0.2-0.5,0.4-0.9,0.4s-0.7-0.1-0.9-0.4c-0.2-0.2-0.4-0.5-0.4-0.9
	s0.1-0.7,0.4-0.9c0.2-0.2,0.5-0.4,0.9-0.4s0.6,0.1,0.9,0.4c0.2,0.2,0.4,0.5,0.4,0.9C76,97.7,75.9,98,75.7,98.2z M78.2,95.4h3v3.9
	h-0.8v-3.1H79v1.5c0,1.2-0.6,1.7-1.6,1.6v-0.8c0.5,0.1,0.7-0.2,0.7-0.9L78.2,95.4L78.2,95.4z M83.8,96.7H83v-1.3h-0.8v3.9h1.7
	c0.4,0,0.8-0.1,1-0.4c0.3-0.2,0.4-0.5,0.4-0.9s-0.1-0.7-0.4-0.9C84.6,96.8,84.3,96.7,83.8,96.7z M83.8,98.5H83v-1.1h0.9
	c0.3,0,0.6,0.2,0.6,0.5C84.4,98.3,84.2,98.5,83.8,98.5z M88.6,95.4h0.8v3.9h-0.8v-1.6h-1.8v1.6H86v-3.9h0.8V97h1.8
	C88.6,97,88.6,95.4,88.6,95.4z M92.3,95.3c-0.6,0-1.1,0.2-1.5,0.6c-0.4,0.4-0.6,0.9-0.6,1.5s0.2,1.1,0.6,1.5
	c0.4,0.4,0.9,0.6,1.5,0.6c0.6,0,1.1-0.2,1.5-0.6c0.4-0.4,0.6-0.9,0.6-1.5s-0.2-1.1-0.6-1.5C93.3,95.5,92.8,95.3,92.3,95.3z
	 M93.1,98.2c-0.2,0.2-0.5,0.4-0.9,0.4c-0.3,0-0.6-0.1-0.9-0.4C91.2,98,91,97.7,91,97.3c0-0.4,0.1-0.6,0.4-0.9
	c0.2-0.2,0.5-0.4,0.9-0.4c0.3,0,0.6,0.1,0.9,0.4c0.2,0.2,0.4,0.5,0.4,0.9C93.5,97.7,93.4,98,93.1,98.2z M98,98l0.7,0.4
	c-0.3,0.6-1,1-1.8,1c-0.6,0-1.1-0.2-1.5-0.6c-0.4-0.4-0.6-0.9-0.6-1.5s0.2-1.1,0.6-1.5c0.4-0.4,0.9-0.6,1.5-0.6c0.8,0,1.4,0.4,1.7,1
	L98,96.7c-0.2-0.4-0.6-0.6-1-0.6c-0.3,0-0.6,0.1-0.9,0.4c-0.2,0.2-0.3,0.5-0.3,0.9s0.1,0.6,0.3,0.9c0.2,0.2,0.5,0.4,0.9,0.4
	C97.4,98.6,97.8,98.3,98,98z M98.9,95.4h3.4v0.8H101v3.1h-0.8v-3.1h-1.3C98.9,96.2,98.9,95.4,98.9,95.4z M104.5,96.7h-0.9v-1.3h-0.8
	v3.9h1.7c0.4,0,0.8-0.1,1-0.4c0.3-0.2,0.4-0.5,0.4-0.9s-0.1-0.7-0.4-0.9C105.3,96.8,105,96.7,104.5,96.7z M104.5,98.5h-0.9v-1.1h0.9
	c0.3,0,0.6,0.2,0.6,0.5C105.1,98.3,104.9,98.5,104.5,98.5z M110.1,95.3c-0.5,0-0.9,0.2-1.3,0.5c-0.4,0.3-0.6,0.7-0.7,1.2h-0.7v-1.6
	h-0.8v3.9h0.8v-1.6h0.7c0.1,0.5,0.3,0.9,0.7,1.2c0.4,0.3,0.8,0.5,1.3,0.5c0.6,0,1.1-0.2,1.5-0.6c0.4-0.4,0.6-0.9,0.6-1.5
	s-0.2-1.1-0.6-1.5C111.2,95.5,110.7,95.3,110.1,95.3z M111,98.2c-0.2,0.2-0.5,0.4-0.9,0.4c-0.3,0-0.6-0.1-0.9-0.4
	c-0.2-0.2-0.4-0.5-0.4-0.9s0.1-0.6,0.4-0.9c0.2-0.2,0.5-0.4,0.9-0.4c0.3,0,0.6,0.1,0.9,0.4c0.2,0.2,0.4,0.5,0.4,0.9
	S111.2,98,111,98.2z M388.4,36.1h-0.9v-5.5h0.9v2.2h2.3v-2.2h0.9v5.5h-0.9v-2.4h-2.3V36.1z M394.6,36.2c0.8,0,1.3-0.3,1.7-0.9
	l-0.7-0.4c-0.2,0.3-0.6,0.5-1,0.5c-0.6,0-1.1-0.3-1.3-0.9h3.1c0-0.1,0-0.3,0-0.4c0-0.6-0.2-1.1-0.6-1.5S395,32,394.4,32
	s-1.1,0.2-1.5,0.6s-0.6,0.9-0.6,1.5s0.2,1.1,0.6,1.5C393.5,36,394,36.2,394.6,36.2z M394.5,32.8c0.6,0,1,0.3,1.1,1h-2.3
	C393.5,33.2,393.9,32.8,394.5,32.8z M398,33h-1.3v-0.8h3.4V33h-1.3v3.1H398V33z M403.4,36.1h-0.8v-3.9h0.9l1.1,1.8l1.1-1.8h0.9v3.9
	h-0.8v-2.6l-1.1,1.8h-0.1l-1.1-1.8v2.6H403.4z M408.8,36l-1.6-3.9h0.9l1.2,2.8l1-2.8h0.9l-1.5,4c-0.4,1-1,1.5-1.9,1.4v-0.8
	C408.2,36.9,408.6,36.6,408.8,36L408.8,36z M411,35.3c0.5,0.1,0.7-0.2,0.7-0.9v-2.2h3v3.9h-0.8V33h-1.3v1.5c0,1.2-0.6,1.7-1.6,1.6
	L411,35.3L411,35.3z M418.5,35.7c0.3-0.2,0.4-0.5,0.4-0.9s-0.1-0.7-0.4-0.9s-0.6-0.4-1-0.4h-0.9v-1.3h-0.8v3.9h1.7
	C417.8,36.1,418.2,36,418.5,35.7z M416.6,34.2h0.9c0.3,0,0.6,0.2,0.6,0.5s-0.3,0.5-0.6,0.5h-0.9V34.2z M420,33h-1.3v-0.8h3.4V33
	h-1.3v3.1H420V33z M423.3,36.1h-0.6v-3.9h0.8v2.5l2-2.5h0.6v3.9h-0.8v-2.5L423.3,36.1z M430.4,35c0-0.4-0.2-0.7-0.6-0.9
	c0.3-0.2,0.4-0.5,0.4-0.8c0-0.6-0.5-1.1-1.3-1.1h-1.8v3.9h2C430,36.1,430.4,35.6,430.4,35z M427.9,32.9h1c0.3,0,0.5,0.1,0.5,0.4
	s-0.2,0.4-0.5,0.4h-1V32.9z M427.9,35.3v-0.9h1.1c0.3,0,0.5,0.2,0.5,0.4c0,0.3-0.2,0.5-0.5,0.5H427.9z M432.8,36.2
	c0.6,0,1-0.2,1.4-0.7v0.6h0.8v-3.9h-0.8v0.6c-0.3-0.4-0.8-0.7-1.4-0.7c-0.5,0-1,0.2-1.4,0.6c-0.4,0.4-0.6,0.9-0.6,1.5
	s0.2,1.1,0.6,1.5C431.8,36,432.3,36.2,432.8,36.2z M432.1,33.2c0.2-0.2,0.5-0.4,0.9-0.4s0.6,0.1,0.9,0.4c0.2,0.2,0.4,0.5,0.4,0.9
	s-0.1,0.7-0.4,0.9c-0.2,0.2-0.5,0.4-0.9,0.4s-0.7-0.1-0.9-0.4c-0.2-0.2-0.4-0.5-0.4-0.9C431.7,33.8,431.9,33.5,432.1,33.2z
	 M435.6,36.1v-0.8c0.5,0.1,0.7-0.2,0.7-0.9v-2.2h3v3.9h-0.8V33h-1.3v1.5C437.2,35.7,436.6,36.2,435.6,36.1z M441.2,34.5h0.6
	c0.1,0.5,0.3,0.9,0.7,1.2c0.4,0.3,0.8,0.5,1.3,0.5c0.6,0,1.1-0.2,1.5-0.6s0.6-0.9,0.6-1.5s-0.2-1.1-0.6-1.5s-0.9-0.6-1.5-0.6
	c-0.5,0-0.9,0.2-1.3,0.5s-0.6,0.7-0.7,1.2h-0.6v-1.6h-0.8V36h0.8V34.5z M442.9,33.2c0.2-0.2,0.5-0.4,0.9-0.4s0.6,0.1,0.9,0.4
	c0.2,0.2,0.4,0.5,0.4,0.9s-0.1,0.6-0.4,0.9c-0.2,0.2-0.5,0.4-0.9,0.4s-0.6-0.1-0.9-0.4c-0.2-0.2-0.4-0.5-0.4-0.9
	C442.6,33.8,442.7,33.5,442.9,33.2z M447.4,33h-1.3v-0.8h3.4V33h-1.3v3.1h-0.8L447.4,33L447.4,33z M450.9,36.1H450v-3.9h0.8v1.6h1.8
	v-1.6h0.8v3.9h-0.8v-1.6h-1.8v1.6H450.9z M457.2,35.7c0.3-0.2,0.4-0.5,0.4-0.9s-0.1-0.7-0.4-0.9s-0.6-0.4-1-0.4h-0.9v-1.3h-0.8v3.9
	h1.7C456.6,36.1,457,36,457.2,35.7z M455.4,34.2h0.9c0.3,0,0.6,0.2,0.6,0.5s-0.3,0.5-0.6,0.5h-0.9V34.2z M459,36.1h-0.8v-3.9h0.8
	V36.1z M459.5,36.1l1.5-2l-1.4-1.9h1l0.9,1.2l0.9-1.2h1l-1.4,1.9l1.5,2h-1l-1-1.3l-1,1.3H459.5z M466.8,36.1H466v-3.9h0.8v1.7
	l1.5-1.7h1l-1.7,1.9l1.8,2h-1l-1.6-1.8L466.8,36.1L466.8,36.1z M471.5,36.2c0.6,0,1.1-0.2,1.5-0.6c0.4-0.4,0.6-0.9,0.6-1.5
	s-0.2-1.1-0.6-1.5s-0.9-0.6-1.5-0.6s-1.1,0.2-1.5,0.6c-0.4,0.4-0.6,0.9-0.6,1.5s0.2,1.1,0.6,1.5S471,36.2,471.5,36.2z M470.7,33.2
	c0.2-0.2,0.5-0.4,0.9-0.4c0.3,0,0.6,0.1,0.9,0.4c0.2,0.2,0.4,0.5,0.4,0.9s-0.1,0.6-0.4,0.9c-0.2,0.2-0.5,0.4-0.9,0.4
	c-0.3,0-0.6-0.1-0.9-0.4c-0.2-0.2-0.4-0.5-0.4-0.9C470.3,33.8,470.4,33.5,470.7,33.2z M479.8,36.1h-5.5v-3.9h0.8v3.1h1.5v-3.1h0.8
	v3.1h1.5v-3.1h0.8v3.9H479.8z M482.7,36.2c0.8,0,1.3-0.3,1.7-0.9l-0.7-0.4c-0.2,0.3-0.6,0.5-1,0.5c-0.6,0-1.1-0.3-1.3-0.9h3.1
	c0-0.1,0-0.3,0-0.4c0-0.6-0.2-1.1-0.6-1.5s-0.8-0.6-1.4-0.6s-1.1,0.2-1.5,0.6s-0.6,0.9-0.6,1.5s0.2,1.1,0.6,1.5
	C481.6,36,482.1,36.2,482.7,36.2z M482.7,32.8c0.6,0,1,0.3,1.1,1h-2.3C481.6,33.2,482,32.8,482.7,32.8z M484.8,36.1v-0.8
	c0.5,0.1,0.7-0.2,0.7-0.9v-2.2h3v3.9h-0.8V33h-1.3v1.5C486.4,35.7,485.8,36.2,484.8,36.1z M492.2,35.7c0.3-0.2,0.4-0.5,0.4-0.9
	s-0.1-0.7-0.4-0.9s-0.6-0.4-1-0.4h-0.9v-1.3h-0.8v3.9h1.7C491.6,36.1,492,36,492.2,35.7z M490.3,34.2h0.9c0.3,0,0.6,0.2,0.6,0.5
	s-0.3,0.5-0.6,0.5h-0.9V34.2z M494.2,36.1h-0.8v-3.9h0.8v1.7l1.5-1.7h1l-1.7,1.9l1.8,2h-1l-1.6-1.8L494.2,36.1L494.2,36.1z
	 M498.9,36.2c0.6,0,1.1-0.2,1.5-0.6c0.4-0.4,0.6-0.9,0.6-1.5s-0.2-1.1-0.6-1.5s-0.9-0.6-1.5-0.6s-1.1,0.2-1.5,0.6
	c-0.4,0.4-0.6,0.9-0.6,1.5s0.2,1.1,0.6,1.5S498.3,36.2,498.9,36.2z M498,33.2c0.2-0.2,0.5-0.4,0.9-0.4c0.3,0,0.6,0.1,0.9,0.4
	c0.2,0.2,0.4,0.5,0.4,0.9s-0.1,0.6-0.4,0.9c-0.2,0.2-0.5,0.4-0.9,0.4c-0.3,0-0.6-0.1-0.9-0.4c-0.2-0.2-0.4-0.5-0.4-0.9
	C497.7,33.8,497.8,33.5,498,33.2z M504.4,34.1c0.3-0.2,0.4-0.5,0.4-0.8c0-0.6-0.5-1.1-1.3-1.1h-1.8v3.9h2c0.8,0,1.3-0.5,1.3-1.1
	C505,34.5,504.8,34.2,504.4,34.1z M502.5,32.9h1c0.3,0,0.5,0.1,0.5,0.4s-0.2,0.4-0.5,0.4h-1V32.9z M503.6,35.3h-1.1v-0.9h1.1
	c0.3,0,0.5,0.2,0.5,0.4C504.2,35.2,504,35.3,503.6,35.3z M388.4,48.7h-0.9v-5.5h0.9v2.2h2.3v-2.2h0.9v5.5h-0.9v-2.4h-2.3V48.7z
	 M394.6,48.8c0.8,0,1.3-0.3,1.7-0.9l-0.7-0.4c-0.2,0.3-0.6,0.5-1,0.5c-0.6,0-1.1-0.3-1.3-0.9h3.1c0-0.1,0-0.3,0-0.4
	c0-0.6-0.2-1.1-0.6-1.5s-0.8-0.6-1.4-0.6s-1.1,0.2-1.5,0.6c-0.4,0.4-0.6,0.9-0.6,1.5s0.2,1.1,0.6,1.5
	C393.5,48.6,394,48.8,394.6,48.8z M394.5,45.5c0.6,0,1,0.3,1.1,1h-2.3C393.5,45.8,393.9,45.5,394.5,45.5z M397.6,44.8v1.7
	c0,0.6-0.1,1.1-0.4,1.4h-0.5v1.8h0.8v-1h2.7v1h0.8v-1.8h-0.5v-3.1C400.5,44.8,397.6,44.8,397.6,44.8z M399.7,47.9h-1.6
	c0.2-0.4,0.3-0.9,0.3-1.4v-0.9h1.3L399.7,47.9L399.7,47.9z M403.5,48.8c0.6,0,1.1-0.2,1.5-0.6c0.4-0.4,0.6-0.9,0.6-1.5
	s-0.2-1.1-0.6-1.5s-0.9-0.6-1.5-0.6s-1.1,0.2-1.5,0.6c-0.4,0.4-0.6,0.9-0.6,1.5s0.2,1.1,0.6,1.5S402.9,48.8,403.5,48.8z M402.6,45.9
	c0.2-0.2,0.5-0.4,0.9-0.4c0.3,0,0.6,0.1,0.9,0.4c0.2,0.2,0.4,0.5,0.4,0.9s-0.1,0.6-0.4,0.9c-0.2,0.2-0.5,0.4-0.9,0.4
	c-0.3,0-0.6-0.1-0.9-0.4c-0.2-0.2-0.4-0.5-0.4-0.9S402.4,46.1,402.6,45.9z M408.1,44.8h-1.8v3.9h2c0.8,0,1.3-0.5,1.3-1.1
	c0-0.4-0.2-0.7-0.6-0.9c0.3-0.2,0.4-0.5,0.4-0.8C409.4,45.2,408.9,44.8,408.1,44.8z M407.1,45.5h1c0.3,0,0.5,0.1,0.5,0.4
	s-0.2,0.4-0.5,0.4h-1V45.5z M408.2,48h-1.1v-0.9h1.1c0.3,0,0.5,0.2,0.5,0.4C408.8,47.8,408.6,48,408.2,48z M414.1,46.8
	c0-0.6-0.2-1.1-0.6-1.5s-0.8-0.6-1.4-0.6s-1.1,0.2-1.5,0.6c-0.4,0.4-0.6,0.9-0.6,1.5s0.2,1.1,0.6,1.5s0.9,0.6,1.5,0.6
	c0.8,0,1.3-0.3,1.7-0.9l-0.7-0.4c-0.2,0.3-0.6,0.5-1,0.5c-0.6,0-1.1-0.3-1.3-0.9h3.1C414.1,47,414.1,46.9,414.1,46.8z M410.9,46.4
	c0.1-0.6,0.6-1,1.2-1s1,0.3,1.1,1H410.9z M415.7,48.2c0.3,0.4,0.8,0.7,1.4,0.7c0.5,0,1-0.2,1.4-0.6s0.6-0.9,0.6-1.5
	s-0.2-1.1-0.6-1.5s-0.8-0.6-1.4-0.6s-1,0.2-1.4,0.7v-0.6h-0.8v5.5h0.8V48.2z M416,45.9c0.2-0.2,0.5-0.4,0.9-0.4s0.6,0.1,0.9,0.4
	c0.2,0.2,0.4,0.5,0.4,0.9s-0.1,0.7-0.4,0.9c-0.2,0.2-0.5,0.4-0.9,0.4s-0.6-0.1-0.9-0.4c-0.2-0.2-0.4-0.5-0.4-0.9
	C415.7,46.4,415.8,46.1,416,45.9z M420.6,47.3l2-2.5h0.6v3.9h-0.8v-2.5l-2,2.5h-0.6v-3.9h0.8V47.3z M428,46.8c0-0.6-0.2-1.1-0.6-1.5
	s-0.8-0.6-1.4-0.6s-1.1,0.2-1.5,0.6c-0.4,0.4-0.6,0.9-0.6,1.5s0.2,1.1,0.6,1.5s0.9,0.6,1.5,0.6c0.8,0,1.3-0.3,1.7-0.9l-0.7-0.4
	c-0.2,0.3-0.6,0.5-1,0.5c-0.6,0-1.1-0.3-1.3-0.9h3.1C428,47,428,46.9,428,46.8z M424.9,46.4c0.1-0.6,0.6-1,1.2-1s1,0.3,1.1,1H424.9z
	 M432.5,48.8v1.5h0.8v-1.5c0.6-0.1,1.1-0.3,1.4-0.7c0.4-0.4,0.5-0.8,0.5-1.4s-0.2-1-0.5-1.4c-0.4-0.4-0.8-0.6-1.4-0.7v-1.5h-0.8v1.5
	c-0.6,0.1-1.1,0.3-1.4,0.7c-0.4,0.4-0.5,0.8-0.5,1.4s0.2,1,0.5,1.4S431.9,48.7,432.5,48.8z M433.3,45.5c0.7,0.1,1.1,0.6,1.1,1.2
	c0,0.6-0.4,1.1-1.1,1.2V45.5z M432.5,45.5V48c-0.7-0.1-1.1-0.6-1.1-1.2C431.3,46.1,431.8,45.7,432.5,45.5z M436.4,45.3
	c-0.4,0.4-0.6,0.9-0.6,1.5s0.2,1.1,0.6,1.5s0.9,0.6,1.5,0.6s1.1-0.2,1.5-0.6c0.4-0.4,0.6-0.9,0.6-1.5s-0.2-1.1-0.6-1.5
	s-0.9-0.6-1.5-0.6S436.8,44.9,436.4,45.3z M439.1,46.8c0,0.4-0.1,0.6-0.4,0.9c-0.2,0.2-0.5,0.4-0.9,0.4c-0.3,0-0.6-0.1-0.9-0.4
	c-0.2-0.2-0.4-0.5-0.4-0.9s0.1-0.6,0.4-0.9c0.2-0.2,0.5-0.4,0.9-0.4c0.3,0,0.6,0.1,0.9,0.4C439,46.1,439.1,46.4,439.1,46.8z
	 M443.4,48.7v-1.6h-1.8v1.6h-0.8v-3.9h0.8v1.6h1.8v-1.6h0.8v3.9H443.4z M445.6,44.8v1.7c0,0.6-0.1,1.1-0.4,1.4h-0.5v1.8h0.8v-1h2.7
	v1h0.8v-1.8h-0.5v-3.1C448.5,44.8,445.6,44.8,445.6,44.8z M447.8,47.9h-1.6c0.2-0.4,0.3-0.9,0.3-1.4v-0.9h1.3L447.8,47.9L447.8,47.9
	z M450,48.2c0.4,0.4,0.8,0.6,1.4,0.6s1-0.2,1.4-0.7v0.6h0.8v-3.9h-0.8v0.6c-0.3-0.4-0.8-0.7-1.4-0.7c-0.5,0-1,0.2-1.4,0.6
	c-0.4,0.4-0.6,0.9-0.6,1.5C449.5,47.3,449.6,47.8,450,48.2z M450.7,45.9c0.2-0.2,0.5-0.4,0.9-0.4s0.6,0.1,0.9,0.4
	c0.2,0.2,0.4,0.5,0.4,0.9s-0.1,0.7-0.4,0.9c-0.2,0.2-0.5,0.4-0.9,0.4s-0.7-0.1-0.9-0.4c-0.2-0.2-0.4-0.5-0.4-0.9
	C450.3,46.4,450.4,46.1,450.7,45.9z M456.6,46.6l1.1-1.8h0.9v3.9h-0.8v-2.6l-1.1,1.8h-0.1l-1.1-1.8v2.6h-0.8v-3.9h0.9L456.6,46.6z
	 M459.8,49.5h-0.4l3.1-7h0.4L459.8,49.5z M464.6,48.7v-3.1h-1.3v-0.8h3.4v0.8h-1.3v3.1H464.6z M468.1,45.4v-0.6h-0.8v5.5h0.8v-2.1
	c0.3,0.4,0.8,0.7,1.4,0.7c0.5,0,1-0.2,1.4-0.6s0.6-0.9,0.6-1.5s-0.2-1.1-0.6-1.5s-0.8-0.6-1.4-0.6C468.9,44.7,468.4,44.9,468.1,45.4
	z M469.3,45.5c0.4,0,0.6,0.1,0.9,0.4c0.2,0.2,0.4,0.5,0.4,0.9s-0.1,0.7-0.4,0.9c-0.2,0.2-0.5,0.4-0.9,0.4s-0.6-0.1-0.9-0.4
	c-0.2-0.2-0.4-0.5-0.4-0.9s0.1-0.7,0.4-0.9C468.7,45.6,469,45.5,469.3,45.5z M472,46.8c0,0.6,0.2,1.1,0.6,1.5s0.9,0.6,1.5,0.6
	c0.8,0,1.3-0.3,1.7-0.9l-0.7-0.4c-0.2,0.3-0.6,0.5-1,0.5c-0.6,0-1.1-0.3-1.3-0.9h3.1c0-0.1,0-0.3,0-0.4c0-0.6-0.2-1.1-0.6-1.5
	s-0.8-0.6-1.4-0.6s-1.1,0.2-1.5,0.6C472.1,45.7,472,46.2,472,46.8z M474,45.5c0.6,0,1,0.3,1.1,1h-2.3
	C472.9,45.8,473.4,45.5,474,45.5z M479.4,48.7v-2.5l-2,2.5h-0.6v-3.9h0.8v2.5l2-2.5h0.6v3.9H479.4z M479.6,44.3h-2.2v-0.7h2.2V44.3z
	 M481.6,44.8v1.7c0,0.6-0.1,1.1-0.4,1.4h-0.5v1.8h0.8v-1h2.7v1h0.8v-1.8h-0.5v-3.1C484.5,44.8,481.6,44.8,481.6,44.8z M483.8,47.9
	h-1.6c0.2-0.4,0.3-0.9,0.3-1.4v-0.9h1.3L483.8,47.9L483.8,47.9z M487.5,44.7c-0.6,0-1.1,0.2-1.5,0.6c-0.4,0.4-0.6,0.9-0.6,1.5
	s0.2,1.1,0.6,1.5s0.9,0.6,1.5,0.6c0.8,0,1.3-0.3,1.7-0.9l-0.7-0.4c-0.2,0.3-0.6,0.5-1,0.5c-0.6,0-1.1-0.3-1.3-0.9h3.1
	c0-0.1,0-0.3,0-0.4c0-0.6-0.2-1.1-0.6-1.5C488.6,44.9,488.1,44.7,487.5,44.7z M486.3,46.4c0.1-0.6,0.6-1,1.2-1s1,0.3,1.1,1H486.3z
	 M492.5,44.7c-0.6,0-1,0.2-1.4,0.7v-0.6h-0.8v5.5h0.8v-2.1c0.3,0.4,0.8,0.7,1.4,0.7c0.5,0,1-0.2,1.4-0.6s0.6-0.9,0.6-1.5
	s-0.2-1.1-0.6-1.5C493.5,44.9,493,44.7,492.5,44.7z M493.2,47.7c-0.2,0.2-0.5,0.4-0.9,0.4s-0.6-0.1-0.9-0.4
	c-0.2-0.2-0.4-0.5-0.4-0.9s0.1-0.7,0.4-0.9c0.2-0.2,0.5-0.4,0.9-0.4s0.6,0.1,0.9,0.4c0.2,0.2,0.4,0.5,0.4,0.9
	C493.6,47.1,493.4,47.4,493.2,47.7z M498.3,45.4c-0.3-0.4-0.8-0.7-1.4-0.7c-0.5,0-1,0.2-1.4,0.6c-0.4,0.4-0.6,0.9-0.6,1.5
	s0.2,1.1,0.6,1.5s0.8,0.6,1.4,0.6s1-0.2,1.4-0.7v0.6h0.8v-3.9h-0.8V45.4z M497.9,47.7c-0.2,0.2-0.5,0.4-0.9,0.4s-0.7-0.1-0.9-0.4
	c-0.2-0.2-0.4-0.5-0.4-0.9s0.1-0.7,0.4-0.9c0.2-0.2,0.5-0.4,0.9-0.4s0.6,0.1,0.9,0.4c0.2,0.2,0.4,0.5,0.4,0.9
	C498.3,47.1,498.2,47.4,497.9,47.7z M503.2,44.8h0.9v3.9h-0.8v-2.6l-1.1,1.8H502l-1.1-1.8v2.6h-0.8v-3.9h0.9l1.1,1.8L503.2,44.8z
	 M389.2,61.5c-1,0-1.7-0.4-2-1.3l0.8-0.4c0.2,0.6,0.6,0.9,1.2,0.9c0.7,0,1.1-0.3,1.1-0.8s-0.4-0.8-1-0.8h-0.7v-0.8h0.5
	c0.6,0,1-0.3,1-0.8s-0.3-0.8-0.9-0.8c-0.5,0-0.9,0.3-1.1,0.7l-0.8-0.4c0.4-0.8,1-1.1,1.9-1.1c0.5,0,1,0.1,1.3,0.4
	c0.3,0.3,0.5,0.7,0.5,1.1c0,0.5-0.2,0.9-0.6,1.2c0.6,0.3,0.8,0.7,0.8,1.3c0,0.5-0.2,0.9-0.5,1.2C390.2,61.3,389.8,61.5,389.2,61.5z
	 M395,60.8v0.6h0.8v-3.9H395V58c-0.3-0.4-0.8-0.7-1.4-0.7c-0.5,0-1,0.2-1.4,0.6c-0.4,0.4-0.6,0.9-0.6,1.5s0.2,1.1,0.6,1.5
	s0.8,0.6,1.4,0.6C394.2,61.5,394.6,61.2,395,60.8z M392.5,59.4c0-0.4,0.1-0.7,0.4-0.9c0.2-0.2,0.5-0.4,0.9-0.4s0.6,0.1,0.9,0.4
	c0.2,0.2,0.4,0.5,0.4,0.9s-0.1,0.7-0.4,0.9c-0.2,0.2-0.5,0.4-0.9,0.4s-0.7-0.1-0.9-0.4C392.6,60.1,392.5,59.8,392.5,59.4z
	 M397.6,57.4v1.7l1.5-1.7h1l-1.7,1.9l1.8,2h-1l-1.6-1.8v1.8h-0.8v-3.9H397.6z M401.7,60.8c0.3,0.4,0.8,0.7,1.4,0.7
	c0.5,0,1-0.2,1.4-0.6s0.6-0.9,0.6-1.5s-0.2-1.1-0.6-1.5s-0.8-0.6-1.4-0.6s-1,0.2-1.4,0.7v-0.6h-0.8v5.5h0.8V60.8z M402,58.5
	c0.2-0.2,0.5-0.4,0.9-0.4s0.6,0.1,0.9,0.4c0.2,0.2,0.4,0.5,0.4,0.9s-0.1,0.7-0.4,0.9c-0.2,0.2-0.5,0.4-0.9,0.4s-0.6-0.1-0.9-0.4
	c-0.2-0.2-0.4-0.5-0.4-0.9C401.7,59,401.8,58.7,402,58.5z M409.4,57.4h0.8v3.9h-0.8V57.4z M408.9,60.1c0-0.4-0.1-0.7-0.4-0.9
	s-0.6-0.4-1-0.4h-0.9v-1.3h-0.8v3.9h1.7c0.4,0,0.8-0.1,1-0.4C408.8,60.8,408.9,60.5,408.9,60.1z M407.5,60.6h-0.9v-1.1h0.9
	c0.3,0,0.6,0.2,0.6,0.5C408.1,60.4,407.8,60.6,407.5,60.6z M412.9,61.4H412v-3.1h-1.3v-0.8h3.4v0.8h-1.3L412.9,61.4L412.9,61.4z
	 M414.7,57.4v3.9h1.7c0.4,0,0.8-0.1,1-0.4c0.3-0.2,0.4-0.5,0.4-0.9s-0.1-0.7-0.4-0.9s-0.6-0.4-1-0.4h-0.9v-1.3
	C415.5,57.4,414.7,57.4,414.7,57.4z M416.4,59.5c0.3,0,0.6,0.2,0.6,0.5s-0.3,0.5-0.6,0.5h-0.9v-1.1L416.4,59.5L416.4,59.5z
	 M419.2,61.4h-0.8v-3.9h0.8V61.4z M424,59.4c0-0.6-0.2-1.1-0.6-1.5s-0.8-0.6-1.4-0.6s-1.1,0.2-1.5,0.6c-0.4,0.4-0.6,0.9-0.6,1.5
	s0.2,1.1,0.6,1.5s0.9,0.6,1.5,0.6c0.8,0,1.3-0.3,1.7-0.9l-0.7-0.4c-0.2,0.3-0.6,0.5-1,0.5c-0.6,0-1.1-0.3-1.3-0.9h3.1
	C424,59.6,424,59.5,424,59.4z M420.8,59.1c0.1-0.6,0.6-1,1.2-1s1,0.3,1.1,1H420.8z M429.3,61.4v-3.1h-1.8v3.1h-0.8v-3.9h3.5v3.9
	H429.3z M433,57.3c-0.6,0-1.1,0.2-1.5,0.6c-0.4,0.4-0.6,0.9-0.6,1.5s0.2,1.1,0.6,1.5s0.9,0.6,1.5,0.6s1.1-0.2,1.5-0.6
	c0.4-0.4,0.6-0.9,0.6-1.5s-0.2-1.1-0.6-1.5C434,57.5,433.6,57.3,433,57.3z M433.8,60.3c-0.2,0.2-0.5,0.4-0.9,0.4
	c-0.3,0-0.6-0.1-0.9-0.4c-0.2-0.2-0.4-0.5-0.4-0.9s0.1-0.6,0.4-0.9c0.2-0.2,0.5-0.4,0.9-0.4c0.3,0,0.6,0.1,0.9,0.4
	c0.2,0.2,0.4,0.5,0.4,0.9C434.2,59.8,434.1,60.1,433.8,60.3z M438,57.3c-0.6,0-1,0.2-1.4,0.7v-0.6h-0.8v5.5h0.8v-2.1
	c0.3,0.4,0.8,0.7,1.4,0.7c0.5,0,1-0.2,1.4-0.6s0.6-0.9,0.6-1.5s-0.2-1.1-0.6-1.5C439,57.5,438.6,57.3,438,57.3z M438.8,60.3
	c-0.2,0.2-0.5,0.4-0.9,0.4s-0.6-0.1-0.9-0.4c-0.2-0.2-0.4-0.5-0.4-0.9s0.1-0.7,0.4-0.9c0.2-0.2,0.5-0.4,0.9-0.4s0.6,0.1,0.9,0.4
	c0.2,0.2,0.4,0.5,0.4,0.9C439.1,59.8,439,60.1,438.8,60.3z M441.5,58.3h-1.3v-0.8h3.4v0.8h-1.3v3.1h-0.8L441.5,58.3L441.5,58.3z
	 M448.5,59.4c0-0.5-0.2-1-0.5-1.4c-0.4-0.4-0.8-0.6-1.4-0.7v-1.5h-0.8v1.5c-0.6,0.1-1.1,0.3-1.4,0.7c-0.4,0.4-0.5,0.8-0.5,1.4
	s0.2,1,0.5,1.4c0.4,0.4,0.8,0.6,1.4,0.7V63h0.8v-1.5c0.6-0.1,1.1-0.3,1.4-0.7C448.4,60.4,448.5,59.9,448.5,59.4z M445.7,60.6
	c-0.7-0.1-1.1-0.6-1.1-1.2c0-0.6,0.4-1.1,1.1-1.2V60.6z M446.6,60.6v-2.4c0.7,0.1,1.1,0.6,1.1,1.2S447.3,60.5,446.6,60.6z
	 M452.9,60.6l-0.7-0.4c-0.2,0.3-0.6,0.5-1,0.5c-0.6,0-1.1-0.3-1.3-0.9h3.1c0-0.1,0-0.3,0-0.4c0-0.6-0.2-1.1-0.6-1.5
	s-0.8-0.6-1.4-0.6s-1.1,0.2-1.5,0.6c-0.4,0.4-0.6,0.9-0.6,1.5s0.2,1.1,0.6,1.5s0.9,0.6,1.5,0.6C452,61.5,452.6,61.2,452.9,60.6z
	 M451.2,58.1c0.6,0,1,0.3,1.1,1H450C450.1,58.5,450.5,58.1,451.2,58.1z M453.3,60.6c0.5,0.1,0.7-0.2,0.7-0.9v-2.2h3v3.9h-0.8v-3.1
	h-1.3v1.5c0,1.2-0.6,1.7-1.6,1.6L453.3,60.6L453.3,60.6z M458.8,57.4v2.5l2-2.5h0.6v3.9h-0.8v-2.5l-2,2.5H458v-3.9H458.8z
	 M390.8,68.5h0.9V74h-0.9v-2.4h-2.3V74h-0.9v-5.5h0.9v2.2h2.3V68.5z M396.5,72.1c0-0.6-0.2-1.1-0.6-1.5s-0.8-0.6-1.4-0.6
	s-1.1,0.2-1.5,0.6s-0.6,0.9-0.6,1.5s0.2,1.1,0.6,1.5s0.9,0.6,1.5,0.6c0.8,0,1.3-0.3,1.7-0.9l-0.7-0.4c-0.2,0.3-0.6,0.5-1,0.5
	c-0.6,0-1.1-0.3-1.3-0.9h3.1C396.5,72.3,396.5,72.1,396.5,72.1z M393.4,71.7c0.1-0.6,0.6-1,1.2-1s1,0.3,1.1,1H393.4z M398,70.9h-1.3
	v-0.8h3.4v0.8h-1.3V74H398V70.9z M408.1,74h-5.5v-3.9h0.8v3.1h1.5v-3.1h0.8v3.1h1.5v-3.1h0.8V74H408.1z M411.5,74v-3.1h-1.3v1.5
	c0,1.2-0.6,1.7-1.6,1.6v-0.8c0.5,0.1,0.7-0.2,0.7-0.9v-2.2h3V74H411.5z M418.9,72c0-0.6-0.2-1.1-0.6-1.5s-0.9-0.6-1.5-0.6
	c-0.5,0-0.9,0.2-1.3,0.5s-0.6,0.7-0.7,1.2h-0.6V70h-0.8v4h0.8v-1.6h0.6c0.1,0.5,0.3,0.9,0.7,1.2c0.4,0.3,0.8,0.5,1.3,0.5
	c0.6,0,1.1-0.2,1.5-0.6S418.9,72.6,418.9,72z M417.7,72.9c-0.2,0.2-0.5,0.4-0.9,0.4s-0.6-0.1-0.9-0.4c-0.2-0.2-0.4-0.5-0.4-0.9
	s0.1-0.6,0.4-0.9c0.2-0.2,0.5-0.4,0.9-0.4s0.6,0.1,0.9,0.4c0.2,0.2,0.4,0.5,0.4,0.9S418,72.7,417.7,72.9z M421.5,72.8
	c0-0.3-0.2-0.4-0.6-0.4h-0.6v-0.7h0.4c0.3,0,0.5-0.2,0.5-0.5s-0.2-0.5-0.6-0.5s-0.7,0.2-0.8,0.5l-0.7-0.4c0.3-0.6,0.8-0.9,1.5-0.9
	c0.4,0,0.8,0.1,1,0.3c0.3,0.2,0.4,0.5,0.4,0.8c0,0.4-0.1,0.7-0.5,0.9c0.4,0.2,0.6,0.5,0.6,0.9c0,0.7-0.6,1.2-1.5,1.2
	c-0.8,0-1.3-0.3-1.6-0.9l0.7-0.4c0.1,0.4,0.4,0.6,0.9,0.6C421.3,73.3,421.5,73.1,421.5,72.8z M427,74v-3.9h-0.8v0.6
	c-0.3-0.4-0.8-0.7-1.4-0.7c-0.5,0-1,0.2-1.4,0.6s-0.6,0.9-0.6,1.5s0.2,1.1,0.6,1.5s0.8,0.6,1.4,0.6s1-0.2,1.4-0.7V74H427z
	 M425.8,72.9c-0.2,0.2-0.5,0.4-0.9,0.4s-0.7-0.1-0.9-0.4c-0.2-0.2-0.4-0.5-0.4-0.9s0.1-0.7,0.4-0.9c0.2-0.2,0.5-0.4,0.9-0.4
	s0.6,0.1,0.9,0.4c0.2,0.2,0.4,0.5,0.4,0.9C426.1,72.4,426,72.7,425.8,72.9z M432.5,75.6v-1.5c0.6-0.1,1.1-0.3,1.4-0.7
	c0.4-0.4,0.5-0.8,0.5-1.4s-0.2-1-0.5-1.4c-0.4-0.4-0.8-0.6-1.4-0.7v-1.5h-0.8V70c-0.6,0.1-1.1,0.3-1.4,0.7c-0.4,0.4-0.5,0.8-0.5,1.4
	s0.2,1,0.5,1.4c0.4,0.4,0.8,0.6,1.4,0.7v1.5L432.5,75.6L432.5,75.6z M432.5,70.8c0.7,0.1,1.1,0.6,1.1,1.2s-0.4,1.1-1.1,1.2V70.8z
	 M430.6,72c0-0.6,0.4-1.1,1.1-1.2v2.4C431,73.1,430.6,72.7,430.6,72z M437.9,74v-2.5l-2,2.5h-0.6v-3.9h0.8v2.5l2-2.5h0.6V74H437.9z
	 M440.1,73.5c0.4,0.4,0.8,0.6,1.4,0.6s1-0.2,1.4-0.7V74h0.8v-3.9h-0.8v0.6c-0.3-0.4-0.8-0.7-1.4-0.7c-0.5,0-1,0.2-1.4,0.6
	s-0.6,0.9-0.6,1.5C439.5,72.6,439.7,73.1,440.1,73.5z M440.7,71.2c0.2-0.2,0.5-0.4,0.9-0.4s0.6,0.1,0.9,0.4c0.2,0.2,0.4,0.5,0.4,0.9
	s-0.1,0.7-0.4,0.9c-0.2,0.2-0.5,0.4-0.9,0.4s-0.7-0.1-0.9-0.4c-0.2-0.2-0.4-0.5-0.4-0.9C440.3,71.7,440.5,71.4,440.7,71.2z
	 M445.5,74v-3.1h-1.3v-0.8h3.4v0.8h-1.3V74H445.5z M450.8,74v-1.6H449V74h-0.8v-3.9h0.8v1.6h1.8v-1.6h0.8V74H450.8z M455.4,73.6
	c0.3-0.2,0.4-0.5,0.4-0.9s-0.1-0.7-0.4-0.9c-0.3-0.2-0.6-0.4-1-0.4h-0.9v-1.3h-0.8V74h1.7C454.8,74,455.1,73.9,455.4,73.6z
	 M453.5,72.2h0.9c0.3,0,0.6,0.2,0.6,0.5s-0.3,0.5-0.6,0.5h-0.9V72.2z M456.3,70.1h0.8V74h-0.8V70.1z M457.7,74l1.5-2l-1.4-1.9h1
	l0.9,1.2l0.9-1.2h1l-1.4,1.9l1.5,2h-1l-1-1.3l-1,1.3H457.7z M466.8,72c0.3-0.2,0.4-0.5,0.4-0.8c0-0.6-0.5-1.1-1.3-1.1h-1.8V74h2
	c0.8,0,1.3-0.5,1.3-1.1C467.4,72.5,467.2,72.2,466.8,72z M464.9,70.8h1c0.3,0,0.5,0.1,0.5,0.4s-0.2,0.4-0.5,0.4h-1V70.8z M466,73.3
	h-1.1v-0.9h1.1c0.3,0,0.5,0.2,0.5,0.4C466.6,73.1,466.4,73.3,466,73.3z M472,74v-3.9h-0.8v0.6c-0.3-0.4-0.8-0.7-1.4-0.7
	c-0.5,0-1,0.2-1.4,0.6s-0.6,0.9-0.6,1.5s0.2,1.1,0.6,1.5s0.8,0.6,1.4,0.6s1-0.2,1.4-0.7V74H472z M470.8,72.9
	c-0.2,0.2-0.5,0.4-0.9,0.4s-0.7-0.1-0.9-0.4c-0.2-0.2-0.4-0.5-0.4-0.9s0.1-0.7,0.4-0.9c0.2-0.2,0.5-0.4,0.9-0.4s0.6,0.1,0.9,0.4
	c0.2,0.2,0.4,0.5,0.4,0.9C471.2,72.4,471.1,72.7,470.8,72.9z M475.5,74v-3.1h-1.3v1.5c0,1.2-0.6,1.7-1.6,1.6v-0.8
	c0.5,0.1,0.7-0.2,0.7-0.9v-2.2h3V74H475.5z M480.8,70c-0.5,0-0.9,0.2-1.3,0.5s-0.6,0.7-0.7,1.2h-0.6v-1.6h-0.8V74h0.8v-1.6h0.6
	c0.1,0.5,0.3,0.9,0.7,1.2c0.4,0.3,0.8,0.5,1.3,0.5c0.6,0,1.1-0.2,1.5-0.6s0.6-0.9,0.6-1.5s-0.2-1.1-0.6-1.5
	C481.9,70.2,481.4,70,480.8,70z M481.7,72.9c-0.2,0.2-0.5,0.4-0.9,0.4s-0.6-0.1-0.9-0.4c-0.2-0.2-0.4-0.5-0.4-0.9s0.1-0.6,0.4-0.9
	c0.2-0.2,0.5-0.4,0.9-0.4s0.6,0.1,0.9,0.4c0.2,0.2,0.4,0.5,0.4,0.9C482,72.4,481.9,72.7,481.7,72.9z M483,70.1h3.4v0.8h-1.3V74h-0.8
	v-3.1H483V70.1z M390.8,81.2h0.9v5.5h-0.9v-2.4h-2.3v2.4h-0.9v-5.5h0.9v2.2h2.3V81.2z M394.6,86.7c0.8,0,1.3-0.3,1.7-0.9l-0.7-0.4
	c-0.2,0.3-0.6,0.5-1,0.5c-0.6,0-1.1-0.3-1.3-0.9h3.1c0-0.1,0-0.3,0-0.4c0-0.6-0.2-1.1-0.6-1.5s-0.8-0.6-1.4-0.6s-1.1,0.2-1.5,0.6
	s-0.6,0.9-0.6,1.5s0.2,1.1,0.6,1.5C393.5,86.6,394,86.7,394.6,86.7z M394.5,83.4c0.6,0,1,0.3,1.1,1h-2.3
	C393.5,83.8,393.9,83.4,394.5,83.4z M401.1,87.7v-1.8h-0.5v-3.1h-3v1.7c0,0.6-0.1,1.1-0.4,1.4h-0.5v1.8h0.8v-1h2.7v1H401.1z
	 M399.7,85.8h-1.6c0.2-0.4,0.3-0.9,0.3-1.4v-0.9h1.3L399.7,85.8L399.7,85.8z M403.5,86.7c0.6,0,1.1-0.2,1.5-0.6s0.6-0.9,0.6-1.5
	s-0.2-1.1-0.6-1.5s-0.9-0.6-1.5-0.6s-1.1,0.2-1.5,0.6s-0.6,0.9-0.6,1.5s0.2,1.1,0.6,1.5S402.9,86.7,403.5,86.7z M402.6,83.8
	c0.2-0.2,0.5-0.4,0.9-0.4c0.3,0,0.6,0.1,0.9,0.4c0.2,0.2,0.4,0.5,0.4,0.9s-0.1,0.6-0.4,0.9c-0.2,0.2-0.5,0.4-0.9,0.4
	c-0.3,0-0.6-0.1-0.9-0.4c-0.2-0.2-0.4-0.5-0.4-0.9S402.4,84,402.6,83.8z M409.2,85.3l0.7,0.4c-0.3,0.6-1,1-1.8,1
	c-0.6,0-1.1-0.2-1.5-0.6s-0.6-0.9-0.6-1.5s0.2-1.1,0.6-1.5s0.9-0.6,1.5-0.6c0.8,0,1.4,0.4,1.7,1l-0.7,0.4c-0.2-0.4-0.6-0.6-1-0.6
	c-0.3,0-0.6,0.1-0.9,0.4c-0.2,0.2-0.3,0.5-0.3,0.9s0.1,0.6,0.3,0.9c0.2,0.2,0.5,0.4,0.9,0.4C408.6,85.9,409,85.7,409.2,85.3z
	 M411.3,83.5H410v-0.8h3.4v0.8h-1.3v3.1h-0.8L411.3,83.5L411.3,83.5z M417.8,86.6v-3.9H417v0.6c-0.3-0.4-0.8-0.7-1.4-0.7
	c-0.5,0-1,0.2-1.4,0.6s-0.6,0.9-0.6,1.5s0.2,1.1,0.6,1.5s0.8,0.6,1.4,0.6s1-0.2,1.4-0.7v0.6L417.8,86.6L417.8,86.6z M416.6,85.6
	c-0.2,0.2-0.5,0.4-0.9,0.4s-0.7-0.1-0.9-0.4c-0.2-0.2-0.4-0.5-0.4-0.9s0.1-0.7,0.4-0.9c0.2-0.2,0.5-0.4,0.9-0.4s0.6,0.1,0.9,0.4
	c0.2,0.2,0.4,0.5,0.4,0.9C417,85,416.9,85.3,416.6,85.6z M419.7,86.6v-3.1h-1.3v-0.8h3.4v0.8h-1.3v3.1H419.7z M424.1,82.6
	c-0.6,0-1.1,0.2-1.5,0.6s-0.6,0.9-0.6,1.5s0.2,1.1,0.6,1.5s0.9,0.6,1.5,0.6s1.1-0.2,1.5-0.6s0.6-0.9,0.6-1.5s-0.2-1.1-0.6-1.5
	C425.1,82.8,424.7,82.6,424.1,82.6z M424.9,85.6c-0.2,0.2-0.5,0.4-0.9,0.4c-0.3,0-0.6-0.1-0.9-0.4c-0.2-0.2-0.4-0.5-0.4-0.9
	s0.1-0.6,0.4-0.9c0.2-0.2,0.5-0.4,0.9-0.4c0.3,0,0.6,0.1,0.9,0.4c0.2,0.2,0.4,0.5,0.4,0.9C425.3,85,425.2,85.3,424.9,85.6z
	 M427.8,86.6H427v-3.9h0.8v1.7l1.5-1.7h1l-1.7,1.9l1.8,2h-1l-1.6-1.8L427.8,86.6L427.8,86.6z M435.6,84.6c0.3-0.2,0.4-0.5,0.4-0.8
	c0-0.6-0.5-1.1-1.3-1.1h-1.8v3.9h2c0.8,0,1.3-0.5,1.3-1.1C436.2,85.1,436,84.8,435.6,84.6z M433.7,83.5h1c0.3,0,0.5,0.1,0.5,0.4
	s-0.2,0.4-0.5,0.4h-1V83.5z M434.8,85.9h-1.1V85h1.1c0.3,0,0.5,0.2,0.5,0.4C435.3,85.8,435.2,85.9,434.8,85.9z M440.5,86.6v-3.9h0.8
	v3.9H440.5z M439.6,84.4c-0.3-0.2-0.6-0.4-1-0.4h-0.9v-1.3h-0.8v3.9h1.7c0.4,0,0.8-0.1,1-0.4c0.3-0.2,0.4-0.5,0.4-0.9
	C440,85,439.9,84.7,439.6,84.4z M438.6,85.9h-0.9v-1.1h0.9c0.3,0,0.6,0.2,0.6,0.5C439.2,85.7,438.9,85.9,438.6,85.9z M446.1,84.9
	c0-0.5-0.2-0.9-0.5-1.3c-0.3-0.3-0.7-0.5-1.2-0.5s-1,0.2-1.3,0.5c0.1-0.4,0.4-0.7,1.1-1l0.4-0.2l0.3-0.2c0.1-0.1,0.3-0.1,0.3-0.2
	c0.2-0.2,0.5-0.5,0.5-0.8l-0.7-0.4c-0.1,0.2-0.1,0.4-0.4,0.6c-0.1,0.1-0.2,0.1-0.3,0.2c-0.1,0-0.2,0.1-0.4,0.2
	c-0.2,0.1-0.3,0.2-0.4,0.2c-0.6,0.3-1,0.6-1.2,1s-0.3,0.9-0.3,1.5s0.2,1.1,0.6,1.5s0.9,0.6,1.5,0.6s1-0.2,1.4-0.5
	C445.9,85.9,446.1,85.4,446.1,84.9z M444.1,86c-0.3,0-0.6-0.1-0.8-0.3s-0.3-0.5-0.3-0.8s0.1-0.6,0.4-0.7c0.2-0.2,0.5-0.3,0.8-0.3
	c0.7,0,1.1,0.4,1.1,1.1C445.2,85.5,444.8,86,444.1,86z M450.6,84.7c0-0.6-0.2-1.1-0.6-1.5s-0.9-0.6-1.5-0.6s-1.1,0.2-1.5,0.6
	s-0.6,0.9-0.6,1.5s0.2,1.1,0.6,1.5s0.9,0.6,1.5,0.6s1.1-0.2,1.5-0.6C450.4,85.8,450.6,85.3,450.6,84.7z M449.4,85.6
	c-0.2,0.2-0.5,0.4-0.9,0.4c-0.3,0-0.6-0.1-0.9-0.4c-0.2-0.2-0.4-0.5-0.4-0.9s0.1-0.6,0.4-0.9c0.2-0.2,0.5-0.4,0.9-0.4
	c0.3,0,0.6,0.1,0.9,0.4c0.2,0.2,0.4,0.5,0.4,0.9C449.8,85,449.7,85.3,449.4,85.6z M455.6,84.7c0-0.6-0.2-1.1-0.6-1.5
	s-0.8-0.6-1.4-0.6s-1,0.2-1.4,0.7v-0.6h-0.8v5.5h0.8v-2.1c0.3,0.4,0.8,0.7,1.4,0.7c0.5,0,1-0.2,1.4-0.6S455.6,85.3,455.6,84.7z
	 M454.4,85.6c-0.2,0.2-0.5,0.4-0.9,0.4s-0.6-0.1-0.9-0.4c-0.2-0.2-0.4-0.5-0.4-0.9s0.1-0.7,0.4-0.9c0.2-0.2,0.5-0.4,0.9-0.4
	s0.6,0.1,0.9,0.4c0.2,0.2,0.4,0.5,0.4,0.9C454.7,85,454.6,85.3,454.4,85.6z M459.4,86.1v0.6h0.8v-3.9h-0.8v0.6
	c-0.3-0.4-0.8-0.7-1.4-0.7c-0.5,0-1,0.2-1.4,0.6s-0.6,0.9-0.6,1.5s0.2,1.1,0.6,1.5s0.8,0.6,1.4,0.6
	C458.7,86.7,459.1,86.5,459.4,86.1z M458.2,85.9c-0.4,0-0.7-0.1-0.9-0.4c-0.2-0.2-0.4-0.5-0.4-0.9s0.1-0.7,0.4-0.9
	c0.2-0.2,0.5-0.4,0.9-0.4s0.6,0.1,0.9,0.4c0.2,0.2,0.4,0.5,0.4,0.9s-0.1,0.7-0.4,0.9C458.8,85.8,458.5,85.9,458.2,85.9z M387.5,93.8
	h4v5.5h-0.9v-4.6h-2.2v4.6h-0.9V93.8z M394.8,95.3c-0.6,0-1,0.2-1.4,0.7v-0.6h-0.8v5.5h0.8v-2.1c0.3,0.4,0.8,0.7,1.4,0.7
	c0.5,0,1-0.2,1.4-0.6s0.6-0.9,0.6-1.5s-0.2-1.1-0.6-1.5S395.3,95.3,394.8,95.3z M395.6,98.2c-0.2,0.2-0.5,0.4-0.9,0.4
	s-0.6-0.1-0.9-0.4c-0.2-0.2-0.4-0.5-0.4-0.9s0.1-0.7,0.4-0.9c0.2-0.2,0.5-0.4,0.9-0.4s0.6,0.1,0.9,0.4c0.2,0.2,0.4,0.5,0.4,0.9
	C395.9,97.7,395.8,98,395.6,98.2z M399.4,95.3c-0.6,0-1.1,0.2-1.5,0.6s-0.6,0.9-0.6,1.5s0.2,1.1,0.6,1.5s0.9,0.6,1.5,0.6
	s1.1-0.2,1.5-0.6s0.6-0.9,0.6-1.5s-0.2-1.1-0.6-1.5C400.4,95.5,399.9,95.3,399.4,95.3z M400.2,98.2c-0.2,0.2-0.5,0.4-0.9,0.4
	c-0.3,0-0.6-0.1-0.9-0.4c-0.2-0.2-0.4-0.5-0.4-0.9s0.1-0.6,0.4-0.9c0.2-0.2,0.5-0.4,0.9-0.4c0.3,0,0.6,0.1,0.9,0.4
	c0.2,0.2,0.4,0.5,0.4,0.9S400.5,98,400.2,98.2z M404.3,95.8c-0.5,0-1,0.2-1.3,0.5c0.1-0.4,0.4-0.7,1.1-1l0.4-0.2l0.3-0.2
	c0.1-0.1,0.3-0.1,0.3-0.2c0.2-0.2,0.5-0.5,0.5-0.8l-0.7-0.4c-0.1,0.2-0.1,0.4-0.4,0.6c-0.1,0.1-0.2,0.1-0.3,0.2
	c-0.1,0-0.2,0.1-0.4,0.2c-0.2,0.1-0.3,0.2-0.4,0.2c-0.6,0.3-1,0.6-1.2,1s-0.3,0.9-0.3,1.5s0.2,1.1,0.6,1.5s0.9,0.6,1.5,0.6
	s1-0.2,1.4-0.5s0.5-0.8,0.5-1.3s-0.2-0.9-0.5-1.3C405.1,96,404.7,95.8,404.3,95.8z M404,98.6c-0.3,0-0.6-0.1-0.8-0.3
	c-0.2-0.2-0.3-0.5-0.3-0.8s0.1-0.6,0.4-0.7c0.2-0.2,0.5-0.3,0.8-0.3c0.7,0,1.1,0.4,1.1,1.1C405.1,98.2,404.7,98.6,404,98.6z
	 M406.8,95.4h3v3.9H409v-3.1h-1.3v1.5c0,1.2-0.6,1.7-1.6,1.6v-0.8c0.5,0.1,0.7-0.2,0.7-0.9L406.8,95.4L406.8,95.4z M412.7,95.3
	c-0.6,0-1.1,0.2-1.5,0.6s-0.6,0.9-0.6,1.5s0.2,1.1,0.6,1.5s0.9,0.6,1.5,0.6c0.8,0,1.3-0.3,1.7-0.9l-0.7-0.4c-0.2,0.3-0.6,0.5-1,0.5
	c-0.6,0-1.1-0.3-1.3-0.9h3.1c0-0.1,0-0.3,0-0.4c0-0.6-0.2-1.1-0.6-1.5C413.7,95.5,413.2,95.3,412.7,95.3z M411.5,97
	c0.1-0.6,0.6-1,1.2-1s1,0.3,1.1,1H411.5z M418.5,95.4h0.9v3.9h-0.8v-2.6l-1.1,1.8h-0.1l-1.1-1.8v2.6h-0.8v-3.9h0.9l1.1,1.8
	L418.5,95.4z M422,96.7h-0.9v-1.3h-0.8v3.9h1.7c0.4,0,0.8-0.1,1-0.4c0.3-0.2,0.4-0.5,0.4-0.9s-0.1-0.7-0.4-0.9
	C422.8,96.8,422.4,96.7,422,96.7z M422,98.5h-0.9v-1.1h0.9c0.3,0,0.6,0.2,0.6,0.5C422.6,98.3,422.4,98.5,422,98.5z M423.9,95.4h0.8
	v3.9h-0.8V95.4z M429.8,95.8c-0.5,0-1,0.2-1.3,0.5c0.1-0.4,0.4-0.7,1.1-1l0.4-0.2l0.3-0.2c0.1-0.1,0.3-0.1,0.3-0.2
	c0.2-0.2,0.5-0.5,0.5-0.8l-0.7-0.4c-0.1,0.2-0.1,0.4-0.4,0.6c-0.1,0.1-0.2,0.1-0.3,0.2c-0.1,0-0.2,0.1-0.4,0.2
	c-0.2,0.1-0.3,0.2-0.4,0.2c-0.6,0.3-1,0.6-1.2,1s-0.3,0.9-0.3,1.5s0.2,1.1,0.6,1.5s0.9,0.6,1.5,0.6s1-0.2,1.4-0.5s0.5-0.8,0.5-1.3
	s-0.2-0.9-0.5-1.3C430.6,96,430.2,95.8,429.8,95.8z M429.5,98.6c-0.3,0-0.6-0.1-0.8-0.3c-0.2-0.2-0.3-0.5-0.3-0.8s0.1-0.6,0.4-0.7
	c0.2-0.2,0.5-0.3,0.8-0.3c0.7,0,1.1,0.4,1.1,1.1C430.6,98.2,430.2,98.6,429.5,98.6z M434,95.3c-0.6,0-1.1,0.2-1.5,0.6
	s-0.6,0.9-0.6,1.5s0.2,1.1,0.6,1.5s0.9,0.6,1.5,0.6c0.8,0,1.3-0.3,1.7-0.9l-0.7-0.4c-0.2,0.3-0.6,0.5-1,0.5c-0.6,0-1.1-0.3-1.3-0.9
	h3.1c0-0.1,0-0.3,0-0.4c0-0.6-0.2-1.1-0.6-1.5C435,95.5,434.6,95.3,434,95.3z M432.8,97c0.1-0.6,0.6-1,1.2-1s1,0.3,1.1,1H432.8z
	 M439.4,98.2c0,0.7-0.6,1.2-1.5,1.2c-0.8,0-1.3-0.3-1.6-0.9L437,98c0.1,0.4,0.4,0.6,0.9,0.6c0.4,0,0.7-0.2,0.7-0.5s-0.2-0.4-0.6-0.4
	h-0.6V97h0.4c0.3,0,0.5-0.2,0.5-0.5s-0.2-0.5-0.6-0.5s-0.7,0.2-0.8,0.5l-0.7-0.4c0.3-0.6,0.8-0.9,1.5-0.9c0.4,0,0.8,0.1,1,0.3
	c0.3,0.2,0.4,0.5,0.4,0.8c0,0.4-0.1,0.7-0.5,0.9C439.2,97.5,439.4,97.8,439.4,98.2z M442,95.3c-0.6,0-1.1,0.2-1.5,0.6
	s-0.6,0.9-0.6,1.5s0.2,1.1,0.6,1.5s0.9,0.6,1.5,0.6s1.1-0.2,1.5-0.6s0.6-0.9,0.6-1.5s-0.2-1.1-0.6-1.5C443,95.5,442.6,95.3,442,95.3
	z M442.9,98.2c-0.2,0.2-0.5,0.4-0.9,0.4c-0.3,0-0.6-0.1-0.9-0.4c-0.2-0.2-0.4-0.5-0.4-0.9s0.1-0.6,0.4-0.9c0.2-0.2,0.5-0.4,0.9-0.4
	c0.3,0,0.6,0.1,0.9,0.4c0.2,0.2,0.4,0.5,0.4,0.9C443.2,97.7,443.1,98,442.9,98.2z M444.8,95.4h3.5v3.9h-0.8v-3.1h-1.8v3.1h-0.8v-3.9
	H444.8z M452.4,95.9c-0.3-0.4-0.8-0.7-1.4-0.7c-0.5,0-1,0.2-1.4,0.6s-0.6,0.9-0.6,1.5s0.2,1.1,0.6,1.5s0.8,0.6,1.4,0.6
	s1-0.2,1.4-0.7v0.6h0.8v-3.9h-0.8V95.9z M452,98.2c-0.2,0.2-0.5,0.4-0.9,0.4s-0.7-0.1-0.9-0.4c-0.2-0.2-0.4-0.5-0.4-0.9
	s0.1-0.7,0.4-0.9c0.2-0.2,0.5-0.4,0.9-0.4s0.6,0.1,0.9,0.4c0.2,0.2,0.4,0.5,0.4,0.9S452.3,98,452,98.2z M457.1,98l0.7,0.4
	c-0.3,0.6-1,1-1.8,1c-0.6,0-1.1-0.2-1.5-0.6s-0.6-0.9-0.6-1.5s0.2-1.1,0.6-1.5s0.9-0.6,1.5-0.6c0.8,0,1.4,0.4,1.7,1l-0.7,0.4
	c-0.2-0.4-0.6-0.6-1-0.6c-0.3,0-0.6,0.1-0.9,0.4c-0.2,0.2-0.3,0.5-0.3,0.9s0.1,0.6,0.3,0.9c0.2,0.2,0.5,0.4,0.9,0.4
	C456.5,98.6,456.9,98.3,457.1,98z M461.1,95.4h0.8v3.9h-0.8v-1.6h-1.8v1.6h-0.8v-3.9h0.8V97h1.8V95.4z M464.8,95.3
	c-0.6,0-1.1,0.2-1.5,0.6s-0.6,0.9-0.6,1.5s0.2,1.1,0.6,1.5s0.9,0.6,1.5,0.6s1.1-0.2,1.5-0.6s0.6-0.9,0.6-1.5s-0.2-1.1-0.6-1.5
	C465.8,95.5,465.3,95.3,464.8,95.3z M465.6,98.2c-0.2,0.2-0.5,0.4-0.9,0.4c-0.3,0-0.6-0.1-0.9-0.4c-0.2-0.2-0.4-0.5-0.4-0.9
	s0.1-0.6,0.4-0.9c0.2-0.2,0.5-0.4,0.9-0.4c0.3,0,0.6,0.1,0.9,0.4c0.2,0.2,0.4,0.5,0.4,0.9S465.9,98,465.6,98.2z M470.5,98l0.7,0.4
	c-0.3,0.6-1,1-1.8,1c-0.6,0-1.1-0.2-1.5-0.6s-0.6-0.9-0.6-1.5s0.2-1.1,0.6-1.5s0.9-0.6,1.5-0.6c0.8,0,1.4,0.4,1.7,1l-0.7,0.4
	c-0.2-0.4-0.6-0.6-1-0.6c-0.3,0-0.6,0.1-0.9,0.4c-0.2,0.2-0.3,0.5-0.3,0.9s0.1,0.6,0.3,0.9c0.2,0.2,0.5,0.4,0.9,0.4
	C469.9,98.6,470.3,98.3,470.5,98z M471.4,95.4h3.4v0.8h-1.3v3.1h-0.8v-3.1h-1.3L471.4,95.4L471.4,95.4z M478.2,95.4h0.6v3.9H478
	v-2.5l-2,2.5h-0.6v-3.9h0.8v2.5L478.2,95.4z"/>
<path class="st6" d="M263.3,73.4l-3.5,6l-3.5-6h2.5V5.9h-2V0h5.9v5.9h-2v67.4L263.3,73.4L263.3,73.4z"/>
<path class="st7" d="M257.7,187.6"/>
</svg>
