<?xml version="1.0" encoding="utf-8"?>
<!-- Generator: Adobe Illustrator 21.1.0, SVG Export Plug-In . SVG Version: 6.00 Build 0)  -->
<svg version="1.1" id="Layer_4" xmlns="http://www.w3.org/2000/svg" xmlns:xlink="http://www.w3.org/1999/xlink" x="0px" y="0px"
	 viewBox="0 0 214.3 204.9" style="enable-background:new 0 0 214.3 204.9;" xml:space="preserve">
<style type="text/css">
	.st0{fill:#FFFFFF;}
	.st1{fill:#25258D;}
	.st2{fill:#ABB4BB;}
	.st3{fill:#464F56;}
</style>
<path class="st0" d="M210.5,203.9H13.2c-1.6,0-2.8-1.3-2.8-2.8v-99.5c0-1.6,1.3-2.8,2.8-2.8h197.4c1.6,0,2.8,1.3,2.8,2.8v99.5
	C213.3,202.7,212.1,203.9,210.5,203.9z"/>
<path class="st1" d="M210.5,204.9H13.2c-2.1,0-3.8-1.7-3.8-3.8v-99.5c0-2.1,1.7-3.8,3.8-3.8h197.3c2.1,0,3.8,1.7,3.8,3.8v99.5
	C214.3,203.2,212.6,204.9,210.5,204.9z M13.2,99.8c-1,0-1.8,0.8-1.8,1.8v99.5c0,1,0.8,1.8,1.8,1.8h197.3c1,0,1.8-0.8,1.8-1.8v-99.5
	c0-1-0.8-1.8-1.8-1.8H13.2z"/>
<path class="st0" d="M205.9,199.3H8.6c-1.6,0-2.8-1.3-2.8-2.8V96.9c0-1.6,1.3-2.8,2.8-2.8h197.4c1.6,0,2.8,1.3,2.8,2.8v99.5
	C208.7,198,207.5,199.3,205.9,199.3z"/>
<path class="st1" d="M205.9,200.3H8.6c-2.1,0-3.8-1.7-3.8-3.8V96.9c0-2.1,1.7-3.8,3.8-3.8h197.3c2.1,0,3.8,1.7,3.8,3.8v99.5
	C209.7,198.6,208,200.3,205.9,200.3z M8.6,95.1c-1,0-1.8,0.8-1.8,1.8v99.5c0,1,0.8,1.8,1.8,1.8h197.3c1,0,1.8-0.8,1.8-1.8V96.9
	c0-1-0.8-1.8-1.8-1.8H8.6z"/>
<path class="st1" d="M201.2,88.4H3.8c-2.1,0-3.8,1.7-3.8,3.8v99.5c0,2.1,1.7,3.8,3.8,3.8h197.3c2.1,0,3.8-1.7,3.8-3.8V92.3
	C205,90.2,203.3,88.4,201.2,88.4z"/>
<path class="st2" d="M58.2,79.5h2.5l-3.5,6l-3.5-6h2.5V61.8c0-0.6,0.4-1,1-1s1,0.4,1,1V79.5z M169.6,79.5V61.8c0-0.6-0.4-1-1-1
	s-1,0.4-1,1v17.8h-2.5l3.5,6l3.5-6H169.6z"/>
<path class="st0" d="M101.2,58.4H13.2c-1.6,0-2.8-1.3-2.8-2.8V13.2c0-1.6,1.3-2.8,2.8-2.8h88.1c1.6,0,2.8,1.3,2.8,2.8v42.4
	C104.1,57.2,102.8,58.4,101.2,58.4z"/>
<path class="st3" d="M101.2,59.4H13.2c-2.1,0-3.8-1.7-3.8-3.8V13.2c0-2.1,1.7-3.8,3.8-3.8h88.1c2.1,0,3.8,1.7,3.8,3.8v42.4
	C105.1,57.7,103.4,59.4,101.2,59.4z M13.2,11.3c-1,0-1.8,0.8-1.8,1.8v42.4c0,1,0.8,1.8,1.8,1.8h88.1c1,0,1.8-0.8,1.8-1.8V13.2
	c0-1-0.8-1.8-1.8-1.8H13.2z"/>
<path class="st0" d="M96.6,53.8H8.6c-1.6,0-2.8-1.3-2.8-2.8V8.5c0-1.6,1.3-2.8,2.8-2.8h88.1c1.6,0,2.8,1.3,2.8,2.8v42.4
	C99.5,52.5,98.2,53.8,96.6,53.8z"/>
<path class="st3" d="M96.7,54.8H8.6c-2.1,0-3.8-1.7-3.8-3.8V8.5c0-2.1,1.7-3.8,3.8-3.8h88.1c2.1,0,3.8,1.7,3.8,3.8v42.4
	C100.5,53,98.8,54.8,96.7,54.8z M8.6,6.7c-1,0-1.8,0.8-1.8,1.8v42.4c0,1,0.8,1.8,1.8,1.8h88.1c1,0,1.8-0.8,1.8-1.8V8.5
	c0-1-0.8-1.8-1.8-1.8H8.6z"/>
<path class="st0" d="M91.9,49.1H3.8c-1.6,0-2.8-1.3-2.8-2.8V3.8C1,2.3,2.3,1,3.8,1h88.1c1.6,0,2.8,1.3,2.8,2.8v42.4
	C94.8,47.8,93.5,49.1,91.9,49.1z"/>
<path class="st3" d="M91.9,50.1H3.8c-2.1,0-3.8-1.7-3.8-3.8V3.8C0,1.7,1.7,0,3.8,0h88.1c2.1,0,3.8,1.7,3.8,3.8v42.4
	C95.8,48.4,94,50.1,91.9,50.1z M3.8,2C2.8,2,2,2.8,2,3.8v42.4c0,1,0.8,1.8,1.8,1.8h88.1c1,0,1.8-0.8,1.8-1.8V3.8
	c0-1-0.8-1.8-1.8-1.8H3.8z"/>
<path class="st0" d="M210.5,58.4h-83.9c-1.6,0-2.8-1.3-2.8-2.8V13.2c0-1.6,1.3-2.8,2.8-2.8h83.9c1.6,0,2.8,1.3,2.8,2.8v42.4
	C213.3,57.2,212.1,58.4,210.5,58.4z"/>
<path class="st3" d="M210.5,59.4h-83.9c-2.1,0-3.8-1.7-3.8-3.8V13.2c0-2.1,1.7-3.8,3.8-3.8h83.9c2.1,0,3.8,1.7,3.8,3.8v42.4
	C214.3,57.7,212.6,59.4,210.5,59.4z M126.6,11.3c-1,0-1.8,0.8-1.8,1.8v42.4c0,1,0.8,1.8,1.8,1.8h83.9c1,0,1.8-0.8,1.8-1.8V13.2
	c0-1-0.8-1.8-1.8-1.8H126.6z"/>
<path class="st0" d="M206.2,53.8h-83.9c-1.6,0-2.8-1.3-2.8-2.8V8.5c0-1.6,1.3-2.8,2.8-2.8h83.9c1.6,0,2.8,1.3,2.8,2.8v42.4
	C209,52.5,207.7,53.8,206.2,53.8z"/>
<path class="st3" d="M206.2,54.8h-83.9c-2.1,0-3.8-1.7-3.8-3.8V8.5c0-2.1,1.7-3.8,3.8-3.8h83.9c2.1,0,3.8,1.7,3.8,3.8v42.4
	C210,53,208.3,54.8,206.2,54.8z M122.3,6.7c-1,0-1.8,0.8-1.8,1.8v42.4c0,1,0.8,1.8,1.8,1.8h83.9c1,0,1.8-0.8,1.8-1.8V8.5
	c0-1-0.8-1.8-1.8-1.8H122.3z"/>
<path class="st0" d="M201.7,49.1h-83.9c-1.6,0-2.8-1.3-2.8-2.8V3.8c0-1.6,1.3-2.8,2.8-2.8h83.9c1.6,0,2.8,1.3,2.8,2.8v42.4
	C204.5,47.8,203.2,49.1,201.7,49.1z"/>
<path class="st3" d="M201.7,50.1h-83.9c-2.1,0-3.8-1.7-3.8-3.8V3.8c0-2.1,1.7-3.8,3.8-3.8h83.9c2.1,0,3.8,1.7,3.8,3.8v42.4
	C205.5,48.4,203.8,50.1,201.7,50.1z M117.8,2c-1,0-1.8,0.8-1.8,1.8v42.4c0,1,0.8,1.8,1.8,1.8h83.9c1,0,1.8-0.8,1.8-1.8V3.8
	c0-1-0.8-1.8-1.8-1.8H117.8z"/>
<path class="st3" d="M37.3,16.5v-0.7h-1.4v0.7c-1.7,0.2-2.8,1.2-2.8,2.6c0,1.4,1.1,2.4,2.8,2.6v0.7h1.4v-0.7
	c1.7-0.2,2.8-1.2,2.8-2.6C40.1,17.7,39,16.7,37.3,16.5z M35.9,20.4c-0.9-0.1-1.4-0.5-1.4-1.3c0-0.7,0.5-1.1,1.4-1.3V20.4z
	 M37.3,20.4v-2.5c0.9,0.1,1.4,0.5,1.4,1.3C38.7,19.8,38.2,20.3,37.3,20.4z M42.9,17.6c-1.3,0-2.4,1-2.4,2.4c0,1.3,1.1,2.4,2.4,2.4
	s2.4-1,2.4-2.4C45.3,18.7,44.3,17.6,42.9,17.6z M42.9,21.1c-0.6,0-1-0.4-1-1.1c0-0.6,0.5-1.1,1-1.1s1,0.4,1,1.1
	C44,20.7,43.5,21.1,42.9,21.1z M49,17.8h1.4v4.5H49v-1.6h-1.5v1.6h-1.4v-4.5h1.4v1.6H49V17.8z M52.2,22.3h2.5v1.2H56V21h-0.6v-3.2
	h-3.6v1.7c0,0.8-0.1,1.2-0.4,1.6h-0.6v2.5h1.3V22.3z M53.1,19.4V19h1v2h-1.3C53.1,20.6,53.1,20.1,53.1,19.4z M62.4,22.3H61v-4.5h1.4
	V22.3z M58.8,19.1h-0.8v-1.3h-1.4v4.5h2.1c1.1,0,1.8-0.6,1.8-1.6S59.9,19.1,58.8,19.1z M58.8,21.1h-0.8v-0.8h0.8
	c0.3,0,0.4,0.2,0.4,0.4C59.3,20.9,59.1,21.1,58.8,21.1z M26.4,28.6h1v4.5h-1.3v-2.3l-1.9,2.3h-1v-4.5h1.3v2.2L26.4,28.6z M30.2,28.6
	h4.1v1.3h-1.3v3.2h-1.4v-3.2h-1.4V28.6z M37.5,28.4c-0.6,0-1,0.2-1.3,0.5v-0.4h-1.4v6.3h1.4v-2.2c0.3,0.3,0.7,0.5,1.3,0.5
	c1.2,0,2.2-1,2.2-2.4C39.7,29.5,38.7,28.4,37.5,28.4z M37.3,31.9c-0.6,0-1.1-0.4-1.1-1.1c0-0.7,0.5-1.1,1.1-1.1s1.1,0.4,1.1,1.1
	C38.3,31.5,37.9,31.9,37.3,31.9z M42.6,28.4c-1.4,0-2.4,1-2.4,2.4c0,1.3,1,2.4,2.5,2.4c0.9,0,1.5-0.3,2-0.9l-1.1-0.6
	c-0.2,0.2-0.5,0.3-0.9,0.3c-0.5,0-0.9-0.2-1.1-0.6h3.2c0-0.2,0.1-0.4,0.1-0.5C44.9,29.5,43.9,28.4,42.6,28.4z M41.6,30.3
	c0.1-0.5,0.5-0.7,1-0.7c0.4,0,0.8,0.2,1,0.7H41.6z M49.1,28h-2.7v-1.2h2.7V28z M48.9,28.6h1v4.5h-1.3v-2.3l-1.9,2.3h-1v-4.5H47v2.2
	L48.9,28.6z M55,28.6h-3.6v1.7c0,0.8-0.1,1.2-0.4,1.6h-0.6v2.5h1.3v-1.2h2.5v1.2h1.3v-2.5H55V28.6z M53.7,31.8h-1.3
	c0.2-0.4,0.3-0.9,0.3-1.6v-0.5h1V31.8z M58.3,28.4c-1.4,0-2.4,1-2.4,2.4c0,1.3,1,2.4,2.5,2.4c0.9,0,1.5-0.3,2-0.9l-1.1-0.6
	c-0.2,0.2-0.5,0.3-0.9,0.3c-0.5,0-0.9-0.2-1.1-0.6h3.2c0-0.2,0.1-0.4,0.1-0.5C60.6,29.5,59.6,28.4,58.3,28.4z M57.3,30.3
	c0.1-0.5,0.5-0.7,1-0.7c0.4,0,0.8,0.2,1,0.7H57.3z M64,28.4c-0.6,0-1,0.2-1.3,0.5v-0.4h-1.4v6.3h1.4v-2.2c0.3,0.3,0.7,0.5,1.3,0.5
	c1.2,0,2.2-1,2.2-2.4C66.2,29.5,65.2,28.4,64,28.4z M63.8,31.9c-0.6,0-1.1-0.4-1.1-1.1c0-0.7,0.5-1.1,1.1-1.1s1.1,0.4,1.1,1.1
	C64.8,31.5,64.4,31.9,63.8,31.9z M71.3,28.6h1.4v4.5h-1.4V28.6z M69.1,29.9h-0.8v-1.3h-1.4v4.5h2.1c1.1,0,1.8-0.6,1.8-1.6
	S70.1,29.9,69.1,29.9z M69.1,31.9h-0.8v-0.8h0.8c0.3,0,0.4,0.2,0.4,0.4C69.5,31.7,69.3,31.9,69.1,31.9z M140.4,21.4h1.1v6.3h-1.4
	v-3.4l-2.4,3.4h-1.1v-6.3h1.4v3.4L140.4,21.4z M145.4,23.2h1.4v4.5h-1.4V26h-1.5v1.6h-1.4v-4.5h1.4v1.6h1.5V23.2z M151.1,25.4
	c0.3-0.2,0.4-0.5,0.4-0.9c0-0.7-0.5-1.3-1.5-1.3h-2.3v4.5h2.4c1,0,1.5-0.5,1.5-1.3C151.7,25.9,151.5,25.6,151.1,25.4z M149,24.2h0.8
	c0.2,0,0.4,0.1,0.4,0.3c0,0.2-0.2,0.3-0.4,0.3H149V24.2z M150,26.5h-1v-0.6h1c0.2,0,0.4,0.1,0.4,0.3C150.4,26.4,150.3,26.5,150,26.5
	z M154.6,23c-1.4,0-2.4,1-2.4,2.4c0,1.3,1,2.4,2.5,2.4c0.9,0,1.5-0.3,2-0.9l-1.1-0.6c-0.2,0.2-0.5,0.3-0.9,0.3
	c-0.5,0-0.9-0.2-1.1-0.6h3.2c0-0.2,0.1-0.4,0.1-0.5C156.9,24.1,155.9,23,154.6,23z M153.6,24.9c0.1-0.5,0.5-0.7,1-0.7
	c0.4,0,0.8,0.2,1,0.7H153.6z M158.7,25.4c0,0.6,0.4,1,1,1c0.4,0,0.7-0.2,0.9-0.5l1.2,0.7c-0.4,0.7-1.2,1.2-2,1.2
	c-1.4,0-2.4-1-2.4-2.4c0-1.3,1-2.4,2.4-2.4c0.9,0,1.6,0.5,2,1.2l-1.2,0.7c-0.2-0.3-0.5-0.5-0.9-0.5
	C159.1,24.4,158.7,24.8,158.7,25.4z M161.9,23.2h4.1v1.3h-1.3v3.2h-1.4v-3.2h-1.4V23.2z M168.5,23c-1.3,0-2.4,1-2.4,2.4
	c0,1.3,1.1,2.4,2.4,2.4c1.3,0,2.4-1,2.4-2.4C170.9,24.1,169.9,23,168.5,23z M168.5,26.5c-0.6,0-1-0.4-1-1.1c0-0.6,0.5-1.1,1-1.1
	c0.6,0,1,0.4,1,1.1C169.6,26.1,169.1,26.5,168.5,26.5z M174.4,23c-0.6,0-1,0.2-1.3,0.5v-0.4h-1.4v6.3h1.4v-2.2
	c0.3,0.3,0.7,0.5,1.3,0.5c1.2,0,2.2-1,2.2-2.4C176.5,24.1,175.6,23,174.4,23z M174.1,26.5c-0.6,0-1.1-0.4-1.1-1.1
	c0-0.7,0.5-1.1,1.1-1.1s1.1,0.4,1.1,1.1C175.2,26.1,174.7,26.5,174.1,26.5z M183,23.2v4.5h-1.4v-4.5H183z M179.4,24.5h-0.8v-1.3
	h-1.4v4.5h2.1c1.1,0,1.8-0.6,1.8-1.6S180.5,24.5,179.4,24.5z M179.4,26.5h-0.8v-0.8h0.8c0.3,0,0.4,0.2,0.4,0.4
	C179.9,26.3,179.7,26.5,179.4,26.5z"/>
<path class="st0" d="M15.2,109.9h-1.6V103h1.6v3l2.1-3h1.8l-2.3,3.3l2.4,3.5h-1.8l-2.2-3.2V109.9z M21.5,109.9H23v-2.6l2.3-4.2h-1.8
	l-1.3,2.6L21,103h-1.8l2.3,4.2V109.9z M28.7,110c1.2,0,2.3-0.6,2.9-1.6l-1.3-0.8c-0.3,0.5-0.9,0.8-1.6,0.8c-1.2,0-2-0.8-2-2
	s0.8-2,2-2c0.7,0,1.3,0.3,1.6,0.8l1.3-0.8c-0.6-1-1.7-1.6-2.9-1.6c-2.1,0-3.5,1.5-3.5,3.5C25.1,108.5,26.6,110,28.7,110z
	 M15.2,123.9h-1.6V117h2.6c1.3,0,2.4,1,2.4,2.3s-1,2.3-2.4,2.3h-1V123.9z M15.2,120.3h1c0.5,0,0.8-0.4,0.8-0.9s-0.4-0.9-0.8-0.9h-1
	V120.3z M23.8,122h-3.5c0.2,0.5,0.6,0.7,1.2,0.7c0.4,0,0.7-0.2,0.9-0.4l1.2,0.7c-0.5,0.7-1.2,1-2.1,1c-1.7,0-2.7-1.1-2.7-2.6
	s1.1-2.6,2.6-2.6c1.4,0,2.5,1.1,2.5,2.6C23.9,121.6,23.9,121.8,23.8,122z M22.5,120.9c-0.2-0.6-0.6-0.8-1-0.8
	c-0.6,0-0.9,0.3-1.1,0.8H22.5z M28.5,117.1h-2.9v1.3h2.9V117.1z M24.7,123.9h1.1l2.1-2.4v2.4h1.4V119h-1.1l-2.1,2.4V119h-1.4V123.9z
	 M30,120.4h1.5v3.5h1.5v-3.5h1.5V119H30V120.4z M38.1,121.4v2.4h1.4V119h-1.1l-2.1,2.4V119H35v4.9h1.1L38.1,121.4z M42.1,122.1h1.7
	v1.8h1.5V119h-1.5v1.8h-1.7V119h-1.5v4.9h1.5V122.1z M47.8,120.4h1.9V119h-3.4v4.9h1.5V120.4z M53.5,121.4v2.4h1.4V119h-1.1
	l-2.1,2.4V119h-1.4v4.9h1.1L53.5,121.4z M15.2,132.5h2v5.3h1.6V131h-5.2v6.8h1.6V132.5z M22.9,138c-0.7,0-1.1-0.2-1.5-0.6v2.4h-1.5
	V133h1.5v0.5c0.3-0.4,0.8-0.6,1.5-0.6c1.3,0,2.3,1.1,2.3,2.6S24.1,138,22.9,138z M23.7,135.4c0-0.7-0.5-1.2-1.2-1.2
	s-1.2,0.5-1.2,1.2s0.5,1.2,1.2,1.2S23.7,136.2,23.7,135.4z M28.4,138c-1.4,0-2.6-1.1-2.6-2.6s1.2-2.6,2.6-2.6c1.4,0,2.6,1.1,2.6,2.6
	S29.8,138,28.4,138z M29.5,135.4c0-0.7-0.5-1.2-1.1-1.2s-1.1,0.5-1.1,1.2s0.5,1.2,1.1,1.2S29.5,136.1,29.5,135.4z M33.9,139.8v-1.9
	c-1.5-0.2-2.4-1.2-2.4-2.5s0.9-2.3,2.4-2.5V131h1.4v1.9c1.5,0.2,2.4,1.2,2.4,2.5s-0.9,2.3-2.4,2.5v1.9H33.9z M35.3,136.5
	c0.6-0.2,0.9-0.6,0.9-1.1s-0.3-0.9-0.9-1.1V136.5z M33.9,136.5v-2.2c-0.6,0.2-0.9,0.6-0.9,1.1S33.3,136.4,33.9,136.5z M38,137.1
	c0,0.5,0.4,0.9,0.9,0.9c0.5,0,0.9-0.4,0.9-0.9s-0.4-0.9-0.9-0.9C38.5,136.1,38,136.6,38,137.1z M48.5,137.9V131h-5.2v6.8h1.6v-5.3h2
	v5.3H48.5z M52.9,130.9c2,0,3.5,1.5,3.5,3.5c0,2-1.6,3.5-3.5,3.5s-3.5-1.5-3.5-3.5C49.4,132.4,51,130.9,52.9,130.9z M52.9,132.4
	c-1.1,0-2,0.8-2,2c0,1.2,0.9,2,2,2s2-0.8,2-2C54.9,133.2,54.1,132.4,52.9,132.4z M14.9,151.9h1.6v-5.3h1.8V145h-5.1v1.5h1.8V151.9z
	 M20.3,146.8c1.4,0,2.6,1.1,2.6,2.6s-1.2,2.6-2.6,2.6c-1.4,0-2.6-1.1-2.6-2.6S18.9,146.8,20.3,146.8z M19.2,149.4
	c0,0.7,0.5,1.2,1.1,1.2s1.1-0.5,1.1-1.2s-0.5-1.2-1.1-1.2S19.2,148.7,19.2,149.4z M25.2,149.7l1.6,2.2h1.7l-1.8-2.4l1.8-2.4h-1.7
	l-1.5,2.1V147h-1.5v4.9h1.5V149.7z M33.3,151c-0.5,0.7-1.2,1-2.1,1c-1.7,0-2.7-1.1-2.7-2.6s1.1-2.6,2.6-2.6c1.4,0,2.5,1.1,2.5,2.6
	c0,0.2,0,0.4-0.1,0.6H30c0.2,0.5,0.6,0.7,1.2,0.7c0.4,0,0.7-0.2,0.9-0.4L33.3,151z M30,148.9h2.1c-0.2-0.6-0.6-0.8-1-0.8
	C30.5,148.1,30.1,148.4,30,148.9z M38.9,151.9V147h-1.5v1.8h-1.7V147h-1.5v4.9h1.5v-1.8h1.7v1.8H38.9z M43.2,149.4v2.4h1.4V147h-1.1
	l-2.1,2.4V147H40v4.9h1.1L43.2,149.4z M49.3,150.5c0-0.5-0.3-0.9-0.7-1.2c0.4-0.2,0.5-0.6,0.5-1.1c0-0.8-0.7-1.5-1.9-1.5
	c-0.8,0-1.5,0.4-2,1.1l1.2,0.7c0.2-0.4,0.4-0.6,0.8-0.6c0.3,0,0.5,0.1,0.5,0.4c0,0.2-0.1,0.3-0.5,0.3h-0.5v1.2h0.7
	c0.3,0,0.5,0.1,0.5,0.3c0,0.2-0.2,0.4-0.6,0.4c-0.4,0-0.8-0.2-0.9-0.6l-1.2,0.7c0.4,0.8,1.1,1.2,2,1.2
	C48.6,152,49.3,151.3,49.3,150.5z M53.6,151.9v-0.5c-0.3,0.4-0.8,0.6-1.5,0.6c-1.3,0-2.3-1.1-2.3-2.6s1.1-2.6,2.3-2.6
	c0.7,0,1.1,0.2,1.5,0.6V147h1.5v4.9H53.6z M53.6,149.4c0-0.7-0.5-1.2-1.2-1.2s-1.2,0.5-1.2,1.2s0.5,1.2,1.2,1.2
	S53.6,150.2,53.6,149.4z M56.1,147v4.9h3.8v1.3h1.4v-2.7h-0.8V147h-1.5v3.5h-1.5V147H56.1z M65.3,149.4v2.4h1.4V147h-1.1l-2.1,2.4
	V147h-1.4v4.9h1.1L65.3,149.4z M67.4,151.9l1.1-1.6c-0.6-0.3-0.9-0.9-0.9-1.5c0-0.9,0.6-1.7,1.8-1.7h2.4v4.9h-1.4v-1.4h-0.3l-1,1.4
	H67.4z M69,148.8c0,0.3,0.2,0.5,0.5,0.5h0.8v-1h-0.8C69.2,148.3,69,148.5,69,148.8z M16.9,166c1.2,0,2.3-0.6,2.9-1.6l-1.3-0.8
	c-0.3,0.5-0.9,0.8-1.6,0.8c-1.2,0-2-0.8-2-2c0-1.2,0.8-2,2-2c0.7,0,1.3,0.3,1.6,0.8l1.3-0.8c-0.6-1-1.7-1.6-2.9-1.6
	c-2.1,0-3.5,1.5-3.5,3.5C13.4,164.5,14.9,166,16.9,166z M24.4,165.9h1.4V161h-1.4l-1.2,1.8L22,161h-1.4v4.9H22v-2.5l1.1,1.7h0.2
	l1.1-1.7V165.9z M30.4,161h1.5v4.9h-1.5v-0.5c-0.3,0.4-0.8,0.6-1.5,0.6c-1.3,0-2.3-1.1-2.3-2.6s1.1-2.6,2.3-2.6
	c0.7,0,1.1,0.2,1.5,0.6V161z M30.4,163.4c0-0.7-0.5-1.2-1.2-1.2s-1.2,0.5-1.2,1.2s0.5,1.2,1.2,1.2S30.4,164.2,30.4,163.4z M35.9,166
	c-0.7,0-1.1-0.2-1.5-0.6v2.4h-1.5V161h1.5v0.5c0.3-0.4,0.8-0.6,1.5-0.6c1.3,0,2.3,1.1,2.3,2.6S37.1,166,35.9,166z M35.6,164.6
	c0.7,0,1.2-0.5,1.2-1.2s-0.5-1.2-1.2-1.2s-1.2,0.5-1.2,1.2S34.9,164.6,35.6,164.6z M41.3,165.9v-3.5h1.5V161h-4.4v1.4h1.5v3.5H41.3z
	 M43.2,163.6h3.7v-1.4h-3.7V163.6z M50.9,163.4l1.8-2.4h-1.7l-1.5,2.1V161H48v4.9h1.5v-2.2l1.6,2.2h1.7L50.9,163.4z M52.7,163.4
	c0-1.5,1.2-2.6,2.6-2.6s2.6,1.1,2.6,2.6s-1.2,2.6-2.6,2.6S52.7,164.9,52.7,163.4z M54.1,163.4c0,0.7,0.5,1.2,1.1,1.2
	s1.1-0.5,1.1-1.2s-0.5-1.2-1.1-1.2S54.1,162.7,54.1,163.4z M60.1,161h-1.5v4.9h1.5v-1.8h1.7v1.8h1.5V161h-1.5v1.8h-1.7V161z
	 M66.8,165.9v-3.5h1.5V161h-4.4v1.4h1.5v3.5H66.8z M70.4,161v0.5c0.3-0.4,0.8-0.6,1.5-0.6c1.3,0,2.3,1.1,2.3,2.6s-1.1,2.6-2.3,2.6
	c-0.7,0-1.1-0.2-1.5-0.6v2.4h-1.5V161H70.4z M70.4,163.4c0,0.7,0.5,1.2,1.2,1.2s1.2-0.5,1.2-1.2s-0.5-1.2-1.2-1.2
	S70.4,162.7,70.4,163.4z M74.8,163.4c0-1.5,1.1-2.6,2.3-2.6c0.7,0,1.1,0.2,1.5,0.6V161H80v4.9h-1.5v-0.5c-0.3,0.4-0.8,0.6-1.5,0.6
	C75.8,166,74.8,164.9,74.8,163.4z M76.2,163.4c0,0.7,0.5,1.2,1.2,1.2s1.2-0.5,1.2-1.2s-0.5-1.2-1.2-1.2S76.2,162.7,76.2,163.4z
	 M82.5,163.7l1.6,2.2h1.7l-1.8-2.4l1.8-2.4H84l-1.5,2.1V161h-1.5v4.9h1.5V163.7z M88.8,165.9v-3.5h1.5V161h-4.4v1.4h1.5v3.5H88.8z
	 M95.6,165.9H97V161h-1.5V165.9z M92.4,161v1.5h0.8c1.2,0,1.9,0.7,1.9,1.7c0,1-0.7,1.7-1.9,1.7h-2.3V161H92.4z M92.4,163.7v0.9h0.8
	c0.3,0,0.5-0.2,0.5-0.4c0-0.3-0.2-0.4-0.5-0.4H92.4z M23.1,176.4c0,2-1.6,3.5-3.5,3.5c-1.7,0-3.2-1.2-3.5-2.9h-0.9v2.8h-1.6V173h1.6
	v2.6h0.9c0.4-1.6,1.7-2.7,3.4-2.7C21.5,172.9,23.1,174.4,23.1,176.4z M21.6,176.4c0-1.2-0.9-2-2-2c-1.1,0-2,0.8-2,2c0,1.2,0.9,2,2,2
	C20.7,178.5,21.6,177.7,21.6,176.4z M29.2,177.4c0,1.5-1.1,2.6-2.3,2.6c-0.7,0-1.1-0.2-1.5-0.6v2.4h-1.5V175h1.5v0.5
	c0.3-0.4,0.8-0.6,1.5-0.6C28.1,174.8,29.2,176,29.2,177.4z M27.7,177.4c0-0.7-0.5-1.2-1.2-1.2s-1.2,0.5-1.2,1.2s0.5,1.2,1.2,1.2
	S27.7,178.2,27.7,177.4z M30.5,178.1c-0.5,0-0.9,0.4-0.9,0.9s0.4,0.9,0.9,0.9c0.5,0,0.9-0.4,0.9-0.9S31,178.1,30.5,178.1z
	 M37.1,176.3c0.4,0,0.8,0.2,0.9,0.5l1.3-0.7c-0.4-0.8-1.3-1.2-2.2-1.2c-1.5,0-2.6,1.1-2.6,2.6s1.1,2.6,2.6,2.6c1,0,1.8-0.5,2.2-1.3
	l-1.3-0.7c-0.2,0.3-0.5,0.5-0.9,0.5c-0.6,0-1.1-0.5-1.1-1.1S36.5,176.3,37.1,176.3z M44.8,177.4c0,1.5-1.2,2.6-2.6,2.6
	s-2.6-1.1-2.6-2.6s1.2-2.6,2.6-2.6S44.8,176,44.8,177.4z M43.3,177.4c0-0.7-0.5-1.2-1.1-1.2s-1.1,0.5-1.1,1.2s0.5,1.2,1.1,1.2
	S43.3,178.1,43.3,177.4z M45.6,179.9h1.5v-3.5h1.7v3.5h1.5V175h-4.6V179.9z M56.5,177.4c0,1.5-1.1,2.6-2.3,2.6
	c-0.7,0-1.1-0.2-1.5-0.6v2.4h-1.5V175h1.5v0.5c0.3-0.4,0.8-0.6,1.5-0.6C55.5,174.8,56.5,176,56.5,177.4z M55,177.4
	c0-0.7-0.5-1.2-1.2-1.2s-1.2,0.5-1.2,1.2s0.5,1.2,1.2,1.2S55,178.2,55,177.4z M62.3,177.4c0,1.5-1.2,2.6-2.6,2.6
	c-1.4,0-2.6-1.1-2.6-2.6s1.2-2.6,2.6-2.6C61.1,174.8,62.3,176,62.3,177.4z M60.8,177.4c0-0.7-0.5-1.2-1.1-1.2s-1.1,0.5-1.1,1.2
	s0.5,1.2,1.1,1.2S60.8,178.1,60.8,177.4z M67.4,178.5c0,0.8-0.6,1.4-1.7,1.4h-2.6V175h2.4c1.1,0,1.7,0.6,1.7,1.4
	c0,0.4-0.2,0.8-0.5,1C67.2,177.6,67.4,178,67.4,178.5z M64.5,176.8h0.9c0.3,0,0.4-0.1,0.4-0.3c0-0.2-0.2-0.4-0.4-0.4h-0.9V176.8z
	 M66,178.3c0-0.2-0.2-0.3-0.4-0.3h-1.1v0.7h1.1C65.8,178.7,66,178.5,66,178.3z M73,177.4c0,1.5-1.2,2.6-2.6,2.6s-2.6-1.1-2.6-2.6
	s1.2-2.6,2.6-2.6S73,176,73,177.4z M71.6,177.4c0-0.7-0.5-1.2-1.1-1.2s-1.1,0.5-1.1,1.2s0.5,1.2,1.1,1.2S71.6,178.1,71.6,177.4z
	 M80.3,175h-1.6l-1.2,2.1V175H76v2.1l-1.2-2.1h-1.6l1.5,2.4l-1.6,2.4h1.6l1.3-2.1v2.1h1.4v-2.1l1.3,2.1h1.6l-1.6-2.4L80.3,175z
	 M85.5,178.5h0.6v2.7h-1.4v-1.3H82v1.3h-1.4v-2.7h0.6c0.2-0.4,0.4-0.8,0.4-1.7V175h3.9V178.5z M84.1,176.3H83v0.5
	c0,0.7-0.1,1.2-0.3,1.7h1.4V176.3z M91.5,177.4c0,0.2,0,0.4-0.1,0.6H88c0.2,0.5,0.6,0.7,1.2,0.7c0.4,0,0.7-0.2,0.9-0.4l1.2,0.7
	c-0.5,0.7-1.2,1-2.1,1c-1.7,0-2.7-1.1-2.7-2.6s1.1-2.6,2.6-2.6C90.4,174.8,91.5,175.9,91.5,177.4z M90,176.9c-0.2-0.6-0.6-0.8-1-0.8
	c-0.6,0-0.9,0.3-1.1,0.8H90z M95.4,176.7h-1.7V175h-1.5v4.9h1.5v-1.8h1.7v1.8h1.5V175h-1.5V176.7z M99.4,177.4V175H98v4.9h1.1
	l2.1-2.4v2.4h1.4V175h-1.1L99.4,177.4z M108.5,177.4c0,0.2,0,0.4-0.1,0.6h-3.5c0.2,0.5,0.6,0.7,1.2,0.7c0.4,0,0.7-0.2,0.9-0.4
	l1.2,0.7c-0.5,0.7-1.2,1-2.1,1c-1.7,0-2.7-1.1-2.7-2.6s1.1-2.6,2.6-2.6C107.4,174.8,108.5,175.9,108.5,177.4z M107,176.9
	c-0.2-0.6-0.6-0.8-1-0.8c-0.6,0-0.9,0.3-1.1,0.8H107z M69.7,105.9l1.8,2.9h0.2l1.8-2.9v4H75V103h-1.6l-1.9,3l-1.9-3h-1.6v6.8h1.6
	V105.9z M75.9,107.4c0-1.5,1.1-2.6,2.3-2.6c0.7,0,1.1,0.2,1.5,0.6V105h1.5v4.9h-1.5v-0.5c-0.3,0.4-0.8,0.6-1.5,0.6
	C76.9,110,75.9,108.9,75.9,107.4z M77.3,107.4c0,0.7,0.5,1.2,1.2,1.2s1.2-0.5,1.2-1.2s-0.5-1.2-1.2-1.2S77.3,106.7,77.3,107.4z
	 M83.9,107.8v-1.5H85v3.5h1.5V105h-4v2.8c0,0.6-0.2,0.9-0.7,0.8v1.4C83.2,110,83.9,109.3,83.9,107.8z M89.8,109.9h-2.3V105H89v1.5
	h0.8c1.2,0,1.9,0.7,1.9,1.7C91.7,109.2,91,109.9,89.8,109.9z M89,108.6h0.8c0.3,0,0.5-0.2,0.5-0.4c0-0.3-0.2-0.4-0.5-0.4H89V108.6z
	 M93,109.9h1.5v-3.5h1.5V105h-4.4v1.4H93V109.9z M99.7,107.4v2.4h1.4V105H100l-2.1,2.4V105h-1.4v4.9h1.1L99.7,107.4z M104.8,109.9
	h-2.6V105h2.4c1.1,0,1.7,0.6,1.7,1.4c0,0.4-0.2,0.8-0.5,1c0.4,0.2,0.7,0.6,0.7,1.1C106.5,109.3,105.9,109.9,104.8,109.9z
	 M103.6,106.8h0.9c0.3,0,0.4-0.1,0.4-0.3c0-0.2-0.2-0.4-0.4-0.4h-0.9V106.8z M104.6,108.7c0.3,0,0.4-0.1,0.4-0.4
	c0-0.2-0.2-0.3-0.4-0.3h-1.1v0.7H104.6z M107,107.4c0-1.5,1.1-2.6,2.3-2.6c0.7,0,1.1,0.2,1.5,0.6V105h1.5v4.9h-1.5v-0.5
	c-0.3,0.4-0.8,0.6-1.5,0.6C108,110,107,108.9,107,107.4z M108.4,107.4c0,0.7,0.5,1.2,1.2,1.2s1.2-0.5,1.2-1.2s-0.5-1.2-1.2-1.2
	S108.4,106.7,108.4,107.4z M115,107.8v-1.5h1.1v3.5h1.5V105h-4v2.8c0,0.6-0.2,0.9-0.7,0.8v1.4C114.3,110,115,109.3,115,107.8z
	 M120.1,109.9h-1.5V105h1.5v1.8h0.6c0.3-1.1,1.3-1.9,2.5-1.9c1.4,0,2.6,1.1,2.6,2.6s-1.2,2.6-2.6,2.6c-1.2,0-2.2-0.8-2.5-1.9h-0.6
	V109.9z M122,107.4c0,0.7,0.5,1.2,1.1,1.2s1.1-0.5,1.1-1.2s-0.5-1.2-1.1-1.2S122,106.7,122,107.4z M127.4,109.9h1.5v-3.5h1.5V105
	h-4.4v1.4h1.5V109.9z M132.4,108.1h1.7v1.8h1.5V105h-1.5v1.8h-1.7V105H131v4.9h1.5V108.1z M138.9,109.9h-2.3V105h1.5v1.5h0.8
	c1.2,0,1.9,0.7,1.9,1.7C140.8,109.2,140.1,109.9,138.9,109.9z M138.1,108.6h0.8c0.3,0,0.5-0.2,0.5-0.4c0-0.3-0.2-0.4-0.5-0.4h-0.8
	V108.6z M142.8,105h-1.5v4.9h1.5V105z M147,107.4v2.4h1.4V105h-1.1l-2.1,2.4V105h-1.4v4.9h1.1L147,107.4z M147.6,103.1h-2.9v1.3h2.9
	V103.1z M153.4,107.7l1.6,2.2h1.7l-1.8-2.4l1.8-2.4h-1.7l-1.5,2.1V105h-1.5v4.9h1.5V107.7z M156.6,107.4c0-1.5,1.2-2.6,2.6-2.6
	c1.4,0,2.6,1.1,2.6,2.6s-1.2,2.6-2.6,2.6C157.8,110,156.6,108.9,156.6,107.4z M158.1,107.4c0,0.7,0.5,1.2,1.1,1.2s1.1-0.5,1.1-1.2
	s-0.5-1.2-1.1-1.2S158.1,106.7,158.1,107.4z M169.7,105h-1.5v3.5h-1.4V105h-1.5v3.5h-1.4V105h-1.5v4.9h7.1V105z M170.6,107.4
	c0-1.5,1.1-2.6,2.6-2.6c1.4,0,2.5,1.1,2.5,2.6c0,0.2,0,0.4-0.1,0.6h-3.5c0.2,0.5,0.6,0.7,1.2,0.7c0.4,0,0.7-0.2,0.9-0.4l1.2,0.7
	c-0.5,0.7-1.2,1-2.1,1C171.6,110,170.6,108.9,170.6,107.4z M172.1,106.9h2.1c-0.2-0.6-0.6-0.8-1-0.8
	C172.6,106.1,172.2,106.4,172.1,106.9z M178,107.8v-1.5h1.1v3.5h1.5V105h-4v2.8c0,0.6-0.2,0.9-0.7,0.8v1.4
	C177.3,110,178,109.3,178,107.8z M181.4,107.4c0-1.5,1.1-2.6,2.6-2.6c1.4,0,2.5,1.1,2.5,2.6c0,0.2,0,0.4-0.1,0.6h-3.5
	c0.2,0.5,0.6,0.7,1.2,0.7c0.4,0,0.7-0.2,0.9-0.4l1.2,0.7c-0.5,0.7-1.2,1-2.1,1C182.4,110,181.4,108.9,181.4,107.4z M182.9,106.9h2.1
	c-0.2-0.6-0.6-0.8-1-0.8C183.4,106.1,183,106.4,182.9,106.9z M188.7,107.7l1.6,2.2h1.7l-1.8-2.4l1.8-2.4h-1.7l-1.5,2.1V105h-1.5v4.9
	h1.5V107.7z M83.8,123.9V117h-5.2v6.8h1.6v-5.3h2v5.3H83.8z M86.4,119v0.5c0.3-0.4,0.8-0.6,1.5-0.6c1.3,0,2.3,1.1,2.3,2.6
	s-1.1,2.6-2.3,2.6c-0.7,0-1.1-0.2-1.5-0.6v2.4H85V119H86.4z M86.4,121.4c0,0.7,0.5,1.2,1.2,1.2s1.2-0.5,1.2-1.2s-0.5-1.2-1.2-1.2
	S86.4,120.7,86.4,121.4z M93.4,124c-1.4,0-2.6-1.1-2.6-2.6s1.2-2.6,2.6-2.6s2.6,1.1,2.6,2.6S94.8,124,93.4,124z M94.5,121.4
	c0-0.7-0.5-1.2-1.1-1.2s-1.1,0.5-1.1,1.2s0.5,1.2,1.1,1.2S94.5,122.1,94.5,121.4z M100.4,121.4c0.4,0.2,0.7,0.6,0.7,1.1
	c0,0.8-0.6,1.4-1.7,1.4h-2.6V119h2.4c1.1,0,1.7,0.6,1.7,1.4C100.9,120.8,100.7,121.1,100.4,121.4z M98.2,120.8h0.9
	c0.3,0,0.4-0.1,0.4-0.3c0-0.2-0.2-0.4-0.4-0.4h-0.9V120.8z M99.7,122.3c0-0.2-0.2-0.3-0.4-0.3h-1.1v0.7h1.1
	C99.5,122.7,99.7,122.5,99.7,122.3z M101.6,121.4c0-1.5,1.1-2.6,2.6-2.6c1.4,0,2.5,1.1,2.5,2.6c0,0.2,0,0.4-0.1,0.6h-3.5
	c0.2,0.5,0.6,0.7,1.2,0.7c0.4,0,0.7-0.2,0.9-0.4l1.2,0.7c-0.5,0.7-1.2,1-2.1,1C102.6,124,101.6,122.9,101.6,121.4z M103.1,120.9h2.1
	c-0.2-0.6-0.6-0.8-1-0.8C103.6,120.1,103.2,120.4,103.1,120.9z M112.7,121.4c0,1.5-1.1,2.6-2.3,2.6c-0.7,0-1.1-0.2-1.5-0.6v2.4h-1.5
	V119h1.5v0.5c0.3-0.4,0.8-0.6,1.5-0.6C111.7,118.9,112.7,120,112.7,121.4z M111.3,121.4c0-0.7-0.5-1.2-1.2-1.2s-1.2,0.5-1.2,1.2
	s0.5,1.2,1.2,1.2S111.3,122.2,111.3,121.4z M115.9,118.9c1.4,0,2.5,1.1,2.5,2.6c0,0.2,0,0.4-0.1,0.6h-3.5c0.2,0.5,0.6,0.7,1.2,0.7
	c0.4,0,0.7-0.2,0.9-0.4l1.2,0.7c-0.5,0.7-1.2,1-2.1,1c-1.7,0-2.7-1.1-2.7-2.6S114.4,118.9,115.9,118.9z M115.9,120.1
	c-0.6,0-0.9,0.3-1.1,0.8h2.1C116.8,120.4,116.3,120.1,115.9,120.1z M119.2,119v4.9h1.5v-1.8h1.7v1.8h1.5V119h-1.5v1.8h-1.7V119
	H119.2z M129.5,119H128v1.8h-1.7V119h-1.5v4.9h1.5v-1.8h1.7v1.8h1.5V119z M132.8,123.9h-2.3V119h1.5v1.5h0.8c1.2,0,1.9,0.7,1.9,1.7
	C134.7,123.2,134,123.9,132.8,123.9z M132,122.6h0.8c0.3,0,0.5-0.2,0.5-0.4c0-0.3-0.2-0.4-0.5-0.4H132V122.6z M136.7,119h-1.5v4.9
	h1.5V119z M142.5,122h-3.5c0.2,0.5,0.6,0.7,1.2,0.7c0.4,0,0.7-0.2,0.9-0.4l1.2,0.7c-0.5,0.7-1.2,1-2.1,1c-1.7,0-2.7-1.1-2.7-2.6
	s1.1-2.6,2.6-2.6c1.4,0,2.5,1.1,2.5,2.6C142.6,121.6,142.6,121.8,142.5,122z M141.1,120.9c-0.2-0.6-0.6-0.8-1-0.8
	c-0.6,0-0.9,0.3-1.1,0.8H141.1z M145.4,120.4h1.5v3.5h1.5v-3.5h1.5V119h-4.4V120.4z M151.9,125.8h-1.5V119h1.5v0.5
	c0.3-0.4,0.8-0.6,1.5-0.6c1.3,0,2.3,1.1,2.3,2.6s-1.1,2.6-2.3,2.6c-0.7,0-1.1-0.2-1.5-0.6V125.8z M151.9,121.4
	c0,0.7,0.5,1.2,1.2,1.2s1.2-0.5,1.2-1.2s-0.5-1.2-1.2-1.2S151.9,120.7,151.9,121.4z M161.3,122h-3.5c0.2,0.5,0.6,0.7,1.2,0.7
	c0.4,0,0.7-0.2,0.9-0.4l1.2,0.7c-0.5,0.7-1.2,1-2.1,1c-1.7,0-2.7-1.1-2.7-2.6s1.1-2.6,2.6-2.6c1.4,0,2.5,1.1,2.5,2.6
	C161.3,121.6,161.3,121.8,161.3,122z M159.9,120.9c-0.2-0.6-0.6-0.8-1-0.8c-0.6,0-0.9,0.3-1.1,0.8H159.9z M165.9,118.4v-1.3H163v1.3
	H165.9z M165.3,121.4v2.4h1.4V119h-1.1l-2.1,2.4V119h-1.4v4.9h1.1L165.3,121.4z M172.3,119v3.5h0.6v2.7h-1.4v-1.3h-2.7v1.3h-1.4
	v-2.7h0.6c0.2-0.4,0.4-0.8,0.4-1.7V119H172.3z M170.9,120.3h-1.1v0.5c0,0.7-0.1,1.2-0.3,1.7h1.4V120.3z M175.8,118.9
	c1.4,0,2.5,1.1,2.5,2.6c0,0.2,0,0.4-0.1,0.6h-3.5c0.2,0.5,0.6,0.7,1.2,0.7c0.4,0,0.7-0.2,0.9-0.4l1.2,0.7c-0.5,0.7-1.2,1-2.1,1
	c-1.7,0-2.7-1.1-2.7-2.6S174.3,118.9,175.8,118.9z M174.8,120.9h2.1c-0.2-0.6-0.6-0.8-1-0.8C175.3,120.1,174.9,120.4,174.8,120.9z
	 M180.6,119v0.5c0.3-0.4,0.8-0.6,1.5-0.6c1.3,0,2.3,1.1,2.3,2.6s-1.1,2.6-2.3,2.6c-0.7,0-1.1-0.2-1.5-0.6v2.4h-1.5V119H180.6z
	 M180.6,121.4c0,0.7,0.5,1.2,1.2,1.2s1.2-0.5,1.2-1.2s-0.5-1.2-1.2-1.2S180.6,120.7,180.6,121.4z M189.9,123.9h1.5V119h-1.5V123.9z
	 M186.7,119v1.5h0.8c1.2,0,1.9,0.7,1.9,1.7c0,1-0.7,1.7-1.9,1.7h-2.3V119H186.7z M186.7,121.7v0.9h0.8c0.3,0,0.5-0.2,0.5-0.4
	c0-0.3-0.2-0.4-0.5-0.4H186.7z M98.7,134.4c0-2,1.6-3.5,3.5-3.5s3.5,1.5,3.5,3.5c0,2-1.6,3.5-3.5,3.5S98.7,136.5,98.7,134.4z
	 M100.3,134.4c0,1.2,0.9,2,2,2s2-0.8,2-2c0-1.2-0.9-2-2-2S100.3,133.2,100.3,134.4z M106.2,134.4h1.5v3.5h1.5v-3.5h1.5V133h-4.4
	V134.4z M111.3,133v4.9h1.5v-2.2l1.6,2.2h1.7l-1.8-2.4l1.8-2.4h-1.7l-1.5,2.1V133H111.3z M117.9,133v0.5c0.3-0.4,0.8-0.6,1.5-0.6
	c1.3,0,2.3,1.1,2.3,2.6s-1.1,2.6-2.3,2.6c-0.7,0-1.1-0.2-1.5-0.6v2.4h-1.5V133H117.9z M117.9,135.4c0,0.7,0.5,1.2,1.2,1.2
	s1.2-0.5,1.2-1.2s-0.5-1.2-1.2-1.2S117.9,134.7,117.9,135.4z M127.2,137.9h1.5V133h-1.5V137.9z M124.8,137.9h-2.3V133h1.5v1.5h0.8
	c1.2,0,1.9,0.7,1.9,1.7C126.7,137.2,126,137.9,124.8,137.9z M124,136.6h0.8c0.3,0,0.5-0.2,0.5-0.4c0-0.3-0.2-0.4-0.5-0.4H124V136.6z
	 M130.8,137.9h1.5v-3.5h1.5V133h-4.4v1.4h1.5V137.9z M136.5,138c-1.4,0-2.6-1.1-2.6-2.6s1.2-2.6,2.6-2.6c1.4,0,2.6,1.1,2.6,2.6
	S137.9,138,136.5,138z M136.5,136.6c0.6,0,1.1-0.5,1.1-1.2s-0.5-1.2-1.1-1.2s-1.1,0.5-1.1,1.2S135.9,136.6,136.5,136.6z
	 M142.3,134.3c0.4,0,0.8,0.2,0.9,0.5l1.3-0.7c-0.4-0.8-1.3-1.2-2.2-1.2c-1.5,0-2.6,1.1-2.6,2.6s1.1,2.6,2.6,2.6c1,0,1.8-0.5,2.2-1.3
	l-1.3-0.7c-0.2,0.3-0.5,0.5-0.9,0.5c-0.6,0-1.1-0.5-1.1-1.1S141.6,134.3,142.3,134.3z M149,133h-4.4v1.4h1.5v3.5h1.5v-3.5h1.5V133z
	 M151.1,133v1.5h0.8c1.2,0,1.9,0.7,1.9,1.7c0,1-0.7,1.7-1.9,1.7h-2.3V133H151.1z M151.1,135.7v0.9h0.8c0.3,0,0.5-0.2,0.5-0.4
	c0-0.3-0.2-0.4-0.5-0.4H151.1z M161.5,136.5h0.6v2.7h-1.4v-1.3H158v1.3h-1.4v-2.7h0.6c0.2-0.4,0.4-0.8,0.4-1.7V133h3.9V136.5z
	 M160.1,134.3H159v0.5c0,0.7-0.1,1.2-0.3,1.7h1.4V134.3z M167.7,137.9h-1.5v-0.5c-0.3,0.4-0.8,0.6-1.5,0.6c-1.3,0-2.3-1.1-2.3-2.6
	s1.1-2.6,2.3-2.6c0.7,0,1.1,0.2,1.5,0.6V133h1.5V137.9z M166.2,135.4c0-0.7-0.5-1.2-1.2-1.2s-1.2,0.5-1.2,1.2s0.5,1.2,1.2,1.2
	S166.2,136.2,166.2,135.4z M173.4,137.9V133h-1.5v1.8h-1.7V133h-1.5v4.9h1.5v-1.8h1.7v1.8H173.4z M174.4,133v4.9h1.5v-1.8h1.7v1.8
	h1.5V133h-1.5v1.8h-1.7V133H174.4z M181.5,133v1.5h0.8c1.2,0,1.9,0.7,1.9,1.7c0,1-0.7,1.7-1.9,1.7h-2.3V133H181.5z M181.5,135.7v0.9
	h0.8c0.3,0,0.5-0.2,0.5-0.4c0-0.3-0.2-0.4-0.5-0.4H181.5z M186.2,133h-1.5v4.9h1.5V133z M191.9,133h-1.7l-0.8,1.2l-0.8-1.2h-1.7
	l1.7,2.4l-1.7,2.5h1.7l0.9-1.3l0.9,1.3h1.7l-1.7-2.5L191.9,133z M115.4,151.3v0.8h-1.5v-0.8c-1.9-0.2-3.1-1.3-3.1-2.8
	c0-1.5,1.2-2.6,3.1-2.8v-0.8h1.5v0.8c1.9,0.2,3.1,1.3,3.1,2.8C118.4,150,117.2,151,115.4,151.3z M113.9,147.1
	c-1,0.1-1.5,0.6-1.5,1.4c0,0.8,0.5,1.2,1.5,1.4V147.1z M116.9,148.4c0-0.8-0.5-1.2-1.5-1.4v2.7C116.4,149.7,116.9,149.2,116.9,148.4
	z M123.8,151.9V147h-1.1l-2.1,2.4V147h-1.4v4.9h1.1l2.1-2.4v2.4H123.8z M126.9,152c-1.3,0-2.3-1.1-2.3-2.6s1.1-2.6,2.3-2.6
	c0.7,0,1.1,0.2,1.5,0.6V147h1.5v4.9h-1.5v-0.5C128,151.8,127.6,152,126.9,152z M127.2,150.6c0.7,0,1.2-0.5,1.2-1.2s-0.5-1.2-1.2-1.2
	s-1.2,0.5-1.2,1.2S126.5,150.6,127.2,150.6z M133.4,151.9v-3.5h1.5V147h-4.4v1.4h1.5v3.5H133.4z M140.1,151.9V147h-1.5v1.8H137V147
	h-1.5v4.9h1.5v-1.8h1.7v1.8H140.1z M147.3,147h-1.5v4.9h1.5V147z M143.4,151.9h-2.3V147h1.5v1.5h0.8c1.2,0,1.9,0.7,1.9,1.7
	C145.3,151.2,144.6,151.9,143.4,151.9z M143.9,150.2c0-0.3-0.2-0.4-0.5-0.4h-0.8v0.9h0.8C143.7,150.6,143.9,150.4,143.9,150.2z
	 M150.8,152c-1.7,0-2.7-1.1-2.7-2.6s1.1-2.6,2.6-2.6c1.4,0,2.5,1.1,2.5,2.6c0,0.2,0,0.4-0.1,0.6h-3.5c0.2,0.5,0.6,0.7,1.2,0.7
	c0.4,0,0.7-0.2,0.9-0.4l1.2,0.7C152.5,151.7,151.8,152,150.8,152z M149.6,148.9h2.1c-0.2-0.6-0.6-0.8-1-0.8
	C150.2,148.1,149.8,148.4,149.6,148.9z M160.8,150.5c0,0.8-0.6,1.4-1.7,1.4h-2.6V147h2.4c1.1,0,1.7,0.6,1.7,1.4c0,0.4-0.2,0.8-0.5,1
	C160.5,149.6,160.8,150,160.8,150.5z M157.8,148.8h0.9c0.3,0,0.4-0.1,0.4-0.3c0-0.2-0.2-0.4-0.4-0.4h-0.9V148.8z M159.3,150.3
	c0-0.2-0.2-0.3-0.4-0.3h-1.1v0.7h1.1C159.2,150.7,159.3,150.5,159.3,150.3z M165,151.9v-0.5c-0.3,0.4-0.8,0.6-1.5,0.6
	c-1.3,0-2.3-1.1-2.3-2.6s1.1-2.6,2.3-2.6c0.7,0,1.1,0.2,1.5,0.6V147h1.5v4.9H165z M165,149.4c0-0.7-0.5-1.2-1.2-1.2
	s-1.2,0.5-1.2,1.2s0.5,1.2,1.2,1.2S165,150.2,165,149.4z M171.8,151.9V147h-4v2.8c0,0.6-0.2,0.9-0.7,0.8v1.4c1.4,0.2,2.2-0.5,2.2-2
	v-1.5h1.1v3.5H171.8z M174.3,151.9h-1.5V147h1.5v1.8h0.6c0.3-1.1,1.3-1.9,2.5-1.9c1.4,0,2.6,1.1,2.6,2.6s-1.2,2.6-2.6,2.6
	c-1.2,0-2.2-0.8-2.5-1.9h-0.6V151.9z M176.3,149.4c0,0.7,0.5,1.2,1.1,1.2s1.1-0.5,1.1-1.2s-0.5-1.2-1.1-1.2S176.3,148.7,176.3,149.4
	z M181.7,151.9h1.5v-3.5h1.5V147h-4.4v1.4h1.5V151.9z M191.4,147h-1.5v4.9h1.5V147z M186.7,147v1.5h0.8c1.2,0,1.9,0.7,1.9,1.7
	c0,1-0.7,1.7-1.9,1.7h-2.3V147H186.7z M186.7,149.7v0.9h0.8c0.3,0,0.5-0.2,0.5-0.4c0-0.3-0.2-0.4-0.5-0.4H186.7z M123.7,164.4H122
	V159h-1.6v5.3h-1.7V159h-1.6v6.8h8V159h-1.6V164.4z M129.5,165.9h1.4V161h-1.1l-2.1,2.4V161h-1.4v4.9h1.1l2.1-2.4V165.9z M134.9,166
	c-0.7,0-1.1-0.2-1.5-0.6v2.4H132V161h1.5v0.5c0.3-0.4,0.8-0.6,1.5-0.6c1.3,0,2.3,1.1,2.3,2.6S136.2,166,134.9,166z M134.7,164.6
	c0.7,0,1.2-0.5,1.2-1.2s-0.5-1.2-1.2-1.2s-1.2,0.5-1.2,1.2S134,164.6,134.7,164.6z M143,163.4c0,1.5-1.2,2.6-2.6,2.6
	c-1.4,0-2.6-1.1-2.6-2.6s1.2-2.6,2.6-2.6C141.9,160.8,143,162,143,163.4z M141.6,163.4c0-0.7-0.5-1.2-1.1-1.2s-1.1,0.5-1.1,1.2
	s0.5,1.2,1.1,1.2S141.6,164.1,141.6,163.4z M146.8,161l-1.5,2.1V161h-1.5v4.9h1.5v-2.2l1.6,2.2h1.7l-1.8-2.4l1.8-2.4H146.8z
	 M152.2,163.4v2.4h1.4V161h-1.1l-2.1,2.4V161h-1.4v4.9h1.1L152.2,163.4z M155.6,160.4h2.9v-1.3h-2.9V160.4z M157.9,163.4v2.4h1.4
	V161h-1.1l-2.1,2.4V161h-1.4v4.9h1.1L157.9,163.4z M165.5,165.9h-2.6V161h2.4c1.1,0,1.7,0.6,1.7,1.4c0,0.4-0.2,0.8-0.5,1
	c0.4,0.2,0.7,0.6,0.7,1.1C167.1,165.3,166.6,165.9,165.5,165.9z M164.2,162.8h0.9c0.3,0,0.4-0.1,0.4-0.3c0-0.2-0.2-0.4-0.4-0.4h-0.9
	V162.8z M165.3,164.7c0.3,0,0.4-0.1,0.4-0.4c0-0.2-0.2-0.3-0.4-0.3h-1.1v0.7H165.3z M172.1,164.2c0,1-0.7,1.7-1.9,1.7h-2.3V161h1.5
	v1.5h0.8C171.3,162.4,172.1,163.1,172.1,164.2z M170.6,164.2c0-0.3-0.2-0.4-0.5-0.4h-0.8v0.9h0.8
	C170.4,164.6,170.6,164.4,170.6,164.2z M174,161h-1.5v4.9h1.5V161z M177.4,166c-1.6,0-2.6-1.2-2.6-2.7c0-1.6,0.3-2.4,1.9-3.2
	c1-0.5,1.5-0.6,1.8-1.3l1.2,0.7c-0.2,0.8-0.8,1.2-1.8,1.6c-0.9,0.3-1.1,0.6-1.3,0.9c0.4-0.3,0.8-0.5,1.3-0.5c0.9,0,2,0.7,2,2.1
	C179.9,165,179,166,177.4,166z M178.5,163.7c0-0.6-0.4-1-1.1-1c-0.5,0-1,0.3-1,0.9c0,0.6,0.5,1,1.1,1
	C178,164.7,178.5,164.3,178.5,163.7z M180.4,163.4c0-1.5,1.2-2.6,2.6-2.6c1.4,0,2.6,1.1,2.6,2.6s-1.2,2.6-2.6,2.6
	C181.5,166,180.4,164.9,180.4,163.4z M181.8,163.4c0,0.7,0.5,1.2,1.1,1.2s1.1-0.5,1.1-1.2s-0.5-1.2-1.1-1.2S181.8,162.7,181.8,163.4
	z M189.3,160.8c1.3,0,2.3,1.1,2.3,2.6s-1.1,2.6-2.3,2.6c-0.7,0-1.1-0.2-1.5-0.6v2.4h-1.5V161h1.5v0.5
	C188.2,161.1,188.6,160.8,189.3,160.8z M189,162.2c-0.7,0-1.2,0.5-1.2,1.2s0.5,1.2,1.2,1.2s1.2-0.5,1.2-1.2S189.7,162.2,189,162.2z
	 M133.1,177.7c0,1.3-0.9,2.1-2.3,2.1h-2.6V173h4.4v1.5h-2.8v1h1.1C132.1,175.6,133.1,176.4,133.1,177.7z M131.5,177.7
	c0-0.5-0.4-0.7-0.8-0.7h-1.1v1.4h1.1C131.2,178.4,131.5,178.2,131.5,177.7z M138.6,177.4c0,0.2,0,0.4-0.1,0.6h-3.5
	c0.2,0.5,0.6,0.7,1.2,0.7c0.4,0,0.7-0.2,0.9-0.4l1.2,0.7c-0.5,0.7-1.2,1-2.1,1c-1.7,0-2.7-1.1-2.7-2.6s1.1-2.6,2.6-2.6
	C137.5,174.8,138.6,175.9,138.6,177.4z M137.1,176.9c-0.2-0.6-0.6-0.8-1-0.8c-0.6,0-0.9,0.3-1.1,0.8H137.1z M142.3,177.4
	c0.4-0.2,0.5-0.6,0.5-1.1c0-0.8-0.7-1.5-1.9-1.5c-0.8,0-1.5,0.4-2,1.1l1.2,0.7c0.2-0.4,0.4-0.6,0.8-0.6c0.3,0,0.5,0.1,0.5,0.4
	c0,0.2-0.1,0.3-0.5,0.3h-0.5v1.2h0.7c0.3,0,0.5,0.1,0.5,0.3c0,0.2-0.2,0.4-0.6,0.4c-0.4,0-0.8-0.2-0.9-0.6l-1.2,0.7
	c0.4,0.8,1.1,1.2,2,1.2c1.3,0,2-0.7,2-1.5C143,178,142.7,177.6,142.3,177.4z M148.7,177.4c0,1.5-1.2,2.6-2.6,2.6
	c-1.4,0-2.6-1.1-2.6-2.6s1.2-2.6,2.6-2.6C147.5,174.8,148.7,176,148.7,177.4z M147.2,177.4c0-0.7-0.5-1.2-1.1-1.2s-1.1,0.5-1.1,1.2
	s0.5,1.2,1.1,1.2S147.2,178.1,147.2,177.4z M149.5,179.9h1.5v-3.5h1.7v3.5h1.5V175h-4.6V179.9z M158.7,175h1.5v4.9h-1.5v-0.5
	c-0.3,0.4-0.8,0.6-1.5,0.6c-1.3,0-2.3-1.1-2.3-2.6s1.1-2.6,2.3-2.6c0.7,0,1.1,0.2,1.5,0.6V175z M158.7,177.4c0-0.7-0.5-1.2-1.2-1.2
	s-1.2,0.5-1.2,1.2s0.5,1.2,1.2,1.2S158.7,178.2,158.7,177.4z M163.5,176.3c0.4,0,0.8,0.2,0.9,0.5l1.3-0.7c-0.4-0.8-1.3-1.2-2.2-1.2
	c-1.5,0-2.6,1.1-2.6,2.6s1.1,2.6,2.6,2.6c1,0,1.8-0.5,2.2-1.3l-1.3-0.7c-0.2,0.3-0.5,0.5-0.9,0.5c-0.6,0-1.1-0.5-1.1-1.1
	S162.9,176.3,163.5,176.3z M169.5,176.7h-1.7V175h-1.5v4.9h1.5v-1.8h1.7v1.8h1.5V175h-1.5V176.7z M177,177.4c0,1.5-1.2,2.6-2.6,2.6
	c-1.4,0-2.6-1.1-2.6-2.6s1.2-2.6,2.6-2.6C175.8,174.8,177,176,177,177.4z M175.5,177.4c0-0.7-0.5-1.2-1.1-1.2s-1.1,0.5-1.1,1.2
	s0.5,1.2,1.1,1.2S175.5,178.1,175.5,177.4z M180.1,176.3c0.4,0,0.8,0.2,0.9,0.5l1.3-0.7c-0.4-0.8-1.3-1.2-2.2-1.2
	c-1.5,0-2.6,1.1-2.6,2.6s1.1,2.6,2.6,2.6c1,0,1.8-0.5,2.2-1.3l-1.3-0.7c-0.2,0.3-0.5,0.5-0.9,0.5c-0.6,0-1.1-0.5-1.1-1.1
	S179.5,176.3,180.1,176.3z M182.5,176.4h1.5v3.5h1.5v-3.5h1.5V175h-4.4V176.4z M191.7,178.2c0,1-0.7,1.7-1.9,1.7h-2.3V175h1.5v1.5
	h0.8C191,176.4,191.7,177.1,191.7,178.2z M190.3,178.2c0-0.3-0.2-0.4-0.5-0.4H189v0.9h0.8C190.1,178.6,190.3,178.4,190.3,178.2z"/>
</svg>
