<?xml version="1.0" encoding="utf-8"?>
<!-- Generator: Adobe Illustrator 21.1.0, SVG Export Plug-In . SVG Version: 6.00 Build 0)  -->
<svg version="1.1" id="Layer_4" xmlns="http://www.w3.org/2000/svg" xmlns:xlink="http://www.w3.org/1999/xlink" x="0px" y="0px"
	 viewBox="0 0 482 207.6" style="enable-background:new 0 0 482 207.6;" xml:space="preserve">
<style type="text/css">
	.st0{fill:#ABB4BB;}
	.st1{fill:#474C53;}
	.st2{fill:#25258D;}
	.st3{fill:#FFFFFF;}
	.st4{fill:#464F56;}
	.st5{font-family:'Gilroy-ExtraBold';}
	.st6{font-size:9.0982px;}
	.st7{fill:none;stroke:#464F56;stroke-width:1.9967;stroke-miterlimit:10;}
</style>
<path class="st0" d="M445.5,142.4c-0.6,0-1-0.4-1-1v-13.9c0-0.6,0.4-1,1-1s1,0.4,1,1v13.9C446.5,142,446.1,142.4,445.5,142.4z"/>
<path class="st1" d="M440,132.3c0-0.7-0.3-1.4-0.9-1.8l1-0.5l1,0.5c1.6,0.8,3.5,1.8,5.7,2.9l0.5,0.3l1.4-1.8l-6.2-3.3l6.2-3.3
	l-1.4-1.8l-0.5,0.3c-2.2,1.1-4.1,2.1-5.7,2.9l-1,0.5l-1-0.5c0.6-0.5,0.9-1.1,0.9-1.8c0-1.5-1.5-2.6-3.3-2.6s-3.3,1.2-3.3,2.6
	c0,1.4,0.8,2,3.9,3.7c-3.1,1.6-3.9,2.3-3.9,3.7c0,1.5,1.5,2.6,3.3,2.6S440,133.7,440,132.3z M435.4,124.9c0-0.6,0.6-1.1,1.3-1.1
	s1.3,0.5,1.3,1.1c0,0.6-0.6,1.1-1.3,1.1S435.4,125.5,435.4,124.9z M435.4,132.3c0-0.6,0.6-1.1,1.3-1.1s1.3,0.5,1.3,1.1
	c0,0.6-0.6,1.1-1.3,1.1S435.4,132.8,435.4,132.3z"/>
<path class="st0" d="M445.5,129.6c-0.6,0-1-0.4-1-1v-14.8c0-0.6,0.4-1,1-1s1,0.4,1,1v14.8C446.5,129.1,446.1,129.6,445.5,129.6z"/>
<path class="st0" d="M48.5,142.4c-0.6,0-1-0.4-1-1v-12.9c0-0.6,0.4-1,1-1s1,0.4,1,1v12.9C49.5,142,49.1,142.4,48.5,142.4z"/>
<path class="st1" d="M57.3,134.9c1.8,0,3.3-1.2,3.3-2.6c0-1.4-0.8-2-3.9-3.7c3.1-1.6,3.9-2.3,3.9-3.7c0-1.5-1.5-2.6-3.3-2.6
	s-3.3,1.2-3.3,2.6c0,0.7,0.3,1.4,0.9,1.8l-1,0.5l-1-0.5c-1.6-0.8-3.5-1.8-5.7-2.9l-0.5-0.3l-1.4,1.8l6.2,3.3l-6.2,3.3l1.4,1.8
	l0.5-0.3c2.2-1.1,4.1-2.1,5.7-2.9l1-0.5l1,0.5c-0.6,0.5-0.9,1.1-0.9,1.8C54.1,133.7,55.5,134.9,57.3,134.9z M57.3,125.9
	c-0.7,0-1.3-0.5-1.3-1.1c0-0.6,0.6-1.1,1.3-1.1c0.7,0,1.3,0.5,1.3,1.1C58.6,125.5,58,125.9,57.3,125.9z M57.3,133.3
	c-0.7,0-1.3-0.5-1.3-1.1c0-0.6,0.6-1.1,1.3-1.1c0.7,0,1.3,0.5,1.3,1.1C58.6,132.8,58,133.3,57.3,133.3z"/>
<path class="st0" d="M48.5,129.6c-0.6,0-1-0.4-1-1v-14.8c0-0.6,0.4-1,1-1s1,0.4,1,1v14.8C49.5,129.1,49.1,129.6,48.5,129.6z"/>
<path class="st0" d="M153.2,171.6H83.9c-0.6,0-1-0.4-1-1s0.4-1,1-1h69.4c0.6,0,1,0.4,1,1S153.8,171.6,153.2,171.6z"/>
<polygon class="st0" points="152.2,167.1 158.2,170.6 152.2,174.1 "/>
<rect x="239.8" y="2.8" class="st2" width="2" height="71.6"/>
<polygon class="st2" points="244.3,73.4 240.8,79.4 237.3,73.4 "/>
<rect x="237.8" class="st2" width="5.9" height="5.9"/>
<path class="st3" d="M119.5,115H4.2c-1,0-1.9-0.8-1.9-1.9V16.9c0-1,0.8-1.9,1.9-1.9h115.3c1,0,1.9,0.8,1.9,1.9v96.3
	C121.3,114.2,120.5,115,119.5,115z"/>
<path class="st0" d="M119.5,116h-2.7c-0.6,0-1-0.4-1-1s0.4-1,1-1h2.7c0.6,0,1,0.4,1,1S120,116,119.5,116z M110.1,116h-2.7
	c-0.6,0-1-0.4-1-1s0.4-1,1-1h2.7c0.6,0,1,0.4,1,1S110.7,116,110.1,116z M100.8,116h-2.7c-0.6,0-1-0.4-1-1s0.4-1,1-1h2.7
	c0.6,0,1,0.4,1,1S101.4,116,100.8,116z M91.5,116h-2.7c-0.6,0-1-0.4-1-1s0.4-1,1-1h2.7c0.6,0,1,0.4,1,1S92.1,116,91.5,116z
	 M82.2,116h-2.7c-0.6,0-1-0.4-1-1s0.4-1,1-1h2.7c0.6,0,1,0.4,1,1S82.7,116,82.2,116z M72.9,116h-2.7c-0.6,0-1-0.4-1-1s0.4-1,1-1h2.7
	c0.6,0,1,0.4,1,1S73.4,116,72.9,116z M63.6,116h-2.7c-0.6,0-1-0.4-1-1s0.4-1,1-1h2.7c0.6,0,1,0.4,1,1S64.1,116,63.6,116z M54.2,116
	h-2.7c-0.6,0-1-0.4-1-1s0.4-1,1-1h2.7c0.6,0,1,0.4,1,1S54.8,116,54.2,116z M44.9,116h-2.7c-0.6,0-1-0.4-1-1s0.4-1,1-1h2.7
	c0.6,0,1,0.4,1,1S45.5,116,44.9,116z M35.6,116h-2.7c-0.6,0-1-0.4-1-1s0.4-1,1-1h2.7c0.6,0,1,0.4,1,1S36.2,116,35.6,116z M26.3,116
	h-2.7c-0.6,0-1-0.4-1-1s0.4-1,1-1h2.7c0.6,0,1,0.4,1,1S26.8,116,26.3,116z M17,116h-2.7c-0.6,0-1-0.4-1-1s0.4-1,1-1H17
	c0.6,0,1,0.4,1,1S17.5,116,17,116z M7.6,116H5c-0.6,0-1-0.4-1-1s0.4-1,1-1h2.7c0.6,0,1,0.4,1,1S8.2,116,7.6,116z M121.3,113.5
	c-0.6,0-1-0.4-1-1v-2.7c0-0.6,0.4-1,1-1s1,0.4,1,1v2.7C122.3,113.1,121.9,113.5,121.3,113.5z M2.3,111.2c-0.6,0-1-0.4-1-1v-2.7
	c0-0.6,0.4-1,1-1s1,0.4,1,1v2.7C3.3,110.8,2.9,111.2,2.3,111.2z M121.3,104.2c-0.6,0-1-0.4-1-1v-2.7c0-0.6,0.4-1,1-1s1,0.4,1,1v2.7
	C122.3,103.7,121.9,104.2,121.3,104.2z M2.3,101.9c-0.6,0-1-0.4-1-1v-2.7c0-0.6,0.4-1,1-1s1,0.4,1,1v2.7
	C3.3,101.5,2.9,101.9,2.3,101.9z M121.3,94.9c-0.6,0-1-0.4-1-1v-2.7c0-0.6,0.4-1,1-1s1,0.4,1,1v2.7
	C122.3,94.4,121.9,94.9,121.3,94.9z M2.3,92.6c-0.6,0-1-0.4-1-1v-2.7c0-0.6,0.4-1,1-1s1,0.4,1,1v2.7C3.3,92.1,2.9,92.6,2.3,92.6z
	 M121.3,85.5c-0.6,0-1-0.4-1-1v-2.7c0-0.6,0.4-1,1-1s1,0.4,1,1v2.7C122.3,85.1,121.9,85.5,121.3,85.5z M2.3,83.3c-0.6,0-1-0.4-1-1
	v-2.7c0-0.6,0.4-1,1-1s1,0.4,1,1v2.7C3.3,82.8,2.9,83.3,2.3,83.3z M121.3,76.2c-0.6,0-1-0.4-1-1v-2.7c0-0.6,0.4-1,1-1s1,0.4,1,1v2.7
	C122.3,75.8,121.9,76.2,121.3,76.2z M2.3,74c-0.6,0-1-0.4-1-1v-2.7c0-0.6,0.4-1,1-1s1,0.4,1,1V73C3.3,73.5,2.9,74,2.3,74z
	 M121.3,66.9c-0.6,0-1-0.4-1-1v-2.7c0-0.6,0.4-1,1-1s1,0.4,1,1v2.7C122.3,66.5,121.9,66.9,121.3,66.9z M2.3,64.6c-0.6,0-1-0.4-1-1
	V61c0-0.6,0.4-1,1-1s1,0.4,1,1v2.7C3.3,64.2,2.9,64.6,2.3,64.6z M121.3,57.6c-0.6,0-1-0.4-1-1v-2.7c0-0.6,0.4-1,1-1s1,0.4,1,1v2.7
	C122.3,57.1,121.9,57.6,121.3,57.6z M2.3,55.3c-0.6,0-1-0.4-1-1v-2.7c0-0.6,0.4-1,1-1s1,0.4,1,1v2.7C3.3,54.9,2.9,55.3,2.3,55.3z
	 M121.3,48.3c-0.6,0-1-0.4-1-1v-2.7c0-0.6,0.4-1,1-1s1,0.4,1,1v2.7C122.3,47.8,121.9,48.3,121.3,48.3z M2.3,46c-0.6,0-1-0.4-1-1
	v-2.7c0-0.6,0.4-1,1-1s1,0.4,1,1V45C3.3,45.6,2.9,46,2.3,46z M121.3,39c-0.6,0-1-0.4-1-1v-2.7c0-0.6,0.4-1,1-1s1,0.4,1,1V38
	C122.3,38.5,121.9,39,121.3,39z M2.3,36.7c-0.6,0-1-0.4-1-1V33c0-0.6,0.4-1,1-1s1,0.4,1,1v2.7C3.3,36.2,2.9,36.7,2.3,36.7z
	 M121.3,29.6c-0.6,0-1-0.4-1-1V26c0-0.6,0.4-1,1-1s1,0.4,1,1v2.7C122.3,29.2,121.9,29.6,121.3,29.6z M2.3,27.4c-0.6,0-1-0.4-1-1
	v-2.7c0-0.6,0.4-1,1-1s1,0.4,1,1v2.7C3.3,26.9,2.9,27.4,2.3,27.4z M121.3,20.3c-0.6,0-1-0.4-1-1v-2.4c-0.1-0.5,0.3-1.1,0.9-1.2
	c0.5-0.1,1,0.3,1.1,0.8c0,0.1,0,0.2,0,0.3v2.4C122.3,19.9,121.9,20.3,121.3,20.3z M2.3,18c-0.6,0-1-0.4-1-1v-0.2
	c0-1.3,0.9-2.5,2.2-2.8c0.5-0.1,1.1,0.2,1.2,0.7C4.8,15.3,4.5,15.9,4,16c-0.4,0.1-0.7,0.5-0.7,0.9V17C3.3,17.6,2.9,18,2.3,18z
	 M115.5,16h-2.7c-0.6,0-1-0.4-1-1s0.4-1,1-1h2.7c0.6,0,1,0.4,1,1S116.1,16,115.5,16z M106.2,16h-2.7c-0.6,0-1-0.4-1-1s0.4-1,1-1h2.7
	c0.6,0,1,0.4,1,1S106.8,16,106.2,16z M96.9,16h-2.7c-0.6,0-1-0.4-1-1s0.4-1,1-1h2.7c0.6,0,1,0.4,1,1S97.5,16,96.9,16z M87.6,16h-2.7
	c-0.6,0-1-0.4-1-1s0.4-1,1-1h2.7c0.6,0,1,0.4,1,1S88.1,16,87.6,16z M78.3,16h-2.7c-0.6,0-1-0.4-1-1s0.4-1,1-1h2.7c0.6,0,1,0.4,1,1
	S78.8,16,78.3,16z M69,16h-2.7c-0.6,0-1-0.4-1-1s0.4-1,1-1H69c0.6,0,1,0.4,1,1S69.5,16,69,16z M59.6,16H57c-0.6,0-1-0.4-1-1
	s0.4-1,1-1h2.7c0.6,0,1,0.4,1,1S60.2,16,59.6,16z M50.3,16h-2.7c-0.6,0-1-0.4-1-1s0.4-1,1-1h2.7c0.6,0,1,0.4,1,1S50.9,16,50.3,16z
	 M41,16h-2.7c-0.6,0-1-0.4-1-1s0.4-1,1-1H41c0.6,0,1,0.4,1,1S41.6,16,41,16z M31.7,16H29c-0.6,0-1-0.4-1-1s0.4-1,1-1h2.7
	c0.6,0,1,0.4,1,1S32.2,16,31.7,16z M22.4,16h-2.7c-0.6,0-1-0.4-1-1s0.4-1,1-1h2.7c0.6,0,1,0.4,1,1S22.9,16,22.4,16z M13.1,16h-2.7
	c-0.6,0-1-0.4-1-1s0.4-1,1-1h2.7c0.6,0,1,0.4,1,1S13.6,16,13.1,16z"/>
<path class="st3" d="M85.2,198.8H13.2c-1.6,0-2.8-1.3-2.8-2.8v-42.4c0-1.6,1.3-2.8,2.8-2.8h72.1c1.6,0,2.8,1.3,2.8,2.8V196
	C88.1,197.5,86.8,198.8,85.2,198.8z"/>
<path class="st4" d="M85.2,199.8H13.2c-2.1,0-3.8-1.7-3.8-3.8v-42.4c0-2.1,1.7-3.8,3.8-3.8h72.1c2.1,0,3.8,1.7,3.8,3.8V196
	C89.1,198.1,87.4,199.8,85.2,199.8z M13.2,151.7c-1,0-1.8,0.8-1.8,1.8V196c0,1,0.8,1.8,1.8,1.8h72.1c1,0,1.8-0.8,1.8-1.8v-42.4
	c0-1-0.8-1.8-1.8-1.8H13.2z"/>
<path class="st3" d="M80.6,194.1H8.6c-1.6,0-2.8-1.3-2.8-2.8v-42.4c0-1.6,1.3-2.8,2.8-2.8h72.1c1.6,0,2.8,1.3,2.8,2.8v42.4
	C83.5,192.9,82.2,194.1,80.6,194.1z"/>
<path class="st4" d="M80.6,195.1H8.6c-2.1,0-3.8-1.7-3.8-3.8v-42.4c0-2.1,1.7-3.8,3.8-3.8h72.1c2.1,0,3.8,1.7,3.8,3.8v42.4
	C84.5,193.4,82.8,195.1,80.6,195.1z M8.6,147c-1,0-1.8,0.8-1.8,1.8v42.4c0,1,0.8,1.8,1.8,1.8h72.1c1,0,1.8-0.8,1.8-1.8v-42.4
	c0-1-0.8-1.8-1.8-1.8H8.6z"/>
<path class="st3" d="M75.9,189.5H3.8c-1.6,0-2.8-1.3-2.8-2.8v-42.4c0-1.6,1.3-2.8,2.8-2.8h72.1c1.6,0,2.8,1.3,2.8,2.8v42.4
	C78.8,188.2,77.5,189.5,75.9,189.5z"/>
<path class="st4" d="M75.9,190.5H3.8c-2.1,0-3.8-1.7-3.8-3.8v-42.4c0-2.1,1.7-3.8,3.8-3.8h72.1c2.1,0,3.8,1.7,3.8,3.8v42.4
	C79.8,188.8,78,190.5,75.9,190.5z M3.8,142.4c-1,0-1.8,0.8-1.8,1.8v42.4c0,1,0.8,1.8,1.8,1.8h72.1c1,0,1.8-0.8,1.8-1.8v-42.4
	c0-1-0.8-1.8-1.8-1.8H3.8z"/>
<path class="st0" d="M396.7,171.6h-60.1c-0.6,0-1-0.4-1-1s0.4-1,1-1h60.1c0.6,0,1,0.4,1,1S397.2,171.6,396.7,171.6z"/>
<polygon class="st0" points="337.6,174.1 331.6,170.6 337.6,167.1 "/>
<circle class="st3" cx="352.5" cy="170.6" r="7.7"/>
<path class="st0" d="M352.5,179.3c-4.8,0-8.7-3.9-8.7-8.7s3.9-8.7,8.7-8.7s8.7,3.9,8.7,8.7S357.3,179.3,352.5,179.3z M352.5,163.9
	c-3.7,0-6.7,3-6.7,6.7s3,6.7,6.7,6.7c3.7,0,6.7-3,6.7-6.7S356.2,163.9,352.5,163.9z"/>
<text transform="matrix(1 0 0 1 350.0157 174.1938)" class="st0 st5 st6">$</text>
<circle class="st3" cx="365.2" cy="170.6" r="7.7"/>
<path class="st0" d="M365.2,179.3c-4.8,0-8.7-3.9-8.7-8.7s3.9-8.7,8.7-8.7s8.7,3.9,8.7,8.7S370,179.3,365.2,179.3z M365.2,163.9
	c-3.7,0-6.7,3-6.7,6.7s3,6.7,6.7,6.7s6.7-3,6.7-6.7S368.9,163.9,365.2,163.9z"/>
<path class="st0" d="M362.7,170.2L362.7,170.2L362.7,170.2l2.6-4.3v0v0l0,0v0l2.6,4.3l0,0h0l-2.6,1.9L362.7,170.2z M365.2,175.2
	l2.6-4l-2.6,1.7v0l-2.6-1.7L365.2,175.2L365.2,175.2L365.2,175.2L365.2,175.2L365.2,175.2z"/>
<circle class="st3" cx="378.5" cy="170.6" r="7.7"/>
<path class="st0" d="M378.5,179.3c-4.8,0-8.7-3.9-8.7-8.7s3.9-8.7,8.7-8.7s8.7,3.9,8.7,8.7S383.3,179.3,378.5,179.3z M378.5,163.9
	c-3.7,0-6.7,3-6.7,6.7s3,6.7,6.7,6.7c3.7,0,6.7-3,6.7-6.7S382.2,163.9,378.5,163.9z"/>
<path class="st0" d="M380.3,170.3c0.4-0.2,0.7-0.6,0.6-1.2c-0.1-0.9-0.8-1.1-1.8-1.2l0-1.2l-0.7,0l0,1.2c-0.2,0-0.4,0-0.6,0l0-1.2
	l-0.7,0l0,1.2c-0.2,0-0.3,0-0.5,0l0,0l-1,0l0,0.8c0,0,0.5,0,0.5,0c0.3,0,0.4,0.2,0.4,0.3l0,1.4c0,0,0,0,0.1,0c0,0,0,0-0.1,0l0,1.9
	c0,0.1-0.1,0.2-0.3,0.2c0,0-0.5,0-0.5,0l-0.1,0.9l0.9,0c0.2,0,0.3,0,0.5,0l0,1.2l0.7,0l0-1.2c0.2,0,0.4,0,0.6,0l0,1.2h0.7l0-1.2
	c1.2-0.1,2.1-0.4,2.2-1.5C381.5,170.9,381,170.5,380.3,170.3z M377.9,168.7c0.4,0,1.7-0.1,1.7,0.7c0,0.8-1.3,0.7-1.7,0.7
	L377.9,168.7z M377.9,172.4l0-1.6c0.5,0,2-0.1,2,0.8C379.9,172.6,378.4,172.4,377.9,172.4z"/>
<path class="st3" d="M322.8,206.6H177.4c-1.6,0-2.8-1.3-2.8-2.8v-99.5c0-1.6,1.3-2.8,2.8-2.8h145.3c1.6,0,2.8,1.3,2.8,2.8v99.5
	C325.6,205.3,324.3,206.6,322.8,206.6z"/>
<path class="st2" d="M322.8,207.6H177.4c-2.1,0-3.8-1.7-3.8-3.8v-99.5c0-2.1,1.7-3.8,3.8-3.8h145.3c2.1,0,3.8,1.7,3.8,3.8v99.5
	C326.6,205.9,324.9,207.6,322.8,207.6z M177.4,102.4c-1,0-1.8,0.8-1.8,1.8v99.5c0,1,0.8,1.8,1.8,1.8h145.3c1,0,1.8-0.8,1.8-1.8
	v-99.5c0-1-0.8-1.8-1.8-1.8H177.4z"/>
<path class="st3" d="M318.2,201.9H172.8c-1.6,0-2.8-1.3-2.8-2.8V99.6c0-1.6,1.3-2.8,2.8-2.8h145.3c1.6,0,2.8,1.3,2.8,2.8v99.5
	C321,200.7,319.7,201.9,318.2,201.9z"/>
<path class="st2" d="M318.2,202.9H172.8c-2.1,0-3.8-1.7-3.8-3.8V99.6c0-2.1,1.7-3.8,3.8-3.8h145.3c2.1,0,3.8,1.7,3.8,3.8v99.5
	C322,201.2,320.3,202.9,318.2,202.9z M172.8,97.8c-1,0-1.8,0.8-1.8,1.8v99.5c0,1,0.8,1.8,1.8,1.8h145.3c1,0,1.8-0.8,1.8-1.8V99.6
	c0-1-0.8-1.8-1.8-1.8H172.8z"/>
<path class="st0" d="M15.6,34.5h1.1l1.2,2h1l-1.2-2.1c0.6-0.3,1.1-0.9,1.1-1.6c0-0.5-0.2-0.9-0.5-1.2c-0.3-0.3-0.8-0.5-1.2-0.5h-2.2
	v5.5h0.9V34.5z M15.6,31.9h1.3c0.5,0,0.9,0.4,0.9,0.9s-0.4,0.9-0.9,0.9h-1.3V31.9z M21.1,36.6c0.8,0,1.3-0.3,1.7-0.9l-0.7-0.4
	c-0.2,0.3-0.6,0.5-1,0.5c-0.7,0-1.1-0.3-1.3-0.9H23c0-0.1,0-0.3,0-0.4c0-0.6-0.2-1.1-0.6-1.5c-0.4-0.4-0.8-0.6-1.4-0.6
	c-0.6,0-1.1,0.2-1.5,0.6C19.2,33.5,19,34,19,34.6c0,0.6,0.2,1.1,0.6,1.5C20,36.4,20.5,36.6,21.1,36.6z M21,33.3c0.6,0,1,0.3,1.1,1
	h-2.3C20,33.6,20.4,33.3,21,33.3z M25.5,36.6c0.6,0,1-0.2,1.4-0.7v0.5c0,0.7-0.4,1.1-1.2,1.1c-0.6,0-0.9-0.2-1.1-0.6l-0.7,0.4
	c0.3,0.6,1,0.9,1.9,0.9c0.6,0,1-0.2,1.4-0.5c0.4-0.3,0.6-0.8,0.6-1.4v-3.7h-0.8v0.6c-0.3-0.5-0.8-0.7-1.4-0.7c-0.6,0-1,0.2-1.4,0.6
	c-0.4,0.4-0.6,0.9-0.6,1.4s0.2,1,0.6,1.4C24.5,36.4,24.9,36.6,25.5,36.6z M24.7,33.7c0.2-0.2,0.5-0.4,0.9-0.4s0.6,0.1,0.9,0.4
	c0.2,0.2,0.4,0.5,0.4,0.9s-0.1,0.6-0.4,0.9c-0.2,0.2-0.5,0.4-0.9,0.4s-0.6-0.1-0.9-0.4c-0.2-0.2-0.4-0.5-0.4-0.9
	S24.5,33.9,24.7,33.7z M28.6,35v-2.4h0.8v2.3c0,0.6,0.3,0.9,0.9,0.9c0.6,0,1-0.4,1-1.1v-2.1h0.8v3.9h-0.8V36
	c-0.3,0.4-0.7,0.6-1.2,0.6C29.2,36.6,28.6,36,28.6,35z M34,36.5h-0.8v-5.7H34V36.5z M36.7,36.6c0.6,0,1-0.2,1.4-0.7v0.6h0.8v-3.9H38
	v0.6c-0.3-0.4-0.8-0.7-1.4-0.7c-0.5,0-1,0.2-1.4,0.6c-0.4,0.4-0.6,0.9-0.6,1.5c0,0.6,0.2,1.1,0.6,1.5S36.1,36.6,36.7,36.6z
	 M35.9,33.7c0.2-0.2,0.5-0.4,0.9-0.4s0.6,0.1,0.9,0.4c0.2,0.2,0.4,0.5,0.4,0.9c0,0.4-0.1,0.7-0.4,0.9c-0.2,0.2-0.5,0.4-0.9,0.4
	s-0.6-0.1-0.9-0.4c-0.2-0.2-0.4-0.5-0.4-0.9C35.6,34.2,35.7,33.9,35.9,33.7z M40.2,33.4h-0.7v-0.8h0.7v-0.8l0.8-0.3v1.1h1v0.8h-1
	v1.9c0,0.5,0.3,0.5,1,0.5v0.8c-1.3,0.2-1.8-0.2-1.8-1.2V33.4z M44.5,36.6c0.6,0,1.1-0.2,1.5-0.6c0.4-0.4,0.6-0.9,0.6-1.5
	c0-0.6-0.2-1.1-0.6-1.5c-0.4-0.4-0.9-0.6-1.5-0.6c-0.6,0-1.1,0.2-1.5,0.6c-0.4,0.4-0.6,0.9-0.6,1.5c0,0.6,0.2,1.1,0.6,1.5
	C43.4,36.4,43.9,36.6,44.5,36.6z M43.6,33.7c0.2-0.2,0.5-0.4,0.9-0.4c0.3,0,0.6,0.1,0.9,0.4c0.2,0.2,0.4,0.5,0.4,0.9
	c0,0.4-0.1,0.6-0.4,0.9c-0.2,0.2-0.5,0.4-0.9,0.4c-0.3,0-0.6-0.1-0.9-0.4c-0.2-0.2-0.4-0.5-0.4-0.9C43.3,34.2,43.4,33.9,43.6,33.7z
	 M48.2,36.5h-0.8v-3.9h0.8v0.7c0.2-0.5,0.6-0.7,1.2-0.7v0.9c-0.3,0-0.6,0.1-0.8,0.2c-0.2,0.2-0.4,0.5-0.4,0.9V36.5z M51.3,36.5
	l-1.7-3.8h0.9l1.2,2.8l1-2.8h0.9l-1.5,4c-0.4,1-1,1.5-1.9,1.4v-0.8C50.8,37.3,51.1,37.1,51.3,36.5L51.3,36.5z M56.1,32.6H57v3.9
	h-0.8V32.6z M56.2,31.9c-0.2-0.2-0.2-0.5,0-0.8c0.2-0.2,0.6-0.2,0.8,0c0.2,0.2,0.2,0.5,0,0.8C56.7,32.1,56.4,32.1,56.2,31.9z
	 M59.9,35.4c0-0.3-0.3-0.4-0.7-0.5c-0.6-0.1-1.4-0.4-1.4-1.2c0-0.4,0.1-0.6,0.4-0.9c0.3-0.2,0.6-0.3,1-0.3c0.6,0,1.2,0.3,1.4,0.8
	L60,33.7c-0.1-0.3-0.4-0.4-0.7-0.4c-0.3,0-0.6,0.1-0.6,0.4c0,0.3,0.3,0.4,0.7,0.5c0.6,0.1,1.4,0.4,1.4,1.2c0,0.4-0.1,0.7-0.4,0.9
	s-0.6,0.3-1.1,0.3c-0.8,0-1.3-0.3-1.6-0.9l0.7-0.4c0.1,0.4,0.4,0.6,0.9,0.6S59.9,35.7,59.9,35.4z M63.3,35.4c0-0.3-0.3-0.4-0.7-0.5
	c-0.6-0.1-1.4-0.4-1.4-1.2c0-0.4,0.1-0.6,0.4-0.9c0.3-0.2,0.6-0.3,1-0.3c0.6,0,1.2,0.3,1.4,0.8l-0.7,0.4c-0.1-0.3-0.4-0.4-0.7-0.4
	c-0.3,0-0.6,0.1-0.6,0.4c0,0.3,0.3,0.4,0.7,0.5c0.6,0.1,1.4,0.4,1.4,1.2c0,0.4-0.1,0.7-0.4,0.9s-0.6,0.3-1.1,0.3
	c-0.8,0-1.3-0.3-1.6-0.9l0.7-0.4c0.1,0.4,0.4,0.6,0.9,0.6S63.3,35.7,63.3,35.4z M64.8,35v-2.4h0.8v2.3c0,0.6,0.3,0.9,0.9,0.9
	c0.6,0,1-0.4,1-1.1v-2.1h0.8v3.9h-0.8V36c-0.3,0.4-0.7,0.6-1.2,0.6C65.4,36.6,64.8,36,64.8,35z M71.2,36.6c0.8,0,1.3-0.3,1.7-0.9
	l-0.7-0.4c-0.2,0.3-0.6,0.5-1,0.5c-0.7,0-1.1-0.3-1.3-0.9h3.1c0-0.1,0-0.3,0-0.4c0-0.6-0.2-1.1-0.6-1.5c-0.4-0.4-0.8-0.6-1.4-0.6
	c-0.6,0-1.1,0.2-1.5,0.6c-0.4,0.4-0.6,0.9-0.6,1.5c0,0.6,0.2,1.1,0.6,1.5C70.1,36.4,70.6,36.6,71.2,36.6z M71.2,33.3
	c0.6,0,1,0.3,1.1,1H70C70.1,33.6,70.5,33.3,71.2,33.3z M75.7,35.4c0-0.3-0.3-0.4-0.7-0.5c-0.6-0.1-1.4-0.4-1.4-1.2
	c0-0.4,0.1-0.6,0.4-0.9c0.3-0.2,0.6-0.3,1-0.3c0.6,0,1.2,0.3,1.4,0.8l-0.7,0.4c-0.1-0.3-0.4-0.4-0.7-0.4c-0.3,0-0.6,0.1-0.6,0.4
	c0,0.3,0.3,0.4,0.7,0.5c0.6,0.1,1.4,0.4,1.4,1.2c0,0.4-0.1,0.7-0.4,0.9s-0.6,0.3-1.1,0.3c-0.8,0-1.3-0.3-1.6-0.9l0.7-0.4
	c0.1,0.4,0.4,0.6,0.9,0.6S75.7,35.7,75.7,35.4z M15.6,49.2h-0.9v-5.5h0.7l2.6,3.7v-3.7h0.9v5.5h-0.7l-2.6-3.7V49.2z M20.3,45.8
	c-0.4,0.4-0.6,0.9-0.6,1.5c0,0.6,0.2,1.1,0.6,1.5s0.9,0.6,1.5,0.6c0.6,0,1.1-0.2,1.5-0.6s0.6-0.9,0.6-1.5c0-0.6-0.2-1.1-0.6-1.5
	c-0.4-0.4-0.9-0.6-1.5-0.6C21.2,45.2,20.7,45.4,20.3,45.8z M23,47.2c0,0.4-0.1,0.6-0.4,0.9c-0.2,0.2-0.5,0.4-0.9,0.4
	s-0.6-0.1-0.9-0.4c-0.2-0.2-0.4-0.5-0.4-0.9c0-0.4,0.1-0.6,0.4-0.9c0.2-0.2,0.5-0.4,0.9-0.4s0.6,0.1,0.9,0.4
	C22.8,46.6,23,46.9,23,47.2z M26.8,45.5c0.3-0.2,0.6-0.3,1-0.3c0.6,0,1.2,0.3,1.4,0.8l-0.7,0.4c-0.1-0.3-0.4-0.4-0.7-0.4
	c-0.3,0-0.6,0.1-0.6,0.4c0,0.3,0.3,0.4,0.7,0.5c0.6,0.1,1.4,0.4,1.4,1.2c0,0.4-0.1,0.7-0.4,0.9s-0.6,0.3-1.1,0.3
	c-0.8,0-1.3-0.3-1.6-0.9l0.7-0.4c0.1,0.4,0.4,0.6,0.9,0.6s0.7-0.1,0.7-0.4c0-0.3-0.3-0.4-0.7-0.5c-0.6-0.1-1.4-0.4-1.4-1.2
	C26.4,46,26.5,45.7,26.8,45.5z M32.1,45.2c0.5,0,0.9,0.2,1.1,0.6c0.3-0.4,0.7-0.6,1.2-0.6c0.9,0,1.5,0.6,1.5,1.6v2.4H35v-2.4
	c0-0.5-0.3-0.9-0.8-0.9c-0.5,0-0.9,0.3-0.9,1v2.2h-0.8v-2.4c0-0.5-0.3-0.9-0.7-0.9c-0.5,0-0.9,0.4-0.9,1v2.2h-0.8v-3.9H31v0.5
	C31.2,45.3,31.6,45.2,32.1,45.2z M40.7,45.3h-0.8v0.6c-0.3-0.4-0.8-0.7-1.4-0.7c-0.5,0-1,0.2-1.4,0.6c-0.4,0.4-0.6,0.9-0.6,1.5
	c0,0.6,0.2,1.1,0.6,1.5c0.4,0.4,0.8,0.6,1.4,0.6c0.6,0,1-0.2,1.4-0.7v0.6h0.8V45.3z M39.5,48.1c-0.2,0.2-0.5,0.4-0.9,0.4
	c-0.4,0-0.6-0.1-0.9-0.4c-0.2-0.2-0.4-0.5-0.4-0.9c0-0.4,0.1-0.7,0.4-0.9c0.2-0.2,0.5-0.4,0.9-0.4c0.4,0,0.7,0.1,0.9,0.4
	c0.2,0.2,0.4,0.5,0.4,0.9C39.9,47.6,39.8,47.9,39.5,48.1z M42.6,45.3v0.7c0.2-0.5,0.6-0.7,1.2-0.7v0.9c-0.3,0-0.6,0.1-0.8,0.2
	c-0.2,0.2-0.4,0.5-0.4,0.9v2h-0.8v-3.9H42.6z M45.7,45.3h1v0.8h-1V48c0,0.5,0.3,0.5,1,0.5v0.8c-1.3,0.2-1.8-0.2-1.8-1.2v-1.9h-0.7
	v-0.8h0.7v-0.8l0.8-0.3V45.3z M50.3,47.2h-2.9v-0.8h2.9V47.2z M53.2,45.2c0.8,0,1.4,0.4,1.7,1l-0.7,0.4c-0.2-0.4-0.6-0.6-1-0.6
	c-0.3,0-0.6,0.1-0.9,0.4c-0.2,0.2-0.3,0.5-0.3,0.9c0,0.4,0.1,0.6,0.3,0.9c0.2,0.2,0.5,0.4,0.9,0.4c0.5,0,0.9-0.2,1-0.6l0.7,0.4
	c-0.3,0.6-1,1-1.8,1c-0.6,0-1.1-0.2-1.5-0.6c-0.4-0.4-0.6-0.9-0.6-1.5c0-0.6,0.2-1.1,0.6-1.5C52.2,45.4,52.6,45.2,53.2,45.2z
	 M57.4,49.3c0.6,0,1.1-0.2,1.5-0.6s0.6-0.9,0.6-1.5c0-0.6-0.2-1.1-0.6-1.5c-0.4-0.4-0.9-0.6-1.5-0.6c-0.6,0-1.1,0.2-1.5,0.6
	c-0.4,0.4-0.6,0.9-0.6,1.5c0,0.6,0.2,1.1,0.6,1.5S56.8,49.3,57.4,49.3z M56.5,46.3c0.2-0.2,0.5-0.4,0.9-0.4s0.6,0.1,0.9,0.4
	c0.2,0.2,0.4,0.5,0.4,0.9c0,0.4-0.1,0.6-0.4,0.9c-0.2,0.2-0.5,0.4-0.9,0.4s-0.6-0.1-0.9-0.4c-0.2-0.2-0.4-0.5-0.4-0.9
	C56.2,46.9,56.3,46.6,56.5,46.3z M62.1,45.9c-0.6,0-1,0.4-1,1.1v2.1h-0.8v-3.9h0.8v0.5c0.3-0.4,0.7-0.6,1.2-0.6
	c0.9,0,1.5,0.6,1.5,1.6v2.4h-0.8v-2.3C62.9,46.3,62.6,45.9,62.1,45.9z M65.9,45.3h1v0.8h-1V48c0,0.5,0.3,0.5,1,0.5v0.8
	c-1.3,0.2-1.8-0.2-1.8-1.2v-1.9h-0.7v-0.8h0.7v-0.8l0.8-0.3V45.3z M68.5,45.3v0.7c0.2-0.5,0.6-0.7,1.2-0.7v0.9
	c-0.3,0-0.6,0.1-0.8,0.2c-0.2,0.2-0.4,0.5-0.4,0.9v2h-0.8v-3.9H68.5z M71.9,45.2c-0.5,0-1,0.2-1.4,0.6c-0.4,0.4-0.6,0.9-0.6,1.5
	c0,0.6,0.2,1.1,0.6,1.5c0.4,0.4,0.8,0.6,1.4,0.6c0.6,0,1-0.2,1.4-0.7v0.6h0.8v-3.9h-0.8v0.6C73,45.4,72.5,45.2,71.9,45.2z
	 M72.9,48.1c-0.2,0.2-0.5,0.4-0.9,0.4c-0.4,0-0.6-0.1-0.9-0.4c-0.2-0.2-0.4-0.5-0.4-0.9c0-0.4,0.1-0.7,0.4-0.9
	c0.2-0.2,0.5-0.4,0.9-0.4c0.4,0,0.7,0.1,0.9,0.4c0.2,0.2,0.4,0.5,0.4,0.9C73.3,47.6,73.2,47.9,72.9,48.1z M78,47.8l0.7,0.4
	c-0.3,0.6-1,1-1.8,1c-0.6,0-1.1-0.2-1.5-0.6c-0.4-0.4-0.6-0.9-0.6-1.5c0-0.6,0.2-1.1,0.6-1.5c0.4-0.4,0.9-0.6,1.5-0.6
	c0.8,0,1.4,0.4,1.7,1L78,46.6c-0.2-0.4-0.6-0.6-1-0.6c-0.3,0-0.6,0.1-0.9,0.4c-0.2,0.2-0.3,0.5-0.3,0.9c0,0.4,0.1,0.6,0.3,0.9
	c0.2,0.2,0.5,0.4,0.9,0.4C77.4,48.4,77.8,48.2,78,47.8z M80.5,45.3h1v0.8h-1V48c0,0.5,0.3,0.5,1,0.5v0.8c-1.3,0.2-1.8-0.2-1.8-1.2
	v-1.9H79v-0.8h0.7v-0.8l0.8-0.3V45.3z M85,48.1c0,0.4-0.1,0.7-0.4,0.9c-0.3,0.2-0.7,0.3-1.1,0.3c-0.8,0-1.3-0.3-1.6-0.9l0.7-0.4
	c0.1,0.4,0.4,0.6,0.9,0.6c0.4,0,0.7-0.1,0.7-0.4c0-0.3-0.3-0.4-0.7-0.5c-0.6-0.1-1.4-0.4-1.4-1.2c0-0.4,0.1-0.6,0.4-0.9
	c0.3-0.2,0.6-0.3,1-0.3c0.7,0,1.2,0.3,1.4,0.8l-0.7,0.4c-0.1-0.3-0.4-0.4-0.7-0.4c-0.3,0-0.6,0.1-0.6,0.4c0,0.3,0.3,0.4,0.7,0.5
	C84.2,47,85,47.2,85,48.1z M17.8,61.8h-3.1v-5.5h0.9V61h2.2V61.8z M22.2,61.8v-3.9h-0.8v0.6c-0.3-0.4-0.8-0.7-1.4-0.7
	c-0.5,0-1,0.2-1.4,0.6s-0.6,0.9-0.6,1.5c0,0.6,0.2,1.1,0.6,1.5s0.8,0.6,1.4,0.6c0.6,0,1-0.2,1.4-0.7v0.6H22.2z M21,60.8
	c-0.2,0.2-0.5,0.4-0.9,0.4s-0.6-0.1-0.9-0.4c-0.2-0.2-0.4-0.5-0.4-0.9s0.1-0.7,0.4-0.9c0.2-0.2,0.5-0.4,0.9-0.4s0.6,0.1,0.9,0.4
	c0.2,0.2,0.4,0.5,0.4,0.9S21.3,60.5,21,60.8z M25,61.9c-0.6,0-1.1-0.2-1.5-0.6c-0.4-0.4-0.6-0.9-0.6-1.5c0-0.6,0.2-1.1,0.6-1.5
	c0.4-0.4,0.9-0.6,1.5-0.6c0.8,0,1.4,0.4,1.7,1l-0.7,0.4c-0.2-0.4-0.6-0.6-1-0.6c-0.3,0-0.6,0.1-0.9,0.4c-0.2,0.2-0.3,0.5-0.3,0.9
	s0.1,0.6,0.3,0.9c0.2,0.2,0.5,0.4,0.9,0.4c0.5,0,0.9-0.2,1-0.6l0.7,0.4C26.5,61.5,25.8,61.9,25,61.9z M30.9,61.8h-1L28.3,60v1.8
	h-0.8v-5.5h0.8v3.3l1.5-1.7h1l-1.7,1.9L30.9,61.8z M36.7,61.3c0.4-0.4,0.6-0.9,0.6-1.5s-0.2-1.1-0.6-1.5s-0.9-0.6-1.5-0.6
	c-0.6,0-1.1,0.2-1.5,0.6s-0.6,0.9-0.6,1.5s0.2,1.1,0.6,1.5s0.9,0.6,1.5,0.6C35.8,61.9,36.3,61.7,36.7,61.3z M34,59.9
	c0-0.4,0.1-0.6,0.4-0.9c0.2-0.2,0.5-0.4,0.9-0.4s0.6,0.1,0.9,0.4c0.2,0.2,0.4,0.5,0.4,0.9s-0.1,0.6-0.4,0.9
	c-0.2,0.2-0.5,0.4-0.9,0.4s-0.6-0.1-0.9-0.4C34.1,60.5,34,60.2,34,59.9z M39.1,57.8L39.1,57.8l0.9,0.1v0.8h-0.9v3.1h-0.8v-3.1h-0.6
	v-0.8h0.6v-0.1c0-1.1,0.6-1.7,1.8-1.6v0.8C39.4,57,39.1,57.3,39.1,57.8z M44.4,60.7c0-0.3-0.3-0.4-0.7-0.5c-0.6-0.1-1.4-0.4-1.4-1.2
	c0-0.4,0.1-0.6,0.4-0.9c0.3-0.2,0.6-0.3,1-0.3c0.7,0,1.2,0.3,1.4,0.8L44.5,59c-0.1-0.3-0.4-0.4-0.7-0.4c-0.3,0-0.6,0.1-0.6,0.4
	c0,0.3,0.3,0.4,0.7,0.5c0.6,0.1,1.4,0.4,1.4,1.2c0,0.4-0.1,0.7-0.4,0.9c-0.3,0.2-0.7,0.3-1.1,0.3c-0.8,0-1.3-0.3-1.6-0.9l0.7-0.4
	c0.1,0.4,0.4,0.6,0.9,0.6C44.2,61.1,44.4,61,44.4,60.7z M49.3,61.3c0.4-0.4,0.6-0.9,0.6-1.5s-0.2-1.1-0.6-1.5
	c-0.4-0.4-0.9-0.6-1.5-0.6c-0.6,0-1.1,0.2-1.5,0.6c-0.4,0.4-0.6,0.9-0.6,1.5s0.2,1.1,0.6,1.5c0.4,0.4,0.9,0.6,1.5,0.6
	C48.4,61.9,48.9,61.7,49.3,61.3z M46.6,59.9c0-0.4,0.1-0.6,0.4-0.9c0.2-0.2,0.5-0.4,0.9-0.4c0.3,0,0.6,0.1,0.9,0.4
	c0.2,0.2,0.4,0.5,0.4,0.9s-0.1,0.6-0.4,0.9c-0.2,0.2-0.5,0.4-0.9,0.4c-0.3,0-0.6-0.1-0.9-0.4C46.7,60.5,46.6,60.2,46.6,59.9z
	 M51.6,57.8L51.6,57.8l0.9,0.1v0.8h-0.9v3.1h-0.8v-3.1h-0.6v-0.8h0.6v-0.1c0-1.1,0.6-1.7,1.8-1.6v0.8C51.9,57,51.6,57.3,51.6,57.8z
	 M54.4,58.7v1.9c0,0.5,0.3,0.5,1,0.5v0.8c-1.3,0.2-1.8-0.2-1.8-1.2v-1.9h-0.7v-0.8h0.7v-0.8l0.8-0.3v1.1h1v0.8H54.4z M58.7,59.2
	l-0.8,2.6H57l-1.2-3.9h0.9l0.8,2.7l0.8-2.7h0.8l0.8,2.7l0.8-2.7h0.9l-1.2,3.9h-0.8L58.7,59.2z M65.1,58.5c-0.3-0.4-0.8-0.7-1.4-0.7
	c-0.5,0-1,0.2-1.4,0.6s-0.6,0.9-0.6,1.5c0,0.6,0.2,1.1,0.6,1.5s0.8,0.6,1.4,0.6c0.6,0,1-0.2,1.4-0.7v0.6H66v-3.9h-0.8V58.5z
	 M64.8,60.8c-0.2,0.2-0.5,0.4-0.9,0.4S63.2,61,63,60.8c-0.2-0.2-0.4-0.5-0.4-0.9s0.1-0.7,0.4-0.9c0.2-0.2,0.5-0.4,0.9-0.4
	s0.6,0.1,0.9,0.4c0.2,0.2,0.4,0.5,0.4,0.9S65,60.5,64.8,60.8z M67.8,61.8h-0.8v-3.9h0.8v0.7c0.2-0.5,0.6-0.7,1.2-0.7v0.9
	c-0.3,0-0.6,0.1-0.8,0.2c-0.2,0.2-0.4,0.5-0.4,0.9V61.8z M73.3,59.9c0-0.6-0.2-1.1-0.6-1.5c-0.4-0.4-0.8-0.6-1.4-0.6
	c-0.6,0-1.1,0.2-1.5,0.6c-0.4,0.4-0.6,0.9-0.6,1.5c0,0.6,0.2,1.1,0.6,1.5c0.4,0.4,0.9,0.6,1.5,0.6c0.8,0,1.3-0.3,1.7-0.9l-0.7-0.4
	c-0.2,0.3-0.6,0.5-1,0.5c-0.6,0-1.1-0.3-1.3-0.9h3.1C73.2,60.1,73.3,60,73.3,59.9z M70.1,59.5c0.1-0.6,0.6-1,1.2-1
	c0.6,0,1,0.3,1.1,1H70.1z M15.6,74.5h-0.9V69h0.7l2.6,3.7V69h0.9v5.5h-0.7l-2.6-3.7V74.5z M21.7,74.6c0.6,0,1.1-0.2,1.5-0.6
	s0.6-0.9,0.6-1.5s-0.2-1.1-0.6-1.5s-0.9-0.6-1.5-0.6c-0.6,0-1.1,0.2-1.5,0.6s-0.6,0.9-0.6,1.5s0.2,1.1,0.6,1.5S21.2,74.6,21.7,74.6z
	 M20.9,71.6c0.2-0.2,0.5-0.4,0.9-0.4s0.6,0.1,0.9,0.4c0.2,0.2,0.4,0.5,0.4,0.9s-0.1,0.6-0.4,0.9c-0.2,0.2-0.5,0.4-0.9,0.4
	s-0.6-0.1-0.9-0.4c-0.2-0.2-0.4-0.5-0.4-0.9S20.6,71.9,20.9,71.6z M29.6,74.5l-2.2-2.6v2.6h-0.9V69h0.9v2.5l2.1-2.5h1.1l-2.2,2.7
	l2.3,2.8H29.6z M32.7,74.5v-2.2L30.8,69h1l1.3,2.4l1.3-2.4h1l-1.9,3.3v2.2H32.7z M36.9,70.3c-0.4,0.4-0.5,0.8-0.5,1.4
	c0,0.6,0.2,1,0.5,1.4c0.4,0.4,0.8,0.6,1.4,0.6c0.7,0,1.3-0.3,1.6-0.9l0.8,0.4c-0.2,0.4-0.6,0.7-1,1c-0.4,0.2-0.9,0.4-1.4,0.4
	c-0.8,0-1.5-0.3-2.1-0.8c-0.5-0.5-0.8-1.2-0.8-2c0-0.8,0.3-1.5,0.8-2c0.5-0.5,1.2-0.8,2.1-0.8c1,0,1.9,0.5,2.4,1.3l-0.8,0.5
	c-0.3-0.5-0.9-0.9-1.6-0.9C37.7,69.8,37.2,69.9,36.9,70.3z M15.5,86.3H18v0.9h-3.6v-0.7l2.5-3.9h-2.4v-0.9H18v0.7L15.5,86.3z
	 M20.4,83.1c-0.6,0-1.1,0.2-1.5,0.6c-0.4,0.4-0.6,0.9-0.6,1.5c0,0.6,0.2,1.1,0.6,1.5c0.4,0.4,0.9,0.6,1.5,0.6c0.8,0,1.3-0.3,1.7-0.9
	L21.5,86c-0.2,0.3-0.6,0.5-1,0.5c-0.7,0-1.1-0.3-1.3-0.9h3.1c0-0.1,0-0.3,0-0.4c0-0.6-0.2-1.1-0.6-1.5S21,83.1,20.4,83.1z
	 M19.2,84.8c0.1-0.6,0.6-1,1.2-1c0.6,0,1,0.3,1.1,1H19.2z M24,87.1h-0.8v-3.9H24v0.7c0.2-0.5,0.6-0.7,1.2-0.7V84
	c-0.3,0-0.6,0.1-0.8,0.2c-0.2,0.2-0.4,0.5-0.4,0.9V87.1z M27.5,87.2c0.6,0,1.1-0.2,1.5-0.6c0.4-0.4,0.6-0.9,0.6-1.5
	s-0.2-1.1-0.6-1.5c-0.4-0.4-0.9-0.6-1.5-0.6c-0.6,0-1.1,0.2-1.5,0.6c-0.4,0.4-0.6,0.9-0.6,1.5s0.2,1.1,0.6,1.5
	C26.4,87,26.9,87.2,27.5,87.2z M26.6,84.3c0.2-0.2,0.5-0.4,0.9-0.4c0.3,0,0.6,0.1,0.9,0.4c0.2,0.2,0.4,0.5,0.4,0.9s-0.1,0.6-0.4,0.9
	c-0.2,0.2-0.5,0.4-0.9,0.4c-0.3,0-0.6-0.1-0.9-0.4c-0.2-0.2-0.4-0.5-0.4-0.9S26.4,84.5,26.6,84.3z M32.6,85.9V84h-0.7v-0.8h0.7v-0.8
	l0.8-0.3v1.1h1V84h-1v1.9c0,0.5,0.3,0.5,1,0.5v0.8C33.2,87.3,32.6,86.9,32.6,85.9z M35.5,83.7c-0.4,0.4-0.6,0.9-0.6,1.5
	s0.2,1.1,0.6,1.5c0.4,0.4,0.9,0.6,1.5,0.6c0.6,0,1.1-0.2,1.5-0.6c0.4-0.4,0.6-0.9,0.6-1.5s-0.2-1.1-0.6-1.5
	c-0.4-0.4-0.9-0.6-1.5-0.6C36.3,83.1,35.9,83.3,35.5,83.7z M38.1,85.2c0,0.4-0.1,0.6-0.4,0.9c-0.2,0.2-0.5,0.4-0.9,0.4
	c-0.3,0-0.6-0.1-0.9-0.4c-0.2-0.2-0.4-0.5-0.4-0.9s0.1-0.6,0.4-0.9c0.2-0.2,0.5-0.4,0.9-0.4c0.3,0,0.6,0.1,0.9,0.4
	C38,84.5,38.1,84.8,38.1,85.2z M43.2,87.1h-1l-1.6-1.8v1.8h-0.8v-5.5h0.8v3.3l1.5-1.7h1l-1.7,1.9L43.2,87.1z M47.3,85.2
	c0-0.6-0.2-1.1-0.6-1.5c-0.4-0.4-0.8-0.6-1.4-0.6c-0.6,0-1.1,0.2-1.5,0.6c-0.4,0.4-0.6,0.9-0.6,1.5c0,0.6,0.2,1.1,0.6,1.5
	c0.4,0.4,0.9,0.6,1.5,0.6c0.8,0,1.3-0.3,1.7-0.9L46.4,86c-0.2,0.3-0.6,0.5-1,0.5c-0.6,0-1.1-0.3-1.3-0.9h3.1
	C47.3,85.4,47.3,85.2,47.3,85.2z M44.1,84.8c0.1-0.6,0.6-1,1.2-1c0.6,0,1,0.3,1.1,1H44.1z M49.9,83.9c-0.6,0-1,0.4-1,1.1v2.1H48
	v-3.9h0.8v0.5c0.3-0.4,0.7-0.6,1.2-0.6c0.9,0,1.5,0.6,1.5,1.6v2.4h-0.8v-2.3C50.7,84.2,50.4,83.9,49.9,83.9z M53.3,87.1h-0.8v-3.9
	h0.8V87.1z M52.5,82.5c-0.2-0.2-0.2-0.5,0-0.8c0.2-0.2,0.6-0.2,0.8,0c0.2,0.2,0.2,0.5,0,0.8C53.1,82.7,52.7,82.7,52.5,82.5z
	 M57.2,87.1h-3.1v-0.6L56,84h-1.8v-0.8h2.9v0.6l-1.8,2.6h1.9V87.1z M61.7,87.1v-3.9h-0.8v0.6c-0.3-0.4-0.8-0.7-1.4-0.7
	c-0.5,0-1,0.2-1.4,0.6c-0.4,0.4-0.6,0.9-0.6,1.5c0,0.6,0.2,1.1,0.6,1.5c0.4,0.4,0.8,0.6,1.4,0.6c0.6,0,1-0.2,1.4-0.7v0.6H61.7z
	 M60.5,86.1c-0.2,0.2-0.5,0.4-0.9,0.4c-0.4,0-0.6-0.1-0.9-0.4c-0.2-0.2-0.4-0.5-0.4-0.9s0.1-0.7,0.4-0.9c0.2-0.2,0.5-0.4,0.9-0.4
	c0.4,0,0.7,0.1,0.9,0.4c0.2,0.2,0.4,0.5,0.4,0.9S60.8,85.8,60.5,86.1z M63.1,85.9V84h-0.7v-0.8h0.7v-0.8l0.8-0.3v1.1h1V84h-1v1.9
	c0,0.5,0.3,0.5,1,0.5v0.8C63.6,87.3,63.1,86.9,63.1,85.9z M66.4,82.5c-0.2,0.2-0.5,0.2-0.8,0c-0.2-0.2-0.2-0.5,0-0.8
	c0.2-0.2,0.6-0.2,0.8,0C66.7,81.9,66.7,82.2,66.4,82.5z M65.7,83.2h0.8v3.9h-0.8V83.2z M69.3,83.1c-0.6,0-1.1,0.2-1.5,0.6
	s-0.6,0.9-0.6,1.5s0.2,1.1,0.6,1.5s0.9,0.6,1.5,0.6c0.6,0,1.1-0.2,1.5-0.6s0.6-0.9,0.6-1.5s-0.2-1.1-0.6-1.5S69.9,83.1,69.3,83.1z
	 M70.2,86c-0.2,0.2-0.5,0.4-0.9,0.4s-0.6-0.1-0.9-0.4c-0.2-0.2-0.4-0.5-0.4-0.9s0.1-0.6,0.4-0.9c0.2-0.2,0.5-0.4,0.9-0.4
	s0.6,0.1,0.9,0.4c0.2,0.2,0.4,0.5,0.4,0.9S70.4,85.8,70.2,86z M75.7,84.7v2.4h-0.8v-2.3c0-0.6-0.3-0.9-0.9-0.9c-0.6,0-1,0.4-1,1.1
	v2.1h-0.8v-3.9H73v0.5c0.3-0.4,0.7-0.6,1.2-0.6C75.1,83.1,75.7,83.7,75.7,84.7z M15.6,98.9h2.2v0.9h-3.1v-5.5h0.9V98.9z M21.4,96.4
	c-0.3-0.4-0.8-0.7-1.4-0.7c-0.5,0-1,0.2-1.4,0.6s-0.6,0.9-0.6,1.5c0,0.6,0.2,1.1,0.6,1.5s0.8,0.6,1.4,0.6c0.6,0,1-0.2,1.4-0.7v0.6
	h0.8v-3.9h-0.8V96.4z M21,98.7c-0.2,0.2-0.5,0.4-0.9,0.4s-0.6-0.1-0.9-0.4c-0.2-0.2-0.4-0.5-0.4-0.9s0.1-0.7,0.4-0.9
	c0.2-0.2,0.5-0.4,0.9-0.4s0.6,0.1,0.9,0.4c0.2,0.2,0.4,0.5,0.4,0.9S21.3,98.5,21,98.7z M26.1,98.4l0.7,0.4c-0.3,0.6-1,1-1.8,1
	c-0.6,0-1.1-0.2-1.5-0.6c-0.4-0.4-0.6-0.9-0.6-1.5c0-0.6,0.2-1.1,0.6-1.5c0.4-0.4,0.9-0.6,1.5-0.6c0.8,0,1.4,0.4,1.7,1l-0.7,0.4
	c-0.2-0.4-0.6-0.6-1-0.6c-0.3,0-0.6,0.1-0.9,0.4c-0.2,0.2-0.3,0.5-0.3,0.9s0.1,0.6,0.3,0.9c0.2,0.2,0.5,0.4,0.9,0.4
	C25.5,99,25.9,98.8,26.1,98.4z M29.1,97.8l1.8,2h-1l-1.6-1.8v1.8h-0.8v-5.5h0.8v3.3l1.5-1.7h1L29.1,97.8z M35.2,95.7
	c-0.6,0-1.1,0.2-1.5,0.6s-0.6,0.9-0.6,1.5s0.2,1.1,0.6,1.5s0.9,0.6,1.5,0.6c0.6,0,1.1-0.2,1.5-0.6s0.6-0.9,0.6-1.5s-0.2-1.1-0.6-1.5
	S35.8,95.7,35.2,95.7z M36.1,98.7c-0.2,0.2-0.5,0.4-0.9,0.4s-0.6-0.1-0.9-0.4c-0.2-0.2-0.4-0.5-0.4-0.9s0.1-0.6,0.4-0.9
	c0.2-0.2,0.5-0.4,0.9-0.4s0.6,0.1,0.9,0.4c0.2,0.2,0.4,0.5,0.4,0.9S36.4,98.4,36.1,98.7z M40,94.2V95c-0.6-0.1-0.9,0.2-0.9,0.8v0.1
	H40v0.8h-0.9v3.1h-0.8v-3.1h-0.6v-0.8h0.6v-0.1C38.2,94.7,38.8,94.1,40,94.2z M44.5,95.8v0.9c-0.3,0-0.6,0.1-0.8,0.2
	c-0.2,0.2-0.4,0.5-0.4,0.9v2h-0.8v-3.9h0.8v0.7C43.5,96,43.9,95.8,44.5,95.8z M48,96.4c-0.3-0.4-0.8-0.7-1.4-0.7
	c-0.5,0-1,0.2-1.4,0.6s-0.6,0.9-0.6,1.5c0,0.6,0.2,1.1,0.6,1.5s0.8,0.6,1.4,0.6c0.6,0,1-0.2,1.4-0.7v0.6h0.8v-3.9H48V96.4z
	 M47.7,98.7c-0.2,0.2-0.5,0.4-0.9,0.4s-0.6-0.1-0.9-0.4c-0.2-0.2-0.4-0.5-0.4-0.9s0.1-0.7,0.4-0.9c0.2-0.2,0.5-0.4,0.9-0.4
	s0.6,0.1,0.9,0.4c0.2,0.2,0.4,0.5,0.4,0.9S47.9,98.5,47.7,98.7z M51.1,95.8h1v0.8h-1v1.9c0,0.5,0.3,0.5,1,0.5v0.8
	c-1.3,0.2-1.8-0.2-1.8-1.2v-1.9h-0.7v-0.8h0.7V95l0.8-0.2V95.8z M53.6,94.3c0.2,0.2,0.2,0.5,0,0.8c-0.2,0.2-0.5,0.2-0.8,0
	c-0.2-0.2-0.2-0.5,0-0.8C53.1,94.1,53.4,94.1,53.6,94.3z M52.8,95.8h0.8v3.9h-0.8V95.8z M58.2,97.4v2.4h-0.8v-2.3
	c0-0.6-0.3-0.9-0.9-0.9c-0.6,0-1,0.4-1,1.1v2.1h-0.8v-3.9h0.8v0.5c0.3-0.4,0.7-0.6,1.2-0.6C57.6,95.7,58.2,96.4,58.2,97.4z
	 M62.2,96.4c-0.3-0.5-0.8-0.7-1.4-0.7c-0.6,0-1,0.2-1.4,0.6c-0.4,0.4-0.6,0.9-0.6,1.4s0.2,1,0.6,1.4c0.4,0.4,0.8,0.6,1.4,0.6
	c0.6,0,1-0.2,1.4-0.7v0.5c0,0.7-0.4,1.1-1.2,1.1c-0.6,0-0.9-0.2-1.1-0.6l-0.7,0.4c0.3,0.6,1,0.9,1.9,0.9c0.6,0,1-0.2,1.4-0.5
	c0.4-0.3,0.6-0.8,0.6-1.4v-3.7h-0.8V96.4z M61.9,98.6C61.6,98.9,61.3,99,61,99c-0.4,0-0.6-0.1-0.9-0.4c-0.2-0.2-0.4-0.5-0.4-0.9
	s0.1-0.6,0.4-0.9c0.2-0.2,0.5-0.4,0.9-0.4c0.4,0,0.7,0.1,0.9,0.4c0.2,0.2,0.4,0.5,0.4,0.9S62.1,98.4,61.9,98.6z M66.9,98.7
	c0,0.4-0.1,0.7-0.4,0.9c-0.3,0.2-0.7,0.3-1.1,0.3c-0.8,0-1.3-0.3-1.6-0.9l0.7-0.4c0.1,0.4,0.4,0.6,0.9,0.6c0.4,0,0.7-0.1,0.7-0.4
	c0-0.3-0.3-0.4-0.7-0.5c-0.6-0.1-1.4-0.4-1.4-1.2c0-0.4,0.1-0.6,0.4-0.9c0.3-0.2,0.6-0.3,1-0.3c0.7,0,1.2,0.3,1.4,0.8L66.1,97
	c-0.1-0.3-0.4-0.4-0.7-0.4c-0.3,0-0.6,0.1-0.6,0.4c0,0.3,0.3,0.4,0.7,0.5C66.1,97.6,66.9,97.8,66.9,98.7z"/>
<path class="st3" d="M478.2,198.8h-72.1c-1.6,0-2.8-1.3-2.8-2.8v-42.4c0-1.6,1.3-2.8,2.8-2.8h72.1c1.6,0,2.8,1.3,2.8,2.8V196
	C481,197.5,479.7,198.8,478.2,198.8z"/>
<path class="st4" d="M478.2,199.8h-72.1c-2.1,0-3.8-1.7-3.8-3.8v-42.4c0-2.1,1.7-3.8,3.8-3.8h72.1c2.1,0,3.8,1.7,3.8,3.8V196
	C482,198.1,480.3,199.8,478.2,199.8z M406.1,151.7c-1,0-1.8,0.8-1.8,1.8V196c0,1,0.8,1.8,1.8,1.8h72.1c1,0,1.8-0.8,1.8-1.8v-42.4
	c0-1-0.8-1.8-1.8-1.8H406.1z"/>
<path class="st3" d="M473.6,194.1h-72.1c-1.6,0-2.8-1.3-2.8-2.8v-42.4c0-1.6,1.3-2.8,2.8-2.8h72.1c1.6,0,2.8,1.3,2.8,2.8v42.4
	C476.4,192.9,475.1,194.1,473.6,194.1z"/>
<path class="st4" d="M473.6,195.1h-72.1c-2.1,0-3.8-1.7-3.8-3.8v-42.4c0-2.1,1.7-3.8,3.8-3.8h72.1c2.1,0,3.8,1.7,3.8,3.8v42.4
	C477.4,193.4,475.7,195.1,473.6,195.1z M401.5,147c-1,0-1.8,0.8-1.8,1.8v42.4c0,1,0.8,1.8,1.8,1.8h72.1c1,0,1.8-0.8,1.8-1.8v-42.4
	c0-1-0.8-1.8-1.8-1.8H401.5z"/>
<path class="st3" d="M468.9,189.5h-72.1c-1.6,0-2.8-1.3-2.8-2.8v-42.4c0-1.6,1.3-2.8,2.8-2.8h72.1c1.6,0,2.8,1.3,2.8,2.8v42.4
	C471.7,188.2,470.4,189.5,468.9,189.5z"/>
<path class="st4" d="M468.9,190.5h-72.1c-2.1,0-3.8-1.7-3.8-3.8v-42.4c0-2.1,1.7-3.8,3.8-3.8h72.1c2.1,0,3.8,1.7,3.8,3.8v42.4
	C472.7,188.8,471,190.5,468.9,190.5z M396.8,142.4c-1,0-1.8,0.8-1.8,1.8v42.4c0,1,0.8,1.8,1.8,1.8h72.1c1,0,1.8-0.8,1.8-1.8v-42.4
	c0-1-0.8-1.8-1.8-1.8H396.8z"/>
<path class="st4" d="M29.5,164.2H28v-6.3h3.8v1.4h-2.4v1.2h2.3v1.4h-2.3V164.2z M34.3,164.3c0.6,0,1-0.2,1.3-0.5v0.4h1.4v-4.5h-1.4
	v2.5c0,0.6-0.3,0.9-0.8,0.9c-0.4,0-0.8-0.3-0.8-0.8v-2.6h-1.4v2.8C32.6,163.7,33.4,164.3,34.3,164.3z M39.3,161.7
	c0-0.6,0.3-0.9,0.8-0.9c0.4,0,0.8,0.3,0.8,0.8v2.6h1.4v-2.8c0-1.2-0.8-1.9-1.7-1.9c-0.6,0-1,0.2-1.3,0.5v-0.4h-1.4v4.5h1.4V161.7z
	 M42.9,162c0-1.3,1-2.4,2.2-2.4c0.6,0,1,0.2,1.3,0.5v-2.2h1.4v6.3h-1.4v-0.4c-0.3,0.3-0.7,0.5-1.3,0.5
	C43.9,164.3,42.9,163.3,42.9,162z M44.3,162c0,0.7,0.5,1.1,1.1,1.1s1.1-0.4,1.1-1.1c0-0.7-0.5-1.1-1.1-1.1S44.3,161.3,44.3,162z
	 M50,161c0-0.2,0.1-0.3,0.4-0.3c0.3,0,0.5,0.2,0.6,0.4l1.2-0.6c-0.4-0.6-1-1-1.8-1c-0.9,0-1.8,0.5-1.8,1.5c0,1.6,2.2,1.3,2.2,1.8
	c0,0.2-0.2,0.3-0.5,0.3c-0.4,0-0.6-0.2-0.8-0.5l-1.2,0.7c0.4,0.7,1,1.1,1.9,1.1c1,0,1.9-0.4,1.9-1.5C52.2,161.2,50,161.5,50,161z
	 M25.2,173.7l0.8,0.9l-1.1,0.6l-0.6-0.6c-0.4,0.3-1,0.5-1.6,0.5c-1.3,0-2.3-0.7-2.3-1.9c0-0.7,0.4-1.4,1-1.8c-0.2-0.3-0.3-0.6-0.3-1
	c0-1.1,0.8-1.8,2-1.8c0.9,0,1.7,0.5,2.1,1.4l-1.2,0.7c-0.2-0.4-0.4-0.7-0.8-0.7c-0.4,0-0.6,0.2-0.6,0.5c0,0.4,0.2,0.6,0.5,0.9
	l1.2,1.3c0.1-0.3,0.2-0.6,0.3-1l1.2,0.7C25.7,172.8,25.5,173.3,25.2,173.7z M23.5,173.7l-1.2-1.2l-0.1-0.1c-0.2,0.2-0.3,0.5-0.3,0.7
	c0,0.4,0.3,0.7,0.9,0.7C23.1,173.8,23.3,173.8,23.5,173.7z M28.6,170.1h1.6v4.9h1.4v-4.9h1.6v-1.4h-4.7V170.1z M34.6,171.3v-0.8
	h-1.4v4.5h1.4v-2c0-0.9,0.8-1.1,1.3-1v-1.5C35.4,170.4,34.8,170.7,34.6,171.3z M39.7,170.5h1.4v4.5h-1.4v-0.4
	c-0.3,0.3-0.7,0.5-1.3,0.5c-1.2,0-2.2-1-2.2-2.4c0-1.3,1-2.4,2.2-2.4c0.6,0,1,0.2,1.3,0.5V170.5z M39.7,172.8c0-0.7-0.5-1.1-1.1-1.1
	s-1.1,0.4-1.1,1.1c0,0.7,0.5,1.1,1.1,1.1S39.7,173.4,39.7,172.8z M45.4,168.7h1.3v6.3h-1.3v-0.4c-0.3,0.3-0.7,0.5-1.3,0.5
	c-1.2,0-2.2-1-2.2-2.4c0-1.3,1-2.4,2.2-2.4c0.6,0,1,0.2,1.3,0.5V168.7z M45.4,172.8c0-0.7-0.5-1.1-1.1-1.1s-1.1,0.4-1.1,1.1
	c0,0.7,0.5,1.1,1.1,1.1S45.4,173.4,45.4,172.8z M52.2,172.8c0,0.2,0,0.4-0.1,0.5h-3.2c0.2,0.5,0.6,0.6,1.1,0.6
	c0.4,0,0.7-0.1,0.9-0.3l1.1,0.6c-0.4,0.6-1.1,0.9-2,0.9c-1.5,0-2.5-1-2.5-2.4c0-1.3,1-2.4,2.4-2.4C51.2,170.4,52.2,171.4,52.2,172.8
	z M50.8,172.3c-0.1-0.5-0.5-0.7-1-0.7c-0.5,0-0.9,0.3-1,0.7H50.8z M54.3,171.3v-0.8h-1.4v4.5h1.4v-2c0-0.9,0.8-1.1,1.3-1v-1.5
	C55,170.4,54.4,170.7,54.3,171.3z M57.4,171.8c0-0.2,0.1-0.3,0.4-0.3c0.3,0,0.5,0.2,0.6,0.4l1.2-0.6c-0.4-0.6-1-1-1.8-1
	c-0.9,0-1.8,0.5-1.8,1.5c0,1.6,2.2,1.3,2.2,1.8c0,0.2-0.2,0.3-0.5,0.3c-0.4,0-0.6-0.2-0.8-0.5l-1.2,0.7c0.4,0.7,1,1.1,1.9,1.1
	c1,0,1.9-0.4,1.9-1.5C59.6,172,57.4,172.3,57.4,171.8z M414.7,168.9h1.4v-6.3h-1.4V168.9z M419.8,164.2c-0.6,0-1,0.2-1.3,0.5v-0.4
	h-1.4v4.5h1.4v-2.5c0-0.6,0.3-0.9,0.8-0.9c0.4,0,0.8,0.3,0.8,0.8v2.6h1.4v-2.8C421.5,164.9,420.7,164.2,419.8,164.2z M424.3,167.2
	l-0.9-2.9h-1.5l1.7,4.5h1.5l1.7-4.5h-1.5L424.3,167.2z M431.5,166.6c0,0.2,0,0.4-0.1,0.5h-3.2c0.2,0.5,0.6,0.6,1.1,0.6
	c0.4,0,0.7-0.1,0.9-0.3l1.1,0.6c-0.4,0.6-1.1,0.9-2,0.9c-1.5,0-2.5-1-2.5-2.4s1-2.4,2.4-2.4C430.5,164.2,431.5,165.3,431.5,166.6z
	 M430.2,166.1c-0.1-0.5-0.5-0.7-1-0.7c-0.5,0-0.9,0.3-1,0.7H430.2z M433.4,165.7c0-0.2,0.1-0.3,0.4-0.3c0.3,0,0.5,0.2,0.6,0.4
	l1.2-0.6c-0.4-0.6-1-1-1.8-1c-0.9,0-1.8,0.5-1.8,1.5c0,1.6,2.2,1.3,2.2,1.8c0,0.2-0.2,0.3-0.5,0.3c-0.4,0-0.6-0.2-0.8-0.5l-1.2,0.7
	c0.4,0.7,1,1.1,1.9,1.1c1,0,1.9-0.4,1.9-1.5C435.6,165.8,433.4,166.2,433.4,165.7z M437.8,163.1l-1.4,0.4v0.9h-0.7v1.3h0.7v1.6
	c0,1.3,0.5,1.8,2.3,1.6v-1.2c-0.6,0-0.9,0-0.9-0.4v-1.6h0.9v-1.3h-0.9V163.1z M444,166.6c0,1.3-1.1,2.4-2.4,2.4
	c-1.3,0-2.4-1-2.4-2.4s1.1-2.4,2.4-2.4C442.9,164.2,444,165.3,444,166.6z M442.6,166.6c0-0.6-0.5-1.1-1-1.1c-0.6,0-1,0.4-1,1.1
	c0,0.6,0.5,1.1,1,1.1C442.2,167.7,442.6,167.3,442.6,166.6z M446.1,165.2v-0.8h-1.4v4.5h1.4v-2c0-0.9,0.8-1.1,1.4-1v-1.5
	C446.9,164.3,446.3,164.6,446.1,165.2z M449.2,165.7c0-0.2,0.1-0.3,0.4-0.3c0.3,0,0.5,0.2,0.6,0.4l1.2-0.6c-0.4-0.6-1-1-1.8-1
	c-0.9,0-1.8,0.5-1.8,1.5c0,1.6,2.2,1.3,2.2,1.8c0,0.2-0.2,0.3-0.5,0.3c-0.4,0-0.6-0.2-0.8-0.5l-1.2,0.7c0.4,0.7,1,1.1,1.9,1.1
	c1,0,1.9-0.4,1.9-1.5C451.4,165.8,449.2,166.2,449.2,165.7z"/>
<path class="st7" d="M238.7,187.6"/>
<path class="st2" d="M313.4,197.3H168.1c-1.6,0-2.8-1.3-2.8-2.8V94.9c0-1.6,1.3-2.8,2.8-2.8h145.3c1.6,0,2.8,1.3,2.8,2.8v99.5
	C316.3,196,315,197.3,313.4,197.3z"/>
<path class="st2" d="M313.4,198.3H168.1c-2.1,0-3.8-1.7-3.8-3.8V94.9c0-2.1,1.7-3.8,3.8-3.8h145.3c2.1,0,3.8,1.7,3.8,3.8v99.5
	C317.3,196.6,315.6,198.3,313.4,198.3z M168.1,93.1c-1,0-1.8,0.8-1.8,1.8v99.5c0,1,0.8,1.8,1.8,1.8h145.3c1,0,1.8-0.8,1.8-1.8V94.9
	c0-1-0.8-1.8-1.8-1.8H168.1z"/>
<path class="st3" d="M181.8,113.8h-1.6v-6.8h1.6v3l2.1-3h1.8l-2.3,3.3l2.4,3.5H184l-2.2-3.2V113.8z M188.1,113.8h1.6v-2.6l2.3-4.2
	h-1.8l-1.3,2.6l-1.3-2.6h-1.8l2.3,4.2V113.8z M195.3,113.9c1.2,0,2.3-0.6,2.9-1.6l-1.3-0.8c-0.3,0.5-0.9,0.8-1.6,0.8
	c-1.2,0-2-0.8-2-2s0.8-2,2-2c0.7,0,1.3,0.3,1.6,0.8l1.3-0.8c-0.6-1-1.7-1.6-2.9-1.6c-2.1,0-3.5,1.5-3.5,3.5S193.2,113.9,195.3,113.9
	z M184.3,126.3h-2.4v-5.3h-1.6v6.8h4V126.3z M189.6,125.9h-3.5c0.2,0.5,0.6,0.7,1.2,0.7c0.4,0,0.7-0.2,0.9-0.4l1.2,0.7
	c-0.5,0.7-1.2,1-2.1,1c-1.7,0-2.7-1.1-2.7-2.6c0-1.5,1.1-2.6,2.6-2.6c1.4,0,2.5,1.1,2.5,2.6C189.7,125.5,189.6,125.7,189.6,125.9z
	 M188.2,124.8c-0.2-0.6-0.6-0.8-1-0.8c-0.6,0-0.9,0.3-1.1,0.8H188.2z M192.9,129.8c-1,0-1.9-0.4-2.3-1.2l1.2-0.7
	c0.2,0.3,0.5,0.6,1.1,0.6c0.7,0,1.1-0.4,1.1-1v-0.4c-0.3,0.4-0.8,0.6-1.4,0.6c-1.4,0-2.4-1.1-2.4-2.5s1-2.5,2.4-2.5
	c0.6,0,1.1,0.2,1.4,0.6v-0.5h1.4v4.6C195.5,129.1,194.2,129.8,192.9,129.8z M194,125.2c0-0.7-0.5-1.1-1.2-1.1s-1.2,0.5-1.2,1.1
	s0.5,1.1,1.2,1.1S194,125.9,194,125.2z M198.6,122.7c0.7,0,1.1,0.2,1.5,0.6v-0.5h1.5v4.9h-1.5v-0.5c-0.3,0.4-0.8,0.6-1.5,0.6
	c-1.3,0-2.3-1.1-2.3-2.6C196.3,123.9,197.3,122.7,198.6,122.7z M197.7,125.3c0,0.7,0.5,1.2,1.2,1.2c0.7,0,1.2-0.5,1.2-1.2
	c0-0.7-0.5-1.2-1.2-1.2C198.2,124.1,197.7,124.6,197.7,125.3z M204.1,120.6h-1.5v7.1h1.5V120.6z M181.8,141.8h-1.6v-6.8h2.7
	c1.3,0,2.3,1,2.3,2.3c0,0.8-0.5,1.6-1.3,2l1.5,2.5h-1.7l-1.3-2.2h-0.7V141.8z M181.8,138.1h1.2c0.4,0,0.8-0.4,0.8-0.9
	s-0.4-0.9-0.8-0.9h-1.2V138.1z M185.7,139.3c0-1.5,1.1-2.6,2.3-2.6c0.7,0,1.1,0.2,1.5,0.6v-0.5h1.5v4.9h-1.5v-0.5
	c-0.3,0.4-0.8,0.6-1.5,0.6C186.8,141.9,185.7,140.8,185.7,139.3z M187.2,139.3c0,0.7,0.5,1.2,1.2,1.2c0.7,0,1.2-0.5,1.2-1.2
	c0-0.7-0.5-1.2-1.2-1.2C187.7,138.1,187.2,138.6,187.2,139.3z M194.9,140.4c-0.6,0-1,0-1-0.4v-1.7h1v-1.4h-1v-1.4l-1.5,0.4v0.9h-0.8
	v1.4h0.8v1.7c0,1.4,0.6,1.9,2.5,1.7V140.4z M196.5,134.7c-0.5,0-0.9,0.4-0.9,0.9c0,0.5,0.4,0.9,0.9,0.9c0.5,0,0.9-0.4,0.9-0.9
	C197.3,135.1,196.9,134.7,196.5,134.7z M195.7,141.8h1.5v-4.9h-1.5V141.8z M199.7,137.3v-0.5h-1.5v4.9h1.5v-2.7c0-0.7,0.4-1,0.9-1
	c0.5,0,0.8,0.3,0.8,0.9v2.8h1.5v-3c0-1.3-0.8-2-1.8-2C200.5,136.7,200,137,199.7,137.3z M203.7,139.2c0-1.3,1-2.5,2.4-2.5
	c0.6,0,1.1,0.2,1.4,0.6v-0.5h1.4v4.6c0,1.6-1.3,2.3-2.6,2.3c-1,0-1.9-0.4-2.3-1.2l1.2-0.7c0.2,0.3,0.5,0.6,1.1,0.6
	c0.7,0,1.1-0.4,1.1-1v-0.4c-0.3,0.4-0.8,0.6-1.4,0.6C204.7,141.7,203.7,140.6,203.7,139.2z M205.2,139.2c0,0.7,0.5,1.1,1.2,1.1
	c0.7,0,1.2-0.5,1.2-1.1s-0.5-1.1-1.2-1.1C205.7,138.1,205.2,138.5,205.2,139.2z M211.7,140.6c-0.4,0-0.7-0.2-0.8-0.6l-1.3,0.7
	c0.4,0.8,1.1,1.2,2.1,1.2c1.1,0,2-0.5,2-1.6c0-1.8-2.4-1.4-2.4-2c0-0.2,0.2-0.3,0.4-0.3c0.3,0,0.5,0.2,0.7,0.4l1.2-0.7
	c-0.4-0.7-1.1-1-1.9-1c-1,0-1.9,0.5-1.9,1.6c0,1.7,2.4,1.4,2.4,1.9C212.3,140.5,212.1,140.6,211.7,140.6z M182.7,154.4
	c-0.8,0-1.2-0.4-1.4-0.9l-1.3,0.8c0.4,1,1.3,1.7,2.7,1.7c1.5,0,2.5-0.8,2.5-2.1c0-1.4-1.2-1.8-2.2-2.1c-1.1-0.3-1.2-0.5-1.2-0.8
	c0-0.3,0.2-0.5,0.7-0.5c0.6,0,0.9,0.3,1.2,0.8l1.3-0.8c-0.5-1-1.4-1.5-2.5-1.5c-1.2,0-2.3,0.8-2.3,2.1c0,1.3,1,1.8,2,2.1
	c1,0.3,1.4,0.4,1.4,0.9C183.6,154.1,183.4,154.4,182.7,154.4z M188.4,155.9c-1.4,0-2.6-1.1-2.6-2.6c0-1.5,1.2-2.6,2.6-2.6
	c1.4,0,2.6,1.1,2.6,2.6C191,154.8,189.8,155.9,188.4,155.9z M189.5,153.3c0-0.7-0.5-1.2-1.1-1.2c-0.6,0-1.1,0.5-1.1,1.2
	s0.5,1.2,1.1,1.2C189,154.5,189.5,154,189.5,153.3z M194.3,150.2v-1.4c-1.6-0.1-2.4,0.7-2.4,2.1h-0.7v1.4h0.7v3.5h1.5v-3.5h0.9v-1.4
	h-0.9C193.4,150.3,193.8,150.1,194.3,150.2z M197.9,152.3v-1.4h-1v-1.4l-1.5,0.4v0.9h-0.8v1.4h0.8v1.7c0,1.4,0.6,1.9,2.5,1.7v-1.3
	c-0.6,0-1,0-1-0.4v-1.7H197.9z M203.5,153.5l-0.8-2.6h-1.4l-0.8,2.6l-0.7-2.6h-1.6l1.6,4.9h1.4l0.8-2.6l0.8,2.6h1.4l1.6-4.9h-1.6
	L203.5,153.5z M209.7,155.3c-0.3,0.4-0.8,0.6-1.5,0.6c-1.3,0-2.3-1.1-2.3-2.6c0-1.5,1.1-2.6,2.3-2.6c0.7,0,1.1,0.2,1.5,0.6v-0.5h1.5
	v4.9h-1.5V155.3z M209.7,153.3c0-0.7-0.5-1.2-1.2-1.2s-1.2,0.5-1.2,1.2c0,0.7,0.5,1.2,1.2,1.2S209.7,154,209.7,153.3z M213.7,150.9
	h-1.5v4.9h1.5v-2.2c0-1,0.9-1.2,1.5-1.1v-1.7c-0.6,0-1.3,0.3-1.5,1V150.9z M215.4,153.3c0-1.5,1.1-2.6,2.6-2.6
	c1.4,0,2.5,1.1,2.5,2.6c0,0.2,0,0.4-0.1,0.6H217c0.2,0.5,0.6,0.7,1.2,0.7c0.4,0,0.7-0.2,0.9-0.4l1.2,0.7c-0.5,0.7-1.2,1-2.1,1
	C216.5,155.9,215.4,154.8,215.4,153.3z M217,152.8h2.1c-0.2-0.6-0.6-0.8-1-0.8C217.5,152,217.1,152.3,217,152.8z M181.5,169.8h1.6
	v-5.3h1.8v-1.5h-5.1v1.5h1.8V169.8z M186.9,164.7c1.4,0,2.6,1.1,2.6,2.6c0,1.5-1.2,2.6-2.6,2.6c-1.4,0-2.6-1.1-2.6-2.6
	C184.4,165.9,185.5,164.7,186.9,164.7z M186.9,166.2c-0.6,0-1.1,0.5-1.1,1.2s0.5,1.2,1.1,1.2s1.1-0.5,1.1-1.2
	S187.6,166.2,186.9,166.2z M193.2,167.3l1.8-2.4h-1.7l-1.5,2.1v-4.1h-1.5v6.8h1.5v-2.2l1.6,2.2h1.7L193.2,167.3z M200.1,167.3
	c0,0.2,0,0.4-0.1,0.6h-3.5c0.2,0.5,0.6,0.7,1.2,0.7c0.4,0,0.7-0.2,0.9-0.4l1.2,0.7c-0.5,0.7-1.2,1-2.1,1c-1.7,0-2.7-1.1-2.7-2.6
	c0-1.5,1.1-2.6,2.6-2.6C199.1,164.7,200.1,165.8,200.1,167.3z M198.7,166.8c-0.2-0.6-0.6-0.8-1-0.8c-0.6,0-0.9,0.3-1.1,0.8H198.7z
	 M204.2,167v2.8h1.5v-3c0-1.3-0.8-2-1.8-2c-0.6,0-1.1,0.2-1.4,0.6v-0.5h-1.5v4.9h1.5v-2.7c0-0.7,0.4-1,0.9-1
	C203.8,166.1,204.2,166.4,204.2,167z M207.4,162.7c-0.5,0-0.9,0.4-0.9,0.9c0,0.5,0.4,0.9,0.9,0.9c0.5,0,0.9-0.4,0.9-0.9
	C208.2,163.1,207.8,162.7,207.4,162.7z M206.6,169.8h1.5v-4.9h-1.5V169.8z M212.9,168.4H211l1.8-2.5v-1h-3.7v1.4h1.7l-1.8,2.5v1h3.9
	V168.4z M217,169.8v-0.5c-0.3,0.4-0.8,0.6-1.5,0.6c-1.3,0-2.3-1.1-2.3-2.6c0-1.5,1.1-2.6,2.3-2.6c0.7,0,1.1,0.2,1.5,0.6v-0.5h1.5
	v4.9H217z M217,167.3c0-0.7-0.5-1.2-1.2-1.2c-0.7,0-1.2,0.5-1.2,1.2c0,0.7,0.5,1.2,1.2,1.2C216.6,168.5,217,168,217,167.3z M220,168
	c0,1.4,0.6,1.9,2.5,1.7v-1.3c-0.6,0-1,0-1-0.4v-1.7h1v-1.4h-1v-1.4L220,164v0.9h-0.8v1.4h0.8V168z M224,162.7
	c-0.5,0-0.9,0.4-0.9,0.9c0,0.5,0.4,0.9,0.9,0.9s0.9-0.4,0.9-0.9C224.9,163.1,224.5,162.7,224,162.7z M223.3,169.8h1.5v-4.9h-1.5
	V169.8z M228.1,164.7c1.4,0,2.6,1.1,2.6,2.6c0,1.5-1.2,2.6-2.6,2.6s-2.6-1.1-2.6-2.6C225.6,165.9,226.7,164.7,228.1,164.7z
	 M228.1,166.2c-0.6,0-1.1,0.5-1.1,1.2s0.5,1.2,1.1,1.2s1.1-0.5,1.1-1.2S228.8,166.2,228.1,166.2z M236.2,169.8v-3c0-1.3-0.8-2-1.8-2
	c-0.6,0-1.1,0.2-1.4,0.6v-0.5h-1.5v4.9h1.5v-2.7c0-0.7,0.4-1,0.9-1c0.5,0,0.8,0.3,0.8,0.9v2.8H236.2z M183,179.7
	c-1.1-0.3-1.2-0.5-1.2-0.8c0-0.3,0.2-0.5,0.7-0.5c0.6,0,0.9,0.3,1.2,0.8l1.3-0.8c-0.5-1-1.4-1.5-2.5-1.5c-1.2,0-2.3,0.8-2.3,2.1
	c0,1.3,1,1.8,2,2.1c1,0.3,1.4,0.4,1.4,0.9c0,0.3-0.2,0.6-0.9,0.6c-0.8,0-1.2-0.4-1.4-0.9l-1.3,0.8c0.4,1,1.3,1.7,2.7,1.7
	c1.5,0,2.5-0.8,2.5-2.1C185.2,180.3,184,180,183,179.7z M191.4,178.7c-0.7,0-1.1,0.3-1.4,0.6c-0.3-0.4-0.7-0.6-1.3-0.6
	c-0.7,0-1.1,0.3-1.3,0.6v-0.4h-1.5v4.9h1.5V181c0-0.6,0.3-0.9,0.8-0.9c0.5,0,0.7,0.3,0.7,0.8v2.9h1.5V181c0-0.6,0.3-0.9,0.8-0.9
	c0.5,0,0.7,0.3,0.7,0.8v2.9h1.5v-3C193.2,179.5,192.5,178.7,191.4,178.7z M197.8,178.9h1.5v4.9h-1.5v-0.5c-0.3,0.4-0.8,0.6-1.5,0.6
	c-1.3,0-2.3-1.1-2.3-2.6c0-1.5,1.1-2.6,2.3-2.6c0.7,0,1.1,0.2,1.5,0.6V178.9z M197.8,181.3c0-0.7-0.5-1.2-1.2-1.2
	c-0.7,0-1.2,0.5-1.2,1.2c0,0.7,0.5,1.2,1.2,1.2C197.3,182.5,197.8,182,197.8,181.3z M201.8,179.7v-0.9h-1.5v4.9h1.5v-2.2
	c0-1,0.9-1.2,1.5-1.1v-1.7C202.6,178.8,202,179.1,201.8,179.7z M205.9,177.5l-1.5,0.4v0.9h-0.8v1.4h0.8v1.7c0,1.4,0.6,1.9,2.5,1.7
	v-1.3c-0.6,0-1,0-1-0.4v-1.7h1v-1.4h-1V177.5z M207.8,181.5h3.7v-1.4h-3.7V181.5z M215.9,178.3c0.7,0,1.3,0.3,1.6,0.8l1.3-0.8
	c-0.6-1-1.7-1.6-2.9-1.6c-2.1,0-3.5,1.5-3.5,3.5s1.5,3.5,3.5,3.5c1.2,0,2.3-0.6,2.9-1.6l-1.3-0.8c-0.3,0.5-0.9,0.8-1.6,0.8
	c-1.2,0-2-0.8-2-2S214.7,178.3,215.9,178.3z M224.5,181.3c0,1.5-1.2,2.6-2.6,2.6c-1.4,0-2.6-1.1-2.6-2.6c0-1.5,1.2-2.6,2.6-2.6
	C223.4,178.7,224.5,179.9,224.5,181.3z M223.1,181.3c0-0.7-0.5-1.2-1.1-1.2c-0.6,0-1.1,0.5-1.1,1.2s0.5,1.2,1.1,1.2
	C222.6,182.5,223.1,182,223.1,181.3z M228.2,178.7c-0.6,0-1.1,0.2-1.4,0.6v-0.5h-1.5v4.9h1.5v-2.7c0-0.7,0.4-1,0.9-1
	c0.5,0,0.8,0.3,0.8,0.9v2.8h1.5v-3C230,179.4,229.2,178.7,228.2,178.7z M232.9,177.5l-1.5,0.4v0.9h-0.8v1.4h0.8v1.7
	c0,1.4,0.6,1.9,2.5,1.7v-1.3c-0.6,0-1,0-1-0.4v-1.7h1v-1.4h-1V177.5z M236.3,179.7v-0.9h-1.5v4.9h1.5v-2.2c0-1,0.9-1.2,1.5-1.1v-1.7
	C237.1,178.8,236.5,179.1,236.3,179.7z M241.8,178.9h1.5v4.9h-1.5v-0.5c-0.3,0.4-0.8,0.6-1.5,0.6c-1.3,0-2.3-1.1-2.3-2.6
	c0-1.5,1.1-2.6,2.3-2.6c0.7,0,1.1,0.2,1.5,0.6V178.9z M241.8,181.3c0-0.7-0.5-1.2-1.2-1.2s-1.2,0.5-1.2,1.2c0,0.7,0.5,1.2,1.2,1.2
	S241.8,182,241.8,181.3z M246.7,180.2c0.4,0,0.8,0.2,0.9,0.5l1.3-0.7c-0.4-0.8-1.3-1.2-2.2-1.2c-1.5,0-2.6,1.1-2.6,2.6
	c0,1.5,1.1,2.6,2.6,2.6c1,0,1.8-0.5,2.2-1.3l-1.3-0.7c-0.2,0.3-0.5,0.5-0.9,0.5c-0.6,0-1.1-0.5-1.1-1.1S246.1,180.2,246.7,180.2z
	 M251.4,177.5l-1.5,0.4v0.9h-0.8v1.4h0.8v1.7c0,1.4,0.6,1.9,2.5,1.7v-1.3c-0.6,0-1,0-1-0.4v-1.7h1v-1.4h-1V177.5z M254.5,180.3
	c0-0.2,0.2-0.3,0.4-0.3c0.3,0,0.5,0.2,0.7,0.4l1.2-0.7c-0.4-0.7-1.1-1-1.9-1c-1,0-1.9,0.5-1.9,1.6c0,1.7,2.4,1.4,2.4,1.9
	c0,0.2-0.2,0.3-0.5,0.3c-0.4,0-0.7-0.2-0.8-0.6l-1.3,0.7c0.4,0.8,1.1,1.2,2.1,1.2c1.1,0,2-0.5,2-1.6
	C256.9,180.5,254.5,180.9,254.5,180.3z M224.2,113.8h-1.7l2.3-6.8h2l2.3,6.8h-1.7l-0.3-1.1h-2.5L224.2,113.8z M225,111.2h1.6
	l-0.8-2.5L225,111.2z M231.1,115.7h-1.5v-6.8h1.5v0.5c0.3-0.4,0.8-0.6,1.5-0.6c1.3,0,2.3,1.1,2.3,2.6c0,1.5-1.1,2.6-2.3,2.6
	c-0.7,0-1.1-0.2-1.5-0.6V115.7z M231.1,111.3c0,0.7,0.5,1.2,1.2,1.2c0.7,0,1.2-0.5,1.2-1.2c0-0.7-0.5-1.2-1.2-1.2
	C231.6,110.1,231.1,110.6,231.1,111.3z M237.2,115.7h-1.5v-6.8h1.5v0.5c0.3-0.4,0.8-0.6,1.5-0.6c1.3,0,2.3,1.1,2.3,2.6
	c0,1.5-1.1,2.6-2.3,2.6c-0.7,0-1.1-0.2-1.5-0.6V115.7z M237.2,111.3c0,0.7,0.5,1.2,1.2,1.2s1.2-0.5,1.2-1.2c0-0.7-0.5-1.2-1.2-1.2
	S237.2,110.6,237.2,111.3z M243.3,111.5c0-1,0.9-1.2,1.5-1.1v-1.7c-0.6,0-1.3,0.3-1.5,1v-0.9h-1.5v4.9h1.5V111.5z M245,111.3
	c0-1.5,1.2-2.6,2.6-2.6s2.6,1.1,2.6,2.6c0,1.5-1.2,2.6-2.6,2.6S245,112.8,245,111.3z M246.5,111.3c0,0.7,0.5,1.2,1.1,1.2
	s1.1-0.5,1.1-1.2s-0.5-1.2-1.1-1.2S246.5,110.6,246.5,111.3z M253.7,113.8l1.8-4.9h-1.6l-1,3.1l-1-3.1h-1.6l1.8,4.9H253.7z
	 M255.6,111.3c0-1.5,1.1-2.6,2.6-2.6c1.4,0,2.5,1.1,2.5,2.6c0,0.2,0,0.4-0.1,0.6h-3.5c0.2,0.5,0.6,0.7,1.2,0.7
	c0.4,0,0.7-0.2,0.9-0.4l1.2,0.7c-0.5,0.7-1.2,1-2.1,1C256.7,113.9,255.6,112.8,255.6,111.3z M257.2,110.8h2.1
	c-0.2-0.6-0.6-0.8-1-0.8C257.7,110,257.3,110.3,257.2,110.8z M261.3,111.3c0-1.5,1.1-2.6,2.3-2.6c0.7,0,1.1,0.2,1.5,0.6v-2.4h1.5
	v6.8H265v-0.5c-0.3,0.4-0.8,0.6-1.5,0.6C262.3,113.9,261.3,112.8,261.3,111.3z M262.7,111.3c0,0.7,0.5,1.2,1.2,1.2
	c0.7,0,1.2-0.5,1.2-1.2c0-0.7-0.5-1.2-1.2-1.2C263.2,110.1,262.7,110.6,262.7,111.3z M271.3,113.8h1.6v-5.3h1.8v-1.5h-5.1v1.5h1.8
	V113.8z M276.2,111.5c0-1,0.9-1.2,1.5-1.1v-1.7c-0.6,0-1.3,0.3-1.5,1v-0.9h-1.5v4.9h1.5V111.5z M277.9,111.3c0-1.5,1.1-2.6,2.3-2.6
	c0.7,0,1.1,0.2,1.5,0.6v-0.5h1.5v4.9h-1.5v-0.5c-0.3,0.4-0.8,0.6-1.5,0.6C279,113.9,277.9,112.8,277.9,111.3z M279.4,111.3
	c0,0.7,0.5,1.2,1.2,1.2s1.2-0.5,1.2-1.2c0-0.7-0.5-1.2-1.2-1.2S279.4,110.6,279.4,111.3z M284,111.3c0-1.5,1.1-2.6,2.3-2.6
	c0.7,0,1.1,0.2,1.5,0.6v-2.4h1.5v6.8h-1.5v-0.5c-0.3,0.4-0.8,0.6-1.5,0.6C285.1,113.9,284,112.8,284,111.3z M285.5,111.3
	c0,0.7,0.5,1.2,1.2,1.2s1.2-0.5,1.2-1.2c0-0.7-0.5-1.2-1.2-1.2S285.5,110.6,285.5,111.3z M290.1,111.3c0-1.5,1.1-2.6,2.6-2.6
	c1.4,0,2.5,1.1,2.5,2.6c0,0.2,0,0.4-0.1,0.6h-3.5c0.2,0.5,0.6,0.7,1.2,0.7c0.4,0,0.7-0.2,0.9-0.4l1.2,0.7c-0.5,0.7-1.2,1-2.1,1
	C291.1,113.9,290.1,112.8,290.1,111.3z M291.6,110.8h2.1c-0.2-0.6-0.6-0.8-1-0.8C292.1,110,291.7,110.3,291.6,110.8z M297.4,111.5
	c0-1,0.9-1.2,1.5-1.1v-1.7c-0.6,0-1.3,0.3-1.5,1v-0.9H296v4.9h1.5V111.5z M301.2,112.6c-0.4,0-0.7-0.2-0.8-0.6l-1.3,0.7
	c0.4,0.8,1.1,1.2,2.1,1.2c1.1,0,2-0.5,2-1.6c0-1.8-2.4-1.4-2.4-2c0-0.2,0.2-0.3,0.4-0.3c0.3,0,0.5,0.2,0.7,0.4l1.2-0.7
	c-0.4-0.7-1.1-1-1.9-1c-1,0-1.9,0.5-1.9,1.6c0,1.7,2.4,1.4,2.4,1.9C301.7,112.5,301.5,112.6,301.2,112.6z M245.1,127.8v-5.3h1.8
	v-1.5h-5.1v1.5h1.8v5.3H245.1z M246.9,122.9v4.9h1.5v-2.2c0-1,0.9-1.2,1.5-1.1v-1.7c-0.6,0-1.3,0.3-1.5,1v-0.9H246.9z M253.9,127.8
	v-0.5c-0.3,0.4-0.8,0.6-1.5,0.6c-1.3,0-2.3-1.1-2.3-2.6c0-1.5,1.1-2.6,2.3-2.6c0.7,0,1.1,0.2,1.5,0.6v-0.5h1.5v4.9H253.9z
	 M253.9,125.3c0-0.7-0.5-1.2-1.2-1.2s-1.2,0.5-1.2,1.2c0,0.7,0.5,1.2,1.2,1.2S253.9,126,253.9,125.3z M261.1,127.8v-3
	c0-1.3-0.8-2-1.8-2c-0.6,0-1.1,0.2-1.4,0.6v-0.5h-1.5v4.9h1.5v-2.7c0-0.7,0.4-1,0.9-1c0.5,0,0.8,0.3,0.8,0.9v2.8H261.1z
	 M263.9,126.6c-0.4,0-0.7-0.2-0.8-0.6l-1.3,0.7c0.4,0.8,1.1,1.2,2.1,1.2c1.1,0,2-0.5,2-1.6c0-1.8-2.4-1.4-2.4-2
	c0-0.2,0.2-0.3,0.4-0.3c0.3,0,0.5,0.2,0.7,0.4l1.2-0.7c-0.4-0.7-1.1-1-1.9-1c-1,0-1.9,0.5-1.9,1.6c0,1.7,2.4,1.4,2.4,1.9
	C264.4,126.5,264.2,126.6,263.9,126.6z M268.2,129.7h-1.5v-6.8h1.5v0.5c0.3-0.4,0.8-0.6,1.5-0.6c1.3,0,2.3,1.1,2.3,2.6
	c0,1.5-1.1,2.6-2.3,2.6c-0.7,0-1.1-0.2-1.5-0.6V129.7z M268.2,125.3c0,0.7,0.5,1.2,1.2,1.2s1.2-0.5,1.2-1.2c0-0.7-0.5-1.2-1.2-1.2
	S268.2,124.6,268.2,125.3z M276.3,122.9h1.5v4.9h-1.5v-0.5c-0.3,0.4-0.8,0.6-1.5,0.6c-1.3,0-2.3-1.1-2.3-2.6c0-1.5,1.1-2.6,2.3-2.6
	c0.7,0,1.1,0.2,1.5,0.6V122.9z M276.3,125.3c0-0.7-0.5-1.2-1.2-1.2s-1.2,0.5-1.2,1.2c0,0.7,0.5,1.2,1.2,1.2S276.3,126,276.3,125.3z
	 M278.8,122.9v4.9h1.5v-2.2c0-1,0.9-1.2,1.5-1.1v-1.7c-0.6,0-1.3,0.3-1.5,1v-0.9H278.8z M287.1,125.9h-3.5c0.2,0.5,0.6,0.7,1.2,0.7
	c0.4,0,0.7-0.2,0.9-0.4l1.2,0.7c-0.5,0.7-1.2,1-2.1,1c-1.7,0-2.7-1.1-2.7-2.6c0-1.5,1.1-2.6,2.6-2.6c1.4,0,2.5,1.1,2.5,2.6
	C287.1,125.5,287.1,125.7,287.1,125.9z M285.7,124.8c-0.2-0.6-0.6-0.8-1-0.8c-0.6,0-0.9,0.3-1.1,0.8H285.7z M288,122.9v4.9h1.5v-2.7
	c0-0.7,0.4-1,0.9-1c0.5,0,0.8,0.3,0.8,0.9v2.8h1.5v-3c0-1.3-0.8-2-1.8-2c-0.6,0-1.1,0.2-1.4,0.6v-0.5H288z M296,127.9
	c1,0,1.8-0.5,2.2-1.3l-1.3-0.7c-0.2,0.3-0.5,0.5-0.9,0.5c-0.6,0-1.1-0.5-1.1-1.1s0.5-1.1,1.1-1.1c0.4,0,0.8,0.2,0.9,0.5l1.3-0.7
	c-0.4-0.8-1.3-1.2-2.2-1.2c-1.5,0-2.6,1.1-2.6,2.6C293.4,126.8,294.5,127.9,296,127.9z M301.9,122.9l-0.9,3l-1.1-3h-1.6l1.9,4.7
	c-0.2,0.6-0.5,0.8-1.2,0.8v1.4c1.4,0.1,2.2-0.5,2.8-2.1l1.7-4.7H301.9z M254.2,141.8v-6.8h-1.6l-1.9,3l-1.9-3h-1.6v6.8h1.6v-4
	l1.8,2.9h0.2l1.8-2.9v4H254.2z M258.5,139.5c0,0.7-0.4,1-0.9,1c-0.5,0-0.8-0.3-0.8-0.9v-2.8h-1.5v3c0,1.3,0.8,2,1.8,2
	c0.6,0,1.1-0.2,1.4-0.6v0.5h1.5v-4.9h-1.5V139.5z M261.1,141.8h1.5v-7.1h-1.5V141.8z M266.5,140.4c-0.6,0-1,0-1-0.4v-1.7h1v-1.4h-1
	v-1.4L264,136v0.9h-0.8v1.4h0.8v1.7c0,1.4,0.6,1.9,2.5,1.7V140.4z M267.3,141.8h1.5v-4.9h-1.5V141.8z M268,134.7
	c-0.5,0-0.9,0.4-0.9,0.9c0,0.5,0.4,0.9,0.9,0.9c0.5,0,0.9-0.4,0.9-0.9C268.9,135.1,268.5,134.7,268,134.7z M273.6,138.1h-3.7v1.4
	h3.7V138.1z M281.9,134.9l-1.2,4.8l-1.3-4.8h-1.3l-1.3,4.8l-1.2-4.8H274l1.9,6.8h1.8l1.1-4l1.1,4h1.8l1.9-6.8H281.9z M288.6,141.8
	h-1.5v-0.5c-0.3,0.4-0.8,0.6-1.5,0.6c-1.3,0-2.3-1.1-2.3-2.6c0-1.5,1.1-2.6,2.3-2.6c0.7,0,1.1,0.2,1.5,0.6v-0.5h1.5V141.8z
	 M287.1,139.3c0-0.7-0.5-1.2-1.2-1.2s-1.2,0.5-1.2,1.2c0,0.7,0.5,1.2,1.2,1.2S287.1,140,287.1,139.3z M291.1,134.6h-1.5v7.1h1.5
	V134.6z M293.6,134.6h-1.5v7.1h1.5V134.6z M299.5,139.9H296c0.2,0.5,0.6,0.7,1.2,0.7c0.4,0,0.7-0.2,0.9-0.4l1.2,0.7
	c-0.5,0.7-1.2,1-2.1,1c-1.7,0-2.7-1.1-2.7-2.6c0-1.5,1.1-2.6,2.6-2.6c1.4,0,2.5,1.1,2.5,2.6C299.5,139.5,299.5,139.7,299.5,139.9z
	 M298.1,138.8c-0.2-0.6-0.6-0.8-1-0.8c-0.6,0-0.9,0.3-1.1,0.8H298.1z M303.1,138.3v-1.4h-1v-1.4l-1.5,0.4v0.9h-0.8v1.4h0.8v1.7
	c0,1.4,0.6,1.9,2.5,1.7v-1.3c-0.6,0-1,0-1-0.4v-1.7H303.1z M269.4,151.7c-1.1-0.3-1.2-0.5-1.2-0.8c0-0.3,0.2-0.5,0.7-0.5
	c0.6,0,0.9,0.3,1.2,0.8l1.3-0.8c-0.5-1-1.4-1.5-2.5-1.5c-1.2,0-2.3,0.8-2.3,2.1c0,1.3,1,1.8,2,2.1c1,0.3,1.4,0.4,1.4,0.9
	c0,0.3-0.2,0.6-0.9,0.6c-0.8,0-1.2-0.4-1.4-0.9l-1.3,0.8c0.4,1,1.3,1.7,2.7,1.7c1.5,0,2.5-0.8,2.5-2.1
	C271.5,152.3,270.4,152,269.4,151.7z M277.2,153.9h-3.5c0.2,0.5,0.6,0.7,1.2,0.7c0.4,0,0.7-0.2,0.9-0.4l1.2,0.7
	c-0.5,0.7-1.2,1-2.1,1c-1.7,0-2.7-1.1-2.7-2.6c0-1.5,1.1-2.6,2.6-2.6c1.4,0,2.5,1.1,2.5,2.6C277.3,153.5,277.2,153.7,277.2,153.9z
	 M275.8,152.8c-0.2-0.6-0.6-0.8-1-0.8c-0.6,0-0.9,0.3-1.1,0.8H275.8z M280.4,152.2c0.4,0,0.8,0.2,0.9,0.5l1.3-0.7
	c-0.4-0.8-1.3-1.2-2.2-1.2c-1.5,0-2.6,1.1-2.6,2.6c0,1.5,1.1,2.6,2.6,2.6c1,0,1.8-0.5,2.2-1.3l-1.3-0.7c-0.2,0.3-0.5,0.5-0.9,0.5
	c-0.6,0-1.1-0.5-1.1-1.1S279.7,152.2,280.4,152.2z M287.8,155.8v-4.9h-1.5v2.7c0,0.7-0.4,1-0.9,1c-0.5,0-0.8-0.3-0.8-0.9v-2.8h-1.5
	v3c0,1.3,0.8,2,1.8,2c0.6,0,1.1-0.2,1.4-0.6v0.5H287.8z M288.9,155.8h1.5v-2.2c0-1,0.9-1.2,1.5-1.1v-1.7c-0.6,0-1.3,0.3-1.5,1v-0.9
	h-1.5V155.8z M292.5,155.8h1.5v-4.9h-1.5V155.8z M293.2,148.7c-0.5,0-0.9,0.4-0.9,0.9c0,0.5,0.4,0.9,0.9,0.9s0.9-0.4,0.9-0.9
	C294.1,149.1,293.7,148.7,293.2,148.7z M297.9,152.3v-1.4h-1v-1.4l-1.5,0.4v0.9h-0.8v1.4h0.8v1.7c0,1.4,0.6,1.9,2.5,1.7v-1.3
	c-0.6,0-1,0-1-0.4v-1.7H297.9z M301,153.9l-1.1-3h-1.6l1.9,4.7c-0.2,0.6-0.5,0.8-1.2,0.8v1.4c1.4,0.1,2.2-0.5,2.8-2.1l1.7-4.7h-1.6
	L301,153.9z M275.6,164.3c0.7,0,1.3,0.3,1.6,0.8l1.3-0.8c-0.6-1-1.7-1.6-2.9-1.6c-2.1,0-3.5,1.5-3.5,3.5s1.5,3.5,3.5,3.5
	c1.2,0,2.3-0.6,2.9-1.6l-1.3-0.8c-0.3,0.5-0.9,0.8-1.6,0.8c-1.2,0-2-0.8-2-2S274.4,164.3,275.6,164.3z M282.2,164.7
	c-0.6,0-1.1,0.2-1.4,0.6v-2.4h-1.5v6.8h1.5v-2.7c0-0.7,0.4-1,0.9-1c0.5,0,0.8,0.3,0.8,0.9v2.8h1.5v-3
	C284,165.4,283.2,164.7,282.2,164.7z M287.4,169.9c-1.4,0-2.6-1.1-2.6-2.6c0-1.5,1.2-2.6,2.6-2.6c1.4,0,2.6,1.1,2.6,2.6
	C289.9,168.8,288.8,169.9,287.4,169.9z M287.4,168.5c0.6,0,1.1-0.5,1.1-1.2s-0.5-1.2-1.1-1.2s-1.1,0.5-1.1,1.2
	S286.7,168.5,287.4,168.5z M292.2,164.9h-1.5v4.9h1.5V164.9z M291.5,164.4c0.5,0,0.9-0.4,0.9-0.9c0-0.5-0.4-0.9-0.9-0.9
	s-0.9,0.4-0.9,0.9C290.6,164,291,164.4,291.5,164.4z M297.9,168.6l-1.3-0.7c-0.2,0.3-0.5,0.5-0.9,0.5c-0.6,0-1.1-0.5-1.1-1.1
	s0.5-1.1,1.1-1.1c0.4,0,0.8,0.2,0.9,0.5l1.3-0.7c-0.4-0.8-1.3-1.2-2.2-1.2c-1.5,0-2.6,1.1-2.6,2.6c0,1.5,1.1,2.6,2.6,2.6
	C296.6,169.9,297.4,169.4,297.9,168.6z M303.2,167.3c0,0.2,0,0.4-0.1,0.6h-3.5c0.2,0.5,0.6,0.7,1.2,0.7c0.4,0,0.7-0.2,0.9-0.4
	l1.2,0.7c-0.5,0.7-1.2,1-2.1,1c-1.7,0-2.7-1.1-2.7-2.6c0-1.5,1.1-2.6,2.6-2.6C302.1,164.7,303.2,165.8,303.2,167.3z M301.7,166.8
	c-0.2-0.6-0.6-0.8-1-0.8c-0.6,0-0.9,0.3-1.1,0.8H301.7z M286.6,183.8h1.6v-2.5h2.5v-1.5h-2.5v-1.3h2.6v-1.5h-4.1V183.8z
	 M291.6,183.8h1.5v-4.9h-1.5V183.8z M292.3,176.7c-0.5,0-0.9,0.4-0.9,0.9c0,0.5,0.4,0.9,0.9,0.9s0.9-0.4,0.9-0.9
	C293.2,177.1,292.8,176.7,292.3,176.7z M297.7,178.9h1.5v4.9h-1.5v-0.5c-0.3,0.4-0.8,0.6-1.5,0.6c-1.3,0-2.3-1.1-2.3-2.6
	c0-1.5,1.1-2.6,2.3-2.6c0.7,0,1.1,0.2,1.5,0.6V178.9z M297.7,181.3c0-0.7-0.5-1.2-1.2-1.2s-1.2,0.5-1.2,1.2c0,0.7,0.5,1.2,1.2,1.2
	S297.7,182,297.7,181.3z M302.1,177.5l-1.5,0.4v0.9h-0.8v1.4h0.8v1.7c0,1.4,0.6,1.9,2.5,1.7v-1.3c-0.6,0-1,0-1-0.4v-1.7h1v-1.4h-1
	V177.5z"/>
<path class="st3" d="M479.1,115H363.9c-1,0-1.9-0.8-1.9-1.9V16.9c0-1,0.8-1.9,1.9-1.9h115.3c1,0,1.9,0.8,1.9,1.9v96.3
	C481,114.2,480.2,115,479.1,115z"/>
<path class="st0" d="M479.1,116h-2.7c-0.6,0-1-0.4-1-1s0.4-1,1-1h2.7c0.6,0,1,0.4,1,1S479.7,116,479.1,116z M469.8,116h-2.7
	c-0.6,0-1-0.4-1-1s0.4-1,1-1h2.7c0.6,0,1,0.4,1,1S470.4,116,469.8,116z M460.5,116h-2.7c-0.6,0-1-0.4-1-1s0.4-1,1-1h2.7
	c0.6,0,1,0.4,1,1S461,116,460.5,116z M451.2,116h-2.7c-0.6,0-1-0.4-1-1s0.4-1,1-1h2.7c0.6,0,1,0.4,1,1S451.7,116,451.2,116z
	 M441.9,116h-2.7c-0.6,0-1-0.4-1-1s0.4-1,1-1h2.7c0.6,0,1,0.4,1,1S442.4,116,441.9,116z M432.5,116h-2.7c-0.6,0-1-0.4-1-1s0.4-1,1-1
	h2.7c0.6,0,1,0.4,1,1S433.1,116,432.5,116z M423.2,116h-2.7c-0.6,0-1-0.4-1-1s0.4-1,1-1h2.7c0.6,0,1,0.4,1,1S423.8,116,423.2,116z
	 M413.9,116h-2.7c-0.6,0-1-0.4-1-1s0.4-1,1-1h2.7c0.6,0,1,0.4,1,1S414.5,116,413.9,116z M404.6,116h-2.7c-0.6,0-1-0.4-1-1s0.4-1,1-1
	h2.7c0.6,0,1,0.4,1,1S405.1,116,404.6,116z M395.3,116h-2.7c-0.6,0-1-0.4-1-1s0.4-1,1-1h2.7c0.6,0,1,0.4,1,1S395.8,116,395.3,116z
	 M386,116h-2.7c-0.6,0-1-0.4-1-1s0.4-1,1-1h2.7c0.6,0,1,0.4,1,1S386.5,116,386,116z M376.6,116H374c-0.6,0-1-0.4-1-1s0.4-1,1-1h2.7
	c0.6,0,1,0.4,1,1S377.2,116,376.6,116z M367.3,116h-2.7c-0.6,0-1-0.4-1-1s0.4-1,1-1h2.7c0.6,0,1,0.4,1,1S367.9,116,367.3,116z
	 M481,113.5c-0.6,0-1-0.4-1-1v-2.7c0-0.6,0.4-1,1-1s1,0.4,1,1v2.7C482,113.1,481.6,113.5,481,113.5z M362,111.2c-0.6,0-1-0.4-1-1
	v-2.7c0-0.6,0.4-1,1-1s1,0.4,1,1v2.7C363,110.8,362.5,111.2,362,111.2z M481,104.2c-0.6,0-1-0.4-1-1v-2.7c0-0.6,0.4-1,1-1s1,0.4,1,1
	v2.7C482,103.7,481.6,104.2,481,104.2z M362,101.9c-0.6,0-1-0.4-1-1v-2.7c0-0.6,0.4-1,1-1s1,0.4,1,1v2.7
	C363,101.5,362.5,101.9,362,101.9z M481,94.9c-0.6,0-1-0.4-1-1v-2.7c0-0.6,0.4-1,1-1s1,0.4,1,1v2.7C482,94.4,481.6,94.9,481,94.9z
	 M362,92.6c-0.6,0-1-0.4-1-1v-2.7c0-0.6,0.4-1,1-1s1,0.4,1,1v2.7C363,92.1,362.5,92.6,362,92.6z M481,85.5c-0.6,0-1-0.4-1-1v-2.7
	c0-0.6,0.4-1,1-1s1,0.4,1,1v2.7C482,85.1,481.6,85.5,481,85.5z M362,83.3c-0.6,0-1-0.4-1-1v-2.7c0-0.6,0.4-1,1-1s1,0.4,1,1v2.7
	C363,82.8,362.5,83.3,362,83.3z M481,76.2c-0.6,0-1-0.4-1-1v-2.7c0-0.6,0.4-1,1-1s1,0.4,1,1v2.7C482,75.8,481.6,76.2,481,76.2z
	 M362,74c-0.6,0-1-0.4-1-1v-2.7c0-0.6,0.4-1,1-1s1,0.4,1,1V73C363,73.5,362.5,74,362,74z M481,66.9c-0.6,0-1-0.4-1-1v-2.7
	c0-0.6,0.4-1,1-1s1,0.4,1,1v2.7C482,66.5,481.6,66.9,481,66.9z M362,64.6c-0.6,0-1-0.4-1-1V61c0-0.6,0.4-1,1-1s1,0.4,1,1v2.7
	C363,64.2,362.5,64.6,362,64.6z M481,57.6c-0.6,0-1-0.4-1-1v-2.7c0-0.6,0.4-1,1-1s1,0.4,1,1v2.7C482,57.1,481.6,57.6,481,57.6z
	 M362,55.3c-0.6,0-1-0.4-1-1v-2.7c0-0.6,0.4-1,1-1s1,0.4,1,1v2.7C363,54.9,362.5,55.3,362,55.3z M481,48.3c-0.6,0-1-0.4-1-1v-2.7
	c0-0.6,0.4-1,1-1s1,0.4,1,1v2.7C482,47.8,481.6,48.3,481,48.3z M362,46c-0.6,0-1-0.4-1-1v-2.7c0-0.6,0.4-1,1-1s1,0.4,1,1V45
	C363,45.6,362.5,46,362,46z M481,39c-0.6,0-1-0.4-1-1v-2.7c0-0.6,0.4-1,1-1s1,0.4,1,1V38C482,38.5,481.6,39,481,39z M362,36.7
	c-0.6,0-1-0.4-1-1V33c0-0.6,0.4-1,1-1s1,0.4,1,1v2.7C363,36.2,362.5,36.7,362,36.7z M481,29.6c-0.6,0-1-0.4-1-1V26c0-0.6,0.4-1,1-1
	s1,0.4,1,1v2.7C482,29.2,481.6,29.6,481,29.6z M362,27.4c-0.6,0-1-0.4-1-1v-2.7c0-0.6,0.4-1,1-1s1,0.4,1,1v2.7
	C363,26.9,362.5,27.4,362,27.4z M481,20.3c-0.6,0-1-0.4-1-1v-2.4c-0.1-0.5,0.3-1.1,0.9-1.2c0.5-0.1,1,0.3,1.1,0.8c0,0.1,0,0.2,0,0.3
	v2.4C482,19.9,481.6,20.3,481,20.3z M362,18c-0.6,0-1-0.4-1-1v-0.2c0-1.3,0.9-2.5,2.2-2.8c0.5-0.1,1.1,0.2,1.2,0.7
	c0.1,0.5-0.2,1.1-0.7,1.2c-0.4,0.1-0.7,0.5-0.7,0.9V17C363,17.6,362.5,18,362,18z M475.2,16h-2.7c-0.6,0-1-0.4-1-1s0.4-1,1-1h2.7
	c0.6,0,1,0.4,1,1S475.8,16,475.2,16z M465.9,16h-2.7c-0.6,0-1-0.4-1-1s0.4-1,1-1h2.7c0.6,0,1,0.4,1,1S466.5,16,465.9,16z M456.6,16
	h-2.7c-0.6,0-1-0.4-1-1s0.4-1,1-1h2.7c0.6,0,1,0.4,1,1S457.1,16,456.6,16z M447.3,16h-2.7c-0.6,0-1-0.4-1-1s0.4-1,1-1h2.7
	c0.6,0,1,0.4,1,1S447.8,16,447.3,16z M437.9,16h-2.7c-0.6,0-1-0.4-1-1s0.4-1,1-1h2.7c0.6,0,1,0.4,1,1S438.5,16,437.9,16z M428.6,16
	H426c-0.6,0-1-0.4-1-1s0.4-1,1-1h2.7c0.6,0,1,0.4,1,1S429.2,16,428.6,16z M419.3,16h-2.7c-0.6,0-1-0.4-1-1s0.4-1,1-1h2.7
	c0.6,0,1,0.4,1,1S419.9,16,419.3,16z M410,16h-2.7c-0.6,0-1-0.4-1-1s0.4-1,1-1h2.7c0.6,0,1,0.4,1,1S410.5,16,410,16z M400.7,16H398
	c-0.6,0-1-0.4-1-1s0.4-1,1-1h2.7c0.6,0,1,0.4,1,1S401.2,16,400.7,16z M391.4,16h-2.7c-0.6,0-1-0.4-1-1s0.4-1,1-1h2.7
	c0.6,0,1,0.4,1,1S391.9,16,391.4,16z M382,16h-2.7c-0.6,0-1-0.4-1-1s0.4-1,1-1h2.7c0.6,0,1,0.4,1,1S382.6,16,382,16z M372.7,16h-2.7
	c-0.6,0-1-0.4-1-1s0.4-1,1-1h2.7c0.6,0,1,0.4,1,1S373.3,16,372.7,16z"/>
<path class="st0" d="M375.4,36.5h-0.9v-5.5h0.7l2.6,3.7v-3.7h0.9v5.5H378l-2.6-3.7V36.5z M380.1,36c-0.4-0.4-0.6-0.9-0.6-1.5
	c0-0.6,0.2-1.1,0.6-1.5c0.4-0.4,0.9-0.6,1.5-0.6c0.6,0,1.1,0.2,1.5,0.6c0.4,0.4,0.6,0.9,0.6,1.5c0,0.6-0.2,1.1-0.6,1.5
	c-0.4,0.4-0.9,0.6-1.5,0.6C381,36.6,380.5,36.4,380.1,36z M380.4,34.6c0,0.4,0.1,0.6,0.4,0.9c0.2,0.2,0.5,0.4,0.9,0.4
	c0.3,0,0.6-0.1,0.9-0.4c0.2-0.2,0.4-0.5,0.4-0.9c0-0.4-0.1-0.6-0.4-0.9c-0.2-0.2-0.5-0.4-0.9-0.4c-0.3,0-0.6,0.1-0.9,0.4
	C380.5,33.9,380.4,34.2,380.4,34.6z M386.7,36.5h0.8v-3.1h1.3v3.1h0.8v-3.9h-2.1v-0.1c0-0.6,0.3-0.8,0.9-0.8c0.3,0,0.6,0,0.9,0.1
	v-0.8c-0.3-0.1-0.6-0.1-0.9-0.1c-1.2,0-1.8,0.5-1.8,1.6v0.1h-0.6v0.8h0.6V36.5z M391,36c-0.4-0.4-0.6-0.9-0.6-1.5
	c0-0.6,0.2-1.1,0.6-1.5c0.4-0.4,0.8-0.6,1.4-0.6c0.6,0,1,0.2,1.4,0.7v-0.6h0.8v3.9h-0.8V36c-0.3,0.4-0.8,0.7-1.4,0.7
	C391.8,36.6,391.4,36.4,391,36z M391.3,34.6c0,0.4,0.1,0.7,0.4,0.9c0.2,0.2,0.5,0.4,0.9,0.4c0.4,0,0.6-0.1,0.9-0.4
	c0.2-0.2,0.4-0.5,0.4-0.9c0-0.4-0.1-0.7-0.4-0.9c-0.2-0.2-0.5-0.4-0.9-0.4c-0.4,0-0.7,0.1-0.9,0.4C391.4,33.9,391.3,34.2,391.3,34.6
	z M395.9,35.3c0,1,0.5,1.4,1.8,1.2v-0.8c-0.6,0-1,0-1-0.5v-1.9h1v-0.8h-1v-1.1l-0.8,0.3v0.8h-0.7v0.8h0.7V35.3z M400.9,36
	c-0.4-0.4-0.6-0.9-0.6-1.4s0.2-1,0.6-1.4c0.4-0.4,0.8-0.6,1.4-0.6c0.6,0,1,0.2,1.4,0.7v-0.6h0.8v3.7c0,0.6-0.2,1-0.6,1.4
	c-0.4,0.3-0.9,0.5-1.4,0.5c-0.9,0-1.5-0.3-1.9-0.9l0.7-0.4c0.2,0.4,0.6,0.6,1.1,0.6c0.7,0,1.2-0.4,1.2-1.1v-0.5
	c-0.3,0.5-0.8,0.7-1.4,0.7C401.7,36.6,401.2,36.4,400.9,36z M401.1,34.5c0,0.4,0.1,0.6,0.4,0.9c0.2,0.2,0.5,0.4,0.9,0.4
	c0.4,0,0.6-0.1,0.9-0.4c0.2-0.2,0.4-0.5,0.4-0.9s-0.1-0.6-0.4-0.9c-0.2-0.2-0.5-0.4-0.9-0.4c-0.4,0-0.7,0.1-0.9,0.4
	C401.2,33.9,401.1,34.2,401.1,34.5z M405.8,36c-0.4-0.4-0.6-0.9-0.6-1.5c0-0.6,0.2-1.1,0.6-1.5c0.4-0.4,0.8-0.6,1.4-0.6
	c0.6,0,1,0.2,1.4,0.7v-0.6h0.8v3.9h-0.8V36c-0.3,0.4-0.8,0.7-1.4,0.7C406.6,36.6,406.2,36.4,405.8,36z M406.1,34.6
	c0,0.4,0.1,0.7,0.4,0.9c0.2,0.2,0.5,0.4,0.9,0.4c0.4,0,0.6-0.1,0.9-0.4c0.2-0.2,0.4-0.5,0.4-0.9c0-0.4-0.1-0.7-0.4-0.9
	c-0.2-0.2-0.5-0.4-0.9-0.4c-0.4,0-0.7,0.1-0.9,0.4C406.2,33.9,406.1,34.2,406.1,34.6z M410.7,35.3c0,1,0.5,1.4,1.8,1.2v-0.8
	c-0.6,0-1,0-1-0.5v-1.9h1v-0.8h-1v-1.1l-0.8,0.3v0.8H410v0.8h0.7V35.3z M413.5,36.1c-0.4-0.4-0.6-0.9-0.6-1.5c0-0.6,0.2-1.1,0.6-1.5
	c0.4-0.4,0.9-0.6,1.5-0.6c0.6,0,1,0.2,1.4,0.6c0.4,0.4,0.6,0.9,0.6,1.5c0,0.1,0,0.2,0,0.4h-3.1c0.1,0.6,0.6,0.9,1.3,0.9
	c0.4,0,0.8-0.2,1-0.5l0.7,0.4c-0.4,0.6-1,0.9-1.7,0.9C414.4,36.6,413.9,36.4,413.5,36.1z M413.8,34.2h2.3c-0.1-0.6-0.6-1-1.1-1
	C414.4,33.3,413.9,33.6,413.8,34.2z M419.3,36.5l0.8-2.6l0.8,2.6h0.8l1.2-3.9h-0.9l-0.8,2.7l-0.8-2.7h-0.8l-0.8,2.7l-0.8-2.7h-0.9
	l1.2,3.9H419.3z M423.8,36c-0.4-0.4-0.6-0.9-0.6-1.5c0-0.6,0.2-1.1,0.6-1.5c0.4-0.4,0.8-0.6,1.4-0.6c0.6,0,1,0.2,1.4,0.7v-0.6h0.8
	v3.9h-0.8V36c-0.3,0.4-0.8,0.7-1.4,0.7C424.6,36.6,424.2,36.4,423.8,36z M424,34.6c0,0.4,0.1,0.7,0.4,0.9c0.2,0.2,0.5,0.4,0.9,0.4
	c0.4,0,0.6-0.1,0.9-0.4c0.2-0.2,0.4-0.5,0.4-0.9c0-0.4-0.1-0.7-0.4-0.9c-0.2-0.2-0.5-0.4-0.9-0.4c-0.4,0-0.7,0.1-0.9,0.4
	C424.2,33.9,424,34.2,424,34.6z M429.5,36.5c-0.2,0.5-0.5,0.8-1,0.8v0.8c0.9,0.1,1.5-0.4,1.9-1.4l1.5-4H431l-1,2.8l-1.2-2.8h-0.9
	L429.5,36.5L429.5,36.5z M376.4,48.4c-0.7,0-1.1-0.3-1.4-0.9l-0.8,0.5c0.3,0.8,1.1,1.3,2.1,1.3c0.6,0,1-0.1,1.4-0.4
	c0.4-0.3,0.5-0.7,0.5-1.2c0-0.5-0.3-0.9-0.6-1.1c-0.1-0.1-0.2-0.1-0.4-0.2c-0.2-0.1-0.3-0.1-0.4-0.2c-0.1,0-0.2-0.1-0.5-0.2
	c-0.8-0.3-1.1-0.4-1.1-0.9c0-0.4,0.3-0.7,0.9-0.7c0.5,0,0.9,0.3,1.2,0.8l0.8-0.4c-0.4-0.8-1-1.2-1.9-1.2c-0.5,0-0.9,0.1-1.2,0.4
	c-0.3,0.3-0.5,0.7-0.5,1.2c0,0.5,0.2,0.9,0.5,1.1c0.4,0.2,0.6,0.3,1.2,0.5c0.5,0.1,0.8,0.3,1,0.4c0.2,0.1,0.3,0.3,0.3,0.5
	C377.4,48.1,377,48.4,376.4,48.4z M379.9,47.1c0-0.8,0.4-1.1,1-1.1c0.5,0,0.9,0.3,0.9,0.9v2.3h0.8v-2.4c0-1-0.6-1.6-1.5-1.6
	c-0.6,0-1,0.2-1.2,0.6v-2.1H379v5.5h0.8V47.1z M383.3,47.2c0-0.6,0.2-1.1,0.6-1.5c0.4-0.4,0.8-0.6,1.4-0.6c0.6,0,1,0.2,1.4,0.7v-0.6
	h0.8v3.9h-0.8v-0.6c-0.3,0.4-0.8,0.7-1.4,0.7c-0.5,0-1-0.2-1.4-0.6C383.4,48.3,383.3,47.8,383.3,47.2z M384.1,47.2
	c0,0.4,0.1,0.7,0.4,0.9c0.2,0.2,0.5,0.4,0.9,0.4c0.4,0,0.6-0.1,0.9-0.4c0.2-0.2,0.4-0.5,0.4-0.9c0-0.4-0.1-0.7-0.4-0.9
	c-0.2-0.2-0.5-0.4-0.9-0.4c-0.4,0-0.7,0.1-0.9,0.4C384.2,46.6,384.1,46.9,384.1,47.2z M388.8,45.8c0.4-0.4,0.8-0.6,1.4-0.6
	c0.6,0,1,0.2,1.4,0.7v-2.1h0.8v5.5h-0.8v-0.6c-0.3,0.4-0.8,0.7-1.4,0.7c-0.5,0-1-0.2-1.4-0.6c-0.4-0.4-0.6-0.9-0.6-1.5
	C388.2,46.6,388.4,46.2,388.8,45.8z M389,47.2c0,0.4,0.1,0.7,0.4,0.9c0.2,0.2,0.5,0.4,0.9,0.4c0.4,0,0.6-0.1,0.9-0.4
	c0.2-0.2,0.4-0.5,0.4-0.9c0-0.4-0.1-0.7-0.4-0.9c-0.2-0.2-0.5-0.4-0.9-0.4c-0.4,0-0.7,0.1-0.9,0.4C389.1,46.6,389,46.9,389,47.2z
	 M392.9,45.3l1.7,3.8l0,0.1c-0.2,0.5-0.5,0.8-1,0.8v0.8c0.9,0.1,1.5-0.4,1.9-1.4l1.5-4H396l-1,2.8l-1.2-2.8H392.9z M399.6,49.2h0.8
	v-3.1h0.9v-0.8h-0.9v-0.1c0-0.6,0.3-0.8,0.9-0.8v-0.8c-1.2-0.1-1.8,0.5-1.8,1.6v0.1H399v0.8h0.6V49.2z M403.5,48.5
	c-0.5,0-0.9-0.3-0.9-0.9v-2.3h-0.8v2.4c0,1,0.6,1.6,1.5,1.6c0.6,0,1-0.2,1.2-0.6v0.5h0.8v-3.9h-0.8v2.1
	C404.5,48.1,404.1,48.5,403.5,48.5z M407.2,45.8v-0.5h-0.8v3.9h0.8v-2.1c0-0.8,0.4-1.1,1-1.1c0.5,0,0.9,0.3,0.9,0.9v2.3h0.8v-2.4
	c0-1-0.6-1.6-1.5-1.6C407.9,45.2,407.5,45.4,407.2,45.8z M411.2,45.8c0.4-0.4,0.8-0.6,1.4-0.6c0.6,0,1,0.2,1.4,0.7v-2.1h0.8v5.5
	h-0.8v-0.6c-0.3,0.4-0.8,0.7-1.4,0.7c-0.5,0-1-0.2-1.4-0.6c-0.4-0.4-0.6-0.9-0.6-1.5C410.6,46.6,410.8,46.2,411.2,45.8z M411.5,47.2
	c0,0.4,0.1,0.7,0.4,0.9c0.2,0.2,0.5,0.4,0.9,0.4c0.4,0,0.6-0.1,0.9-0.4c0.2-0.2,0.4-0.5,0.4-0.9c0-0.4-0.1-0.7-0.4-0.9
	c-0.2-0.2-0.5-0.4-0.9-0.4c-0.4,0-0.7,0.1-0.9,0.4C411.6,46.6,411.5,46.9,411.5,47.2z M415.6,46.4c0,0.8,0.8,1.1,1.4,1.2
	c0.4,0.1,0.7,0.3,0.7,0.5c0,0.3-0.2,0.4-0.7,0.4s-0.7-0.2-0.9-0.6l-0.7,0.4c0.3,0.6,0.8,0.9,1.6,0.9c0.4,0,0.8-0.1,1.1-0.3
	c0.3-0.2,0.4-0.5,0.4-0.9c0-0.8-0.8-1.1-1.4-1.2c-0.4-0.1-0.7-0.3-0.7-0.5c0-0.3,0.2-0.4,0.6-0.4c0.4,0,0.6,0.1,0.7,0.4l0.7-0.4
	c-0.3-0.5-0.8-0.8-1.4-0.8c-0.4,0-0.8,0.1-1,0.3C415.8,45.7,415.6,46,415.6,46.4z M422.2,46.1c-0.2-0.3-0.3-0.6-0.3-1
	c0-0.5,0.2-0.8,0.5-1.1c0.3-0.3,0.7-0.4,1.2-0.4c0.8,0,1.4,0.4,1.7,1.1l-0.8,0.4c-0.1-0.4-0.5-0.7-0.9-0.7c-0.4,0-0.8,0.3-0.8,0.7
	c0,0.1,0,0.2,0.1,0.3c0.1,0.2,0.2,0.3,0.4,0.5l1.3,1.4c0.1-0.3,0.2-0.6,0.3-1l0.8,0.4c-0.1,0.4-0.2,0.8-0.5,1.2l0.7,0.8l-0.7,0.4
	l-0.5-0.6c-0.4,0.3-0.9,0.5-1.5,0.5c-0.6,0-1-0.1-1.4-0.4c-0.3-0.3-0.5-0.7-0.5-1.2C421.2,47,421.5,46.4,422.2,46.1z M422.1,47.6
	c0,0.5,0.4,0.8,1,0.8c0.4,0,0.6-0.1,0.9-0.3l-1.3-1.4C422.3,46.9,422.1,47.2,422.1,47.6z M430.7,46.1v-0.8h-1v-1.1l-0.8,0.3v0.8
	h-0.7v0.8h0.7V48c0,1,0.5,1.4,1.8,1.2v-0.8c-0.6,0-1,0-1-0.5v-1.9H430.7z M432.3,45.9v-0.7h-0.8v3.9h0.8v-2c0-0.4,0.1-0.7,0.4-0.9
	c0.2-0.2,0.5-0.3,0.8-0.2v-0.9C432.9,45.2,432.5,45.4,432.3,45.9z M434.3,48.7c-0.4-0.4-0.6-0.9-0.6-1.5c0-0.6,0.2-1.1,0.6-1.5
	c0.4-0.4,0.8-0.6,1.4-0.6c0.6,0,1,0.2,1.4,0.7v-0.6h0.8v3.9h-0.8v-0.6c-0.3,0.4-0.8,0.7-1.4,0.7C435.2,49.3,434.7,49.1,434.3,48.7z
	 M434.6,47.2c0,0.4,0.1,0.7,0.4,0.9c0.2,0.2,0.5,0.4,0.9,0.4c0.4,0,0.6-0.1,0.9-0.4c0.2-0.2,0.4-0.5,0.4-0.9c0-0.4-0.1-0.7-0.4-0.9
	c-0.2-0.2-0.5-0.4-0.9-0.4c-0.4,0-0.7,0.1-0.9,0.4C434.7,46.6,434.6,46.9,434.6,47.2z M439.3,48.7c-0.4-0.4-0.6-0.9-0.6-1.5
	c0-0.6,0.2-1.1,0.6-1.5c0.4-0.4,0.8-0.6,1.4-0.6c0.6,0,1,0.2,1.4,0.7v-2.1h0.8v5.5H442v-0.6c-0.3,0.4-0.8,0.7-1.4,0.7
	C440.1,49.3,439.6,49.1,439.3,48.7z M439.5,47.2c0,0.4,0.1,0.7,0.4,0.9c0.2,0.2,0.5,0.4,0.9,0.4c0.4,0,0.6-0.1,0.9-0.4
	c0.2-0.2,0.4-0.5,0.4-0.9c0-0.4-0.1-0.7-0.4-0.9c-0.2-0.2-0.5-0.4-0.9-0.4c-0.4,0-0.7,0.1-0.9,0.4C439.6,46.6,439.5,46.9,439.5,47.2
	z M447.5,48.4c-0.4,0.6-1,0.9-1.7,0.9c-0.6,0-1.2-0.2-1.5-0.6c-0.4-0.4-0.6-0.9-0.6-1.5c0-0.6,0.2-1.1,0.6-1.5
	c0.4-0.4,0.9-0.6,1.5-0.6c0.6,0,1,0.2,1.4,0.6c0.4,0.4,0.6,0.9,0.6,1.5c0,0.1,0,0.2,0,0.4h-3.1c0.1,0.6,0.6,0.9,1.3,0.9
	c0.4,0,0.8-0.2,1-0.5L447.5,48.4z M444.5,46.9h2.3c-0.1-0.6-0.6-1-1.1-1C445,45.9,444.6,46.3,444.5,46.9z M449.2,47.2
	c0-0.4,0.1-0.7,0.4-0.9c0.2-0.2,0.5-0.3,0.8-0.2v-0.9c-0.6,0-1,0.2-1.2,0.7v-0.7h-0.8v3.9h0.8V47.2z M452.3,48.5
	c-0.4,0-0.7-0.2-0.9-0.6l-0.7,0.4c0.3,0.6,0.8,0.9,1.6,0.9c0.4,0,0.8-0.1,1.1-0.3c0.3-0.2,0.4-0.5,0.4-0.9c0-0.8-0.8-1.1-1.4-1.2
	c-0.4-0.1-0.7-0.3-0.7-0.5c0-0.3,0.2-0.4,0.6-0.4c0.4,0,0.6,0.1,0.7,0.4l0.7-0.4c-0.3-0.5-0.8-0.8-1.4-0.8c-0.4,0-0.8,0.1-1,0.3
	c-0.3,0.2-0.4,0.5-0.4,0.9c0,0.8,0.8,1.1,1.4,1.2c0.4,0.1,0.7,0.3,0.7,0.5C452.9,48.4,452.7,48.5,452.3,48.5z M377.8,60.1l-2.6-3.7
	h-0.7v5.5h0.9v-3.7l2.6,3.7h0.7v-5.5h-0.9V60.1z M383.1,58.4c0.4,0.4,0.6,0.9,0.6,1.5s-0.2,1.1-0.6,1.5c-0.4,0.4-0.9,0.6-1.5,0.6
	c-0.6,0-1.1-0.2-1.5-0.6s-0.6-0.9-0.6-1.5s0.2-1.1,0.6-1.5s0.9-0.6,1.5-0.6C382.2,57.8,382.7,58,383.1,58.4z M382.8,59.9
	c0-0.4-0.1-0.6-0.4-0.9c-0.2-0.2-0.5-0.4-0.9-0.4c-0.3,0-0.6,0.1-0.9,0.4c-0.2,0.2-0.4,0.5-0.4,0.9s0.1,0.6,0.4,0.9
	c0.2,0.2,0.5,0.4,0.9,0.4c0.3,0,0.6-0.1,0.9-0.4C382.7,60.5,382.8,60.2,382.8,59.9z M388.1,58.6c0.5,0,0.7,0.3,0.7,0.9v2.4h0.8v-2.2
	c0-0.7,0.3-1,0.9-1c0.5,0,0.8,0.3,0.8,0.9v2.4h0.8v-2.4c0-1-0.6-1.6-1.5-1.6c-0.5,0-0.9,0.2-1.2,0.6c-0.2-0.4-0.6-0.6-1.1-0.6
	c-0.5,0-0.9,0.2-1.1,0.6v-0.5h-0.8v3.9h0.8v-2.2C387.2,58.9,387.6,58.6,388.1,58.6z M394.5,61.9c0.6,0,1-0.2,1.2-0.6v0.5h0.8v-3.9
	h-0.8V60c0,0.8-0.4,1.1-1,1.1c-0.5,0-0.9-0.3-0.9-0.9v-2.3H393v2.4C393,61.3,393.6,61.9,394.5,61.9z M398.3,56.1h-0.8v5.7h0.8V56.1z
	 M399.7,60.6c0,1,0.5,1.4,1.8,1.2v-0.8c-0.6,0-1,0-1-0.5v-1.9h1v-0.8h-1v-1.1l-0.8,0.3v0.8H399v0.8h0.7V60.6z M403.1,56.4
	c-0.2-0.2-0.6-0.2-0.8,0c-0.2,0.2-0.2,0.5,0,0.8c0.2,0.2,0.5,0.2,0.8,0C403.3,56.9,403.3,56.6,403.1,56.4z M402.3,61.8h0.8v-3.9
	h-0.8V61.8z M407,59h-2.9v0.8h2.9V59z M411.4,61.8h0.8l1.2-3.9h-0.9l-0.8,2.7l-0.8-2.7h-0.8l-0.8,2.7l-0.8-2.7h-0.9l1.2,3.9h0.8
	l0.8-2.6L411.4,61.8z M414.2,61.3c-0.4-0.4-0.6-0.9-0.6-1.5c0-0.6,0.2-1.1,0.6-1.5c0.4-0.4,0.8-0.6,1.4-0.6c0.6,0,1,0.2,1.4,0.7
	v-0.6h0.8v3.9H417v-0.6c-0.3,0.4-0.8,0.7-1.4,0.7C415.1,61.9,414.6,61.7,414.2,61.3z M414.5,59.9c0,0.4,0.1,0.7,0.4,0.9
	c0.2,0.2,0.5,0.4,0.9,0.4c0.4,0,0.6-0.1,0.9-0.4c0.2-0.2,0.4-0.5,0.4-0.9s-0.1-0.7-0.4-0.9c-0.2-0.2-0.5-0.4-0.9-0.4
	c-0.4,0-0.7,0.1-0.9,0.4C414.6,59.2,414.5,59.5,414.5,59.9z M418.8,61.8h0.8v-5.7h-0.8V61.8z M420.6,61.8h0.8v-5.7h-0.8V61.8z
	 M426.2,60.2h-3.1c0.1,0.6,0.6,0.9,1.3,0.9c0.4,0,0.8-0.2,1-0.5l0.7,0.4c-0.4,0.6-1,0.9-1.7,0.9c-0.6,0-1.2-0.2-1.5-0.6
	c-0.4-0.4-0.6-0.9-0.6-1.5c0-0.6,0.2-1.1,0.6-1.5c0.4-0.4,0.9-0.6,1.5-0.6c0.6,0,1,0.2,1.4,0.6c0.4,0.4,0.6,0.9,0.6,1.5
	C426.3,60,426.3,60.1,426.2,60.2z M425.4,59.5c-0.1-0.6-0.6-1-1.1-1c-0.6,0-1.1,0.4-1.2,1H425.4z M429.1,58.7v-0.8h-1v-1.1l-0.8,0.3
	v0.8h-0.7v0.8h0.7v1.9c0,1,0.5,1.4,1.8,1.2v-0.8c-0.6,0-1,0-1-0.5v-1.9H429.1z M376.3,74.6c0.6,0,1-0.1,1.4-0.4
	c0.4-0.3,0.5-0.7,0.5-1.2c0-0.5-0.3-0.9-0.6-1.1c-0.1-0.1-0.2-0.1-0.4-0.2c-0.2-0.1-0.3-0.1-0.4-0.2c-0.1,0-0.2-0.1-0.5-0.2
	c-0.8-0.3-1.1-0.4-1.1-0.9c0-0.4,0.3-0.7,0.9-0.7c0.5,0,0.9,0.3,1.2,0.8l0.8-0.4c-0.4-0.8-1-1.2-1.9-1.2c-0.5,0-0.9,0.1-1.2,0.4
	c-0.3,0.3-0.5,0.7-0.5,1.2c0,0.5,0.2,0.9,0.5,1.1c0.4,0.2,0.6,0.3,1.2,0.5c0.5,0.1,0.8,0.3,1,0.4c0.2,0.1,0.3,0.3,0.3,0.5
	c0,0.4-0.3,0.7-1,0.7c-0.7,0-1.1-0.3-1.4-0.9l-0.8,0.5C374.5,74.1,375.3,74.6,376.3,74.6z M379.9,72.4c0-0.8,0.4-1.1,1-1.1
	c0.5,0,0.9,0.3,0.9,0.9v2.3h0.8v-2.4c0-1-0.6-1.6-1.5-1.6c-0.6,0-1,0.2-1.2,0.6V69H379v5.5h0.8V72.4z M387.4,72.5
	c0,0.6-0.2,1.1-0.6,1.5c-0.4,0.4-0.9,0.6-1.5,0.6c-0.6,0-1.1-0.2-1.5-0.6s-0.6-0.9-0.6-1.5s0.2-1.1,0.6-1.5s0.9-0.6,1.5-0.6
	c0.6,0,1.1,0.2,1.5,0.6C387.2,71.4,387.4,71.9,387.4,72.5z M386.5,72.5c0-0.4-0.1-0.6-0.4-0.9c-0.2-0.2-0.5-0.4-0.9-0.4
	c-0.3,0-0.6,0.1-0.9,0.4c-0.2,0.2-0.4,0.5-0.4,0.9s0.1,0.6,0.4,0.9c0.2,0.2,0.5,0.4,0.9,0.4c0.3,0,0.6-0.1,0.9-0.4
	C386.4,73.2,386.5,72.9,386.5,72.5z M388.2,70.6v3.9h0.8v-2c0-0.4,0.1-0.7,0.4-0.9c0.2-0.2,0.5-0.3,0.8-0.2v-0.9
	c-0.6,0-1,0.2-1.2,0.7v-0.7H388.2z M393.1,71.4v-0.8h-1v-1.1l-0.8,0.2v0.8h-0.7v0.8h0.7v1.9c0,1,0.5,1.4,1.8,1.2v-0.8
	c-0.6,0-1,0-1-0.5v-1.9H393.1z M396.8,74.5v-0.6c-0.3,0.4-0.8,0.7-1.4,0.7c-0.5,0-1-0.2-1.4-0.6c-0.4-0.4-0.6-0.9-0.6-1.5
	c0-0.6,0.2-1.1,0.6-1.5c0.4-0.4,0.8-0.6,1.4-0.6c0.6,0,1,0.2,1.4,0.7v-0.6h0.8v3.9H396.8z M396.8,72.5c0-0.4-0.1-0.7-0.4-0.9
	c-0.2-0.2-0.5-0.4-0.9-0.4c-0.4,0-0.7,0.1-0.9,0.4c-0.2,0.2-0.4,0.5-0.4,0.9s0.1,0.7,0.4,0.9c0.2,0.2,0.5,0.4,0.9,0.4
	c0.4,0,0.6-0.1,0.9-0.4C396.7,73.2,396.8,72.9,396.8,72.5z M400.6,76.1c-0.9,0-1.5-0.3-1.9-0.9l0.7-0.4c0.2,0.4,0.6,0.6,1.1,0.6
	c0.7,0,1.2-0.4,1.2-1.1v-0.5c-0.3,0.5-0.8,0.7-1.4,0.7c-0.6,0-1-0.2-1.4-0.6c-0.4-0.4-0.6-0.9-0.6-1.4s0.2-1,0.6-1.4
	c0.4-0.4,0.8-0.6,1.4-0.6c0.6,0,1,0.2,1.4,0.7v-0.6h0.8v3.7c0,0.6-0.2,1-0.6,1.4C401.6,76,401.1,76.1,400.6,76.1z M401.8,72.5
	c0-0.4-0.1-0.6-0.4-0.9c-0.2-0.2-0.5-0.4-0.9-0.4c-0.4,0-0.7,0.1-0.9,0.4c-0.2,0.2-0.4,0.5-0.4,0.9s0.1,0.6,0.4,0.9
	c0.2,0.2,0.5,0.4,0.9,0.4c0.4,0,0.6-0.1,0.9-0.4C401.7,73.1,401.8,72.8,401.8,72.5z M407.4,72.9h-3.1c0.1,0.6,0.6,0.9,1.3,0.9
	c0.4,0,0.8-0.2,1-0.5l0.7,0.4c-0.4,0.6-1,0.9-1.7,0.9c-0.6,0-1.2-0.2-1.5-0.6c-0.4-0.4-0.6-0.9-0.6-1.5c0-0.6,0.2-1.1,0.6-1.5
	c0.4-0.4,0.9-0.6,1.5-0.6c0.6,0,1,0.2,1.4,0.6c0.4,0.4,0.6,0.9,0.6,1.5C407.4,72.6,407.4,72.7,407.4,72.9z M406.5,72.2
	c-0.1-0.6-0.6-1-1.1-1c-0.6,0-1.1,0.4-1.2,1H406.5z M410.5,74c-0.4-0.4-0.6-0.9-0.6-1.5s0.2-1.1,0.6-1.5s0.9-0.6,1.5-0.6
	c0.6,0,1.1,0.2,1.5,0.6c0.4,0.4,0.6,0.9,0.6,1.5s-0.2,1.1-0.6,1.5c-0.4,0.4-0.9,0.6-1.5,0.6C411.4,74.6,410.9,74.4,410.5,74z
	 M410.7,72.5c0,0.4,0.1,0.6,0.4,0.9c0.2,0.2,0.5,0.4,0.9,0.4c0.3,0,0.6-0.1,0.9-0.4c0.2-0.2,0.4-0.5,0.4-0.9s-0.1-0.6-0.4-0.9
	c-0.2-0.2-0.5-0.4-0.9-0.4c-0.3,0-0.6,0.1-0.9,0.4C410.8,71.9,410.7,72.2,410.7,72.5z M414.9,74.5h0.8v-3.1h0.9v-0.8h-0.9v-0.1
	c0-0.6,0.3-0.8,0.9-0.8v-0.8c-1.2-0.1-1.8,0.5-1.8,1.6v0.1h-0.6v0.8h0.6V74.5z M418.9,72.5c0,0.6,0.2,1.1,0.6,1.5
	c0.4,0.4,0.9,0.6,1.5,0.6c0.8,0,1.4-0.4,1.8-1l-0.7-0.4c-0.2,0.4-0.6,0.6-1,0.6c-0.3,0-0.6-0.1-0.9-0.4c-0.2-0.2-0.3-0.5-0.3-0.9
	s0.1-0.6,0.3-0.9c0.2-0.2,0.5-0.4,0.9-0.4c0.5,0,0.8,0.2,1,0.6l0.7-0.4c-0.3-0.6-1-1-1.7-1c-0.6,0-1.1,0.2-1.5,0.6
	C419.1,71.4,418.9,71.9,418.9,72.5z M425.4,70.5c-0.6,0-1,0.2-1.2,0.6V69h-0.8v5.5h0.8v-2.1c0-0.8,0.4-1.1,1-1.1
	c0.5,0,0.9,0.3,0.9,0.9v2.3h0.8v-2.4C426.9,71.1,426.3,70.5,425.4,70.5z M431.1,71c0.4,0.4,0.6,0.9,0.6,1.5s-0.2,1.1-0.6,1.5
	c-0.4,0.4-0.9,0.6-1.5,0.6c-0.6,0-1.1-0.2-1.5-0.6s-0.6-0.9-0.6-1.5s0.2-1.1,0.6-1.5s0.9-0.6,1.5-0.6
	C430.2,70.5,430.7,70.6,431.1,71z M430.9,72.5c0-0.4-0.1-0.6-0.4-0.9c-0.2-0.2-0.5-0.4-0.9-0.4c-0.3,0-0.6,0.1-0.9,0.4
	c-0.2,0.2-0.4,0.5-0.4,0.9s0.1,0.6,0.4,0.9c0.2,0.2,0.5,0.4,0.9,0.4c0.3,0,0.6-0.1,0.9-0.4C430.8,73.2,430.9,72.9,430.9,72.5z
	 M432.5,74.5h0.8v-3.9h-0.8V74.5z M432.5,69c-0.2,0.2-0.2,0.5,0,0.8c0.2,0.2,0.5,0.2,0.8,0c0.2-0.2,0.2-0.5,0-0.8
	C433.1,68.8,432.7,68.8,432.5,69z M436.2,71.3c0.5,0,0.8,0.2,1,0.6l0.7-0.4c-0.3-0.6-1-1-1.7-1c-0.6,0-1.1,0.2-1.5,0.6
	c-0.4,0.4-0.6,0.9-0.6,1.5c0,0.6,0.2,1.1,0.6,1.5c0.4,0.4,0.9,0.6,1.5,0.6c0.8,0,1.4-0.4,1.8-1l-0.7-0.4c-0.2,0.4-0.6,0.6-1,0.6
	c-0.3,0-0.6-0.1-0.9-0.4c-0.2-0.2-0.3-0.5-0.3-0.9s0.1-0.6,0.3-0.9C435.5,71.4,435.8,71.3,436.2,71.3z M440.4,74.6
	c-0.6,0-1.2-0.2-1.5-0.6c-0.4-0.4-0.6-0.9-0.6-1.5c0-0.6,0.2-1.1,0.6-1.5c0.4-0.4,0.9-0.6,1.5-0.6c0.6,0,1,0.2,1.4,0.6
	c0.4,0.4,0.6,0.9,0.6,1.5c0,0.1,0,0.2,0,0.4h-3.1c0.1,0.6,0.6,0.9,1.3,0.9c0.4,0,0.8-0.2,1-0.5l0.7,0.4
	C441.7,74.3,441.1,74.6,440.4,74.6z M439.1,72.2h2.3c-0.1-0.6-0.6-1-1.1-1C439.7,71.2,439.2,71.6,439.1,72.2z M445.3,74.2
	c0.3-0.2,0.4-0.5,0.4-0.9c0-0.8-0.8-1.1-1.4-1.2c-0.4-0.1-0.7-0.2-0.7-0.5c0-0.3,0.2-0.4,0.6-0.4c0.4,0,0.6,0.1,0.7,0.4l0.7-0.4
	c-0.3-0.5-0.8-0.8-1.4-0.8c-0.4,0-0.8,0.1-1,0.3c-0.3,0.2-0.4,0.5-0.4,0.9c0,0.8,0.8,1.1,1.4,1.2c0.4,0.1,0.7,0.2,0.7,0.5
	c0,0.3-0.2,0.4-0.7,0.4s-0.7-0.2-0.9-0.6l-0.7,0.4c0.3,0.6,0.8,0.9,1.6,0.9C444.6,74.6,445,74.5,445.3,74.2z M376.3,87.2
	c0.6,0,1-0.1,1.4-0.4c0.4-0.3,0.5-0.7,0.5-1.2c0-0.5-0.3-0.9-0.6-1.1c-0.1-0.1-0.2-0.1-0.4-0.2c-0.2-0.1-0.3-0.1-0.4-0.2
	c-0.1,0-0.2-0.1-0.5-0.2c-0.8-0.3-1.1-0.4-1.1-0.9c0-0.4,0.3-0.7,0.9-0.7c0.5,0,0.9,0.3,1.2,0.8l0.8-0.4c-0.4-0.8-1-1.2-1.9-1.2
	c-0.5,0-0.9,0.1-1.2,0.4c-0.3,0.3-0.5,0.7-0.5,1.2c0,0.5,0.2,0.9,0.5,1.1c0.4,0.2,0.6,0.3,1.2,0.5c0.5,0.1,0.8,0.3,1,0.4
	c0.2,0.1,0.3,0.3,0.3,0.5c0,0.4-0.3,0.7-1,0.7c-0.7,0-1.1-0.3-1.4-0.9l-0.8,0.5C374.5,86.7,375.3,87.2,376.3,87.2z M381,87.2
	c-0.6,0-1.2-0.2-1.5-0.6c-0.4-0.4-0.6-0.9-0.6-1.5c0-0.6,0.2-1.1,0.6-1.5c0.4-0.4,0.9-0.6,1.5-0.6c0.6,0,1,0.2,1.4,0.6
	c0.4,0.4,0.6,0.9,0.6,1.5c0,0.1,0,0.2,0,0.4h-3.1c0.1,0.6,0.6,0.9,1.3,0.9c0.4,0,0.8-0.2,1-0.5l0.7,0.4
	C382.3,86.9,381.8,87.2,381,87.2z M379.8,84.8h2.3c-0.1-0.6-0.6-1-1.1-1C380.3,83.9,379.9,84.2,379.8,84.8z M385.5,83.9
	c0.5,0,0.8,0.2,1,0.6l0.7-0.4c-0.3-0.6-1-1-1.7-1c-0.6,0-1.1,0.2-1.5,0.6c-0.4,0.4-0.6,0.9-0.6,1.5c0,0.6,0.2,1.1,0.6,1.5
	c0.4,0.4,0.9,0.6,1.5,0.6c0.8,0,1.4-0.4,1.8-1l-0.7-0.4c-0.2,0.4-0.6,0.6-1,0.6c-0.3,0-0.6-0.1-0.9-0.4c-0.2-0.2-0.3-0.5-0.3-0.9
	s0.1-0.6,0.3-0.9C384.8,84,385.1,83.9,385.5,83.9z M391.4,87.1v-3.9h-0.8v2.1c0,0.8-0.4,1.1-1,1.1c-0.5,0-0.9-0.3-0.9-0.9v-2.3h-0.8
	v2.4c0,1,0.6,1.6,1.5,1.6c0.6,0,1-0.2,1.2-0.6v0.5H391.4z M393.2,83.9v-0.7h-0.8v3.9h0.8v-2c0-0.4,0.1-0.7,0.4-0.9
	c0.2-0.2,0.5-0.3,0.8-0.2v-0.9C393.8,83.1,393.4,83.4,393.2,83.9z M395,87.1h0.8v-3.9H395V87.1z M395.8,81.7c-0.2-0.2-0.6-0.2-0.8,0
	c-0.2,0.2-0.2,0.5,0,0.8c0.2,0.2,0.5,0.2,0.8,0C396,82.2,396,81.9,395.8,81.7z M398.1,82.1l-0.8,0.3v0.8h-0.7V84h0.7v1.9
	c0,1,0.5,1.4,1.8,1.2v-0.8c-0.6,0-1,0-1-0.5V84h1v-0.8h-1V82.1z M403.4,83.2h-0.9l-1,2.8l-1.2-2.8h-0.9l1.7,3.8l0,0.1
	c-0.2,0.5-0.5,0.8-1,0.8v0.8c0.9,0.1,1.5-0.4,1.9-1.4L403.4,83.2z M406.7,83.2h-0.8v3.9h0.8V83.2z M406.7,82.5
	c0.2-0.2,0.2-0.5,0-0.8c-0.2-0.2-0.6-0.2-0.8,0c-0.2,0.2-0.2,0.5,0,0.8C406.2,82.7,406.5,82.7,406.7,82.5z M409.2,84.8
	c-0.4-0.1-0.7-0.2-0.7-0.5c0-0.3,0.2-0.4,0.6-0.4c0.4,0,0.6,0.1,0.7,0.4l0.7-0.4c-0.3-0.5-0.8-0.8-1.4-0.8c-0.4,0-0.8,0.1-1,0.3
	c-0.3,0.2-0.4,0.5-0.4,0.9c0,0.8,0.8,1.1,1.4,1.2c0.4,0.1,0.7,0.2,0.7,0.5c0,0.3-0.2,0.4-0.7,0.4s-0.7-0.2-0.9-0.6l-0.7,0.4
	c0.3,0.6,0.8,0.9,1.6,0.9c0.4,0,0.8-0.1,1.1-0.3c0.3-0.2,0.4-0.5,0.4-0.9C410.6,85.2,409.8,84.9,409.2,84.8z M412.6,84.8
	c-0.4-0.1-0.7-0.2-0.7-0.5c0-0.3,0.3-0.4,0.6-0.4c0.4,0,0.6,0.1,0.7,0.4l0.7-0.4c-0.3-0.5-0.8-0.8-1.4-0.8c-0.4,0-0.8,0.1-1,0.3
	c-0.3,0.2-0.4,0.5-0.4,0.9c0,0.8,0.8,1.1,1.4,1.2c0.4,0.1,0.7,0.2,0.7,0.5c0,0.3-0.2,0.4-0.7,0.4s-0.7-0.2-0.9-0.6l-0.7,0.4
	c0.3,0.6,0.8,0.9,1.6,0.9c0.4,0,0.8-0.1,1.1-0.3c0.3-0.2,0.4-0.5,0.4-0.9C414,85.2,413.2,84.9,412.6,84.8z M418.1,87.1v-3.9h-0.8
	v2.1c0,0.8-0.4,1.1-1,1.1c-0.5,0-0.9-0.3-0.9-0.9v-2.3h-0.8v2.4c0,1,0.6,1.6,1.5,1.6c0.6,0,1-0.2,1.2-0.6v0.5H418.1z M422.9,85.5
	h-3.1c0.1,0.6,0.6,0.9,1.3,0.9c0.4,0,0.8-0.2,1-0.5l0.7,0.4c-0.4,0.6-1,0.9-1.7,0.9c-0.6,0-1.2-0.2-1.5-0.6
	c-0.4-0.4-0.6-0.9-0.6-1.5c0-0.6,0.2-1.1,0.6-1.5c0.4-0.4,0.9-0.6,1.5-0.6c0.6,0,1,0.2,1.4,0.6c0.4,0.4,0.6,0.9,0.6,1.5
	C422.9,85.2,422.9,85.4,422.9,85.5z M422.1,84.8c-0.1-0.6-0.6-1-1.1-1c-0.6,0-1.1,0.4-1.2,1H422.1z M426.4,86c0-0.8-0.8-1.1-1.4-1.2
	c-0.4-0.1-0.7-0.2-0.7-0.5c0-0.3,0.2-0.4,0.6-0.4c0.4,0,0.6,0.1,0.7,0.4l0.7-0.4c-0.3-0.5-0.8-0.8-1.4-0.8c-0.4,0-0.8,0.1-1,0.3
	c-0.3,0.2-0.4,0.5-0.4,0.9c0,0.8,0.8,1.1,1.4,1.2c0.4,0.1,0.7,0.2,0.7,0.5c0,0.3-0.2,0.4-0.7,0.4s-0.7-0.2-0.9-0.6l-0.7,0.4
	c0.3,0.6,0.8,0.9,1.6,0.9c0.4,0,0.8-0.1,1.1-0.3C426.2,86.7,426.4,86.4,426.4,86z M377.1,95.1c0.7,0,1.3,0.3,1.6,0.9l0.8-0.5
	c-0.5-0.8-1.4-1.3-2.4-1.3c-0.8,0-1.5,0.3-2.1,0.8c-0.5,0.5-0.8,1.2-0.8,2c0,0.8,0.3,1.5,0.8,2c0.5,0.5,1.2,0.8,2.1,0.8
	c0.5,0,1-0.1,1.4-0.4c0.4-0.2,0.8-0.6,1-1l-0.8-0.4c-0.3,0.5-0.9,0.9-1.6,0.9c-0.6,0-1.1-0.2-1.4-0.6c-0.4-0.4-0.5-0.8-0.5-1.4
	c0-0.6,0.2-1,0.5-1.4C376.1,95.2,376.5,95.1,377.1,95.1z M380.2,99.8h0.8V94h-0.8V99.8z M385.3,96.3c0.4,0.4,0.6,0.9,0.6,1.5
	s-0.2,1.1-0.6,1.5c-0.4,0.4-0.9,0.6-1.5,0.6c-0.6,0-1.1-0.2-1.5-0.6s-0.6-0.9-0.6-1.5s0.2-1.1,0.6-1.5s0.9-0.6,1.5-0.6
	C384.4,95.7,384.9,95.9,385.3,96.3z M385.1,97.8c0-0.4-0.1-0.6-0.4-0.9c-0.2-0.2-0.5-0.4-0.9-0.4c-0.3,0-0.6,0.1-0.9,0.4
	c-0.2,0.2-0.4,0.5-0.4,0.9s0.1,0.6,0.4,0.9c0.2,0.2,0.5,0.4,0.9,0.4c0.3,0,0.6-0.1,0.9-0.4C385,98.4,385.1,98.2,385.1,97.8z
	 M388.1,97.4c-0.4-0.1-0.7-0.2-0.7-0.5c0-0.3,0.3-0.4,0.6-0.4c0.4,0,0.6,0.1,0.7,0.4l0.7-0.4c-0.3-0.5-0.8-0.8-1.4-0.8
	c-0.4,0-0.8,0.1-1,0.3c-0.3,0.2-0.4,0.5-0.4,0.9c0,0.8,0.8,1.1,1.4,1.2c0.4,0.1,0.7,0.2,0.7,0.5c0,0.3-0.2,0.4-0.7,0.4
	s-0.7-0.2-0.9-0.6l-0.7,0.4c0.3,0.6,0.8,0.9,1.6,0.9c0.4,0,0.8-0.1,1.1-0.3c0.3-0.2,0.4-0.5,0.4-0.9
	C389.5,97.8,388.7,97.6,388.1,97.4z M393.4,96.3c0.4,0.4,0.6,0.9,0.6,1.5c0,0.1,0,0.2,0,0.4h-3.1c0.1,0.6,0.6,0.9,1.3,0.9
	c0.4,0,0.8-0.2,1-0.5l0.7,0.4c-0.4,0.6-1,0.9-1.7,0.9c-0.6,0-1.2-0.2-1.5-0.6c-0.4-0.4-0.6-0.9-0.6-1.5c0-0.6,0.2-1.1,0.6-1.5
	c0.4-0.4,0.9-0.6,1.5-0.6C392.5,95.7,393,95.9,393.4,96.3z M393.1,97.5c-0.1-0.6-0.6-1-1.1-1c-0.6,0-1.1,0.4-1.2,1H393.1z
	 M397.7,94.3h0.8v5.5h-0.8v-0.6c-0.3,0.4-0.8,0.7-1.4,0.7c-0.5,0-1-0.2-1.4-0.6c-0.4-0.4-0.6-0.9-0.6-1.5c0-0.6,0.2-1.1,0.6-1.5
	c0.4-0.4,0.8-0.6,1.4-0.6c0.6,0,1,0.2,1.4,0.7V94.3z M397.7,97.8c0-0.4-0.1-0.7-0.4-0.9c-0.2-0.2-0.5-0.4-0.9-0.4
	c-0.4,0-0.7,0.1-0.9,0.4c-0.2,0.2-0.4,0.5-0.4,0.9s0.1,0.7,0.4,0.9c0.2,0.2,0.5,0.4,0.9,0.4c0.4,0,0.6-0.1,0.9-0.4
	C397.6,98.5,397.7,98.2,397.7,97.8z M405.1,96.3c0.4,0.4,0.6,0.9,0.6,1.5c0,0.6-0.2,1.1-0.6,1.5s-0.8,0.6-1.4,0.6
	c-0.6,0-1-0.2-1.4-0.7v2.1h-0.8v-5.5h0.8v0.6c0.3-0.4,0.8-0.7,1.4-0.7C404.3,95.7,404.7,95.9,405.1,96.3z M404.9,97.8
	c0-0.4-0.1-0.7-0.4-0.9c-0.2-0.2-0.5-0.4-0.9-0.4s-0.6,0.1-0.9,0.4c-0.2,0.2-0.4,0.5-0.4,0.9s0.1,0.7,0.4,0.9
	c0.2,0.2,0.5,0.4,0.9,0.4s0.6-0.1,0.9-0.4C404.7,98.5,404.9,98.2,404.9,97.8z M409.8,96.3c0.4,0.4,0.6,0.9,0.6,1.5s-0.2,1.1-0.6,1.5
	c-0.4,0.4-0.9,0.6-1.5,0.6c-0.6,0-1.1-0.2-1.5-0.6s-0.6-0.9-0.6-1.5s0.2-1.1,0.6-1.5s0.9-0.6,1.5-0.6
	C408.9,95.7,409.4,95.9,409.8,96.3z M409.5,97.8c0-0.4-0.1-0.6-0.4-0.9c-0.2-0.2-0.5-0.4-0.9-0.4c-0.3,0-0.6,0.1-0.9,0.4
	c-0.2,0.2-0.4,0.5-0.4,0.9s0.1,0.6,0.4,0.9c0.2,0.2,0.5,0.4,0.9,0.4c0.3,0,0.6-0.1,0.9-0.4C409.4,98.4,409.5,98.2,409.5,97.8z
	 M412,96.5v-0.7h-0.8v3.9h0.8v-2c0-0.4,0.1-0.7,0.4-0.9c0.2-0.2,0.5-0.3,0.8-0.2v-0.9C412.6,95.8,412.2,96,412,96.5z M415.1,94.7
	l-0.8,0.2v0.8h-0.7v0.8h0.7v1.9c0,1,0.5,1.4,1.8,1.2V99c-0.6,0-1,0-1-0.5v-1.9h1v-0.8h-1V94.7z M416.9,95.8L416.9,95.8l-0.6,0.1v0.8
	h0.6v3.1h0.8v-3.1h0.9v-0.8h-0.9v-0.1c0-0.6,0.3-0.8,0.9-0.8v-0.8C417.6,94.1,416.9,94.7,416.9,95.8z M422.3,96.3
	c0.4,0.4,0.6,0.9,0.6,1.5s-0.2,1.1-0.6,1.5c-0.4,0.4-0.9,0.6-1.5,0.6c-0.6,0-1.1-0.2-1.5-0.6s-0.6-0.9-0.6-1.5s0.2-1.1,0.6-1.5
	s0.9-0.6,1.5-0.6C421.5,95.7,421.9,95.9,422.3,96.3z M422.1,97.8c0-0.4-0.1-0.6-0.4-0.9c-0.2-0.2-0.5-0.4-0.9-0.4
	c-0.3,0-0.6,0.1-0.9,0.4c-0.2,0.2-0.4,0.5-0.4,0.9s0.1,0.6,0.4,0.9c0.2,0.2,0.5,0.4,0.9,0.4c0.3,0,0.6-0.1,0.9-0.4
	C422,98.4,422.1,98.2,422.1,97.8z M423.7,99.8h0.8V94h-0.8V99.8z M425.6,94.3c-0.2,0.2-0.2,0.5,0,0.8c0.2,0.2,0.5,0.2,0.8,0
	c0.2-0.2,0.2-0.5,0-0.8C426.1,94.1,425.8,94.1,425.6,94.3z M425.5,99.8h0.8v-3.9h-0.8V99.8z M430.7,96.3c0.4,0.4,0.6,0.9,0.6,1.5
	s-0.2,1.1-0.6,1.5c-0.4,0.4-0.9,0.6-1.5,0.6c-0.6,0-1.1-0.2-1.5-0.6s-0.6-0.9-0.6-1.5s0.2-1.1,0.6-1.5s0.9-0.6,1.5-0.6
	C429.8,95.7,430.3,95.9,430.7,96.3z M430.4,97.8c0-0.4-0.1-0.6-0.4-0.9c-0.2-0.2-0.5-0.4-0.9-0.4c-0.3,0-0.6,0.1-0.9,0.4
	c-0.2,0.2-0.4,0.5-0.4,0.9s0.1,0.6,0.4,0.9c0.2,0.2,0.5,0.4,0.9,0.4c0.3,0,0.6-0.1,0.9-0.4C430.3,98.4,430.4,98.2,430.4,97.8z
	 M435.5,97.4c-0.4-0.1-0.7-0.2-0.7-0.5c0-0.3,0.3-0.4,0.6-0.4c0.4,0,0.6,0.1,0.7,0.4l0.7-0.4c-0.3-0.5-0.8-0.8-1.4-0.8
	c-0.4,0-0.8,0.1-1,0.3c-0.3,0.2-0.4,0.5-0.4,0.9c0,0.8,0.8,1.1,1.4,1.2c0.4,0.1,0.7,0.2,0.7,0.5c0,0.3-0.2,0.4-0.7,0.4
	s-0.7-0.2-0.9-0.6l-0.7,0.4c0.3,0.6,0.8,0.9,1.6,0.9c0.4,0,0.8-0.1,1.1-0.3c0.3-0.2,0.4-0.5,0.4-0.9
	C436.9,97.8,436.1,97.6,435.5,97.4z M438.6,94.7l-0.8,0.2v0.8h-0.7v0.8h0.7v1.9c0,1,0.5,1.4,1.8,1.2V99c-0.6,0-1,0-1-0.5v-1.9h1
	v-0.8h-1V94.7z M441.3,96.5v-0.7h-0.8v3.9h0.8v-2c0-0.4,0.1-0.7,0.4-0.9c0.2-0.2,0.5-0.3,0.8-0.2v-0.9
	C441.9,95.8,441.5,96,441.3,96.5z M445.7,97.9c0,0.8-0.4,1.1-1,1.1c-0.5,0-0.9-0.3-0.9-0.9v-2.3H443v2.4c0,1,0.6,1.6,1.5,1.6
	c0.6,0,1-0.2,1.2-0.6v0.5h0.8v-3.9h-0.8V97.9z M449.4,99c-0.3,0-0.6-0.1-0.9-0.4c-0.2-0.2-0.3-0.5-0.3-0.9s0.1-0.6,0.3-0.9
	c0.2-0.2,0.5-0.4,0.9-0.4c0.5,0,0.8,0.2,1,0.6l0.7-0.4c-0.3-0.6-1-1-1.7-1c-0.6,0-1.1,0.2-1.5,0.6c-0.4,0.4-0.6,0.9-0.6,1.5
	c0,0.6,0.2,1.1,0.6,1.5c0.4,0.4,0.9,0.6,1.5,0.6c0.8,0,1.4-0.4,1.8-1l-0.7-0.4C450.3,98.8,449.9,99,449.4,99z M453,94.7l-0.8,0.2
	v0.8h-0.7v0.8h0.7v1.9c0,1,0.5,1.4,1.8,1.2V99c-0.6,0-1,0-1-0.5v-1.9h1v-0.8h-1V94.7z M457.4,97.9c0,0.8-0.4,1.1-1,1.1
	c-0.5,0-0.9-0.3-0.9-0.9v-2.3h-0.8v2.4c0,1,0.6,1.6,1.5,1.6c0.6,0,1-0.2,1.2-0.6v0.5h0.8v-3.9h-0.8V97.9z M460.1,96.5v-0.7h-0.8v3.9
	h0.8v-2c0-0.4,0.1-0.7,0.4-0.9c0.2-0.2,0.5-0.3,0.8-0.2v-0.9C460.7,95.8,460.3,96,460.1,96.5z M465,96.3c0.4,0.4,0.6,0.9,0.6,1.5
	c0,0.1,0,0.2,0,0.4h-3.1c0.1,0.6,0.6,0.9,1.3,0.9c0.4,0,0.8-0.2,1-0.5l0.7,0.4c-0.4,0.6-1,0.9-1.7,0.9c-0.6,0-1.2-0.2-1.5-0.6
	c-0.4-0.4-0.6-0.9-0.6-1.5c0-0.6,0.2-1.1,0.6-1.5c0.4-0.4,0.9-0.6,1.5-0.6C464.2,95.7,464.6,95.9,465,96.3z M464.7,97.5
	c-0.1-0.6-0.6-1-1.1-1c-0.6,0-1.1,0.4-1.2,1H464.7z M467.6,97.4c-0.4-0.1-0.7-0.2-0.7-0.5c0-0.3,0.3-0.4,0.6-0.4
	c0.4,0,0.6,0.1,0.7,0.4l0.7-0.4c-0.3-0.5-0.8-0.8-1.4-0.8c-0.4,0-0.8,0.1-1,0.3c-0.3,0.2-0.4,0.5-0.4,0.9c0,0.8,0.8,1.1,1.4,1.2
	c0.4,0.1,0.7,0.2,0.7,0.5c0,0.3-0.2,0.4-0.7,0.4s-0.7-0.2-0.9-0.6l-0.7,0.4c0.3,0.6,0.8,0.9,1.6,0.9c0.4,0,0.8-0.1,1.1-0.3
	c0.3-0.2,0.4-0.5,0.4-0.9C469,97.8,468.2,97.6,467.6,97.4z"/>
</svg>
