<?xml version="1.0" encoding="utf-8"?>
<!-- Generator: Adobe Illustrator 21.1.0, SVG Export Plug-In . SVG Version: 6.00 Build 0)  -->
<svg version="1.1" id="Layer_4" xmlns="http://www.w3.org/2000/svg" xmlns:xlink="http://www.w3.org/1999/xlink" x="0px" y="0px"
	 viewBox="0 0 162.3 204.9" style="enable-background:new 0 0 162.3 204.9;" xml:space="preserve">
<style type="text/css">
	.st0{fill:#ABB4BB;}
	.st1{fill:#FFFFFF;}
	.st2{fill:#464F56;}
	.st3{fill:#25258D;}
</style>
<path class="st0" d="M40.9,79.5h2.5l-3.5,6.1l-3.5-6.1h2.5V61.8c0-0.6,0.4-1,1-1c0.6,0,1,0.4,1,1V79.5z M116.7,79.5V61.8
	c0-0.6-0.4-1-1-1c-0.6,0-1,0.4-1,1v17.7h-2.4l3.4,6.1l3.5-6.1H116.7z"/>
<path class="st1" d="M85.2,58.4h-72c-1.6,0-2.8-1.3-2.8-2.8V13.2c0-1.6,1.3-2.8,2.8-2.8h72.1c1.6,0,2.8,1.3,2.8,2.8v42.4
	C88.1,57.2,86.8,58.4,85.2,58.4z"/>
<path class="st2" d="M85.2,59.4h-72c-2.1,0-3.8-1.7-3.8-3.8V13.2c0-2.1,1.7-3.8,3.8-3.8h72.1c2.1,0,3.8,1.7,3.8,3.8v42.4
	C89.1,57.7,87.4,59.4,85.2,59.4z M13.2,11.3c-1,0-1.8,0.8-1.8,1.8v42.4c0,1,0.8,1.8,1.8,1.8h72.1c1,0,1.8-0.8,1.8-1.8V13.2
	c0-1-0.8-1.8-1.8-1.8L13.2,11.3L13.2,11.3z"/>
<path class="st1" d="M80.6,53.8h-72c-1.6,0-2.8-1.3-2.8-2.8V8.5c0-1.6,1.3-2.8,2.8-2.8h72.1c1.6,0,2.8,1.3,2.8,2.8v42.4
	C83.5,52.5,82.2,53.8,80.6,53.8z"/>
<path class="st2" d="M80.6,54.8h-72c-2.1,0-3.8-1.7-3.8-3.8V8.5c0-2.1,1.7-3.8,3.8-3.8h72.1c2.1,0,3.8,1.7,3.8,3.8v42.4
	C84.5,53,82.8,54.8,80.6,54.8z M8.6,6.7c-1,0-1.8,0.8-1.8,1.8v42.4c0,1,0.8,1.8,1.8,1.8h72.1c1,0,1.8-0.8,1.8-1.8V8.5
	c0-1-0.8-1.8-1.8-1.8H8.6z"/>
<path class="st1" d="M75.9,49.1H3.8c-1.6,0-2.8-1.3-2.8-2.8V3.8C1,2.3,2.3,1,3.8,1h72.1c1.6,0,2.8,1.3,2.8,2.8v42.4
	C78.8,47.8,77.5,49.1,75.9,49.1z"/>
<path class="st2" d="M75.9,50.1H3.8c-2.1,0-3.8-1.7-3.8-3.8V3.8C0,1.7,1.7,0,3.8,0h72.1c2.1,0,3.8,1.7,3.8,3.8v42.4
	C79.8,48.4,78,50.1,75.9,50.1z M3.8,2C2.8,2,2,2.8,2,3.8v42.4c0,1,0.8,1.8,1.8,1.8h72.1c1,0,1.8-0.8,1.8-1.8V3.8
	c0-1-0.8-1.8-1.8-1.8H3.8z"/>
<path class="st1" d="M158.5,58.4H90.6c-1.6,0-2.8-1.3-2.8-2.8V13.2c0-1.6,1.3-2.8,2.8-2.8h67.9c1.6,0,2.8,1.3,2.8,2.8v42.4
	C161.3,57.2,160.1,58.4,158.5,58.4z"/>
<path class="st2" d="M158.5,59.4H90.6c-2.1,0-3.8-1.7-3.8-3.8V13.2c0-2.1,1.7-3.8,3.8-3.8h67.9c2.1,0,3.8,1.7,3.8,3.8v42.4
	C162.3,57.7,160.6,59.4,158.5,59.4z M90.6,11.3c-1,0-1.8,0.8-1.8,1.8v42.4c0,1,0.8,1.8,1.8,1.8h67.9c1,0,1.8-0.8,1.8-1.8V13.2
	c0-1-0.8-1.8-1.8-1.8L90.6,11.3L90.6,11.3z"/>
<path class="st1" d="M154.2,53.8H86.3c-1.6,0-2.8-1.3-2.8-2.8V8.5c0-1.6,1.3-2.8,2.8-2.8h67.9c1.6,0,2.8,1.3,2.8,2.8v42.4
	C157,52.5,155.7,53.8,154.2,53.8z"/>
<path class="st2" d="M154.2,54.8H86.3c-2.1,0-3.8-1.7-3.8-3.8V8.5c0-2.1,1.7-3.8,3.8-3.8h67.9c2.1,0,3.8,1.7,3.8,3.8v42.4
	C158,53,156.3,54.8,154.2,54.8z M86.3,6.7c-1,0-1.8,0.8-1.8,1.8v42.4c0,1,0.8,1.8,1.8,1.8h67.9c1,0,1.8-0.8,1.8-1.8V8.5
	c0-1-0.8-1.8-1.8-1.8H86.3z"/>
<path class="st1" d="M149.7,49.1H81.8c-1.6,0-2.8-1.3-2.8-2.8V3.8C79,2.3,80.2,1,81.8,1h67.9c1.6,0,2.8,1.3,2.8,2.8v42.4
	C152.5,47.8,151.2,49.1,149.7,49.1z"/>
<path class="st2" d="M149.7,50.1H81.8c-2.1,0-3.8-1.7-3.8-3.8V3.8C78,1.7,79.7,0,81.8,0h67.9c2.1,0,3.8,1.7,3.8,3.8v42.4
	C153.5,48.4,151.8,50.1,149.7,50.1z M81.8,2c-1,0-1.8,0.8-1.8,1.8v42.4c0,1,0.8,1.8,1.8,1.8h67.9c1,0,1.8-0.8,1.8-1.8V3.8
	c0-1-0.8-1.8-1.8-1.8H81.8z"/>
<path class="st2" d="M29.5,23.8H28v-6.3h3.8v1.4h-2.3v1.2h2.3v1.4h-2.3V23.8z M34.2,23.9c0.6,0,1.1-0.2,1.3-0.5v0.4h1.4v-4.5v-0.1
	h-1.3v2.5c0,0.6-0.3,0.9-0.8,0.9c-0.4,0-0.8-0.2-0.8-0.8v-2.6h-1.5V22C32.5,23.3,33.3,23.9,34.2,23.9z M39.2,21.4
	c0-0.6,0.3-0.9,0.8-0.9c0.4,0,0.8,0.2,0.8,0.8v2.6h1.4v-2.8c0-1.2-0.7-1.9-1.7-1.8c-0.6,0-1.1,0.2-1.3,0.5v-0.4h-1.4v4.5h1.4V21.4z
	 M42.9,21.5c0-1.3,1-2.4,2.2-2.4c0.6,0,1,0.2,1.3,0.5v-2.2h1.4v0.1v6.3h-1.4v-0.4c-0.3,0.3-0.7,0.5-1.3,0.5
	C43.9,23.9,42.9,22.9,42.9,21.5z M44.2,21.6c0,0.7,0.5,1.1,1.1,1.1c0.6,0,1.1-0.4,1.1-1.1s-0.5-1.1-1.1-1.1
	C44.7,20.5,44.2,20.9,44.2,21.6z M50.4,20.4c0.3,0,0.5,0.2,0.6,0.4l1.3-0.7c-0.4-0.7-1.1-1-1.8-1c-1,0-1.8,0.5-1.8,1.5
	c0,1.6,2.2,1.3,2.2,1.8c0,0.2-0.2,0.3-0.5,0.3c-0.4,0-0.7-0.2-0.8-0.5l-1.2,0.7c0.3,0.8,1,1.1,1.9,1.1c1,0,1.9-0.5,1.9-1.5
	c0-1.7-2.2-1.3-2.2-1.8C50,20.5,50.2,20.4,50.4,20.4z M25.2,33.4l0.8,0.9l-1.1,0.6l-0.6-0.6c-0.4,0.3-1,0.5-1.6,0.5
	c-1.3,0-2.3-0.7-2.3-1.9c0-0.7,0.4-1.4,1-1.8c-0.2-0.3-0.3-0.6-0.3-1c0-1.1,0.8-1.8,2-1.8c0.9,0,1.7,0.4,2.1,1.4L24,30.4
	c-0.2-0.4-0.4-0.7-0.8-0.7c-0.4,0-0.6,0.2-0.6,0.5c0,0.4,0.2,0.6,0.5,0.9l1.2,1.3c0.1-0.3,0.2-0.6,0.3-1l1.2,0.7
	C25.7,32.5,25.5,33,25.2,33.4z M23.5,33.3l-1.2-1.2V32c-0.2,0.2-0.3,0.5-0.3,0.7c0,0.4,0.3,0.7,0.9,0.7
	C23.1,33.4,23.3,33.4,23.5,33.3z M33.3,29.7v-1.4h-4.7v1.4h1.6v4.9h1.4v-4.9H33.3L33.3,29.7z M34.6,30.8V30h-1.4v4.5h1.4v-2
	c0-0.9,0.8-1.1,1.4-1V30C35.4,30,34.8,30.3,34.6,30.8z M39.7,30h1.4v0.1v4.5h-1.4v-0.4c-0.3,0.3-0.7,0.5-1.3,0.5
	c-1.2,0-2.2-1-2.2-2.4c0-1.3,1-2.4,2.2-2.4c0.6,0,1,0.2,1.3,0.5V30z M39.7,32.4c0-0.7-0.5-1.1-1.1-1.1c-0.6,0-1.1,0.4-1.1,1.1
	s0.5,1.1,1.1,1.1C39.2,33.5,39.7,33.1,39.7,32.4z M45.3,28.2h1.4v0.1v6.3h-1.4v-0.4c-0.3,0.3-0.7,0.5-1.3,0.5c-1.2,0-2.2-1-2.2-2.4
	c0-1.3,1-2.4,2.2-2.4c0.6,0,1,0.2,1.3,0.5V28.2z M45.4,32.4c0-0.7-0.5-1.1-1.1-1.1c-0.6,0-1.1,0.4-1.1,1.1s0.5,1.1,1.1,1.1
	C44.9,33.5,45.4,33.1,45.4,32.4z M52.2,32.4c0,0.2,0,0.4-0.1,0.5h-3.2c0.2,0.5,0.6,0.7,1.1,0.7c0.4,0,0.7-0.1,0.9-0.3l1.1,0.6
	c-0.4,0.6-1.1,0.9-2,0.9c-1.5,0-2.5-1-2.5-2.4c0-1.3,1-2.4,2.4-2.4C51.2,30,52.2,31,52.2,32.4z M50.8,31.9c-0.1-0.5-0.5-0.7-1-0.7
	s-0.9,0.3-1,0.7H50.8z M54.3,30.8V30h-1.4v4.5h1.4v-2c0-0.9,0.7-1.1,1.3-1V30C55,30,54.4,30.3,54.3,30.8z M57.9,31.1
	c0.3,0,0.5,0.2,0.6,0.4l1.2-0.6c-0.4-0.7-1.1-1-1.8-1c-1,0-1.8,0.5-1.8,1.5c0,1.6,2.2,1.3,2.2,1.8c0,0.2-0.2,0.3-0.5,0.3
	c-0.4,0-0.7-0.2-0.8-0.5l-1.2,0.7c0.3,0.8,1,1.1,1.9,1.1c1,0,1.9-0.5,1.9-1.5c0-1.7-2.2-1.3-2.1-1.9C57.5,31.2,57.7,31.1,57.9,31.1z
	 M97.6,28.5H99v-6.3h-1.4V28.5z M102.7,23.9c-0.6,0-1.1,0.2-1.3,0.5V24H100v4.5h1.4V26c0-0.6,0.3-0.9,0.8-0.9c0.4,0,0.8,0.2,0.8,0.8
	v2.6h1.4v-2.8C104.4,24.5,103.6,23.9,102.7,23.9z M107.1,26.9l-0.9-2.9h-1.5l1.7,4.5h1.5l1.7-4.5H108L107.1,26.9z M114.4,26.2
	c0,0.2,0,0.4-0.1,0.5h-3.2c0.1,0.6,0.6,0.7,1.1,0.7c0.4,0,0.7-0.1,0.9-0.3l1.1,0.6c-0.4,0.6-1.1,0.9-2,0.9c-1.5,0-2.5-1-2.5-2.4
	c0-1.3,1-2.4,2.4-2.4C113.4,23.8,114.4,24.8,114.4,26.2z M113,25.8c-0.1-0.5-0.5-0.7-1-0.7s-0.9,0.3-1,0.7H113z M116.7,24.9
	c0.3,0,0.5,0.2,0.6,0.4l1.2-0.6c-0.4-0.7-1.1-1-1.8-1c-1,0-1.8,0.5-1.8,1.5c0,1.6,2.2,1.3,2.2,1.8c0,0.2-0.2,0.3-0.5,0.3
	c-0.4,0-0.7-0.2-0.8-0.5l-1.2,0.7c0.3,0.8,1,1.1,1.9,1.1c1,0,1.9-0.5,1.9-1.5c0-1.6-2.2-1.3-2.1-1.9C116.3,25,116.5,24.9,116.7,24.9
	z M120.7,22.7l-1.4,0.4V24h-0.7v1.3h0.7v1.6c0,1.2,0.5,1.8,2.3,1.6v-1.2c-0.6,0-0.9,0-0.9-0.4v-1.6h0.9V24h-0.9V22.7z M126.8,26.2
	c0,1.3-1.1,2.4-2.4,2.4c-1.3,0-2.4-1-2.4-2.4c0-1.3,1.1-2.4,2.4-2.4C125.7,23.8,126.8,24.8,126.8,26.2z M125.4,26.2
	c0-0.6-0.5-1.1-1-1.1c-0.6,0-1,0.4-1,1.1s0.5,1.1,1,1.1C125,27.3,125.4,26.9,125.4,26.2z M128.9,24.8V24h-1.4v4.4h1.4v-2
	c0-0.9,0.8-1.1,1.4-1v-1.5C129.7,23.9,129.1,24.2,128.9,24.8z M132.2,25.2c0-0.2,0.2-0.3,0.4-0.3c0.3,0,0.5,0.2,0.6,0.4l1.2-0.6
	c-0.4-0.7-1.1-1-1.8-1c-1,0-1.8,0.5-1.8,1.5c0,1.6,2.2,1.3,2.2,1.8c0,0.2-0.2,0.3-0.5,0.3c-0.4,0-0.7-0.2-0.8-0.5l-1.2,0.7
	c0.3,0.8,1,1.1,1.9,1.1c1,0,1.9-0.5,1.9-1.5C134.3,25.5,132,25.8,132.2,25.2z"/>
<path class="st1" d="M158.5,203.9H13.2c-1.6,0-2.8-1.3-2.8-2.8v-99.5c0-1.6,1.3-2.8,2.8-2.8h145.3c1.6,0,2.8,1.3,2.8,2.8v99.5
	C161.3,202.7,160.1,203.9,158.5,203.9z"/>
<path class="st3" d="M158.5,204.9H13.2c-2.1,0-3.8-1.7-3.8-3.8v-99.5c0-2.1,1.7-3.8,3.8-3.8h145.3c2.1,0,3.8,1.7,3.8,3.8v99.5
	C162.3,203.2,160.6,204.9,158.5,204.9z M13.2,99.8c-1,0-1.8,0.8-1.8,1.8v99.5c0,1,0.8,1.8,1.8,1.8h145.3c1,0,1.8-0.8,1.8-1.8v-99.5
	c0-1-0.8-1.8-1.8-1.8H13.2z"/>
<path class="st1" d="M153.9,199.3H8.6c-1.6,0-2.8-1.3-2.8-2.8V96.9c0-1.6,1.3-2.8,2.8-2.8h145.3c1.6,0,2.8,1.3,2.8,2.8v99.5
	C156.7,198,155.5,199.3,153.9,199.3z"/>
<path class="st3" d="M153.9,200.3H8.6c-2.1,0-3.8-1.7-3.8-3.8V96.9c0-2.1,1.7-3.8,3.8-3.8h145.3c2.1,0,3.8,1.7,3.8,3.8v99.5
	C157.7,198.6,156,200.3,153.9,200.3z M8.6,95.1c-1,0-1.8,0.8-1.8,1.8v99.5c0,1,0.8,1.8,1.8,1.8h145.3c1,0,1.8-0.8,1.8-1.8V96.9
	c0-1-0.8-1.8-1.8-1.8H8.6z"/>
<path class="st3" d="M152.9,92.3v99.5c0.1,2.1-1.6,3.8-3.7,3.8H3.8c-2.1,0-3.8-1.7-3.8-3.8V92.3c0-2.1,1.7-3.8,3.8-3.8h145.3
	C151.2,88.5,152.9,90.2,152.9,92.3z"/>
<path class="st1" d="M17.5,111.1H16v-6.8h1.6v3l2.1-3h1.8l-2.3,3.3l2.4,3.5h-1.9l-2.2-3.2V111.1z M23.8,111.1h1.6v-2.6l2.3-4.2h-1.8
	l-1.3,2.6l-1.3-2.6h-1.8l2.3,4.2V111.1z M31,111.4c1.2,0,2.3-0.6,2.9-1.6l-1.3-0.8c-0.3,0.5-0.9,0.8-1.6,0.8c-1.2,0-2-0.8-2-2
	c0-1.2,0.8-2,2-2c0.7,0,1.3,0.3,1.6,0.8l1.3-0.8c-0.6-1-1.7-1.6-2.9-1.6c-2,0-3.5,1.5-3.5,3.5S28.9,111.2,31,111.4z M20,123.6h-2.4
	v-5.3H16v6.8h4V123.6z M25.3,123.2h-3.5c0.3,0.5,0.7,0.7,1.2,0.7c0.4,0,0.7-0.2,0.9-0.4l1.2,0.7c-0.5,0.7-1.2,1-2.1,1
	c-1.7,0-2.7-1.1-2.7-2.6s1.1-2.6,2.6-2.6c1.4,0,2.5,1.1,2.5,2.6C25.4,122.8,25.4,123,25.3,123.2z M23.9,122.1
	c-0.2-0.6-0.6-0.8-1-0.8c-0.6,0-0.9,0.3-1.1,0.8H23.9z M28.6,127.1c-1,0-1.9-0.4-2.3-1.2l1.2-0.7c0.2,0.3,0.5,0.6,1.1,0.6
	c0.7,0,1.1-0.4,1.1-1v-0.4c-0.3,0.4-0.8,0.6-1.4,0.6c-1.4,0-2.4-1.1-2.4-2.5c0-1.4,1-2.5,2.4-2.5c0.6,0,1.1,0.2,1.4,0.6v-0.5h1.5
	v0.1v4.6C31.2,126.4,29.9,127.1,28.6,127.1z M29.8,122.6c0-0.7-0.5-1.1-1.2-1.1c-0.7,0-1.2,0.5-1.2,1.1c0,0.6,0.5,1.1,1.2,1.1
	C29.3,123.7,29.8,123.2,29.8,122.6z M34.3,120c0.7,0,1.1,0.2,1.5,0.6v-0.5h1.5v0.1v4.9h-1.5v-0.5c-0.3,0.4-0.8,0.6-1.5,0.6
	c-1.3,0-2.3-1.1-2.3-2.6S33.1,120,34.3,120z M33.4,122.7c0,0.7,0.5,1.2,1.2,1.2c0.7,0,1.2-0.5,1.2-1.2s-0.5-1.2-1.2-1.2
	C33.9,121.5,33.4,122,33.4,122.7z M39.8,118h-1.5v7.1h1.5V118z M17.6,139.1H16v-6.8h2.7c1.3,0,2.3,1,2.3,2.3c0,0.8-0.5,1.6-1.3,2
	l1.5,2.5h-1.7l-1.2-2.2h-0.7V139.1z M17.5,135.5h1.2c0.4,0,0.8-0.4,0.8-0.9s-0.4-0.9-0.8-0.9h-1.2V135.5z M26.7,139.1h-1.5v-0.5
	c-0.3,0.4-0.8,0.6-1.5,0.6c-1.3,0-2.3-1.1-2.3-2.6s1.1-2.6,2.3-2.6c0.7,0,1.1,0.2,1.5,0.6v-0.5h1.5v0.1V139.1z M25.2,136.7
	c0-0.7-0.5-1.2-1.2-1.2s-1.2,0.5-1.2,1.2s0.5,1.2,1.2,1.2C24.7,137.8,25.2,137.4,25.2,136.7z M30.6,137.7c-0.6,0.1-1,0-1-0.4v-1.6h1
	v-1.4h-1v-1.4l-1.5,0.4v0.9h-0.8v1.4h0.8v1.7c0,1.3,0.6,1.9,2.5,1.7V137.7z M32.2,132c-0.5,0-0.9,0.4-0.9,0.9s0.4,0.9,0.9,0.9
	c0.5,0,0.9-0.4,0.9-0.9S32.7,132,32.2,132z M31.5,139.1H33v-4.9h-1.5V139.1z M35.5,134.7v-0.5H34v4.9h1.5v-2.7c0-0.7,0.4-1,0.9-1
	c0.4,0,0.8,0.3,0.8,0.9v2.8h1.5v-3c0-1.3-0.9-2-1.8-2C36.3,134.1,35.8,134.3,35.5,134.7z M39.4,136.5c0-1.4,1-2.5,2.4-2.5
	c0.6,0,1.1,0.2,1.4,0.6v-0.5h1.5v0.1v4.6c0,1.6-1.3,2.3-2.6,2.3c-1,0-1.9-0.4-2.3-1.2l1.2-0.7c0.2,0.3,0.5,0.6,1.1,0.6
	c0.7,0,1.1-0.4,1.1-1v-0.4c-0.3,0.4-0.8,0.6-1.4,0.6C40.4,139,39.4,137.9,39.4,136.5z M40.9,136.6c0,0.6,0.5,1.1,1.2,1.1
	c0.7,0,1.2-0.5,1.2-1.1c0-0.7-0.5-1.1-1.2-1.1C41.4,135.5,40.9,136,40.9,136.6z M47.5,137.9c-0.4,0-0.7-0.2-0.8-0.6l-1.3,0.7
	c0.4,0.8,1.1,1.2,2.1,1.2s2-0.5,2-1.6c0-1.8-2.4-1.4-2.4-1.9c0-0.2,0.1-0.3,0.4-0.3c0.4,0,0.6,0.1,0.7,0.4l1.2-0.7
	c-0.4-0.6-1.1-1-1.9-1c-1,0-1.9,0.5-1.9,1.6c0,1.6,2.4,1.4,2.4,1.9C48,137.8,47.9,137.9,47.5,137.9z M18.3,151.6
	c-0.7,0-1.2-0.3-1.4-0.9l-1.3,0.8c0.4,1,1.3,1.7,2.7,1.4c1.4,0,2.5-0.8,2.5-2.1c0-1.4-1.2-1.8-2.2-2.1s-1.2-0.5-1.2-0.8
	c0-0.3,0.2-0.5,0.7-0.5c0.6,0,1,0.3,1.2,0.8l1.3-0.8c-0.5-1-1.4-1.5-2.5-1.5c-1.2,0-2.3,0.8-2.3,2.1s1,1.8,2,2.1
	c1,0.3,1.4,0.5,1.4,0.9C19.2,151.3,19,151.6,18.3,151.6z M24.1,148.1c1.4,0,2.6,1.1,2.6,2.6s-1.2,2.6-2.6,2.6
	c-1.4-0.1-2.6-1.2-2.6-2.6C21.5,149.2,22.7,148.1,24.1,148.1z M24.2,149.5c-0.6,0-1.2,0.5-1.2,1.2s0.5,1.2,1.1,1.2
	c0.6,0,1.2-0.6,1.2-1.2C25.3,150,24.8,149.5,24.2,149.5z M30.1,147.5v-1.4c-1.6-0.1-2.4,0.7-2.4,2.1H27v1.4h0.7v3.5h1.5v-3.5h0.9
	v-1.4h-0.9C29.2,147.7,29.5,147.5,30.1,147.5z M33.6,149.7v-1.4h-1v-1.4l-1.5,0.4v0.9h-0.8v1.4h0.8v1.7c0,1.3,0.6,1.9,2.5,1.7v-1.3
	c-0.6,0.1-1,0-1-0.4v-1.6H33.6z M39.2,150.8l-0.8-2.6H37l-0.8,2.6l-0.7-2.6h-1.6l1.6,4.9h1.4l0.8-2.6l0.8,2.6h1.4l1.6-4.9h-1.6
	L39.2,150.8z M43.9,148c0.7,0,1.1,0.2,1.5,0.6v-0.5h1.5v0.1v4.9h-1.5v-0.5c-0.3,0.4-0.8,0.6-1.5,0.6c-1.3,0-2.3-1.1-2.3-2.6
	S42.7,148,43.9,148z M44.2,149.5c-0.7,0-1.2,0.5-1.2,1.2s0.5,1.2,1.2,1.2s1.2-0.5,1.2-1.2S44.9,149.5,44.2,149.5z M49.4,148.2h-1.5
	v4.9h1.5v-2.2c0-1,0.9-1.2,1.5-1.1v-1.7c-0.6,0-1.3,0.3-1.5,1V148.2z M51.2,150.6c0-1.5,1.1-2.6,2.6-2.6c1.4,0,2.5,1.1,2.5,2.6
	c0,0.2,0,0.4-0.1,0.6h-3.5c0.2,0.5,0.6,0.7,1.2,0.7c0.4,0,0.7-0.2,0.9-0.4l1.2,0.7c-0.5,0.7-1.2,1-2.1,1
	C52.2,153.2,51.2,152.1,51.2,150.6z M52.7,150.1h2.1c-0.2-0.6-0.6-0.8-1-0.8C53.2,149.3,52.9,149.6,52.7,150.1z M17.2,167.1h1.6
	v-5.3h1.7v-1.5h-5.1v1.5h1.8V167.1z M22.7,167.3c-1.5-0.1-2.6-1.2-2.6-2.6c0-1.5,1.2-2.6,2.6-2.6c1.4,0,2.6,1.1,2.6,2.6
	S24.1,167.3,22.7,167.3z M22.7,165.9c0.6,0,1.1-0.6,1.1-1.2c0-0.7-0.5-1.2-1.1-1.2c-0.6,0-1.1,0.5-1.1,1.2S22.1,165.9,22.7,165.9z
	 M28.9,164.7l1.8-2.4H29l-1.5,2.1v-4.1H26v6.8h1.5v-2.2l1.6,2.2h1.6L28.9,164.7z M35.9,164.6c0,0.2,0,0.4-0.1,0.6h-3.5
	c0.2,0.5,0.6,0.7,1.2,0.7c0.4,0,0.7-0.2,0.9-0.4l1.2,0.7c-0.5,0.7-1.2,1-2.1,1c-1.7,0-2.7-1.1-2.7-2.6s1.1-2.6,2.6-2.6
	C34.8,162,35.9,163.1,35.9,164.6z M34.4,164.1c-0.2-0.6-0.6-0.8-1-0.8c-0.6,0-0.9,0.3-1.1,0.8H34.4z M39.8,164.3v2.8h1.5v-3
	c0-1.3-0.8-2-1.8-2c-0.6,0-1.1,0.2-1.4,0.6v-0.5h-1.5v4.9h1.5v-2.7c0-0.7,0.4-1,0.9-1C39.4,163.4,39.8,163.7,39.8,164.3z M43.1,160
	c-0.5,0-0.9,0.4-0.9,0.9s0.4,0.9,0.9,0.9c0.5,0,0.9-0.4,0.9-0.9S43.6,160,43.1,160z M42.4,167.1h1.5v-4.9h-1.5V167.1z M44.7,167.1
	h3.9v-1.4h-1.9l1.8-2.5v-1h-3.7v1.4h1.7l-1.8,2.5V167.1z M51.2,162c0.7,0,1.1,0.2,1.5,0.6v-0.5h1.5v0.1v4.9h-1.5v-0.5
	c-0.3,0.4-0.8,0.6-1.5,0.6c-1.3,0-2.3-1.1-2.3-2.6S50,162,51.2,162z M50.4,164.7c0,0.7,0.5,1.2,1.2,1.2c0.7,0,1.2-0.5,1.2-1.2
	s-0.5-1.2-1.2-1.2C50.9,163.5,50.4,164,50.4,164.7z M55.7,165.3c0,1.3,0.6,1.9,2.5,1.7v-1.3c-0.6,0.1-1,0-1-0.4v-1.6h1v-1.4h-1v-1.4
	l-1.5,0.4v0.9h-0.8v1.4h0.8V165.3z M59,167.1h1.5v-4.9H59V167.1z M59.8,160c-0.5,0-0.9,0.4-0.9,0.9s0.4,0.9,0.9,0.9
	c0.5,0,0.9-0.4,0.9-0.9S60.3,160,59.8,160z M63.9,162.1c1.4,0,2.6,1.1,2.6,2.6s-1.2,2.6-2.6,2.6c-1.4,0-2.6-1.2-2.6-2.6
	C61.3,163.2,62.5,162.1,63.9,162.1z M63.9,163.5c-0.6,0-1.1,0.5-1.1,1.2s0.5,1.2,1.1,1.2c0.6-0.1,1.1-0.6,1.1-1.2
	C65,164,64.5,163.5,63.9,163.5z M70.5,167.1H72v-3c0-1.3-0.9-2-1.8-2c-0.6,0-1.1,0.2-1.4,0.6v-0.5h-1.5v4.9h1.5v-2.7
	c0-0.7,0.4-1,0.9-1c0.4,0,0.8,0.3,0.8,0.9V167.1z M18.6,176.7c-1-0.3-1.2-0.5-1.2-0.8c0-0.3,0.2-0.5,0.7-0.5c0.6,0,1,0.3,1.2,0.8
	l1.3-0.8c-0.5-1-1.4-1.5-2.5-1.5c-1.2,0-2.3,0.8-2.3,2.1s1,1.8,2,2.1c1,0.3,1.4,0.5,1.4,0.9c0,0.3-0.2,0.6-0.9,0.6s-1.2-0.3-1.4-0.9
	l-1.3,0.8c0.4,1,1.3,1.7,2.7,1.4c1.4,0,2.5-0.8,2.5-2.1C20.8,177.4,19.6,177,18.6,176.7z M27,176c-0.7,0-1.1,0.2-1.4,0.6
	c-0.3-0.4-0.7-0.6-1.3-0.6c-0.6,0-1.1,0.3-1.3,0.6v-0.4h-1.5v4.9H23v-2.8c0-0.6,0.3-0.9,0.8-0.9s0.7,0.3,0.7,0.8v2.9H26v-2.8
	c0-0.6,0.3-0.9,0.8-0.9s0.7,0.3,0.7,0.8v2.9H29v-3C29,176.9,28.2,176.1,27,176z M33.5,176.1H35v0.1v4.9h-1.5v-0.5
	c-0.3,0.4-0.8,0.6-1.5,0.6c-1.3,0-2.3-1.1-2.3-2.6s1.1-2.6,2.3-2.6c0.7,0,1.1,0.2,1.5,0.6V176.1z M33.5,178.7c0-0.7-0.5-1.2-1.2-1.2
	s-1.2,0.5-1.2,1.2s0.5,1.2,1.2,1.2C33,179.8,33.5,179.4,33.5,178.7z M37.5,177.1v-0.9H36v4.9h1.5v-2.2c0-1,0.9-1.2,1.5-1.1v-1.7
	C38.4,176.1,37.7,176.4,37.5,177.1z M41.7,174.9l-1.5,0.4v0.9h-0.8v1.4h0.8v1.7c0,1.3,0.6,1.9,2.5,1.7v-1.3c-0.6,0.1-1,0-1-0.4v-1.6
	h1v-1.4h-1V174.9z M43.5,178.9h3.7v-1.4h-3.7V178.9z M51.6,175.8c0.7,0,1.3,0.3,1.6,0.8l1.3-0.8c-0.6-1-1.7-1.6-2.9-1.6
	c-2,0-3.5,1.5-3.5,3.5s1.5,3.5,3.5,3.7c1.2,0,2.3-0.6,2.9-1.6l-1.3-0.8c-0.3,0.5-0.9,0.8-1.6,0.8c-1.2,0-2-0.8-2-2
	C49.6,176.6,50.4,175.8,51.6,175.8z M60.3,178.7c0,1.5-1.2,2.6-2.6,2.6c-1.5-0.1-2.6-1.2-2.6-2.6c0-1.5,1.2-2.6,2.6-2.6
	C59.1,176.1,60.3,177.2,60.3,178.7z M58.8,178.7c0-0.7-0.5-1.2-1.1-1.2c-0.6,0-1.1,0.5-1.1,1.2s0.5,1.2,1.1,1.2
	C58.3,179.8,58.8,179.3,58.8,178.7z M64,176.1c-0.6,0-1.1,0.2-1.4,0.6v-0.5h-1.5v4.9h1.5v-2.7c0-0.7,0.4-1,0.9-1
	c0.4,0,0.8,0.3,0.8,0.9v2.8h1.5v-3C65.8,176.8,64.9,176.1,64,176.1z M68.6,174.9l-1.5,0.4v0.9h-0.8v1.4h0.8v1.7
	c0,1.3,0.6,1.9,2.5,1.7v-1.3c-0.6,0.1-1,0-1-0.4v-1.6h1v-1.4h-1V174.9z M72,177.1v-0.9h-1.5v4.9H72v-2.2c0-1,0.9-1.2,1.5-1.1v-1.7
	C72.9,176.1,72.2,176.4,72,177.1z M77.5,176.1H79v0.1v4.9h-1.5v-0.5c-0.3,0.4-0.8,0.6-1.5,0.6c-1.3,0-2.3-1.1-2.3-2.6
	s1.1-2.6,2.3-2.6c0.7,0,1.1,0.2,1.5,0.6V176.1z M77.6,178.7c0-0.7-0.5-1.2-1.2-1.2c-0.7,0-1.2,0.5-1.2,1.2s0.5,1.2,1.2,1.2
	C77.1,179.9,77.6,179.4,77.6,178.7z M82.5,177.5c0.4,0,0.7,0.2,0.9,0.5l1.3-0.7c-0.4-0.7-1.3-1.2-2.2-1.2c-1.5,0-2.6,1.1-2.6,2.6
	c0,1.4,1.1,2.5,2.6,2.5c1,0,1.8-0.5,2.2-1.3l-1.3-0.7c-0.1,0.3-0.5,0.5-0.9,0.5c-0.6,0-1.1-0.5-1.1-1.1
	C81.4,178,81.9,177.5,82.5,177.5z M87.1,174.9l-1.5,0.4v0.9h-0.8v1.4h0.8v1.7c0,1.3,0.6,1.9,2.5,1.7v-1.3c-0.6,0.1-1,0-1-0.4v-1.6h1
	v-1.4h-1V174.9z M90.3,177.7c0-0.2,0.1-0.3,0.4-0.3c0.4,0,0.6,0.1,0.7,0.4l1.2-0.7c-0.4-0.6-1.1-1-1.9-1c-1,0-1.9,0.5-1.9,1.6
	c0,1.6,2.4,1.4,2.4,1.9c0,0.2-0.1,0.3-0.5,0.3s-0.7-0.2-0.8-0.6l-1.3,0.7c0.4,0.8,1.1,1.2,2.1,1.2s2-0.5,2-1.6
	C92.7,177.8,90.3,178.2,90.3,177.7z M60,111.1h-1.7l2.3-6.8h2l2.3,6.8h-1.7l-0.4-1.1h-2.5L60,111.1z M60.7,108.6h1.6l-0.8-2.5
	L60.7,108.6z M66.8,113.1h-1.5v-6.8h1.5v0.5c0.3-0.4,0.8-0.6,1.5-0.6c1.3-0.1,2.3,1,2.3,2.5s-1.1,2.6-2.3,2.6
	c-0.7,0-1.1-0.2-1.5-0.6V113.1z M66.8,108.7c0,0.7,0.5,1.2,1.2,1.2c0.7-0.1,1.2-0.5,1.2-1.2s-0.5-1.2-1.2-1.2S66.8,108,66.8,108.7z
	 M72.9,113.1h-1.5v-6.8h1.5v0.5c0.3-0.4,0.8-0.6,1.5-0.6c1.2-0.1,2.3,1,2.3,2.5s-1.1,2.6-2.3,2.6c-0.7,0-1.1-0.2-1.5-0.6V113.1z
	 M72.8,108.7c0,0.7,0.5,1.2,1.2,1.2s1.2-0.5,1.2-1.2s-0.5-1.2-1.2-1.2S72.8,108,72.8,108.7z M79,108.9c0-1,0.9-1.2,1.5-1.1v-1.7
	c-0.7,0-1.3,0.3-1.5,1v-0.9h-1.5v4.9H79V108.9z M80.7,108.7c0-1.5,1.2-2.6,2.6-2.6c1.4,0,2.6,1.1,2.6,2.6s-1.2,2.6-2.6,2.6
	C81.9,111.3,80.7,110.1,80.7,108.7z M82.3,108.7c0,0.7,0.5,1.2,1.1,1.2c0.6,0,1.1-0.6,1.1-1.2c0-0.7-0.5-1.2-1.1-1.2
	C82.8,107.5,82.3,108,82.3,108.7z M89.5,111.1l1.8-4.9h-1.7l-1,3.1l-1-3.1H86l1.8,4.9H89.5z M91.4,108.6c0-1.5,1.1-2.6,2.6-2.6
	c1.4,0,2.5,1.1,2.5,2.6c0,0.2,0,0.4-0.1,0.6h-3.5c0.2,0.5,0.7,0.7,1.2,0.7c0.4,0,0.7-0.2,0.9-0.4l1.2,0.7c-0.5,0.7-1.2,1-2.1,1
	C92.4,111.2,91.4,110.1,91.4,108.6z M92.9,108.1H95c-0.2-0.6-0.6-0.8-1-0.8C93.4,107.3,93.1,107.6,92.9,108.1z M96.9,108.6
	c0-1.5,1.1-2.6,2.3-2.6c0.7,0,1.1,0.2,1.5,0.6v-2.4h1.5v0.1v6.8h-1.5v-0.5c-0.3,0.4-0.8,0.6-1.5,0.6
	C97.9,111.2,96.9,110.1,96.9,108.6z M98.4,108.7c0,0.7,0.5,1.2,1.2,1.2c0.7,0,1.2-0.5,1.2-1.2s-0.5-1.2-1.2-1.2
	C98.9,107.5,98.4,108,98.4,108.7z M107,111.1h1.6v-5.3h1.7v-1.5h-5.1v1.5h1.8V111.1z M110.4,106.2v4.9h1.5v-2.2c0-1,0.9-1.2,1.5-1.1
	v-1.7c-0.7,0-1.3,0.3-1.5,1v-0.9H110.4z M113.6,108.6c0-1.5,1.1-2.6,2.3-2.6c0.7,0,1.1,0.2,1.5,0.6v-0.5h1.5v0.1v4.9h-1.5v-0.5
	c-0.3,0.4-0.8,0.6-1.5,0.6C114.6,111.2,113.6,110.1,113.6,108.6z M115,108.7c0,0.7,0.5,1.2,1.2,1.2s1.2-0.5,1.2-1.2
	s-0.5-1.2-1.2-1.2S115,108,115,108.7z M119.7,108.6c0-1.5,1.1-2.6,2.3-2.6c0.7,0,1.1,0.2,1.5,0.6v-2.4h1.5v0.1v6.8h-1.5v-0.5
	c-0.3,0.4-0.8,0.6-1.5,0.6C120.7,111.2,119.7,110.1,119.7,108.6z M121.1,108.7c0,0.7,0.5,1.2,1.2,1.2c0.7,0,1.2-0.5,1.2-1.2
	s-0.5-1.2-1.2-1.2C121.6,107.5,121.1,108,121.1,108.7z M125.8,108.6c0-1.5,1.1-2.6,2.6-2.6c1.4,0,2.5,1.1,2.5,2.6
	c0,0.2,0,0.4-0.1,0.6h-3.5c0.2,0.5,0.7,0.7,1.2,0.7c0.4,0,0.7-0.2,0.9-0.4l1.2,0.7c-0.5,0.7-1.2,1-2.1,1
	C126.8,111.2,125.8,110.1,125.8,108.6z M127.3,108.1h2.1c-0.2-0.6-0.6-0.8-1-0.8C127.8,107.3,127.5,107.6,127.3,108.1z M133.1,108.9
	c0-1,0.9-1.2,1.5-1.1v-1.7c-0.6,0-1.2,0.3-1.5,1v-0.9h-1.5v4.9h1.5V108.9z M137,109.9c-0.4,0-0.7-0.2-0.8-0.6l-1.3,0.7
	c0.4,0.8,1.1,1.2,2.1,1.2s2-0.5,2-1.6c0-1.8-2.4-1.4-2.4-1.9c0-0.2,0.1-0.3,0.4-0.3c0.4,0,0.6,0.1,0.7,0.4l1.2-0.7
	c-0.4-0.6-1.1-1-1.9-1c-1,0-1.9,0.5-1.9,1.6c0,1.6,2.4,1.4,2.4,1.9C137.5,109.8,137.4,109.9,137,109.9z M80.8,125.1v-5.3h1.7v-1.5
	h-5.1v1.5h1.8v5.3H80.8z M84.1,122.9c0-1,0.9-1.2,1.5-1.1v-1.7c-0.7,0-1.3,0.3-1.5,1v-0.9h-1.5v4.9h1.5V122.9z M89.6,125.1v-0.5
	c-0.3,0.4-0.8,0.6-1.5,0.6c-1.3,0-2.3-1.1-2.3-2.6s1.1-2.6,2.3-2.6c0.7,0,1.1,0.2,1.5,0.6v-0.5h1.5v0.1v4.9H89.6z M89.6,122.7
	c0-0.7-0.5-1.2-1.2-1.2c-0.7,0-1.2,0.5-1.2,1.2s0.5,1.2,1.2,1.2C89.1,123.9,89.6,123.4,89.6,122.7z M96.8,125.1v-3
	c0-1.3-0.8-2-1.8-2c-0.6,0-1.1,0.2-1.4,0.6v-0.5h-1.5v4.9h1.5v-2.7c0-0.7,0.4-1,0.9-1c0.4,0,0.8,0.3,0.8,0.9v2.8H96.8z M99.6,123.9
	c-0.4,0-0.7-0.2-0.8-0.6l-1.3,0.7c0.4,0.8,1.1,1.2,2.1,1.2s2-0.5,2-1.6c0-1.8-2.4-1.4-2.4-1.9c0-0.2,0.1-0.3,0.4-0.3
	c0.4,0,0.6,0.1,0.7,0.4l1.2-0.7c-0.4-0.6-1.1-1-1.9-1c-1,0-1.9,0.5-1.9,1.6c0,1.6,2.4,1.4,2.4,1.9C100.1,123.8,100,123.9,99.6,123.9
	z M103.9,127.1h-1.5v-6.8h1.5v0.5c0.3-0.4,0.8-0.6,1.5-0.6c1.2-0.1,2.3,1,2.3,2.5s-1.1,2.6-2.3,2.6c-0.7,0-1.1-0.2-1.5-0.6V127.1z
	 M103.8,122.7c0,0.7,0.5,1.2,1.2,1.2s1.2-0.5,1.2-1.2s-0.5-1.2-1.2-1.2S103.8,122,103.8,122.7z M112,120.1h1.5v0.1v4.9H112v-0.5
	c-0.3,0.4-0.8,0.6-1.5,0.6c-1.3,0-2.3-1.1-2.3-2.6s1.1-2.6,2.3-2.6c0.7,0,1.1,0.2,1.5,0.6V120.1z M112,122.7c0-0.7-0.5-1.2-1.2-1.2
	c-0.7,0-1.2,0.5-1.2,1.2s0.5,1.2,1.2,1.2C111.5,123.9,112,123.4,112,122.7z M114.5,120.2v4.9h1.5v-2.2c0-1,0.9-1.2,1.5-1.1v-1.7
	c-0.6,0-1.3,0.3-1.5,1v-0.9H114.5z M122.8,123.2h-3.5c0.2,0.5,0.7,0.7,1.2,0.7c0.4,0,0.7-0.2,0.9-0.4l1.2,0.7c-0.5,0.7-1.2,1-2.1,1
	c-1.7,0-2.7-1.1-2.7-2.6s1.1-2.6,2.6-2.6c1.4,0,2.5,1.1,2.5,2.6C122.9,122.8,122.9,123,122.8,123.2z M121.4,122.1
	c-0.2-0.6-0.6-0.8-1-0.8c-0.6,0-0.9,0.3-1.1,0.8H121.4z M123.7,120.2v4.9h1.5v-2.7c0-0.7,0.4-1,0.9-1c0.4,0,0.8,0.3,0.8,0.9v2.8h1.5
	v-3c0-1.3-0.9-2-1.8-2c-0.6,0-1.1,0.2-1.4,0.6v-0.5H123.7z M131.7,121.5c0.4,0,0.7,0.2,0.9,0.5l1.3-0.7c-0.4-0.7-1.3-1.2-2.2-1.2
	c-1.5,0-2.6,1.1-2.6,2.6c0,1.4,1.1,2.5,2.6,2.5c1,0,1.8-0.5,2.2-1.3l-1.3-0.7c-0.1,0.3-0.5,0.5-0.9,0.5c-0.6,0-1.1-0.5-1.1-1.1
	C130.6,122,131.1,121.5,131.7,121.5z M137.6,120.1l-0.9,3l-1.1-3H134l1.9,4.7c-0.2,0.6-0.5,0.8-1.2,0.8v1.4c1.4,0.1,2.3-0.5,2.8-2.1
	l1.7-4.7v-0.1H137.6z M90,139.1v-6.8h-1.6l-1.9,3l-1.9-3H83v6.8h1.6v-4l1.8,2.9h0.2l1.8-2.9v4H90z M94.2,136.9c0,0.7-0.4,1-0.9,1
	c-0.4,0-0.8-0.3-0.8-0.9v-2.8H91v3c0,1.3,0.8,2,1.8,2c0.6,0,1.1-0.2,1.4-0.6v0.5h1.5v-4.9h-1.5V136.9z M96.8,139.1h1.5V132h-1.5
	V139.1z M102.2,137.7c-0.6,0.1-1,0-1-0.4v-1.6h1v-1.4h-1v-1.4l-1.5,0.4v0.9h-0.8v1.4h0.8v1.7c0,1.3,0.6,1.9,2.5,1.7V137.7z
	 M103,139.1h1.5v-4.9H103V139.1z M103.8,132c-0.5,0-0.9,0.4-0.9,0.9s0.4,0.9,0.9,0.9c0.5,0,0.9-0.4,0.9-0.9S104.3,132,103.8,132z
	 M109.3,135.5h-3.7v1.4h3.7V135.5z M114.4,135.1l1.1,4h1.8l1.9-6.8h-1.6l-1.2,4.8l-1.3-4.8h-1.3l-1.3,4.8l-1.2-4.8h-1.6l1.8,6.8h1.8
	L114.4,135.1z M124.3,139.1h-1.5v-0.5c-0.3,0.4-0.8,0.6-1.5,0.6c-1.3,0-2.3-1.1-2.3-2.6s1.1-2.6,2.3-2.6c0.7,0,1.1,0.2,1.5,0.6v-0.5
	h1.5v0.1V139.1z M122.8,136.7c0-0.7-0.5-1.2-1.2-1.2c-0.7,0-1.2,0.5-1.2,1.2s0.5,1.2,1.2,1.2C122.3,137.9,122.8,137.4,122.8,136.7z
	 M126.9,132h-1.5v7.1h1.5V132z M129.4,132h-1.5v7.1h1.5V132z M135.2,137.2h-3.5c0.2,0.5,0.7,0.7,1.2,0.7c0.4,0,0.7-0.2,0.9-0.4
	l1.2,0.7c-0.5,0.7-1.2,1-2.1,1c-1.7,0-2.7-1.1-2.7-2.6s1.1-2.6,2.6-2.6c1.4,0,2.5,1.1,2.5,2.6C135.3,136.8,135.3,137,135.2,137.2z
	 M133.8,136.1c-0.2-0.6-0.6-0.8-1-0.8c-0.6,0-0.9,0.3-1.1,0.8H133.8z M136.3,133.3v0.9h-0.8v1.4h0.8v1.7c0,1.3,0.6,1.9,2.5,1.7v-1.3
	c-0.6,0.1-1,0-1-0.4v-1.6h1v-1.4h-1v-1.4L136.3,133.3z M105,148.7c-1-0.3-1.2-0.5-1.2-0.8c0-0.3,0.2-0.5,0.7-0.5
	c0.6,0,1,0.3,1.2,0.8l1.3-0.8c-0.5-1-1.4-1.5-2.5-1.5c-1.2,0-2.3,0.8-2.3,2.1s1,1.8,2,2.1c1,0.3,1.4,0.5,1.4,0.9
	c0,0.3-0.2,0.6-0.9,0.6s-1.2-0.3-1.4-0.9l-1.3,0.8c0.4,1,1.3,1.7,2.7,1.4c1.4,0,2.5-0.8,2.5-2.1C107.2,149.4,106,149,105,148.7z
	 M112.9,151.2h-3.5c0.3,0.5,0.7,0.7,1.2,0.7c0.4,0,0.7-0.2,0.9-0.4l1.2,0.7c-0.5,0.7-1.2,1-2.1,1c-1.7,0-2.7-1.1-2.7-2.6
	s1.1-2.6,2.6-2.6c1.4,0,2.5,1.1,2.5,2.6C113,150.8,113,151,112.9,151.2z M111.5,150.1c-0.2-0.6-0.6-0.8-1-0.8
	c-0.6,0-0.9,0.3-1.1,0.8H111.5z M118.3,151.9l-1.3-0.7c-0.1,0.3-0.5,0.5-0.9,0.5c-0.6,0-1.1-0.5-1.1-1.1c0-0.6,0.5-1.1,1.1-1.1
	c0.4,0,0.7,0.2,0.9,0.5l1.3-0.7c-0.4-0.7-1.3-1.2-2.2-1.2c-1.5,0-2.6,1.1-2.6,2.6c0,1.4,1.1,2.5,2.6,2.5
	C117.1,153.2,117.9,152.7,118.3,151.9z M123.6,153.1v-4.9h-1.5v2.7c0,0.7-0.4,1-0.9,1c-0.4,0-0.8-0.3-0.8-0.9v-2.8h-1.5v3
	c0,1.3,0.8,2,1.8,2c0.6,0,1.1-0.2,1.4-0.6v0.5H123.6z M124.6,153.1h1.5v-2.2c0-1,0.9-1.2,1.5-1.1v-1.7c-0.7,0-1.3,0.3-1.5,1v-0.9
	h-1.5V153.1z M129,146c-0.5,0-0.9,0.4-0.9,0.9s0.4,0.9,0.9,0.9s0.9-0.4,0.9-0.9S129.5,146,129,146z M128.2,153.1h1.5v-4.9h-1.5
	V153.1z M133.6,149.7v-1.4h-1v-1.4l-1.5,0.4v0.9h-0.8v1.4h0.8v1.7c0,1.3,0.6,1.9,2.5,1.7v-1.3c-0.6,0.1-1,0-1-0.4v-1.6H133.6z
	 M136.7,151.1l-1.1-3H134l1.9,4.7c-0.2,0.6-0.5,0.8-1.2,0.8v1.4c1.4,0.1,2.3-0.5,2.8-2.1l1.7-4.7v-0.1h-1.6L136.7,151.1z
	 M111.3,161.8c0.7,0,1.3,0.3,1.6,0.8l1.3-0.8c-0.6-1-1.7-1.6-2.9-1.6c-2,0-3.5,1.5-3.5,3.5s1.5,3.5,3.5,3.7c1.2,0,2.3-0.6,2.9-1.6
	l-1.3-0.8c-0.3,0.5-0.9,0.8-1.6,0.8c-1.2,0-2-0.8-2-2C109.3,162.6,110.1,161.8,111.3,161.8z M117.9,162.1c-0.6,0-1.1,0.2-1.4,0.6
	v-2.4H115v6.8h1.5v-2.7c0-0.7,0.4-1,0.9-1c0.4,0,0.8,0.3,0.8,0.9v2.8h1.5v-3C119.7,162.8,118.9,162.1,117.9,162.1z M123.1,167.3
	c-1.4-0.1-2.6-1.2-2.6-2.6c0-1.5,1.2-2.6,2.6-2.6c1.4,0,2.6,1.1,2.6,2.6S124.5,167.3,123.1,167.3z M123.1,165.9
	c0.6,0,1.1-0.6,1.1-1.2c0-0.7-0.5-1.2-1.1-1.2c-0.6,0-1.1,0.5-1.1,1.2S122.5,165.9,123.1,165.9z M128,162.2h-1.5v4.9h1.5V162.2z
	 M127.3,161.8c0.5,0,0.9-0.4,0.9-0.9s-0.4-0.9-0.9-0.9s-0.9,0.4-0.9,0.9S126.8,161.8,127.3,161.8z M133.6,165.9l-1.3-0.7
	c-0.1,0.3-0.5,0.5-0.9,0.5c-0.6,0-1.1-0.5-1.1-1.1c0-0.6,0.5-1.1,1.1-1.1c0.4,0,0.7,0.2,0.9,0.5l1.3-0.7c-0.4-0.7-1.3-1.2-2.2-1.2
	c-1.5,0-2.6,1.1-2.6,2.6c0,1.4,1.1,2.5,2.6,2.5C132.4,167.2,133.2,166.7,133.6,165.9z M139,164.6c0,0.2,0,0.4-0.1,0.6h-3.5
	c0.2,0.5,0.6,0.7,1.2,0.7c0.4,0,0.7-0.2,0.9-0.4l1.2,0.7c-0.5,0.7-1.2,1-2.1,1c-1.7,0-2.7-1.1-2.7-2.6s1.1-2.6,2.6-2.6
	C137.9,162,139,163.1,139,164.6z M137.5,164.1c-0.2-0.6-0.6-0.8-1-0.8c-0.6,0-0.9,0.3-1.1,0.8H137.5z M122.3,181.1h1.6v-2.5h2.5
	v-1.5h-2.5v-1.3h2.5v-1.5h-4.1V181.1z M127.3,181.1h1.5v-4.9h-1.5V181.1z M128.1,174c-0.5,0-0.9,0.4-0.9,0.9s0.4,0.9,0.9,0.9
	c0.5,0,0.9-0.4,0.9-0.9S128.6,174,128.1,174z M133.4,176.1h1.5v0.1v4.9h-1.5v-0.5c-0.3,0.4-0.8,0.6-1.5,0.6c-1.3,0-2.3-1.1-2.3-2.6
	s1.1-2.6,2.3-2.6c0.7,0,1.1,0.2,1.5,0.6V176.1z M133.4,178.7c0-0.7-0.5-1.2-1.2-1.2s-1.2,0.5-1.2,1.2s0.5,1.2,1.2,1.2
	S133.4,179.4,133.4,178.7z M137.8,174.9l-1.5,0.4v0.9h-0.8v1.4h0.8v1.7c0,1.3,0.6,1.9,2.5,1.7v-1.3c-0.6,0.1-1,0-1-0.4v-1.6h1v-1.4
	h-1V174.9z"/>
</svg>
