<?xml version="1.0" encoding="utf-8"?>
<!-- Generator: Adobe Illustrator 21.1.0, SVG Export Plug-In . SVG Version: 6.00 Build 0)  -->
<svg version="1.1" id="Layer_4" xmlns="http://www.w3.org/2000/svg" xmlns:xlink="http://www.w3.org/1999/xlink" x="0px" y="0px"
	 viewBox="0 0 214.3 204.9" style="enable-background:new 0 0 214.3 204.9;" xml:space="preserve">
<style type="text/css">
	.st0{fill:#FFFFFF;}
	.st1{fill:#25258D;}
	.st2{fill:#ABB4BB;}
	.st3{fill:#464F56;}
</style>
<path class="st0" d="M210.5,203.9H13.2c-1.6,0-2.8-1.3-2.8-2.8v-99.5c0-1.6,1.3-2.8,2.8-2.8h197.4c1.6,0,2.8,1.3,2.8,2.8v99.5
	C213.3,202.7,212.1,203.9,210.5,203.9z"/>
<path class="st1" d="M210.5,204.9H13.2c-2.1,0-3.8-1.7-3.8-3.8v-99.5c0-2.1,1.7-3.8,3.8-3.8h197.3c2.1,0,3.8,1.7,3.8,3.8v99.5
	C214.3,203.2,212.6,204.9,210.5,204.9z M13.2,99.8c-1,0-1.8,0.8-1.8,1.8v99.5c0,1,0.8,1.8,1.8,1.8h197.3c1,0,1.8-0.8,1.8-1.8v-99.5
	c0-1-0.8-1.8-1.8-1.8H13.2z"/>
<path class="st0" d="M205.9,199.3H8.6c-1.6,0-2.8-1.3-2.8-2.8V96.9c0-1.6,1.3-2.8,2.8-2.8H206c1.6,0,2.8,1.3,2.8,2.8v99.5
	C208.7,198,207.5,199.3,205.9,199.3z"/>
<path class="st1" d="M205.9,200.3H8.6c-2.1,0-3.8-1.7-3.8-3.8V96.9c0-2.1,1.7-3.8,3.8-3.8h197.3c2.1,0,3.8,1.7,3.8,3.8v99.5
	C209.7,198.6,208,200.3,205.9,200.3z M8.6,95.1c-1,0-1.8,0.8-1.8,1.8v99.5c0,1,0.8,1.8,1.8,1.8h197.3c1,0,1.8-0.8,1.8-1.8V96.9
	c0-1-0.8-1.8-1.8-1.8H8.6z"/>
<path class="st1" d="M201.2,88.4H3.8c-2.1,0-3.8,1.7-3.8,3.8v99.5c0,2.1,1.7,3.8,3.8,3.8h197.3c2.1,0,3.8-1.7,3.8-3.8V92.3
	C205,90.2,203.3,88.4,201.2,88.4z"/>
<path class="st2" d="M58.2,79.5h2.5l-3.5,6l-3.5-6h2.5V61.8c0-0.6,0.4-1,1-1s1,0.4,1,1V79.5z M169.6,79.5V61.8c0-0.6-0.4-1-1-1
	s-1,0.4-1,1v17.8h-2.5l3.5,6l3.5-6L169.6,79.5L169.6,79.5z"/>
<path class="st0" d="M101.2,58.4h-88c-1.6,0-2.8-1.3-2.8-2.8V13.2c0-1.6,1.3-2.8,2.8-2.8h88.1c1.6,0,2.8,1.3,2.8,2.8v42.4
	C104.1,57.2,102.8,58.4,101.2,58.4z"/>
<path class="st3" d="M101.2,59.4h-88c-2.1,0-3.8-1.7-3.8-3.8V13.2c0-2.1,1.7-3.8,3.8-3.8h88.1c2.1,0,3.8,1.7,3.8,3.8v42.4
	C105.1,57.7,103.4,59.4,101.2,59.4z M13.2,11.3c-1,0-1.8,0.8-1.8,1.8v42.4c0,1,0.8,1.8,1.8,1.8h88.1c1,0,1.8-0.8,1.8-1.8V13.2
	c0-1-0.8-1.8-1.8-1.8L13.2,11.3L13.2,11.3z"/>
<path class="st0" d="M96.6,53.8h-88c-1.6,0-2.8-1.3-2.8-2.8V8.5c0-1.6,1.3-2.8,2.8-2.8h88.1c1.6,0,2.8,1.3,2.8,2.8v42.4
	C99.5,52.5,98.2,53.8,96.6,53.8z"/>
<path class="st3" d="M96.7,54.8H8.6c-2.1,0-3.8-1.7-3.8-3.8V8.5c0-2.1,1.7-3.8,3.8-3.8h88.1c2.1,0,3.8,1.7,3.8,3.8v42.4
	C100.5,53,98.8,54.8,96.7,54.8z M8.6,6.7c-1,0-1.8,0.8-1.8,1.8v42.4c0,1,0.8,1.8,1.8,1.8h88.1c1,0,1.8-0.8,1.8-1.8V8.5
	c0-1-0.8-1.8-1.8-1.8H8.6z"/>
<path class="st0" d="M91.9,49.1H3.8c-1.6,0-2.8-1.3-2.8-2.8V3.8C1,2.3,2.3,1,3.8,1h88.1c1.6,0,2.8,1.3,2.8,2.8v42.4
	C94.8,47.8,93.5,49.1,91.9,49.1z"/>
<path class="st3" d="M91.9,50.1H3.8c-2.1,0-3.8-1.7-3.8-3.8V3.8C0,1.7,1.7,0,3.8,0h88.1c2.1,0,3.8,1.7,3.8,3.8v42.4
	C95.8,48.4,94,50.1,91.9,50.1z M3.8,2C2.8,2,2,2.8,2,3.8v42.4c0,1,0.8,1.8,1.8,1.8h88.1c1,0,1.8-0.8,1.8-1.8V3.8
	c0-1-0.8-1.8-1.8-1.8H3.8z"/>
<path class="st0" d="M210.5,58.4h-83.9c-1.6,0-2.8-1.3-2.8-2.8V13.2c0-1.6,1.3-2.8,2.8-2.8h83.9c1.6,0,2.8,1.3,2.8,2.8v42.4
	C213.3,57.2,212.1,58.4,210.5,58.4z"/>
<path class="st3" d="M210.5,59.4h-83.9c-2.1,0-3.8-1.7-3.8-3.8V13.2c0-2.1,1.7-3.8,3.8-3.8h83.9c2.1,0,3.8,1.7,3.8,3.8v42.4
	C214.3,57.7,212.6,59.4,210.5,59.4z M126.6,11.3c-1,0-1.8,0.8-1.8,1.8v42.4c0,1,0.8,1.8,1.8,1.8h83.9c1,0,1.8-0.8,1.8-1.8V13.2
	c0-1-0.8-1.8-1.8-1.8L126.6,11.3L126.6,11.3z"/>
<path class="st0" d="M206.2,53.8h-83.9c-1.6,0-2.8-1.3-2.8-2.8V8.5c0-1.6,1.3-2.8,2.8-2.8h83.9c1.6,0,2.8,1.3,2.8,2.8v42.4
	C209,52.5,207.7,53.8,206.2,53.8z"/>
<path class="st3" d="M206.2,54.8h-83.9c-2.1,0-3.8-1.7-3.8-3.8V8.5c0-2.1,1.7-3.8,3.8-3.8h83.9c2.1,0,3.8,1.7,3.8,3.8v42.4
	C210,53,208.3,54.8,206.2,54.8z M122.3,6.7c-1,0-1.8,0.8-1.8,1.8v42.4c0,1,0.8,1.8,1.8,1.8h83.9c1,0,1.8-0.8,1.8-1.8V8.5
	c0-1-0.8-1.8-1.8-1.8H122.3z"/>
<path class="st0" d="M201.7,49.1h-83.9c-1.6,0-2.8-1.3-2.8-2.8V3.8c0-1.6,1.3-2.8,2.8-2.8h83.9c1.6,0,2.8,1.3,2.8,2.8v42.4
	C204.5,47.8,203.2,49.1,201.7,49.1z"/>
<path class="st3" d="M201.7,50.1h-83.9c-2.1,0-3.8-1.7-3.8-3.8V3.8c0-2.1,1.7-3.8,3.8-3.8h83.9c2.1,0,3.8,1.7,3.8,3.8v42.4
	C205.5,48.4,203.8,50.1,201.7,50.1z M117.8,2c-1,0-1.8,0.8-1.8,1.8v42.4c0,1,0.8,1.8,1.8,1.8h83.9c1,0,1.8-0.8,1.8-1.8V3.8
	c0-1-0.8-1.8-1.8-1.8H117.8z"/>
<g>
	<g>
		<path class="st0" d="M14.5,102.8c-0.3,0.1-0.5,0.5-0.5,1h0.5v1h-0.9V104c0-0.2,0-0.4,0-0.6c0-0.2,0.1-0.3,0.2-0.5
			c0.1-0.2,0.3-0.3,0.5-0.4L14.5,102.8z M16,102.8c-0.3,0.1-0.5,0.5-0.5,1h0.4v1H15V104c0-0.2,0-0.4,0-0.6c0-0.2,0.1-0.3,0.2-0.5
			c0.1-0.2,0.3-0.3,0.5-0.4L16,102.8z"/>
		<path class="st0" d="M24.4,102.7c-0.7,0.8-1.6,1.6-2.7,2.2v4.3c0,0.2-0.1,0.4-0.2,0.5S21.2,110,21,110l-1.4,0l-0.4-0.8h1.6
			c0.1,0,0.2-0.1,0.2-0.3v-4.4c1-0.6,1.8-1.1,2.3-1.7H18v-0.7h6.4V102.7z"/>
		<path class="st0" d="M34.9,101.9c0,0.3-0.1,0.7-0.2,1.3c-0.1,0.6-0.2,1-0.4,1.1s-0.3,0.2-0.6,0.2c-0.2,0-0.5,0-0.8-0.1l-0.2-0.8
			c0.4,0.1,0.7,0.2,0.8,0.2c0.1,0,0.2-0.1,0.2-0.2c0.1-0.1,0.1-0.5,0.2-1.1H33c-0.2,1.1-0.7,1.9-1.7,2.3l-0.3-0.4v4.7
			c0,0.3-0.1,0.5-0.3,0.6c-0.2,0.1-0.3,0.2-0.5,0.2h-0.5l-0.2-0.7H30c0.2,0,0.2-0.1,0.2-0.3V108h-2c-0.1,1-0.5,1.8-1,2.3l-0.6-0.5
			c0.3-0.4,0.5-0.7,0.7-1.1c0.1-0.4,0.2-0.7,0.2-0.9v-3.1l-0.2,0.3l-0.6-0.5c0.8-0.8,1.3-1.8,1.6-3l0.7,0.2
			c-0.1,0.4-0.1,0.6-0.2,0.6h1.7c-0.1,0.6-0.3,1.1-0.5,1.6h1v0.4c0.8-0.4,1.3-1,1.3-1.7h-1.1v-0.7H34.9z M29.5,103h-1.1
			c-0.1,0.3-0.2,0.5-0.4,0.8h1.1C29.3,103.6,29.5,103.3,29.5,103z M28.8,105.5v-1h-0.6v1H28.8z M28.8,107.2v-1h-0.6v1H28.8z
			 M30.2,105.5v-1h-0.7v1H30.2z M30.2,107.2v-1h-0.7v1H30.2z M35.3,108.1h-1.6v2.1H33v-2.1h-1.8v-0.7H33v-1h-0.8
			c-0.1,0.3-0.2,0.6-0.5,0.9l-0.7-0.4c0.5-0.5,0.7-1.2,0.7-2l0.7,0.2c0,0.3,0,0.5-0.1,0.7H33v-1h0.7v1h1.1v0.7h-1.1v1h1.6V108.1z"/>
		<path class="st0" d="M45.2,106.6l-0.3,0.8c-2-0.3-3.3-0.7-4.1-1.1c-0.8,0.4-1.5,0.6-2.3,0.8h4.6v3.1h-0.7v-0.5h-3.3v0.6h-0.7v-3.1
			c-0.4,0.1-1,0.2-1.7,0.3l-0.4-0.7c1.5-0.2,2.8-0.5,3.8-0.9c-0.4-0.3-0.8-0.6-1-0.9c-0.2,0.2-0.6,0.6-1.3,1.1l-0.6-0.5
			c1.1-0.6,1.9-1.4,2.3-2.3l0.6,0.2c0,0.1-0.1,0.3-0.2,0.5h3.4v0.6c-0.4,0.5-0.9,0.9-1.6,1.4C42.5,106.2,43.7,106.5,45.2,106.6z
			 M44.5,104.3h-0.7v-1.2h-6.1v1.2h-0.7v-1.9h3.4v-0.9h0.8v0.9h3.4V104.3z M42.4,108.9v-1.1h-3.3v1.1H42.4z M42,104.6h-2.3
			c0.4,0.4,0.7,0.7,1.1,0.9C41.3,105.2,41.7,104.9,42,104.6z"/>
		<path class="st0" d="M53.9,106.1h-0.7v-0.4h-5c0,1.2-0.1,2.1-0.3,2.8c-0.2,0.7-0.6,1.2-1.1,1.8l-0.7-0.5c0.9-0.7,1.3-1.8,1.3-3.2
			V103h3.1c-0.2-0.4-0.6-0.8-1.2-1.1l0.5-0.5c0.6,0.3,1.1,0.8,1.5,1.3L51,103v0h2.9V106.1z M53.1,105v-1.3h-5v1.3H53.1z"/>
		<path class="st0" d="M56.7,103.4c0,0.2,0,0.4,0,0.6c0,0.2-0.1,0.3-0.2,0.5c-0.1,0.2-0.3,0.3-0.5,0.4l-0.2-0.3
			c0.3-0.1,0.5-0.5,0.5-1h-0.4v-1h0.9V103.4z M58.2,103.4c0,0.2,0,0.4,0,0.6c0,0.2-0.1,0.3-0.2,0.5c-0.1,0.2-0.3,0.3-0.5,0.4
			l-0.2-0.3c0.3-0.1,0.5-0.5,0.5-1h-0.5v-1h0.9V103.4z"/>
		<path class="st0" d="M20.9,124.2h-0.7v-0.6h-4v0.6h-0.7v-4.1c-0.3,0.2-0.7,0.3-1.1,0.4l-0.4-0.7c1.1-0.2,1.8-0.7,2-1.3h-1.7v-0.7
			h1.9c0.1-0.2,0.1-0.5,0-0.9h-0.6c-0.1,0.3-0.4,0.5-0.7,0.8l-0.7-0.3c0.6-0.4,0.9-1.1,1.1-2l0.7,0.3c0,0.2-0.1,0.4-0.2,0.5H18v0.7
			h-1.1c0,0.2,0,0.5-0.1,0.9h1.5v0.7h-1.6l-0.1,0.2c0.8,0.1,1.5,0.3,1.9,0.6l-0.4,0.6c-0.8-0.4-1.4-0.5-1.9-0.5
			c-0.2,0.3-0.5,0.5-0.8,0.7h5.4V124.2z M20.2,121.5v-0.7h-4v0.7H20.2z M20.2,122.9v-0.7h-4v0.7H20.2z M21.8,119.4h-3.2v-3.2h3.2
			V119.4z M21.1,118.7v-1.8h-1.7v1.8H21.1z"/>
		<path class="st0" d="M28.1,118.3l-0.6,0.4l-0.3-0.5l-3.5,0.2l-0.2-0.8l0.7,0c0.5-0.7,0.9-1.4,1.2-2.2l0.7,0.3
			c-0.4,0.8-0.8,1.4-1.1,1.9l1.7-0.1c-0.2-0.3-0.4-0.5-0.6-0.7l0.7-0.4C27.3,116.9,27.7,117.5,28.1,118.3z M27.5,123.2
			c0,0.2-0.1,0.4-0.2,0.5S27.1,124,27,124c-0.2,0-0.5,0.1-1.1,0l-0.3-0.7c0.4,0,0.6,0.1,0.8,0.1c0.3,0,0.4-0.1,0.4-0.3v-0.9h-2v1.9
			H24v-5.2h3.5V123.2z M26.8,120.2v-0.6h-2v0.6H26.8z M26.8,121.5v-0.6h-2v0.6H26.8z M32,118c-0.2,1.2-0.5,1.7-1,1.7h-1.8
			c-0.3,0-0.6-0.1-0.7-0.3s-0.2-0.3-0.2-0.4v-3.4H29v1.6c1-0.3,1.7-0.6,2.3-1.1l0.4,0.6c-0.6,0.5-1.6,1-2.8,1.3v0.8
			c0,0.2,0.2,0.3,0.5,0.3h1.3c0.2,0,0.4-0.4,0.5-1.3L32,118z M32.2,122.4c-0.1,0.7-0.3,1.1-0.5,1.3c-0.2,0.2-0.4,0.3-0.7,0.3h-1.8
			c-0.3,0-0.5-0.1-0.7-0.3c-0.1-0.2-0.2-0.4-0.2-0.5v-3.1H29v1.4c0.9-0.2,1.7-0.6,2.4-1.1l0.5,0.5c-0.8,0.6-1.7,1-2.9,1.2v0.9
			c0,0.2,0.1,0.2,0.3,0.2h1.6c0.2,0,0.3-0.1,0.3-0.3c0.1-0.2,0.1-0.5,0.2-1L32.2,122.4z"/>
		<path class="st0" d="M41.9,119.1l-0.5,0.7c-0.3-0.1-0.7-0.3-1.2-0.7c-0.5-0.3-0.9-0.7-1.2-0.9c-0.3-0.3-0.8-0.9-1.5-1.7
			c-0.9,1.1-2.2,2.2-4,3.4l-0.5-0.6c2-1.3,3.5-2.7,4.4-4.1l0.7,0.5l-0.3,0.3c0.6,0.7,1.2,1.3,2.1,2C40.7,118.6,41.4,119,41.9,119.1z
			 M40.3,124.3h-0.8v-0.6h-4.1v0.7h-0.8v-3.6h5.7V124.3z M39.7,119.6h-4.7v-0.7h4.7V119.6z M39.5,122.9v-1.5h-4.1v1.5H39.5z"/>
		<path class="st0" d="M51,122.9c0,0.4-0.1,0.7-0.3,0.9c-0.2,0.2-0.6,0.3-1.2,0.3c-0.1,0-0.3,0-0.5,0l-0.3-0.8c0.7,0,1.1,0,1.2-0.1
			c0.2,0,0.2-0.2,0.2-0.4v-6.1h-5.9v7.7h-0.8v-8.4H51V122.9z M49.9,118.4h-5.1v-0.7h5.1V118.4z M49.1,122.4h-3.7v-2.9h3.7V122.4z
			 M48.4,121.7v-1.5h-2.2v1.5H48.4z"/>
		<path class="st0" d="M22.4,133.1l-0.5,0.7c-0.3-0.1-0.7-0.3-1.2-0.7c-0.5-0.3-0.9-0.7-1.2-0.9c-0.3-0.3-0.8-0.9-1.5-1.7
			c-0.9,1.1-2.2,2.2-4,3.4l-0.5-0.6c2-1.3,3.5-2.7,4.4-4.1l0.7,0.5l-0.3,0.3c0.6,0.7,1.2,1.3,2.1,2C21.2,132.6,21.9,133,22.4,133.1z
			 M20.8,138.3H20v-0.6h-4.1v0.7h-0.8v-3.6h5.7V138.3z M20.2,133.6h-4.7v-0.7h4.7V133.6z M20,136.9v-1.5h-4.1v1.5H20z"/>
		<path class="st0" d="M25.7,133.4l-0.5,0.5c-0.4-0.6-0.9-1-1.7-1.3l0.5-0.5C24.8,132.4,25.4,132.8,25.7,133.4z M26.1,134.9
			c-0.3,1.2-0.9,2.3-1.8,3.2l-0.7-0.4c0.9-1,1.6-2,1.8-3.1L26.1,134.9z M26.3,131.2l-0.5,0.5c-0.3-0.6-0.9-1-1.7-1.3l0.5-0.5
			C25.3,130.2,25.9,130.6,26.3,131.2z M32.1,137.8l-0.7,0.4c-0.2-0.4-0.3-0.8-0.5-0.9l-4.6,0.4l-0.3-0.8l1.1,0
			c0.4-0.8,0.7-1.6,1-2.6h-2.2v-0.7h2.6v-1.6h-2v-0.7h2v-1.6h0.7v1.6h2v0.7h-2v1.6h2.6v0.7h-2.9c-0.3,1-0.6,1.8-1,2.5l2.6-0.2
			c-0.3-0.4-0.7-0.7-1-0.9l0.6-0.4C30.9,135.9,31.5,136.7,32.1,137.8z"/>
		<path class="st0" d="M41.2,131.1c0,2.6-0.2,4.5-0.4,5.5c-0.2,1-0.6,1.6-1.2,1.6c-0.3,0-0.8-0.1-1.5-0.3L38,137
			c0.7,0.3,1.2,0.4,1.5,0.4c0.3,0,0.5-0.5,0.7-1.5c0.2-1,0.3-2.4,0.3-4.1h-2.1c-0.2,0.7-0.6,1.4-1.1,2l-0.5-0.3v4.4H36v-0.6h-1.6
			v0.8h-0.8v-6.8h0.9c0.3-0.5,0.5-1,0.6-1.7l0.7,0.3c-0.2,0.7-0.4,1.2-0.5,1.4h1.5v2c0.7-1,1.2-2.3,1.5-3.8l0.8,0.2
			c-0.1,0.4-0.2,0.9-0.4,1.5H41.2z M36,133.8v-1.9h-1.6v1.9H36z M36,136.5v-1.9h-1.6v1.9H36z M39.9,135.5l-0.7,0.3
			c-0.3-0.8-0.7-1.5-1.3-2.3l0.6-0.4C39.1,133.9,39.6,134.7,39.9,135.5z"/>
		<path class="st0" d="M16.8,143.8c-0.1,0.4-0.3,0.9-0.5,1.4l-0.3,0.8v6.2h-0.7v-5.1c-0.2,0.4-0.5,0.8-1,1.3l-0.6-0.5
			c1.1-1.1,2-2.6,2.6-4.5L16.8,143.8z M22.4,150.1c0,0.2-0.1,0.6-0.3,1.1s-0.3,0.8-0.4,0.9c-0.1,0.1-0.3,0.1-0.5,0.1
			c-0.3,0-0.6-0.2-1.1-0.5s-0.9-0.9-1.2-1.6c-0.3-0.7-0.6-1.6-0.7-2.6l-1.7,0.1l-0.1-0.7l1.7-0.1c-0.1-1.3-0.2-2.3-0.2-3.2h0.8
			c0,1.4,0.1,2.5,0.2,3.1c0.9-0.1,1.9-0.2,3-0.3l0.1,0.7l-3,0.3c0.2,1,0.5,1.9,0.9,2.8c0.4,0.8,0.9,1.2,1.3,1.2
			c0.2,0,0.3-0.5,0.5-1.6L22.4,150.1z M21.5,145.5l-0.6,0.5c-0.6-0.8-1.1-1.3-1.6-1.6l0.5-0.5C20.4,144.2,20.9,144.7,21.5,145.5z"/>
		<path class="st0" d="M31.4,144.3c-0.9,0.3-2,0.5-3.3,0.6v1.4H31v3.8c0,0.2-0.1,0.4-0.2,0.6c-0.1,0.2-0.2,0.2-0.4,0.3
			s-0.5,0.1-1,0.1l-0.3-0.8l0.8,0c0.2,0,0.4-0.1,0.4-0.2v-3.1h-2.2v5.3h-0.8v-5.3h-2.1v4.1h-0.7v-4.8h2.9v-1.3
			c-1,0.1-2.1,0.1-3.3,0.1l-0.3-0.7c0.4,0,0.8,0,1.3,0c2.6,0,4.6-0.2,6-0.6L31.4,144.3z"/>
		<path class="st0" d="M36.3,143.8c-0.1,0.4-0.3,0.9-0.5,1.5l-0.4,0.8v6h-0.8v-4.9c-0.3,0.5-0.7,0.9-1.1,1.2l-0.5-0.6
			c1.1-0.9,1.9-2.4,2.6-4.4L36.3,143.8z M41.9,149.6c-0.1,0.9-0.2,1.5-0.4,1.8c-0.2,0.3-0.5,0.5-0.9,0.5h-2c-0.3,0-0.6-0.1-0.8-0.3
			c-0.2-0.2-0.3-0.4-0.3-0.7v-7.2h0.7v3.5c0.9-0.6,1.7-1.4,2.5-2.5l0.6,0.4c-0.9,1.2-2,2.2-3.2,2.9v2.6c0,0.3,0.2,0.4,0.5,0.4h1.7
			c0.4,0,0.7-0.6,0.7-1.9L41.9,149.6z"/>
		<path class="st0" d="M17.3,165.1l-1.7,1l-0.4-0.6c0-0.1,0.1-0.2,0.1-0.4v-4.1h-1.3v-0.7h2.1v4.9l1.4-0.7V165.1z M16.2,158.9
			l-0.6,0.5c-0.3-0.6-0.7-1.1-1.2-1.5l0.5-0.4C15.4,157.8,15.8,158.3,16.2,158.9z M22.3,162.8h-2.4v3.5h-0.7v-3.5h-2.4v-0.7h2.4
			v-3.4H17v-0.7h4.9v0.7h-2.1v3.4h2.4V162.8z M18.7,161.5l-0.7,0.3c-0.2-1.1-0.5-1.9-0.9-2.4l0.6-0.3
			C18.2,159.7,18.5,160.5,18.7,161.5z M21.7,159.2c-0.1,1.1-0.4,1.9-0.8,2.6l-0.6-0.4c0.5-0.8,0.7-1.6,0.8-2.5L21.7,159.2z"/>
		<path class="st0" d="M26.8,162.9c-1.2,0.3-2.2,0.6-2.9,0.8l-0.4-0.7c0.7-0.7,1.1-1.2,1.4-1.6c-0.4,0.1-0.7,0.2-1.1,0.3l-0.4-0.7
			c0.5-0.8,1.1-2,1.6-3.5l0.7,0.3c-0.6,1.3-1,2.3-1.4,3l1-0.2c0.2-0.3,0.4-0.7,0.7-1.2l0.7,0.3c-0.6,1.3-1.3,2.3-2,2.9l0,0l2.1-0.6
			V162.9z M26.8,164.5l-2.9,1l-0.4-0.7c1.4-0.5,2.5-0.8,3.3-1.1V164.5z M32,165.7l-0.6,0.6c-0.7-0.3-1.3-0.8-1.8-1.5
			c-0.6,0.7-1.2,1.2-1.7,1.4l-0.5-0.6c0.6-0.3,1.2-0.8,1.7-1.4c-0.5-0.8-0.9-1.5-1.1-2.1h0c0,1.1-0.1,1.9-0.3,2.5
			c-0.2,0.6-0.4,1.1-0.7,1.3l-0.2,0.3l-0.7-0.5c0.3-0.4,0.6-0.7,0.7-1.1c0.2-0.4,0.3-0.9,0.4-1.4s0.1-1.3,0.1-2.2v-2.3h-0.8V158h4.5
			c-0.1,0.8-0.4,1.6-0.8,2.5h1.3c-0.3,1.8-0.7,3-1.3,3.8C30.5,164.8,31.1,165.3,32,165.7z M30.5,161.2h-1.3v-0.6
			c0.3-0.5,0.6-1.1,0.8-1.8h-2v1.3c0.1,0.5,0.3,1.1,0.6,1.8c0.3,0.7,0.7,1.3,1,1.8C30,163,30.3,162.2,30.5,161.2z"/>
		<path class="st0" d="M18.2,177.6l-1.6,0.5v2.2h-0.7v-2l-1.7,0.5l-0.4-0.7c0.6-0.1,1.3-0.3,2.1-0.5v-1.2h-1.7v-0.7
			c0.4-0.7,0.7-1.4,0.9-2h-1.2v-0.7h1.3c0.1-0.2,0.1-0.7,0.2-1.3l0.7,0.2c0,0.3-0.1,0.7-0.1,1.1h2.3v0.7h-2.4
			c-0.2,0.8-0.5,1.5-0.8,2h0.9v-1.5h0.7v1.5H18v0.7h-1.4v1l1.6-0.5V177.6z M22.3,179.6l-0.6,0.6c-0.6-0.6-1.1-1-1.3-1.4
			c-0.2-0.4-0.4-0.6-0.4-0.7v-0.6h0c-0.3,1-0.9,1.9-1.9,2.7l-0.6-0.6c0.3-0.2,0.6-0.5,0.9-0.8c0.2-0.3,0.5-0.6,0.6-1
			c0.2-0.4,0.3-0.7,0.4-1c0.1-0.3,0.1-0.6,0.1-1l0.1-1.1l0.7,0.1l-0.1,1.5c0.1,0.7,0.3,1.3,0.7,1.9
			C21.4,178.8,21.8,179.3,22.3,179.6z M21.9,173.2c0,0.7-0.2,1.4-0.4,2.2l-0.8-0.2c0.2-0.3,0.3-0.7,0.4-1.2h-1.5
			c-0.2,0.7-0.5,1.4-0.9,2l-0.7-0.6c0.7-0.9,1.1-2.2,1.1-4l0.7,0.2c0,0.7-0.1,1.2-0.2,1.6H21.9z"/>
		<path class="st0" d="M26.2,171.6c-0.1,0.4-0.2,0.8-0.3,1.4l-0.3,0.8v6.4h-0.7v-5l-0.9,1.3l-0.6-0.4c1.1-1.4,1.9-2.9,2.2-4.6
			L26.2,171.6z M32.1,176.8h-2.7v3.4h-0.8v-3.4h-2.7v-0.7h2.7v-1.9h-1.3c-0.3,0.6-0.5,1.1-0.8,1.6l-0.7-0.3c0.7-0.9,1.1-2,1.2-3.2
			l0.7,0.2c0,0.4-0.1,0.7-0.1,1h1.1v-1.9h0.8v1.9h2v0.7h-2v1.9h2.7V176.8z"/>
	</g>
</g>
<g>
	<g>
		<path class="st0" d="M181.3,106h-1.7c-0.4,1-0.8,1.8-1.2,2.2c1.2,0.5,2.1,0.9,2.8,1.4l-0.5,0.6c-0.4-0.4-1.4-0.9-2.9-1.5
			c-1.2,0.9-2.6,1.4-4.2,1.6l-0.5-0.7c1.6-0.1,2.8-0.5,3.8-1.1c-0.8-0.3-1.6-0.5-2.5-0.6c0.6-0.9,1-1.5,1.2-1.9h-2.4v-0.7h2.7
			l0.8-1.5l0.7,0.3l-0.6,1.2h4.4V106z M181,104.5h-0.7v-1.1h-6v1.1h-0.7v-1.8h3.4v-1.1h0.8v1.1h3.4V104.5z M178.9,106h-2.3l-0.8,1.4
			c0.8,0.2,1.4,0.4,2,0.6C178.3,107.4,178.7,106.7,178.9,106z"/>
		<path class="st0" d="M191.3,105.1l-0.4,0.7c-0.3-0.1-0.7-0.3-1.3-0.5v0.4h-2.3v1.3h2v0.7h-2v1.4h3.5v0.7h-7.7v-0.7h3.5v-1.4h-2
			V107h2v-1.3h-2.3v-0.3c-0.1,0.1-0.5,0.3-1.2,0.5l-0.4-0.7c1.9-0.6,3.3-1.8,4.3-3.4l0.7,0.3l-0.2,0.3
			C188.1,103.6,189.4,104.5,191.3,105.1z M189.2,104.9c-0.9-0.4-1.7-1.1-2.3-1.9c-0.5,0.7-1.2,1.4-2.1,1.9H189.2z"/>
		<path class="st0" d="M181.6,123l-0.3,0.8h-4.6c-0.9-0.1-1.6-0.4-2.2-0.9l-1.3,1.1l-0.6-0.6c0.5-0.3,1-0.7,1.6-1.2v-2.7H173v-0.7h2
			v3.6c0.1,0.2,0.4,0.4,0.8,0.5l0,0l-0.3-0.5c0.6-0.3,1-0.6,1.3-1c0.3-0.4,0.4-1,0.4-1.7h-1.5v-0.7h0.2v0l-0.4-0.3
			c0.6-0.6,0.9-1.5,1-2.9l0.7,0.2c0,0.4-0.1,0.7-0.1,1h0.9v-1.3h0.7v1.3h1.6v0.7h-1.6v1.3h2.3v0.7h-1.6v2.1c0,0,0,0.1,0.1,0.1
			c0,0,0.1,0,0.1,0h0.8c0.1,0,0.1-0.1,0.2-0.2l0.1-0.7l0.7,0.3c-0.1,0.9-0.4,1.3-0.7,1.3h-1.3c-0.1,0-0.3-0.1-0.4-0.2
			s-0.2-0.3-0.2-0.4v-2.4h-0.7c0,0.8-0.2,1.4-0.5,2s-0.8,1-1.3,1.2c0.2,0.1,0.5,0.1,0.9,0.1h3.5C181,123.1,181.3,123.1,181.6,123z
			 M175.4,117.3c-0.3,0.2-0.5,0.4-0.6,0.5c-0.2-0.6-0.6-1.1-1.3-1.6l0.6-0.4C174.6,116.2,175,116.7,175.4,117.3z M178.1,119.1v-1.3
			H177c-0.2,0.6-0.4,1-0.7,1.3H178.1z"/>
		<path class="st0" d="M185.9,118.3h-1.2v1.7c0.2-0.1,0.4-0.2,0.8-0.3v0.7c-0.1,0.1-0.3,0.1-0.4,0.2s-0.3,0.1-0.4,0.2v2.8
			c0,0.2-0.1,0.3-0.2,0.5s-0.3,0.2-0.4,0.2h-0.9l-0.3-0.8l0.9,0c0.1,0,0.2,0,0.2-0.1v-2.2c-0.1,0.1-0.5,0.2-1,0.4l-0.5-0.6
			c0.4-0.2,0.9-0.4,1.5-0.6v-2.1h-1.2v-0.7h1.2v-2.1h0.7v2.1h1.2V118.3z M191.1,122.2h-2.5v2h-0.7v-2h-2.5v-0.7h2.5v-0.7h-2.1v-0.7
			h2.1v-0.7h0.7v0.7h2.1v0.7h-2.1v0.7h2.5V122.2z M191.4,119.3l-0.4,0.7c-1-0.2-1.9-0.5-2.7-1.1c-0.7,0.4-1.5,0.7-2.4,0.9l-0.5-0.7
			c1-0.2,1.7-0.4,2.2-0.7c-0.5-0.4-1-1-1.3-1.8h-0.6v-0.7h4.8v0.6c-0.5,0.8-1,1.4-1.6,1.9C189.6,118.8,190.4,119.1,191.4,119.3z
			 M189.6,116.7h-2.5c0.4,0.6,0.8,1.1,1.2,1.4C188.7,117.8,189.1,117.3,189.6,116.7z"/>
		<path class="st0" d="M172,133.3l-0.5,0.6c-1.1-0.3-1.9-0.9-2.3-1.7v1.3h1.3l-0.3,1.1h1.3c-0.1,0.9-0.2,1.5-0.2,1.7
			c-0.1,0.2-0.2,0.3-0.3,0.4s-0.3,0.2-0.6,0.2c-0.4,0-0.8,0-1-0.1l-0.2-0.8c0.3,0.1,0.7,0.2,1.1,0.2c0.2,0,0.3-0.1,0.3-0.2
			s0.1-0.4,0.1-0.7h-0.7l-0.1,0.3l-0.7-0.1l0.4-1.3h-1.3c0,0.6-0.1,1.1-0.4,1.6c-0.2,0.5-0.7,0.8-1.4,1.2c0.4,0.1,1,0.2,2,0.2
			c0.8,0,1.9,0,3.4-0.1l-0.3,0.8h-4c-0.8,0-1.4-0.1-1.7-0.3c-0.4-0.2-0.7-0.4-1-0.7c-0.1,0.1-0.6,0.5-1.4,1.2l-0.6-0.6
			c0.4-0.2,0.9-0.6,1.6-1.2v-2.8h-1.3v-0.7h2v3.5c0.3,0.3,0.6,0.5,0.9,0.7l-0.4-0.4c1.1-0.4,1.7-1.1,1.6-2.2h-0.8v-0.7
			c-0.2,0.1-0.5,0.2-0.7,0.3l-0.6-0.6c1-0.3,1.8-0.7,2.2-1.2h-1.8v-0.7h2.5v-0.6l-2,0.1l-0.3-0.7c2,0,3.6-0.2,4.8-0.6l0.4,0.5
			c-0.7,0.3-1.4,0.5-2.1,0.6v0.7h2.5v0.7h-1.8C170.1,132.6,170.9,133,172,133.3z M165.3,131.4l-0.6,0.4c-0.3-0.7-0.8-1.3-1.3-1.7
			l0.5-0.4C164.5,130.1,165,130.6,165.3,131.4z M168.4,133.5v-1.3c-0.3,0.5-0.8,0.9-1.5,1.3v0H168.4z"/>
		<path class="st0" d="M176.4,135.9h-0.7v-0.4h-1.5v0.6h-0.7v-5.6h3V135.9z M175.7,132.6v-1.4h-1.5v1.4H175.7z M175.7,134.8v-1.5
			h-1.5v1.5H175.7z M180.9,137.3c0,0.2-0.1,0.4-0.3,0.5c-0.2,0.2-0.3,0.2-0.5,0.2l-1.1,0l-0.2-0.8c0.4,0,0.7,0.1,0.8,0.1
			c0.3,0,0.5-0.1,0.5-0.3v-2H178c-0.1,1.3-0.8,2.3-2,3.2l-0.5-0.5c0.7-0.5,1.2-1,1.4-1.5s0.4-1.4,0.4-2.5v-3.7h3.6V137.3z
			 M180.1,132.1v-1.5H178v1.5H180.1z M180.1,134.4v-1.6H178v1.6H180.1z"/>
		<path class="st0" d="M184.1,131.7c-0.1,1-0.3,1.7-0.7,2.4l-0.6-0.3c0.5-0.9,0.7-1.7,0.7-2.3L184.1,131.7z M191.4,137.6h-5.7v-0.7
			h2.4v-2h-1.9v-0.7h1.9v-1.9H187c-0.2,0.6-0.5,1.1-0.9,1.7l-0.8-0.3c0.3-0.2,0.4-0.5,0.5-0.6l-0.4,0.2c-0.1-0.6-0.3-1.1-0.7-1.5
			v6.6h-0.7v-8.7h0.7v2.1l0.6-0.3c0.3,0.3,0.5,0.7,0.7,1.2c0.3-0.4,0.4-1.1,0.5-2.2l0.7,0.2c0,0.3-0.1,0.7-0.1,1.1h1v-2.1h0.7v2.1h2
			v0.7h-2v1.9h1.8v0.7h-1.8v2h2.5V137.6z"/>
		<path class="st0" d="M155.8,147.4l-0.5,0.5c-0.4-0.6-0.9-1-1.7-1.3l0.5-0.5C154.8,146.4,155.4,146.8,155.8,147.4z M156.2,148.9
			c-0.3,1.2-0.9,2.3-1.8,3.2l-0.7-0.4c0.9-1,1.6-2,1.8-3.1L156.2,148.9z M156.4,145.2l-0.5,0.5c-0.3-0.6-0.9-1-1.7-1.3l0.5-0.5
			C155.4,144.2,156,144.6,156.4,145.2z M162.1,151.8l-0.7,0.4c-0.2-0.4-0.3-0.8-0.5-0.9l-4.6,0.4l-0.3-0.8l1.1,0
			c0.4-0.8,0.7-1.6,1-2.6H156v-0.7h2.6v-1.6h-2v-0.7h2v-1.6h0.7v1.6h2v0.7h-2v1.6h2.6v0.7H159c-0.3,1-0.6,1.8-1,2.5l2.6-0.2
			c-0.3-0.4-0.7-0.7-1-0.9l0.6-0.4C160.9,149.9,161.6,150.7,162.1,151.8z"/>
		<path class="st0" d="M171.9,151l-0.4,0.8c-0.3,0-0.7,0-1.1,0c-1.7,0-2.8-0.1-3.5-0.2c-0.7-0.1-1.3-0.5-1.9-1.1
			c-0.3,0.6-0.8,1.2-1.5,1.8l-0.6-0.6c1.2-0.7,1.8-2,1.8-3.9l0.7,0.2c0,0.6-0.1,1.2-0.2,1.7c0.5,0.6,1.1,1,1.8,1.2v-3.7h-2.6v-0.7
			h5.8v0.7H168v1.4h2.9v0.7H168v1.6l1.2,0L171.9,151z M171.4,146.5h-0.8v-1.2h-6.3v1.2h-0.7v-1.9h3.5v-1h0.7v1h3.5V146.5z"/>
		<path class="st0" d="M181.7,151.1l-0.3,0.8h-4c-0.8,0-1.4-0.1-1.7-0.3c-0.4-0.2-0.7-0.4-1-0.7c-0.2,0.2-0.7,0.6-1.5,1.3l-0.6-0.6
			c0.4-0.3,0.9-0.7,1.6-1.3v-3H173v-0.7h2v3.7c0.3,0.3,0.6,0.6,1,0.7c0.4,0.2,0.7,0.2,1.1,0.2h0.9
			C179.6,151.2,180.8,151.1,181.7,151.1z M175.1,145.4l-0.6,0.4c-0.3-0.7-0.8-1.3-1.3-1.7l0.5-0.4
			C174.2,144.1,174.7,144.6,175.1,145.4z M181.1,150.1c0,0.2-0.1,0.3-0.2,0.4s-0.3,0.2-0.6,0.2c-0.3,0-0.5,0-0.8,0l-0.2-0.7
			c0.3,0,0.4,0,0.5,0c0.4,0,0.6-0.1,0.6-0.3v-0.8h-1.6v1.4h-0.7v-1.4h-1.6v1.6h-0.7v-5h2.1c-0.7-0.2-1.1-0.4-1.3-0.4l0.6-0.6
			c0.3,0.1,0.6,0.2,1.1,0.4c0.2,0,0.7-0.2,1.3-0.6h-4.1v-0.7h5.4v0.6c-0.6,0.4-1.2,0.8-2,1.1l0.2,0.1h1.9V150.1z M178.1,147v-0.7
			h-1.6v0.7H178.1z M178.1,148.4v-0.7h-1.6v0.7H178.1z M180.4,147v-0.7h-1.6v0.7H180.4z M180.4,148.4v-0.7h-1.6v0.7H180.4z"/>
		<path class="st0" d="M185.9,143.7c-0.4,0.7-0.6,1.1-0.8,1.3v2.4h-0.7v-1.6c-0.5,0.4-1,0.7-1.5,1l-0.4-0.6c0.5-0.3,1-0.6,1.4-1
			c0.4-0.4,0.9-1,1.4-1.8L185.9,143.7z M187.3,148.4c0,0.8,0,1.4-0.1,1.6c-0.1,0.3-0.3,0.6-0.7,0.9c-0.4,0.3-0.8,0.6-1.4,0.8
			c-0.6,0.2-1.3,0.3-2.1,0.4l-0.4-0.8c1.1,0,2-0.2,2.7-0.5s1.2-0.9,1.2-1.6v-0.9H187.3z M189.4,150.6h-0.7v-2.3h-3.3v2.4h-0.7v-3.1
			h4.8V150.6z M191.1,146c-0.1,0.9-0.4,1.4-0.8,1.4h-2.5c-0.2,0-0.4-0.1-0.5-0.2c-0.1-0.1-0.2-0.3-0.2-0.5v-0.5
			c-0.6,0.4-1.1,0.6-1.5,0.8l-0.4-0.6c0.6-0.2,1.2-0.6,2-1v-1.9h0.7v1.6c0.7-0.4,1.2-0.8,1.5-1l0.5,0.5c-0.5,0.4-1.2,0.9-2.1,1.3
			l0,0.6c0,0.1,0,0.1,0,0.1c0,0,0,0,0.1,0h2.1c0.1,0,0.3-0.2,0.3-0.6l0.1-0.4L191.1,146z M190.9,151.6l-0.4,0.6
			c-1-0.5-2.2-0.9-3.5-1.2l0.4-0.5C188.9,150.8,190.1,151.1,190.9,151.6z"/>
		<path class="st0" d="M152,162.2c0,0.1-0.1,0.3-0.4,0.7c-0.3,0.4-0.6,0.7-0.9,1s-0.7,0.6-1.2,0.9c-0.5,0.3-1.1,0.6-2,0.8
			c-0.8,0.3-1.8,0.5-3,0.7l-0.5-0.7c1.9-0.3,3.3-0.7,4.4-1.2c-0.2-0.3-0.5-0.6-1.1-1l0.7-0.4c0.5,0.3,0.8,0.7,1,1.1
			c1-0.6,1.7-1.2,2.1-1.9h-2.5c-0.6,0.6-1.6,1.1-3.1,1.8l-0.6-0.6c1.9-0.7,3.3-1.6,4.2-2.7c-1.4,0.8-3,1.4-4.7,1.8l-0.5-0.7
			c1.4-0.3,2.4-0.6,3-0.9c-0.2-0.2-0.5-0.5-1.1-0.8l0.7-0.4c0.4,0.2,0.8,0.6,1.1,1c0.7-0.4,1.4-0.8,1.9-1.4H147
			c-0.6,0.4-1.3,0.8-2.1,1.1l-0.6-0.6c1.6-0.5,2.9-1.3,3.8-2.4l0.7,0.4c-0.1,0.2-0.4,0.4-0.7,0.8h2.7v0.7c-0.4,0.5-0.9,1-1.4,1.4
			l0.6,0.3c-0.1,0.3-0.3,0.5-0.5,0.7h2.6V162.2z"/>
		<path class="st0" d="M161.4,158.3c-0.9,0.3-2,0.5-3.3,0.6v1.4h2.9v3.8c0,0.2-0.1,0.4-0.2,0.6c-0.1,0.2-0.2,0.2-0.4,0.3
			c-0.2,0-0.5,0.1-1,0.1l-0.3-0.8l0.8,0c0.2,0,0.4-0.1,0.4-0.2v-3.1h-2.2v5.3h-0.8v-5.3h-2.1v4.1h-0.7v-4.8h2.9v-1.3
			c-1,0.1-2.1,0.1-3.3,0.1l-0.3-0.7c0.4,0,0.8,0,1.3,0c2.6,0,4.6-0.2,6-0.6L161.4,158.3z"/>
		<path class="st0" d="M166.9,162.9l-0.7,0.4c-0.2-0.6-0.4-1-0.7-1.3v4.2h-0.7v-3.8h0c-0.3,0.6-0.6,1.2-1.1,1.7l-0.6-0.5
			c0.8-0.9,1.3-1.9,1.7-3.1h-1.3l0-0.7h1.4v-1.1c-0.1,0-0.2,0-0.5,0.1c-0.3,0-0.5,0.1-0.7,0l-0.4-0.7c1.1,0,2.2-0.2,3.1-0.6l0.4,0.6
			c-0.6,0.2-1,0.4-1.2,0.4v1.2h1.3v0.7h-1.3v0.8l0.2-0.1C166.3,161.8,166.7,162.3,166.9,162.9z M171.6,163.3h-2v3h-0.7v-3H167v-3.9
			h1.9v-1.9h0.8v1.9h2V163.3z M168.9,162.6v-2.4l-1.2,0v2.4H168.9z M170.8,162.6v-2.4h-1.2v2.4H170.8z"/>
		<path class="st0" d="M176.6,159.4h-1.9c-0.1,0.3-0.2,0.6-0.4,0.9h2.2v0.7h-1.2v1h1.3v0.7h-1.3v2.1l1.3-0.7v0.8l-1.8,0.9l-0.4-0.6
			c0.1-0.1,0.1-0.2,0.1-0.3v-2.2h-1.4V162h1.4v-1h-0.6c-0.2,0.2-0.3,0.5-0.6,0.7l-0.6-0.5c0.8-0.9,1.4-2.2,1.7-3.7l0.7,0.2
			c-0.1,0.3-0.1,0.7-0.2,1h1.7V159.4z M181.8,165c0,0.3-0.1,0.5-0.3,0.9c-0.2,0.3-0.4,0.5-0.6,0.5c-0.3,0-0.6-0.2-1-0.5
			c-0.4-0.4-0.7-0.7-0.9-1.1c-1,0.8-1.9,1.3-2.5,1.6l-0.5-0.6c1.1-0.4,2-1,2.7-1.6c-0.2-0.5-0.4-1.1-0.5-1.7l-1.4,0.1l-0.1-0.7
			l1.3-0.1c0-0.5-0.1-0.9,0-1.1l-1.2,0.1l-0.1-0.7l1.2-0.1v-2.2h0.7v2.2l2.3-0.2l0.1,0.7l-2.3,0.2c0,0.1,0,0.5,0.1,1l2.4-0.2
			l0.1,0.7l-2.4,0.2c0,0.3,0.2,0.7,0.4,1.2c0.6-0.7,1-1.1,1.1-1.2l0.6,0.4c-0.3,0.5-0.7,1-1.3,1.5c0.3,0.5,0.7,1,1.2,1.3
			c0,0,0.1-0.3,0.3-0.9L181.8,165z M180.6,159.1l-0.6,0.4c-0.3-0.5-0.7-1-1.2-1.2l0.5-0.4C180,158.3,180.4,158.7,180.6,159.1z"/>
		<path class="st0" d="M191.5,164c-0.1,0.7-0.2,1.2-0.4,1.5s-0.5,0.4-1,0.4h-4.6c-0.3,0-0.5-0.1-0.7-0.3c-0.2-0.2-0.3-0.4-0.3-0.7
			v-2.6h3.2v-1.2h-3.2v-0.5c-0.3,0.5-0.7,1-1.3,1.5l-0.6-0.5c1.2-1,2-2.4,2.5-4.2l0.7,0.3c-0.2,0.5-0.3,0.8-0.4,1.1h5.3
			c0,1.4-0.1,2.5-0.2,3.4c-0.1,0.9-0.3,1.4-0.5,1.6c-0.2,0.2-0.5,0.3-0.8,0.3c-0.4,0-0.7,0-1-0.1c-0.1-0.3-0.2-0.5-0.3-0.8
			c0.6,0.1,0.9,0.1,1,0.1c0.3,0,0.5-0.1,0.6-0.2c0.1-0.1,0.2-0.4,0.3-1s0.1-1.5,0.2-2.7h-4.9c-0.2,0.4-0.3,0.7-0.5,0.9h3.8v2.6h-3.2
			v1.8c0,0.3,0.1,0.4,0.4,0.4h4.1c0.2,0,0.4,0,0.5-0.1c0.1,0,0.1-0.1,0.2-0.3s0.1-0.5,0.2-1.2L191.5,164z"/>
		<path class="st0" d="M108.3,175.3c-0.2,0.5-0.5,0.9-0.7,1.2c0.3,0.2,0.5,0.4,0.7,0.6l-0.5,0.6c-0.3-0.4-0.6-0.6-1-0.9v3.4H106
			v-3.6c-0.2,0.3-0.6,0.8-1,1.2l-0.6-0.5c1-1,1.7-2.2,2.2-3.4h-1.9v-0.7h1.3v-1.7h0.7v1.7h1c-0.2,0.8-0.6,1.6-1,2.3v0.5l0.2,0.1
			c0.3-0.3,0.5-0.7,0.7-1.2L108.3,175.3z M113.5,179.6l-0.5,0.7c-0.8-0.3-1.5-0.7-2.2-1.4c-0.7,0.6-1.4,1-2.3,1.4l-0.4-0.7
			c0.9-0.3,1.7-0.7,2.2-1.2v0c-0.5-0.7-0.8-1.5-1.1-2.5h-0.3c0,1.9-0.5,3.4-1.5,4.4l-0.5-0.5c0.9-0.9,1.3-2.1,1.3-3.5v-3.4h1.9v-1.4
			h0.7v1.4h2.2c-0.1,0.7-0.3,1.4-0.5,2l-0.7-0.2c0.1-0.4,0.3-0.7,0.3-1.1H111v1.6h1.5c-0.2,1.4-0.6,2.5-1.2,3.2
			C112,179,112.7,179.4,113.5,179.6z M110.3,175.2v-1.6h-1.2v1.6H110.3z M111.7,175.9h-1.7c0.2,0.8,0.5,1.4,0.8,1.9
			C111.3,177.4,111.6,176.7,111.7,175.9z"/>
		<path class="st0" d="M116.9,174c0,1-0.1,2-0.4,2.8c-0.3,0.8-0.9,1.7-1.8,2.5l-0.5-0.6c1.2-1,1.9-2.4,2-4h-1.6V174H116.9z
			 M121.7,172.6c-0.8,0.6-1.6,1-2.6,1.3v0.7h1.4v0.7h-1.4v0.8h1.3l0,0.7h-1.2v0.8h1.9v0.7h-1.9v1.3c-0.1,0.4-0.5,0.6-1.1,0.6
			c-0.1,0-0.3,0-0.6,0l-0.3-0.7c0.4,0,0.7,0,0.8,0c0.3,0,0.5-0.1,0.5-0.3v-0.9h-1.8v-0.7h1.8v-0.8h-1.2v-0.7h1.2v-0.8H117v-0.7h1.4
			v-1.2c0.5-0.1,1.2-0.4,2.1-0.8v0h-4.8v-0.7h6.1V172.6z M123.3,178.7l-0.6,0.5c-1.5-1.1-2.2-2.9-2.2-5.5l0.7,0
			c0,0.8,0.1,1.4,0.1,1.7c0.3-0.3,0.6-0.7,1-1.3l0.5,0.5c-0.4,0.7-0.9,1.2-1.4,1.5C121.8,177.2,122.4,178,123.3,178.7z"/>
		<path class="st0" d="M128,178.2l-2.1,1.3l-0.4-0.7c0.1,0,0.1-0.1,0.1-0.3v-3.6h-1.3v-0.7h2v4.1l1.7-0.8V178.2z M127.1,172.9
			l-0.6,0.5c-0.4-0.7-0.9-1.2-1.4-1.5l0.6-0.4C126.3,171.9,126.7,172.4,127.1,172.9z M133,179.6l-0.6,0.6c-1-0.8-1.8-2.1-2.5-3.8
			c-0.5,1.7-1.3,3-2.6,3.8l-0.6-0.6c0.6-0.4,1.2-0.9,1.6-1.5s0.8-1.4,0.9-2.2c0.2-0.9,0.2-2.3,0.2-4.3h0.7c0,0.7,0,1.3,0,1.8
			l-0.1,1.5c0,0.1,0.2,0.6,0.5,1.4c0.3,0.9,0.7,1.6,1.1,2.1S132.5,179.3,133,179.6z"/>
		<path class="st0" d="M142,173.1c0,2.6-0.2,4.5-0.4,5.5c-0.2,1-0.6,1.6-1.2,1.6c-0.3,0-0.8-0.1-1.5-0.3l-0.1-0.8
			c0.7,0.3,1.2,0.4,1.5,0.4c0.3,0,0.5-0.5,0.7-1.5s0.3-2.4,0.3-4.1h-2.1c-0.2,0.7-0.6,1.4-1.1,2l-0.5-0.3v4.4h-0.8v-0.6h-1.6v0.8
			h-0.8v-6.8h0.9c0.3-0.5,0.5-1,0.6-1.7l0.7,0.3c-0.2,0.7-0.4,1.2-0.5,1.4h1.5v2c0.7-1,1.2-2.3,1.5-3.8l0.8,0.2
			c-0.1,0.4-0.2,0.9-0.4,1.5H142z M136.8,175.8v-1.9h-1.6v1.9H136.8z M136.8,178.5v-1.9h-1.6v1.9H136.8z M140.7,177.5l-0.7,0.3
			c-0.3-0.8-0.7-1.5-1.3-2.3l0.6-0.4C139.9,175.9,140.4,176.7,140.7,177.5z"/>
		<path class="st0" d="M146.8,178.3l-1.7,1l-0.4-0.6c0.1-0.1,0.1-0.2,0.1-0.4v-3.1h-1.1v-0.7h1.9v3.7l1.3-0.7V178.3z M146,173
			l-0.6,0.6c-0.4-0.5-0.9-1-1.4-1.3l0.5-0.5C145.1,172.2,145.6,172.6,146,173z M152.3,179.8h-6.2v-0.7h1.2v-4.6h0.7v4.6h1.2v-6.2
			h-2.6v-0.7h5.3v0.7h-2v2.4h1.7v0.7H150v3.1h2.3V179.8z"/>
		<path class="st0" d="M162.2,177.2l-0.5,0.7c-0.5-0.2-1-0.4-1.5-0.8c-0.1,1.1-0.2,1.9-0.3,2.3c-0.1,0.4-0.5,0.7-1,0.7
			c-0.2,0-0.6-0.1-1.2-0.2l-0.2-0.7c0.6,0.1,1,0.2,1.3,0.2c0.1,0,0.3,0,0.3-0.1c0.1-0.1,0.1-0.3,0.2-0.5c0.1-0.3,0.1-0.7,0.2-1.4
			h-1.5c-0.3,1.7-1.5,2.7-3.8,2.9l-0.3-0.7c2,0,3.2-0.7,3.4-2.1H156v-0.6c-0.6,0.5-1.2,0.9-2,1.2l-0.4-0.6c0.9-0.4,1.7-0.9,2.4-1.5
			H154v-0.7h2.5c0.2-0.3,0.4-0.5,0.5-0.7h-2.4v-0.7h2.6c0.2-0.6,0.3-1.2,0.3-2l0.7,0c0,0.7-0.1,1.4-0.2,2h3.1v0.7h-2.2
			c0.1,0.3,0.2,0.5,0.3,0.7h2.4v0.7h-1.9C160.3,176.3,161.1,176.9,162.2,177.2z M156.7,172.9l-0.6,0.5c-0.4-0.5-0.9-0.9-1.5-1.1
			l0.6-0.5C155.6,171.9,156.2,172.3,156.7,172.9z M159.5,176.5c-0.3-0.2-0.5-0.5-0.8-0.9h-1.9c-0.3,0.4-0.6,0.7-0.9,0.9H159.5z
			 M158.4,174.9c-0.1-0.3-0.2-0.5-0.3-0.7h-0.4c-0.2,0.4-0.3,0.6-0.4,0.7H158.4z M160.8,172.2c-0.5,0.6-0.9,1-1.4,1.3l-0.5-0.5
			c0.6-0.2,1-0.6,1.4-1.2L160.8,172.2z"/>
		<path class="st0" d="M166.7,174.1h-1.1v2l1.1-0.4v0.7c-0.1,0-0.5,0.2-1.1,0.4v2.6c0,0.2-0.1,0.4-0.2,0.6c-0.2,0.2-0.4,0.2-0.6,0.2
			l-0.9,0l-0.2-0.7c0.1,0,0.5,0,1,0c0.1,0,0.2-0.1,0.2-0.2V177c-0.5,0.2-0.9,0.3-1.1,0.4l-0.5-0.6c0.6-0.1,1.1-0.3,1.6-0.4v-2.2
			h-1.3v-0.7h1.3v-1.8h0.7v1.8h1.1V174.1z M172,179.6l-0.5,0.7c-0.7-0.2-1.6-0.7-2.6-1.5c-0.8,0.6-1.6,1.1-2.6,1.4l-0.5-0.7
			c1.1-0.4,2-0.8,2.6-1.3c-0.5-0.6-0.9-1.3-1.2-2h-0.5v-0.7h4.1c-0.1,1-0.5,2-1.3,2.8C170.3,178.9,171.1,179.3,172,179.6z
			 M171.9,173.8c-0.1,0.8-0.4,1.2-0.8,1.2h-0.7c-0.2,0-0.4-0.1-0.5-0.2s-0.2-0.3-0.2-0.5v-1.7h-1.4c0,0.6,0,1.1-0.1,1.4
			s-0.2,0.6-0.4,0.8s-0.5,0.5-0.8,0.7l-0.6-0.5c0.7-0.4,1.1-0.9,1.1-1.5v-1.6h2.9v2.3c0,0.1,0.1,0.2,0.2,0.2h0.3
			c0.2,0,0.3-0.3,0.3-0.8L171.9,173.8z M170,176.2h-1.9c0.3,0.7,0.6,1.2,0.9,1.5C169.5,177.3,169.8,176.8,170,176.2z"/>
		<path class="st0" d="M176.9,176.6l-0.7,0.4c-0.1-0.5-0.3-0.9-0.7-1.4v4.6h-0.8v-4.1c-0.2,0.6-0.6,1.2-1.2,1.7l-0.6-0.5
			c0.8-0.9,1.4-2,1.7-3.3h-1.4v-0.7h1.5v-1.9h0.8v1.9h1.3v0.7h-1.3v1l0.3-0.2C176.3,175.4,176.6,175.9,176.9,176.6z M181.9,178.1
			c-0.2,0.8-0.3,1.3-0.5,1.5c-0.1,0.2-0.3,0.3-0.6,0.3h-0.7c-0.5,0-0.7-0.2-0.7-0.6v-6.6H178v4.4c0,1.2-0.5,2.2-1.6,3.2l-0.7-0.5
			c1-0.9,1.5-1.8,1.5-2.8v-5h3v7.1c0,0.1,0.1,0.1,0.2,0.1h0.3c0.1,0,0.2-0.1,0.2-0.2c0.1-0.1,0.2-0.6,0.3-1.3L181.9,178.1z"/>
		<path class="st0" d="M191.4,173.1h-8.7v-0.7h4v-0.9h0.7v0.9h4V173.1z M190.6,179.3c0,0.2-0.1,0.4-0.2,0.6
			c-0.2,0.2-0.4,0.2-0.6,0.2H189l-0.3-0.8l1,0.1c0.1,0,0.1,0,0.2-0.1c0,0,0.1-0.1,0.1-0.2v-3.3c0,0.1-0.1,0.3-0.3,0.4
			s-0.3,0.1-0.4,0.1h-1.1c-0.2,0-0.4-0.1-0.5-0.2c-0.1-0.1-0.2-0.3-0.2-0.5V175h-1.1c-0.2,0.8-0.8,1.5-1.7,1.9l-0.4-0.6
			c0.8-0.3,1.2-0.7,1.4-1.3h-1.5v5.2h-0.8v-5.9h2.1c-0.1-0.3-0.4-0.5-0.9-0.8l0.7-0.3c0.4,0.2,0.7,0.6,1,1.1h1.3
			c0.3-0.3,0.6-0.7,0.8-1.1l0.8,0.3c-0.2,0.2-0.4,0.5-0.6,0.8h2V179.3z M188.7,179h-3.4v-2.2h3.4V179z M188,177.5h-2v0.8h2
			L188,177.5z M189.9,175.6V175h-1.7v0.5c0,0.1,0,0.2,0.1,0.2s0.1,0,0.2,0h0.7c0.1,0,0.1,0,0.1-0.1l0.1-0.3L189.9,175.6z"/>
	</g>
</g>
<g id="_x36_ojOIs.tif">
	<g>
		<g>
			<path class="st3" d="M53.9,22.5c-0.1-0.1-0.1-0.1-0.1-0.1c-0.2-0.1-0.1-0.1,0-0.3c0.2-0.3,0.4-0.6,0.5-0.9
				c0.1-0.1,0.1-0.1,0.2-0.1c0,0,0,0,0.1,0c0.4,0.1,0.4,0.1,0.2,0.5c-0.1,0.2-0.3,0.5-0.4,0.7c0,0-0.1,0.1,0,0.1
				c0,0,0.1,0.1,0.1,0.1c0.3,0,0.6,0,0.9,0c0.1,0,0.2,0,0.2,0.2c0,0.4,0.1,0.4-0.4,0.4c-0.9,0-1.8,0-2.7,0c-0.2,0-0.3,0.1-0.3,0.2
				c-0.1,0.2-0.2,0.4-0.3,0.5c-0.1,0.1,0,0.2,0.1,0.2c0.2,0,0.3,0,0.5,0c1.1,0,2.3,0,3.4,0c0.1,0,0.2,0.1,0.2,0.2
				c0,0.4,0,0.4-0.4,0.4c-0.4,0-0.8,0-1.2,0c-0.1,0-0.1,0-0.2,0c0.1,0.1,0.1,0.1,0.1,0.2c0.5,0.5,1.1,1,1.8,1.3
				c0.1,0.1,0.2,0.1,0.1,0.3c-0.3,0.4-0.3,0.4-0.7,0.1c-0.2-0.1-0.4-0.3-0.7-0.5c0,0-0.1,0-0.2-0.1c0,0.1,0,0.1,0,0.2
				c0,0.7-0.1,1.5-0.2,2.2c-0.1,0.4-0.4,0.7-1,0.7c-0.4,0-0.8,0-1.2,0c-0.1,0-0.2-0.1-0.2-0.2c-0.1-0.4-0.1-0.4,0.3-0.4
				c0.2,0,0.5,0,0.7,0c0.5,0,0.8-0.2,0.9-0.7c0.1-0.4,0.1-0.8,0.1-1.2c0-0.2-0.1-0.2-0.2-0.2c-0.5,0-1.1,0-1.6,0
				c-0.2,0-0.3,0-0.3,0.2c-0.2,1.2-1,1.9-2,2.4C49.6,29,49.4,29,49.4,29c-0.1-0.1-0.2-0.3-0.3-0.4c0,0,0.1-0.1,0.1-0.1
				c0.4-0.3,0.8-0.5,1.2-0.8c0.4-0.3,0.6-0.8,0.8-1.2c0.1-0.1,0-0.2-0.2-0.2c-0.3,0-0.5,0-0.8,0c-0.1,0-0.2,0-0.2-0.2
				c0,0,0-0.1,0-0.1c-0.1,0-0.1,0-0.2,0.1c-0.4,0.2-0.7,0.4-1,0.6c-0.1,0.1-0.2,0.1-0.2-0.1c0-0.1-0.1-0.2-0.2-0.2
				c-0.1-0.1-0.1-0.2,0.1-0.3c0.7-0.3,1.3-0.8,1.9-1.3c0,0,0.1-0.1,0.1-0.2c-0.1,0-0.1,0-0.2,0c-0.5,0-1,0-1.5,0
				c-0.2,0-0.2,0-0.2-0.2c0-0.4,0-0.4,0.4-0.4c0.6,0,1.2,0,1.8,0c0.2,0,0.3,0,0.3-0.2c0.1-0.2,0.2-0.4,0.3-0.6
				c0.1-0.1,0-0.2-0.1-0.2c-0.7,0-1.4,0-2,0c-0.2,0-0.2-0.1-0.2-0.2c0,0,0-0.1,0-0.1c0-0.2,0.1-0.2,0.2-0.2c0.3,0,0.6,0,0.9,0
				c0.2,0,0.2,0,0.1-0.2c-0.2-0.3-0.3-0.6-0.5-0.8c-0.1-0.1-0.1-0.1,0-0.2c0.1,0,0.1-0.1,0.2-0.1c0.2-0.1,0.3,0,0.4,0.2
				c0.1,0.3,0.3,0.5,0.4,0.8c0.1,0.1,0.1,0.2-0.1,0.2c0,0-0.1,0.1-0.1,0.1c0.1,0,0.1,0,0.2,0c0.2,0,0.5,0,0.7,0
				c0.2,0,0.2-0.1,0.3-0.2c0.1-0.4,0.2-0.8,0.2-1.1c0-0.1,0.1-0.1,0.2-0.1c0.1,0.1,0.4-0.1,0.4,0.2c0,0.3-0.1,0.7-0.2,1
				c0,0.2,0,0.2,0.2,0.2c0.3,0,0.6,0,0.9,0C53.5,22.5,53.7,22.5,53.9,22.5z M52.3,25.7C52.3,25.7,52.3,25.7,52.3,25.7
				c0.6,0,1.2,0,1.8,0c0,0,0.1,0,0.1,0c0,0,0-0.1,0-0.1c-0.2-0.3-0.5-0.6-0.7-0.8c-0.1-0.1-0.2-0.1-0.2-0.1c-0.6,0-1.2,0-1.8,0
				c-0.1,0-0.2,0.1-0.3,0.1c-0.3,0.3-0.5,0.5-0.8,0.8c0,0,0,0.1-0.1,0.1c0,0,0.1,0.1,0.1,0.1C51.1,25.7,51.7,25.7,52.3,25.7z"/>
			<path class="st3" d="M32.8,28.5c0.9-0.3,1.7-0.7,2.4-1.2c0.2-0.1,0.2-0.1,0-0.3c-0.6-0.6-1.1-1.2-1.4-2c0-0.1-0.1-0.1-0.1-0.1
				c0,0.1-0.1,0.1-0.1,0.2c-0.1,0.3-0.1,0.7-0.2,1c-0.3,1.1-0.9,2-1.7,2.8c-0.1,0.1-0.2,0.1-0.4,0c-0.1-0.1-0.2-0.2-0.3-0.3
				c0.1-0.1,0.2-0.2,0.3-0.3c0.6-0.6,1.1-1.4,1.4-2.2c0.4-1.2,0.5-2.4,0.5-3.7c0-0.2-0.1-0.2-0.3-0.2c-0.4,0-0.7,0-1.1,0
				c-0.1,0-0.2-0.1-0.2-0.2c0-0.4,0-0.4,0.4-0.4c1.5,0,3,0,4.5,0c0.1,0,0.2,0,0.2,0.2c-0.1,0.3-0.1,0.7-0.2,1
				c-0.1,0.3-0.2,0.6-0.3,1c0,0.2,0.1,0.2,0.2,0.2c0.4,0,0.8,0,1.2,0c0.2,0,0.3,0,0.2,0.2c0,0.6-0.2,1.2-0.6,1.8
				c-0.3,0.4-0.6,0.8-0.9,1.2c-0.1,0.1-0.1,0.2,0.1,0.3c0.6,0.4,1.3,0.7,1.9,1.1c0.1,0.1,0.2,0.1,0.1,0.2c-0.4,0.5-0.3,0.5-0.8,0.2
				c-0.6-0.3-1.1-0.7-1.7-1c-0.1-0.1-0.2-0.1-0.4,0c-0.7,0.5-1.5,0.9-2.3,1.2c-0.3,0.1-0.3,0.1-0.5-0.2C33,28.7,32.9,28.6,32.8,28.5
				z M35.1,22.1C35.1,22.1,35.1,22.1,35.1,22.1c-0.3,0-0.6,0-0.9,0c-0.2,0-0.2,0.1-0.2,0.2c0,0.2,0,0.4,0,0.5c-0.1,0.4,0,0.7,0.1,1
				c0.4,1,1,1.9,1.8,2.7c0.1,0.1,0.2,0.1,0.3,0c0.5-0.6,1-1.2,1.2-1.9c0.1-0.2,0-0.2-0.2-0.2c-0.4,0-0.8,0-1.2,0
				c-0.4,0-0.4,0-0.3-0.4c0.1-0.6,0.3-1.1,0.4-1.7c0-0.2,0-0.3-0.2-0.3C35.7,22.1,35.4,22.1,35.1,22.1z"/>
			<path class="st3" d="M78,24c-0.8,0-1.7,0-2.5,0c-0.2,0-0.2,0.1-0.2,0.2c0,1.5,0,3,0,4.5c0,0.2-0.1,0.3-0.3,0.2
				c-0.4,0-0.4,0.1-0.4-0.4c0-1.3,0-2.7,0-4c0-0.3,0-0.6,0-1c0-0.1,0.1-0.2,0.2-0.2c0.5,0,0.9,0,1.4,0c0.2,0,0.3-0.1,0.2-0.3
				c-0.1-0.2-0.2-0.4-0.3-0.6c-0.1-0.1-0.2-0.2-0.3-0.2c-0.4,0-0.9,0-1.3,0c-0.2,0-0.2,0-0.2-0.2c0-0.4,0-0.4,0.4-0.4
				c0.9,0,1.9,0,2.8,0c0.2,0,0.3-0.1,0.2-0.2c0,0,0-0.1-0.1-0.1c-0.1-0.3-0.1-0.3,0.2-0.3c0.4-0.1,0.4-0.1,0.6,0.3
				c0.2,0.4,0.2,0.4,0.6,0.4c0.9,0,1.9,0,2.8,0c0.1,0,0.2,0,0.2,0.2c0,0.5,0,0.5-0.4,0.5c-0.4,0-0.8,0-1.2,0c-0.1,0-0.2,0-0.3,0.2
				c-0.1,0.2-0.2,0.4-0.3,0.6c-0.1,0.1,0,0.2,0.1,0.2c0.5,0,0.9,0,1.4,0c0.2,0,0.3,0,0.2,0.2c0,1.3,0,2.5,0,3.8c0,0.3,0,0.5,0,0.8
				c0,0.4-0.3,0.7-0.7,0.7c-0.3,0-0.5,0-0.8,0c-0.1,0-0.2,0-0.2-0.2c0,0,0-0.1,0-0.1c-0.1-0.3-0.1-0.3,0.3-0.3c0.1,0,0.3,0,0.4,0
				c0.2,0,0.4-0.2,0.4-0.4c0-1.3,0-2.5,0-3.8c0-0.2-0.1-0.2-0.2-0.2C79.7,24,78.8,24,78,24C78,24,78,24,78,24z M76.7,22.5
				c0.1,0.3,0.2,0.5,0.3,0.8c0,0.2,0.1,0.2,0.3,0.2c0.4,0,0.8,0,1.3,0c0.1,0,0.2-0.1,0.3-0.2c0.1-0.2,0.2-0.4,0.3-0.7
				c0.1-0.1,0-0.2-0.1-0.2c-0.7,0-1.4,0-2.1,0C76.9,22.5,76.8,22.5,76.7,22.5z"/>
			<path class="st3" d="M45,25.1c0-0.9,0-1.8,0-2.7c0-0.2-0.1-0.2-0.2-0.2c-0.7,0-1.3,0-2,0c-0.2,0-0.2,0-0.2-0.2c0,0,0-0.1,0-0.1
				c0-0.3,0-0.3,0.3-0.3c1.4,0,2.9,0,4.3,0c0.2,0,0.2,0,0.2,0.2c0,0.4,0,0.4-0.4,0.4c-0.4,0-0.8,0-1.1,0c-0.2,0-0.2,0.1-0.2,0.2
				c0,0.6,0,1.3,0,1.9c0,0.2,0.1,0.2,0.2,0.2c0.4,0,0.8,0,1.2,0c0.2,0,0.3,0,0.3,0.3c0,0.1,0,0.1,0,0.2c0,0.1,0,0.2-0.2,0.2
				c-0.4,0-0.8,0-1.2,0c-0.3,0-0.3,0-0.3,0.3c0,0.8,0,1.6,0,2.4c0,0.2,0.1,0.2,0.2,0.2c0.5,0,1,0,1.5,0c0.2,0,0.2,0.1,0.2,0.2
				c0,0.5,0,0.4-0.4,0.4c-1.5,0-3.1,0-4.6,0c-0.3,0-0.3,0-0.3-0.3c0-0.4,0-0.4,0.4-0.4c0.6,0,0.5,0,0.5-0.5c0-1.3,0-2.6,0-3.9
				c0-0.1,0.1-0.1,0.1-0.2c0,0,0,0,0,0c0.5,0,0.5-0.1,0.5,0.5c0,1.3,0,2.6,0,3.9c0,0.1,0,0.2,0.2,0.2c0.3,0,0.6,0,0.8,0
				c0.1,0,0.2,0,0.2-0.2C45,27,45,26.1,45,25.1C45,25.1,45,25.1,45,25.1z"/>
			<path class="st3" d="M26.4,21.5c1.2,0,2.4,0,3.6,0c0.1,0,0.2,0,0.2,0.1c0,0.5,0.1,0.4-0.4,0.4c-0.7,0-1.3,0-2,0
				c-0.1,0-0.2,0-0.2,0.2c0,0.5-0.1,0.5,0.5,0.5c0.4,0,0.9,0,1.3,0c0.2,0,0.2,0.1,0.2,0.2c0,0.5,0,1,0,1.5c0,0.2-0.1,0.2-0.2,0.2
				c-1.9,0-3.8,0-5.7,0c-0.5,0-0.5,0-0.5-0.5c0-0.4,0-0.8,0-1.3c0-0.2,0-0.2,0.2-0.2c0.5,0,1,0,1.6,0c0.2,0,0.2-0.1,0.2-0.2
				c0-0.5,0-0.5-0.5-0.4c-0.6,0-1.3,0-1.9,0c-0.2,0-0.2-0.1-0.2-0.2c0-0.1,0-0.1,0-0.2c0-0.1,0-0.2,0.2-0.2
				C24,21.5,25.2,21.5,26.4,21.5C26.4,21.5,26.4,21.5,26.4,21.5z M28.3,24.1C28.3,24.1,28.3,24.1,28.3,24.1c0.2,0,0.3,0,0.5,0
				c0.1,0,0.2-0.1,0.2-0.2c0-0.2,0-0.3,0-0.5c0-0.1-0.1-0.2-0.2-0.2c-0.3,0-0.6,0-1,0c-0.1,0-0.2,0.1-0.2,0.2c0,0.2,0,0.3,0,0.5
				c0,0.1,0.1,0.2,0.2,0.2C28,24.1,28.2,24.1,28.3,24.1z M24.5,23.2C24.5,23.2,24.5,23.2,24.5,23.2c-0.2,0-0.3,0-0.5,0
				c-0.1,0-0.2,0.1-0.2,0.2c0,0.2,0,0.3,0,0.5c0,0.2,0.1,0.2,0.2,0.2c0.3,0,0.6,0,0.9,0c0.2,0,0.2-0.1,0.2-0.2c0-0.1,0-0.3,0-0.4
				c0-0.2-0.1-0.2-0.2-0.2C24.8,23.2,24.6,23.2,24.5,23.2z M26.4,23.2C26.4,23.2,26.4,23.2,26.4,23.2c-0.1,0-0.3,0-0.4,0
				c-0.1,0-0.2,0.1-0.2,0.2c0,0.2,0,0.3,0,0.5c0,0.1,0.1,0.2,0.2,0.2c0.3,0,0.6,0,0.9,0c0.1,0,0.2-0.1,0.2-0.2c0-0.2,0-0.3,0-0.5
				c0-0.1-0.1-0.2-0.2-0.2C26.7,23.2,26.5,23.2,26.4,23.2z M26.4,22.7C26.4,22.7,26.4,22.7,26.4,22.7c0.2,0,0.3,0,0.5,0
				c0.1,0,0.2,0,0.2-0.1c0-0.2,0-0.4,0-0.6c0,0-0.1-0.1-0.2-0.1c-0.2,0-0.4,0-0.6,0c-0.6,0-0.5,0-0.5,0.5c0,0,0,0,0,0
				c0,0.1,0.1,0.2,0.2,0.2C26.1,22.7,26.2,22.7,26.4,22.7z"/>
			<path class="st3" d="M71.9,24.8c0,1,0,2.1,0,3.1c0,0.2,0,0.3,0.3,0.3c0.5,0,0.6-0.1,0.6-0.5c0-0.4,0-0.7,0-1.1
				c0-0.1,0-0.1,0.1-0.1c0,0,0,0,0,0c0.5,0.2,0.5,0.2,0.4,0.7c0,0.3,0,0.7,0,1c0,0.4-0.2,0.7-0.8,0.7c-0.2,0-0.5,0-0.7,0
				c-0.4,0-0.6-0.3-0.6-0.6c0-2,0-3.9,0-5.9c0-0.2-0.1-0.2-0.2-0.2c-0.4,0-0.7,0-1.1,0c-0.1,0-0.2,0-0.2,0.2c0,1.1,0.1,2.3,0,3.4
				c-0.1,1.1-0.3,2.3-1,3.2c-0.1,0.1-0.1,0.1-0.2,0c-0.4-0.3-0.4-0.3-0.1-0.8c0.5-0.8,0.7-1.6,0.7-2.5c0-1.2,0-2.5,0-3.7
				c0-0.4,0-0.4,0.5-0.4c0.7,0,1.4,0,2.1,0c0.2,0,0.2,0.1,0.2,0.2C71.9,22.7,71.9,23.8,71.9,24.8z"/>
			<path class="st3" d="M17,25c0,1.1,0,2.1,0,3.2c0,0.1,0,0.3,0,0.4c0,0.2-0.3,0.4-0.6,0.4c-0.2,0-0.5,0-0.7,0
				c-0.1,0-0.1-0.1-0.2-0.1c-0.2-0.4-0.2-0.4,0.3-0.4c0.1,0,0.2,0,0.2,0c0.2,0,0.3-0.1,0.3-0.3c0-0.6,0-1.2,0-1.8
				c0-0.1-0.1-0.2-0.2-0.2c-0.3,0-0.7,0-1,0c-0.1,0-0.2,0.1-0.2,0.2c-0.1,0.4-0.1,0.9-0.2,1.3c-0.1,0.4-0.3,0.8-0.4,1.2
				c-0.1,0.2-0.1,0.2-0.3,0.1c0,0-0.1-0.1-0.1-0.1c-0.2-0.1-0.1-0.2-0.1-0.4c0.2-0.4,0.3-0.9,0.4-1.3c0.2-0.6,0.1-1.3,0.1-1.9
				c0-1.2,0-2.3,0-3.5c0-0.3,0-0.2,0.2-0.2c0.7,0,1.4,0,2.1,0c0.2,0,0.2,0,0.2,0.2C17,22.8,17,23.9,17,25C17,25,17,25,17,25z
				 M15.1,22.8c0,0.2,0,0.4,0,0.6c0,0.2,0,0.2,0.2,0.2c0.3,0,0.6,0,1,0c0.1,0,0.2,0,0.2-0.2c0-0.4,0-0.8,0-1.2
				c0-0.1-0.1-0.2-0.2-0.2c-0.3,0-0.6,0-0.9,0c-0.2,0-0.2,0.1-0.2,0.2C15.1,22.4,15,22.6,15.1,22.8z M16.4,24.9
				C16.4,24.9,16.4,24.9,16.4,24.9c0-0.2,0-0.4,0-0.5c0-0.1,0-0.2-0.2-0.2c-0.3,0-0.6,0-1,0c-0.1,0-0.2,0.1-0.2,0.2
				c0,0.4,0,0.7,0,1.1c0,0.1,0.1,0.2,0.2,0.2c0.3,0,0.7,0,1,0c0.1,0,0.2-0.1,0.2-0.2C16.4,25.2,16.4,25,16.4,24.9z"/>
			<path class="st3" d="M62,24.8c0.6,0,1.2,0,1.9,0c0.2,0,0.2,0.1,0.2,0.2c0.1,0.4-0.1,0.8-0.3,1.1c-0.2,0.4-0.6,0.8-0.8,1.2
				c-0.1,0.1-0.1,0.2,0,0.2c0.6,0.3,1.2,0.7,1.8,0.9c0.1,0,0.1,0.1,0.1,0.2c-0.1,0.1-0.1,0.2-0.2,0.3C64.5,29,64.4,29,64.3,29
				c-0.6-0.3-1.2-0.6-1.9-1c-0.1-0.1-0.2-0.1-0.4,0c-0.6,0.4-1.3,0.7-2,1c-0.2,0.1-0.3,0.1-0.5-0.2c0,0,0-0.1-0.1-0.1
				c-0.1-0.2-0.1-0.2,0.1-0.3c0.7-0.2,1.3-0.5,1.9-0.9c0.1-0.1,0.1-0.2,0-0.3c-0.4-0.4-0.7-0.8-0.9-1.3c-0.1-0.1-0.1-0.3-0.2-0.4
				c0-0.1-0.1-0.2-0.3-0.2c-0.3,0-0.3,0-0.3-0.3c0,0,0-0.1,0-0.1c0-0.2,0.1-0.2,0.2-0.2C60.7,24.8,61.4,24.8,62,24.8
				C62,24.8,62,24.8,62,24.8z M61.1,25.5C61.1,25.5,61.1,25.5,61.1,25.5c0.2,0.6,0.6,1.1,1,1.5c0.1,0.1,0.2,0.1,0.3,0
				c0.4-0.4,0.7-0.8,0.9-1.3c0.1-0.1,0-0.2-0.1-0.2c-0.6,0-1.3,0-1.9,0C61.2,25.5,61.1,25.5,61.1,25.5z"/>
			<path class="st3" d="M67.5,24.7c0,0.1,0,0.2,0,0.3c0,1.3,0,2.6,0,3.9c0,0.1-0.1,0.2-0.2,0.2c-0.4,0-0.4,0-0.4-0.4
				c0-1.2,0-2.3,0-3.5c0-0.1,0-0.1,0-0.2c0,0,0,0-0.1,0c0,0.1-0.1,0.2-0.1,0.3c-0.3,0.5-0.6,1.1-0.8,1.6c0,0-0.1,0.1-0.1,0.1
				c0-0.1-0.1-0.1-0.1-0.2c-0.2-0.4-0.1-0.6,0.1-0.9c0.5-0.6,0.8-1.4,1-2.1c0.1-0.2,0-0.3-0.2-0.3c-0.3,0-0.5,0-0.8,0
				c-0.1,0-0.2-0.1-0.2-0.2c0-0.4,0-0.4,0.4-0.4c0.2,0,0.5,0,0.7,0c0.2,0,0.2-0.1,0.2-0.2c0-0.4,0-0.8,0-1.3c0-0.1,0-0.2,0.2-0.2
				c0.4,0,0.4,0,0.4,0.4c0,0.3,0,0.7,0,1c0,0.2,0.1,0.2,0.2,0.2c0.2,0,0.5,0,0.7,0c0.1,0,0.2,0,0.2,0.2c0,0.4,0,0.4-0.4,0.4
				c-0.1,0-0.3,0-0.4,0c-0.1,0-0.2,0-0.3,0.1c0,0.1,0,0.2,0,0.4c0,0.1,0.1,0.1,0.1,0.1c0.3,0.4,0.6,0.7,1,1.1c0.1,0.1,0.1,0.2,0,0.3
				c-0.1,0.1-0.1,0.2-0.2,0.3c-0.1,0.1-0.1,0.1-0.2,0c-0.2-0.3-0.3-0.6-0.5-0.8C67.7,24.8,67.6,24.7,67.5,24.7
				C67.5,24.6,67.5,24.6,67.5,24.7z"/>
			<path class="st3" d="M19.3,24.8c0.5,0,1.1,0,1.6,0c0.2,0,0.2,0.1,0.2,0.2c0,0.6-0.2,1.1-0.5,1.6c-0.1,0.2-0.3,0.5-0.5,0.7
				c-0.1,0.1-0.1,0.2,0,0.3c0.5,0.3,1,0.6,1.5,0.8c0.1,0.1,0.2,0.1,0.1,0.3c-0.3,0.5-0.2,0.4-0.7,0.2c-0.5-0.2-0.9-0.6-1.4-0.8
				c-0.1,0-0.2,0-0.2,0c-0.5,0.4-1.1,0.7-1.7,1c-0.1,0-0.2,0-0.3-0.1c0,0,0-0.1-0.1-0.1c-0.3-0.4-0.2-0.3,0.1-0.5
				c0.5-0.3,0.9-0.5,1.4-0.8c0.1-0.1,0.1-0.1,0-0.2c-0.5-0.5-0.8-1.1-1-1.8c0-0.1-0.1-0.1-0.2-0.1c-0.2,0-0.2-0.1-0.2-0.2
				c0-0.4,0-0.4,0.4-0.4C18.4,24.8,18.8,24.8,19.3,24.8C19.3,24.8,19.3,24.8,19.3,24.8z M19.5,25.4C19.5,25.4,19.5,25.4,19.5,25.4
				c-0.3,0-0.5,0-0.8,0c-0.1,0-0.2,0-0.1,0.2c0.2,0.5,0.5,0.9,0.8,1.3c0.1,0.1,0.2,0.1,0.2,0c0.3-0.4,0.5-0.8,0.8-1.3
				c0.1-0.1,0-0.2-0.1-0.2C20,25.4,19.8,25.4,19.5,25.4z"/>
			<path class="st3" d="M57,28.3c0.2,0,0.4,0,0.6,0c0.3,0,0.4-0.1,0.4-0.4c0-0.1,0-0.2,0-0.3c0-0.5,0-1,0-1.5c0-0.2,0-0.2-0.2-0.2
				c-0.2,0.1-0.4,0.2-0.6,0.2c-0.2,0.1-0.2,0-0.3-0.2c0-0.1,0-0.1,0-0.2c-0.1-0.3-0.1-0.3,0.2-0.3c0.3-0.1,0.5-0.2,0.8-0.3
				c0.1,0,0.2-0.2,0.2-0.2c0-0.5,0-1,0-1.5c0-0.2-0.1-0.2-0.2-0.2c-0.2,0-0.5,0-0.7,0c-0.1,0-0.2-0.1-0.2-0.2c0-0.4,0-0.4,0.4-0.4
				c0.1,0,0.3,0,0.4,0c0.2,0,0.2,0,0.2-0.2c0-0.4,0-0.8,0-1.2c0-0.1,0-0.2,0.2-0.2c0.4,0,0.4,0,0.4,0.4c0,0.3,0,0.6,0,0.9
				c0,0.2,0.1,0.2,0.2,0.2c0.2,0,0.4,0,0.6,0c0.1,0,0.2,0,0.2,0.2c0,0.4,0,0.4-0.4,0.4c-0.1,0-0.3,0-0.4,0c-0.1,0-0.2,0.1-0.2,0.1
				c0,0.4,0,0.9,0,1.3c0,0.1,0.1,0.2,0.2,0.1c0.2-0.1,0.3-0.2,0.5-0.3c0,0,0.1,0,0.2,0c0,0.1,0,0.1,0,0.2c0.1,0.4-0.1,0.6-0.4,0.7
				c-0.4,0.1-0.5,0.4-0.5,0.8c0,0.7,0,1.4,0,2.1c0,0.3-0.3,0.6-0.6,0.6c-0.3,0-0.5,0-0.8,0c-0.1,0-0.2-0.1-0.2-0.1
				C57.1,28.7,57.1,28.5,57,28.3z"/>
			<path class="st3" d="M26.4,26.4c1.2,0,2.4,0,3.5,0c0.1,0,0.2,0,0.2,0.1c0,0,0,0,0,0c0,0.4,0.1,0.4-0.4,0.4c-0.9,0-1.8,0-2.7,0
				c-0.2,0-0.3,0-0.3,0.3c0,0.4,0,0.7,0,1.1c0,0.5-0.3,0.7-0.7,0.7c-0.2,0-0.5,0-0.7,0c-0.1,0-0.1-0.1-0.2-0.1c0-0.1,0-0.2-0.1-0.2
				c-0.1-0.2,0-0.2,0.1-0.2c0.2,0,0.3,0,0.5,0c0.2,0,0.4-0.1,0.4-0.4c0-0.3,0-0.6,0-0.9c0-0.2-0.1-0.2-0.2-0.2c-1,0-2,0-3,0
				c-0.1,0-0.2-0.1-0.2-0.1c0-0.1,0-0.3,0-0.4c0,0,0.1,0,0.1,0C24,26.4,25.2,26.4,26.4,26.4C26.4,26.4,26.4,26.4,26.4,26.4z"/>
			<path class="st3" d="M62,21.5c0.4,0,0.8,0,1.2,0c0.2,0,0.2,0,0.2,0.2c0,0.5,0,1,0,1.6c0,0.2,0.2,0.4,0.4,0.4c0.2,0,0.3,0,0.5,0
				c0.1,0,0.2,0,0.2,0.2c0,0.4,0,0.4-0.4,0.4c-0.2,0-0.4,0-0.5,0c-0.5,0-0.8-0.3-0.8-0.8c0-0.4,0-0.8,0-1.2c0-0.2,0-0.2-0.2-0.2
				c-0.4,0-0.8,0-1.2,0c-0.2,0-0.3,0-0.2,0.3c0,0.9-0.3,1.6-1.1,2.1c-0.1,0.1-0.2,0.1-0.3,0c-0.1-0.1-0.2-0.2-0.3-0.4
				c0.1-0.1,0.2-0.2,0.3-0.3c0.4-0.3,0.7-0.7,0.6-1.3c0-0.2,0-0.5,0-0.7c0-0.2,0-0.2,0.2-0.2C61.2,21.5,61.6,21.5,62,21.5
				C62,21.5,62,21.5,62,21.5z"/>
			<path class="st3" d="M19.4,21.5c0.4,0,0.8,0,1.2,0c0.1,0,0.2,0.1,0.2,0.2c0,0.5,0,1,0,1.6c0,0.3,0.1,0.4,0.3,0.4
				c0.2,0,0.3,0,0.5,0c0.1,0,0.1,0.1,0.2,0.1c0,0,0,0,0,0c0,0.5,0.1,0.5-0.4,0.4c-0.2,0-0.3,0-0.5,0c-0.4,0-0.7-0.3-0.7-0.7
				c0-0.4,0-0.8,0-1.2c0-0.2-0.1-0.2-0.2-0.2c-0.4,0-0.7,0-1.1,0c-0.1,0-0.2,0.1-0.2,0.2c0,0.4,0,0.7-0.1,1.1
				c-0.1,0.4-0.4,0.8-0.7,1.1c0,0-0.1,0-0.2,0c0,0,0,0,0,0c-0.1-0.1-0.3-0.2-0.3-0.3c0-0.1,0.2-0.2,0.3-0.3c0.3-0.3,0.4-0.7,0.4-1.1
				c0-0.3,0-0.6,0-0.9c0-0.2,0-0.2,0.2-0.2C18.6,21.5,19,21.5,19.4,21.5C19.4,21.5,19.4,21.5,19.4,21.5z"/>
			<path class="st3" d="M78,28c-0.4,0-0.9,0-1.3,0c-0.3,0-0.3,0-0.3-0.3c0-0.5,0-1.1,0-1.6c0-0.3,0-0.3,0.3-0.3c0.9,0,1.8,0,2.7,0
				c0.1,0,0.2,0,0.2,0.2c0,0.6,0,1.2,0,1.8c0,0.1-0.1,0.1-0.2,0.1C78.9,28,78.5,28,78,28C78,28,78,28,78,28z M78,26.4
				C78,26.4,78,26.4,78,26.4c-0.3,0-0.5,0-0.8,0c-0.2,0-0.2,0.1-0.2,0.2c0,0.2,0,0.4,0,0.6c0,0.1,0.1,0.2,0.2,0.2c0.5,0,1.1,0,1.6,0
				c0.1,0,0.2-0.1,0.2-0.2c0-0.2,0-0.4,0-0.6c0-0.1-0.1-0.2-0.2-0.2C78.5,26.4,78.3,26.4,78,26.4z"/>
			<path class="st3" d="M41.5,25.5c0,0.6,0,1.1,0,1.7c0,0,0,0.1,0,0.1c0,0,0.1,0,0.1-0.1c0.2-0.2,0.4-0.4,0.5-0.5
				c0.1-0.1,0.2-0.1,0.2,0c0,0.1,0.1,0.3,0.1,0.4c0,0.1,0,0.2-0.1,0.2c-0.4,0.4-0.9,0.8-1.4,1.1c-0.1,0.1-0.2,0-0.2-0.1
				c-0.1-0.1-0.1-0.2-0.2-0.4c0-0.1,0-0.1,0-0.2c0-0.1,0.1-0.3,0.1-0.4c0-1,0-1.9,0-2.9c0-0.2-0.1-0.3-0.2-0.2c-0.3,0-0.6,0-0.8,0
				c-0.1,0-0.2,0-0.2-0.2c0-0.4,0-0.4,0.4-0.4c0.4,0,0.8,0,1.3,0c0.1,0,0.2,0,0.2,0.2C41.5,24.5,41.5,25,41.5,25.5
				C41.5,25.5,41.5,25.5,41.5,25.5z"/>
			<path class="st3" d="M26.4,25.2c0.9,0,1.8,0,2.6,0c0.2,0,0.2,0,0.2,0.2c0,0.3,0,0.4-0.4,0.4c-1.7,0-3.4,0-5.1,0
				c-0.2,0-0.2-0.1-0.2-0.2c0,0,0-0.1,0-0.1c0-0.2,0.1-0.2,0.2-0.2C24.7,25.2,25.5,25.2,26.4,25.2z"/>
			<path class="st3" d="M77.6,24.6c0,0.1-0.1,0.1-0.1,0.1c-0.5,0.5-1,1-1.5,1.3c-0.1,0.1-0.2,0.1-0.3-0.1c-0.3-0.4-0.3-0.3,0.1-0.6
				c0.4-0.3,0.8-0.7,1.2-1c0.1-0.1,0.2-0.1,0.4,0C77.4,24.4,77.5,24.5,77.6,24.6z"/>
			<path class="st3" d="M23.1,28.9c0,0-0.1,0-0.1-0.1c-0.1-0.1-0.2-0.2-0.2-0.3c-0.1-0.1,0-0.2,0.1-0.2c0.7-0.2,1.3-0.6,1.8-1
				c0.1-0.1,0.2-0.1,0.3,0c0.3,0.3,0.4,0.2,0,0.5c-0.5,0.4-1.1,0.7-1.7,1C23.2,28.9,23.2,28.9,23.1,28.9z"/>
			<path class="st3" d="M78.4,24.5c0.1-0.1,0.2-0.2,0.4-0.3c0.1,0,0.2,0,0.2,0c0.5,0.4,1.1,0.9,1.6,1.3c0,0,0,0,0,0
				c0.1,0.3-0.2,0.3-0.3,0.5c-0.1,0.1-0.1,0.1-0.2,0c-0.5-0.5-1-0.9-1.6-1.4C78.4,24.6,78.4,24.6,78.4,24.5z"/>
			<path class="st3" d="M30.2,28.5c-0.1,0.1-0.2,0.2-0.3,0.3c-0.2,0.2-0.2,0.2-0.4,0c-0.5-0.4-1.1-0.7-1.6-1.1
				c-0.1-0.1-0.1-0.1,0-0.2c0.3-0.3,0.3-0.3,0.7-0.1c0.5,0.3,1,0.6,1.5,1C30.1,28.4,30.2,28.4,30.2,28.5z"/>
			<path class="st3" d="M40.7,21.2c0.1,0,0.1,0.1,0.2,0.1c0.4,0.4,0.8,0.8,1.2,1.1c0,0,0,0,0,0c0.1,0.2-0.2,0.3-0.3,0.4
				c0,0-0.2,0-0.2,0c-0.4-0.4-0.8-0.8-1.3-1.2c0,0-0.1-0.1,0-0.1C40.4,21.5,40.6,21.3,40.7,21.2z"/>
		</g>
	</g>
</g>
<g>
	<g>
		<g>
			<path class="st3" d="M182.5,28.5c0,1.1,0,2.1,0,3.2c0,0.3-0.1,0.4-0.3,0.4c-0.2,0-0.3,0-0.5,0c-0.2,0-0.4-0.1-0.4-0.4
				c0-0.2-0.1-0.3-0.3-0.3c-2,0-4,0-6,0c-0.3,0-0.4,0.1-0.3,0.4c0,0.2-0.1,0.3-0.3,0.3c0,0,0,0-0.1,0c-0.8,0-0.9,0-0.9-0.8
				c0-1.5,0-3,0-4.5c0-0.1,0-0.3-0.1-0.3c0,0-0.2,0-0.3,0.1c-0.5,0.2-1,0.4-1.6,0.6c-0.2,0.1-0.5,0.2-0.6,0.1
				c-0.2-0.1-0.2-0.4-0.3-0.6c-0.2-0.4-0.2-0.5,0.3-0.6c1.1-0.3,2.2-0.6,3.2-1c1-0.4,2-0.9,3-1.4c0.1,0,0.1-0.1,0.2-0.2
				c-0.1,0-0.2-0.1-0.3-0.1c-2,0-4.1,0-6.1,0c-0.3,0-0.3-0.1-0.3-0.3c0-0.8,0-0.8,0.8-0.8c1.5,0,2.9,0,4.4,0c0.3,0,0.5-0.1,0.5-0.4
				c0-0.3,0-0.7,0-1c0-0.3-0.1-0.4-0.4-0.4c-1.1,0-2.3,0-3.4,0c-0.3,0-0.5-0.1-0.4-0.4c0.1-0.6,0-0.6,0.7-0.6c1.1,0,2.1,0,3.2,0
				c0.3,0,0.5-0.1,0.4-0.4c0-0.3,0-0.6,0-0.8c0-0.1,0-0.1,0-0.2c0.2-0.4,0.6-0.1,1-0.2c0.1,0,0.3,0.2,0.3,0.3c0,0.3,0,0.7,0,1
				c0,0.3,0.1,0.4,0.3,0.4c1,0,2,0,2.9,0c0.3,0,0.5,0.1,0.4,0.4c0,0.1,0,0.1,0,0.2c0,0.4,0,0.5-0.5,0.5c-0.9,0-1.9,0-2.8,0
				c-0.3,0-0.4,0.1-0.4,0.4c0,0.4,0,0.8,0,1.2c0,0.2,0.1,0.3,0.3,0.3c0.4,0,0.8,0,1.3,0c0.2,0,0.4-0.1,0.6-0.2
				c1.2-0.9,2.3-1.9,3.3-3.1c0.2-0.3,0.4-0.3,0.6-0.1c0.6,0.5,0.6,0.5,0.1,1c-0.7,0.7-1.4,1.4-2.1,2c-0.1,0.1-0.1,0.2-0.1,0.2
				c0.1,0,0.2,0.1,0.2,0.1c0.8,0,1.6,0,2.4,0c0.4,0,0.5,0.1,0.5,0.4c0,0.7,0,0.7-0.7,0.7c-1.3,0-2.5,0-3.8,0c-0.2,0-0.5,0.1-0.7,0.2
				c-0.7,0.4-1.4,0.7-2.1,1.1c-0.1,0.1-0.2,0.2-0.2,0.2c0.1,0,0.2,0.1,0.3,0.1c1.5,0,3,0,4.5,0c0.7,0,0.7,0,0.7,0.7
				C182.5,26.6,182.5,27.6,182.5,28.5C182.5,28.5,182.5,28.5,182.5,28.5z M178,30.3C178,30.3,178,30.3,178,30.3c1,0,2,0,2.9,0
				c0.3,0,0.5-0.1,0.4-0.4c0-0.3,0-0.5,0-0.8c0-0.3-0.1-0.4-0.4-0.4c-2,0-4,0-5.9,0c-0.3,0-0.4,0.1-0.4,0.4c0,0.3,0,0.6,0,0.8
				c0,0.4,0,0.5,0.4,0.5C176,30.3,177,30.3,178,30.3z M177.9,27.6C177.9,27.6,177.9,27.6,177.9,27.6c1,0,2,0,2.9,0
				c0.3,0,0.5-0.1,0.5-0.5c0-0.3,0-0.5,0-0.8c0-0.3-0.1-0.4-0.4-0.4c-2,0-4,0-6,0c-0.3,0-0.4,0.1-0.4,0.3c0,0.3,0,0.6,0,0.9
				c0,0.3,0.1,0.5,0.4,0.5C176,27.6,177,27.6,177.9,27.6z"/>
			<path class="st3" d="M148.3,24.3c1.1,0,2.3,0,3.4,0c0.3,0,0.3,0.1,0.4,0.4c0.1,0.9-0.3,1.6-0.7,2.3c-0.4,0.7-0.9,1.3-1.4,1.9
				c-0.2,0.2-0.1,0.3,0.1,0.5c1,0.6,2.1,1.2,3.2,1.6c0.1,0,0.1,0.2,0.1,0.3c-0.1,0.2-0.2,0.4-0.4,0.6c-0.1,0.1-0.3,0.2-0.5,0.1
				c-1.2-0.5-2.3-1.1-3.4-1.8c-0.3-0.2-0.5-0.2-0.7,0c-1,0.5-2,1.1-3,1.6c-0.2,0.1-0.5,0.2-0.7,0.2c-0.3,0.1-0.5,0-0.7-0.3
				c-0.1-0.1-0.2-0.2-0.2-0.4c-0.1-0.2-0.1-0.3,0.2-0.4c1.3-0.3,2.4-1,3.5-1.6c0.2-0.1,0.2-0.3,0-0.5c-0.9-0.9-1.6-1.8-2-3
				c-0.1-0.3-0.3-0.4-0.6-0.4c-0.5,0-0.5,0-0.4-0.5c0-0.7,0-0.7,0.7-0.7C146.3,24.3,147.3,24.3,148.3,24.3
				C148.3,24.3,148.3,24.3,148.3,24.3z M146.6,25.5c0.4,1.1,1.1,2,1.9,2.7c0.2,0.2,0.3,0.1,0.5-0.1c0.7-0.7,1.3-1.5,1.7-2.3
				c0.1-0.3,0.1-0.4-0.3-0.4c-1.1,0-2.3,0-3.4,0C146.9,25.5,146.8,25.5,146.6,25.5z"/>
			<path class="st3" d="M164.9,18.7c0.9,0,1.8,0,2.8,0c0.2,0,0.3,0.1,0.3,0.3c-0.1,0.5-0.1,1-0.3,1.4c-0.1,0.4-0.2,0.7-0.4,1
				c0,0.1-0.2,0.2-0.3,0.1c-0.2,0-0.4-0.1-0.6-0.2c-0.2-0.1-0.3-0.2-0.2-0.4c0.2-0.3,0.3-0.6,0.4-0.9c0.1-0.3,0-0.4-0.3-0.4
				c-0.6,0-1.2,0-1.8,0c-0.3,0-0.3,0.1-0.4,0.4c-0.3,0.6,0.1,0.9,0.4,1.3c0.6,0.6,1.4,1,2.2,1.3c0.6,0.2,1.1,0.3,1.7,0.5
				c0.1,0,0.2,0.1,0.2,0.1c-0.1,0.3-0.1,0.6-0.2,0.8c0,0.1-0.2,0.2-0.3,0.1c-0.8-0.2-1.6-0.5-2.4-0.8c-0.8-0.3-1.5-0.8-2-1.4
				c-0.2-0.2-0.3-0.2-0.4,0c-0.6,0.9-1.6,1.4-2.6,1.7c-0.4,0.1-0.8,0.2-1.1,0.4c-0.4,0.1-0.5,0.1-0.7-0.3c0-0.1-0.1-0.1-0.1-0.2
				c-0.2-0.4-0.2-0.4,0.2-0.5c1-0.3,2-0.5,2.8-1.2c0.6-0.5,0.9-1.1,1.2-1.8c0.1-0.2,0-0.3-0.2-0.3c-0.5,0-0.9,0-1.4,0
				c-0.1,0-0.3,0.1-0.4,0.2c-0.4,0.4-0.8,0.7-1.1,1.1c-0.2,0.2-0.3,0.2-0.5,0c-0.5-0.7-0.5-0.6,0.1-1.2c0.6-0.6,1.1-1.2,1.4-2.1
				c0-0.1,0.2-0.2,0.2-0.2c0.3,0,0.6,0,0.9,0.1c0.1,0,0.1,0.2,0.1,0.3c-0.3,0.8-0.3,0.8,0.5,0.8C163.3,18.7,164.1,18.7,164.9,18.7
				C164.9,18.7,164.9,18.7,164.9,18.7z"/>
			<path class="st3" d="M141.2,28.3c0-0.5,0-1,0-1.6c0-0.3-0.1-0.4-0.4-0.2c-0.4,0.2-0.8,0.3-1.2,0.5c-0.2,0.1-0.4,0-0.5-0.3
				c0-0.2-0.1-0.4-0.1-0.6c0-0.1,0.2-0.3,0.3-0.4c0.5-0.2,1-0.3,1.5-0.5c0.3-0.1,0.4-0.2,0.4-0.6c0-0.9,0-1.8,0-2.7
				c0-0.3-0.1-0.5-0.4-0.4c-0.4,0-0.8,0-1.2,0c-0.2,0-0.4-0.1-0.3-0.3c0-0.8,0-0.8,0.8-0.8c0.3,0,0.5,0,0.8,0c0.3,0,0.4-0.1,0.4-0.4
				c0-0.7,0-1.4,0-2.1c0-0.3,0.1-0.4,0.3-0.3c0.9,0,0.8-0.2,0.8,0.8c0,0.5,0,1.1,0,1.6c0,0.4,0,0.5,0.4,0.5c0.3,0,0.6,0,0.9,0
				c0.3,0,0.4,0,0.4,0.4c0,0.7,0.1,0.7-0.8,0.7c-0.2,0-0.5,0-0.7,0c-0.3,0-0.4,0.1-0.4,0.4c0,0.7,0,1.5,0,2.2c0,0.3,0.2,0.4,0.5,0.2
				c0.3-0.2,0.6-0.4,0.9-0.6c0.2-0.1,0.3-0.1,0.3,0.2c0,0,0,0,0,0c0,0.9,0,0.9-0.8,1.3c-0.2,0.1-0.4,0.2-0.6,0.3
				c-0.3,0.1-0.4,0.3-0.3,0.6c0,1.5,0,3,0,4.5c0,0.7-0.5,1.1-1.2,1.1c-0.4,0-0.9,0-1.3,0c-0.2,0-0.3-0.1-0.3-0.3c0-0.1,0-0.2,0-0.3
				c-0.1-0.5-0.1-0.5,0.4-0.5c0.2,0,0.3,0,0.5,0c0.6,0,0.8-0.2,0.8-0.7C141.2,29.4,141.2,28.8,141.2,28.3
				C141.2,28.3,141.2,28.3,141.2,28.3z"/>
			<path class="st3" d="M161.8,24.6c1.6,0,3.1,0,4.7,0c0.3,0,0.4,0.1,0.4,0.4c0,1.3,0,2.6,0,3.9c0,0.3-0.1,0.4-0.4,0.4
				c-0.7,0-0.7,0-0.7-0.8c0-0.8,0-1.6,0-2.4c0-0.3-0.1-0.4-0.4-0.4c-2.3,0-4.7,0-7,0c-0.3,0-0.4,0.1-0.4,0.4c0,1,0,2,0,3
				c0,0.2-0.1,0.3-0.3,0.3c-0.9,0-0.9,0.1-0.8-0.8c0-1.2,0-2.5,0-3.7c0-0.3,0.2-0.3,0.4-0.3C158.7,24.6,160.2,24.6,161.8,24.6
				C161.8,24.6,161.8,24.6,161.8,24.6z"/>
			<path class="st3" d="M148.4,18.3c0.8,0,1.5,0,2.3,0c0.3,0,0.4,0.1,0.4,0.4c0,0.9,0,1.9,0,2.8c0,0.4,0.3,0.7,0.7,0.7
				c0.3,0,0.6,0,0.9,0c0.2,0,0.3,0.1,0.3,0.3c0,0.8,0,0.8-0.8,0.8c-0.3,0-0.7,0-1,0c-0.8,0-1.3-0.6-1.3-1.3c0-0.7,0-1.5,0-2.2
				c0-0.3-0.1-0.4-0.4-0.4c-0.7,0-1.5,0-2.2,0c-0.3,0-0.4,0.1-0.4,0.4c0,0.9,0,1.7-0.5,2.5c-0.4,0.6-0.9,1-1.5,1.4
				c-0.1,0-0.2,0.1-0.3,0c-0.2-0.2-0.4-0.5-0.6-0.7c0,0,0.1-0.2,0.2-0.2c0.6-0.4,1.2-0.8,1.4-1.6c0.1-0.3,0.2-0.6,0.2-0.9
				c0-0.5,0-1,0-1.5c0-0.3,0.1-0.4,0.4-0.4C146.9,18.3,147.6,18.3,148.4,18.3C148.4,18.3,148.4,18.3,148.4,18.3z"/>
			<path class="st3" d="M155.1,30.9c0.2,0,0.3,0,0.4,0c0.8-0.1,1.6-0.2,2.4-0.3c0.7-0.1,1.3-0.3,1.9-0.7c0.9-0.6,1.3-1.5,1.4-2.5
				c0.1-0.3,0.1-0.6,0.1-0.9c0-0.2,0.1-0.3,0.4-0.2c0.1,0,0.2,0,0.3,0.1c0.6,0.1,0.6,0.1,0.5,0.6c-0.1,0.9-0.3,1.8-0.8,2.7
				c-0.5,1-1.4,1.4-2.3,1.8c-1.1,0.4-2.2,0.5-3.4,0.6c-0.3,0-0.5,0-0.6-0.3C155.4,31.4,155.3,31.2,155.1,30.9z"/>
			<path class="st3" d="M162.9,29.2c0.4,0.1,0.8,0.2,1.1,0.3c1.1,0.4,2.3,0.8,3.4,1.2c0.2,0.1,0.5,0.2,0.7,0.3
				c0.2,0.1,0.2,0.2,0.1,0.4c0,0,0,0,0,0.1c-0.4,0.7-0.4,0.7-1.1,0.4c-1.1-0.4-2.2-0.9-3.3-1.3c-0.4-0.1-0.8-0.2-1.2-0.4
				c-0.4-0.1-0.4-0.2-0.2-0.5c0.1-0.1,0.2-0.2,0.2-0.4C162.8,29.3,162.9,29.2,162.9,29.2z"/>
			<path class="st3" d="M155.8,24c-0.1-0.1-0.2-0.2-0.3-0.3c-0.5-0.6-0.5-0.6,0.2-1.1c0.7-0.5,1.4-1,2.1-1.6c0.2-0.2,0.3-0.2,0.5,0
				c0.5,0.6,0.5,0.6-0.1,1.1c-0.7,0.6-1.4,1.1-2.1,1.6C156,23.9,155.9,23.9,155.8,24z"/>
			<path class="st3" d="M157.8,20c-0.1,0-0.1,0-0.1-0.1c-0.8-0.3-1.5-0.7-2.2-1c-0.1,0-0.1-0.2-0.1-0.3c0.1-0.2,0.2-0.4,0.4-0.5
				c0.1-0.1,0.2-0.1,0.3-0.1c0.7,0.3,1.4,0.5,2.1,0.8c0.4,0.2,0.4,0.2,0.1,0.6c-0.1,0.1-0.2,0.3-0.3,0.4C158,19.9,157.9,20,157.8,20
				z"/>
		</g>
	</g>
</g>
</svg>
