<?xml version="1.0" encoding="utf-8"?>
<!-- Generator: Adobe Illustrator 21.1.0, SVG Export Plug-In . SVG Version: 6.00 Build 0)  -->
<svg version="1.1" id="Layer_1" xmlns="http://www.w3.org/2000/svg" xmlns:xlink="http://www.w3.org/1999/xlink" x="0px" y="0px"
	 viewBox="0 0 26 26" style="enable-background:new 0 0 26 26;" xml:space="preserve">
<style type="text/css">
	.st0{fill:#FFFFFF;}
</style>
<g>
	<g>
		<path class="st0" d="M12.1,13.4v2.2c0.7,0,2.8,0.1,2.8-1.1C14.9,13.2,12.8,13.4,12.1,13.4z M13,4.5c-4.7,0-8.5,3.8-8.5,8.5
			c0,4.7,3.8,8.5,8.5,8.5s8.5-3.8,8.5-8.5C21.5,8.3,17.7,4.5,13,4.5z M16.8,14.7c-0.1,1.6-1.3,2-3,2.1v1.6H13v-1.6
			c-0.3,0-0.5,0-0.8,0l0,1.6h-0.7l0-1.7l-1,0H9.2l0.2-1.2c0,0,1,0,1,0c0.3,0,0.4-0.2,0.4-0.3v-2.6h0.1l-0.1,0l0-1.9
			c0-0.2-0.2-0.4-0.6-0.4c0,0-1,0-1,0V9.2l1.4,0v0c0.2,0,0.7,0,0.9,0V7.6h0.8v1.6l0.8,0V7.6h0.8l0,1.6c1.3,0.1,2.4,0.5,2.5,1.7
			c0.1,0.9-0.3,1.4-0.8,1.7C16.4,12.8,16.9,13.4,16.8,14.7z M14.4,11.4c0-1.2-1.7-1-2.3-1v2C12.7,12.4,14.4,12.5,14.4,11.4z M13,0
			C5.8,0,0,5.8,0,13c0,7.2,5.8,13,13,13c7.2,0,13-5.8,13-13C26,5.8,20.2,0,13,0z M13,23C7.5,23,3,18.5,3,13C3,7.5,7.5,3,13,3
			c5.5,0,10,4.5,10,10C23,18.5,18.5,23,13,23z"/>
	</g>
</g>
</svg>
