<?xml version="1.0" encoding="utf-8"?>
<!-- Generator: Adobe Illustrator 21.1.0, SVG Export Plug-In . SVG Version: 6.00 Build 0)  -->
<svg version="1.1" id="Layer_1" xmlns:sketch="http://www.bohemiancoding.com/sketch/ns"
	 xmlns="http://www.w3.org/2000/svg" xmlns:xlink="http://www.w3.org/1999/xlink" x="0px" y="0px" viewBox="0 0 446 260"
	 style="enable-background:new 0 0 446 260;" xml:space="preserve">
<style type="text/css">
	.st0{fill:#ABB4BB;}
</style>
<path class="st0" d="M249.2,131.5c-1.3-6.2-2.2-12.5-3.7-18.6c-4.9-19.6-14.4-36.7-29.4-50.4C201.2,48.9,183.8,40.5,164,37
	c-8.7-1.6-17.5-2.2-26.4-1.8c-28.9,1.4-54,11.6-73.9,33.1c-13.6,14.7-22,32.1-25.6,51.7c-1.1,6.3-1.7,12.8-1.9,19.2
	c-0.8,19.4,3.2,37.8,12.3,54.9c14.2,26.7,36.3,43.7,65.6,51.2c5.7,1.4,11.5,2.2,17.3,3.1c3.5,0.5,5.5,2.2,5.7,5
	c0.2,3.7-1.5,5.6-5.4,6c-0.4,0-0.8,0-1.1,0c-30.3,0-60.5,0.1-90.8-0.1c-18.4-0.1-31.7-11.4-36.7-25.9c-1.7-4.8-2.1-9.9-2.1-15
	C1,159.2,1,100.1,1,40.9c0-9.6,2-18.5,8.2-26.2c7-8.6,15.9-13.6,27.1-14.4C40.1,0.1,43.9,0,47.8,0c27.6,0,55.2,0,82.9,0c0,0,0,0,0,0
	h0c30.1,0,60.3-0.1,90.4,0c8.3,0,16.1,2.2,22.9,7.2c9.2,6.8,14.7,15.8,15.7,27.3c0.3,3.2,0.4,6.5,0.4,9.8c0,27.7,0,55.4,0,83.1
	c0,1,0,2,0,3c-0.1,3.5-1.6,5.3-4.8,5.6C252.1,136.4,249.9,134.8,249.2,131.5z M88.5,184.2L88.5,184.2c0-6.5,0-13,0-19.6c0-4,2-6,6-6
	c5.3,0,10.7-0.1,16,0c12.2,0.3,19.2,7.1,21,19.3c0.8,5.5,0.7,11-0.7,16.4c-2.5,9.5-9.8,15.1-19.6,15.2c-5.6,0-11.2,0-16.7,0
	c-4.1,0-5.9-1.8-5.9-6C88.5,197.1,88.5,190.7,88.5,184.2z M99.5,198.7c0,1.2,0.3,1.7,1.6,1.7c2.9-0.1,5.8,0,8.7-0.1
	c4.8-0.2,8.2-2.7,9.7-7.2c2-5.9,1.9-11.9-0.1-17.8c-1.4-4-4.2-6.7-8.6-7.2c-3.1-0.3-6.2-0.2-9.4-0.4c-1.5-0.1-1.9,0.6-1.9,2
	c0,4.8,0,9.7,0,14.5h0v7.1C99.5,193.8,99.5,196.3,99.5,198.7z M444.2,202.4c1.4,2.6,0.7,5.7-1.5,7c-2.4,1.4-6.1,0.6-7.5-1.8
	c-2.7-4.6-5.4-9.2-7.9-13.9c-0.8-1.5-1.7-2.1-3.4-2c-2.2,0.2-4.4,0.2-6.6,0c-2-0.2-2.5,0.7-2.4,2.5c0.1,3.3-0.1,6.5,0.1,9.8
	c0.2,4.5-2.3,6-5.5,6.2c-3.4,0.2-5.5-2.3-5.6-6.2c0-1.8,0-3.5,0-5.3v-32.2c0-0.5,0-1,0-1.5c0.3-4.5,2.3-6.4,6.8-6.5
	c6,0,11.9-0.1,17.9,0c4.3,0.1,8.4,1,11.8,4c7.1,6.1,6.6,21.6-2.3,26.7c-0.5,0.2-0.8,0.5-1.4,0.9h0c2,3.3,3.9,6.5,5.9,9.8
	C443.2,200.8,443.7,201.6,444.2,202.4z M434.1,175.2c0.1-4.1-2.2-7.1-6.1-7.4c-3.9-0.3-7.8-0.3-11.6-0.4c-1.2,0-1.5,0.6-1.5,1.6
	c0,2,0,4,0,6l0,0h0c0,2,0,4,0,6c0,1.3,0.4,2,1.8,2c3.7-0.1,7.4-0.1,11.1-0.3C431.6,182.4,434.1,179.4,434.1,175.2z M394.8,200.8
	c-0.8-0.2-1.6-0.3-2.4-0.3c-6,0-11.9-0.1-17.9,0c-1.8,0-2.3-0.6-2.2-2.3c0.1-2.4,0-4.8,0-7.2c0-2.5,0-2.5,2.5-2.5
	c5.4,0,10.8,0,16.2-0.1c2.6,0,3.9-1.5,3.9-4c0-3.1-1.5-4.7-4.6-4.7c-5.3-0.1-10.5-0.1-15.8,0c-1.7,0-2.4-0.4-2.3-2.2
	c0.1-2.3,0-4.7,0-7c0-2.7,0-2.7,2.7-2.7c6.1,0,12.2,0,18.3-0.1c2.8-0.1,4.3-1.7,4.3-4.4c0-3.1-1.6-4.7-5.2-4.7c-8.2,0-16.3,0-24.5,0
	c-4.6,0-6.6,2-6.6,6.5c0,6.3,0,12.7,0,19h0c0,0,0,0,0.1,0c0,6.6,0,13.2,0,19.8c0,3.3,1.9,5.6,4.9,5.6c9.2,0.1,18.5,0.1,27.7,0
	c2.4,0,3.9-1.4,4.1-3.5C398.3,202.9,397.4,201.4,394.8,200.8z M289.9,171.5c0.6,4.2,0.5,8.5-1.6,12.5c-2.7,5-6.9,7.5-12.4,7.9
	c-4.5,0.3-9,0.1-13.5,0.1c-1.7,0-2.4,0.5-2.3,2.3c0.1,3.4,0.1,6.8,0,10.2c0,3.7-2.2,6-5.5,5.9c-3.3,0-5.5-2.4-5.5-6.1
	c0-6.5,0.1-13,0.1-19.5h0c0-6.3,0-12.5,0-18.8c0-5.1,2-7.1,7.2-7.2c5.7,0,11.4-0.2,17.1,0.1c2.9,0.1,6,0.8,8.7,1.9
	C286.8,162.5,289.2,166.6,289.9,171.5z M273,167.8c-3.8-0.4-7.6-0.3-11.4-0.4c-1.1,0-1.6,0.5-1.6,1.6c0.1,2,0.1,4.1,0.1,6.2l0,0
	c0,2.1,0,4.1,0,6.2c0,1.2,0.4,1.8,1.7,1.8c3.4-0.1,6.9,0,10.3,0c3.9-0.1,6.7-2.9,7-6.9C279.4,171.4,277.3,168.2,273,167.8z
	 M355.8,172.8c0.3,4,0,7.9-2,11.4c-2.7,4.8-6.9,7.2-12.3,7.5c-4.4,0.2-8.9,0.1-13.4,0.1c-2.3,0-2.4,0.1-2.4,2.5c0,3.5,0,6.9,0,10.4
	c0,3.2-1.8,5.1-5,5.5c-2.8,0.3-5.3-1.5-5.7-4.5c-0.3-2-0.3-4-0.3-6c-0.1-4.9-0.1-9.9-0.1-14.8h0c0-6.2,0-12.3,0-18.5
	c0-1.2,0.1-2.5,0.4-3.7c0.6-2.5,2.5-4,4.9-4c8.1,0,16.2-0.2,24.2,0.7C351,160.1,355.3,165.9,355.8,172.8z M344.7,175.9
	c0.1-4.8-1.9-7.8-5.9-8.2c-3.9-0.3-7.8-0.3-11.6-0.4c-1.2,0-1.5,0.6-1.5,1.6c0,2,0,4,0,6h0c0,2.2,0,4.4,0,6.6c0,1,0.3,1.5,1.4,1.5
	c3.8,0,7.5,0.1,11.3-0.1C342,182.9,344.6,179.8,344.7,175.9z M220.8,204.2c0.4,2.7-1,5-3.5,5.7c-2.9,0.8-5.4-0.4-6.4-3.1
	c-0.8-2.1-1.6-4.2-2.2-6.4c-0.5-1.8-1.4-2.5-3.3-2.4c-4.9,0.1-9.8,0.1-14.7,0c-1.4,0-2.2,0.5-2.6,1.8c-0.7,2.3-1.6,4.6-2.4,6.9
	c-1.1,3.2-3.6,3.9-6.9,3.1c-2.5-0.6-3.7-3.4-2.7-6.3c3.2-9,6.5-18,9.8-27c1.4-3.9,2.8-7.8,4.3-11.6c1.6-4.1,4.5-6.1,9.4-6.1h0
	c2.7,0.1,5.5,1.6,6.8,5c1.9,4.6,3.5,9.4,5.2,14.1c2.8,7.8,5.5,15.6,8.2,23.4C220.3,202.1,220.6,203.1,220.8,204.2z M205,189.3
	c-2.2-6.3-4.2-12.3-6.3-18.4c-0.2,0-0.4,0-0.6,0.1c-2.1,6-4.2,12-6.3,18.2l0,0H205z M167.1,200.5c-5.4,0-10.8-0.1-16.2,0
	c-1.7,0.1-2.1-0.5-2.1-2.1c0-10.8,0-21.6,0-32.4c0-0.9,0-1.7-0.2-2.6c-0.6-3.3-2.9-5.1-6.1-4.7c-3.1,0.3-4.7,2.3-4.7,5.7
	c0,6.5,0,13,0,19.6c0,0,0,0,0,0c0,6.8-0.1,13.7,0,20.5c0,3.1,1.8,5.1,4.6,5.1c8.6,0.1,17.2,0.1,25.8,0c2.4,0,3.9-1.7,4-4.1
	C172.3,202.1,170.7,200.5,167.1,200.5z M301.2,158.6c-3.4,0-5.4,2.3-5.5,6c0,6.6,0,13.2,0,19.7h0c0,6.7,0,13.4,0,20.1
	c0,4,2.5,5.6,5.5,5.7c3.3,0.1,5.5-2.3,5.5-5.8c0-13.3,0-26.6,0-39.9C306.7,160.8,304.6,158.6,301.2,158.6z"/>
</svg>
