<?xml version="1.0" encoding="utf-8"?>
<!-- Generator: Adobe Illustrator 21.1.0, SVG Export Plug-In . SVG Version: 6.00 Build 0)  -->
<svg version="1.1" id="Layer_1" xmlns="http://www.w3.org/2000/svg" xmlns:xlink="http://www.w3.org/1999/xlink" x="0px" y="0px"
	 viewBox="0 0 176 130.2" style="enable-background:new 0 0 176 130.2;" xml:space="preserve">
<style type="text/css">
	.st0{fill:none;stroke:#A7B3C4;stroke-width:2.5;stroke-linecap:round;stroke-miterlimit:10;}
</style>
<g id="_x35_Vu067.tif_1_">
	<g>
		<path class="st0" d="M1,129.2c3.7-1,7.4-1.6,11.2-2c7.5-0.8,15.1-0.8,22.6-0.7c7.7,0.1,15.5,0.2,23.2,0.1c6-0.1,11.9-0.8,17.7-2.2
			c10.4-2.5,19.2-7.6,25.6-16.2c2.9-3.8,5-8.1,6.5-12.6c2.6-7.3,3.7-14.9,5-22.5c1-6,1.9-12,3.6-17.8c1.5-5.3,3.5-10.4,6.1-15.3
			c4.8-9,11.2-16.8,19.1-23.3c7.3-5.9,15.4-10.5,24.4-13.4C169,2.4,172,1.8,175,1"/>
	</g>
</g>
</svg>
