<?xml version="1.0" encoding="utf-8"?>
<!-- Generator: Adobe Illustrator 21.1.0, SVG Export Plug-In . SVG Version: 6.00 Build 0)  -->
<svg version="1.1" id="Layer_1" xmlns="http://www.w3.org/2000/svg" xmlns:xlink="http://www.w3.org/1999/xlink" x="0px" y="0px"
	 viewBox="0 0 180.1 72.3" style="enable-background:new 0 0 180.1 72.3;" xml:space="preserve">
<style type="text/css">
	.st0{fill:none;stroke:#3434BA;stroke-width:2.5;stroke-linecap:round;stroke-miterlimit:10;}
</style>
<g id="tUo831.tif">
	<g>
		<path class="st0" d="M1.6,14.3c2.3-1.2,4.7-2.4,7-3.5c2.9-1.3,5.8-2.6,8.7-3.9c3.7-1.6,7.6-2.8,11.5-3.8C33.4,2,38,1.5,42.6,1.6
			c4.7,0.2,9.2,1.2,13.5,3.2C63.1,8,68.7,13,72.9,19.5c2.2,3.4,4.2,7,6,10.6c2.3,4.6,4.5,9.2,7.1,13.5c3.5,5.7,7.8,10.6,13,14.8
			c6.1,4.9,13,8.4,20.6,10.4c7.5,2,15,2.5,22.6,1.3c11.4-1.7,21.5-6.4,30-14.3c2.3-2.1,4.3-4.4,6.2-6.8"/>
	</g>
</g>
</svg>
