<?xml version="1.0" encoding="utf-8"?>
<!-- Generator: Adobe Illustrator 21.1.0, SVG Export Plug-In . SVG Version: 6.00 Build 0)  -->
<svg version="1.1" id="Layer_1" xmlns="http://www.w3.org/2000/svg" xmlns:xlink="http://www.w3.org/1999/xlink" x="0px" y="0px"
	 viewBox="0 0 121.7 19" style="enable-background:new 0 0 121.7 19;" xml:space="preserve">
<style type="text/css">
	.st0{fill:#ABB4BB;}
</style>
<path class="st0" d="M10.1,8.1l-9.5,7.5c-1.5-3-0.2-6.6,2.8-8C4.2,7.2,5.1,7,6.1,7c0.5-4.4,4.5-7.5,8.9-6.9c3.2,0.4,5.8,2.6,6.7,5.7
	C22.5,5.3,23.5,5,24.5,5c1.2,0,2.2,0.4,3.1,1l-6.2,6.2c-0.3-0.1-0.6-0.2-0.9-0.2c-0.4,0-0.7,0.1-1.1,0.2l-4.5-4
	c0.4-1.3-0.3-2.7-1.6-3.1c-1.3-0.4-2.7,0.3-3.1,1.6C10,7.2,10,7.7,10.1,8.1z M30,10.3c0-1-0.4-2-1-2.9l-6.2,6.2
	c0.2,0.5,0.2,1.1,0.1,1.7c-0.4,1.3-1.8,2-3.1,1.6c-1.3-0.4-2-1.8-1.6-3.1l-4.6-4c-0.3,0.2-0.7,0.2-1.1,0.2c-0.4,0-0.8-0.1-1.2-0.3
	l-9.5,7.6C2.9,18.4,4.4,19,6,19h22.5c1.9,0,3.6-1.2,4.2-3C33.6,13.7,32.3,11.1,30,10.3z M45.8,3.4h-8.9v1.7h3.4v9h1.9v-9h3.6V3.4z
	 M47.2,7V6.3h-1.8v7.8h1.8V9.6c0-0.6,0.2-1,0.5-1.4c0.3-0.4,0.7-0.6,1.1-0.6c0.4,0,0.8,0.1,1.1,0.3l0.8-1.6
	c-0.3-0.2-0.8-0.3-1.4-0.3C48.4,6.1,47.7,6.4,47.2,7z M57.9,13.7c-0.2,0.3-0.3,0.4-0.5,0.5c-0.2,0.1-0.4,0.1-0.6,0.1
	c-0.3,0-0.5-0.1-0.7-0.3c-0.2-0.2-0.4-0.4-0.4-0.6c-0.2,0.3-0.5,0.5-0.9,0.7c-0.4,0.2-0.8,0.3-1.3,0.3c-0.8,0-1.5-0.2-2-0.6
	c-0.5-0.4-0.7-1-0.7-1.8c0-0.9,0.3-1.6,1-2.1c0.7-0.5,1.6-0.8,2.9-0.8c0.2,0,0.5,0,0.8,0.1c0-0.9-0.6-1.4-1.8-1.4
	C53,7.6,52.5,7.8,52,8l-0.4-1.4c0.6-0.3,1.4-0.5,2.2-0.5c1.2,0,2.1,0.3,2.6,0.8c0.6,0.5,0.8,1.6,0.8,3.1v1.7
	C57.3,12.8,57.5,13.4,57.9,13.7z M55.5,10.4c-0.3-0.1-0.5-0.1-0.7-0.1c-1.4,0-2.2,0.5-2.2,1.4c0,0.7,0.4,1.1,1.2,1.1
	c1.1,0,1.6-0.5,1.6-1.6V10.4z M64.3,3.3l1.8-0.4v11.2h-1.8v-0.5c-0.2,0.2-0.4,0.3-0.8,0.4c-0.4,0.1-0.7,0.2-1.1,0.2
	c-1.1,0-2-0.3-2.6-1c-0.6-0.7-0.9-1.7-0.9-2.9s0.4-2.2,1.1-3c0.7-0.8,1.6-1.2,2.7-1.2c0.6,0,1.1,0.1,1.6,0.4V3.3z M64.3,8.1
	c-0.4-0.3-0.8-0.5-1.2-0.5c-0.7,0-1.3,0.2-1.7,0.7c-0.4,0.4-0.6,1.1-0.6,1.9c0,1.6,0.8,2.4,2.4,2.4c0.2,0,0.4-0.1,0.6-0.2
	c0.3-0.1,0.4-0.2,0.5-0.3V8.1z M67.5,7.8h1v6.3h1.9V6.3h-2.9V7.8z M69.4,3.2c-0.3,0-0.5,0.1-0.8,0.3c-0.2,0.2-0.3,0.5-0.3,0.8
	s0.1,0.5,0.3,0.8c0.2,0.2,0.5,0.3,0.8,0.3S70,5.2,70.2,5c0.2-0.2,0.3-0.5,0.3-0.8s-0.1-0.5-0.3-0.8C70,3.3,69.7,3.2,69.4,3.2z
	 M76.3,6.1c-1,0-1.7,0.3-2.2,0.9l-0.3-0.7h-1.3v7.8h1.8V8.4C74.5,8.2,74.7,8,75,7.9c0.3-0.2,0.6-0.2,0.9-0.2c0.6,0,1,0.2,1.3,0.5
	c0.3,0.3,0.4,0.8,0.4,1.5v4.5h1.8V9.3c0-1-0.3-1.8-0.8-2.3C78,6.4,77.3,6.1,76.3,6.1z M87.7,6.8l-0.9,0.6c0.3,0.5,0.5,1,0.5,1.6
	c0,0.9-0.3,1.6-0.8,2.1c-0.5,0.5-1.2,0.8-2.1,0.8c-0.1,0-0.3,0-0.5,0l-0.3,0c0,0-0.2,0.1-0.4,0.2c-0.2,0.1-0.3,0.2-0.3,0.3
	c0,0.2,0.2,0.3,0.5,0.3c0.2,0,0.4,0,0.8-0.1c0.4-0.1,0.7-0.1,0.9-0.1c1.8,0,2.7,0.7,2.7,2.1c0,0.8-0.4,1.4-1.1,1.9
	C85.9,17,85,17.2,84,17.2c-1.2,0-2.3-0.4-3.3-1.1l1.2-1.4c0.6,0.6,1.4,0.9,2.1,0.9c0.5,0,1-0.1,1.3-0.2s0.5-0.4,0.5-0.6
	c0-0.5-0.4-0.7-1.1-0.7c-0.2,0-0.5,0-0.9,0.1c-0.4,0-0.7,0.1-0.9,0.1c-1.3,0-1.9-0.5-1.9-1.4c0-0.3,0.1-0.5,0.3-0.8
	c0.2-0.2,0.5-0.4,0.7-0.5c-0.9-0.6-1.3-1.4-1.3-2.5c0-0.8,0.3-1.5,0.9-2.1c0.6-0.5,1.4-0.8,2.3-0.8c0.7,0,1.3,0.1,1.8,0.4l0.7-0.8
	L87.7,6.8z M85.4,9c0-0.4-0.1-0.7-0.4-1c-0.3-0.3-0.6-0.4-1-0.4c-0.4,0-0.8,0.1-1,0.4c-0.3,0.3-0.4,0.6-0.4,1c0,0.5,0.1,0.8,0.4,1.1
	c0.3,0.3,0.6,0.4,1,0.4s0.8-0.1,1-0.4C85.2,9.9,85.4,9.5,85.4,9z M92.5,10.6L90,3.4h-2.1l4,10.9h1l4.2-10.9h-2.1L92.5,10.6z
	 M97.4,7.8h1v6.3h1.9V6.3h-2.9V7.8z M99.4,3.2c-0.3,0-0.5,0.1-0.8,0.3c-0.2,0.2-0.3,0.5-0.3,0.8s0.1,0.5,0.3,0.8
	c0.2,0.2,0.5,0.3,0.8,0.3s0.5-0.1,0.8-0.3c0.2-0.2,0.3-0.5,0.3-0.8s-0.1-0.5-0.3-0.8C99.9,3.3,99.6,3.2,99.4,3.2z M108.5,7.1
	c0.7,0.7,1,1.5,1,2.6c0,0.2-0.1,0.6-0.2,1h-5.6c0,0.6,0.2,1.1,0.6,1.5s0.9,0.5,1.6,0.5c0.8,0,1.5-0.2,1.9-0.7l0.7,1.4
	c-0.6,0.5-1.6,0.8-2.9,0.8c-1.2,0-2.1-0.4-2.8-1.1c-0.7-0.7-1-1.7-1-2.9c0-1.2,0.4-2.2,1.1-3c0.8-0.8,1.7-1.1,2.8-1.1
	C106.9,6.1,107.8,6.5,108.5,7.1z M107.7,9.4c-0.1-1.1-0.8-1.7-1.9-1.7c-1,0-1.7,0.6-1.9,1.7H107.7z M119.9,6.3l-1.7,4.7l-2-4.7h-0.7
	l-1.9,4.7L112,6.3h-1.9l3,8h0.7l2.1-4.8l2.2,4.8h0.7l3-8H119.9z"/>
</svg>
