<?xml version="1.0" encoding="utf-8"?>
<!-- Generator: Adobe Illustrator 21.1.0, SVG Export Plug-In . SVG Version: 6.00 Build 0)  -->
<svg version="1.1" id="Layer_1" xmlns="http://www.w3.org/2000/svg" xmlns:xlink="http://www.w3.org/1999/xlink" x="0px" y="0px"
	 viewBox="0 0 256 30.7" style="enable-background:new 0 0 256 30.7;" xml:space="preserve">
<style type="text/css">
	.st0{fill:#A8B4BB;}
</style>
<g id="_x30_BPJFF.tif">
	<g>
		<path class="st0" d="M256,30.5c-0.2-0.1-0.3-0.2-0.5-0.3c-1.6-1.4-3.2-2.9-4.8-4.3c-2-1.8-4.1-3.6-6.1-5.5c-1.1-1-2.3-2.1-3.4-3.1
			c-1.6-1.4-3.2-2.9-4.8-4.3c-1-0.9-1.9-1.7-2.9-2.6c-0.8-0.7-1.6-1.5-2.5-2.2c-0.4-0.3-0.5-0.6-0.5-1.1c0-2,0-4,0-6
			c0-0.2,0.1-0.4,0.2-0.6c0.2,0.1,0.4,0.2,0.6,0.3c2.1,1.9,4.2,3.7,6.3,5.6c1.6,1.5,3.3,3,4.9,4.4c1.6,1.5,3.2,2.9,4.9,4.4
			c0.9,0.8,1.8,1.7,2.8,2.5c0.1,0.1,0.2,0.2,0.3,0.2c0.3,0.2,0.5,0.1,0.6-0.3c0-0.2,0-0.5,0-0.8c0-5.3,0-10.6,0-15.8c0-1,0-1,1-1
			c1.1,0,2.2,0,3.2,0c0.3,0,0.6,0,0.8,0.2C256,10.4,256,20.5,256,30.5z"/>
		<path class="st0" d="M0,29.3c0.5-1.2,1.4-2.3,2.1-3.4C3.1,24.5,4,23,5,21.6c0.8-1.2,0.6-0.9,1.8-1c1.5,0,3.1-0.1,4.6-0.1
			c0.1,0,0.2,0,0.3,0c0.2,0,0.4,0.1,0.6,0.1c-0.1,0.2-0.1,0.4-0.2,0.5c-0.4,0.6-0.8,1.1-1.1,1.7c-0.5,0.7-0.9,1.4-1.4,2.1
			c-0.1,0.2-0.2,0.4-0.3,0.6c0.2,0,0.4,0.1,0.7,0.1c0.2,0,0.4,0,0.6,0c2.9,0,5.9,0,8.8,0c0.5,0,0.8,0.1,1.2,0.4
			c0.8,0.8,1.7,1.5,2.5,2.3c0.5,0.5,1,1,1.6,1.4c0.2,0.1,0.3,0.3,0.4,0.4c0.1,0.2,0.1,0.3-0.1,0.4c-0.2,0-0.4,0.1-0.5,0.1
			c-7.7,0-15.5,0-23.2,0c-0.7,0-1-0.3-1.3-0.8C0,29.7,0,29.5,0,29.3z"/>
		<path class="st0" d="M176.7,15.4C176.5,7.4,183.4,0,192,0c8.2,0,15.4,7,15.4,15.3c0,8.4-7.3,15.4-15.4,15.4
			C183.6,30.7,176.5,23.5,176.7,15.4z M181.8,15.3c-0.2,5.6,4.5,10.3,10.2,10.3c5.5,0,10.3-4.3,10.3-10.2c0-5.9-4.9-10.3-10.3-10.4
			C186.2,5,181.5,10.1,181.8,15.3z"/>
		<path class="st0" d="M103.5,0c1.9,0,3.9,0,5.8,0c1.5,0,3,0.2,4.3,0.9c1.4,0.6,2.6,1.6,3.6,2.7c1.8,2.1,2.5,4.5,2.4,7.3
			c-0.1,2.3-1,4.3-2.5,6c-0.9,1-1.9,1.8-3.1,2.4c-0.6,0.3-0.6,0.4-0.3,1c0.8,1.4,1.6,2.8,2.4,4.2c1,1.7,2,3.5,3,5.2
			c0,0.1,0.1,0.2,0.1,0.2c0.2,0.5,0.1,0.6-0.4,0.6c-1.5,0-3,0-4.5,0c-0.4,0-0.6-0.1-0.8-0.5c-1.6-2.7-3.1-5.4-4.7-8.2
			c-1.1-1.9-2.2-3.8-3.3-5.7c-0.1-0.2-0.4-0.6-0.3-0.8c0.1-0.3,0.5-0.2,0.8-0.2c1.1,0,2.2,0,3.2,0c2.2-0.1,3.8-1.1,4.8-3
			c1-2.2,0.5-4.7-1.5-6.2c-1-0.8-2.1-1.1-3.3-1.1c-3.1,0-6.2,0-9.3,0c-0.7,0-1.1-0.2-1.5-0.9c-0.6-1.1-1.2-2.1-1.8-3.2
			c-0.1-0.2-0.2-0.3-0.3-0.5C96.2,0.2,96.3,0,96.7,0c0.7,0,1.4,0,2.1,0C100.4,0,101.9,0,103.5,0z"/>
		<path class="st0" d="M12.6,0c3.7,0,7.5,0,11.2,0c0.2,0,0.4,0,0.6,0c0.9-0.1,1.1,0.7,0.9,1.3c-0.1,0.2-0.2,0.3-0.3,0.5
			c-1.8,2.7-3.5,5.3-5.3,8c-0.2,0.4-0.5,0.5-1,0.5c-1.8-0.1-3.6-0.1-5.4-0.1c0,0-0.1,0-0.1,0c-0.3,0-0.3-0.1-0.2-0.3
			c0.3-0.5,0.6-1,1-1.4c0.6-0.9,1.3-1.9,1.9-2.8c0.3-0.4,0.2-0.5-0.3-0.5c-0.8,0-1.7,0-2.5,0c-2.5,0-5,0-7.6,0c-0.6,0-1-0.2-1.4-0.6
			C3,3.2,1.7,1.9,0.5,0.7C0.4,0.6,0.3,0.5,0.3,0.4C0.1,0.2,0.2,0.1,0.5,0c0.2,0,0.5,0,0.7,0C4.9,0,8.7,0,12.6,0z"/>
		<path class="st0" d="M148.3,15.3c0-4.6,0-9.2,0-13.8c0-0.3,0-0.5,0-0.8c0-0.2,0.2-0.3,0.4-0.1c0.1,0.1,0.2,0.2,0.4,0.3
			c1.3,1.3,2.5,2.5,3.8,3.8c0.3,0.3,0.5,0.7,0.5,1.2c0,4.3,0,8.5,0,12.8c0,2.1,0,4.2,0,6.3c0,0.5-0.1,0.8-0.5,1.2
			c-1.3,1.3-2.5,2.5-3.8,3.8c-0.1,0.1-0.1,0.1-0.2,0.2c-0.1,0.1-0.3,0.2-0.3,0.2c-0.1-0.1-0.2-0.2-0.2-0.4c0-0.2,0-0.4,0-0.6
			C148.3,24.5,148.3,19.9,148.3,15.3z"/>
		<path class="st0" d="M62.2,30.7c-3,0-6.1,0-9.1,0c-0.2,0-0.5,0-0.7,0c-0.3,0-0.4-0.2-0.2-0.5c0.4-0.5,0.9-0.9,1.4-1.3
			c1-0.9,2-1.8,2.9-2.7c0.4-0.3,0.7-0.5,1.2-0.5c4.6,0,9.2,0,13.8,0c0.1,0,0.3,0,0.4,0c0.3,0,0.5,0.2,0.5,0.5c0,1.4,0,2.7,0,4.1
			c0,0.4-0.1,0.5-0.5,0.5c-0.2,0-0.4,0-0.5,0C68.3,30.7,65.2,30.7,62.2,30.7z"/>
		<path class="st0" d="M62.4,0c3,0,5.9,0,8.9,0c0.2,0,0.4,0,0.5,0c0.4,0,0.5,0.1,0.5,0.5c0,1.3,0,2.7,0,4c0,0.4-0.1,0.5-0.5,0.5
			c-0.2,0-0.4,0-0.5,0c-4.5,0-8.9,0-13.4,0c-0.6,0-1-0.1-1.5-0.6C55.3,3.2,54,2,52.8,0.7c-0.1-0.1-0.2-0.2-0.2-0.3
			c-0.1-0.2,0-0.3,0.2-0.4c0.2,0,0.5,0,0.7,0C56.4,0,59.4,0,62.4,0z"/>
		<path class="st0" d="M62.8,12.8c1.6,0,3.2,0,4.8,0c0.2,0,0.4,0,0.5,0c0.2,0,0.4,0.1,0.4,0.4c0,0.1,0,0.2,0,0.3c0,1.2,0,2.4,0,3.6
			c0,0.7,0,0.7-0.7,0.7c-3.3,0-6.7,0-10,0c-0.6,0-0.7,0-0.7-0.7c0-1.2,0-2.5,0-3.7c0-0.6,0-0.6,0.7-0.7
			C59.5,12.8,61.1,12.8,62.8,12.8z"/>
	</g>
</g>
</svg>
