<?xml version="1.0" encoding="utf-8"?>
<!-- Generator: Adobe Illustrator 21.1.0, SVG Export Plug-In . SVG Version: 6.00 Build 0)  -->
<svg version="1.1" id="Layer_1" xmlns="http://www.w3.org/2000/svg" xmlns:xlink="http://www.w3.org/1999/xlink" x="0px" y="0px"
	 viewBox="0 0 142 88.3" style="enable-background:new 0 0 142 88.3;" xml:space="preserve">
<style type="text/css">
	.st0{fill:#ABB4BB;}
</style>
<g>
	<path class="st0" d="M22.9,0v4.3h-8.3V26H8.3V4.3H0V0H22.9z"/>
	<path class="st0" d="M45.6,26V15.1H33.2V26h-6.3V0h6.3v10.5h12.4V0h6.3v26H45.6z"/>
	<path class="st0" d="M58,0h23.5v4.3H64.3v6.3h16.6V15H64.3v6.7h17.3V26H58V0z"/>
	<path class="st0" d="M22.9,30.9v4.3h-8.3v21.7H8.3V35.3H0v-4.3H22.9z"/>
	<path class="st0" d="M39.3,57.4c-2.3,0-4.3-0.4-6.1-1.1c-1.8-0.7-3.3-1.7-4.5-3c-1.2-1.2-2.1-2.7-2.8-4.3c-0.6-1.6-1-3.3-1-5.1
		c0-1.8,0.3-3.5,1-5.1c0.6-1.6,1.6-3.1,2.8-4.3c1.2-1.2,2.7-2.2,4.5-3c1.8-0.7,3.8-1.1,6.1-1.1c2.3,0,4.3,0.4,6.1,1.1
		c1.8,0.7,3.3,1.7,4.5,3c1.2,1.2,2.1,2.7,2.8,4.3c0.6,1.6,1,3.3,1,5.1c0,1.8-0.3,3.5-1,5.1c-0.6,1.6-1.6,3.1-2.8,4.3
		c-1.2,1.2-2.7,2.2-4.5,3C43.6,57,41.6,57.4,39.3,57.4z M39.3,55.2c1.8,0,3.4-0.3,4.8-0.9c1.4-0.6,2.6-1.4,3.6-2.4
		c1-1,1.7-2.2,2.2-3.6c0.5-1.4,0.7-2.8,0.7-4.4c0-1.5-0.2-3-0.7-4.4c-0.5-1.4-1.2-2.6-2.2-3.6c-1-1-2.2-1.8-3.6-2.4
		c-1.4-0.6-3-0.9-4.8-0.9c-1.8,0-3.4,0.3-4.8,0.9c-1.4,0.6-2.6,1.4-3.5,2.4c-1,1-1.7,2.2-2.2,3.6c-0.5,1.4-0.8,2.8-0.8,4.4
		c0,1.6,0.3,3,0.8,4.4c0.5,1.4,1.2,2.6,2.2,3.6c1,1,2.1,1.8,3.5,2.4C35.9,54.9,37.5,55.2,39.3,55.2z"/>
	<path class="st0" d="M58,56.9v-26h6.3v12.5l10.4-12.5H82l-11,12.9l11.8,13.2h-7.8L64.3,44.2v12.8H58z"/>
	<path class="st0" d="M136,56.9l-14-17v17h-6v-26h6l14,17v-17h6v26H136z"/>
	<path class="st0" d="M4.1,87.9v-26h17.6v4.3H10.4v7h10.7v4.3H10.4v10.4H4.1z"/>
	<path class="st0" d="M45.6,61.8h6.4v16.6c0,1.5-0.3,2.8-0.9,4c-0.6,1.2-1.4,2.2-2.5,3.1c-1.1,0.9-2.4,1.5-3.9,2
		c-1.6,0.5-3.3,0.7-5.3,0.7c-2,0-3.7-0.2-5.3-0.7c-1.5-0.5-2.9-1.1-3.9-2c-1.1-0.9-1.9-1.9-2.5-3.1c-0.6-1.2-0.9-2.6-0.9-4V61.8h6.4
		v16.9c0,1.6,0.5,2.9,1.5,3.9c1,0.9,2.6,1.4,4.6,1.4c2,0,3.6-0.5,4.6-1.4c1-0.9,1.5-2.2,1.5-3.9V61.8z"/>
	<path class="st0" d="M77,87.9l-13.3-17v17H58v-26h5.7l13.3,17v-17h5.7v26H77z"/>
	<path class="st0" d="M87.2,30.9h23.5v4.3H93.5v6.3h16.6v4.3H93.5v6.7h17.3v4.3H87.2V30.9z"/>
	<path class="st0" d="M87.2,61.8v25.9v0.1h12.7c7.2,0,13-5.8,13-13v0c0-7.2-5.8-13-13-13H87.2z M93.1,82.7V67h5.7
		c4.3,0,7.8,3.5,7.8,7.8v0c0,4.3-3.5,7.8-7.8,7.8H93.1z"/>
</g>
</svg>
