<?xml version="1.0" encoding="utf-8"?>
<!-- Generator: Adobe Illustrator 21.1.0, SVG Export Plug-In . SVG Version: 6.00 Build 0)  -->
<svg version="1.1" id="Layer_1" xmlns="http://www.w3.org/2000/svg" xmlns:xlink="http://www.w3.org/1999/xlink" x="0px" y="0px"
	 viewBox="0 0 2500 624" style="enable-background:new 0 0 2500 624;" xml:space="preserve">
<style type="text/css">
	.st0{fill:#ABB4BB;}
</style>
<title>bancor</title>
<path class="st0" d="M184.2,0L39.1,85l145.1,85L332,85L184.2,0z M208,453.9v170l197.1-112.4V341.5L208,453.9z M355.9,138.5v170.1
	l-147.8,85V223.5L355.9,138.5z M0,308.6l147.8,85V223.5L0,138.5V308.6z M0,539l147.8,85v-170L0,368.9V539L0,539z M915.6,233v-8.3
	c0-24.9-13.6-38.6-38.1-38.6H755v85.6h122.6C902,271.7,915.6,257.9,915.6,233L915.6,233z M1005.5,373.9v35.9
	c0,66.3-32.7,99.4-98,99.4H700.6c-7.1,0.4-13.2-5.1-13.6-12.3c0-0.5,0-1,0-1.5v-359c-0.5-7.1,4.9-13.3,12.1-13.8c0.5,0,1,0,1.5,0
	h185.1c65.3,0,98,33.1,98,99.4V233c0,52.5-38.1,63.5-38.1,63.5v2.8C945.5,299.3,1005.5,310.4,1005.5,373.9z M937.4,407v-33.1
	c0-24.9-13.6-38.6-38.1-38.6H755v110.5h144.3C923.8,445.7,937.4,431.9,937.4,407L937.4,407z M1198.7,459.5
	c27.2,0,46.3-19.3,46.3-46.9v-19.3h-89.8c-19.1,0-30,11.1-30,30.4v5.5c0,19.3,10.9,30.4,30,30.4L1198.7,459.5L1198.7,459.5z
	 M1304.9,310.4v185.1c0.5,7.1-4.9,13.3-12.1,13.8c-0.5,0-1,0-1.5,0h-32.7c-7.1,0.4-13.2-5.1-13.6-12.3c0-0.5,0-1,0-1.5v-13.8h-2.7
	c0,0-13.6,33.1-54.5,33.1H1147c-54.4,0-81.7-27.6-81.7-82.8v-8.3c0-55.2,27.2-82.8,81.7-82.8h98v-27.5c0-22.1-13.6-35.9-35.4-35.9
	h-38.1c-19.1,0-30,11.1-30,30.4c0.5,7.1-4.9,13.3-12.1,13.8c-0.5,0-1,0-1.5,0h-32.6c-7.1,0.4-13.2-5.1-13.6-12.3c0-0.5,0-1,0-1.5
	c0-55.2,30-85.6,87.1-85.6h49c57.2,0,87.1,30.4,87.1,88.4L1304.9,310.4z M1628.9,310.4c0-58-30-88.4-87.1-88.4h-43.5
	c-40.8,0-54.5,33.1-54.5,33.1h-2.7v-13.9c0.5-7.1-4.9-13.3-12.1-13.8c-0.5,0-1,0-1.5,0h-32.7c-7.1-0.4-13.2,5.1-13.6,12.3
	c0,0.5,0,1,0,1.5v254c-0.5,7.1,4.9,13.3,12.1,13.8c0.5,0,1,0,1.5,0h32.7c7.1,0.4,13.2-5.1,13.6-12.3c0-0.5,0-1,0-1.5V324.2
	c0-27.5,19.1-46.9,46.3-46.9h46.3c21.8,0,35.4,13.8,35.4,35.9v182.2c-0.5,7.1,4.9,13.3,12.1,13.8c0.5,0,1,0,1.5,0h32.7
	c7.1,0.4,13.2-5.1,13.6-12.3c0-0.5,0-1,0-1.5V310.2L1628.9,310.4z M1890.2,423.6c0,22.1-13.6,35.9-35.4,35.9h-57.2
	c-21.8,0-35.4-13.8-35.4-35.9V313.1c0-22.1,13.6-35.9,35.4-35.9h57.2c21.8,0,35.4,13.8,35.4,35.9v8.3c-0.5,7.1,4.9,13.3,12.1,13.8
	c0.5,0,1,0,1.5,0h32.7c7.1,0.4,13.2-5.1,13.6-12.3c0-0.5,0-1,0-1.5v-11.1c0-58-30-88.4-87.1-88.4h-73.5c-57.2,0-87.1,30.4-87.1,88.4
	v116c0,58,30,88.4,87.1,88.4h73.5c57.2,0,87.1-30.4,87.1-88.4v-11.1c0.5-7.1-4.9-13.3-12.1-13.8c-0.5,0-1,0-1.5,0h-32.7
	c-7.1-0.4-13.2,5.1-13.6,12.3c0,0.5,0,1,0,1.5v8.3V423.6z M2075.3,313.2v110.5c0,22.1,13.6,35.9,35.4,35.9h62.5
	c21.8,0,35.4-13.8,35.4-35.9V313.1c0-22.1-13.6-35.9-35.4-35.9h-62.5C2088.9,277.2,2075.3,291,2075.3,313.2L2075.3,313.2z
	 M2015.4,426.4v-116c0-58,30-88.4,87.1-88.4h78.9c57.1,0,87.1,30.4,87.1,88.4v116c0,58-30,88.4-87.1,88.4h-79
	C2045.4,514.7,2015.4,484.3,2015.4,426.4L2015.4,426.4z M2459.2,222c-40.8,0-54.5,33.1-54.5,33.1h-2.7v-13.9
	c0.5-7.1-4.9-13.3-12.1-13.8c-0.5,0-1,0-1.5,0h-32.6c-7.1-0.4-13.2,5.1-13.6,12.3c0,0.5,0,1,0,1.5v254c-0.5,7.1,4.9,13.3,12.1,13.8
	c0.5,0,1,0,1.5,0h32.7c7.1,0.4,13.2-5.1,13.6-12.3c0-0.5,0-1,0-1.5V326.9c0-27.5,19.1-46.9,46.3-46.9h38.1
	c7.1,0.4,13.2-5.1,13.6-12.3c0-0.5,0-1,0-1.5v-30.4c0.5-7.1-4.9-13.3-12.1-13.8c-0.5,0-1,0-1.5,0L2459.2,222L2459.2,222z"/>
</svg>
