<?xml version="1.0" encoding="utf-8"?>
<!-- Generator: Adobe Illustrator 21.1.0, SVG Export Plug-In . SVG Version: 6.00 Build 0)  -->
<svg version="1.1" id="Layer_1" xmlns="http://www.w3.org/2000/svg" xmlns:xlink="http://www.w3.org/1999/xlink" x="0px" y="0px"
	 viewBox="0 0 340 218.6" style="enable-background:new 0 0 340 218.6;" xml:space="preserve">
<style type="text/css">
	.st0{fill:#ABB4BB;}
</style>
<path class="st0" d="M109,42.5c0-2.6,0-5.1,0-7.7c0-0.9,0.6-1.5,1.5-1.6c0.4-0.1,0.7,0,1.1,0c5.5,0,11,0,16.5,0c0.2,0,0.5,0,0.7,0
	c1.6,0,2.2-0.6,2.2-2.2c0-5,0-10.1,0-15.1c0-0.9,0-1.8,0-2.6c0-1.5,0.6-2.1,2.2-2.1c2.1,0,4.2,0,6.3,0c0.3,0,0.5,0,0.8,0
	c1.1-0.1,1.7-0.7,1.8-1.8c0-0.7,0-1.5,0-2.2c0-1.6,0.1-3.1,0-4.7c-0.1-1.1,0.2-1.8,1.2-2.3c17.6,0,35.3,0,52.9,0
	c1,0.6,1.2,1.6,1.2,2.7c-0.1,2.1,0,4.2,0,6.3c0,1.4,0.8,2.1,2.1,2.1c2.3,0,4.7,0,7,0c1.2,0,1.9,0.6,1.9,1.9c0,0.3,0,0.5,0,0.8
	c0,4.4,0,8.8,0,13.2c0,1.4,0,2.7,0,4.1c0,1.5,0.6,2.1,2.2,2.1c5.8,0,11.5,0,17.3,0c2.1,0,2.6,0.5,2.6,2.6c0,2.1,0,4.2,0,6.3
	c0,1.5-0.6,2.1-2.2,2.1c-8.8,0-17.7,0-26.5,0c-30,0-60,0-89.9,0c-0.4,0-0.7,0-1.1,0C109.7,44.1,109,43.4,109,42.5z M36.5,196.9
	c0,0.8,0,1.6,0,2.4c0.3,0.1,0.5,0.1,0.8,0.2c0.9,0.2,1,0.2,1,1.1c0,3.7,0,7.4,0,11.1c0,2.5-1.4,3.9-3.9,4c-3,0.1-4.5-1.2-4.5-4.2
	c0-0.1,0-0.1,0-0.2c0-3.5,0-7,0-10.5c0-1.1,0-1.1,1.2-1.4c0.2,0,0.4-0.1,0.6-0.1c0-0.9,0-1.7,0-2.5c-1.4-0.2-7.4-0.1-8.1,0.1
	c0,0.8,0,1.7,0,2.5c0.4,0.1,0.7,0.2,1,0.2c0.6,0.1,0.8,0.4,0.8,1c0,0.2,0,0.5,0,0.7c0,3.2,0,6.5,0,9.7c0,0.6,0,1.1,0,1.7
	c0.3,3.2,1.7,5.2,4.9,5.8c0.1,0,0.2,0.1,0.4,0.2c1.8,0,3.5,0,5.3,0c0.7-0.2,1.5-0.4,2.2-0.7c2.8-1.1,5-3.2,4.9-7.1
	c-0.1-3.3,0-6.7,0-10c0-0.9,0.1-1,1-1.2c0.3-0.1,0.5-0.1,0.8-0.2c0-0.9,0-1.7,0-2.5C43.6,196.6,37.2,196.6,36.5,196.9z M157.7,196.9
	c0,0.8,0,1.7,0,2.5c0.2,0.1,0.4,0.1,0.6,0.1c1.1,0.2,1.1,0.3,1.2,1.4c0,0.1,0,0.2,0,0.3c0,3.4,0,6.8,0,10.1c0,0.5-0.1,1-0.1,1.5
	c-0.3,1.6-1.2,2.5-2.8,2.8c-0.9,0.2-1.9,0.2-2.8,0c-1.3-0.3-2.2-1.1-2.5-2.4c-0.2-0.6-0.2-1.3-0.2-1.9c0-3.5,0-7,0-10.4
	c0-1.1,0-1.1,1.1-1.3c0.2,0,0.5-0.1,0.7-0.2c0-0.8,0-1.7,0-2.5c-1.2-0.2-7.5-0.2-8.2,0.1c0,0.8,0,1.6,0,2.4c0.3,0.1,0.6,0.1,0.9,0.2
	c0.8,0.2,0.9,0.3,0.9,1.1c0,0.3,0,0.5,0,0.8c0,3.2,0,6.5,0,9.7c0,0.8,0.1,1.6,0.2,2.3c0.3,2.6,1.7,4.2,4.3,4.9
	c0.3,0.1,0.5,0.2,0.7,0.3c1.8,0,3.5,0,5.3,0c0.2-0.1,0.4-0.2,0.6-0.2c1.5-0.3,2.9-0.9,4.1-1.9c1.6-1.3,2.5-2.9,2.5-5
	c0-1.3,0-2.6,0-3.8c0-2.3,0-4.6,0-6.9c0-1,0.1-1.1,1.1-1.3c0.2,0,0.5-0.1,0.7-0.2c0.1-0.9,0.2-1.7-0.1-2.6
	C163.9,196.6,158.3,196.6,157.7,196.9z M109.3,215.2c0.5,0.1,1.1,0.1,1.7,0.1c0,1,0,1.9,0,3c-0.8,0-1.7,0-2.5,0
	c-0.6,0-1.2-0.1-1.8-0.1c-1,0-1.8-0.4-2.4-1.2c-0.7-0.8-1.3-1.6-2-2.5c-0.8,0.7-1.5,1.3-2.2,1.9c-1,0.9-2.1,1.7-3.4,2.1
	c-0.5,0-1.1,0-1.6,0c-1.5-0.6-2.8-1.5-3.7-2.8c-0.4-0.6-0.7-1.2-1-1.9c-0.6-1.5-0.3-2.8,0.9-4c1.2-1.1,2.4-2.2,3.6-3.3
	c0.2-0.2,0.4-0.4,0.7-0.6c-0.2-0.3-0.3-0.5-0.4-0.7c-1-1.4-1.4-3-1.3-4.7c0.1-1.6,0.9-2.8,2.4-3.4c0.7-0.3,1.6-0.5,2.3-0.6
	c2.2-0.2,4.4-0.2,6.5,0.4c0.4,0.1,0.7,0.2,1.1,0.4c-0.1,1.6-0.2,3.1-0.3,4.8c-0.9,0-1.7,0-2.6,0c-0.1-0.6-0.3-1.3-0.4-2
	c-0.2-0.7-0.3-0.8-1-0.9c-0.3,0-0.6-0.1-0.9-0.1c-2.5,0-2.9,2-2.4,3.4c0.1,0.4,0.4,0.9,0.7,1.2c1.2,1.6,2.5,3.2,3.8,4.7
	c0.1,0.1,0.2,0.2,0.3,0.3c0.9-0.8,1.7-1.5,2.6-2.3c0.8,0.8,1.4,1.6,2.1,2.5c-0.9,0.9-1.7,1.7-2.7,2.5c0.9,1.1,1.8,2.2,2.7,3.2
	C108.4,215,108.9,215.1,109.3,215.2z M100.1,211.8c-0.8-1-1.5-2-2.4-3c-0.8,0.7-1.6,1.4-2.4,2.1c-0.3,0.2-0.5,0.5-0.8,0.8
	c-0.6,0.8-0.5,1.7,0.3,2.4c0.6,0.6,1.6,0.7,2.3,0.2C98.2,213.5,99.1,212.7,100.1,211.8z M337.1,211.9c-0.3,0.8-0.6,1.5-0.9,2.2
	c-0.2,0.6-0.6,0.9-1.2,0.9c-1.8,0-3.6,0.1-5.5,0.1c-0.2,0-0.4,0-0.7-0.1c0-2,0-3.9,0-6c2.1,0,4.1,0,6.1,0c0-1.1,0-2.1,0-3.2
	c-2.1,0-4,0-6,0c-0.2-1.3-0.2-5.2,0-5.8c1.9,0,3.9,0,5.8,0c0.6,0,0.9,0.3,1,0.8c0.1,0.7,0.3,1.4,0.5,2.1c1,0,1.9,0,2.8,0
	c0.1-2.1,0.2-4.1,0.3-6.2c-1.2-0.2-16.1-0.2-16.9,0c0,0.9,0,1.7,0,2.6c0.2,0.1,0.4,0.1,0.5,0.1c1.2,0.2,1.2,0.2,1.2,1.4
	c0,1.9,0,3.8,0,5.8c0,2.5,0,5.1,0,7.6c0,0.8-0.1,0.9-0.9,1.1c-0.3,0.1-0.6,0.1-0.9,0.2c0,0.9,0,1.8,0,2.7c5.7,0,11.3,0,17,0
	c0.1-1.1,0.2-2.1,0.3-3.1c0-0.4,0.1-0.8,0.2-1.3c0-0.7,0-1.4,0-2C339.1,211.9,338.1,211.9,337.1,211.9z M13.2,206.9
	c-0.5-0.1-1-0.3-1.6-0.4c-1.7-0.5-3.5-0.9-5.2-1.4c-1.4-0.4-2-1.7-1.8-3.4c0.2-1.3,0.9-1.9,2.4-2c1.6-0.1,3.2,0,4.7,0
	c0.5,0,0.7,0.2,0.8,0.7c0.2,0.9,0.4,1.8,0.6,2.6c0.9,0,1.7,0,2.6,0c0.1-2,0.2-3.9,0.3-5.8c-0.2-0.1-0.3-0.2-0.4-0.2
	c-0.4-0.1-0.7-0.2-1.1-0.2c-2.8-0.1-5.6-0.2-8.4-0.2c-1,0-2.1,0.3-3.1,0.6c-1.4,0.4-2.2,1.4-2.5,2.8c-0.5,1.9-0.4,3.9,0.2,5.8
	c0.4,1.4,1.4,2.4,2.9,2.7c0.9,0.2,1.9,0.5,2.8,0.8c1.4,0.4,2.9,0.8,4.3,1.2c1,0.3,1.5,1,1.6,2c0.1,1.5-0.6,2.4-2.1,2.6
	c-1.7,0.3-3.4,0.3-5.1,0.1c-1.7-0.1-3.4-0.3-5.1-0.5c0,1.1,0,2.2,0,3.2c1.1,0.2,2.2,0.4,3.2,0.6c2.6,0,5.1,0,7.7,0
	c0.7-0.2,1.5-0.4,2.2-0.7c1.8-0.7,3-1.9,3.4-3.8c0.3-1.3,0.2-2.6,0-3.8C16.1,208.5,15.1,207.3,13.2,206.9z M134.8,206.8
	c-0.2,0-0.4-0.1-0.6-0.2c-1.9-0.5-3.8-1-5.8-1.6c-1.5-0.5-2.2-1.7-2-3.5c0.1-1.3,0.9-1.9,2.5-2c1.5-0.1,3,0,4.4,0
	c0.8,0,0.8,0.1,1,0.8c0.2,0.8,0.4,1.7,0.6,2.5c0.9,0.1,1.7,0.1,2.6,0c0.1-1.6,0.2-3.1,0.3-4.5c0.1-1.5,0.1-1.6-1.4-1.6
	c-2.9-0.1-5.8-0.2-8.7-0.2c-0.9,0-1.9,0.3-2.8,0.5c-1.5,0.5-2.4,1.5-2.7,3c-0.4,1.7-0.3,3.5,0.1,5.2c0.4,1.7,1.4,2.8,3.1,3.2
	c1.9,0.5,3.7,1,5.5,1.6c0.6,0.2,1.2,0.3,1.7,0.6c0.7,0.2,1,0.7,1.2,1.4c0.4,1.6-0.4,2.8-2.1,3.1c-2.4,0.4-4.7,0.2-7.1-0.1
	c-1-0.1-1.9-0.2-3-0.3c0,1.2,0,2.2,0,3.3c0.4,0.1,0.7,0.2,1,0.2c0.7,0.1,1.4,0.3,2.1,0.4c2.6,0,5.1,0,7.7,0c0.7-0.2,1.4-0.4,2.1-0.6
	c1.8-0.6,3.1-1.8,3.4-3.7c0.2-1,0.2-2.1,0.1-3.1C138.2,208.5,136.8,207.3,134.8,206.8z M211.6,206.9c-0.3-0.1-0.6-0.2-0.9-0.2
	c-2-0.5-3.9-1-5.9-1.6c-1.4-0.4-2-1.7-1.8-3.3c0.1-1.3,0.8-2,2.4-2.1c1.6-0.1,3.2,0,4.7,0c0.5,0,0.7,0.2,0.8,0.7
	c0.1,0.7,0.3,1.4,0.5,2.2c0.1,0.4,0.3,0.6,0.7,0.6c0.6,0,1.3,0,2,0c0.1-2,0.3-4,0.4-5.9c-0.2-0.1-0.3-0.2-0.5-0.2
	c-0.4-0.1-0.7-0.2-1.1-0.2c-2.8-0.1-5.5-0.2-8.3-0.2c-1,0-1.9,0.2-2.9,0.5c-1.6,0.5-2.6,1.6-2.9,3.3c-0.3,1.6-0.2,3.2,0.1,4.7
	c0.4,1.8,1.3,3.1,3.2,3.5c0.7,0.1,1.3,0.4,1.9,0.5c1.7,0.5,3.4,0.9,5.1,1.5c1.1,0.4,1.5,1,1.5,2.3c0,1.1-0.5,1.8-1.5,2.2
	c-0.3,0.1-0.6,0.2-0.9,0.2c-2.3,0.3-4.6,0.1-6.9-0.1c-1-0.1-1.9-0.4-2.9-0.2c0,1.1,0,2.1,0,3.2c0.4,0.1,0.7,0.2,1,0.2
	c0.7,0.1,1.3,0.2,2,0.4c2.6,0,5.1,0,7.7,0c0.7-0.2,1.5-0.4,2.2-0.7c1.8-0.7,3-1.9,3.4-3.8c0.3-1.3,0.2-2.6,0-3.8
	C214.5,208.5,213.4,207.3,211.6,206.9z M315.1,214.3c-1.2,0.3-2.4,0.6-3.6,0.8c-1.5,0.2-3.1,0.2-4.6-0.2c-1.6-0.4-2.6-1.5-2.8-3.2
	c-0.1-0.6-0.1-1.2-0.1-1.8c0-1.8,0-3.5,0-5.3c0-0.5,0.1-1,0.1-1.5c0.3-2,1.5-3.2,3.5-3.3c1.3-0.1,2.6,0,3.9,0c0.5,0,0.6,0.3,0.7,0.7
	c0.1,0.8,0.3,1.6,0.5,2.5c1,0.1,1.9,0.1,2.9,0c0.1-2,0.2-4,0.3-6c-1-0.1-1.8-0.2-2.7-0.3c-2.6-0.1-5.3-0.3-7.9,0.1
	c-3.7,0.6-5.7,2.6-6.1,6.3c-0.1,1-0.1,2-0.1,2.9c0,2.2,0,4.3,0.1,6.5c0.3,3.3,1.9,5,5.2,5.8c0.5,0.1,1,0.3,1.5,0.4
	c1.8,0,3.6,0,5.5,0c0.3-0.1,0.5-0.1,0.8-0.2c1.1-0.3,2.2-0.5,3.3-0.8c0.4-0.1,0.8-0.3,0.8-0.8c0-0.9,0-1.7,0-2.7
	C315.8,214.2,315.5,214.2,315.1,214.3z M241.4,144.9c-0.1-0.8-0.7-1.3-1.5-1.4c-0.3,0-0.6,0-0.9,0c-5.7,0-11.4,0-17.1,0
	c-0.3,0-0.6,0-0.9,0c-0.8-0.1-1.4-0.7-1.5-1.5c0-0.3,0-0.7,0-1c0-5.6,0-11.2,0-16.8c0-0.3,0-0.6,0-0.9c-0.1-1.2-0.7-1.8-1.9-1.8
	c-1.3,0-2.6,0-3.8,0c-1.1,0-2.3,0-3.4,0c-1.1,0-1.8-0.7-1.8-1.8c0-0.3,0-0.5,0-0.8c0-5.7,0-11.5,0-17.2c0-1.6-0.6-2.2-2.2-2.2
	c-2.2,0-4.5,0-6.7,0c-1.3,0-2.2-0.8-2.1-2.1c0.1-2.1,0-4.2,0-6.3c0-2.2-0.5-2.6-2.6-2.6c-2.1,0-4.3,0-6.4,0c-1.4,0-2.1-0.7-2.1-2.1
	c0-0.2,0-0.5,0-0.7c0-5.6,0-11.1,0-16.7c0-0.3,0-0.6,0-0.9c-0.1-0.9-0.7-1.5-1.7-1.6c-0.3,0-0.5,0-0.8,0c-4.7,0-9.3,0-14,0
	c-4.7,0-9.5,0-14.2,0c-0.3,0-0.6,0-0.9,0c-0.8,0.1-1.4,0.7-1.5,1.5c0,0.3,0,0.6,0,0.9c0,5.8,0,11.7,0,17.5c0,1.7-0.4,2.1-2.1,2.1
	c-2.4,0-4.7,0-7.1,0c-1.2,0-1.8,0.7-1.9,1.8c0,0.3,0,0.6,0,0.9c0,2.1,0,4.3,0,6.4c0,1.2-0.7,1.9-1.9,1.9c-0.3,0-0.5,0-0.8,0
	c-2.1,0-4.1,0-6.2,0c-1.3,0-2.3,0.8-2.1,2.1c0,0.2,0,0.5,0,0.7c0,5.5,0,11.1,0,16.6c0,0.3,0,0.6,0,0.9c-0.1,1.2-0.6,1.7-1.9,1.8
	c-2.2,0-4.4,0.1-6.6,0c-2-0.1-2.6,0.7-2.6,2.6c0.1,5.7,0,11.4,0,17.1c0,1.8-0.9,2.4-2.3,2.3c-3-0.1-5.9,0-8.9,0c-3,0-5.9,0-8.9,0
	c-1.2,0-1.9,0.6-1.9,1.8c0,2.5,0,4.9,0,7.4c0,1.1,0.6,1.7,1.7,1.8c0.3,0,0.5,0,0.8,0c9.4,0,18.7,0,28.1,0c0.4,0,0.7,0,1.1-0.1
	c0.8-0.1,1.3-0.7,1.4-1.5c0-0.3,0-0.6,0-0.9c0-5.8,0-11.5,0-17.3c0-1.7,0.6-2.2,2.3-2.2c2.1,0,4.1-0.1,6.2,0c2,0.1,2.6-0.7,2.6-2.6
	c-0.1-5.6,0-11.3,0-16.9c0-0.4,0-0.7,0.1-1.1c0.1-0.8,0.7-1.3,1.4-1.4c0.3,0,0.7,0,1,0c2.1,0,4.3,0,6.4,0c1.6,0,2.2-0.6,2.2-2.1
	c0-2.2,0-4.4,0-6.6c0-1.7,0.6-2.3,2.3-2.3c0.1,0,0.2,0,0.3,0c9.3,0,18.6,0,27.9,0c2.1,0,2.6,0.5,2.6,2.6c0,2.1,0,4.2,0,6.3
	c0,1.5,0.6,2.1,2.2,2.1c0.7,0,1.4,0,2.1,0c1.5,0,3,0,4.6,0c1.6,0,2.2,0.6,2.2,2.2c0,0.2,0,0.5,0,0.7c0,5.5,0,11,0,16.5
	c0,0.3,0,0.6,0,0.9c0.1,0.9,0.6,1.6,1.6,1.7c0.3,0,0.6,0,0.9,0c2.2,0,4.4,0,6.6,0c1.3,0,1.9,0.7,1.9,1.9c0,0.3,0,0.5,0,0.8
	c0,5.7,0,11.4,0,17.1c0,1.5,0.6,2.1,2.2,2.2c0.1,0,0.2,0,0.3,0c9.4,0,18.8,0,28.2,0c0.2,0,0.5,0,0.7,0c1.1-0.1,1.7-0.6,1.8-1.7
	c0-0.2,0-0.4,0-0.6c0-2.1,0-4.3,0-6.4C241.4,145.5,241.4,145.2,241.4,144.9z M89.3,88.3c2.2-0.1,4.5,0,6.7,0c1.3,0,1.9,0.6,2,1.9
	c0,0.3,0,0.5,0,0.8c0,2.1,0,4.3,0,6.4c0,1.3,0.6,1.8,1.9,1.9c0.1,0,0.3,0,0.4,0c5.8,0,11.7,0,17.5,0c0.2,0,0.4,0,0.6,0
	c0.8-0.1,1.4-0.5,1.6-1.3c0.1-0.4,0.1-0.8,0.1-1.2c0-5.8,0-11.6,0-17.4c0-1.3,0.7-2.1,1.9-2.1c2.4,0,4.8,0,7.2,0
	c1.3,0,1.9,0.7,1.9,2c0,0.3,0,0.5,0,0.8c0,2.1,0,4.2,0,6.3c0,1.3,0.7,1.9,1.9,1.9c2.4,0,4.8,0,7.2,0c1.2,0,1.8-0.6,1.9-1.8
	c0-0.2,0-0.5,0-0.7c0-5.7,0-11.4,0-17.1c0-0.3,0-0.5,0-0.8c-0.1-1-0.7-1.6-1.7-1.6c-0.3,0-0.6,0-0.9,0c-8.3,0-16.6,0-24.9,0
	c-8.4,0-16.9,0-25.3,0c-1.7,0-2.3,1-2.3,2.3c0,5.8,0,11.6,0,17.4C86.9,87.4,87.6,88.4,89.3,88.3z M211.4,66.2c-3.8,0-7.6,0-11.4,0
	c-0.2,0-0.5,0-0.7,0c-1.4,0-2,0.6-2,2c0,3.4,0,6.8,0,10.2c0,2.6,0,5.3,0,7.9c0,1.2,0.6,1.9,1.8,2c2.5,0,4.9,0,7.4,0
	c1.1,0,1.7-0.7,1.8-1.8c0-0.3,0-0.5,0-0.8c0-2.2,0-4.3,0-6.5c0-1.2,0.6-1.9,1.8-2c0.1,0,0.3,0,0.4,0c2.2,0,4.3,0,6.5,0
	c1.7,0,2.3,0.6,2.3,2.2c0,0.3,0,0.5,0,0.8c0,5.5,0,11,0,16.5c0,0.4,0,0.7,0.1,1.1c0.1,0.8,0.7,1.3,1.5,1.4c0.2,0,0.3,0,0.5,0
	c6,0,12,0,17.9,0c0.2,0,0.3,0,0.5,0c0.8-0.1,1.3-0.6,1.5-1.3c0.1-0.4,0.1-0.7,0.1-1.1c0-2,0.1-4,0-6c-0.1-1.8,0.4-2.7,2.6-2.6
	c2.1,0.1,4.3,0,6.4,0c1.3,0,2-0.7,2-2c0-0.1,0-0.3,0-0.4c0-5.8,0-11.5,0-17.3c0-0.3,0-0.5,0-0.8c-0.1-0.9-0.7-1.5-1.6-1.6
	c-0.3,0-0.6,0-0.9,0c-8.4,0-16.7,0-25.1,0C220.4,66.2,215.9,66.2,211.4,66.2z M87,46.3c0-1.5-0.6-2.1-2.1-2.1c-3,0-5.9,0-8.9,0
	c-1.6,0-3.1,0-4.7,0c-1.5,0-3,0-4.5,0c-1.2,0-1.9,0.7-1.9,1.9c0,0.1,0,0.3,0,0.4c0,5.8,0,11.7,0,17.5c0,0.2,0,0.3,0,0.5
	c0.1,1,0.7,1.7,1.8,1.7c2.5,0,5.1,0,7.6,0c1,0,1.6-0.7,1.7-1.7c0-0.3,0-0.5,0-0.8c0-2.2,0-4.4,0-6.6c0-1.3,0.6-1.9,1.9-1.9
	c0.3,0,0.5,0,0.8,0c2.1,0,4.1,0,6.2,0c1.5,0,2.1-0.6,2.1-2.1C87,50.8,87,48.6,87,46.3z M274.6,64.1c0-5.9,0-11.8,0-17.7
	c0-1.6-0.6-2.2-2.2-2.2c-2.9,0-5.9,0-8.8,0c-3,0-6,0-9,0c-1.4,0-2,0.6-2,2c0,2.3,0,4.7,0,7c0,1.4,0.6,2,2,2c1,0,2,0,2.9,0
	c1.4,0,2.8,0,4.2,0c1.3,0,1.9,0.6,1.9,1.9c0,0.3,0,0.5,0,0.8c0,2.1,0,4.1,0,6.2c0,1.5,0.6,2.1,2.1,2.1c2.3,0,4.5,0,6.8,0
	C273.9,66.3,274.6,65.3,274.6,64.1z M72.1,196.7c-0.8,0-1.2,0.3-1.5,1c-1.8,4.2-3.7,8.3-5.5,12.5c-0.1,0.3-0.3,0.7-0.5,1.1
	c-0.2-0.4-0.4-0.7-0.5-1c-1.7-4-3.4-7.9-5.1-11.9c-0.1-0.3-0.3-0.7-0.5-1c-0.2-0.4-0.6-0.6-1.1-0.6c-1.8,0-3.6,0-5.4,0
	c-0.1,0-0.2,0.1-0.3,0.1c0,0.8,0,1.7,0,2.5c1.4,0.3,1.5,0.4,1.5,1.9c0,0.1,0,0.1,0,0.2c0,4.2,0,8.4,0,12.6c0,1.5,0,1.5-1.4,1.9
	c-0.1,0-0.1,0.1-0.2,0.2c0,0.7-0.1,1.5,0.1,2.3c2.1,0,4.1,0,6.2,0c0-0.5,0-0.9,0-1.3c0-0.4,0-0.8,0-1.2c-1.6-0.5-1.6-0.5-1.6-2.1
	c0-3.2,0-6.3,0-9.5c0-0.3,0-0.6,0-1c0.3,0.2,0.5,0.5,0.6,0.8c1.9,4.3,3.7,8.5,5.6,12.8c0.3,0.6,0.6,1,1.3,1c0.8,0,1.1-0.3,1.4-1
	c1.8-4.2,3.6-8.4,5.5-12.6c0.1-0.3,0.3-0.6,0.4-0.9c0.1,0,0.1,0,0.2,0.1c0,0.3,0,0.7,0,1c0,3,0,5.9,0,8.9c0,2.3,0.1,1.9-1.9,2.4
	c0,0.8,0,1.7,0,2.6c2.7,0,5.4,0,8.1,0c0-0.9,0-1.8,0-2.7c-0.3,0-0.6-0.1-0.9-0.1c-0.6-0.1-0.8-0.3-0.8-1c0-0.2,0-0.4,0-0.6
	c0-4.3,0-8.6,0-13c0-0.1,0-0.3,0-0.4c0-0.9,0.1-1,1-1.2c0.3-0.1,0.5-0.1,0.8-0.2c0-0.8,0-1.6,0-2.5
	C75.7,196.7,73.9,196.7,72.1,196.7z M191.6,210.2c0.2,1.3,0.2,2.7-0.1,4c-0.3,1.4-1.2,2.4-2.5,3c-1.1,0.6-2.4,0.8-3.6,0.9
	c-1.1,0.1-2.3,0.2-3.4,0.2c-2.7,0-5.4,0-8.1,0c-0.4,0-0.7,0-1.2,0c0-1,0-1.8,0-2.7c0.2-0.1,0.5-0.2,0.7-0.2c1-0.2,1-0.2,1-1.3
	c0-1.5,0-3,0-4.5c0-2.9,0-5.7,0-8.6c0-1.3,0-1.3-1.3-1.5c-0.1,0-0.3-0.1-0.5-0.1c0-0.9,0-1.7,0-2.6c0.2,0,0.4-0.1,0.6-0.1
	c4.1,0,8.2,0,12.3,0c0.8,0,1.5,0.2,2.3,0.4c1.3,0.3,2.1,1.2,2.4,2.5c0.3,1.3,0.3,2.6,0.2,3.8c-0.2,1.3-0.9,2.4-2.2,3
	c-0.2,0.1-0.4,0.2-0.7,0.4c0.5,0.1,0.9,0.2,1.2,0.3C190.4,207.5,191.3,208.6,191.6,210.2z M179.1,205.2c1.7,0,3.4,0.1,5.1,0
	c1.5-0.1,2.2-1.3,2.1-3c-0.1-1.5-0.8-2.3-2.3-2.4c-1.6-0.1-3.2,0-4.9,0C179.1,201.7,179.1,203.4,179.1,205.2z M183.7,208.5
	c-0.2,0-0.5,0-0.7,0c-1.1,0-2.2,0-3.2,0c-0.2,0-0.4,0.1-0.7,0.1c0,2.2,0,4.3,0,6.5c1.7,0,3.4,0,5,0c0.5,0,0.9-0.1,1.4-0.3
	c0.9-0.3,1.4-0.9,1.6-1.9C187.6,210.1,186.5,208.7,183.7,208.5z M285.4,196.7c0,0.9,0,1.7,0,2.6c0.2,0,0.4,0.1,0.5,0.1
	c1.2,0.2,1.3,0.3,1.3,1.5c0,2.8,0,5.6,0,8.4c0,0.2-0.1,0.5-0.1,0.9c-0.3-0.5-0.5-0.8-0.8-1.1c-2.6-3.7-5.1-7.5-7.6-11.2
	c-0.5-0.8-1.2-1.2-2.2-1.2c-1.5,0-3,0-4.6,0c-0.2,0-0.3,0.1-0.5,0.1c0,0.9,0,1.6,0,2.5c0.5,0.1,1,0.2,1.5,0.3c0,0.4,0,0.8,0,1.2
	c0,4.4,0,8.8,0,13.2c0,1.6,0,1.6-1.6,1.8c-0.1,0-0.1,0.1-0.2,0.1c0,0.8,0,1.6,0,2.5c2.4,0,4.7,0,7.1,0c0-0.5,0-0.9,0-1.3
	c0-0.4,0-0.9,0-1.3c-0.2-0.1-0.4-0.1-0.5-0.1c-1.3-0.2-1.3-0.2-1.3-1.5c0-3.5,0-7.1,0-10.6c0-0.3,0-0.5,0.1-1c1.4,2.1,2.7,3.9,4,5.7
	c2.2,3.1,4.3,6.3,6.5,9.4c0.2,0.3,0.5,0.7,0.8,0.7c0.9,0.1,1.9,0.1,2.9,0c0-0.5,0-0.9,0-1.3c0-5.2,0-10.4,0-15.6
	c0-1.8,0-1.8,1.8-2.1c0.1-0.8,0.1-1.7,0-2.5C290,196.7,287.7,196.7,285.4,196.7z M265.7,215.6c0,0.9,0,1.8,0,2.6
	c-0.7,0.2-6.4,0.3-8.1,0.1c0-0.8,0-1.6,0-2.5c0.2,0,0.5-0.1,0.7-0.2c0.6-0.1,0.8-0.4,0.6-1c-0.2-0.7-0.6-1.4-0.9-2.2
	c-2.8,0-5.6,0-8.5,0c-0.3,0.7-0.5,1.4-0.8,2.1c-0.2,0.7,0,0.9,0.7,1.1c0.2,0,0.4,0.1,0.6,0.2c0,0.8,0,1.6,0,2.4
	c-0.7,0.2-5.6,0.3-7.1,0.1c0-0.8,0-1.7,0-2.5c0.1-0.1,0.1-0.1,0.2-0.1c1.1,0,1.7-0.6,2-1.6c2.1-5.4,4.3-10.8,6.4-16.2
	c0.1-0.4,0.3-0.7,0.5-1.2c1.3,0,2.6,0,3.9,0c0.4,0,0.5,0.3,0.7,0.7c0.8,2,1.6,3.9,2.4,5.9c1.4,3.5,2.8,6.9,4.2,10.4
	C263.8,214.8,264.3,215.7,265.7,215.6z M256.9,209.4c-1-2.6-2-5.3-3.1-7.9c-0.1,0-0.2,0-0.2,0c-1,2.7-2,5.3-3,8.1
	C252.9,209.8,256.2,209.7,256.9,209.4z M221.4,196.9c0.1,2,0.2,4.1,0.3,6.1c1,0,1.8,0,2.8,0c0.1-0.4,0.2-0.7,0.3-1.1
	c0.1-0.5,0.2-1.1,0.3-1.6c0.1-0.4,0.3-0.7,0.7-0.7c0.9,0,1.9,0,2.9,0c0,0.3,0.1,0.6,0.1,0.9c0,4.5,0,8.9,0,13.4c0,0.2,0,0.3,0,0.5
	c-0.1,0.7-0.2,0.9-0.9,1c-0.6,0.1-1.2,0.2-1.8,0.2c0,0.9,0,1.8,0,2.6c1.1,0.2,9.2,0.2,9.9,0c0-0.8,0-1.6,0-2.5
	c-0.5-0.1-1-0.2-1.4-0.2c-1.2-0.2-1.3-0.2-1.3-1.5c0-4.5,0-9,0-13.5c0-0.3,0-0.6,0.1-0.9c0.7,0,1.3,0,1.9,0c1.7,0,1.6-0.2,1.9,1.6
	c0.1,0.6,0.1,1.3,0.5,1.8c0.9,0,1.8,0,2.7,0c0.1-2.1,0.2-4.1,0.3-6.2C239.3,196.6,222.3,196.6,221.4,196.9z M92.5,143.5
	c1.2,0,2.4,0,3.5,0c1.3,0,1.9-0.6,2-1.9c0-2.4,0-4.8,0-7.2c0-1.2-0.6-1.9-1.9-1.9c-2.4,0-4.9,0-7.3,0c-1.2,0-1.9,0.6-1.9,1.9
	c0,2.4,0,4.9,0,7.3c0,1.2,0.7,1.8,1.9,1.9C90.1,143.5,91.3,143.5,92.5,143.5z M246.9,143.5c1.2,0,2.4,0,3.6,0c1.2,0,1.9-0.7,1.9-1.9
	c0-2.4,0-4.9,0-7.3c0-1.2-0.7-1.8-1.8-1.8c-2.5,0-4.9,0-7.4,0c-1.1,0-1.8,0.6-1.8,1.7c-0.1,2.5,0,5,0,7.5c0,1.2,0.7,1.8,1.9,1.8
	C244.5,143.5,245.7,143.5,246.9,143.5z"/>
</svg>
