<?xml version="1.0" encoding="utf-8"?>
<!-- Generator: Adobe Illustrator 21.1.0, SVG Export Plug-In . SVG Version: 6.00 Build 0)  -->
<svg version="1.1" id="Layer_1" xmlns="http://www.w3.org/2000/svg" xmlns:xlink="http://www.w3.org/1999/xlink" x="0px" y="0px"
	 viewBox="0 0 23.9 38.6" style="enable-background:new 0 0 23.9 38.6;" xml:space="preserve">
<path fill="#abb4bb" d="M9.9,13.1c0-0.5,0.2-0.9,0.6-1.2c0.4-0.3,0.9-0.4,1.6-0.4c1.1,0,2.5,0.3,4.2,0.9c1.7,0.6,3.3,1.3,4.7,2.1
	l2.9-6.1c-1.1-0.7-2.5-1.4-3.9-1.9c-1.5-0.5-3-0.9-4.6-1.1V0H9.7v5.6C7.2,6,5.2,7,3.8,8.4c-1.4,1.4-2.1,3.2-2.1,5.4
	c0,1.8,0.4,3.2,1.3,4.3C3.9,19.2,5,20,6.2,20.5c1.2,0.5,2.7,1,4.6,1.5c1.6,0.4,2.9,0.8,3.6,1.2c0.8,0.4,1.2,1,1.2,1.7
	c0,0.6-0.2,1.1-0.7,1.4c-0.5,0.3-1.2,0.5-2,0.5c-1.4,0-3.1-0.4-5-1.2c-1.9-0.8-3.6-1.8-4.9-2.9l-3,6c1.3,1,2.7,1.9,4.4,2.6
	c1.7,0.7,3.4,1.2,5.2,1.5v5.9h5.7v-5.8c2.5-0.4,4.6-1.2,6.1-2.7c1.6-1.4,2.3-3.3,2.3-5.7c0-1.8-0.5-3.3-1.3-4.4
	c-0.9-1.1-2-1.9-3.2-2.5c-1.2-0.5-2.8-1.1-4.6-1.6c-1.6-0.5-2.8-0.9-3.6-1.3C10.3,14.3,9.9,13.8,9.9,13.1L9.9,13.1z"/>
</svg>
