<?xml version="1.0" encoding="utf-8"?>
<!-- Generator: Adobe Illustrator 21.1.0, SVG Export Plug-In . SVG Version: 6.00 Build 0)  -->
<svg version="1.1" id="Layer_1" xmlns="http://www.w3.org/2000/svg" xmlns:xlink="http://www.w3.org/1999/xlink" x="0px" y="0px"
	 viewBox="0 0 28 38.8" style="enable-background:new 0 0 28 38.8;" xml:space="preserve">
<path fill="#ffffff" d="M22.8,18c2.1-1.1,3.4-2.9,3.1-6c-0.4-4.2-4.1-5.7-8.7-6.1l0-5.9l-3.6,0l0,5.7c-0.9,0-1.9,0-2.9,0l0-5.8L7.2,0l0,5.9
	c-0.8,0-1.5,0-2.3,0l0,0L0,5.9l0,3.8c0,0,2.6,0,2.6,0c1.4,0,1.9,0.8,2.1,1.6l0,6.7c0.1,0,0.2,0,0.4,0c-0.1,0-0.2,0-0.4,0l0,9.4
	c-0.1,0.5-0.3,1.2-1.3,1.2c0,0-2.6,0-2.6,0L0,32.8l4.7,0c0.9,0,1.7,0,2.6,0l0,5.9l3.6,0l0-5.9c1,0,1.9,0,2.9,0l0,5.8h3.6l0-5.9
	c6-0.3,10.2-1.8,10.7-7.5C28.4,20.8,26.2,18.8,22.8,18z M10.9,10c2,0,8.4-0.6,8.3,3.6c0,4-6.3,3.6-8.4,3.6L10.9,10z M10.9,28.6
	l0-7.9c2.4,0,10-0.7,10,3.9C20.9,29.1,13.3,28.6,10.9,28.6z"/>
</svg>
