<?xml version="1.0" encoding="utf-8"?>
<!-- Generator: Adobe Illustrator 22.0.1, SVG Export Plug-In . SVG Version: 6.00 Build 0)  -->
<svg version="1.1" id="Layer_1" xmlns="http://www.w3.org/2000/svg" xmlns:xlink="http://www.w3.org/1999/xlink" x="0px" y="0px"
	 viewBox="0 0 164 164" style="enable-background:new 0 0 164 164;" xml:space="preserve">
<style type="text/css">
	.st0{fill:#FFFFFF;}
	.st1{fill:#ABB4BB;}
</style>
<rect class="st0" width="164" height="164"/>
<path class="st1" d="M126.3,118.9c-2.5-4.9-7.4-8-12.9-8h-8.1c-5.7,0-10.4-4.3-11.1-9.8c5.7-3.7,9.5-10.2,9.5-17.5V64.3
	c0-6.2-5-11.2-11.2-11.2H55.5c-0.9,0-1.6,0.7-1.6,1.6c0,2.9,1.3,5.5,3.4,7.3c-0.1,0.2-0.2,0.5-0.2,0.7c0,3.5,1.9,6.6,4.8,8.3v12.5
	c0,7.3,3.8,13.8,9.5,17.5c-0.7,5.5-5.4,9.8-11.1,9.8h-8.1c-5.5,0-10.5,3.1-12.9,8l-4.5,9c-0.1,0.2-0.2,0.5-0.2,0.7v1.6h3.2v-1.2
	l4.3-8.6c1.9-3.8,5.8-6.2,10-6.2h8.1c6.9,0,12.7-4.9,14.1-11.4c2.6,1.1,5.4,1.8,8.4,1.8s5.8-0.6,8.4-1.8c1.4,6.5,7.2,11.4,14.1,11.4
	h8.1c4.3,0,8.1,2.4,10,6.2l4.3,8.6v1.2h3.2v-1.6c0-0.2-0.1-0.5-0.2-0.7L126.3,118.9z M82.8,101.3c-9.7,0-17.7-7.9-17.7-17.7V70.1
	c0-0.6-0.4-1.2-1-1.5c-1.8-0.8-3.2-2.4-3.6-4.3h3c0.9,0,1.6-0.7,1.6-1.6c0-0.9-0.7-1.6-1.6-1.6c-3,0-5.5-2-6.2-4.8h35.1
	c4.4,0,8,3.6,8,8v19.3C100.5,93.3,92.5,101.3,82.8,101.3z M86.1,118.8l2.8-3.7c0.4-0.5,0.4-1.1,0.2-1.7c-0.3-0.5-0.8-0.9-1.4-0.9H78
	c-0.6,0-1.2,0.3-1.4,0.9c-0.3,0.5-0.2,1.2,0.2,1.7l2.8,3.7l-4.5,9.1c-0.1,0.2-0.2,0.5-0.2,0.7v1.6H78v-1.2l3.7-7.3
	c0.3,0.3,0.7,0.5,1.1,0.5s0.8-0.2,1.1-0.5l3.7,7.3v1.2h3.2v-1.6c0-0.2-0.1-0.5-0.2-0.7L86.1,118.8z M82.8,117.8l-1.6-2.1h3.2
	L82.8,117.8z M81.7,49.4L75.2,43l2.3-2.3l3.7,3.7V33.9h3.2v10.6l3.7-3.7l2.3,2.3l-6.4,6.4c-0.3,0.3-0.7,0.5-1.1,0.5
	C82.4,49.9,82,49.7,81.7,49.4z M116,68.7l-3.7,3.7h10.6v3.2h-10.6l3.7,3.7l-2.3,2.3l-6.4-6.4c-0.6-0.6-0.6-1.6,0-2.3l6.4-6.4
	L116,68.7z M49.6,79.3l3.7-3.7H42.7v-3.2h10.6l-3.7-3.7l2.3-2.3l6.4,6.4c0.6,0.6,0.6,1.6,0,2.3l-6.4,6.4L49.6,79.3z M129.3,75.6
	h-3.2v-3.2h3.2V75.6z M36.3,75.6v-3.2h3.2v3.2H36.3z M74.8,70.8c-3.5,0-6.4,2.9-6.4,6.4s2.9,6.4,6.4,6.4s6.4-2.9,6.4-6.4
	S78.3,70.8,74.8,70.8z M74.8,80.4c-1.8,0-3.2-1.4-3.2-3.2c0-1.8,1.4-3.2,3.2-3.2c1.8,0,3.2,1.4,3.2,3.2C78,79,76.5,80.4,74.8,80.4z
	 M90.8,83.6c3.5,0,6.4-2.9,6.4-6.4s-2.9-6.4-6.4-6.4s-6.4,2.9-6.4,6.4S87.3,83.6,90.8,83.6z M90.8,74c1.8,0,3.2,1.4,3.2,3.2
	c0,1.8-1.4,3.2-3.2,3.2c-1.8,0-3.2-1.4-3.2-3.2C87.6,75.4,89.1,74,90.8,74z M126.1,33.9h-19.3c-2.7,0-4.8,2.2-4.8,4.8v9.6
	c0,2.7,2.2,4.8,4.8,4.8v3.2c0,0.6,0.3,1.1,0.8,1.4c0.2,0.1,0.5,0.2,0.8,0.2c0.3,0,0.6-0.1,0.8-0.2l7.6-4.6h9.2
	c2.7,0,4.8-2.2,4.8-4.8v-9.6C130.9,36,128.8,33.9,126.1,33.9z M127.7,48.3c0,0.9-0.7,1.6-1.6,1.6h-9.6c-0.3,0-0.6,0.1-0.8,0.2
	l-5.6,3.4v-2c0-0.9-0.7-1.6-1.6-1.6h-1.6c-0.9,0-1.6-0.7-1.6-1.6v-9.6c0-0.9,0.7-1.6,1.6-1.6h19.3c0.9,0,1.6,0.7,1.6,1.6V48.3z
	 M108.5,41.9h3.2v3.2h-3.2V41.9z M114.9,41.9h3.2v3.2h-3.2V41.9z M121.3,41.9h3.2v3.2h-3.2V41.9z M57.1,107.7c2.7,0,4.8-2.2,4.8-4.8
	v-6.4c0-2.5-2-4.6-4.5-4.8l1.2-6.1c0.1-0.7-0.2-1.3-0.8-1.7c-0.6-0.3-1.3-0.3-1.8,0.1l-9.2,7.7h-9c-2.7,0-4.8,2.2-4.8,4.8v6.4
	c0,2.7,2.2,4.8,4.8,4.8H57.1z M36.3,102.9v-6.4c0-0.9,0.7-1.6,1.6-1.6h9.6c0.4,0,0.7-0.1,1-0.4l6.1-5.1L54,92.9
	c-0.1,0.5,0,1,0.3,1.3c0.3,0.4,0.8,0.6,1.2,0.6h1.6c0.9,0,1.6,0.7,1.6,1.6v6.4c0,0.9-0.7,1.6-1.6,1.6H37.9
	C37,104.5,36.3,103.7,36.3,102.9z M55.5,101.3h-3.2V98h3.2V101.3z M49.1,101.3h-3.2V98h3.2V101.3z M42.7,101.3h-3.2V98h3.2V101.3z
	 M90.8,88.4H94c0,4.4-3.6,8-8,8v-3.2C88.7,93.2,90.8,91.1,90.8,88.4z M39.5,49.9h2.8l7.6,4.6c0.3,0.2,0.5,0.2,0.8,0.2
	c0.3,0,0.5-0.1,0.8-0.2c0.5-0.3,0.8-0.8,0.8-1.4v-3.2c2.7,0,4.8-2.2,4.8-4.8v-6.4c0-2.7-2.2-4.8-4.8-4.8H39.5
	c-2.7,0-4.8,2.2-4.8,4.8v6.4C34.7,47.7,36.8,49.9,39.5,49.9z M37.9,38.7c0-0.9,0.7-1.6,1.6-1.6h12.8c0.9,0,1.6,0.7,1.6,1.6v6.4
	c0,0.9-0.7,1.6-1.6,1.6h-1.6c-0.9,0-1.6,0.7-1.6,1.6v2l-5.6-3.4c-0.3-0.1-0.5-0.2-0.8-0.2h-3.2c-0.9,0-1.6-0.7-1.6-1.6V38.7z
	 M50.7,43.5h-3.2v-3.2h3.2V43.5z M44.3,43.5h-3.2v-3.2h3.2V43.5z M103.7,96.4v6.4c0,2.7,2.2,4.8,4.8,4.8h12.8c2.7,0,4.8-2.2,4.8-4.8
	v-6.4c0-2.7-2.2-4.8-4.8-4.8h-2.8l-7.6-4.6c-0.5-0.3-1.1-0.3-1.6,0c-0.5,0.3-0.8,0.8-0.8,1.4v3.2C105.8,91.6,103.7,93.8,103.7,96.4z
	 M106.9,96.4c0-0.9,0.7-1.6,1.6-1.6h1.6c0.9,0,1.6-0.7,1.6-1.6v-2l5.6,3.4c0.3,0.1,0.5,0.2,0.8,0.2h3.2c0.9,0,1.6,0.7,1.6,1.6v6.4
	c0,0.9-0.7,1.6-1.6,1.6h-12.8c-0.9,0-1.6-0.7-1.6-1.6V96.4z M113.3,101.3h-3.2V98h3.2V101.3z M119.7,101.3h-3.2V98h3.2V101.3z"/>
</svg>
